<svg id="Layer_1" data-name="Layer 1" xmlns="http://www.w3.org/2000/svg" viewBox="0 0 500 500"><defs><style>.cls-1{fill:none;stroke-miterlimit:10;}.cls-1,.cls-3{stroke:#520993;stroke-width:5px;}.cls-2{fill:#24e2bb;}.cls-3{fill:#fff;stroke-linecap:round;stroke-linejoin:round;}.cls-4{fill:#f9f7f8;}.cls-5{fill:#f29021;}</style></defs><title>Custom_Software_development5</title><rect class="cls-1" x="150.46" y="116.9" width="251.42" height="251.09" rx="12.85"/><rect class="cls-2" x="40.89" y="183.22" width="205.22" height="20.08" rx="10.04" transform="translate(-94.62 158.08) rotate(-45)"/><path class="cls-3" d="M265.28,57.94s8.21,37.75-5.84,51.69c-14.66,14.57-30.51,8.18-30.51,8.18l-10-10S216.44,83.16,230.57,80C254.57,74.69,265.28,57.94,265.28,57.94Z"/><rect class="cls-3" x="170" y="121.02" width="61.34" height="30.12" transform="translate(-37.45 181.75) rotate(-45)"/><path class="cls-4" d="M424.07,133.37h-8.74a42.45,42.45,0,0,0-3.44-8.31l6.24-6.25a5.12,5.12,0,0,0,0-7.24h0l-10-10a5.12,5.12,0,0,0-7.24,0h0l-6.25,6.24a41.5,41.5,0,0,0-8.33-3.43V95.65a5.12,5.12,0,0,0-5.12-5.12H367.13A5.14,5.14,0,0,0,362,95.65v8.74a43.13,43.13,0,0,0-8.32,3.43l-6.24-6.24a5.12,5.12,0,0,0-7.24,0h0l-10,10a5.12,5.12,0,0,0,0,7.24h0l6.24,6.25a41.81,41.81,0,0,0-3.43,8.31h-8.81a5.14,5.14,0,0,0-5.12,5.12v14.08a5.13,5.13,0,0,0,5.12,5.12H333a42,42,0,0,0,3.43,8.33l-6.24,6.24a5.12,5.12,0,0,0,0,7.24h0l10,10a5.12,5.12,0,0,0,7.24,0h0l6.24-6.24A42.58,42.58,0,0,0,362,186.7v8.74a5.12,5.12,0,0,0,5.12,5.12H381.2a5.11,5.11,0,0,0,5.12-5.1V186.7a42.16,42.16,0,0,0,8.33-3.45l6.25,6.24a5.12,5.12,0,0,0,7.24,0h0l10-10a5.12,5.12,0,0,0,0-7.24h0L411.89,166a42,42,0,0,0,3.44-8.33h8.74a5.11,5.11,0,0,0,5.12-5.1v-14.1a5.12,5.12,0,0,0-5.12-5.12Zm-49.95,36.48a24.3,24.3,0,1,1,.05,0Z"/><path class="cls-5" d="M281.28,219.67l-.15.1,16.11,25a10.47,10.47,0,0,1,1.17,8.75c-5.8,18.29-25.4,18.73-33.07,6.79l-13.87-21.57-.15.1,1.4,29.05a10.41,10.41,0,0,0,6.34,9.09l28.34,12,.16-.1,34.15,45.69h0l47.71,74.13A10.41,10.41,0,0,0,383.78,412h0a10.43,10.43,0,0,0,3.12-14.4l-47.7-74.13h0L311.79,273.5l.15-.1.81-30.79a10.45,10.45,0,0,0-5.65-9.54Z"/><path class="cls-4" d="M236.66,335.42H223.74a62,62,0,0,0-5.05-12.21l9.13-9.13a7.51,7.51,0,0,0,0-10.6l0,0-14.61-14.61a7.49,7.49,0,0,0-10.6,0l0,0L193.45,298a62.81,62.81,0,0,0-12.23-5.06V280a7.49,7.49,0,0,0-7.49-7.49H153a7.49,7.49,0,0,0-7.49,7.49V292.9A62.63,62.63,0,0,0,133.34,298l-9.13-9.13a7.49,7.49,0,0,0-10.6,0l0,0L99,303.44a7.5,7.5,0,0,0,0,10.6l0,0,9.13,9.13a62.67,62.67,0,0,0-5,12.21h-13a7.5,7.5,0,0,0-7.5,7.49v20.67a7.49,7.49,0,0,0,7.5,7.49H103a62.81,62.81,0,0,0,5,12.23l-9.13,9.13a7.5,7.5,0,0,0,0,10.59l0,0,14.62,14.61a7.49,7.49,0,0,0,10.59,0l0,0,9.13-9.12a62.47,62.47,0,0,0,12.22,5v12.91a7.49,7.49,0,0,0,7.49,7.5h20.8a7.49,7.49,0,0,0,7.49-7.5v-12.8a62,62,0,0,0,12.23-5l9.12,9.13a7.5,7.5,0,0,0,10.59,0l.05,0,14.61-14.61a7.51,7.51,0,0,0,0-10.6l0,0-9.13-9.19a62.16,62.16,0,0,0,5.05-12.23h12.92a7.49,7.49,0,0,0,7.49-7.49V342.94a7.5,7.5,0,0,0-7.47-7.52ZM163.38,389a35.7,35.7,0,1,1,35.7-35.7h0a35.71,35.71,0,0,1-35.7,35.7Z"/></svg>