<?xml version="1.0" encoding="utf-8"?>
<!DOCTYPE svg PUBLIC "-//W3C//DTD SVG 1.1//EN" "http://www.w3.org/Graphics/SVG/1.1/DTD/svg11.dtd">
<svg version="1.1" xmlns="http://www.w3.org/2000/svg" xmlns:xlink="http://www.w3.org/1999/xlink" x="0px" y="0px" width="190px"
	 height="190px" viewBox="0 0 190 190" xml:space="preserve">
<g>
	<circle fill="#FFED00" cx="95" cy="95" r="95"/>
	<g transform="translate(-31,-16)">
		<path fill="none" stroke="#1D1D1B" stroke-width="1.4595" stroke-miterlimit="10" d="M163.117,71.958V53.315
			c0-6.063-4.918-10.978-10.982-10.978h-46.119c-6.063,0-10.98,4.914-10.98,10.978v6.728h-0.451v5.465h0.451v6.672h-0.451V82.3
			h0.451v2.343h-0.451v10.196h0.451v76.123c0,6.066,4.917,10.983,10.98,10.983h46.119c6.064,0,10.982-4.917,10.982-10.983V82.42
			h0.354V71.958H163.117z M129.355,46.004c0.429,0,0.779,0.348,0.779,0.781s-0.351,0.781-0.779,0.781
			c-0.437,0-0.784-0.348-0.784-0.781S128.919,46.004,129.355,46.004z M124.588,50.596h9.58c0.309,0,0.563,0.254,0.563,0.564
			c0,0.309-0.255,0.562-0.563,0.562h-9.58c-0.312,0-0.563-0.254-0.563-0.562C124.024,50.85,124.275,50.596,124.588,50.596z
			 M118.4,49.915c0.678,0,1.226,0.547,1.226,1.22s-0.548,1.223-1.226,1.223c-0.673,0-1.22-0.55-1.22-1.223
			S117.728,49.915,118.4,49.915z M129.076,177.544c-2.885,0-5.231-2.346-5.231-5.23c0-2.882,2.347-5.228,5.231-5.228
			s5.23,2.346,5.23,5.228C134.307,175.198,131.961,177.544,129.076,177.544z M158.626,164.469H99.527V59.299h59.099V164.469z"/>
		<path fill="none" stroke="#1D1D1B" stroke-width="1.4595" stroke-miterlimit="10" d="M129.076,167.673
			c-2.561,0-4.646,2.081-4.646,4.641c0,2.562,2.085,4.646,4.646,4.646c2.56,0,4.643-2.084,4.643-4.646
			C133.719,169.754,131.636,167.673,129.076,167.673z"/>
	</g>
</g>
</svg>
