<svg id="Layer_1" data-name="Layer 1" xmlns="http://www.w3.org/2000/svg" viewBox="0 0 500 500"><defs><style>.cls-1{fill:#520993;}.cls-2{fill:none;stroke:#520993;stroke-miterlimit:10;stroke-width:4px;}.cls-3{fill:#f9f7f8;}.cls-4{fill:#24e2bb;}.cls-5{fill:#f29021;}</style></defs><title>testdrivenenvironment</title><rect class="cls-1" x="58" y="246.71" width="75.9" height="119.32" rx="4.87"/><rect class="cls-2" x="237.91" y="118.02" width="58.41" height="58.1" rx="2.98"/><circle class="cls-3" cx="398.77" cy="309.8" r="41.23"/><path class="cls-4" d="M314.85,147.76c20.49-2.92,42.17,3.19,57.79,16.89a73.37,73.37,0,0,1,24.62,52.58c.12,3.61,5.74,3.63,5.62,0-.7-22-10.54-43.35-27.44-57.56-17.19-14.46-40-20.48-62.08-17.33-3.57.51-2.05,5.93,1.49,5.42Z"/><polygon class="cls-4" points="426.26 212.35 375.02 212.35 401.27 251.08 426.26 212.35"/><path class="cls-5" d="M100.55,227.41c-2.93-20.49,3.18-42.17,16.88-57.78A73.34,73.34,0,0,1,170,145c3.61-.11,3.63-5.73,0-5.62-21.95.7-43.35,10.55-57.56,27.45C98,184,92,206.79,95.13,228.91c.51,3.57,5.92,2.05,5.42-1.5Z"/><polygon class="cls-5" points="165.13 116 165.13 167.24 203.87 141 165.13 116"/><path class="cls-4" d="M249.71,196c2.93,20.49-3.18,42.17-16.88,57.79a73.37,73.37,0,0,1-52.58,24.62c-3.61.12-3.63,5.74,0,5.62,21.95-.7,43.35-10.55,57.56-27.44,14.46-17.19,20.48-40,17.32-62.09-.51-3.56-5.92-2-5.42,1.5Z"/><polygon class="cls-4" points="185.13 307.45 185.13 256.21 146.39 282.46 185.13 307.45"/><path class="cls-5" d="M372.28,363.1a71.79,71.79,0,0,1-107.41,9.18c-2.64-2.47-6.62,1.5-4,4,16.41,15.38,39.17,23.57,61.65,21.15a79.18,79.18,0,0,0,54.59-31.47c2.17-2.9-2.7-5.7-4.85-2.84Z"/><polygon class="cls-5" points="247.81 396.24 284.04 360.01 238.1 351.18 247.81 396.24"/></svg>