<svg fill="none" height="89" viewBox="0 0 134 89" width="134" xmlns="http://www.w3.org/2000/svg" xmlns:xlink="http://www.w3.org/1999/xlink"><clipPath id="a"><path d="m0 0h134v89h-134z"/></clipPath><clipPath id="b"><path d="m-6 0h146v77h-146z"/></clipPath><g clip-path="url(#a)"><path d="m0 0h134v89h-134z" fill="#fff"/><path d="m73.1992 11.5996h48.8008v74.8008h-48.8008z" fill="#fff"/><g clip-path="url(#b)"><path d="m85.8763 65.4922c-1.8835 0-3.4156-1.5096-3.4156-3.3642s1.5321-3.3631 3.4156-3.3631c1.8836 0 3.4156 1.5085 3.4156 3.3631s-1.532 3.3642-3.4156 3.3642zm-37.7543 0c-1.8836 0-3.4156-1.5096-3.4156-3.3642s1.532-3.3631 3.4156-3.3631c1.8834 0 3.4155 1.5085 3.4155 3.3631s-1.5321 3.3642-3.4155 3.3642zm38.9794-20.2594 6.8267-11.6414c.3913-.6691.1585-1.5238-.52-1.9102-.6784-.3854-1.5476-.1561-1.94.5119l-6.9121 11.7888c-5.2858-2.3752-11.2223-3.6982-17.5569-3.6982-6.3345 0-12.271 1.323-17.5568 3.6982l-6.9121-11.7888c-.3925-.668-1.2616-.8973-1.9401-.5119-.6784.3864-.9123 1.2411-.5199 1.9102l6.8267 11.6414c-11.7223 6.2776-19.7396 17.9627-20.9125 31.7677h82.0296c-1.174-13.805-9.1914-25.4901-20.9126-31.7677z" fill="#3ddb85"/></g></g></svg>