<svg width="134" height="89" viewBox="0 0 134 89" fill="none" xmlns="http://www.w3.org/2000/svg">
<rect width="134" height="89" fill="white"/>
<g clip-path="url(#clip0_9891_2430)">
<path d="M95.8208 22H39.1793C38.9434 22 38.707 22 38.4716 22.0014C38.2725 22.0028 38.0739 22.005 37.8753 22.0104C37.4422 22.022 37.0054 22.0475 36.5777 22.1241C36.1431 22.202 35.7388 22.329 35.3443 22.5291C34.9565 22.7255 34.6014 22.9825 34.2937 23.2891C33.9859 23.5957 33.728 23.9488 33.5308 24.3355C33.3299 24.7284 33.2023 25.1313 33.1246 25.5645C33.0473 25.9906 33.0216 26.4257 33.0099 26.8566C33.0046 27.0544 33.0023 27.2523 33.001 27.45C32.9996 27.6851 33.0001 27.92 33.0001 28.1555V59.845C33.0001 60.0805 32.9996 60.315 33.001 60.5505C33.0023 60.7482 33.0046 60.9461 33.0099 61.1439C33.0216 61.5745 33.0473 62.0095 33.1246 62.4355C33.2023 62.8689 33.3299 63.2716 33.5308 63.6646C33.728 64.0513 33.9859 64.4048 34.2937 64.711C34.6014 65.0181 34.9565 65.275 35.3443 65.4709C35.7388 65.6715 36.1431 65.7986 36.5777 65.8765C37.0054 65.9525 37.4422 65.9785 37.8753 65.9901C38.0739 65.9946 38.2725 65.9973 38.4716 65.9982C38.707 66 38.9434 66 39.1793 66H95.8208C96.0563 66 96.2926 66 96.528 65.9982C96.7267 65.9973 96.9253 65.9946 97.1248 65.9901C97.557 65.9785 97.9937 65.9525 98.4225 65.8765C98.8564 65.7986 99.2609 65.6715 99.6554 65.4709C100.044 65.275 100.398 65.0181 100.706 64.711C101.013 64.4048 101.271 64.0513 101.469 63.6646C101.67 63.2716 101.798 62.8689 101.875 62.4355C101.952 62.0095 101.977 61.5745 101.989 61.1439C101.995 60.9461 101.997 60.7482 101.998 60.5505C102 60.315 102 60.0805 102 59.845V28.1555C102 27.92 102 27.6851 101.998 27.45C101.997 27.2523 101.995 27.0544 101.989 26.8566C101.977 26.4257 101.952 25.9906 101.875 25.5645C101.798 25.1313 101.67 24.7284 101.469 24.3355C101.271 23.9488 101.013 23.5957 100.706 23.2891C100.398 22.9825 100.044 22.7255 99.6554 22.5291C99.2609 22.329 98.8564 22.202 98.4225 22.1241C97.9937 22.0475 97.557 22.022 97.1248 22.0104C96.9253 22.005 96.7267 22.0028 96.528 22.0014C96.2926 22 96.0563 22 95.8208 22Z" fill="black"/>
<path d="M95.8211 23.4668L96.5178 23.4681C96.7066 23.4695 96.8954 23.4715 97.0852 23.4766C97.4153 23.4855 97.8015 23.5033 98.1615 23.5676C98.4745 23.6238 98.7369 23.7091 98.9888 23.8369C99.2375 23.9627 99.4653 24.1276 99.6642 24.3255C99.8639 24.5247 100.03 24.752 100.158 25.0024C100.285 25.2513 100.37 25.5115 100.426 25.8255C100.491 26.1802 100.509 26.566 100.518 26.8969C100.523 27.0836 100.525 27.2704 100.526 27.4616C100.528 27.6929 100.528 27.924 100.528 28.1557V59.8452C100.528 60.0769 100.528 60.3076 100.526 60.5438C100.525 60.7305 100.523 60.9173 100.518 61.1044C100.509 61.4348 100.491 61.8203 100.426 62.1792C100.37 62.4889 100.285 62.7491 100.157 62.9993C100.029 63.2491 99.8639 63.4761 99.6651 63.6741C99.465 63.8734 99.2379 64.0378 98.9863 64.1648C98.7363 64.2919 98.4743 64.3772 98.1645 64.4328C97.7972 64.498 97.3948 64.5159 97.0917 64.5241C96.901 64.5284 96.7113 64.5309 96.5169 64.5319C96.2852 64.5336 96.0528 64.5336 95.8211 64.5336H39.1795C39.1764 64.5336 39.1734 64.5336 39.1703 64.5336C38.9413 64.5336 38.7118 64.5336 38.4786 64.5318C38.2885 64.5309 38.0988 64.5284 37.9153 64.5243C37.6054 64.5159 37.2027 64.498 36.8384 64.4332C36.5259 64.3772 36.2639 64.2919 36.0106 64.1632C35.7614 64.0373 35.5345 63.873 35.3343 63.6733C35.1357 63.4758 34.9707 63.2495 34.8431 62.9993C34.7154 62.7494 34.6299 62.4884 34.5737 62.175C34.5088 61.8168 34.4909 61.4328 34.482 61.1047C34.4769 60.9168 34.4748 60.7289 34.4736 60.5422L34.4727 59.9908L34.4727 59.8452V28.1557L34.4727 28.0101L34.4735 27.4599C34.4748 27.272 34.4769 27.0841 34.482 26.8964C34.4909 26.5679 34.5088 26.1837 34.5742 25.8226C34.6299 25.512 34.7154 25.251 34.8437 24.9998C34.9704 24.7516 35.1357 24.5249 35.3353 24.3261C35.5342 24.128 35.7618 23.9632 36.0126 23.8362C36.2632 23.7091 36.5257 23.6238 36.8382 23.5677C37.1983 23.5033 37.5848 23.4855 37.9158 23.4766C38.1045 23.4715 38.2931 23.4695 38.4804 23.4682L39.1795 23.4668H95.8211Z" fill="white"/>
<path d="M51.8368 36.7988C52.4276 36.0627 52.8285 35.0744 52.7228 34.0645C51.858 34.1073 50.8026 34.6328 50.1916 35.3694C49.6429 36.0002 49.1574 37.0299 49.284 37.9975C50.2548 38.0814 51.2247 37.5142 51.8368 36.7988Z" fill="black"/>
<path d="M52.7125 38.1872C51.3026 38.1036 50.1038 38.9843 49.4305 38.9843C48.7569 38.9843 47.7259 38.2294 46.6107 38.2497C45.1593 38.271 43.8125 39.0884 43.076 40.3885C41.5611 42.9894 42.6762 46.8473 44.1494 48.9655C44.8648 50.0135 45.727 51.1674 46.8631 51.1259C47.9365 51.084 48.3572 50.4336 49.662 50.4336C50.9658 50.4336 51.3448 51.1259 52.481 51.105C53.6594 51.084 54.396 50.0565 55.1115 49.0075C55.9322 47.8129 56.2681 46.6594 56.2893 46.5961C56.2681 46.5751 54.0171 45.7149 53.9962 43.1357C53.975 40.9761 55.7635 39.9488 55.8477 39.8851C54.8377 38.3972 53.2596 38.2294 52.7125 38.1872Z" fill="black"/>
<path d="M64.9894 35.2637C68.0537 35.2637 70.1875 37.3677 70.1875 40.431C70.1875 43.5052 68.0098 45.6201 64.9125 45.6201H61.5197V50.9945H59.0684V35.2637L64.9894 35.2637ZM61.5197 43.5706H64.3324C66.4666 43.5706 67.6813 42.426 67.6813 40.4419C67.6813 38.458 66.4666 37.3242 64.3434 37.3242H61.5197V43.5706Z" fill="black"/>
<path d="M70.8281 47.7344C70.8281 45.7284 72.3713 44.4966 75.1076 44.3439L78.2594 44.1587V43.2757C78.2594 42.0002 77.3947 41.2371 75.9503 41.2371C74.5819 41.2371 73.7282 41.8911 73.5205 42.916H71.2879C71.4192 40.8445 73.192 39.3184 76.0377 39.3184C78.8285 39.3184 80.6123 40.7901 80.6123 43.0903V50.9939H78.3467V49.1079H78.2923C77.6248 50.3834 76.169 51.19 74.6588 51.19C72.4042 51.19 70.8281 49.7947 70.8281 47.7344ZM78.2594 46.6988V45.794L75.4247 45.9683C74.0128 46.0665 73.214 46.6879 73.214 47.669C73.214 48.6718 74.0457 49.326 75.3153 49.326C76.9678 49.326 78.2594 48.1922 78.2594 46.6988Z" fill="black"/>
<path d="M82.7515 55.2127V53.3049C82.9263 53.3484 83.3203 53.3484 83.5174 53.3484C84.6118 53.3484 85.2029 52.8907 85.5639 51.7133C85.5639 51.6915 85.772 51.0156 85.772 51.0047L81.6133 39.5254H84.174L87.0855 48.8572H87.129L90.0405 39.5254H92.5357L88.2233 51.5933C87.2387 54.3733 86.1005 55.2672 83.7146 55.2672C83.5174 55.2672 82.9263 55.2453 82.7515 55.2127Z" fill="black"/>
</g>
<defs>
<clipPath id="clip0_9891_2430">
<rect width="69" height="44" fill="white" transform="translate(33 22)"/>
</clipPath>
</defs>
</svg>
