<svg viewBox="0 0 816.9 452.08" xmlns="http://www.w3.org/2000/svg"><path d="m232.4 41.58h478" fill="none" stroke="#520993" stroke-miterlimit="10" stroke-width="3.11"/><rect fill="none" height="331.09" rx="20.4" stroke="#520993" stroke-miterlimit="10" stroke-width="3.15" width="480.27" x="233.63" y="1.58"/><path d="m263.9 71.33h380v23h-380z" fill="#fff"/><path d="m263.9 111.83h380v23h-380z" fill="#fff"/><path d="m654.9 112.33h22v22h-22z" fill="#24e2bb"/><path d="m654.9 71.83h22v22h-22z" fill="#24e2bb"/><path d="m263.9 153.33h380v23h-380z" fill="#fff"/><path d="m263.9 193.83h380v23h-380z" fill="#fff"/><path d="m654.9 194.33h22v22h-22z" fill="#f29021"/><path d="m654.9 153.83h22v22h-22z" fill="#f29021"/><path d="m263.9 234.33h380v23h-380z" fill="#fff"/><path d="m263.9 274.83h380v23h-380z" fill="#fff"/><path d="m654.9 275.33h22v22h-22z" fill="#fff"/><path d="m654.9 234.83h22v22h-22z" fill="#fff"/><g stroke="#520993" stroke-miterlimit="10"><circle cx="265.9" cy="23.41" fill="none" r="5.5" stroke-width="3.11"/><circle cx="291.9" cy="23.41" fill="none" r="5.5" stroke-width="3.11"/><circle cx="317.9" cy="23.41" fill="none" r="5.5" stroke-width="3.11"/><rect fill="#fff" height="262.18" rx="9.67" stroke-width="3" width="136.27" x="164.63" y="76.48"/><circle cx="232.77" cy="319.74" fill="none" r="7.94" stroke-width="3.04"/><path d="m224.14 97.37h17.21" fill="none" stroke-linecap="round" stroke-width="3.04"/></g><path d="m173.9 111.08h56v113h-56z" fill="#fff"/><path d="m234.9 111.08h56v113h-56z" fill="#fff"/><path d="m173.9 230.08h117v68h-117z" fill="#fff"/><text fill="#520993" font-family="Comfortaa-Bold, Comfortaa" font-size="19.06" font-weight="700" transform="translate(189.89 270.94)">140 bpm</text><text fill="#24e2bb" font-family="Comfortaa-Bold, Comfortaa" font-size="26.85" font-weight="700" transform="translate(249.3 162.03)">12<tspan font-size="17.65"><tspan x="-.13" y="21.18">km</tspan></tspan></text><text fill="#f7931e" font-family="Comfortaa-Bold, Comfortaa" font-size="26.85" font-weight="700" transform="translate(177.34 163.03)">3<tspan letter-spacing="-.05em" x="16.08" y="0">4</tspan><tspan x="32.27" y="0">5</tspan><tspan font-size="17.65"><tspan x="10.67" y="21.18">cal</tspan></tspan></text><path d="m185.45 106-1.5-1.5a1.53 1.53 0 0 0 -2.12 0 1.51 1.51 0 0 0 0 2.12l1.5 1.5a1.5 1.5 0 0 0 2.12-2.12z" fill="#f9f7f8"/><path d="m91.22 250.41c14.14 12 28.13 31.08 29.83 51.21.19 2.34 1 4.19 1 6.53-.12 6.63-3.12 12.49-5.13 20-2.54 9.53-10.51 18.18-12.56 27.83s2.15 21.06 10.54 26.25c2 1.25 4.38 2.11 5.93 3.92s1.76 5.09-.34 6.22c-8.23 1.33-21.33-7.26-27.58-10.38-7.45-3.72-1.17-13.57-2.08-21.85-1.38-12.61-.39-25.41 5.37-36.71 2.15-4.23 4.82-8.37 5.43-13.07.87-6.68-2.64-13.28-7.38-18.07s-10.65-8.2-16.13-12.11c-6.29-4.51-12.16-9.84-16-16.54s-5.59-14.91-3.36-22.32c2.89-9.58 11.56-16.13 20-21.48 16-10.12 34.81-18.72 53.3-14.7 5.6 1.21 11.14 3.73 14.74 8.19 6.18 7.68 5.1 18.64 6.62 28.38 3.21 20.54 19.13 34.76 39.64 38.19.78 3.25-3.66 7.89-7 8s-2.88-.92-5.72-2.68c-5.07-3.16-11.44-5.2-16.65-8.33a48.7 48.7 0 0 1 -6.24-4.16c-1.28-1.08-4-3-5.2-4.16-.61-.58-16.4-19.33-16.65-30.18-15.41 3.56-26.65 6.68-42 10.24z" fill="#24e2bb"/><path d="m169.66 180.9a14.5 14.5 0 0 0 -13.13 3.25c-2.76 2.52-4.42 6-5.89 9.42s-2.88 7-5.29 9.82-6.09 4.93-9.79 4.37a54.52 54.52 0 0 1 3 16.73l13.34-8.86c1.25-.83 2.85-1.69 4.16-1 1.75 1 1.51 4 3.33 4.8 1.23.55 2.61-.26 3.71-1l4.5-3.16a4.41 4.41 0 0 1 2.81-1.11c1 .09 2.48 3.49 3 2.59 3.44-6.42 2-6.93 4.74-11.2 1.19-1.84 3.72-6.13 4-8.29.66-4.33-.2-5.57-3-8.94.02.01-4.94-6.24-9.49-7.42z" fill="#24e2bb"/><path d="m181.5 322.94a43.57 43.57 0 0 0 -11.26 1.49c-4.18-13.12-8-26.37-11.62-39.61l21.59-3.47-6.06 8.24c-1.91 2.59 2.43 5.09 4.32 2.52q4.75-6.47 9.5-12.92c1.45-2-.93-4-2.82-3.67l-30.54 4.92c-2.18.35-2.22 2.75-1 4a2.43 2.43 0 0 0 0 1.16c.71 2.56 1.42 5.13 2.14 7.69-24.9 2.34-49.89 3.72-74.89 4.47-2.36-9.93-4.77-19.84-7.35-29.72 6.21-1 11.92-2.1 16.18-1.51 1.23.17 2.42.95 2.86-.22a2.64 2.64 0 0 0 -1.52-3.06 7.7 7.7 0 0 0 -3.67-.48l-29.36.95a7.38 7.38 0 0 0 -3.75.79 2.55 2.55 0 0 0 -1.08 3.31c.57.91 1.78 1.13 2.85 1.26a52.48 52.48 0 0 0 12.58-.28c2.53 9.65 4.89 19.35 7.2 29.05a183.71 183.71 0 0 1 -11.8 30.22 43.49 43.49 0 1 0 20.37 53.38q3.27-.12 6.53-.28c5.56-.29 11.32-.3 16.77-1.5 5-1.09 9.67-3.65 12.32-8.13a11.8 11.8 0 0 0 -.51-13.07c-.24-.32-.48-.63-.74-.93 16-13 29.66-28.13 43-43.78q1.85 6.14 3.8 12.23a43.47 43.47 0 1 0 16-3.05zm-103.5-15.65c3.52 14.88 7 29.77 10.88 44.57h-.42l-4 .11a43.69 43.69 0 0 0 -16.3-21.3 188.76 188.76 0 0 0 9.84-23.38zm1.21 44.84-24 .66a188.46 188.46 0 0 0 10.7-17.63 38.71 38.71 0 0 1 13.32 16.97zm-35.71 52.81a38.5 38.5 0 1 1 18.17-72.43 183.07 183.07 0 0 1 -12.67 20.49l-5.4.14c-3.21.09-3.23 5.09 0 5h1.64q-3 3.92-6.23 7.67c-2.09 2.43 1.43 6 3.54 3.54q4.73-5.52 9-11.39l26.45-.8 2.83-.08a38.3 38.3 0 0 1 -.2 19.47c-1.56 0-3.13.06-4.7.06-11 0-23.93-10.13-34.78-12.08-3.14-.56-4.49 4.25-1.32 4.82 11 2 24.12 12.21 35.32 12.26h3.73a38.54 38.54 0 0 1 -35.38 23.33zm72.78-37.27c-1.74 4.66-6.71 6.64-11.24 7.42-5.05.88-10.33.89-15.45 1.14-1.25.06-2.5.12-3.75.16a43.18 43.18 0 0 0 .1-19.45l9.51-.26c5.06-.14 10.84-.84 15.6 1.3 3.73 1.68 6.82 5.45 5.23 9.69zm-1.47-13.37c-5.81-3.42-13.81-3.1-20.81-2.7a1.77 1.77 0 0 0 0-.32c-4.22-16.1-8-32.32-11.82-48.52 25.06-.77 50.12-2.17 75.09-4.56q1.4 4.94 2.85 9.87c-14.12 16.53-28.38 32.57-45.31 46.23zm66.69 50.64a38.49 38.49 0 0 1 -14.43-74.18c4.26 13 8.94 25.85 14.27 38.44 1.25 3 5.56.41 4.32-2.52-5.2-12.27-9.74-24.81-13.89-37.49a38.5 38.5 0 1 1 9.73 75.75z" fill="#24e2bb"/><path d="m683.12 292.54c14.14 12 28.14 31.08 29.83 51.22.2 2.34 1 4.18 1 6.53-.12 6.62-3.12 12.48-5.13 20-2.53 9.54-10.5 18.18-12.56 27.83s2.15 21.07 10.54 26.25c2 1.26 4.38 2.12 5.93 3.93s1.76 5.09-.34 6.22c-8.22 1.32-21.33-7.26-27.58-10.38-7.45-3.73-1.17-13.57-2.08-21.86-1.37-12.6-.39-25.4 5.37-36.7 2.16-4.23 4.82-8.37 5.43-13.08.87-6.68-2.64-13.27-7.37-18.06s-10.65-8.2-16.13-12.12c-6.3-4.5-12.17-9.84-16-16.53s-5.59-14.91-3.36-22.32c2.89-9.59 11.56-16.14 20-21.49 16-10.12 34.81-18.72 53.3-14.7 5.6 1.22 11.14 3.73 14.74 8.19 6.18 7.68 5.11 18.64 6.63 28.38 3.2 20.55 19.12 34.77 39.63 38.2.78 3.25-3.66 7.88-7 8s-2.88-.92-5.72-2.69c-5.07-3.15-11.44-5.2-16.65-8.32a49.77 49.77 0 0 1 -6.24-4.16c-1.28-1.09-4-3-5.2-4.17-.6-.58-16.4-19.33-16.65-30.17-15.4 3.55-26.65 6.68-42.05 10.23z" fill="#520993"/><path d="m761.56 223a14.48 14.48 0 0 0 -13.13 3.26c-2.76 2.51-4.42 6-5.89 9.42s-2.88 7-5.29 9.81-6.09 4.94-9.78 4.38a54.74 54.74 0 0 1 3 16.72l13.35-8.86c1.25-.83 2.84-1.68 4.15-1 1.75 1 1.51 4 3.33 4.8 1.23.55 2.61-.25 3.71-1l4.5-3.15a4.48 4.48 0 0 1 2.81-1.12c1 .1 2.48 3.5 3 2.59 3.45-6.41 2-6.92 4.75-11.2 1.18-1.84 3.71-6.12 4-8.28.67-4.33-.2-5.57-3-8.95.01.04-4.96-6.21-9.51-7.42z" fill="#520993"/><path d="m773.4 365.08a43.57 43.57 0 0 0 -11.26 1.48c-4.18-13.11-8-26.36-11.61-39.6l21.59-3.48-6.06 8.24c-1.91 2.59 2.42 5.09 4.31 2.52l9.51-12.91c1.44-2-.94-4-2.83-3.68l-30.54 4.92c-2.18.35-2.22 2.75-1 4a2.62 2.62 0 0 0 0 1.17q1.07 3.84 2.14 7.68c-24.9 2.34-49.89 3.72-74.89 4.48-2.36-9.93-4.77-19.85-7.34-29.72 6.2-1 11.91-2.11 16.17-1.52 1.23.18 2.42.95 2.86-.22a2.63 2.63 0 0 0 -1.52-3.05 7.57 7.57 0 0 0 -3.67-.49l-29.43.92a7.47 7.47 0 0 0 -3.75.78 2.56 2.56 0 0 0 -1.08 3.31 3.73 3.73 0 0 0 2.85 1.27 52.58 52.58 0 0 0 12.59-.29c2.52 9.66 4.88 19.35 7.2 29.06a184.89 184.89 0 0 1 -11.83 30.21 43.5 43.5 0 1 0 20.37 53.38c2.18-.07 4.36-.17 6.53-.28 5.56-.29 11.32-.3 16.78-1.49 5-1.09 9.66-3.66 12.31-8.14a11.78 11.78 0 0 0 -.51-13.06 11.53 11.53 0 0 0 -.73-.93c16-13 29.65-28.14 43-43.79q1.85 6.14 3.8 12.24a43.47 43.47 0 1 0 16-3.05zm-103.47-15.66c3.51 14.89 7 29.77 10.87 44.57h-.42l-4 .11a43.66 43.66 0 0 0 -16.3-21.31 188.82 188.82 0 0 0 9.85-23.37zm1.2 44.84-24 .67a189.36 189.36 0 0 0 10.69-17.64 38.69 38.69 0 0 1 13.31 16.97zm-35.73 52.82a38.5 38.5 0 1 1 18.18-72.43 183.93 183.93 0 0 1 -12.66 20.45l-5.4.15c-3.21.09-3.22 5.09 0 5l1.64-.05q-3 3.92-6.23 7.67c-2.08 2.43 1.44 6 3.54 3.54q4.74-5.52 9-11.38l26.41-.73 2.84-.08a38.56 38.56 0 0 1 -.2 19.46q-2.35.06-4.71.06c-11 0-23.93-10.12-34.77-12.07-3.15-.57-4.5 4.25-1.33 4.82 11 2 24.12 12.2 35.32 12.25h3.73a38.55 38.55 0 0 1 -35.36 23.34zm72.79-37.27c-1.75 4.65-6.72 6.63-11.25 7.42-5.05.87-10.33.88-15.44 1.13l-3.76.17a43.37 43.37 0 0 0 .11-19.45l9.51-.27c5-.14 10.84-.84 15.59 1.31 3.73 1.68 6.82 5.45 5.24 9.69zm-1.48-13.38c-5.86-3.41-13.79-3.1-20.85-2.69a1.88 1.88 0 0 0 -.05-.33c-4.21-16.1-8-32.31-11.82-48.51 25.06-.78 50.13-2.18 75.09-4.56q1.41 4.94 2.85 9.86c-14.06 16.53-28.29 32.57-45.22 46.23zm66.69 50.65a38.5 38.5 0 0 1 -14.4-74.19c4.27 13 8.94 25.86 14.27 38.45 1.25 3 5.56.41 4.32-2.52-5.2-12.27-9.74-24.82-13.88-37.5a38.5 38.5 0 1 1 9.72 75.76z" fill="#520993"/></svg>