<svg fill="none" height="89" viewBox="0 0 134 89" width="134" xmlns="http://www.w3.org/2000/svg"><path d="m0 0h134v89h-134z" fill="#fff"/><path d="m73.1992 11.5996h48.8008v74.8008h-48.8008z" fill="#fff"/><g fill="#0082fc"><path d="m83.1097 67.5081h.3631c.1214.0076.2413-.0298.3369-.105.0421-.036.0754-.0811.0974-.1319s.0321-.1059.0295-.1612c0-.2625-.1663-.4069-.4638-.4069h-.3631zm.7525 1.0325-.4638-.8225h-.2887v.8444h-.2669v-2.0475h.6913c.0923-.0015.1841.0133.2712.0437.0788.0306.1514.075.2144.1313.0587.0562.1062.123.14.1969.0359.075.0538.1574.0525.2406.0025.1302-.0409.2572-.1225.3587-.0782.1055-.1889.1823-.315.2188l-.0875.0306.4812.8269zm-.4375-2.6994c-.2235-.001-.4451.0421-.6519.1269-.1963.0849-.3746.2067-.525.3588-.1504.1558-.2706.3383-.3544.5381-.1636.4222-.1636.8903 0 1.3125.0815.201.202.3838.3544.5381.1504.1521.3287.2739.525.3588.3049.1305.6421.1661.9676.1021.3254-.064.624-.2246.8568-.4609.1553-.1519.2761-.3355.3544-.5381.1636-.4222.1636-.8903 0-1.3125-.0805-.2016-.201-.3846-.3544-.5381-.1496-.1531-.3281-.275-.525-.3588-.2054-.0843-.4254-.1275-.6475-.1269zm0 3.6357c-.2602.0017-.5179-.0505-.7569-.1532-.2302-.1053-.4381-.2539-.6125-.4375-.1848-.1749-.3335-.3845-.4375-.6168-.1009-.2388-.153-.4955-.153-.7547 0-.2593.0521-.5159.153-.7547.1986-.4637.5662-.8343 1.0281-1.0369.2394-.1012.4971-.1518.7569-.1487.2612-.0019.52.0487.7613.1487.2312.1058.4405.2542.6168.4375.1823.1772.3306.3863.4375.6169.101.2388.153.4954.153.7547 0 .2592-.052.5159-.153.7547-.1058.2312-.2542.4405-.4375.6168-.1804.1819-.3951.3262-.6316.4246-.2366.0983-.4903.1488-.7465.1486"/><path d="m67.0004 69.5914c10.9375 0 18.5062-5.2062 18.5062-25.0906s-7.5468-25.0906-18.5062-25.0906-18.5063 5.2062-18.5063 25.0906 7.5688 25.0906 18.5063 25.0906zm-2.4019-25.0906-8.9731-8.9906 2.5987-2.625 7.1532 7.1706v-17.1281l12.9981 12.9937-8.5838 8.5794 8.5838 8.5794-12.9938 12.9937v-17.1281l-7.1312 7.1487-2.5988-2.625zm4.4319 12.6875 4.1475-4.1519-4.1475-4.1431zm0-25.4013 4.1475 4.1519-4.1475 4.1431z"/></g></svg>