<svg viewBox="0 0 700 700" xmlns="http://www.w3.org/2000/svg"><path d="m314.526 275.702c24.135 13.62 44.09 33.575 57.71 57.71 27.95 50.97 27.95 112.68 0 163.65-13.618 24.131-33.574 44.081-57.71 57.69-50.662 27.74-111.919 27.962-162.78.59-24.007-13.293-43.953-32.856-57.71-56.6-14.22-24.411-21.73-52.149-21.77-80.4v-277.29c-.248-4.71 1.526-9.301 4.877-12.62 3.353-3.089 7.783-4.74 12.34-4.6 8.741-.775 16.457 5.679 17.24 14.42.08.932.08 1.868 0 2.8v179.15c12.699-20.349 30.653-36.893 51.97-47.89 22.764-11.859 48.115-17.883 73.78-17.53 28.717-.39 57.025 6.828 82.05 20.92m-17.79 250.88c18.979-11.077 34.661-27.014 45.43-46.17 22.21-40.818 22.21-90.112 0-130.93-10.713-19.111-26.379-34.981-45.35-45.94-40.005-22.18-88.615-22.18-128.62 0-18.94 10.913-34.533 26.8-45.09 45.94-21.78 40.926-21.78 90.004 0 130.93 10.557 19.17 26.107 35.124 45 46.17 39.903 22.57 88.717 22.57 128.62 0z" fill="#1c1c1c"/><path d="m490.266 438.732h136.49v136.5h-136.49z" fill="#f39324"/><path d="m626.766 438.732h-136.51v136.5h136.51zm.99 137.5h-138.49v-138.5h138.49z" fill="#f39325"/></svg>