<svg viewBox="0 0 141.59 32.54" xmlns="http://www.w3.org/2000/svg"><path d="m40 9.42v-9.18h3.31a5 5 0 0 1 1.39.17 2.52 2.52 0 0 1 .94.47 1.91 1.91 0 0 1 .53.73 2.61 2.61 0 0 1 .16.94 2.3 2.3 0 0 1 -.13.83 1.68 1.68 0 0 1 -.33.59 1.47 1.47 0 0 1 -.46.37 1.91 1.91 0 0 1 -.54.18 2.06 2.06 0 0 1 1.42.75 2.46 2.46 0 0 1 .46 1.53 2.94 2.94 0 0 1 -.22 1.2 2.08 2.08 0 0 1 -.62.8 2.38 2.38 0 0 1 -.95.44 5.06 5.06 0 0 1 -1.2.14zm.87-5.13h2.19a5.07 5.07 0 0 0 1.13-.11 1.89 1.89 0 0 0 .74-.34 1.21 1.21 0 0 0 .4-.55 2.09 2.09 0 0 0 .12-.74 1.59 1.59 0 0 0 -.14-.73 1.09 1.09 0 0 0 -.44-.49 2.5 2.5 0 0 0 -.8-.27 8 8 0 0 0 -1.19-.06h-2zm0 4.39h2.2a8.94 8.94 0 0 0 1.24-.07 2.29 2.29 0 0 0 .88-.26 1.21 1.21 0 0 0 .51-.56 2.17 2.17 0 0 0 .17-1 1.88 1.88 0 0 0 -.19-.92 1.3 1.3 0 0 0 -.54-.55 2.9 2.9 0 0 0 -.86-.26 9.16 9.16 0 0 0 -1.1-.06h-2.3z"/><path d="m60.57 5.25v4.17h-.86v-9.18h3.59a4 4 0 0 1 2.32.57 2.11 2.11 0 0 1 .8 1.84 2.35 2.35 0 0 1 -.35 1.35 2.64 2.64 0 0 1 -1.14.86 1.48 1.48 0 0 1 .64.41 1.74 1.74 0 0 1 .34.61 2.87 2.87 0 0 1 .15.73v.74s0 .63.05.86a4.65 4.65 0 0 0 .08.56 1.06 1.06 0 0 0 .1.34.77.77 0 0 0 .16.19v.1h-1a1.86 1.86 0 0 1 -.2-.64c0-.27-.06-.56-.09-.86s0-.58 0-.86a4 4 0 0 0 -.07-.69 1.33 1.33 0 0 0 -.25-.59 1.12 1.12 0 0 0 -.41-.34 1.54 1.54 0 0 0 -.54-.15 4.21 4.21 0 0 0 -.62 0zm2.71-.74a3.57 3.57 0 0 0 .89-.1 2 2 0 0 0 .72-.33 1.56 1.56 0 0 0 .49-.56 1.78 1.78 0 0 0 .18-.83 1.74 1.74 0 0 0 -.19-.84 1.32 1.32 0 0 0 -.5-.52 2 2 0 0 0 -.71-.27 4.49 4.49 0 0 0 -.83-.06h-2.76v3.51z"/><path d="m79.74 9.42v-9.18h.86v9.18z"/><path d="m98.08 5.41v-.73h3.92v4.74h-.74v-1.57a4.11 4.11 0 0 1 -.56.74 3.11 3.11 0 0 1 -.72.58 3.84 3.84 0 0 1 -.94.36 5.54 5.54 0 0 1 -1.21.13 4.09 4.09 0 0 1 -1.61-.31 3.46 3.46 0 0 1 -1.22-.91 4.18 4.18 0 0 1 -.83-1.52 6.91 6.91 0 0 1 -.3-2.14 6.68 6.68 0 0 1 .25-1.88 4.3 4.3 0 0 1 .78-1.52 3.82 3.82 0 0 1 1.33-1 4.38 4.38 0 0 1 1.84-.38 5 5 0 0 1 1.36.18 3.69 3.69 0 0 1 1.13.54 3.18 3.18 0 0 1 .85.9 3.84 3.84 0 0 1 .49 1.28h-.9a2.46 2.46 0 0 0 -.39-.91 2.7 2.7 0 0 0 -1.5-1.1 3.19 3.19 0 0 0 -1-.15 3.38 3.38 0 0 0 -1.55.32 2.83 2.83 0 0 0 -1.07.9 3.8 3.8 0 0 0 -.62 1.38 7.64 7.64 0 0 0 -.2 1.78 4.59 4.59 0 0 0 .23 1.45 3.36 3.36 0 0 0 .65 1.21 3 3 0 0 0 1 .83 3 3 0 0 0 1.45.31 3.42 3.42 0 0 0 .76-.09 2.72 2.72 0 0 0 .77-.27 3.18 3.18 0 0 0 .69-.5 2.67 2.67 0 0 0 .54-.75 3 3 0 0 0 .3-.9 6.39 6.39 0 0 0 .1-1z"/><path d="m115.29 9.42v-9.18h.87v3.94h5.43v-3.94h.86v9.18h-.86v-4.5h-5.43v4.5z"/><path d="m134.89.24h6.68v.76h-2.91v8.42h-.87v-8.42h-2.9z"/><path d="m50.88 18.75v2.38h-4v11.06h-2.88v-11.06h-4v-2.38z"/><path d="m61.14 19.09a3.53 3.53 0 0 1 1.26.91 4.17 4.17 0 0 1 .67 1.13 3.74 3.74 0 0 1 .25 1.42 4 4 0 0 1 -.48 1.88 2.71 2.71 0 0 1 -1.6 1.31 2.57 2.57 0 0 1 1.32 1.06 4.42 4.42 0 0 1 .44 2.14v.9a6.83 6.83 0 0 0 0 1.25 1.13 1.13 0 0 0 .52.77v.33h-3.1a5.34 5.34 0 0 1 -.18-.72 5.5 5.5 0 0 1 -.12-1.16v-1.25a2.51 2.51 0 0 0 -.45-1.71 2.22 2.22 0 0 0 -1.6-.43h-2.74v5.27h-2.75v-13.44h6.42a5.83 5.83 0 0 1 2.14.34zm-5.81 2v3.61h3a3.33 3.33 0 0 0 1.35-.21 1.52 1.52 0 0 0 .82-1.49 1.71 1.71 0 0 0 -.77-1.64 2.76 2.76 0 0 0 -1.3-.24z"/><path d="m76 21.13h-7.16v2.87h6.53v2.34h-6.53v3.46h7.45v2.41h-10.2v-13.46h9.91z"/><path d="m82.32 18.75h3.18l4.76 13.44h-3.05l-.89-2.76h-4.95l-.91 2.76h-2.94zm-.18 8.36h3.44l-1.7-5.29z"/><path d="m94 28a2.6 2.6 0 0 0 .51 1.38 3 3 0 0 0 2.39.83 5 5 0 0 0 1.65-.21 1.57 1.57 0 0 0 1.2-1.56 1.14 1.14 0 0 0 -.59-1 6.17 6.17 0 0 0 -1.86-.63l-1.46-.32a9 9 0 0 1 -3-1 3.29 3.29 0 0 1 -1.36-2.91 3.89 3.89 0 0 1 1.33-3 5.66 5.66 0 0 1 3.91-1.2 6 6 0 0 1 3.67 1.13 4 4 0 0 1 1.61 3.24h-2.7a1.92 1.92 0 0 0 -1.05-1.75 3.67 3.67 0 0 0 -1.68-.34 3.09 3.09 0 0 0 -1.77.44 1.37 1.37 0 0 0 -.67 1.22 1.16 1.16 0 0 0 .66 1.08 8.46 8.46 0 0 0 1.78.55l2.36.56a5.92 5.92 0 0 1 2.33 1 3.28 3.28 0 0 1 1.2 2.74 3.85 3.85 0 0 1 -1.46 3.07 6 6 0 0 1 -4 1.22 6.6 6.6 0 0 1 -4.18-1.2 4 4 0 0 1 -1.51-3.34z"/><path d="m104.43 18.75h2.86v8.25a4.67 4.67 0 0 0 .33 2 2.73 2.73 0 0 0 4.38 0 4.67 4.67 0 0 0 .33-2v-8.25h2.86v8.25a6.86 6.86 0 0 1 -.67 3.34q-1.23 2.19-4.73 2.19t-4.73-2.19a6.86 6.86 0 0 1 -.67-3.34z"/><path d="m126.55 19.09a3.41 3.41 0 0 1 1.25.94 4 4 0 0 1 .68 1.13 3.74 3.74 0 0 1 .25 1.42 4 4 0 0 1 -.48 1.88 2.71 2.71 0 0 1 -1.6 1.31 2.57 2.57 0 0 1 1.35 1.06 4.42 4.42 0 0 1 .39 2.11v.9a6.83 6.83 0 0 0 .07 1.25 1.13 1.13 0 0 0 .52.77v.33h-3.1c-.09-.29-.15-.53-.19-.72a6.25 6.25 0 0 1 -.11-1.16v-1.25a2.51 2.51 0 0 0 -.45-1.71 2.24 2.24 0 0 0 -1.6-.43h-2.74v5.27h-2.79v-13.44h6.43a5.83 5.83 0 0 1 2.12.34zm-5.81 2v3.61h3a3.33 3.33 0 0 0 1.35-.21 1.52 1.52 0 0 0 .8-1.52 1.71 1.71 0 0 0 -.77-1.64 2.76 2.76 0 0 0 -1.3-.24z"/><path d="m138.41 18.75h3.18l-4.49 8.4v5h-2.81v-5l-4.66-8.4h3.37l2.79 5.85z"/><g fill="#231f20"><path d="m10.89 25.96h4.99v4.99h-4.99z" transform="matrix(-.70710678 -.70710678 .70710678 -.70710678 2.73 58.05)"/><path d="m15.81 21.04h4.99v4.99h-4.99z" transform="matrix(-.70710678 -.70710678 .70710678 -.70710678 14.6 53.13)"/><path d="m20.73 16.13h4.99v4.99h-4.99z" transform="matrix(-.70710678 -.70710678 .70710678 -.70710678 26.48 48.21)"/><path d="m5.96 21.03h4.99v4.99h-4.99z" transform="matrix(-.70710678 -.70710678 .70710678 -.70710678 -2.2 46.15)"/><path d="m10.88 16.12h4.99v4.99h-4.99z" transform="matrix(-.70710678 -.70710678 .70710678 -.70710678 9.67 41.23)"/><path d="m10.88 1.44h4.99v4.99h-4.99z" transform="matrix(-.70710678 -.70710678 .70710678 -.70710678 20.05 16.18)"/><path d="m15.8 11.2h4.99v4.99h-4.99z" transform="matrix(-.70710678 -.70710678 .70710678 -.70710678 21.55 36.31)"/><path d="m1.03 16.1h4.99v4.99h-4.99z" transform="matrix(-.70710678 -.70710678 .70710678 -.70710678 -7.13 34.25)"/><path d="m5.95 11.19h4.99v4.99h-4.99z" transform="matrix(-.70710678 -.70710678 .70710678 -.70710678 4.75 29.33)"/></g></svg>