<svg width="627" height="298" viewBox="0 0 627 298" fill="none" xmlns="http://www.w3.org/2000/svg">
<g clip-path="url(#clip0_39258_3478)">
<mask id="mask0_39258_3478" style="mask-type:luminance" maskUnits="userSpaceOnUse" x="3" y="4" width="620" height="199">
<path d="M623 4H3V203H623V4Z" fill="white"/>
</mask>
<g mask="url(#mask0_39258_3478)">
<path d="M48.8287 32.6101C53.4991 35.3092 57.0981 38.9056 59.7939 43.5886C62.4897 48.2646 63.7501 53.3051 63.7501 59.0607C63.7501 64.8164 62.4897 70.0392 59.7939 74.5333C57.0981 79.2093 53.5061 82.8123 48.8287 85.5113C44.1513 88.2103 38.9417 89.4723 33.3751 89.4723C27.8084 89.4723 22.7739 88.2103 18.0965 85.6933C13.4261 83.1773 9.827 79.5733 7.1312 75.0793C4.4354 70.579 3 65.3632 3 59.7828V7.42142C3 6.34182 3.3571 5.61972 3.8963 5.07992C4.4354 4.54012 5.3387 4.18262 6.235 4.18262C7.3133 4.18262 8.0345 4.54012 8.5737 5.07992C9.1128 5.61972 9.4699 6.51712 9.4699 7.42142V41.2471C11.8086 37.4684 15.0436 34.4118 19.3569 32.2526C23.4881 30.0934 28.1655 29.0138 33.3751 29.0138C38.9487 28.6562 44.1583 30.0934 48.8287 32.6101ZM45.4117 80.1133C49.0037 77.9543 51.8816 75.0723 54.0382 71.2941C56.1949 67.5154 57.2732 63.5545 57.2732 58.8785C57.2732 54.2025 56.1949 50.2415 54.0382 46.4629C51.8816 42.6842 49.0037 39.8029 45.4117 37.8259C41.8196 35.6667 37.6813 34.5871 33.193 34.5871C28.7047 34.5871 24.7485 35.6667 20.9744 37.8259C17.3823 39.9852 14.5044 42.8665 12.5298 46.4629C10.5553 50.2415 9.4769 54.2025 9.4769 58.8785C9.4769 63.5545 10.5553 67.5154 12.5298 71.2941C14.5044 75.0723 17.3823 77.9543 20.9744 80.1133C24.5664 82.2723 28.7047 83.3523 33.193 83.3523C37.6883 83.3523 41.8196 82.2723 45.4117 80.1133Z" fill="#010101"/>
<path d="M113.339 32.2448C113.339 32.6023 113.339 32.9669 113.157 33.1421C112.975 33.8642 112.618 34.5793 112.079 34.7616C111.539 35.1191 111 35.3014 110.104 35.3014C109.383 35.3014 108.669 35.3014 107.59 35.1191C106.512 34.9368 105.616 34.9368 104.895 34.9368C101.302 34.9368 98.067 35.6589 95.19 37.2783C92.312 38.7155 90.155 40.8747 88.538 43.5738C86.92 46.2728 86.199 49.3294 86.199 52.5682V85.4965C86.199 86.3935 85.842 87.2985 85.303 87.8385C84.764 88.3775 83.867 88.7355 82.964 88.7355C82.061 88.7355 81.164 88.3775 80.625 87.8385C80.086 87.2985 79.729 86.4005 79.729 85.4965V32.6093C79.729 31.5297 80.086 30.8076 80.625 30.2678C81.164 29.728 82.061 29.3705 82.964 29.3705C84.042 29.3705 84.764 29.728 85.303 30.2678C85.842 30.8076 86.199 31.705 86.199 32.6093V39.2693C88.356 35.8482 91.051 33.3314 94.286 31.5297C97.521 29.728 101.113 28.6484 104.888 28.6484C110.636 28.6484 113.332 29.9103 113.332 32.2448H113.339Z" fill="#010101"/>
<path d="M130.592 87.8461C130.053 87.3061 129.696 86.4081 129.696 85.5041V32.6099C129.696 31.5303 130.053 30.8082 130.592 30.2684C131.131 29.7286 132.027 29.3711 132.931 29.3711C134.009 29.3711 134.73 29.7286 135.269 30.2684C135.809 30.8082 136.166 31.7056 136.166 32.6099V85.5041C136.166 86.4011 135.809 87.3061 135.269 87.8461C134.73 88.3851 133.834 88.7431 132.931 88.7431C131.852 88.7431 131.131 88.3851 130.592 87.8461Z" fill="#010101"/>
<path d="M200.501 32.6097C205.171 35.1265 208.588 38.9052 211.284 43.4059C213.798 48.0819 215.058 53.3047 215.058 59.0604V80.2879C215.058 86.0439 213.798 91.2669 211.102 96.1249C208.588 100.801 204.989 104.58 200.319 107.279C195.823 109.978 190.614 111.415 185.04 111.415C179.467 111.415 174.257 110.335 169.944 108.176C165.63 106.017 162.038 103.135 159.161 99.3569C158.621 98.6349 158.264 97.9199 158.264 97.1979C158.264 96.2999 158.621 95.5779 159.343 95.2209C159.882 94.8629 160.603 94.4989 161.317 94.4989C162.396 94.4989 163.474 95.0379 164.195 95.9359C166.534 98.8169 169.587 101.151 173.004 102.771C176.596 104.39 180.552 105.288 185.047 105.288C189.543 105.288 193.492 104.208 196.909 102.049C200.501 99.8899 203.197 96.8329 205.178 93.0539C207.16 89.2759 208.231 84.9569 208.231 80.2809V75.4229C206.075 79.7409 203.022 82.9799 198.883 85.4969C194.752 88.0139 189.9 89.2759 184.508 89.2759C178.577 89.2759 173.368 88.0139 168.872 85.4969C164.202 82.9799 160.603 79.3769 158.089 74.7009C155.575 70.0248 154.133 64.8019 154.133 59.0463C154.133 53.2907 155.393 48.0679 158.089 43.3919C160.785 38.7159 164.377 35.1125 169.055 32.5957C173.725 30.079 178.759 28.6348 184.508 28.6348C190.796 28.6348 196.013 30.0719 200.501 32.5957V32.6097ZM197.084 80.2879C200.676 78.3109 203.554 75.4299 205.528 71.6512C207.503 68.0548 208.581 63.7364 208.581 59.0533C208.581 54.3703 207.503 50.2341 205.528 46.4555C203.554 42.6768 200.676 39.7955 197.084 37.8185C193.492 35.8416 189.354 34.762 184.865 34.762C180.377 34.762 176.057 35.8416 172.465 37.8185C168.872 39.7955 165.995 42.6768 164.02 46.4555C162.045 50.2341 160.967 54.3703 160.967 59.0533C160.967 63.7364 162.045 67.8725 164.02 71.6512C165.995 75.2479 168.872 78.1289 172.465 80.2879C176.057 82.2649 180.195 83.3449 184.865 83.3449C189.536 83.3449 193.492 82.2649 197.084 80.2879Z" fill="#010101"/>
<path d="M272.741 31.8878C276.873 34.047 280.108 37.2858 282.446 41.422C284.785 45.5582 286.038 50.5988 286.038 56.3544V85.504C286.038 86.401 285.681 87.306 285.142 87.846C284.603 88.385 283.707 88.743 282.803 88.743C281.9 88.743 281.004 88.385 280.465 87.846C279.926 87.306 279.569 86.408 279.569 85.504V56.3544C279.569 49.5192 277.594 44.2963 273.82 40.5177C269.864 36.9213 264.836 35.1196 258.723 35.1196C254.949 35.1196 251.357 35.8417 248.297 37.2788C245.062 38.716 242.724 40.8752 240.931 43.399C239.131 46.098 238.235 48.9794 238.235 52.2182V85.504C238.235 86.401 237.878 87.306 237.339 87.846C236.8 88.385 235.903 88.743 235 88.743C234.097 88.743 233.201 88.385 232.662 87.846C232.122 87.306 231.765 86.408 231.765 85.504V7.2389C231.765 6.1592 232.122 5.4372 232.662 4.8973C233.201 4.3575 234.097 4 235 4C236.079 4 236.8 4.3575 237.339 4.8973C237.878 5.4372 238.235 6.3345 238.235 7.2389V38.3655C240.749 35.3089 243.627 32.9674 247.219 31.1657C250.811 29.5463 254.585 28.6489 258.898 28.6489C263.751 28.6489 268.603 29.7285 272.734 31.8878H272.741Z" fill="#010101"/>
<path d="M333.667 82.9873C334.206 83.5273 334.563 84.4243 334.563 85.5043C334.563 86.4013 334.206 87.3063 333.667 87.8463C333.128 88.3853 332.231 88.7433 331.153 88.7433H328.639C324.683 88.7433 321.091 87.8463 318.038 86.0443C314.985 84.2423 312.464 81.7253 310.847 78.6693C309.047 75.4303 308.333 72.0093 308.333 68.0552V37.4684H299.889C298.992 37.4684 298.271 37.1109 297.732 36.5711C297.193 36.0313 296.836 35.3092 296.836 34.4118C296.836 33.5145 297.193 32.7924 297.732 32.2526C298.271 31.7128 298.992 31.3553 299.889 31.3553H308.333V13.7169C308.333 12.6372 308.69 11.9152 309.229 11.2001C309.769 10.6603 310.665 10.3027 311.568 10.3027C312.646 10.3027 313.368 10.6603 314.082 11.2001C314.621 11.7399 314.978 12.6372 314.978 13.7169V31.3483H329.353C330.25 31.3483 330.971 31.7058 331.51 32.2456C332.049 32.7854 332.406 33.5075 332.406 34.4048C332.406 35.3022 332.049 36.0243 331.51 36.5641C330.971 37.1039 330.25 37.4614 329.353 37.4614H314.978V68.0482C314.978 72.1843 316.238 75.6053 318.934 78.3043C321.448 81.0033 324.865 82.2653 328.996 82.2653H331.335C332.231 82.0833 333.135 82.4473 333.674 82.9873H333.667Z" fill="#010101"/>
<path d="M8.5737 143.081C6.9562 143.081 5.6958 143.621 4.6175 144.518C3.5392 145.598 3 146.86 3 148.479V196.88C3 198.499 3.5392 199.761 4.6175 200.841C5.6958 201.92 6.9562 202.46 8.5737 202.46C10.1911 202.46 11.6266 201.92 12.5298 200.841C13.6082 199.761 13.9653 198.499 13.9653 196.88V148.479C13.9653 146.86 13.4261 145.423 12.5298 144.518C11.4515 143.439 10.1911 143.081 8.5737 143.081Z" fill="#010101"/>
<path d="M77.579 145.78C73.623 143.621 69.1346 142.541 64.1001 142.541C60.5081 142.541 57.091 143.264 53.8561 144.518C50.6211 145.78 47.9253 147.575 45.5866 149.917V148.655C45.5866 147.035 45.0474 145.598 44.1512 144.694C43.0729 143.614 41.8125 143.257 40.195 143.257C38.5775 143.257 37.3171 143.796 36.2388 144.694C35.1605 145.773 34.6213 147.035 34.6213 148.655V197.055C34.6213 198.675 35.1605 199.936 36.2388 201.016C37.3171 202.096 38.5775 202.635 40.195 202.635C41.8125 202.635 43.2479 202.096 44.1512 201.016C45.2295 199.936 45.5866 198.675 45.5866 197.055V166.468C45.5866 163.952 46.3078 161.428 47.7433 159.451C49.1787 157.292 51.1603 155.672 53.674 154.41C56.1878 153.148 58.8836 152.609 61.9435 152.609C67.153 152.609 71.291 154.046 74.526 157.109C77.761 160.166 79.197 164.484 79.197 170.422V197.048C79.197 198.668 79.736 199.929 80.814 201.009C81.892 202.089 83.153 202.628 84.77 202.628C86.388 202.628 87.648 202.089 88.726 201.009C89.805 199.929 90.344 198.668 90.344 197.048V170.422C90.344 164.484 89.266 159.626 86.927 155.308C84.77 150.989 81.535 147.933 77.579 145.773V145.78Z" fill="#010101"/>
<path d="M151.08 143.803C150.359 143.446 149.463 143.264 148.566 143.264C147.67 143.264 146.767 143.446 145.871 143.986C144.974 144.525 144.435 145.065 143.896 145.963L125.207 186.623L106.337 145.963C105.98 145.065 105.259 144.343 104.537 143.986C103.816 143.446 102.92 143.264 102.024 143.264C101.127 143.264 100.406 143.446 99.6851 143.803C97.7101 144.883 96.6321 146.32 96.6321 148.304C96.6321 149.026 96.8141 149.741 96.9891 150.281L119.991 198.864C120.712 200.126 121.426 201.023 122.148 201.563C122.869 202.103 123.947 202.46 125.2 202.46C127.357 202.46 129.157 201.198 130.235 198.864L153.237 150.281C153.594 149.559 153.776 148.844 153.776 148.304C153.776 147.407 153.594 146.502 153.055 145.787C152.698 144.89 151.976 144.168 151.08 143.81V143.803Z" fill="#010101"/>
<path d="M203.379 146.32C199.248 143.803 194.57 142.541 189.004 142.541C183.437 142.541 178.402 143.803 173.907 146.32C169.412 148.837 166.002 152.44 163.481 157.116C160.967 161.792 159.707 166.833 159.707 172.771C159.707 178.709 160.967 183.749 163.663 188.243C166.359 192.744 169.951 196.34 174.628 198.857C179.299 201.374 184.69 202.635 190.621 202.635C194.038 202.635 197.448 202.096 201.047 200.834C204.639 199.572 207.699 197.952 210.213 195.975C211.291 195.078 212.012 193.999 212.012 192.737C212.012 191.299 211.291 190.22 210.038 188.958C209.317 188.236 208.238 187.878 206.803 187.878C205.367 187.878 204.289 188.236 203.211 189.14C201.775 190.22 199.794 191.3 197.462 192.022C195.13 192.744 192.792 193.283 190.635 193.283C185.061 193.283 180.573 191.664 176.617 188.607C172.843 185.551 170.504 181.408 169.79 176.374H210.941C212.376 176.374 213.637 175.834 214.533 174.937C215.429 174.04 215.969 172.96 215.969 171.516C215.969 165.76 214.89 160.72 212.734 156.219C210.577 152.258 207.342 148.662 203.386 146.32H203.379ZM169.776 167.912C170.672 163.054 172.654 159.276 176.064 156.219C179.299 153.338 183.612 151.9 189.004 151.9C193.856 151.9 197.63 153.338 200.683 156.219C203.561 159.1 205.535 163.054 206.075 167.912H169.776Z" fill="#010101"/>
<path d="M272.924 145.78C268.967 143.621 264.479 142.541 259.444 142.541C255.852 142.541 252.435 143.264 249.2 144.518C245.965 145.773 243.27 147.575 240.931 149.917V148.655C240.931 147.035 240.392 145.598 239.496 144.694C238.417 143.614 237.157 143.257 235.539 143.257C233.922 143.257 232.662 143.796 231.583 144.694C230.505 145.773 229.966 147.035 229.966 148.655V197.055C229.966 198.675 230.505 199.936 231.583 201.016C232.662 202.096 233.922 202.635 235.539 202.635C237.157 202.635 238.592 202.096 239.496 201.016C240.574 199.936 240.931 198.675 240.931 197.055V166.468C240.931 163.952 241.652 161.428 243.088 159.451C244.523 157.292 246.505 155.672 249.018 154.41C251.532 153.148 254.228 152.609 257.288 152.609C262.497 152.609 266.636 154.046 269.871 157.109C273.106 160.173 274.541 164.484 274.541 170.422V197.048C274.541 198.668 275.08 199.929 276.158 201.009C277.237 202.089 278.497 202.628 280.115 202.628C281.732 202.628 282.993 202.089 284.071 201.009C285.149 199.929 285.688 198.668 285.688 197.048V170.422C285.688 164.484 284.61 159.626 282.271 155.308C280.115 150.989 276.88 147.933 272.924 145.773V145.78Z" fill="#010101"/>
<path d="M329.353 191.482H325.579C323.241 191.482 321.266 190.584 319.648 188.6C318.031 186.623 317.31 184.282 317.31 181.401V154.593H326.475C327.911 154.593 329.171 154.235 330.25 153.331C331.146 152.433 331.685 151.354 331.685 150.092C331.685 148.655 331.146 147.575 330.25 146.671C329.353 145.773 328.093 145.409 326.475 145.409H317.31V129.754C317.31 128.135 316.771 126.873 315.874 125.793C314.796 124.714 313.536 124.356 311.918 124.356C310.301 124.356 309.04 124.896 307.962 125.793C306.884 126.873 306.527 128.135 306.527 129.754V145.409H301.492C300.057 145.409 298.796 145.766 297.718 146.671C296.822 147.568 296.282 148.648 296.282 150.092C296.282 151.354 296.822 152.433 297.718 153.331C298.614 154.228 299.875 154.593 301.492 154.593H306.527V181.401C306.527 185.362 307.423 188.958 309.04 192.197C310.658 195.436 312.996 197.952 315.867 199.754C318.738 201.556 321.98 202.453 325.572 202.453H327.547C329.346 202.453 330.964 201.913 332.217 201.016C333.478 199.936 334.017 198.675 334.017 197.055C334.017 195.436 333.478 194.174 332.581 193.094C331.685 192.015 330.607 191.475 329.346 191.475L329.353 191.482Z" fill="#010101"/>
<path d="M354.155 143.081C352.537 143.081 351.277 143.621 350.199 144.518C349.12 145.598 348.581 146.86 348.581 148.479V196.88C348.581 198.499 349.12 199.761 350.199 200.841C351.277 201.92 352.537 202.46 354.155 202.46C355.772 202.46 357.208 201.92 358.111 200.841C359.189 199.761 359.546 198.499 359.546 196.88V148.479C359.546 146.86 359.007 145.423 358.111 144.518C357.033 143.439 355.772 143.081 354.155 143.081Z" fill="#010101"/>
<path d="M422.439 146.502C417.944 143.986 412.734 142.724 407.161 142.724C401.587 142.724 396.195 143.986 391.707 146.502C387.219 149.019 383.62 152.623 381.106 157.116C378.592 161.617 377.332 166.833 377.332 172.771C377.332 178.709 378.592 183.749 381.106 188.243C383.62 192.744 387.219 196.34 391.707 198.857C396.202 201.374 401.412 202.635 407.161 202.635C412.909 202.635 418.126 201.374 422.614 198.857C427.11 196.34 430.702 192.737 433.215 188.243C435.729 183.742 436.989 178.526 436.989 172.771C436.989 167.015 435.729 161.617 433.215 157.116C430.52 152.616 426.927 149.019 422.432 146.502H422.439ZM423.875 183.209C422.257 186.266 419.918 188.607 417.048 190.409C414.17 192.211 410.76 192.926 407.161 192.926C403.562 192.926 400.152 192.029 397.274 190.409C394.396 188.607 392.064 186.273 390.447 183.209C388.829 180.153 387.933 176.549 387.933 172.771C387.933 168.992 388.829 165.396 390.447 162.157C392.064 159.1 394.403 156.576 397.274 154.957C400.152 153.155 403.562 152.44 407.161 152.44C410.76 152.44 414.17 153.338 417.048 154.957C419.925 156.759 422.257 159.093 423.875 162.157C425.492 165.22 426.388 168.817 426.388 172.771C426.388 176.725 425.492 180.146 423.875 183.209Z" fill="#010101"/>
<path d="M496.479 145.78C492.523 143.621 488.035 142.541 483 142.541C479.408 142.541 475.991 143.264 472.756 144.518C469.521 145.78 466.825 147.575 464.487 149.917V148.655C464.487 147.035 463.948 145.598 463.051 144.694C461.973 143.614 460.713 143.257 459.095 143.257C457.478 143.257 456.217 143.796 455.139 144.694C454.061 145.773 453.521 147.035 453.521 148.655V197.055C453.521 198.675 454.061 199.936 455.139 201.016C456.217 202.096 457.478 202.635 459.095 202.635C460.713 202.635 462.148 202.096 463.051 201.016C464.13 199.936 464.487 198.675 464.487 197.055V166.468C464.487 163.952 465.208 161.428 466.643 159.451C468.079 157.292 470.06 155.672 472.574 154.41C475.088 153.148 477.784 152.609 480.844 152.609C486.053 152.609 490.191 154.046 493.426 157.109C496.661 160.173 498.097 164.484 498.097 170.422V197.048C498.097 198.668 498.636 199.929 499.714 201.009C500.792 202.089 502.053 202.628 503.67 202.628C505.288 202.628 506.548 202.089 507.627 201.009C508.705 199.929 509.244 198.668 509.244 197.048V170.422C509.244 164.484 508.166 159.626 505.827 155.308C503.488 150.989 500.435 147.933 496.479 145.773V145.78Z" fill="#010101"/>
<path d="M567.466 174.033C564.231 171.151 558.658 168.992 550.752 167.373C546.978 166.651 543.925 165.753 541.944 164.856C539.969 163.959 538.527 163.054 537.813 162.157C537.091 161.26 536.734 159.998 536.734 158.56C536.734 156.584 537.813 154.964 539.969 153.884C542.126 152.805 544.822 152.265 548.239 152.265C551.116 152.265 553.63 152.623 555.605 153.345C557.579 154.067 559.561 155.146 561.354 156.941C562.789 158.378 564.589 158.918 566.388 158.918C567.648 158.918 568.545 158.56 569.441 158.021C570.701 156.941 571.241 155.861 571.241 154.6C571.241 153.52 570.701 152.258 569.805 151.178C567.648 148.479 564.771 146.32 560.996 144.883C557.222 143.446 553.091 142.541 548.414 142.541C544.64 142.541 541.048 143.081 537.63 144.343C534.213 145.605 531.518 147.4 529.361 149.924C527.204 152.44 526.126 155.322 526.126 158.918C526.126 167.737 533.135 173.311 546.971 176.01C552.363 177.089 556.137 178.351 558.294 179.788C560.45 181.225 561.711 183.209 561.711 185.369C561.711 187.71 560.632 189.505 558.294 190.949C555.955 192.386 552.902 192.926 548.771 192.926C545.718 192.926 542.658 192.386 539.962 191.306C537.266 190.227 535.11 188.79 533.849 187.346C532.589 186.084 531.154 185.369 529.718 185.369C528.64 185.369 527.379 185.908 525.944 186.806C524.509 187.885 523.787 189.323 523.787 191.124C523.787 192.386 524.327 193.466 525.223 194.545C527.737 197.062 531.154 199.046 535.467 200.483C539.78 201.92 544.451 202.825 549.303 202.825C554.155 202.825 558.469 202.103 561.886 200.483C565.478 198.864 567.999 196.705 569.791 194.006C571.584 191.306 572.487 188.25 572.487 185.011C572.305 180.51 570.687 176.914 567.452 174.033H567.466Z" fill="#010101"/>
<path d="M622.993 176.907H596.938V202.993H622.993V176.907Z" fill="#FE6B00"/>
</g>
<text x="3" y="284" font-family="Lato, Avenir, 'Trebuchet MS', sans-serif" font-size="58" fill="#010101"><tspan font-weight="400">We are now </tspan><tspan font-weight="700">framna</tspan></text>
</g>
<defs>
<clipPath id="clip0_39258_3478">
<rect width="627" height="298" fill="white"/>
</clipPath>
</defs>
</svg>
