<svg xmlns="http://www.w3.org/2000/svg" width="344.777" height="76.974" viewBox="0 0 344.777 76.974"><defs><style>.a{opacity:0.812;}.b{fill:#1b1d1c;}</style></defs><g transform="translate(-68.105 -478.373)"><g class="a" transform="translate(158.628 478.906)"><path class="b" d="M95.029,510.721V487.765h8.292a12.463,12.463,0,0,1,3.444.413,6.269,6.269,0,0,1,2.343,1.179,4.464,4.464,0,0,1,1.324,1.835,6.39,6.39,0,0,1,.415,2.343,6.112,6.112,0,0,1-.32,2.09,4.618,4.618,0,0,1-.828,1.467,3.858,3.858,0,0,1-1.164.924,4.82,4.82,0,0,1-1.354.463v.063a5.2,5.2,0,0,1,3.554,1.882,6.141,6.141,0,0,1,1.164,3.827,7.355,7.355,0,0,1-.558,3.029,5.159,5.159,0,0,1-1.547,2.01,6.176,6.176,0,0,1-2.375,1.1,12.975,12.975,0,0,1-3.014.333ZM97.2,497.9h5.484a11.96,11.96,0,0,0,2.838-.285,4.745,4.745,0,0,0,1.85-.846,3.087,3.087,0,0,0,1-1.372,5.3,5.3,0,0,0,.3-1.865,4.28,4.28,0,0,0-.35-1.832,2.788,2.788,0,0,0-1.114-1.214,5.722,5.722,0,0,0-1.995-.669,18.566,18.566,0,0,0-3.014-.208H97.2Zm0,10.97h5.516a26.074,26.074,0,0,0,3.109-.158,5.743,5.743,0,0,0,2.185-.653,3.134,3.134,0,0,0,1.292-1.4,5.658,5.658,0,0,0,.43-2.408,4.825,4.825,0,0,0-.478-2.31,3.318,3.318,0,0,0-1.372-1.357,6.432,6.432,0,0,0-2.135-.653,19.925,19.925,0,0,0-2.776-.175H97.2Z" transform="translate(-95.029 -487.157)"/><path class="b" d="M116.9,500.295v10.427l-2.17-.03V487.765h8.993a10,10,0,0,1,5.8,1.417,5.248,5.248,0,0,1,2.007,4.608,5.972,5.972,0,0,1-.876,3.444,6.674,6.674,0,0,1-2.853,2.17,3.545,3.545,0,0,1,1.594,1.018,4.517,4.517,0,0,1,.861,1.529,7.814,7.814,0,0,1,.365,1.82c.055.638.09,1.254.113,1.849q.03,1.307.113,2.168a13,13,0,0,0,.19,1.4,3.364,3.364,0,0,0,.27.846,1.316,1.316,0,0,0,.383.461v.193l-2.39.03a4.173,4.173,0,0,1-.5-1.592c-.1-.683-.17-1.394-.223-2.138s-.1-1.469-.128-2.17a12.707,12.707,0,0,0-.175-1.722,3.621,3.621,0,0,0-.621-1.482,2.816,2.816,0,0,0-1.036-.843,4.5,4.5,0,0,0-1.357-.386,12.475,12.475,0,0,0-1.547-.095Zm6.76-1.85a9.386,9.386,0,0,0,2.248-.253,5.116,5.116,0,0,0,1.8-.816,4.049,4.049,0,0,0,1.211-1.416,4.461,4.461,0,0,0,.445-2.072,4.289,4.289,0,0,0-.463-2.1,3.445,3.445,0,0,0-1.241-1.307,5.271,5.271,0,0,0-1.787-.671,11.111,11.111,0,0,0-2.087-.193H116.9v8.833Z" transform="translate(-65.426 -487.157)"/><path class="b" d="M134.754,510.721V487.765h2.167v22.956Z" transform="translate(-35.327 -487.157)"/><path class="b" d="M159.495,501.073v-1.847h9.821v11.861h-1.85v-3.922a11.1,11.1,0,0,1-1.387,1.867,7.631,7.631,0,0,1-1.8,1.434,8.665,8.665,0,0,1-2.36.909,13.108,13.108,0,0,1-3.028.32,10.383,10.383,0,0,1-4.017-.766,8.6,8.6,0,0,1-3.189-2.28,10.682,10.682,0,0,1-2.09-3.812,17.258,17.258,0,0,1-.748-5.356,16.7,16.7,0,0,1,.638-4.7,10.569,10.569,0,0,1,1.96-3.8,9.31,9.31,0,0,1,3.316-2.535,11.1,11.1,0,0,1,4.7-.923,12.423,12.423,0,0,1,3.4.448,8.932,8.932,0,0,1,2.838,1.354,8.145,8.145,0,0,1,2.12,2.263,9.514,9.514,0,0,1,1.244,3.206h-2.233a6.742,6.742,0,0,0-.971-2.295,6.635,6.635,0,0,0-1.644-1.707,7.381,7.381,0,0,0-2.135-1.051,8.2,8.2,0,0,0-2.455-.366,8.735,8.735,0,0,0-3.89.8,7.183,7.183,0,0,0-2.681,2.245,9.822,9.822,0,0,0-1.544,3.476,18.735,18.735,0,0,0-.5,4.448,11.717,11.717,0,0,0,.558,3.639A9.2,9.2,0,0,0,153.2,507a7.769,7.769,0,0,0,2.613,2.075,7.853,7.853,0,0,0,3.524.763,9.178,9.178,0,0,0,1.915-.208,7.38,7.38,0,0,0,3.634-1.927,7.057,7.057,0,0,0,1.372-1.882,8.3,8.3,0,0,0,.751-2.263,17.026,17.026,0,0,0,.238-2.49Z" transform="translate(-14.149 -487.522)"/><path class="b" d="M170.312,510.721V487.765h2.17v9.851h13.583v-9.851h2.167v22.956h-2.167V499.466H172.482v11.255Z" transform="translate(18.113 -487.157)"/><path class="b" d="M189.907,487.765h16.709v1.847h-7.271v21.109h-2.167V489.612h-7.271Z" transform="translate(47.563 -487.157)"/></g><g transform="translate(158.555 519.838)"><path class="b" d="M122.267,504.267v5.962H112.195v27.7h-7.081v-27.7H95v-5.962Z" transform="translate(-95 -503.288)"/><path class="b" d="M129.01,505.138a8.287,8.287,0,0,1,3.151,2.353,10.426,10.426,0,0,1,1.692,2.828,9.458,9.458,0,0,1,.623,3.541,10.089,10.089,0,0,1-1.209,4.716,6.784,6.784,0,0,1-4,3.279,6.293,6.293,0,0,1,3.3,2.658,11.1,11.1,0,0,1,.969,5.266v2.26a16.86,16.86,0,0,0,.188,3.129,2.8,2.8,0,0,0,1.3,1.917v.846H127.26q-.319-1.119-.456-1.8a16.574,16.574,0,0,1-.3-2.9l-.045-3.129q-.041-3.221-1.114-4.292t-4.007-1.074h-6.868v13.2H107.6V504.267h16.1A14.679,14.679,0,0,1,129.01,505.138Zm-14.537,4.976v9.045h7.569a8.1,8.1,0,0,0,3.384-.548q1.994-.961,1.995-3.792,0-3.06-1.93-4.11a6.947,6.947,0,0,0-3.254-.6Z" transform="translate(-76.064 -503.288)"/><path class="b" d="M145.8,510.229H127.985v7.148h16.351v5.847H127.985v8.655h18.634v6.052H121.112V504.267H145.8Z" transform="translate(-55.756 -503.288)"/><path class="b" d="M144.554,504.267h7.959l11.909,33.664H156.8l-2.223-6.92h-12.4l-2.28,6.92h-7.358Zm-.463,20.944h8.62l-4.252-13.245Z" transform="translate(-38.584 -503.288)"/><path class="b" d="M153.044,528.126a6.816,6.816,0,0,0,1.284,3.449q1.746,2.08,5.992,2.077a12.967,12.967,0,0,0,4.127-.546,3.922,3.922,0,0,0,3.009-3.907,2.882,2.882,0,0,0-1.474-2.58,15.921,15.921,0,0,0-4.673-1.575l-3.647-.8q-5.369-1.19-7.381-2.583-3.4-2.328-3.4-7.286a9.67,9.67,0,0,1,3.329-7.511q3.33-2.992,9.779-2.991a14.99,14.99,0,0,1,9.191,2.821,10.026,10.026,0,0,1,3.987,8.184H166.4a4.819,4.819,0,0,0-2.716-4.315,9.3,9.3,0,0,0-4.19-.843,7.97,7.97,0,0,0-4.448,1.094,3.468,3.468,0,0,0-1.664,3.061,2.886,2.886,0,0,0,1.639,2.693,20.4,20.4,0,0,0,4.473,1.394l5.907,1.392a15.075,15.075,0,0,1,5.822,2.445,8.235,8.235,0,0,1,3.011,6.873,9.672,9.672,0,0,1-3.567,7.664q-3.567,3.045-10.077,3.046-6.649,0-10.455-3a9.93,9.93,0,0,1-3.809-8.255Z" transform="translate(-17.855 -503.876)"/><path class="b" d="M159.451,504.267H166.6v20.674a11.729,11.729,0,0,0,.818,5.068q1.277,2.831,5.554,2.828,4.254,0,5.529-2.828a11.728,11.728,0,0,0,.819-5.068V504.267h7.148v20.691q0,5.369-1.664,8.36-3.1,5.481-11.831,5.479t-11.856-5.479q-1.663-2.992-1.664-8.36Z" transform="translate(1.863 -503.288)"/><path class="b" d="M194.421,505.138a8.287,8.287,0,0,1,3.151,2.353,10.491,10.491,0,0,1,1.692,2.828,9.457,9.457,0,0,1,.623,3.541,10.089,10.089,0,0,1-1.209,4.716,6.784,6.784,0,0,1-4,3.279,6.276,6.276,0,0,1,3.3,2.658,11.06,11.06,0,0,1,.971,5.266v2.26a17.151,17.151,0,0,0,.185,3.129,2.81,2.81,0,0,0,1.3,1.917v.846h-7.764q-.319-1.119-.455-1.8a16.32,16.32,0,0,1-.3-2.9l-.047-3.129q-.041-3.221-1.111-4.292t-4.007-1.074h-6.87v13.2h-6.873V504.267h16.1A14.7,14.7,0,0,1,194.421,505.138Zm-14.539,4.976v9.045h7.571a8.088,8.088,0,0,0,3.382-.548q2-.961,2-3.792,0-3.06-1.93-4.11a6.947,6.947,0,0,0-3.254-.6Z" transform="translate(22.239 -503.288)"/><path class="b" d="M206.621,504.267h7.969l-11.258,21.042v12.622H196.3V525.309l-11.648-21.042h8.29l6.988,14.664Z" transform="translate(39.736 -503.288)"/></g><g transform="translate(68.105 478.373)"><g transform="translate(24.027 35.796)"><rect class="b" width="12.164" height="12.164" transform="translate(8.601 41.178) rotate(-135)"/><rect class="b" width="12.164" height="12.164" transform="translate(20.589 29.19) rotate(-135)"/><rect class="b" width="12.164" height="12.164" transform="translate(32.576 17.203) rotate(-135)"/></g><g transform="translate(12.013 0)"><rect class="b" width="12.164" height="12.164" transform="translate(8.601 64.96) rotate(-135)"/><rect class="b" width="12.164" height="12.164" transform="translate(20.589 52.973) rotate(-135)"/><rect class="b" width="12.164" height="12.164" transform="translate(20.589 17.203) rotate(-135)"/><rect class="b" width="12.164" height="12.164" transform="translate(32.576 40.985) rotate(-135)"/></g><g transform="translate(0 23.757)"><rect class="b" width="12.164" height="12.164" transform="translate(8.601 29.19) rotate(-135)"/><rect class="b" width="12.164" height="12.164" transform="translate(20.589 17.203) rotate(-135)"/></g></g></g></svg>