<svg xmlns="http://www.w3.org/2000/svg" xmlns:xlink="http://www.w3.org/1999/xlink" version="1.2" viewBox="0 0 700 700" baseProfile="tiny-ps">  <title>Bright Inventions</title>  <g id="Group_2" transform="translate(0 0)">    <g id="Group_3">      <path id="Path_1" d="M314.526,275.702c24.135,13.62,44.09,33.575,57.71,57.71    c27.95,50.97,27.95,112.68,0,163.65c-13.618,24.131-33.574,44.081-57.71,57.69c-50.662,27.74-111.919,27.962-162.78,0.59    c-24.007-13.293-43.953-32.856-57.71-56.6c-14.22-24.411-21.73-52.149-21.77-80.4v-277.29c-0.248-4.71,1.526-9.301,4.877-12.62    c3.353-3.089,7.783-4.74,12.34-4.6c8.741-0.775,16.457,5.679,17.24,14.42c0.08,0.932,0.08,1.868,0,2.8v179.15    c12.699-20.349,30.653-36.893,51.97-47.89c22.764-11.859,48.115-17.883,73.78-17.53c28.717-0.39,57.025,6.828,82.05,20.92     M296.733,526.582c18.979-11.077,34.661-27.014,45.43-46.17c22.21-40.818,22.21-90.112,0-130.93    c-10.713-19.111-26.379-34.981-45.35-45.94c-40.005-22.18-88.615-22.18-128.62,0c-18.94,10.913-34.533,26.8-45.09,45.94    c-21.78,40.926-21.78,90.004,0,130.93c10.557,19.17,26.107,35.124,45,46.17c39.903,22.57,88.717,22.57,128.62,0L296.733,526.582z" fill="#1C1C1C"/>      <path id="Path_3" d="M490.266,438.732h136.49v136.5h-136.49V438.732z" fill="#F39324"/>      <path id="Path_2" d="M626.766,438.732h-136.51v136.5h136.51V438.732z M627.756,576.232h-138.49v-138.5    h138.49V576.232z" fill="#F39325"/>    </g>  </g></svg>