<svg height="66.619" viewBox="0 0 52.537 66.619" width="52.537" xmlns="http://www.w3.org/2000/svg" xmlns:xlink="http://www.w3.org/1999/xlink"><clipPath id="a"><path d="m0 0h52.537v66.618h-52.537z"/></clipPath><g clip-path="url(#a)"><path d="m51.843 74.028a3.759 3.759 0 0 0 -2.873 1.332 3.768 3.768 0 1 0 -5.644 4.989l.218.218 5.426 5.426 5.43-5.425.218-.218a3.768 3.768 0 0 0 -2.771-6.321" fill="#f7931e" transform="translate(-26.948 -47.13)"/><g fill="none" stroke="#000" stroke-linecap="round" stroke-linejoin="round" stroke-width="3"><path d="m3.81 138.035c3.516.9 11.821 6.49 12.748 6.953s3.94.464 4.867.464 7.88-1.391 7.88-1.391-10.2-2.086-11.589-2.55a2.656 2.656 0 0 1 -2.086-2.781c.231-1.159.927-1.391 1.854-1.623s7.88 1.159 10.2 1.159 5.1-.927 6.722-.927a27.9 27.9 0 0 1 7.417 1.391c1.622.7 3.708 3.013 5.794 3.013s5.331-.232 5.331-.232v8.576a27.46 27.46 0 0 0 -6.026-.464 28.773 28.773 0 0 0 -5.1.927c-1.855.464-12.979 3.013-16.688 2.781a24.617 24.617 0 0 1 -11.82-3.708c-4.867-2.781-10.893-8.112-11.589-9.5s.289-2.549 2.085-2.088z" transform="translate(-.955 -87.273)"/><path d="m55.692 9.653c0 4.5-2.925 8.152-6.534 8.152s-6.534-3.649-6.534-8.152 2.926-8.153 6.534-8.153 6.534 3.65 6.534 8.153z" transform="translate(-27.137 -.956)"/><path d="m42.033 55.291a7.175 7.175 0 0 1 -11.194-.17c-4.972 2.4-8.458 8-8.458 14.53 0 8.717 6.286 7.892 13.956 7.892s13.822.825 13.822-7.892c.001-6.38-3.332-11.872-8.126-14.36z" transform="translate(-14.25 -35.093)"/></g></g></svg>