<svg viewBox="0 0 500 500" xmlns="http://www.w3.org/2000/svg"><path d="m199.41 142.7-19.62 92.11h160.62l-29.43-92.11z" fill="#520993"/><path d="m357.8 269.62a539.57 539.57 0 0 1 52.37 36.49c6.77 5.33 14.09 12.41 13 21-.72 5.61-5.11 10.19-10.19 12.68s-10.79 3.22-16.4 3.93l-32.27 4.07c-5.29.67-11 1.25-15.6-1.53-5.93-3.61-7.51-11.36-8.52-18.23-1.51-10.14-3-20.41-1.86-30.59s5.29-20.42 13.26-26.85" fill="#f29021"/><path d="m109 308.59c8.38.44 9.09-9.07 6.89-14.94-.87-2.31-2.1-4.53-2.54-7-.71-4 1.61-5.92 4.22-8.22 2-1.78 3.45-3.92 3-6.72s-2.57-4.7-4.3-6.59c-1.45-1.58-3.14-3.06-2.83-5.34s2.24-3.36 3.8-4.83c2.18-2.06 4-4.45 3.52-7.63-.58-4.09-8.5-9.27-6.23-13.29 1.25-2.22-2.16-4.21-3.41-2-4.23 7.49 9.33 14.12 3.74 19.73-3.64 3.66-7.64 7-4.38 12.5 1.4 2.36 4.28 4 5.42 6.44 2 4.21-3 5.6-5 8.41s-1.92 6.2-1.15 9.34c.87 3.55 8 16.64-.73 16.17-2.55-.13-2.54 3.82 0 4z" fill="#520993"/><path d="m256.26 99a59.34 59.34 0 0 0 -59.32 58.46h118.65a59.34 59.34 0 0 0 -59.33-58.46z" fill="#520993"/><path d="m199.28 183.92a57 57 0 0 0 57 57 57 57 0 0 0 57-57v-23.25c0-.28 0-.56 0-.85h-113.98v.85z" fill="#fff" stroke="#520993" stroke-miterlimit="10" stroke-width="4"/><path d="m97.43 344.45c-3.72-9.81-17.43-11.5-22-1.22-2.58 5.88.6 11.35 3.94 16.11 5.29 7.55 10.75 15 16.12 22.48 1.47 2.05 4.9.08 3.41-2-5.53-7.72-11.17-15.37-16.59-23.16-2.9-4.16-5.82-9.22-2-13.79 4.05-4.82 11.11-3 13.23 2.62.9 2.35 4.72 1.33 3.82-1.05z" fill="#520993"/><rect fill="#fff" height="161.2" rx="10.35" stroke="#520993" stroke-miterlimit="10" stroke-width="4" width="253.91" x="129.31" y="206.47"/><path d="m99.65 392.48h40.24l4.48-71.55h-50.09z" fill="#24e2bb"/></svg>