<svg enable-background="new 0 0 500 500" viewBox="0 0 500 500" xmlns="http://www.w3.org/2000/svg"><path d="m357 195.5h-18.8c-1.8-6.2-4.3-12.1-7.3-17.8l13.3-13.3c4.3-4.3 4.3-11.2 0-15.4l-21.2-21.2c-4.3-4.3-11.2-4.3-15.4 0l-13.5 13.2c-5.6-3.1-11.6-5.5-17.8-7.3v-18.7c0-6-4.9-10.9-10.9-10.9h-30.1c-6 0-10.9 4.9-10.9 10.9v18.8c-6.2 1.8-12.1 4.3-17.8 7.3l-13.3-13.3c-4.3-4.3-11.2-4.3-15.4 0l-21.1 21.2c-4.3 4.3-4.3 11.2 0 15.4l13.2 13.3c-3.1 5.6-5.5 11.6-7.3 17.8h-18.7c-6 0-10.9 4.9-10.9 10.9v30.1c0 6 4.9 10.9 10.9 10.9h18.8c1.8 6.2 4.3 12.1 7.3 17.8l-13.3 13.3c-4.3 4.3-4.3 11.2 0 15.4l21.3 21.2c4.3 4.3 11.2 4.3 15.4 0l13.3-13.3c5.6 3.1 11.6 5.5 17.8 7.3v18.9c0 6 4.9 10.9 10.9 10.9h30c6 0 10.9-4.9 10.9-10.9v-18.8c6.2-1.8 12.1-4.3 17.8-7.3l13.3 13.3c4.3 4.3 11.2 4.3 15.4 0l21.2-21.2c4.3-4.3 4.3-11.2 0-15.4l-13.3-13.3c3.1-5.6 5.5-11.6 7.3-17.8h18.9c6 0 10.9-4.9 10.9-10.9v-30.1c0-6.1-4.9-11-10.9-11zm-106.6 77.8c-28.7 0-51.9-23.2-51.9-51.9s23.2-51.9 51.9-51.9 51.9 23.2 51.9 51.9c0 28.7-23.2 51.9-51.9 51.9z" fill="#f9f7f8"/><path d="m313.5 228c0-34.8-28.2-63-63-63s-63 28.2-63 63c0 18.9 13.1 32 21.5 47.4 7.4 13.4 9.5 60.6 9.5 60.6h64s2.1-47.2 9.5-60.6c8.4-15.4 21.5-28.5 21.5-47.4z" fill="none" stroke="#520993" stroke-miterlimit="10" stroke-width="4"/><path d="m220 348h62v20c0 15.5-12.5 28-28 28h-6c-15.5 0-28-12.5-28-28z" fill="#24e2bb"/><path d="m231 238 19.4 93 18.6-93s-19 12-38 0z" fill="none" stroke="#f29021" stroke-linecap="round" stroke-linejoin="round" stroke-width="4"/><path d="m143.2 340h-4.8c-.5-1.6-1.1-3.1-1.9-4.5l3.4-3.4c1.1-1.1 1.1-2.8 0-3.9l-5.4-5.4c-1.1-1.1-2.8-1.1-3.9 0l-3.4 3.4c-1.4-.8-2.9-1.4-4.5-1.9v-4.8c0-1.5-1.2-2.8-2.8-2.8h-7.6c-1.5 0-2.8 1.2-2.8 2.8v4.8c-1.6.5-3.1 1.1-4.5 1.9l-3.4-3.4c-1.1-1.1-2.8-1.1-3.9 0l-5.4 5.4c-1.1 1.1-1.1 2.8 0 3.9l3.4 3.4c-.8 1.4-1.4 3-1.9 4.5h-4.8c-1.5 0-2.8 1.2-2.8 2.8v7.6c0 1.5 1.2 2.8 2.7 2.8h4.8c.5 1.6 1.1 3.1 1.9 4.5l-3.4 3.4c-1.1 1.1-1.1 2.8 0 3.9l5.4 5.4c1.1 1.1 2.8 1.1 3.9 0l3.4-3.4c1.4.8 2.9 1.4 4.5 1.9v4.8c0 1.5 1.2 2.8 2.8 2.8h7.6c1.5 0 2.8-1.2 2.8-2.8v-4.7c1.6-.5 3.1-1.1 4.5-1.9l3.4 3.4c1.1 1.1 2.8 1.1 3.9 0l5.4-5.4c1.1-1.1 1.1-2.8 0-3.9l-3.4-3.4c.8-1.4 1.4-3 1.9-4.5h4.8c1.5 0 2.8-1.2 2.8-2.8v-7.6c0-1.5-1.1-2.8-2.7-2.9.1-0 .1-0-0-0zm-27.1 19.8c-7.3 0-13.2-5.9-13.2-13.2s5.9-13.2 13.2-13.2 13.2 5.9 13.2 13.2-5.8 13.2-13.2 13.2z" fill="#f29021"/><path d="m464.1 81.7h-9.1c-.9-3-2.1-5.9-3.5-8.6l6.4-6.4c2.1-2.1 2.1-5.4 0-7.5l-10.3-10.2c-2.1-2.1-5.4-2.1-7.5 0l-6.4 6.4c-2.7-1.5-5.6-2.7-8.6-3.5v-9.1c0-2.9-2.3-5.3-5.3-5.3h-14.5c-2.9 0-5.3 2.4-5.3 5.3v9.1c-3 .9-5.9 2.1-8.6 3.5l-6.4-6.4c-2.1-2.1-5.4-2.1-7.5 0l-10.3 10.2c-2.1 2.1-2.1 5.4 0 7.5l6.4 6.4c-1.5 2.7-2.7 5.6-3.5 8.6h-9.1c-2.9 0-5.3 2.4-5.3 5.3v14.5c0 2.9 2.4 5.3 5.3 5.3h9.1c.9 3 2.1 5.9 3.5 8.6l-6.4 6.4c-2.1 2.1-2.1 5.4 0 7.5l10.3 10.3c2.1 2.1 5.4 2.1 7.5 0l6.4-6.4c2.7 1.5 5.6 2.7 8.6 3.6v9.1c0 2.9 2.4 5.3 5.3 5.3h14.5c2.9 0 5.3-2.3 5.3-5.3v-9.1c3-.9 5.9-2.1 8.6-3.6l6.4 6.4c2.1 2.1 5.4 2.1 7.5 0l10.3-10.3c2.1-2.1 2.1-5.4 0-7.5l-6.4-6.4c1.5-2.7 2.7-5.6 3.5-8.6h9.1c2.9 0 5.3-2.3 5.3-5.3v-14.5c-0-2.9-2.3-5.3-5.3-5.3zm-51.5 37.6c-13.9 0-25.1-11.2-25.1-25.1s11.2-25.1 25.1-25.1 25.1 11.2 25.1 25.1c-0 13.9-11.2 25.1-25.1 25.1z" fill="#24e2bb"/><path d="m407.2 419h-4.8c-.5-1.6-1.1-3.1-1.9-4.5l3.4-3.4c1.1-1.1 1.1-2.8 0-3.9l-5.4-5.4c-1.1-1.1-2.8-1.1-3.9 0l-3.4 3.4c-1.4-.8-2.9-1.4-4.5-1.9v-4.8c0-1.5-1.2-2.8-2.8-2.8h-7.6c-1.5 0-2.8 1.2-2.8 2.8v4.8c-1.6.5-3.1 1.1-4.5 1.9l-3.4-3.4c-1.1-1.1-2.8-1.1-3.9 0l-5.4 5.4c-1.1 1.1-1.1 2.8 0 3.9l3.4 3.4c-.8 1.4-1.4 3-1.9 4.5h-4.8c-1.5 0-2.8 1.2-2.8 2.8v7.6c0 1.5 1.2 2.8 2.8 2.8h4.8c.5 1.6 1.1 3.1 1.9 4.5l-3.4 3.4c-1.1 1.1-1.1 2.8 0 3.9l5.4 5.4c1.1 1.1 2.8 1.1 3.9 0l3.4-3.4c1.4.8 2.9 1.4 4.5 1.9v4.8c0 1.5 1.2 2.8 2.8 2.8h7.6c1.5 0 2.8-1.2 2.8-2.8v-4.7c1.6-.5 3.1-1.1 4.5-1.9l3.4 3.4c1.1 1.1 2.8 1.1 3.9 0l5.4-5.4c1.1-1.1 1.1-2.8 0-3.9l-3.4-3.4c.8-1.4 1.4-3 1.9-4.5h4.8c1.5 0 2.8-1.2 2.8-2.8v-7.6c0-1.6-1.2-2.8-2.8-2.9zm-27.1 19.8c-7.3 0-13.2-5.9-13.2-13.2s5.9-13.2 13.2-13.2 13.2 5.9 13.2 13.2-5.8 13.2-13.2 13.2z" fill="#fff"/></svg>