<svg viewBox="0 0 500 500" xmlns="http://www.w3.org/2000/svg"><rect fill="none" height="251.09" rx="12.85" stroke="#520993" stroke-miterlimit="10" stroke-width="5" width="251.42" x="150.46" y="116.9"/><rect fill="#24e2bb" height="20.08" rx="10.04" transform="matrix(.70710678 -.70710678 .70710678 .70710678 -94.62 158.08)" width="205.22" x="40.89" y="183.22"/><path d="m265.28 57.94s8.21 37.75-5.84 51.69c-14.66 14.57-30.51 8.18-30.51 8.18l-10-10s-2.49-24.65 11.64-27.81c24-5.31 34.71-22.06 34.71-22.06z" fill="#fff" stroke="#520993" stroke-linecap="round" stroke-linejoin="round" stroke-width="5"/><path d="m170 121.02h61.34v30.12h-61.34z" fill="#fff" stroke="#520993" stroke-linecap="round" stroke-linejoin="round" stroke-width="5" transform="matrix(.70710678 -.70710678 .70710678 .70710678 -37.45 181.75)"/><path d="m424.07 133.37h-8.74a42.45 42.45 0 0 0 -3.44-8.31l6.24-6.25a5.12 5.12 0 0 0 0-7.24l-10-10a5.12 5.12 0 0 0 -7.24 0l-6.25 6.24a41.5 41.5 0 0 0 -8.33-3.43v-8.73a5.12 5.12 0 0 0 -5.12-5.12h-14.06a5.14 5.14 0 0 0 -5.13 5.12v8.74a43.13 43.13 0 0 0 -8.32 3.43l-6.24-6.24a5.12 5.12 0 0 0 -7.24 0l-10 10a5.12 5.12 0 0 0 0 7.24l6.24 6.25a41.81 41.81 0 0 0 -3.43 8.31h-8.81a5.14 5.14 0 0 0 -5.12 5.12v14.08a5.13 5.13 0 0 0 5.12 5.12h8.8a42 42 0 0 0 3.43 8.33l-6.24 6.24a5.12 5.12 0 0 0 0 7.24l10 10a5.12 5.12 0 0 0 7.24 0l6.24-6.24a42.58 42.58 0 0 0 8.33 3.43v8.74a5.12 5.12 0 0 0 5.12 5.12h14.08a5.11 5.11 0 0 0 5.12-5.1v-8.76a42.16 42.16 0 0 0 8.33-3.45l6.25 6.24a5.12 5.12 0 0 0 7.24 0l10-10a5.12 5.12 0 0 0 0-7.24l-6.25-6.25a42 42 0 0 0 3.44-8.33h8.74a5.11 5.11 0 0 0 5.12-5.1v-14.1a5.12 5.12 0 0 0 -5.12-5.12zm-49.95 36.48a24.3 24.3 0 1 1 .05 0z" fill="#f9f7f8"/><path d="m281.28 219.67-.15.1 16.11 25a10.47 10.47 0 0 1 1.17 8.75c-5.8 18.29-25.4 18.73-33.07 6.79l-13.87-21.57-.15.1 1.4 29.05a10.41 10.41 0 0 0 6.34 9.09l28.34 12 .16-.1 34.15 45.69 47.71 74.13a10.41 10.41 0 0 0 14.36 3.3 10.43 10.43 0 0 0 3.12-14.4l-47.7-74.13-27.41-49.97.15-.1.81-30.79a10.45 10.45 0 0 0 -5.65-9.54z" fill="#f29021"/><path d="m236.66 335.42h-12.92a62 62 0 0 0 -5.05-12.21l9.13-9.13a7.51 7.51 0 0 0 0-10.6l-14.61-14.61a7.49 7.49 0 0 0 -10.6 0l-9.16 9.13a62.81 62.81 0 0 0 -12.23-5.06v-12.94a7.49 7.49 0 0 0 -7.49-7.49h-20.73a7.49 7.49 0 0 0 -7.49 7.49v12.9a62.63 62.63 0 0 0 -12.17 5.1l-9.13-9.13a7.49 7.49 0 0 0 -10.6 0l-14.61 14.57a7.5 7.5 0 0 0 0 10.6l9.13 9.13a62.67 62.67 0 0 0 -5 12.21h-13a7.5 7.5 0 0 0 -7.5 7.49v20.67a7.49 7.49 0 0 0 7.5 7.49h12.87a62.81 62.81 0 0 0 5 12.23l-9.13 9.13a7.5 7.5 0 0 0 0 10.59l14.62 14.61a7.49 7.49 0 0 0 10.59 0l9.13-9.12a62.47 62.47 0 0 0 12.22 5v12.91a7.49 7.49 0 0 0 7.49 7.5h20.8a7.49 7.49 0 0 0 7.49-7.5v-12.8a62 62 0 0 0 12.23-5l9.12 9.13a7.5 7.5 0 0 0 10.59 0h.05l14.61-14.61a7.51 7.51 0 0 0 0-10.6l-9.13-9.19a62.16 62.16 0 0 0 5.05-12.23h12.92a7.49 7.49 0 0 0 7.49-7.49v-20.65a7.5 7.5 0 0 0 -7.47-7.52zm-73.28 53.58a35.7 35.7 0 1 1 35.7-35.7 35.71 35.71 0 0 1 -35.7 35.7z" fill="#f9f7f8"/></svg>