<svg enable-background="new 0 0 500 500" viewBox="0 0 500 500" xmlns="http://www.w3.org/2000/svg"><g stroke="#520993" stroke-linecap="round"><path d="m101.8 258.9c-.7-81.1 64.6-147.5 145.7-148.1 81.1-.7 147.5 64.6 148.1 145.7v2.4" fill="none" stroke-miterlimit="10" stroke-width="4"/><path d="m102 112.9h293.8" fill="none" stroke-miterlimit="10" stroke-width="3.57"/><path d="m231.3 95h34.8v34.8h-34.8z" fill="#f9f7f8" stroke-miterlimit="10" stroke-width="4"/><circle cx="112.2" cy="112.4" fill="#fff" r="10.3" stroke-miterlimit="10" stroke-width="4"/><circle cx="385.6" cy="112.4" fill="#fff" r="10.3" stroke-miterlimit="10" stroke-width="4"/></g><path d="m189 231.7c4.4 0 8 3.6 8 8v148.3c0 4.4-3.6 8-8 8-4.4 0-8-3.6-8-8v-148.3c-.1-4.4 3.5-8 8-8z" fill="#f29021"/><path d="m198.1 185-9.1-15.9-9.2 15.9-9.1 15.8 9.1 15.9 3.5 6h11.3l3.5-6 9.2-15.9z" fill="#fff" stroke="#520993" stroke-linecap="round" stroke-linejoin="round" stroke-width="4"/><path d="m189 170.9v27.7" fill="none" stroke="#520993" stroke-linecap="round" stroke-linejoin="round" stroke-width="4"/><path d="m176.9 224.5h24.1v49.1h-24.1z" fill="#fff" stroke="#520993" stroke-linecap="round" stroke-miterlimit="10" stroke-width="4"/><path d="m314.7 394.2c-4.4 0-8-3.6-8-8v-148.3c0-4.4 3.6-8 8-8 4.4 0 8 3.6 8 8v148.3c.1 4.4-3.5 8-8 8z" fill="#24e2bb"/><path d="m307 166.4s26 16.7 26 32.6c-.1 16.5-12.6 21.9-12.6 21.9h-11.3s-15.4-12.5-9.2-22.3c10.6-16.6 7.1-32.2 7.1-32.2z" fill="#fff" stroke="#520993" stroke-linecap="round" stroke-linejoin="round" stroke-width="4"/><path d="m302.6 222.7h24.1v49.1h-24.1z" fill="#fff" stroke="#520993" stroke-linecap="round" stroke-linejoin="round" stroke-width="4"/><path d="m254.7 191.5-8.7 31.5 4.4 7.6 1.7 2.8h5.3l1.7-2.8 3.5-7.6z" fill="#fff" stroke="#520993" stroke-linecap="round" stroke-linejoin="round" stroke-width="3.47"/><path d="m254.3 393.3c-4.5-.1-8.1-3.8-8-8.4v-161.3h16.1v161.4c-0 4.5-3.6 8.3-8.1 8.3z" fill="#f9f7f8" stroke="#520993" stroke-linecap="round" stroke-miterlimit="10" stroke-width="4"/></svg>