<svg enable-background="new 0 0 31.955 31.955" viewBox="0 0 31.955 31.955" xmlns="http://www.w3.org/2000/svg"><g fill="#030104"><path d="m27.25 4.655c-6.254-6.226-16.37-6.201-22.594.051-6.227 6.254-6.204 16.37.049 22.594 6.256 6.226 16.374 6.203 22.597-.051 6.224-6.254 6.203-16.371-.052-22.594z"/><path d="m13.288 23.896-1.768 5.207c2.567.829 5.331.886 7.926.17l-.665-5.416c-1.771.63-3.714.643-5.493.039zm-5.168-10.774-5.645-.859c-.741 2.666-.666 5.514.225 8.143l5.491-1.375c-.739-1.893-.765-4.002-.071-5.909zm20.643-1.789-4.965 1.675c.798 2.106.716 4.468-.247 6.522l5.351.672c.925-2.883.878-6.009-.139-8.869zm-17.369-8.45 1.018 5.528c2.027-.954 4.356-1.05 6.442-.288l1.583-5.137c-2.914-1.046-6.109-1.08-9.043-.103z"/><circle cx="15.979" cy="15.977" r="6.117"/></g></svg>