<svg width="134" height="89" viewBox="0 0 134 89" fill="none" xmlns="http://www.w3.org/2000/svg">
<rect width="134" height="89" fill="white"/>
<g clip-path="url(#clip0_5502_4916)">
<path d="M67 52.5007C67 50.0695 67.9219 47.7379 69.5628 46.0188C71.2038 44.2998 73.4294 43.334 75.75 43.334C78.0706 43.334 80.2962 44.2998 81.9372 46.0188C83.5781 47.7379 84.5 50.0695 84.5 52.5007C84.5 54.9318 83.5781 57.2634 81.9372 58.9825C80.2962 60.7015 78.0706 61.6673 75.75 61.6673C73.4294 61.6673 71.2038 60.7015 69.5628 58.9825C67.9219 57.2634 67 54.9318 67 52.5007Z" fill="#1ABCFE"/>
<path d="M49.5 70.8327C49.5 68.4015 50.4219 66.07 52.0628 64.3509C53.7038 62.6318 55.9294 61.666 58.25 61.666H67V70.8327C67 73.2638 66.0781 75.5954 64.4372 77.3145C62.7962 79.0336 60.5706 79.9993 58.25 79.9993C55.9294 79.9993 53.7038 79.0336 52.0628 77.3145C50.4219 75.5954 49.5 73.2638 49.5 70.8327V70.8327Z" fill="#0ACF83"/>
<path d="M67 25V43.3333H75.75C78.0706 43.3333 80.2962 42.3676 81.9372 40.6485C83.5781 38.9294 84.5 36.5978 84.5 34.1667C84.5 31.7355 83.5781 29.4039 81.9372 27.6849C80.2962 25.9658 78.0706 25 75.75 25H67Z" fill="#FF7262"/>
<path d="M49.5 34.1667C49.5 36.5978 50.4219 38.9294 52.0628 40.6485C53.7038 42.3676 55.9294 43.3333 58.25 43.3333H67V25H58.25C55.9294 25 53.7038 25.9658 52.0628 27.6849C50.4219 29.4039 49.5 31.7355 49.5 34.1667V34.1667Z" fill="#F24E1E"/>
<path d="M49.5 52.5007C49.5 54.9318 50.4219 57.2634 52.0628 58.9825C53.7038 60.7015 55.9294 61.6673 58.25 61.6673H67V43.334H58.25C55.9294 43.334 53.7038 44.2998 52.0628 46.0188C50.4219 47.7379 49.5 50.0695 49.5 52.5007V52.5007Z" fill="#A259FF"/>
</g>
<defs>
<clipPath id="clip0_5502_4916">
<rect width="35" height="55" fill="white" transform="translate(49.5 25)"/>
</clipPath>
</defs>
</svg>
