<svg id="Group_2544" data-name="Group 2544" xmlns="http://www.w3.org/2000/svg" xmlns:xlink="http://www.w3.org/1999/xlink" width="101.567" height="27.429" viewBox="0 0 101.567 27.429">
  <defs>
    <clipPath id="clip-path">
      <rect id="Rectangle_1184" data-name="Rectangle 1184" width="101.567" height="27.429" fill="none"/>
    </clipPath>
  </defs>
  <g id="Group_2539" data-name="Group 2539" transform="translate(0 0)">
    <g id="Group_2538" data-name="Group 2538" clip-path="url(#clip-path)">
      <line id="Line_178" data-name="Line 178" y2="16.932" transform="translate(10.935 8.431)" fill="none" stroke="#000" stroke-linecap="round" stroke-width="3"/>
      <line id="Line_179" data-name="Line 179" x1="33.476" transform="translate(0.761 25.981)" fill="none" stroke="#000" stroke-linecap="round" stroke-width="3"/>
    </g>
  </g>
  <path id="Path_36402" data-name="Path 36402" d="M37.836,11.03H21.564V1.5H37.836L33.342,6.3Z" transform="translate(-10.63 -0.739)" fill="#f7931e"/>
  <g id="Group_2541" data-name="Group 2541" transform="translate(0 0)">
    <g id="Group_2540" data-name="Group 2540" clip-path="url(#clip-path)">
      <path id="Path_36403" data-name="Path 36403" d="M37.836,11.03H21.564V1.5H37.836L33.342,6.3Z" transform="translate(-10.63 -0.739)" fill="none" stroke="#000" stroke-linecap="round" stroke-width="3"/>
      <line id="Line_180" data-name="Line 180" y2="16.932" transform="translate(77.505 8.431)" fill="none" stroke="#000" stroke-linecap="round" stroke-width="3"/>
      <line id="Line_181" data-name="Line 181" x1="33.476" transform="translate(67.331 25.981)" fill="none" stroke="#000" stroke-linecap="round" stroke-width="3"/>
    </g>
  </g>
  <path id="Path_36404" data-name="Path 36404" d="M169.119,11.03H152.848V1.5h16.271l-4.494,4.8Z" transform="translate(-75.343 -0.739)" fill="#fff"/>
  <g id="Group_2543" data-name="Group 2543" transform="translate(0 0)">
    <g id="Group_2542" data-name="Group 2542" clip-path="url(#clip-path)">
      <path id="Path_36405" data-name="Path 36405" d="M169.119,11.03H152.848V1.5h16.271l-4.494,4.8Z" transform="translate(-75.343 -0.739)" fill="none" stroke="#000" stroke-linecap="round" stroke-width="3"/>
      <line id="Line_182" data-name="Line 182" x2="6.443" transform="translate(43.225 26.668)" fill="none" stroke="#000" stroke-linecap="round" stroke-width="3"/>
      <line id="Line_183" data-name="Line 183" x2="1.52" transform="translate(58.048 26.668)" fill="none" stroke="#000" stroke-linecap="round" stroke-width="3"/>
    </g>
  </g>
</svg>
