<svg height="27.429" viewBox="0 0 101.567 27.429" width="101.567" xmlns="http://www.w3.org/2000/svg" xmlns:xlink="http://www.w3.org/1999/xlink"><clipPath id="a"><path d="m0 0h101.567v27.429h-101.567z"/></clipPath><g clip-path="url(#a)" fill="none" stroke="#000" stroke-linecap="round" stroke-width="3"><path d="m0 0v16.932" transform="translate(10.935 8.431)"/><path d="m33.476 0h-33.476" transform="translate(.761 25.981)"/></g><path d="m37.836 11.03h-16.272v-9.53h16.272l-4.494 4.8z" fill="#fe6b00" transform="translate(-10.63 -.739)"/><g clip-path="url(#a)" fill="none" stroke="#000" stroke-linecap="round" stroke-width="3"><path d="m37.836 11.03h-16.272v-9.53h16.272l-4.494 4.8z" transform="translate(-10.63 -.739)"/><path d="m0 0v16.932" transform="translate(77.505 8.431)"/><path d="m33.476 0h-33.476" transform="translate(67.331 25.981)"/></g><path d="m169.119 11.03h-16.271v-9.53h16.271l-4.494 4.8z" fill="#fff" transform="translate(-75.343 -.739)"/><g clip-path="url(#a)" fill="none" stroke="#000" stroke-linecap="round" stroke-width="3"><path d="m169.119 11.03h-16.271v-9.53h16.271l-4.494 4.8z" transform="translate(-75.343 -.739)"/><path d="m0 0h6.443" transform="translate(43.225 26.668)"/><path d="m0 0h1.52" transform="translate(58.048 26.668)"/></g></svg>