<svg viewBox="0 0 500 500" xmlns="http://www.w3.org/2000/svg"><path d="m245.33 244.74c-7.13-3-9.86-11.67-8.43-18.84 1.48-7.39 6.63-13.46 11.91-18.54 10.32-9.93 22.63-18.08 26.2-32.84 6.83-28.22-15.18-51.44-38.83-62.51-1.49-.7-3.51.47-3 2.27l7.84 25.5c.76 2.47 4.65 1.41 3.88-1.07l-7.83-25.5-3 2.28c13.72 6.42 26.74 15.94 33.51 29.88 7.43 15.29 5.5 32.71-6.33 45.1-9.61 10.06-22.91 17.72-27.56 31.6-3.39 10.12.26 22.26 10.49 26.55 2.39 1 3.43-2.9 1.07-3.88z" fill="#520993"/><path d="m235.39 115.64 29.1.78c2.59.07 2.59-4 0-4l-29.1-.78c-2.59-.06-2.59 4 0 4z" fill="#520993"/><path d="m248.15 246.76c-2.72-6.69.06-13.81 5.38-18.38 6.25-5.36 15.15-6.17 23-6 14.18.21 28.56 3.22 41.5-4.36 25.27-14.81 26.2-47.32 17.29-72-.55-1.52-2.82-2.12-3.68-.48l-12.47 23.46c-1.21 2.29 2.26 4.32 3.48 2l12.49-23.56-3.69-.49c5.53 15.31 8 32.83 1.24 48.19-6.17 14-18.57 23.38-34 24-14 .56-28.77-3.65-42.07 2.52-9.58 4.44-16.63 15.65-12.37 26.11 1 2.37 4.86 1.33 3.88-1.07z" fill="#24e2bb"/><path d="m332.22 148 20 21.12c1.79 1.89 4.64-1 2.85-2.85l-20-21.12c-1.79-1.89-4.64 1-2.85 2.85z" fill="#24e2bb"/><path d="m248.85 247.68c3-7.14 11.67-9.87 18.84-8.44 7.39 1.48 13.46 6.64 18.54 11.92 9.93 10.31 18.08 22.62 32.84 26.19 28.22 6.83 51.44-15.18 62.51-38.82.7-1.5-.47-3.52-2.28-3l-25.49 7.83c-2.47.76-1.41 4.65 1.07 3.88l25.49-7.83-2.27-3c-6.42 13.72-15.94 26.74-29.88 33.52-15.29 7.42-32.72 5.49-45.1-6.34-10.06-9.61-17.72-22.91-31.6-27.56-10.12-3.38-22.27.27-26.55 10.5-1 2.38 2.89 3.43 3.88 1.07z" fill="#f29021"/><path d="m378 237.73-.78 29.1c-.07 2.59 4 2.59 4 0l.77-29.1c.07-2.59-4-2.59-4 0z" fill="#f29021"/><path d="m245.62 248c6.7-2.72 13.81.06 18.38 5.38 5.36 6.25 6.18 15.15 6.06 23-.22 14.18-3.23 28.56 4.36 41.5 14.8 25.27 47.32 26.2 72 17.29 1.52-.55 2.12-2.82.48-3.68l-23.55-12.49c-2.29-1.21-4.33 2.26-2 3.48l23.57 12.49.48-3.69c-15.31 5.53-32.83 8-48.19 1.24-14-6.17-23.38-18.57-24-34-.56-14 3.65-28.77-2.52-42.07-4.44-9.58-15.64-16.63-26.11-12.37-2.37 1-1.33 4.86 1.07 3.88z" fill="#520993"/><path d="m344.39 332-21.12 20c-1.88 1.79 1 4.64 2.85 2.85l21.12-20c1.89-1.79-1-4.64-2.85-2.85z" fill="#520993"/><path d="m243.12 248.52c7.13 3 9.86 11.66 8.43 18.83-1.48 7.39-6.63 13.46-11.91 18.54-10.32 9.93-22.63 18.09-26.2 32.84-6.83 28.22 15.18 51.45 38.83 62.51 1.49.7 3.51-.46 3-2.27l-7.84-25.49c-.75-2.47-4.64-1.42-3.88 1.07l7.79 25.45 3-2.27c-13.72-6.42-26.74-15.94-33.51-29.88-7.43-15.3-5.5-32.72 6.33-45.1 9.62-10.07 22.91-17.72 27.56-31.61 3.39-10.12-.26-22.26-10.49-26.55-2.39-1-3.43 2.9-1.07 3.89z" fill="#24e2bb"/><path d="m253.06 377.61-29.1-.78c-2.59-.06-2.59 4 0 4l29.1.78c2.59.07 2.59-4 0-4z" fill="#24e2bb"/><path d="m241.32 247.71c2.73 6.7 0 13.81-5.38 18.38-6.24 5.36-15.14 6.18-23 6.06-14.18-.22-28.56-3.23-41.5 4.36-25.27 14.8-26.2 47.32-17.29 72 .55 1.53 2.81 2.12 3.68.48l12.49-23.56c1.21-2.29-2.26-4.33-3.48-2l-12.5 23.57 3.69.48c-5.53-15.31-8-32.83-1.24-48.19 6.17-14 18.57-23.38 34-24 14-.56 28.76 3.65 42.07-2.52 9.58-4.44 16.62-15.64 12.37-26.11-1-2.37-4.86-1.33-3.89 1.07z" fill="#f29021"/><path d="m157.26 346.49-20-21.13c-1.79-1.88-4.64 1-2.85 2.85l20 21.12c1.79 1.89 4.64-1 2.85-2.84z" fill="#f29021"/><path d="m242.42 248.64c-3 7.14-11.66 9.87-18.83 8.43-7.39-1.47-13.46-6.63-18.54-11.91-9.93-10.31-18.08-22.63-32.84-26.2-28.22-6.82-51.44 15.18-62.51 38.83-.7 1.5.46 3.52 2.27 3l25.5-7.83c2.47-.76 1.41-4.65-1.08-3.89l-25.49 7.84 2.28 3c6.42-13.72 15.94-26.75 29.88-33.52 15.29-7.42 32.71-5.5 45.09 6.33 10.07 9.62 17.72 22.92 31.61 27.56 10.12 3.39 22.26-.26 26.55-10.49 1-2.39-2.9-3.43-3.89-1.07z" fill="#520993"/><path d="m113.33 258.58.78-29.09c.07-2.6-4-2.6-4 0l-.78 29.09c-.07 2.6 4 2.59 4 0z" fill="#520993"/><path d="m244.45 245.82c-6.69 2.72-13.81 0-18.38-5.38-5.36-6.24-6.18-15.14-6.06-23 .22-14.18 3.23-28.55-4.35-41.49-14.81-25.27-47.33-26.2-72-17.29-1.52.55-2.12 2.81-.48 3.68l23.56 12.49c2.29 1.21 4.33-2.27 2-3.48l-23.57-12.49-.48 3.68c15.31-5.52 32.83-8 48.19-1.24 14 6.17 23.38 18.58 24 34 .56 14-3.65 28.77 2.52 42.08 4.44 9.58 15.65 16.62 26.11 12.37 2.37-1 1.33-4.87-1.07-3.89z" fill="#24e2bb"/><path d="m145.68 161.76 21.12-20c1.88-1.78-1-4.63-2.85-2.85l-21.12 20c-1.89 1.79 1 4.63 2.85 2.85z" fill="#24e2bb"/><circle cx="243.01" cy="250.39" fill="#f9f7f8" r="20.81"/></svg>