<svg enable-background="new 0 0 564.481 91.185" height="91.185" viewBox="0 0 564.481 91.185" width="564.481" xmlns="http://www.w3.org/2000/svg"><path d="m51.573-723.063-206.281 910.603 18.201.139 208.267-910.742z" fill="#ffed00"/><path d="m172.626 78.952s.181-.829-1.036-.805h-39.604l.001.526c-.004.525-.215.419-.215.419h-10.94-.062-10.941s-.21.106-.215-.419l.003-.526h-39.607c-1.217-.024-1.035.805-1.035.805l-.011 1.684c.016.984.994.787.994.787h50.694.293 50.696s.978.197.994-.787z" fill="none" stroke="#1d1d1b" stroke-miterlimit="10" stroke-width=".9957"/><path d="m163.27 29.968c.053-1.194-1.375-1.358-1.375-1.358h-41.095-41.096s-1.427.164-1.375 1.358l-.002 45.894s-.005 1.033 1.204 1.015h41.269 41.269c1.209.019 1.203-1.015 1.203-1.015zm-42.47 45.877c-.484 0-.878-.394-.878-.88 0-.484.394-.88.878-.88.486 0 .879.396.879.88 0 .486-.393.88-.879.88zm40.246-2.78h-64.293-16.2v-42.016h65.249 15.244z" fill="none" stroke="#1d1d1b" stroke-miterlimit="10" stroke-width=".9957"/><path d="m44.367 39.903v-7.699c0-2.505-2.03-4.534-4.535-4.534h-19.047c-2.504 0-4.535 2.029-4.535 4.534v2.778h-.186v2.256h.186v2.756h-.186v4.18h.186v.968h-.186v4.211h.186v31.438c0 2.505 2.031 4.535 4.535 4.535h19.047c2.505 0 4.535-2.03 4.535-4.535v-36.567h.146v-4.32h-.146zm-13.944-10.719c.178 0 .322.145.322.323s-.145.322-.322.322c-.18 0-.323-.144-.323-.322s.144-.323.323-.323zm-1.968 1.897h3.957c.127 0 .232.104.232.232s-.105.232-.232.232h-3.957c-.129 0-.232-.104-.232-.232s.103-.232.232-.232zm-2.555-.282c.279 0 .506.227.506.504 0 .278-.227.506-.506.506-.278 0-.504-.228-.504-.506s.226-.504.504-.504zm4.408 52.71c-1.191 0-2.16-.969-2.16-2.16 0-1.19.969-2.159 2.16-2.159s2.16.969 2.16 2.159c0 1.191-.968 2.16-2.16 2.16zm12.204-5.401h-24.407v-43.433h24.407z" fill="none" stroke="#1d1d1b" stroke-miterlimit="10" stroke-width=".714"/><circle cx="30.308" cy="81.35" fill="none" r="1.918" stroke="#1d1d1b" stroke-miterlimit="10" stroke-width=".714"/><path d="m364.778 41.719c0-8.364-6.781-15.148-15.146-15.148-8.366 0-15.146 6.784-15.146 15.148 0 10.646 9.69 12.519 9.69 22.644h11.333c0-10.126 9.269-11.687 9.269-22.644z" fill="none" stroke="#1d1d1b" stroke-miterlimit="10"/><path d="m355.327 67.699h-10.963c-.379 0-.688-.309-.688-.689s.31-.688.688-.688h10.963c.381 0 .688.309.688.688 0 .381-.307.689-.688.689z" fill="#1d1d1b"/><path d="m354.584 67.699h-9.478c-.38 0-.688-.309-.688-.689s.308-.688.688-.688h9.478c.38 0 .688.309.688.688 0 .381-.308.689-.688.689z" fill="#1d1d1b"/><path d="m354.584 70.086h-9.478c-.38 0-.688-.309-.688-.688 0-.381.308-.688.688-.688h9.478c.38 0 .688.307.688.688 0 .379-.308.688-.688.688z" fill="#1d1d1b"/><path d="m353.909 72.27h-8.127c-.381 0-.688-.308-.688-.688s.308-.689.688-.689h8.127c.381 0 .688.31.688.689 0 .38-.307.688-.688.688z" fill="#1d1d1b"/><path d="m347.068 72.261c.076 1.468 1.29 2.636 2.776 2.636 1.488 0 2.703-1.168 2.777-2.636z" fill="#1d1d1b"/><path d="m347.049 58.921c-.294 0-.538-.233-.55-.53l-.306-7.826c-.058-1.461-.116-2.961-.323-4.427-.691-.111-1.396-.293-1.936-.798-.93-.87-.91-2.26-.58-3.27.072-.222.18-.473.426-.651.451-.325 1.086-.195 1.581.322.888.932 1.228 2.198 1.423 3.197.015.073.029.146.042.219 1.659.189 3.333.146 4.984-.128.325-.054.634-.117.925-.189.194-.879.512-1.751 1.088-2.502.506-.658 1.11-1.03 1.746-1.072.465-.031.955.165 1.282.511.288.304.421.684.374 1.07s-.256.688-.434.906c-.713.881-1.734 1.53-3.1 1.964-.051.321-.09.644-.123.953-.389 3.545-.385 7.138.011 10.682.034.303-.184.575-.486.608-.304.033-.575-.184-.608-.486-.405-3.624-.409-7.299-.012-10.924.02-.175.039-.354.063-.535-.178.037-.359.07-.546.102-1.653.274-3.327.331-4.99.168.184 1.418.238 2.846.293 4.238l.306 7.825c.013.304-.225.56-.528.572-.008.001-.015.001-.022.001zm-2.636-16.541c-.004.01-.007.02-.011.031-.214.657-.269 1.607.285 2.123.247.231.6.36.981.445-.172-.822-.459-1.8-1.105-2.478-.052-.055-.106-.096-.15-.121zm11.254-.015c-.008 0-.016 0-.024 0-.413.028-.771.415-.946.646-.325.423-.551.913-.715 1.431.842-.348 1.488-.805 1.953-1.382.079-.096.184-.236.197-.345.008-.07-.039-.138-.08-.182-.097-.101-.251-.168-.385-.168z" fill="#1d1d1b"/><path d="m538.936 11.198c-4.885-.061-9.496 1.785-12.994 5.194-3.494 3.408-5.453 7.975-5.511 12.855-.105 8.324 5.427 15.671 13.448 17.865l2.452.582-.331 10.41 4.524-.263.052-10.001 2.524-.618c3.145-.775 6.04-2.389 8.373-4.665 3.495-3.409 5.453-7.974 5.516-12.853.122-10.076-7.974-18.378-18.053-18.506zm9.444 28.198c-5.466 5.334-14.256 5.226-19.591-.242-5.335-5.47-5.225-14.265.244-19.599 5.471-5.336 14.261-5.225 19.599.246 5.334 5.47 5.222 14.26-.252 19.595z" fill="none" stroke="#1d1d1b" stroke-miterlimit="10" stroke-width=".725"/><path d="m534.049 78.154c0 .033-.032 1.193.776 2.039.611.639 1.561.972 2.822.986 1.337.015 2.381-.333 3.101-1.035.868-.846.99-1.945.994-1.952l.308-24.152-7.687-.199z" fill="#fff" stroke="#1d1d1b" stroke-miterlimit="10" stroke-width=".725"/><path d="m540.781 15.782c-4.146-.622-8.523.629-11.749 3.773-5.469 5.334-5.579 14.129-.244 19.599.257.265.526.512.799.751 5.38 4.711 13.59 4.568 18.792-.509 5.474-5.336 5.585-14.126.251-19.595-2.19-2.246-4.965-3.587-7.849-4.019z" fill="none" opacity=".52" stroke="#1d1d1b" stroke-miterlimit="10" stroke-width=".725"/><path d="m470.294 20.954c-15.489-.077-28.108 12.417-28.184 27.904-.076 15.489 12.417 28.106 27.904 28.183 15.491.079 28.107-12.415 28.184-27.904.078-15.489-12.415-28.107-27.904-28.183" fill="#fff" stroke="#1d1d1b" stroke-miterlimit="10" stroke-width=".7647"/><path d="m461.236 34.591c-3.848 2.381-6.539 6.118-7.577 10.523-1.035 4.406-.295 8.953 2.087 12.803 3.202 5.173 8.757 8.021 14.435 8.021 3.044 0 6.121-.817 8.893-2.534 7.944-4.917 10.408-15.383 5.489-23.326s-15.382-10.406-23.327-5.487m17.17 27.736c-7.35 4.547-17.032 2.27-21.58-5.079-2.202-3.561-2.889-7.766-1.93-11.842.958-4.074 3.447-7.535 7.007-9.738 2.565-1.587 5.411-2.343 8.226-2.343 5.254 0 10.392 2.637 13.354 7.422 4.55 7.349 2.27 17.028-5.077 21.58" fill="#1d1d1b"/><path d="m463.24 37.831c-6.168 3.815-8.072 11.912-4.253 18.08s11.913 8.073 18.081 4.255c6.169-3.817 8.073-11.914 4.256-18.082-3.82-6.168-11.914-8.073-18.084-4.253" fill="#1d1d1b"/><path d="m494.515 48.839c-.012-.564-.242-1.092-.647-1.485-.408-.393-.943-.604-1.507-.594l-6.139.107c-.168.003-.329.073-.445.193-.118.121-.183.285-.179.453l.066 3.811c.005.229.128.426.31.534.099.059.214.092.336.09l6.138-.109c.566-.01 1.094-.238 1.487-.646.392-.406.602-.941.594-1.506zm-2.089 1.73-5.503.097-.044-2.539 5.503-.096c.468-.01.853.364.861.83l.017.847c.006.468-.367.855-.834.861" fill="#1d1d1b"/><g fill="none"><path d="m314.849 78.851c0 1.565-1.269 2.835-2.834 2.835h-42.382c-1.565 0-2.834-1.27-2.834-2.835v-62.421c0-1.565 1.269-2.835 2.834-2.835h42.382c1.565 0 2.834 1.27 2.834 2.835z" stroke="#1d1d1b" stroke-miterlimit="10"/><path d="m269.526 19.366h42.455v55.904h-42.455z" stroke="#1d1d1b" stroke-miterlimit="10"/><circle cx="290.771" cy="16.691" r=".682" stroke="#1d1d1b" stroke-miterlimit="10" stroke-width=".25"/><circle cx="290.87" cy="78.585" r="1.518" stroke="#1d1d1b" stroke-miterlimit="10" stroke-width=".25"/><path d="m291.439 78.968c0 .081-.072.145-.163.145h-.799c-.09 0-.164-.063-.164-.145v-.828c0-.081.073-.145.164-.145h.799c.091 0 .163.063.163.145z" stroke="#1d1d1b" stroke-miterlimit="10" stroke-width=".25"/><path d="m420.862 61.311c0 1.562-1.265 2.828-2.827 2.828h-25.447c-1.562 0-2.828-1.267-2.828-2.828v-30.254c0-1.562 1.267-2.829 2.828-2.829h25.447c1.562 0 2.827 1.267 2.827 2.829z" stroke="#1d1d1b" stroke-miterlimit="10" stroke-width=".75"/><path d="m422.633 63.031c0 1.74-1.41 3.15-3.149 3.15h-28.346c-1.739 0-3.149-1.41-3.149-3.15v-33.697c0-1.739 1.41-3.149 3.149-3.149h28.346c1.739 0 3.149 1.41 3.149 3.149z" stroke="#1d1d1b" stroke-miterlimit="10" stroke-width=".75"/><path d="m424.514 41.359c0 .403-.328.729-.73.729-.404 0-.73-.325-.73-.729v-5.694c0-.404.326-.731.73-.731.402 0 .73.327.73.731z" stroke="#1d1d1b" stroke-miterlimit="10" stroke-width=".75"/><path d="m416.921 24.513s-1.023-1.75-1.462-6.277c-.438-4.525-.583-5.257-8.905-5.257-.516 0-2.261 0-2.775 0-8.324 0-8.469.731-8.908 5.257-.438 4.527-1.46 6.277-1.46 6.277l-1.46 1.023h9.053 2.775 14.602z" stroke="#1d1d1b" stroke-miterlimit="10" stroke-width=".75"/><path d="m393.41 68.104s1.022 1.75 1.461 6.277c.438 4.525.583 5.257 8.906 5.257h2.775c8.323 0 8.468-.731 8.907-5.257.438-4.527 1.46-6.277 1.46-6.277l1.461-1.023h-9.053-2.775-14.602z" stroke="#1d1d1b" stroke-miterlimit="10" stroke-width=".75"/><path d="m191.146 43.154v28.416c0 3.862 3.131 6.992 6.992 6.992h39.04c3.862 0 6.993-3.13 6.993-6.992v-28.416z" stroke="#1d1d1b" stroke-miterlimit="10" stroke-width="1.3985"/><path d="m237.178 30.386h-39.04c-3.861 0-6.992 3.131-6.992 6.992v2.279h53.024v-2.279c-0-3.861-3.13-6.992-6.992-6.992z" stroke="#1d1d1b" stroke-miterlimit="10" stroke-width="1.3985"/><circle cx="202.03" cy="34.763" r="1.923" stroke="#1d1d1b" stroke-miterlimit="10" stroke-width="1.3985"/><circle cx="232.447" cy="34.763" r="1.923" stroke="#1d1d1b" stroke-miterlimit="10" stroke-width="1.3985"/></g><text font-family="'MyriadPro-Bold'" font-size="19.2673" transform="translate(208.3188 66.9072)">07</text><path d="m202.904 34.588c0 .482-.391.874-.874.874-.483 0-.874-.392-.874-.874v-8.216c0-.482.391-.874.874-.874.482 0 .874.392.874.874z"/><path d="m233.146 34.588c0 .482-.391.874-.874.874-.483 0-.874-.392-.874-.874v-8.216c0-.482.391-.874.874-.874.483 0 .874.392.874.874z"/></svg>