<svg xmlns="http://www.w3.org/2000/svg" width="64.128" height="73.303" viewBox="0 0 64.128 73.303">
  <g id="Group_2613" data-name="Group 2613" transform="translate(8150.063 16497.082)">
    <path id="Path_36406" data-name="Path 36406" d="M67.794,61.495H65.005a13.517,13.517,0,0,0-1.09-2.637l1.97-1.97a1.622,1.622,0,0,0,0-2.294l-3.154-3.154a1.622,1.622,0,0,0-2.294,0l-1.97,1.97a13.524,13.524,0,0,0-2.637-1.09V49.531a1.622,1.622,0,0,0-1.622-1.622H49.748a1.622,1.622,0,0,0-1.622,1.622v2.788a13.517,13.517,0,0,0-2.637,1.09l-1.97-1.97a1.622,1.622,0,0,0-2.294,0L38.07,54.594a1.622,1.622,0,0,0,0,2.294l1.97,1.97a13.518,13.518,0,0,0-1.09,2.637H36.162a1.622,1.622,0,0,0-1.622,1.622v4.461A1.622,1.622,0,0,0,36.162,69.2H38.95a13.518,13.518,0,0,0,1.09,2.637l-1.97,1.97a1.622,1.622,0,0,0,0,2.294l3.154,3.154a1.622,1.622,0,0,0,2.294,0l1.97-1.97a13.493,13.493,0,0,0,2.637,1.09v2.788a1.622,1.622,0,0,0,1.622,1.622h4.461a1.622,1.622,0,0,0,1.622-1.622V78.374a13.5,13.5,0,0,0,2.637-1.09l1.97,1.97a1.622,1.622,0,0,0,2.294,0L65.886,76.1a1.622,1.622,0,0,0,0-2.294l-1.97-1.97a13.517,13.517,0,0,0,1.09-2.637h2.788a1.622,1.622,0,0,0,1.622-1.622V63.117a1.622,1.622,0,0,0-1.622-1.622M51.978,73.052a7.705,7.705,0,1,1,7.705-7.705,7.7,7.7,0,0,1-7.705,7.705" transform="translate(-8170.029 -16525.129)" fill="#f7931e"/>
    <path id="Path_36407" data-name="Path 36407" d="M67.794,61.495H65.005a13.517,13.517,0,0,0-1.09-2.637l1.97-1.97a1.622,1.622,0,0,0,0-2.294l-3.154-3.154a1.622,1.622,0,0,0-2.294,0l-1.97,1.97a13.524,13.524,0,0,0-2.637-1.09V49.531a1.622,1.622,0,0,0-1.622-1.622H49.748a1.622,1.622,0,0,0-1.622,1.622v2.788a13.517,13.517,0,0,0-2.637,1.09l-1.97-1.97a1.622,1.622,0,0,0-2.294,0L38.07,54.594a1.622,1.622,0,0,0,0,2.294l1.97,1.97a13.518,13.518,0,0,0-1.09,2.637H36.162a1.622,1.622,0,0,0-1.622,1.622v4.461A1.622,1.622,0,0,0,36.162,69.2H38.95a13.518,13.518,0,0,0,1.09,2.637l-1.97,1.97a1.622,1.622,0,0,0,0,2.294l3.154,3.154a1.622,1.622,0,0,0,2.294,0l1.97-1.97a13.493,13.493,0,0,0,2.637,1.09v2.788a1.622,1.622,0,0,0,1.622,1.622h4.461a1.622,1.622,0,0,0,1.622-1.622V78.374a13.5,13.5,0,0,0,2.637-1.09l1.97,1.97a1.622,1.622,0,0,0,2.294,0L65.886,76.1a1.622,1.622,0,0,0,0-2.294l-1.97-1.97a13.517,13.517,0,0,0,1.09-2.637h2.788a1.622,1.622,0,0,0,1.622-1.622V63.117A1.622,1.622,0,0,0,67.794,61.495ZM51.978,73.052a7.705,7.705,0,1,1,7.705-7.705A7.7,7.7,0,0,1,51.978,73.052Z" transform="translate(-8170.029 -16525.129)" fill="none" stroke="#000" stroke-linecap="round" stroke-width="3"/>
    <path id="Path_36408" data-name="Path 36408" d="M31.926,79.571A30.43,30.43,0,0,1,17.5,22.351" transform="translate(-8150.063 -16509.684)" fill="none" stroke="#000" stroke-linecap="round" stroke-width="3"/>
    <path id="Path_36409" data-name="Path 36409" d="M78.546,160.345a4.641,4.641,0,1,1-4.641-4.641,4.641,4.641,0,0,1,4.641,4.641" transform="translate(-8191.012 -16590.266)" fill="#f7931e"/>
    <path id="Path_36410" data-name="Path 36410" d="M78.546,160.345a4.641,4.641,0,1,1-4.641-4.641A4.641,4.641,0,0,1,78.546,160.345Z" transform="translate(-8191.012 -16590.266)" fill="none" stroke="#000" stroke-linecap="round" stroke-width="3"/>
    <path id="Path_36411" data-name="Path 36411" d="M79.084,13.713a30.43,30.43,0,0,1,14.428,57.22" transform="translate(-8196.945 -16504.465)" fill="none" stroke="#000" stroke-linecap="round" stroke-width="3"/>
    <path id="Path_36412" data-name="Path 36412" d="M64.749,6.142a4.641,4.641,0,1,1,4.641,4.641,4.641,4.641,0,0,1-4.641-4.641" transform="translate(-8188.284 -16497.084)" fill="#f7931e"/>
    <path id="Path_36413" data-name="Path 36413" d="M64.749,6.142a4.641,4.641,0,1,1,4.641,4.641A4.641,4.641,0,0,1,64.749,6.142Z" transform="translate(-8188.284 -16497.084)" fill="none" stroke="#000" stroke-linecap="round" stroke-width="3"/>
  </g>
</svg>
