<svg height="73.303" viewBox="0 0 64.128 73.303" width="64.128" xmlns="http://www.w3.org/2000/svg"><path d="m67.794 61.495h-2.789a13.517 13.517 0 0 0 -1.09-2.637l1.97-1.97a1.622 1.622 0 0 0 0-2.294l-3.154-3.154a1.622 1.622 0 0 0 -2.294 0l-1.97 1.97a13.524 13.524 0 0 0 -2.637-1.09v-2.789a1.622 1.622 0 0 0 -1.622-1.622h-4.46a1.622 1.622 0 0 0 -1.622 1.622v2.788a13.517 13.517 0 0 0 -2.637 1.09l-1.97-1.97a1.622 1.622 0 0 0 -2.294 0l-3.155 3.155a1.622 1.622 0 0 0 0 2.294l1.97 1.97a13.518 13.518 0 0 0 -1.09 2.637h-2.788a1.622 1.622 0 0 0 -1.622 1.622v4.461a1.622 1.622 0 0 0 1.622 1.622h2.788a13.518 13.518 0 0 0 1.09 2.637l-1.97 1.97a1.622 1.622 0 0 0 0 2.294l3.154 3.154a1.622 1.622 0 0 0 2.294 0l1.97-1.97a13.493 13.493 0 0 0 2.637 1.09v2.788a1.622 1.622 0 0 0 1.622 1.622h4.461a1.622 1.622 0 0 0 1.622-1.622v-2.789a13.5 13.5 0 0 0 2.637-1.09l1.97 1.97a1.622 1.622 0 0 0 2.294 0l3.155-3.154a1.622 1.622 0 0 0 0-2.294l-1.97-1.97a13.517 13.517 0 0 0 1.09-2.637h2.788a1.622 1.622 0 0 0 1.622-1.622v-4.46a1.622 1.622 0 0 0 -1.622-1.622m-15.816 11.557a7.705 7.705 0 1 1 7.705-7.705 7.7 7.7 0 0 1 -7.705 7.705" fill="#f7931e" transform="translate(-19.966 -28.047)"/><path d="m67.794 61.495h-2.789a13.517 13.517 0 0 0 -1.09-2.637l1.97-1.97a1.622 1.622 0 0 0 0-2.294l-3.154-3.154a1.622 1.622 0 0 0 -2.294 0l-1.97 1.97a13.524 13.524 0 0 0 -2.637-1.09v-2.789a1.622 1.622 0 0 0 -1.622-1.622h-4.46a1.622 1.622 0 0 0 -1.622 1.622v2.788a13.517 13.517 0 0 0 -2.637 1.09l-1.97-1.97a1.622 1.622 0 0 0 -2.294 0l-3.155 3.155a1.622 1.622 0 0 0 0 2.294l1.97 1.97a13.518 13.518 0 0 0 -1.09 2.637h-2.788a1.622 1.622 0 0 0 -1.622 1.622v4.461a1.622 1.622 0 0 0 1.622 1.622h2.788a13.518 13.518 0 0 0 1.09 2.637l-1.97 1.97a1.622 1.622 0 0 0 0 2.294l3.154 3.154a1.622 1.622 0 0 0 2.294 0l1.97-1.97a13.493 13.493 0 0 0 2.637 1.09v2.788a1.622 1.622 0 0 0 1.622 1.622h4.461a1.622 1.622 0 0 0 1.622-1.622v-2.789a13.5 13.5 0 0 0 2.637-1.09l1.97 1.97a1.622 1.622 0 0 0 2.294 0l3.155-3.154a1.622 1.622 0 0 0 0-2.294l-1.97-1.97a13.517 13.517 0 0 0 1.09-2.637h2.788a1.622 1.622 0 0 0 1.622-1.622v-4.46a1.622 1.622 0 0 0 -1.622-1.622zm-15.816 11.557a7.705 7.705 0 1 1 7.705-7.705 7.7 7.7 0 0 1 -7.705 7.705z" fill="none" stroke="#000" stroke-linecap="round" stroke-width="3" transform="translate(-19.966 -28.047)"/><path d="m31.926 79.571a30.43 30.43 0 0 1 -14.426-57.22" fill="none" stroke="#000" stroke-linecap="round" stroke-width="3" transform="translate(0 -12.602)"/><path d="m78.546 160.345a4.641 4.641 0 1 1 -4.641-4.641 4.641 4.641 0 0 1 4.641 4.641" fill="#f7931e" transform="translate(-40.949 -93.184)"/><path d="m78.546 160.345a4.641 4.641 0 1 1 -4.641-4.641 4.641 4.641 0 0 1 4.641 4.641z" fill="none" stroke="#000" stroke-linecap="round" stroke-width="3" transform="translate(-40.949 -93.184)"/><path d="m79.084 13.713a30.43 30.43 0 0 1 14.428 57.22" fill="none" stroke="#000" stroke-linecap="round" stroke-width="3" transform="translate(-46.882 -7.383)"/><g transform="translate(-38.221 -.002)"><path d="m64.749 6.142a4.641 4.641 0 1 1 4.641 4.641 4.641 4.641 0 0 1 -4.641-4.641" fill="#f7931e"/><path d="m64.749 6.142a4.641 4.641 0 1 1 4.641 4.641 4.641 4.641 0 0 1 -4.641-4.641z" fill="none" stroke="#000" stroke-linecap="round" stroke-width="3"/></g></svg>