<svg height="30" viewBox="0 0 30 30" width="30" xmlns="http://www.w3.org/2000/svg"><path d="m15.054 0a15.154 15.154 0 0 0 -14.876 12.917 15.41 15.41 0 0 0 10.116 17.058c.758.142 1.026-.34 1.026-.746v-2.615c-4.205.935-5.092-2.068-5.092-2.068a4.108 4.108 0 0 0 -1.673-2.256c-1.359-.944.111-.944.111-.944a3.169 3.169 0 0 1 2.3 1.586 3.23 3.23 0 0 0 1.934 1.568 3.156 3.156 0 0 0 2.451-.287 3.3 3.3 0 0 1 .924-2.058c-3.346-.387-6.858-1.709-6.858-7.553a6.021 6.021 0 0 1 1.543-4.126 5.72 5.72 0 0 1 .146-4.066s1.266-.415 4.14 1.577a13.953 13.953 0 0 1 7.541 0c2.874-1.992 4.131-1.577 4.131-1.577a5.691 5.691 0 0 1 .185 4.041 6.021 6.021 0 0 1 1.543 4.126c0 5.91-3.521 7.2-6.876 7.553a3.68 3.68 0 0 1 1.03 2.832v4.22s.268.887 1.035.736a15.415 15.415 0 0 0 9.949-17.018 15.158 15.158 0 0 0 -14.73-12.9z" fill="#520993" fill-rule="evenodd" transform="translate(.018)"/></svg>