<svg width="134" height="89" viewBox="0 0 134 89" fill="none" xmlns="http://www.w3.org/2000/svg">
<rect width="134" height="89" fill="white"/>
<g clip-path="url(#clip0_8972_1018)">
<path d="M87.9599 41.833C87.9108 41.0571 87.7634 40.1843 87.5177 39.263C87.272 38.2931 86.879 37.2748 86.3385 36.1595C85.798 35.0927 85.061 33.9289 84.1275 32.8621C83.7836 32.4256 83.3905 31.9892 82.9483 31.6013C83.587 29.0798 82.1622 26.8976 82.1622 26.8976C79.7055 26.7522 78.1332 27.625 77.5436 28.0614C77.4454 28.0129 77.3471 27.9644 77.2488 27.9644C76.8558 27.8189 76.4135 27.625 75.9713 27.528C75.5292 27.431 75.087 27.2856 74.5956 27.1401C74.1534 27.0431 73.6621 26.9461 73.1707 26.8491C73.0725 26.8491 73.0233 26.8006 72.9251 26.8006C71.8442 23.4062 68.7979 22 68.7979 22C65.3585 24.1336 64.7198 27.1401 64.7198 27.1401C64.7198 27.1401 64.7198 27.1886 64.6707 27.3341C64.4741 27.3826 64.2776 27.431 64.0811 27.4795C63.8354 27.5765 63.5406 27.6735 63.295 27.722C63.0492 27.819 62.7544 27.9159 62.5088 28.0129C62.0175 28.2069 61.477 28.4979 60.9857 28.7403C60.4944 29.0312 60.003 29.3222 59.5608 29.6132C59.5116 29.5647 59.4626 29.5647 59.4626 29.5647C54.6966 27.7705 50.4711 29.9041 50.4711 29.9041C50.1272 34.9472 52.3873 38.0991 52.8295 38.681C52.7312 38.972 52.633 39.3114 52.5347 39.6024C52.1908 40.7176 51.9451 41.8815 51.7486 43.0938C51.7486 43.2392 51.6995 43.4332 51.6995 43.6271C47.3266 45.7608 46 50.125 46 50.125C49.685 54.2952 53.9104 54.5377 53.9104 54.5377C54.4509 55.5075 55.0897 56.3804 55.7775 57.2533C56.0723 57.5927 56.3672 57.9321 56.7111 58.2715C55.3844 62.0539 56.9076 65.1573 56.9076 65.1573C60.9857 65.3028 63.688 63.4117 64.2285 62.9752C64.6216 63.1207 65.0638 63.2177 65.4568 63.3147C66.6852 63.6541 68.0117 63.7995 69.2892 63.8965C69.584 63.8965 69.9279 63.8965 70.2719 63.8965H70.4193H70.5175H70.7141H70.9106C72.8268 66.612 76.217 67 76.217 67C78.6245 64.4785 78.7719 62.0054 78.7719 61.472C78.7719 61.472 78.7719 61.472 78.7719 61.4235C78.7719 61.375 78.7719 61.3265 78.7719 61.3265C78.7719 61.278 78.7719 61.2295 78.7719 61.2295C79.2633 60.8901 79.7546 60.5022 80.1968 60.1142C81.1795 59.2414 82.0147 58.2715 82.7026 57.2048C82.7517 57.1077 82.85 57.0107 82.8992 56.9138C85.6015 57.0592 87.5177 55.2651 87.5177 55.2651C87.0755 52.4526 85.4541 51.0949 85.1101 50.8524C85.1101 50.8524 85.1101 50.8524 85.061 50.8524C85.0119 50.8524 85.0119 50.8524 85.0119 50.8524C85.0119 50.8524 84.9627 50.8524 84.9627 50.8039C84.9627 50.6584 85.0119 50.4645 85.0119 50.319C85.0119 50.028 85.061 49.737 85.061 49.3976V49.1551V49.0582V49.0097C85.061 48.9127 85.061 48.9612 85.061 48.9127V48.7188V48.4763C85.061 48.3793 85.061 48.3308 85.061 48.2339C85.061 48.1369 85.061 48.0884 85.0119 47.9914L84.9627 47.7489L84.9136 47.5065C84.8645 47.2155 84.8153 46.8761 84.7171 46.5851C84.4223 45.3729 83.9801 44.2575 83.3414 43.1908C82.7026 42.1724 81.9165 41.2511 81.0321 40.4752C80.1477 39.6994 79.165 39.0689 78.1332 38.6325C77.1014 38.1961 76.0205 37.8567 74.9396 37.7597C74.3991 37.7112 73.8586 37.6627 73.3181 37.6627H73.1216H73.0725C73.0725 37.6627 72.9742 37.6627 73.0233 37.6627H72.9251H72.7285C72.6794 37.6627 72.5812 37.6627 72.532 37.6627C72.2372 37.6627 71.9916 37.7112 71.6968 37.7597C70.6158 37.9536 69.584 38.3416 68.6996 38.875C67.8152 39.4084 67.0291 40.0873 66.3904 40.8146C65.7516 41.542 65.2603 42.4149 64.9163 43.2393C64.5724 44.1121 64.3759 44.9849 64.3267 45.8577C64.3267 46.0517 64.3267 46.2942 64.3267 46.4881C64.3267 46.5366 64.3267 46.5851 64.3267 46.6336V46.8276C64.3267 46.9246 64.3267 47.0215 64.3267 47.1185C64.3759 47.5549 64.425 47.9914 64.5724 48.3793C64.818 49.2036 65.162 49.9311 65.6534 50.513C66.0956 51.1433 66.6852 51.6283 67.2747 52.0646C67.8643 52.4526 68.503 52.7435 69.1418 52.9375C69.7806 53.1315 70.3701 53.18 70.9597 53.18C71.058 53.18 71.1071 53.18 71.1563 53.18C71.2054 53.18 71.2546 53.18 71.2546 53.18H71.3528C71.402 53.18 71.4511 53.18 71.5494 53.18H71.5984H71.6476C71.6968 53.18 71.7459 53.18 71.7459 53.18C71.8441 53.18 71.8933 53.1315 71.9424 53.1315C71.9916 53.1315 72.0898 53.083 72.139 53.083C72.2864 53.0345 72.3846 53.0345 72.532 52.986C72.7777 52.889 73.0233 52.792 73.269 52.695C73.5147 52.598 73.7112 52.4526 73.9077 52.3071C73.9569 52.2586 74.006 52.2101 74.0551 52.2101C74.2517 52.0646 74.3008 51.7737 74.1534 51.5798C74.006 51.3857 73.7604 51.3858 73.5638 51.4827C73.5147 51.4827 73.4656 51.5312 73.4164 51.5798C73.269 51.6767 73.0725 51.7252 72.8759 51.7737C72.6794 51.8222 72.4829 51.8707 72.2864 51.9192C72.1881 51.9192 72.0898 51.9676 71.9916 51.9676C71.9424 51.9676 71.8933 51.9676 71.8442 51.9676C71.795 51.9676 71.7459 51.9676 71.6968 51.9676C71.6476 51.9676 71.5985 51.9676 71.5494 51.9676C71.5002 51.9676 71.402 51.9676 71.3528 51.9676H71.3037C71.2545 51.9676 71.2546 51.9676 71.2054 51.9676C71.1562 51.9676 71.1072 51.9676 71.058 51.9676C70.6158 51.9192 70.1245 51.7737 69.6823 51.5798C69.2401 51.3857 68.7978 51.0949 68.4048 50.7554C68.0118 50.4159 67.6678 49.9795 67.4221 49.5431C67.1764 49.0582 66.98 48.5732 66.8817 47.9914C66.8326 47.7004 66.8326 47.458 66.8326 47.167C66.8326 47.07 66.8326 47.0215 66.8326 46.9245V46.8761V46.8276C66.8326 46.7791 66.8326 46.7306 66.8326 46.7306C66.8326 46.5851 66.8817 46.4397 66.8817 46.2942C67.0782 45.0819 67.7169 43.9181 68.6504 43.0452C68.8962 42.8513 69.1418 42.6089 69.3874 42.4634C69.6332 42.2694 69.9279 42.1239 70.2227 41.9785C70.5175 41.833 70.8123 41.736 71.1563 41.639C71.4511 41.542 71.795 41.4935 72.139 41.4935C72.2864 41.4935 72.4829 41.4935 72.6303 41.4935C72.6794 41.4935 72.7285 41.4935 72.7285 41.4935H72.8759H72.9742H73.0233H73.1707C73.5147 41.542 73.9077 41.5905 74.2517 41.639C74.9395 41.7845 75.6274 42.027 76.2661 42.4149C77.5436 43.0938 78.6245 44.209 79.3124 45.5183C79.6563 46.1972 79.902 46.8761 80.0003 47.6035C80.0494 47.7974 80.0494 47.9914 80.0494 48.1369V48.2824V48.4278C80.0494 48.4763 80.0494 48.5248 80.0494 48.5733C80.0494 48.6217 80.0494 48.6702 80.0494 48.7188V48.8158V48.9612C80.0494 49.0582 80.0494 49.2036 80.0494 49.3006C80.0494 49.4946 80.0003 49.6886 80.0003 49.8825C79.9512 50.0765 79.9511 50.2705 79.902 50.4645C79.8529 50.6584 79.8037 50.8524 79.7546 51.0464C79.6563 51.4342 79.5089 51.8222 79.3615 52.2101C79.0667 52.9375 78.6737 53.6649 78.1824 54.3438C77.1997 55.653 75.8731 56.7199 74.3991 57.3987C73.6621 57.7382 72.876 57.9806 72.0407 58.1261C71.6476 58.1745 71.2054 58.223 70.8123 58.223H70.7141H70.6649H70.5175H70.321H70.2227H70.1736C69.9771 58.223 69.7314 58.223 69.5349 58.1745C68.6505 58.1261 67.7661 57.9806 66.9308 57.7382C66.0955 57.4957 65.2603 57.1562 64.4741 56.7683C62.9018 55.944 61.5261 54.8287 60.4452 53.4709C59.9047 52.792 59.4134 52.0646 59.0204 51.3373C58.6273 50.5614 58.3324 49.7856 58.0868 48.9612C57.8411 48.1369 57.7429 47.3125 57.6446 46.4881V46.3426V46.2942V46.1972V46.1487V46.0033V45.9548V45.9062V45.8092V45.6153V45.5668V45.4699C57.6446 45.3729 57.6446 45.2759 57.6446 45.1789C57.6446 44.7425 57.6938 44.3545 57.7429 43.9181C57.792 43.4817 57.8902 43.0452 57.9394 42.6574C58.0377 42.2209 58.1359 41.8329 58.2342 41.3965C58.4798 40.5722 58.7746 39.7479 59.1186 39.0205C59.8064 37.5173 60.74 36.1595 61.8701 35.0927C62.1649 34.8017 62.4597 34.5592 62.7544 34.3168C63.0492 34.0744 63.344 33.8804 63.688 33.6379C63.9828 33.4439 64.3267 33.25 64.6707 33.0561C64.8181 32.9591 65.0146 32.9105 65.162 32.8136C65.2603 32.7651 65.3585 32.7166 65.4076 32.7166C65.506 32.6681 65.6042 32.6196 65.6534 32.6196C65.9973 32.4742 66.3903 32.3286 66.7342 32.2317C66.8326 32.1832 66.9308 32.1832 67.0291 32.1347C67.1274 32.0862 67.2256 32.0862 67.3239 32.0377C67.5204 31.9892 67.7169 31.9408 67.8643 31.8923C67.9626 31.8923 68.0608 31.8438 68.1591 31.8438C68.2574 31.8438 68.3556 31.7952 68.454 31.7952C68.5522 31.7952 68.6504 31.7467 68.7488 31.7467H68.8962H69.0436C69.1418 31.7467 69.2401 31.6983 69.3384 31.6983C69.4366 31.6983 69.5349 31.6983 69.6823 31.6498C69.7806 31.6498 69.9279 31.6013 70.0262 31.6013C70.0753 31.6013 70.1736 31.6013 70.2227 31.6013H70.3701H70.4193H70.5175C70.6158 31.6013 70.7141 31.6013 70.8615 31.6013H71.0089H71.058H71.1071C71.2054 31.6013 71.3037 31.6013 71.402 31.6013C71.7459 31.6013 72.139 31.6013 72.4829 31.6013C73.2199 31.6498 73.9078 31.6982 74.6448 31.8438C76.0205 32.0862 77.3471 32.5226 78.5263 33.1045C79.7055 33.6864 80.7864 34.3653 81.72 35.1412C81.7691 35.1897 81.8182 35.2381 81.8674 35.2866C81.9165 35.3351 81.9656 35.3836 82.0148 35.4321C82.113 35.5291 82.2113 35.6261 82.3587 35.7231C82.457 35.8201 82.5552 35.917 82.6535 36.014C82.7518 36.111 82.85 36.2079 82.9483 36.3049C83.3414 36.6929 83.6853 37.1293 84.0292 37.5658C84.6679 38.3901 85.2084 39.2629 85.6506 40.0388C85.6997 40.0873 85.6998 40.1357 85.7489 40.1842C85.798 40.2327 85.798 40.2812 85.8471 40.3298C85.8963 40.4268 85.9454 40.5237 85.9945 40.6207C86.0437 40.7177 86.0928 40.8146 86.1419 40.9116C86.1911 41.0086 86.2402 41.1056 86.2402 41.2026C86.3876 41.5905 86.535 41.9299 86.6333 42.2694C86.8298 42.8028 86.9772 43.2877 87.0755 43.7241C87.1246 43.8696 87.272 44.0151 87.4686 43.9666C87.6651 43.9666 87.8125 43.8211 87.8125 43.6271C88.0582 42.9967 88.009 42.4634 87.9599 41.833Z" fill="url(#paint0_linear_8972_1018)"/>
</g>
<defs>
<linearGradient id="paint0_linear_8972_1018" x1="67.0345" y1="77.145" x2="67.0345" y2="35.978" gradientUnits="userSpaceOnUse">
<stop stop-color="#FFF100"/>
<stop offset="1" stop-color="#F05A28"/>
</linearGradient>
<clipPath id="clip0_8972_1018">
<rect width="42" height="45" fill="white" transform="translate(46 22)"/>
</clipPath>
</defs>
</svg>
