<svg fill="none" height="42" viewBox="0 0 77 42" width="77" xmlns="http://www.w3.org/2000/svg"><path d="m56.8494 4.21722h-37.0453c-2.6878 0-4.8744 2.09132-4.8744 4.66188v24.2417c0 2.5706 2.1866 4.6619 4.8744 4.6619h37.0453c2.6878 0 4.8744-2.0913 4.8744-4.6619v-24.2417c0-2.57056-2.1866-4.66188-4.8744-4.66188zm-4.8743 1.86475v29.83593h-27.2966v-29.83593zm-35.0957 27.03883v-24.2417c0-1.54215 1.3122-2.79713 2.9247-2.79713h2.9246v29.83593h-2.9246c-1.6125 0-2.9247-1.2549-2.9247-2.7971zm42.8947 0c0 1.5422-1.3122 2.7971-2.9247 2.7971h-2.9246v-29.83593h2.9246c1.6125 0 2.9247 1.25498 2.9247 2.79713z" fill="#000"/><g fill="#f7931e"><path d="m57.8248 20.0676h-1.9498v1.8647h1.9498z"/><path d="m33.7396 14.7469-5.849 5.594 1.3787 1.3185 5.849-5.594z"/><path d="m37.6369 11.0172-1.9494 1.8645 1.3787 1.3185 1.9494-1.8644z"/><path d="m47.3881 20.3411-5.849 5.594 1.3786 1.3186 5.8491-5.594z"/><path d="m39.5901 27.7997-1.9495 1.8645 1.3787 1.3185 1.9494-1.8644z"/><path d="m45.4335 12.8822-15.5976 14.9176 1.3787 1.3186 15.5976-14.9176z"/></g></svg>