<svg width="77" height="43" viewBox="0 0 77 43" fill="none" xmlns="http://www.w3.org/2000/svg">
<g clip-path="url(#clip0_5367_1259)">
<path d="M52.5365 20.2083H51.1789C50.8772 17.2455 49.5625 14.4774 47.4566 12.3715C45.3507 10.2657 42.5827 8.95089 39.6198 8.64921V7.29167C39.6198 6.9491 39.4837 6.62055 39.2415 6.37832C38.9992 6.13609 38.6707 6 38.3281 6C37.9856 6 37.657 6.13609 37.4148 6.37832C37.1725 6.62055 37.0365 6.9491 37.0365 7.29167V8.64921C34.0736 8.95089 31.3056 10.2657 29.1997 12.3715C27.0938 14.4774 25.779 17.2455 25.4773 20.2083H24.1198C23.7772 20.2083 23.4487 20.3444 23.2064 20.5867C22.9642 20.8289 22.8281 21.1574 22.8281 21.5C22.8281 21.8426 22.9642 22.1711 23.2064 22.4133C23.4487 22.6556 23.7772 22.7917 24.1198 22.7917H25.4773C25.779 25.7545 27.0938 28.5226 29.1997 30.6285C31.3056 32.7343 34.0736 34.0491 37.0365 34.3508V35.7083C37.0365 36.0509 37.1725 36.3794 37.4148 36.6217C37.657 36.8639 37.9856 37 38.3281 37C38.6707 37 38.9992 36.8639 39.2415 36.6217C39.4837 36.3794 39.6198 36.0509 39.6198 35.7083V34.3508C42.5827 34.0491 45.3507 32.7343 47.4566 30.6285C49.5625 28.5226 50.8772 25.7545 51.1789 22.7917H52.5365C52.879 22.7917 53.2076 22.6556 53.4498 22.4133C53.692 22.1711 53.8281 21.8426 53.8281 21.5C53.8281 21.1574 53.692 20.8289 53.4498 20.5867C53.2076 20.3444 52.879 20.2083 52.5365 20.2083ZM39.6198 31.7442V30.5417C39.6198 30.1991 39.4837 29.8706 39.2415 29.6283C38.9992 29.3861 38.6707 29.25 38.3281 29.25C37.9856 29.25 37.657 29.3861 37.4148 29.6283C37.1725 29.8706 37.0365 30.1991 37.0365 30.5417V31.7442C34.7633 31.4544 32.6508 30.418 31.0305 28.7977C29.4101 27.1773 28.3737 25.0648 28.0839 22.7917H29.2865C29.629 22.7917 29.9576 22.6556 30.1998 22.4133C30.442 22.1711 30.5781 21.8426 30.5781 21.5C30.5781 21.1574 30.442 20.8289 30.1998 20.5867C29.9576 20.3444 29.629 20.2083 29.2865 20.2083H28.0839C28.3737 17.9352 29.4101 15.8227 31.0305 14.2023C32.6508 12.582 34.7633 11.5456 37.0365 11.2558V12.4583C37.0365 12.8009 37.1725 13.1294 37.4148 13.3717C37.657 13.6139 37.9856 13.75 38.3281 13.75C38.6707 13.75 38.9992 13.6139 39.2415 13.3717C39.4837 13.1294 39.6198 12.8009 39.6198 12.4583V11.2558C41.8929 11.5456 44.0054 12.582 45.6258 14.2023C47.2461 15.8227 48.2825 17.9352 48.5723 20.2083H47.3698C47.0272 20.2083 46.6987 20.3444 46.4564 20.5867C46.2142 20.8289 46.0781 21.1574 46.0781 21.5C46.0781 21.8426 46.2142 22.1711 46.4564 22.4133C46.6987 22.6556 47.0272 22.7917 47.3698 22.7917H48.5723C48.2825 25.0648 47.2461 27.1773 45.6258 28.7977C44.0054 30.418 41.8929 31.4544 39.6198 31.7442Z" fill="#232323"/>
<path d="M38.3281 17.625C37.5617 17.625 36.8125 17.8523 36.1753 18.2781C35.5381 18.7038 35.0414 19.309 34.7481 20.0171C34.4548 20.7252 34.3781 21.5043 34.5276 22.256C34.6771 23.0077 35.0462 23.6981 35.5881 24.24C36.13 24.782 36.8205 25.151 37.5722 25.3005C38.3238 25.4501 39.103 25.3733 39.811 25.08C40.5191 24.7867 41.1243 24.2901 41.5501 23.6528C41.9759 23.0156 42.2031 22.2664 42.2031 21.5C42.2031 20.4723 41.7949 19.4867 41.0682 18.76C40.3415 18.0333 39.3558 17.625 38.3281 17.625ZM38.3281 22.7917C38.0727 22.7917 37.8229 22.7159 37.6105 22.574C37.3981 22.4321 37.2325 22.2303 37.1348 21.9943C37.037 21.7583 37.0114 21.4986 37.0613 21.248C37.1111 20.9974 37.2341 20.7673 37.4148 20.5867C37.5954 20.406 37.8256 20.283 38.0761 20.2332C38.3267 20.1833 38.5864 20.2089 38.8224 20.3067C39.0584 20.4044 39.2602 20.57 39.4021 20.7824C39.544 20.9948 39.6198 21.2445 39.6198 21.5C39.6198 21.8426 39.4837 22.1711 39.2415 22.4133C38.9992 22.6556 38.6707 22.7917 38.3281 22.7917Z" fill="#F7931E"/>
</g>
<defs>
<clipPath id="clip0_5367_1259">
<rect width="31" height="31" fill="white" transform="translate(22.8281 6)"/>
</clipPath>
</defs>
</svg>
