<svg width="77" height="28" viewBox="0 0 77 28" fill="none" xmlns="http://www.w3.org/2000/svg">
<g clip-path="url(#clip0_5363_1306)">
<g clip-path="url(#clip1_5363_1306)">
<path d="M52.3903 0.940002H24.2703C22.2301 0.940002 20.5703 2.55496 20.5703 4.54V23.26C20.5703 25.245 22.2301 26.86 24.2703 26.86H52.3903C54.4305 26.86 56.0903 25.245 56.0903 23.26V4.54C56.0903 2.55496 54.4305 0.940002 52.3903 0.940002ZM48.6903 2.38V25.42H27.9703V2.38H48.6903ZM22.0503 23.26V4.54C22.0503 3.34912 23.0464 2.38 24.2703 2.38H26.4903V25.42H24.2703C23.0464 25.42 22.0503 24.4509 22.0503 23.26ZM54.6103 23.26C54.6103 24.4509 53.6143 25.42 52.3903 25.42H50.1703V2.38H52.3903C53.6143 2.38 54.6103 3.34912 54.6103 4.54V23.26Z" fill="black"/>
<path d="M53.1284 13.18H51.6484V14.62H53.1284V13.18Z" fill="#F7931E"/>
<path d="M34.8461 9.07124L30.4062 13.3911L31.4528 14.4093L35.8926 10.0895L34.8461 9.07124Z" fill="#F7931E"/>
<path d="M37.8079 6.19109L36.3281 7.63086L37.3746 8.64908L38.8544 7.20931L37.8079 6.19109Z" fill="#F7931E"/>
<path d="M45.2054 13.3912L40.7656 17.7111L41.8121 18.7293L46.2519 14.4095L45.2054 13.3912Z" fill="#F7931E"/>
<path d="M39.2844 19.1509L37.8047 20.5907L38.8512 21.6089L40.331 20.1692L39.2844 19.1509Z" fill="#F7931E"/>
<path d="M43.7303 7.63133L31.8906 19.151L32.9371 20.1692L44.7768 8.64955L43.7303 7.63133Z" fill="#F7931E"/>
</g>
</g>
<defs>
<clipPath id="clip0_5363_1306">
<rect width="76.666" height="27.8" fill="white"/>
</clipPath>
<clipPath id="clip1_5363_1306">
<rect width="37" height="36" fill="white" transform="translate(19.8281 -4.09998)"/>
</clipPath>
</defs>
</svg>
