<svg fill="none" height="43" viewBox="0 0 77 43" width="77" xmlns="http://www.w3.org/2000/svg" xmlns:xlink="http://www.w3.org/1999/xlink"><clipPath id="a"><path d="m18.8281 2h39v39h-39z"/></clipPath><g clip-path="url(#a)"><path d="m56.2031 19.875h-1.7079c-.3795-3.7275-2.0335-7.2098-4.6829-9.8592-2.6493-2.64933-6.1317-4.30339-9.8592-4.68292v-1.70788c0-.43098-.1712-.8443-.4759-1.14905-.3048-.30475-.7181-.47595-1.1491-.47595s-.8443.1712-1.149.47595c-.3048.30475-.476.71807-.476 1.14905v1.70788c-3.7275.37953-7.2098 2.03359-9.8592 4.68292-2.6493 2.6494-4.3034 6.1317-4.6829 9.8592h-1.7079c-.431 0-.8443.1712-1.149.476-.3048.3047-.476.718-.476 1.149s.1712.8443.476 1.149c.3047.3048.718.476 1.149.476h1.7079c.3795 3.7275 2.0336 7.2098 4.6829 9.8592 2.6494 2.6493 6.1317 4.3034 9.8592 4.6829v1.7079c0 .431.1712.8443.476 1.149.3047.3048.718.476 1.149.476s.8443-.1712 1.1491-.476c.3047-.3047.4759-.718.4759-1.149v-1.7079c3.7275-.3795 7.2099-2.0336 9.8592-4.6829 2.6494-2.6494 4.3034-6.1317 4.6829-9.8592h1.7079c.431 0 .8443-.1712 1.1491-.476.3047-.3047.4759-.718.4759-1.149s-.1712-.8443-.4759-1.149c-.3048-.3048-.7181-.476-1.1491-.476zm-16.25 14.5129v-1.5129c0-.431-.1712-.8443-.4759-1.149-.3048-.3048-.7181-.476-1.1491-.476s-.8443.1712-1.149.476c-.3048.3047-.476.718-.476 1.149v1.5129c-2.8597-.3646-5.5174-1.6685-7.5559-3.707s-3.3424-4.6962-3.707-7.5559h1.5129c.431 0 .8443-.1712 1.1491-.476.3047-.3047.4759-.718.4759-1.149s-.1712-.8443-.4759-1.149c-.3048-.3048-.7181-.476-1.1491-.476h-1.5129c.3646-2.8597 1.6685-5.5174 3.707-7.5559s4.6962-3.3424 7.5559-3.70698v1.51288c0 .431.1712.8443.476 1.149.3047.3048.718.476 1.149.476s.8443-.1712 1.1491-.476c.3047-.3047.4759-.718.4759-1.149v-1.51288c2.8598.36458 5.5175 1.66848 7.556 3.70698s3.3423 4.6962 3.7069 7.5559h-1.5129c-.431 0-.8443.1712-1.149.476-.3048.3047-.476.718-.476 1.149s.1712.8443.476 1.149c.3047.3048.718.476 1.149.476h1.5129c-.3646 2.8597-1.6684 5.5174-3.7069 7.5559s-4.6962 3.3424-7.556 3.707z" fill="#232323"/><path d="m38.3281 16.625c-.9642 0-1.9067.2859-2.7084.8216s-1.4265 1.297-1.7955 2.1878-.4655 1.871-.2774 2.8167c.1881.9456.6524 1.8143 1.3342 2.496.6818.6818 1.5504 1.1461 2.4961 1.3342.9456.1881 1.9258.0916 2.8166-.2774s1.6522-.9938 2.1878-1.7955c.5357-.8017.8216-1.7442.8216-2.7084 0-1.2929-.5136-2.5329-1.4278-3.4471-.9143-.9143-2.1542-1.4279-3.4472-1.4279zm0 6.5c-.3214 0-.6355-.0953-.9028-.2739-.2672-.1785-.4755-.4323-.5985-.7292-.123-.297-.1551-.6237-.0924-.9389s.2174-.6048.4447-.832c.2272-.2273.5168-.3821.832-.4448s.642-.0305.9389.0925.5507.3313.7293.5985c.1785.2672.2738.5814.2738.9028 0 .431-.1712.8443-.4759 1.149-.3048.3048-.7181.476-1.1491.476z" fill="#fe6b00"/></g></svg>