<svg height="30" viewBox="0 0 30 30" width="30" xmlns="http://www.w3.org/2000/svg"><circle cx="15" cy="15" fill="#520993" r="15"/><g fill="#fff"><path d="m12.958 0h-7.458a5.5 5.5 0 0 0 -5.5 5.5v7.46a5.5 5.5 0 0 0 5.5 5.5h7.46a5.5 5.5 0 0 0 5.5-5.5v-7.46a5.5 5.5 0 0 0 -5.502-5.5zm3.642 12.958a3.642 3.642 0 0 1 -3.642 3.642h-7.458a3.642 3.642 0 0 1 -3.642-3.642v-7.458a3.642 3.642 0 0 1 3.642-3.643h7.46a3.642 3.642 0 0 1 3.64 3.643v7.46z" transform="translate(5.862 5.442)"/><path d="m138.178 133a5.178 5.178 0 1 0 5.178 5.178 5.184 5.184 0 0 0 -5.178-5.178zm0 8.342a3.164 3.164 0 1 1 3.164-3.164 3.164 3.164 0 0 1 -3.164 3.164z" transform="translate(-123.094 -123.484)"/><ellipse cx="19.995" cy="9.825" rx="1.241" ry="1.241"/></g></svg>