<svg fill="none" height="100" viewBox="0 0 136 100" width="136" xmlns="http://www.w3.org/2000/svg"><path d="m61.005 0-20.58 68.845-8.085-30.87c9.6367 0 17.395 2.695 23.275 8.085 6.0433 5.39 9.065 12.9033 9.065 22.54 0 9.4733-3.1033 17.0683-9.31 22.785-6.0433 5.7167-13.72 8.575-23.03 8.575s-17.0683-2.8583-23.275-8.575c-6.04333-5.7167-9.065-13.3117-9.065-22.785 0-2.6133.163333-5.2267.49-7.84.49-2.6133 1.38833-5.7983 2.695-9.555 1.47-3.7567 3.59333-8.6567 6.37-14.7l17.15-36.505zm71.05 0-20.58 68.845-8.085-30.87c9.637 0 17.395 2.695 23.275 8.085 6.043 5.39 9.065 12.9033 9.065 22.54 0 9.4733-3.103 17.0683-9.31 22.785-6.043 5.7167-13.72 8.575-23.03 8.575s-17.0683-2.8583-23.275-8.575c-6.0433-5.7167-9.065-13.3117-9.065-22.785 0-2.6133.1633-5.2267.49-7.84.49-2.6133 1.3883-5.7983 2.695-9.555 1.47-3.7567 3.5933-8.6567 6.37-14.7l17.15-36.505z" fill="#fe6b00"/></svg>