<svg fill="none" height="89" viewBox="0 0 134 89" width="134" xmlns="http://www.w3.org/2000/svg" xmlns:xlink="http://www.w3.org/1999/xlink"><linearGradient id="a" gradientUnits="userSpaceOnUse" x1="39.2924" x2="20.3676" y1="35.2714" y2="54.5584"><stop offset=".00343514" stop-color="#e44857"/><stop offset=".4689" stop-color="#c711e1"/><stop offset="1" stop-color="#7f52ff"/></linearGradient><clipPath id="b"><path d="m20 34.5h94v20h-94z"/></clipPath><path d="m0 0h134v89h-134z" fill="#fff"/><g clip-path="url(#b)"><path d="m39.2941 54.1977h-19.2941v-18.9243h19.2941l-9.647 9.4584z" fill="url(#a)"/><g fill="#000"><path d="m62.6423 35.2129h-3.8719l-8.3461 8.7841v-8.7235h-3.0845v18.9242h3.0845v-9.1401l8.4079 9.1401h3.9298l-8.8904-9.7878z"/><path d="m73.1043 40.9703c-1.0887-.5947-2.3587-.9508-3.6906-.9508-1.3897 0-2.6597.2955-3.7484.9508-1.0886.6553-1.9958 1.4848-2.6019 2.553-.606 1.1288-.9072 2.375-.9072 3.7387 0 1.3636.3012 2.6704.9072 3.7386.6061 1.0682 1.4515 1.9583 2.6019 2.553 1.0887.5947 2.3587.9508 3.7484.9508 1.3898 0 2.6598-.2955 3.7485-.9508 1.0886-.5947 1.934-1.4848 2.5401-2.553.6061-1.1288.9072-2.375.9072-3.7386 0-1.3637-.3629-2.6099-.969-3.7387-.5983-1.072-1.4476-1.9621-2.5362-2.553zm-.2394 8.7159c-.3629.7121-.8454 1.2462-1.4515 1.6023-.6061.4166-1.3318.5947-2.1155.5947-.7836 0-1.5132-.1781-2.1772-.5947-.6061-.4167-1.0886-.9508-1.4515-1.6023-.3629-.7121-.4826-1.4848-.4826-2.375s.1815-1.7197.5444-2.375c.3628-.7121.8454-1.2462 1.4514-1.6023.6061-.4166 1.3319-.5947 2.1773-.5947.7875 0 1.5133.1781 2.1155.5947.6061.4167 1.0886.9508 1.4515 1.6023.3629.7121.4825 1.4848.4825 2.375s-.1814 1.6629-.5443 2.375z"/><path d="m82.844 36.875h-2.9647v2.375c0 .3561-.0618.6515-.3011.8295-.1815.1781-.4826.2955-.8455.2955h-1.4515v2.4924h2.5402v7.4773c0 .7727.1814 1.4848.4825 2.0758.3011.5947.7875 1.0681 1.3897 1.3636.6061.3561 1.2701.4735 2.1155.4735h2.297v-2.6099h-1.6947c-.4247 0-.7876-.1174-1.0887-.4735-.2432-.2954-.4246-.7121-.4246-1.1856v-7.1212h3.2659v-2.4924h-3.2659v-3.5z"/><path d="m91.4914 34.5h-3.0226v19.697h3.0226z"/><path d="m98.0219 34.5605h-3.0844v3.0872h3.0844z"/><path d="m97.9602 40.375h-3.0227v13.8788h3.0227z"/><path d="m113.387 42.6294c-.425-.8296-1.027-1.4849-1.814-1.8977-.788-.4735-1.695-.7122-2.722-.7122-1.089 0-2.058.2955-2.903.7728-.664.4166-1.208 1.0075-1.633 1.6628v-2.1363h-2.903v13.8788h3.023v-7.7766c0-.7727.119-1.4242.424-2.0189.302-.5947.726-1.0076 1.209-1.3636.544-.2955 1.15-.4735 1.876-.4735.664 0 1.15.1174 1.633.4167.482.2992.787.6515 1.027 1.1287.243.4735.363 1.0682.363 1.7197v8.3069h3.022v-8.6629c.066-1.0644-.174-2.0114-.602-2.8447z"/></g></g></svg>