<svg id="Group_7" data-name="Group 7" xmlns="http://www.w3.org/2000/svg" width="30" height="30" viewBox="0 0 30 30">
  <circle id="Oval-1-Copy-5" cx="15" cy="15" r="15" transform="translate(0 0)" fill="#520993"/>
  <path id="Fill-182" d="M18.835,21.348A1.681,1.681,0,1,0,17,19.675a1.759,1.759,0,0,0,1.835,1.673" transform="translate(-9.694 -10.267)" fill="#fff" fill-rule="evenodd"/>
  <path id="Fill-183" d="M18,38.489h3.29V29H18Z" transform="translate(-10.267 -16.457)" fill="#fff" fill-rule="evenodd"/>
  <path id="Fill-184" d="M32.285,32.632c0-1.088.515-2.152,1.746-2.152s1.534,1.064,1.534,2.126v5.183H38.84V32.394c0-3.748-2.215-4.394-3.578-4.394a3.331,3.331,0,0,0-2.977,1.577V28.3H29v9.489h3.285Z" transform="translate(-16.451 -15.884)" fill="#fff" fill-rule="evenodd"/>
</svg>
