<svg height="30" viewBox="0 0 30 30" width="30" xmlns="http://www.w3.org/2000/svg"><circle cx="15" cy="15" fill="#520993" r="15"/><g fill="#fff" fill-rule="evenodd"><path d="m18.835 21.348a1.681 1.681 0 1 0 -1.835-1.673 1.759 1.759 0 0 0 1.835 1.673" transform="translate(-9.694 -10.267)"/><path d="m18 38.489h3.29v-9.489h-3.29z" transform="translate(-10.267 -16.457)"/><path d="m32.285 32.632c0-1.088.515-2.152 1.746-2.152s1.534 1.064 1.534 2.126v5.183h3.275v-5.395c0-3.748-2.215-4.394-3.578-4.394a3.331 3.331 0 0 0 -2.977 1.577v-1.277h-3.285v9.489h3.285z" transform="translate(-16.451 -15.884)"/></g></svg>