<svg enable-background="new 0 0 500 500" viewBox="0 0 500 500" xmlns="http://www.w3.org/2000/svg"><path d="m125.5 73.1h98.6c4.6 0 8.3 3.7 8.3 8.3v212.8c0 4.6-3.7 8.3-8.3 8.3h-98.6c-4.6 0-8.3-3.7-8.3-8.3v-212.8c0-4.6 3.8-8.3 8.3-8.3z" fill="none" stroke="#520993" stroke-miterlimit="10" stroke-width="3"/><path d="m349 179.7h98.9c4.5 0 8.2 3.7 8.2 8.2v205.3c0 4.5-3.7 8.2-8.2 8.2h-98.9c-4.5 0-8.2-3.7-8.2-8.2v-205.3c0-4.5 3.7-8.2 8.2-8.2z" fill="none" stroke="#520993" stroke-miterlimit="10" stroke-width="3"/><path d="m131.2 92.2h87.3v171.2h-87.3z" fill="#24e2bb"/><path d="m354.8 205.2h87.3v166.7h-87.3z" fill="#f29021"/><path d="m382.5 168.4h-7.8c-.8-2.6-1.8-5.1-3.1-7.5l5.6-5.6c1.8-1.8 1.8-4.7 0-6.5l-8.9-8.9c-1.8-1.8-4.7-1.8-6.5 0l-5.6 5.6c-2.4-1.3-4.9-2.3-7.5-3.1v-7.8c0-2.5-2.1-4.6-4.6-4.6h-12.6c-2.5 0-4.6 2.1-4.6 4.6v7.8c-2.6.8-5.1 1.8-7.5 3.1l-5.6-5.6c-1.8-1.8-4.7-1.8-6.5 0l-8.9 8.9c-1.8 1.8-1.8 4.7 0 6.5l5.6 5.6c-1.3 2.4-2.3 4.9-3.1 7.5h-7.9c-2.5 0-4.6 2.1-4.6 4.6v12.6c0 2.5 2.1 4.6 4.6 4.6h7.9c.8 2.6 1.8 5.1 3.1 7.5l-5.6 5.6c-1.8 1.8-1.8 4.7 0 6.5l8.9 8.9c1.8 1.8 4.7 1.8 6.5 0l5.6-5.6c2.4 1.3 4.9 2.3 7.5 3.1v7.8c0 2.5 2.1 4.6 4.6 4.6h12.6c2.5 0 4.6-2 4.6-4.6v-7.8c2.6-.8 5.1-1.8 7.5-3.1l5.6 5.6c1.8 1.8 4.7 1.8 6.5 0l8.9-8.9c1.8-1.8 1.8-4.7 0-6.5l-5.6-5.6c1.3-2.4 2.3-4.9 3.1-7.5h7.8c2.5 0 4.6-2 4.6-4.6v-12.6c-0-2.6-2.1-4.6-4.6-4.6zm-44.8 32.6c-12 0-21.8-9.8-21.8-21.8s9.8-21.8 21.8-21.8 21.8 9.8 21.8 21.8c0 12.1-9.7 21.8-21.8 21.8z" fill="#f9f7f8"/><path d="m170 145.8h-11.6c-1.1-3.8-2.6-7.5-4.5-10.9l8.2-8.2c2.6-2.6 2.6-6.9 0-9.5l-13.1-13.2c-2.6-2.6-6.9-2.6-9.5 0l-8.2 8.2c-3.5-1.9-7.2-3.4-11-4.5v-11.6c0-3.7-3-6.7-6.7-6.7h-18.5c-3.7 0-6.7 3-6.7 6.7v11.6c-3.8 1.1-7.5 2.6-10.9 4.5l-8.2-8.2c-2.6-2.6-6.9-2.6-9.5 0l-13.1 13.1c-2.6 2.6-2.6 6.9 0 9.5l8.2 8.2c-1.9 3.5-3.4 7.1-4.5 10.9h-11.7c-3.7 0-6.7 3-6.7 6.7v18.5c0 3.7 3 6.7 6.7 6.7h11.6c1.1 3.8 2.6 7.5 4.5 11l-8.2 8.2c-2.6 2.6-2.6 6.9 0 9.5l13.1 13.1c2.6 2.6 6.9 2.6 9.5 0l8.2-8.2c3.5 1.9 7.1 3.4 10.9 4.5v11.6c0 3.7 3 6.7 6.7 6.7h18.6c3.7 0 6.7-3 6.7-6.7v-11.4c3.8-1.1 7.5-2.6 11-4.5l8.2 8.2c2.6 2.6 6.9 2.6 9.5 0l13.1-13.1c2.6-2.6 2.6-6.9 0-9.5l-8.2-8.2c1.9-3.5 3.4-7.2 4.5-11h11.6c3.7 0 6.7-3 6.7-6.7v-18.5c.1-3.8-2.9-6.8-6.7-6.8zm-65.6 48c-17.7 0-32-14.3-32-32s14.3-32 32-32 32 14.3 32 32c0 17.6-14.3 31.9-32 32z" fill="#f9f7f8"/><g fill="none" stroke="#520993" stroke-miterlimit="10" stroke-width="3"><circle cx="398.4" cy="385.3" r="6.7"/><path d="m168.5 275.7h14.5c3.1 0 5.6 2.5 5.6 5.6 0 3.1-2.5 5.6-5.6 5.6h-14.5c-3.1 0-5.6-2.5-5.6-5.6 0-3.1 2.5-5.6 5.6-5.6z"/><path d="m203.2 281.3h14.5" stroke-linecap="round"/><path d="m133.8 281.3h14.5" stroke-linecap="round"/><path d="m172.6 84.4h14.5" stroke-linecap="round"/><path d="m391.1 197.4h14.6" stroke-linecap="round"/></g></svg>