<svg fill="none" height="716" viewBox="0 0 537 716" width="537" xmlns="http://www.w3.org/2000/svg" xmlns:xlink="http://www.w3.org/1999/xlink"><clipPath id="a"><path d="m0 0h537v716h-537z"/></clipPath><clipPath id="b"><path d="m-1113-921h2246v2556h-2246z"/></clipPath><clipPath id="c"><path d="m32.2383 40h20v16h-20z"/></clipPath><g clip-path="url(#a)"><path d="m0 0h537v716h-537z" fill="#0a0a0a"/><g clip-path="url(#b)" stroke="#fff" stroke-miterlimit="10" stroke-opacity=".7" stroke-width=".75"><path d="m-1094-203.116 380.818-717.182 565.994 546.029 666.047 554.185 397.241-651.975 107.53-179.296 109.02 415.642"/><path d="m-1094.23-193.305 380.886-695.998 565.256 529.877 660.227 544.532 394.625-633.77 110.126-182.221 113.41 418.263"/><path d="m-1094.46-183.494 380.942-674.827 564.539 513.736 654.387 534.868 392.007-615.552 112.735-185.134 117.82 420.872"/><path d="m-1094.69-173.684 381.013-653.643 563.801 497.584 648.566 525.202 389.381-597.347 115.349-188.047 122.2 423.493"/><path d="m-1094.93-163.873 381.089-632.473 563.063 481.445 642.737 515.55 386.773-579.142 117.948-190.96 126.61 426.102"/><path d="m-1095.16-154.075 381.159-611.276 562.336 465.292 636.896 505.886 384.157-560.924 120.565-193.886 130.987 428.723"/><path d="m-1095.38-144.264 381.207-590.091 561.609 449.139 631.076 496.22 381.529-542.706 123.172-196.799 135.397 431.3316"/><path d="m-1095.61-134.453 381.273-568.921 560.881 433 625.236 486.568 378.923-524.501 125.768-199.725 139.789 433.9531"/><path d="m-1095.84-124.643 381.344-547.737 560.143 416.847 619.416 476.903 376.295-506.283 128.385-202.637 144.187 436.5609"/><path d="m-1096.08-114.832 381.42-526.566 559.406 400.694 613.585 467.264 373.678-488.091 130.993-205.55 148.588 439.1824"/><path d="m-1096.31-105.021 381.48-505.382 558.689 384.541 607.745 457.599 371.071-469.872 133.589-208.477 152.986 441.80425"/><path d="m-1096.53-95.2102 381.538-484.2118 557.951 368.402 601.925 447.934 368.444-451.655 136.206-211.389 157.376 444.4127"/><path d="m-1096.77-85.399 381.615-463.028 557.223 352.249 596.085 438.282 365.827-433.449 138.813-214.315 161.777 447.0336"/><path d="m-1097-75.5888 381.685-441.8442 556.485 336.097 590.265 428.617 363.21-415.232 141.41-217.228 166.175 449.6424"/><path d="m-1097.23-65.778 381.741-420.673 555.758 319.957 584.434 418.951 360.594-397.013 144.027-220.154 170.556 452.2639"/><path d="m-1097.46-55.9669 381.811-399.4891 555.031 303.804 578.594 409.3 357.976-378.822 146.634-223.053 174.964 454.872"/><path d="m-1097.68-46.1561 381.869-378.3189 554.293 287.665 572.774 399.635 355.349-360.6037 149.241-225.9793 179.364 457.493"/><path d="m-1097.91-36.3459 381.94-357.1341 553.565 271.511 566.934 389.97 352.742-342.3853 151.847-228.8927 183.762 460.102"/><path d="m-1098.15-26.5347 382.006-335.9503 552.838 255.359 561.113 380.317 350.115-324.1799 154.455-231.8181 188.153 462.723"/><path d="m-1098.38-16.7372 382.076-314.7668 552.1 239.2064 555.284 370.6656 347.497-305.9619 157.062-234.7311 192.561 465.331"/><path d="m-1098.61-6.92598 382.142-293.58302 551.373 223.0537 549.443 361.0143 344.891-287.75755 159.669-237.65745 196.942 467.953"/><path d="m-1098.84 2.88475 382.21-272.41175 550.636 206.9137 543.623 351.3483 342.263-269.5519 162.276-240.5571 201.352 470.562"/><path d="m-1099.07 12.695 382.27-251.228 549.918 190.761 537.783 341.684 339.647-251.3344 164.882-243.4826 205.74 473.183"/><path d="m-1099.3 22.5057 382.337-230.0577 549.18 174.622 531.963 332.032 337.029-233.1295 167.49-246.4085 210.141 475.804"/><path d="m-1099.53 32.3169 382.407-208.8739 548.443 158.4694 526.132 322.3666 334.413-214.9112 170.096-249.3218 214.539 478.426"/><path d="m-1099.77 42.1281 382.483-187.6901 547.716 142.31675 520.292 312.70125 331.795-196.693 172.704-252.247 218.94 481.047"/><path d="m-1099.99 51.9381 382.531-166.5191 546.988 126.177 514.472 303.049 329.179-178.487 175.31-255.161 223.33 483.656"/><path d="m-1100.22 61.7497 382.602-145.335 546.26 110.0241 508.631 293.3842 326.562-160.283 177.917-258.0732 227.718 486.2772"/><path d="m-1100.45 71.5597 382.668-124.1642 545.523 93.8712 502.811 283.7323 323.935-142.065 180.524-260.9858 232.129 488.8858"/><path d="m-1100.68 81.3713 382.738-102.9804 544.785 77.7186 496.982 274.0805 321.327-123.86 183.131-263.912 236.517 491.507"/><path d="m-1100.92 91.1814 382.804-81.80969 544.068 61.57909 491.141 264.4152 318.711-105.642 185.737-266.8246 240.919 494.1156"/><path d="m-1101.14 100.993 382.862-60.6259 543.33 45.4263 485.321 254.7636 316.084-87.437 188.345-269.7509 245.308 496.7369"/><path d="m-1101.37 110.804 382.933-39.4419 542.602 29.2739 479.481 245.098 313.476-69.219 190.952-272.66344 249.706 499.34544"/><path d="m-1101.61 120.614 383.009-18.271 541.865 13.134 473.66 235.433 310.85-51.013 193.558-275.5767 254.108 501.9667"/><path d="m-1101.84 130.412 383.069 2.926 541.137-3.019 467.831 225.781 308.232-32.808 196.176-278.5029 258.495 504.5879"/><path d="m-1102.07 140.223 383.136 24.097 540.409-19.159 461.99 216.116 305.616-14.59 198.782-281.4155 262.897 507.1965"/><path d="m-1102.29 150.033 383.197 45.281 539.673-35.311 456.17 206.451 302.998 3.628 201.379-284.3418 267.303 509.8178"/><path d="m-1102.52 159.844 383.264 66.465 538.944-51.464 450.33 196.799 300.382 21.833 203.996-287.254 271.684 512.426"/><path d="m-1102.75 169.655 383.324 87.635 538.217-67.616 444.51 187.147 297.754 40.051 206.603-290.181 276.092 515.048"/><path d="m-1102.99 179.466 383.4 108.819 537.48-83.769 438.679 177.482 295.148 58.255 209.199-293.079 280.484 517.656"/><path d="m-1103.22 189.277 383.471 129.99 536.752-99.909 432.839 167.83 292.53 76.46 211.817-296.005 284.881 520.277"/><path d="m-1103.44 199.088 383.529 151.173 536.014-116.061 427.019 158.164 289.903 94.679 214.424-298.918 289.281 522.886"/><path d="m-1103.68 208.898 383.595 172.345 535.297-132.201 421.178 148.512 287.297 112.884 217.02-301.844 293.673 525.507"/><path d="m-1103.91 218.709 383.665 193.528 534.559-148.353 415.359 138.847 284.669 131.102 219.638-304.757 298.07 528.115"/><path d="m-1104.14 228.52 383.731 214.712 533.822-164.506 409.529 129.182 282.052 149.32 222.244-307.683 302.462 530.736"/><path d="m-1104.37 238.33 383.802 235.883 533.094-180.646 403.688 119.53 279.445 167.512 224.841-310.596 306.87 533.359"/><path d="m-1104.59 248.141 383.85 257.067 532.366-196.799 397.868 109.865 276.818 185.73 227.459-313.509 311.249 535.967"/><path d="m-1104.83 257.953 383.926 278.238 531.629-212.952 392.038 100.214 274.201 203.948 230.065-316.435 315.661 538.588"/><path d="m-1105.06 267.75 383.996 299.435 530.902-229.104 386.207 90.561 271.584 222.153 232.663-319.348 320.058 541.197"/><path d="m-1105.29 277.561 384.063 320.618 530.163-245.257 380.378 80.897 268.967 240.371 235.279-322.274 324.45 543.818"/><path d="m-1105.52 287.371 384.123 341.79 529.446-261.397 374.537 71.231 266.35 258.59 237.887-325.187 328.847 546.426"/><path d="m-1105.75 297.182 384.191 362.973 528.709-277.549 368.717 61.579 263.732 276.781 240.483-328.099 333.248 549.061"/><path d="m-1105.98 306.992 384.257 384.144 527.971-293.688 362.887 51.913 261.116 295 243.1-331.012 337.639 551.669"/><path d="m-1106.21 316.805 384.327 405.328 527.244-309.842 357.057 42.262 258.489 313.205 245.707-333.939 342.046 554.291"/><path d="m-1106.45 326.615 384.394 426.499 526.516-325.981 351.226 32.597 255.872 331.422 248.314-336.851 346.438 556.899"/><path d="m-1106.68 336.426 384.464 447.682 525.788-342.133 345.387 22.931 253.264 349.641 250.921-339.777 350.826 559.52"/><path d="m-1106.9 346.236 384.522 468.867 525.051-358.287 339.566 13.28 250.638 367.846 253.527-342.703 355.226 562.141"/><path d="m-1107.13 356.047 384.592 490.037 524.314-374.439 333.735 3.628 248.021 386.05 256.135-345.602 359.623 564.749"/><path d="m-1107.36 365.857 384.658 511.222 523.586-390.592 327.906-6.038 245.404 404.269 258.741-348.529 364.019 567.371"/><path d="m-1107.59 375.668 384.719 532.392 522.858-406.732 322.076-15.689 242.786 422.474 261.349-351.442 368.414 569.979"/><path d="m-1107.83 385.48 384.795 553.576 522.131-422.884 316.235-25.355 240.17 440.693 263.955-354.368 372.819 572.598"/><path d="m-1108.05 395.291 384.853 574.76 521.393-439.037 310.415-35.02 237.553 458.91 266.562-357.28 377.205 575.206"/><path d="m-1108.28 405.088 384.923 595.942 520.656-455.175 304.585-44.671 234.935 477.115 269.17-360.207 381.61 577.828"/><path d="m-1108.52 414.898 384.989 617.132 519.939-471.333 298.7544-54.337 232.3086 495.32 271.776-363.106 386.006 580.436"/><path d="m-1108.75 424.709 385.06 638.301 519.2-487.472 292.925-63.988 229.702 513.52 274.383-366.027 390.401 583.057"/><path d="m-1108.98 434.52 385.126 659.48 518.473-503.62 287.0844-73.654 227.0846 531.744 276.99-368.945 394.796 585.665"/><path d="m-1109.21 444.332 385.196 680.658 517.736-519.779 281.2639-83.306 224.4571 549.965 279.607-371.874 399.192 588.294"/><path d="m-1109.43 454.143 385.244 701.837 517.008-535.928 275.4341-92.957 221.8509 568.165 282.203-374.796 403.588 590.916"/><path d="m-1109.67 463.953 385.32 723.017 516.281-552.076 269.6037-102.623 219.2233 586.389 284.811-377.714 407.982 593.524"/><path d="m-1109.9 473.764 385.391 744.196 515.543-568.224 263.7732-112.288 216.6068 604.602 287.427-380.635 412.378 596.145"/><path d="m-1110.13 483.574 385.457 765.376 514.815-584.372 257.9336-121.94 213.9994 622.792 290.025-383.533 416.772 598.753"/><path d="m-1110.36 493.385 385.517 786.545 514.088-600.511 252.1131-131.605 211.3729 641.016 292.631-386.464 421.178 601.374"/><path d="m-1110.59 503.195 385.585 807.735 513.35-616.669 246.2834-141.27 208.7556 659.229 295.248-389.373 425.564 603.983"/><path d="m-1110.82 513.006 385.652 828.914 512.622-632.817 240.453-150.922 206.128 677.439 297.856-392.304 429.969 606.604"/><path d="m-1111.05 522.818 385.722 850.082 511.885-648.953 234.6224-160.588 203.5216 695.651 300.452-395.21 434.365 609.21"/><path d="m-1111.29 532.629 385.788 871.271 511.168-665.112 228.7822-170.239 200.9038 713.861 303.07-398.141 438.76 611.831"/><path d="m-1111.52 542.439 385.858 892.441 510.431-681.263 222.96166-179.892 198.27734 732.065 305.676-401.039 443.156 614.439"/><path d="m-1111.74 552.236 385.916 913.634 509.693-697.412 217.13175-189.556 195.67025 750.278 308.273-403.961 447.561 617.061"/><path d="m-1111.97 562.047 385.983 934.803 508.965-713.55 211.30135-199.209 193.04365 768.489 310.889-406.892 451.947 619.692"/><path d="m-1112.2 571.859 386.043 955.991 508.237-729.707 205.4717-208.873 190.4263 786.7 313.497-409.798 456.352 622.308"/><path d="m-1112.44 581.67 386.119 977.17 507.51-745.855 199.6314-218.538 187.8196 804.923 316.093-412.73 460.747 624.93"/><path d="m-1112.67 591.48 386.189 998.35 506.773-762.003 193.8109-228.191 185.1921 823.124 318.711-415.64 465.132 627.54"/></g><g clip-path="url(#c)"><path d="m40.9695 45.3776c.8826.495 1.5757 1.176 2.0794 2.0432.5036.8678.7552 1.8298.7552 2.8867s-.2516 2.0401-.7552 2.9073c-.5037.8672-1.1968 1.5488-2.0794 2.0431-.8831.4949-1.8696.7421-2.9588.7421-1.0891 0-2.0313-.2405-2.9071-.7215-.8764-.4811-1.5695-1.1488-2.0793-2.0027-.5105-.8538-.7725-1.8026-.786-2.8462v-9.8199c0-.1897.0584-.3384.1759-.4471.1168-.1082.2657-.1626.4446-.1626.1931 0 .3444.0544.4551.1626.1101.1087.1655.2574.1655.4471v6.3434c.4551-.718 1.0793-1.2842 1.8727-1.6975.7927-.4134 1.6789-.62 2.6586-.62 1.0898 0 2.0757.2471 2.9588.742zm-.6414 8.8844c.6894-.3994 1.2343-.9457 1.6347-1.6364.3997-.6913.6002-1.4636.6002-2.3181s-.1999-1.6262-.6002-2.3175c-.4004-.6913-.9447-1.2327-1.6347-1.6261-.6901-.3928-1.4619-.5898-2.3174-.5898-.8554 0-1.6279.1964-2.3173.5898-.6901.3934-1.2313.9348-1.6242 1.6261-.393.6913-.5898 1.4636-.5898 2.3175s.1968 1.6268.5898 2.3181c.3929.6913.9341 1.237 1.6242 1.6364.6894.4001 1.4619.5995 2.3173.5995.8555 0 1.6273-.2 2.3174-.5995z" fill="#fff"/><path d="m52.2403 51.1309h-4.9551v4.8688h4.9551z" fill="#f7931e"/></g><path d="m54.2133 131.85v9h21.9v13.35h-21.9v16.8h-17.7v-52.5h42.675v13.35zm53.0667 25.95h-4.8v13.2h-17.7001v-52.5h25.2751c4.85 0 9.075.8 12.675 2.4s6.375 3.9 8.325 6.9 2.925 6.5 2.925 10.5c0 3.75-.85 7.025-2.55 9.825s-4.15 5.025-7.35 6.675l11.025 16.2h-18.9zm8.85-19.5c0-1.95-.6-3.45-1.8-4.5-1.2-1.1-3-1.65-5.4-1.65h-6.45v12.3h6.45c2.4 0 4.2-.525 5.4-1.575 1.2-1.1 1.8-2.625 1.8-4.575zm52.059 33.9c-5.65 0-10.725-1.175-15.225-3.525s-8.025-5.6-10.575-9.75c-2.55-4.2-3.825-8.925-3.825-14.175s1.275-9.95 3.825-14.1c2.55-4.2 6.075-7.475 10.575-9.825s9.575-3.525 15.225-3.525 10.725 1.175 15.225 3.525 8.025 5.625 10.575 9.825c2.55 4.15 3.825 8.85 3.825 14.1s-1.275 9.975-3.825 14.175c-2.55 4.15-6.075 7.4-10.575 9.75s-9.575 3.525-15.225 3.525zm0-14.325c2.2 0 4.175-.525 5.925-1.575 1.8-1.1 3.225-2.625 4.275-4.575 1.05-2 1.575-4.325 1.575-6.975s-.525-4.95-1.575-6.9c-1.05-2-2.475-3.525-4.275-4.575-1.75-1.1-3.725-1.65-5.925-1.65s-4.2.55-6 1.65c-1.75 1.05-3.15 2.575-4.2 4.575-1.05 1.95-1.575 4.25-1.575 6.9s.525 4.975 1.575 6.975c1.05 1.95 2.45 3.475 4.2 4.575 1.8 1.05 3.8 1.575 6 1.575zm82.924 13.125-.15-23.925-11.4 19.2h-7.8l-11.4-18.375v23.1h-16.125v-52.5h14.55l17.1 27.975 16.65-27.975h14.55l.15 52.5zm-203.1997 89.225h-15.375v-13.725h48.45v13.725h-15.375v38.775h-17.7zm64.4647 39.975c-5.65 0-10.725-1.175-15.2249-3.525-4.5-2.35-8.025-5.6-10.575-9.75-2.55-4.2-3.825-8.925-3.825-14.175s1.275-9.95 3.825-14.1c2.55-4.2 6.075-7.475 10.575-9.825 4.4999-2.35 9.5749-3.525 15.2249-3.525s10.725 1.175 15.225 3.525 8.025 5.625 10.575 9.825c2.55 4.15 3.825 8.85 3.825 14.1s-1.275 9.975-3.825 14.175c-2.55 4.15-6.075 7.4-10.575 9.75s-9.575 3.525-15.225 3.525zm0-14.325c2.2 0 4.175-.525 5.925-1.575 1.8-1.1 3.225-2.625 4.275-4.575 1.05-2 1.575-4.325 1.575-6.975s-.525-4.95-1.575-6.9c-1.05-2-2.475-3.525-4.275-4.575-1.75-1.1-3.725-1.65-5.925-1.65s-4.2.55-6 1.65c-1.75 1.05-3.15 2.575-4.2 4.575-1.05 1.95-1.575 4.25-1.575 6.9s.525 4.975 1.575 6.975c1.05 1.95 2.45 3.475 4.2 4.575 1.8 1.05 3.8 1.575 6 1.575zm94.31 3.975h-19.95l-3.525 9.15h-18l22.95-52.5h17.4l22.95 52.5h-18.3zm-4.875-12.75-5.1-13.2-5.1 13.2zm69.71-17.25v9h21.9v13.35h-21.9v16.8h-17.7v-52.5h42.675v13.35zm30.566-13.35h17.7v52.5h-17.7zm77.971 0v52.5h-14.55l-19.95-23.85v23.85h-17.25v-52.5h14.55l19.95 23.85v-23.85zm44.303 43.35h-19.95l-3.525 9.15h-18l22.95-52.5h17.4l22.95 52.5h-18.3zm-4.875-12.75-5.1-13.2-5.1 13.2zm29.525-30.6h17.7v38.775h23.7v13.725h-41.4zm-387.2247 64c4.85 0 9.075.8 12.675 2.4s6.375 3.9 8.325 6.9 2.925 6.5 2.925 10.5-.975 7.5-2.925 10.5-4.725 5.3-8.325 6.9-7.825 2.4-12.675 2.4h-7.575v12.9h-17.7v-52.5zm-1.125 25.95c2.4 0 4.2-.525 5.4-1.575 1.2-1.1 1.8-2.625 1.8-4.575s-.6-3.45-1.8-4.5c-1.2-1.1-3-1.65-5.4-1.65h-6.45v12.3zm53.3547 13.35h-4.8v13.2h-17.6998v-52.5h25.2748c4.85 0 9.075.8 12.675 2.4s6.375 3.9 8.325 6.9 2.925 6.5 2.925 10.5c0 3.75-.85 7.025-2.55 9.825s-4.15 5.025-7.35 6.675l11.025 16.2h-18.9zm8.85-19.5c0-1.95-.6-3.45-1.8-4.5-1.2-1.1-3-1.65-5.4-1.65h-6.45v12.3h6.45c2.4 0 4.2-.525 5.4-1.575 1.2-1.1 1.8-2.625 1.8-4.575zm52.059 33.9c-5.65 0-10.725-1.175-15.225-3.525s-8.025-5.6-10.575-9.75c-2.55-4.2-3.825-8.925-3.825-14.175s1.275-9.95 3.825-14.1c2.55-4.2 6.075-7.475 10.575-9.825s9.575-3.525 15.225-3.525 10.725 1.175 15.225 3.525 8.025 5.625 10.575 9.825c2.55 4.15 3.825 8.85 3.825 14.1s-1.275 9.975-3.825 14.175c-2.55 4.15-6.075 7.4-10.575 9.75s-9.575 3.525-15.225 3.525zm0-14.325c2.2 0 4.175-.525 5.925-1.575 1.8-1.1 3.225-2.625 4.275-4.575 1.05-2 1.575-4.325 1.575-6.975s-.525-4.95-1.575-6.9c-1.05-2-2.475-3.525-4.275-4.575-1.75-1.1-3.725-1.65-5.925-1.65s-4.2.55-6 1.65c-1.75 1.05-3.15 2.575-4.2 4.575-1.05 1.95-1.575 4.25-1.575 6.9s.525 4.975 1.575 6.975c1.05 1.95 2.45 3.475 4.2 4.575 1.8 1.05 3.8 1.575 6 1.575zm36.049-39.375h25.875c5.85 0 11 1.075 15.45 3.225 4.5 2.1 7.975 5.125 10.425 9.075 2.5 3.95 3.75 8.6 3.75 13.95s-1.25 10-3.75 13.95c-2.45 3.95-5.925 7-10.425 9.15-4.45 2.1-9.6 3.15-15.45 3.15h-25.875zm25.125 38.7c3.8 0 6.825-1.075 9.075-3.225 2.3-2.2 3.45-5.275 3.45-9.225s-1.15-7-3.45-9.15c-2.25-2.2-5.275-3.3-9.075-3.3h-7.425v24.9zm61.963 15c-8.05 0-14.325-2.175-18.825-6.525s-6.75-10.45-6.75-18.3v-28.875h17.7v28.35c0 3.85.675 6.65 2.025 8.4 1.4 1.75 3.4 2.625 6 2.625s4.575-.875 5.925-2.625c1.4-1.75 2.1-4.55 2.1-8.4v-28.35h17.4v28.875c0 7.85-2.25 13.95-6.75 18.3s-10.775 6.525-18.825 6.525zm60.839 0c-5.55 0-10.55-1.15-15-3.45-4.45-2.35-7.95-5.6-10.5-9.75-2.5-4.2-3.75-8.95-3.75-14.25s1.25-10.025 3.75-14.175c2.55-4.2 6.05-7.45 10.5-9.75 4.45-2.35 9.45-3.525 15-3.525 5.1 0 9.65.9 13.65 2.7s7.3 4.4 9.9 7.8l-11.175 9.975c-3.25-4.1-7.075-6.15-11.475-6.15-3.7 0-6.675 1.2-8.925 3.6-2.25 2.35-3.375 5.525-3.375 9.525s1.125 7.2 3.375 9.6c2.25 2.35 5.225 3.525 8.925 3.525 4.4 0 8.225-2.05 11.475-6.15l11.175 9.975c-2.6 3.4-5.9 6-9.9 7.8s-8.55 2.7-13.65 2.7zm39.694-39.975h-15.375v-13.725h48.45v13.725h-15.375v38.775h-17.7z" fill="#fff"/><path d="m83.3883 235-.15-23.925-11.4 19.2h-7.8l-11.4-18.375v23.1h-16.125v-52.5h14.55l17.1 27.975 16.65-27.975h14.55l.15 52.5zm80.7827-52.5-22.2 52.5h-17.4l-22.2-52.5h19.05l12.525 30.675 12.825-30.675zm27.036 0c4.85 0 9.075.8 12.675 2.4s6.375 3.9 8.325 6.9 2.925 6.5 2.925 10.5-.975 7.5-2.925 10.5-4.725 5.3-8.325 6.9-7.825 2.4-12.675 2.4h-7.575v12.9h-17.7v-52.5zm-1.125 25.95c2.4 0 4.2-.525 5.4-1.575 1.2-1.1 1.8-2.625 1.8-4.575s-.6-3.45-1.8-4.5c-1.2-1.1-3-1.65-5.4-1.65h-6.45v12.3z" fill="#f7931e"/><g fill="#fff"><path d="m37.2243 508.764h5.544v3.204h-5.544zm.288 7.236h-4.248v-12.6h10.242v3.204h-5.994zm7.336 0v-12.6h6.066c1.176 0 2.19.192 3.042.576.864.384 1.53.936 1.998 1.656.468.708.702 1.548.702 2.52s-.234 1.812-.702 2.52c-.468.696-1.134 1.23-1.998 1.602-.852.372-1.866.558-3.042.558h-3.708l1.89-1.746v4.914zm7.542 0-3.096-4.59h4.5l3.132 4.59zm-3.294-4.446-1.89-1.926h3.438c.588 0 1.02-.132 1.296-.396.288-.264.432-.624.432-1.08s-.144-.816-.432-1.08c-.276-.264-.708-.396-1.296-.396h-3.438l1.89-1.926zm13.0521-3.474h5.616v3.06h-5.616zm.288 4.716h6.3v3.204h-10.476v-12.6h10.242v3.204h-6.066zm11.8233-4.716h5.616v3.06h-5.616zm.288 4.716h6.3v3.204h-10.476v-12.6h10.242v3.204h-6.066zm17.2198-4.716h5.616v3.06h-5.616zm.288 4.716h6.3v3.204h-10.476v-12.6h10.242v3.204h-6.066zm7.9353 3.204v-12.6h6.7322c1.74 0 3.024.312 3.852.936.828.612 1.242 1.398 1.242 2.358 0 .636-.18 1.206-.54 1.71-.348.492-.858.882-1.53 1.17s-1.5.432-2.484.432l.36-.972c.984 0 1.83.138 2.538.414.72.276 1.272.678 1.656 1.206.396.516.594 1.14.594 1.872 0 1.092-.456 1.944-1.368 2.556-.9.612-2.22.918-3.96.918zm4.1762-2.97h2.556c.468 0 .816-.084 1.044-.252.24-.168.36-.414.36-.738s-.12-.57-.36-.738c-.228-.168-.576-.252-1.044-.252h-2.844v-2.808h2.268c.48 0 .828-.078 1.044-.234.228-.168.342-.402.342-.702 0-.312-.114-.546-.342-.702-.216-.156-.564-.234-1.044-.234h-1.98zm16.352 3.258c-1.02 0-1.968-.162-2.844-.486-.864-.324-1.614-.78-2.25-1.368-.636-.6-1.134-1.302-1.494-2.106-.348-.804-.522-1.68-.522-2.628 0-.96.174-1.836.522-2.628.36-.804.858-1.5 1.494-2.088.636-.6 1.386-1.062 2.25-1.386.876-.324 1.824-.486 2.844-.486 1.032 0 1.98.162 2.844.486s1.614.786 2.25 1.386c.636.588 1.128 1.284 1.476 2.088.36.792.54 1.668.54 2.628 0 .948-.18 1.824-.54 2.628-.348.804-.84 1.506-1.476 2.106-.636.588-1.386 1.044-2.25 1.368s-1.812.486-2.844.486zm0-3.438c.396 0 .762-.072 1.098-.216.348-.144.648-.348.9-.612.264-.276.468-.606.612-.99.144-.396.216-.84.216-1.332s-.072-.93-.216-1.314c-.144-.396-.348-.726-.612-.99-.252-.276-.552-.486-.9-.63-.336-.144-.702-.216-1.098-.216s-.768.072-1.116.216c-.336.144-.636.354-.9.63-.252.264-.45.594-.594.99-.144.384-.216.822-.216 1.314s.072.936.216 1.332c.144.384.342.714.594.99.264.264.564.468.9.612.348.144.72.216 1.116.216zm15.258 3.438c-1.02 0-1.968-.162-2.844-.486-.864-.324-1.614-.78-2.25-1.368-.636-.6-1.134-1.302-1.494-2.106-.348-.804-.522-1.68-.522-2.628 0-.96.174-1.836.522-2.628.36-.804.858-1.5 1.494-2.088.636-.6 1.386-1.062 2.25-1.386.876-.324 1.824-.486 2.844-.486 1.032 0 1.98.162 2.844.486s1.614.786 2.25 1.386c.636.588 1.128 1.284 1.476 2.088.36.792.54 1.668.54 2.628 0 .948-.18 1.824-.54 2.628-.348.804-.84 1.506-1.476 2.106-.636.588-1.386 1.044-2.25 1.368s-1.812.486-2.844.486zm0-3.438c.396 0 .762-.072 1.098-.216.348-.144.648-.348.9-.612.264-.276.468-.606.612-.99.144-.396.216-.84.216-1.332s-.072-.93-.216-1.314c-.144-.396-.348-.726-.612-.99-.252-.276-.552-.486-.9-.63-.336-.144-.702-.216-1.098-.216s-.768.072-1.116.216c-.336.144-.636.354-.9.63-.252.264-.45.594-.594.99-.144.384-.216.822-.216 1.314s.072.936.216 1.332c.144.384.342.714.594.99.264.264.564.468.9.612.348.144.72.216 1.116.216zm12.449.45-.234-4.662 4.752-5.238h4.626l-5.328 5.868-2.358 2.412zm-3.798 2.7v-12.6h4.176v12.6zm8.28 0-3.708-4.896 2.754-2.916 5.868 7.812zm14.841-7.236h5.544v3.204h-5.544zm.288 7.236h-4.248v-12.6h10.242v3.204h-5.994zm13.854.288c-1.02 0-1.968-.162-2.844-.486-.864-.324-1.614-.78-2.25-1.368-.636-.6-1.134-1.302-1.494-2.106-.348-.804-.522-1.68-.522-2.628 0-.96.174-1.836.522-2.628.36-.804.858-1.5 1.494-2.088.636-.6 1.386-1.062 2.25-1.386.876-.324 1.824-.486 2.844-.486 1.032 0 1.98.162 2.844.486s1.614.786 2.25 1.386c.636.588 1.128 1.284 1.476 2.088.36.792.54 1.668.54 2.628 0 .948-.18 1.824-.54 2.628-.348.804-.84 1.506-1.476 2.106-.636.588-1.386 1.044-2.25 1.368s-1.812.486-2.844.486zm0-3.438c.396 0 .762-.072 1.098-.216.348-.144.648-.348.9-.612.264-.276.468-.606.612-.99.144-.396.216-.84.216-1.332s-.072-.93-.216-1.314c-.144-.396-.348-.726-.612-.99-.252-.276-.552-.486-.9-.63-.336-.144-.702-.216-1.098-.216s-.768.072-1.116.216c-.336.144-.636.354-.9.63-.252.264-.45.594-.594.99-.144.384-.216.822-.216 1.314s.072.936.216 1.332c.144.384.342.714.594.99.264.264.564.468.9.612.348.144.72.216 1.116.216zm8.651 3.15v-12.6h6.066c1.176 0 2.19.192 3.042.576.864.384 1.53.936 1.998 1.656.468.708.702 1.548.702 2.52s-.234 1.812-.702 2.52c-.468.696-1.134 1.23-1.998 1.602-.852.372-1.866.558-3.042.558h-3.708l1.89-1.746v4.914zm7.542 0-3.096-4.59h4.5l3.132 4.59zm-3.294-4.446-1.89-1.926h3.438c.588 0 1.02-.132 1.296-.396.288-.264.432-.624.432-1.08s-.144-.816-.432-1.08c-.276-.264-.708-.396-1.296-.396h-3.438l1.89-1.926zm19.259 4.734c-1.056 0-2.076-.12-3.06-.36s-1.794-.552-2.43-.936l1.368-3.096c.6.348 1.266.63 1.998.846.744.204 1.464.306 2.16.306.408 0 .726-.024.954-.072.24-.06.414-.138.522-.234.108-.108.162-.234.162-.378 0-.228-.126-.408-.378-.54s-.588-.24-1.008-.324c-.408-.096-.858-.192-1.35-.288-.492-.108-.99-.246-1.494-.414-.492-.168-.948-.39-1.368-.666-.408-.276-.738-.636-.99-1.08-.252-.456-.378-1.02-.378-1.692 0-.78.216-1.488.648-2.124.444-.648 1.098-1.164 1.962-1.548.876-.384 1.962-.576 3.258-.576.852 0 1.692.09 2.52.27s1.572.456 2.232.828l-1.278 3.078c-.624-.312-1.23-.546-1.818-.702-.576-.156-1.14-.234-1.692-.234-.408 0-.732.036-.972.108s-.414.168-.522.288c-.096.12-.144.252-.144.396 0 .216.126.39.378.522.252.12.582.222.99.306.42.084.876.174 1.368.27.504.096 1.002.228 1.494.396s.942.39 1.35.666c.42.276.756.636 1.008 1.08s.378.996.378 1.656c0 .768-.222 1.476-.666 2.124-.432.636-1.08 1.152-1.944 1.548-.864.384-1.95.576-3.258.576zm9.692-.288v-9.306h-3.69v-3.294h11.628v3.294h-3.69v9.306zm7.041 0 5.508-12.6h4.176l5.508 12.6h-4.392l-4.068-10.584h1.656l-4.068 10.584zm3.276-2.196 1.08-3.06h5.796l1.08 3.06zm12.594 2.196v-12.6h6.066c1.176 0 2.19.192 3.042.576.864.384 1.53.936 1.998 1.656.468.708.702 1.548.702 2.52s-.234 1.812-.702 2.52c-.468.696-1.134 1.23-1.998 1.602-.852.372-1.866.558-3.042.558h-3.708l1.89-1.746v4.914zm7.542 0-3.096-4.59h4.5l3.132 4.59zm-3.294-4.446-1.89-1.926h3.438c.588 0 1.02-.132 1.296-.396.288-.264.432-.624.432-1.08s-.144-.816-.432-1.08c-.276-.264-.708-.396-1.296-.396h-3.438l1.89-1.926zm11.724 4.446v-9.306h-3.69v-3.294h11.628v3.294h-3.69v9.306zm14.896.288c-1.932 0-3.438-.522-4.518-1.566s-1.62-2.508-1.62-4.392v-6.93h4.248v6.804c0 .96.174 1.644.522 2.052.348.396.816.594 1.404.594.6 0 1.068-.198 1.404-.594.348-.408.522-1.092.522-2.052v-6.804h4.176v6.93c0 1.884-.54 3.348-1.62 4.392s-2.586 1.566-4.518 1.566zm8.085-.288v-12.6h6.066c1.176 0 2.19.192 3.042.576.864.384 1.53.936 1.998 1.656.468.708.702 1.548.702 2.52s-.234 1.812-.702 2.52-1.134 1.26-1.998 1.656c-.852.384-1.866.576-3.042.576h-3.708l1.89-1.818v4.914zm4.248-4.446-1.89-1.926h3.438c.588 0 1.02-.132 1.296-.396.288-.264.432-.624.432-1.08s-.144-.816-.432-1.08c-.276-.264-.708-.396-1.296-.396h-3.438l1.89-1.926zm18.485-2.79h5.544v3.204h-5.544zm.288 7.236h-4.248v-12.6h10.242v3.204h-5.994zm13.854.288c-1.02 0-1.968-.162-2.844-.486-.864-.324-1.614-.78-2.25-1.368-.636-.6-1.134-1.302-1.494-2.106-.348-.804-.522-1.68-.522-2.628 0-.96.174-1.836.522-2.628.36-.804.858-1.5 1.494-2.088.636-.6 1.386-1.062 2.25-1.386.876-.324 1.824-.486 2.844-.486 1.032 0 1.98.162 2.844.486s1.614.786 2.25 1.386c.636.588 1.128 1.284 1.476 2.088.36.792.54 1.668.54 2.628 0 .948-.18 1.824-.54 2.628-.348.804-.84 1.506-1.476 2.106-.636.588-1.386 1.044-2.25 1.368s-1.812.486-2.844.486zm0-3.438c.396 0 .762-.072 1.098-.216.348-.144.648-.348.9-.612.264-.276.468-.606.612-.99.144-.396.216-.84.216-1.332s-.072-.93-.216-1.314c-.144-.396-.348-.726-.612-.99-.252-.276-.552-.486-.9-.63-.336-.144-.702-.216-1.098-.216s-.768.072-1.116.216c-.336.144-.636.354-.9.63-.252.264-.45.594-.594.99-.144.384-.216.822-.216 1.314s.072.936.216 1.332c.144.384.342.714.594.99.264.264.564.468.9.612.348.144.72.216 1.116.216zm14.682 3.438c-1.932 0-3.438-.522-4.518-1.566s-1.62-2.508-1.62-4.392v-6.93h4.248v6.804c0 .96.174 1.644.522 2.052.348.396.816.594 1.404.594.6 0 1.068-.198 1.404-.594.348-.408.522-1.092.522-2.052v-6.804h4.176v6.93c0 1.884-.54 3.348-1.62 4.392s-2.586 1.566-4.518 1.566zm8.085-.288v-12.6h3.492l6.408 7.668h-1.62v-7.668h4.14v12.6h-3.492l-6.408-7.668h1.62v7.668zm14.467 0v-12.6h6.21c1.404 0 2.64.258 3.708.774 1.068.504 1.902 1.224 2.502 2.16s.9 2.052.9 3.348c0 1.308-.3 2.436-.9 3.384-.6.936-1.434 1.662-2.502 2.178-1.068.504-2.304.756-3.708.756zm4.248-3.312h1.782c.6 0 1.122-.114 1.566-.342.456-.228.81-.564 1.062-1.008.252-.456.378-1.008.378-1.656 0-.636-.126-1.176-.378-1.62s-.606-.78-1.062-1.008c-.444-.228-.966-.342-1.566-.342h-1.782zm14.511-4.608h5.616v3.06h-5.616zm.288 4.716h6.3v3.204h-10.476v-12.6h10.242v3.204h-6.066zm7.936 3.204v-12.6h6.066c1.176 0 2.19.192 3.042.576.864.384 1.53.936 1.998 1.656.468.708.702 1.548.702 2.52s-.234 1.812-.702 2.52c-.468.696-1.134 1.23-1.998 1.602-.852.372-1.866.558-3.042.558h-3.708l1.89-1.746v4.914zm7.542 0-3.096-4.59h4.5l3.132 4.59zm-3.294-4.446-1.89-1.926h3.438c.588 0 1.02-.132 1.296-.396.288-.264.432-.624.432-1.08s-.144-.816-.432-1.08c-.276-.264-.708-.396-1.296-.396h-3.438l1.89-1.926zm13.862 4.734c-1.056 0-2.076-.12-3.06-.36s-1.794-.552-2.43-.936l1.368-3.096c.6.348 1.266.63 1.998.846.744.204 1.464.306 2.16.306.408 0 .726-.024.954-.072.24-.06.414-.138.522-.234.108-.108.162-.234.162-.378 0-.228-.126-.408-.378-.54s-.588-.24-1.008-.324c-.408-.096-.858-.192-1.35-.288-.492-.108-.99-.246-1.494-.414-.492-.168-.948-.39-1.368-.666-.408-.276-.738-.636-.99-1.08-.252-.456-.378-1.02-.378-1.692 0-.78.216-1.488.648-2.124.444-.648 1.098-1.164 1.962-1.548.876-.384 1.962-.576 3.258-.576.852 0 1.692.09 2.52.27s1.572.456 2.232.828l-1.278 3.078c-.624-.312-1.23-.546-1.818-.702-.576-.156-1.14-.234-1.692-.234-.408 0-.732.036-.972.108s-.414.168-.522.288c-.096.12-.144.252-.144.396 0 .216.126.39.378.522.252.12.582.222.99.306.42.084.876.174 1.368.27.504.096 1.002.228 1.494.396s.942.39 1.35.666c.42.276.756.636 1.008 1.08s.378.996.378 1.656c0 .768-.222 1.476-.666 2.124-.432.636-1.08 1.152-1.944 1.548-.864.384-1.95.576-3.258.576zm7.087 2.592 1.512-5.058.594 2.268c-.696 0-1.266-.198-1.71-.594-.444-.408-.666-.96-.666-1.656 0-.708.222-1.266.666-1.674.456-.42 1.026-.63 1.71-.63s1.248.21 1.692.63c.456.408.684.966.684 1.674 0 .192-.018.384-.054.576-.024.192-.084.426-.18.702-.096.264-.252.624-.468 1.08l-1.26 2.682zm-371.9137 13.408c-1.008 0-1.944-.156-2.808-.468-.852-.324-1.596-.78-2.232-1.368-.624-.588-1.11-1.284-1.458-2.088s-.522-1.692-.522-2.664.174-1.86.522-2.664.834-1.5 1.458-2.088c.636-.588 1.38-1.038 2.232-1.35.864-.324 1.8-.486 2.808-.486 1.236 0 2.328.216 3.276.648.96.432 1.752 1.056 2.376 1.872l-2.682 2.394c-.372-.468-.786-.828-1.242-1.08-.444-.264-.948-.396-1.512-.396-.444 0-.846.072-1.206.216s-.672.354-.936.63c-.252.276-.45.612-.594 1.008-.144.384-.216.816-.216 1.296s.072.918.216 1.314c.144.384.342.714.594.99.264.276.576.486.936.63s.762.216 1.206.216c.564 0 1.068-.126 1.512-.378.456-.264.87-.63 1.242-1.098l2.682 2.394c-.624.804-1.416 1.428-2.376 1.872-.948.432-2.04.648-3.276.648zm9.5266-.288v-9.306h-3.69v-3.294h11.628v3.294h-3.69v9.306zm15.4716.288c-1.02 0-1.968-.162-2.844-.486-.864-.324-1.614-.78-2.25-1.368-.636-.6-1.134-1.302-1.494-2.106-.348-.804-.522-1.68-.522-2.628 0-.96.174-1.836.522-2.628.36-.804.858-1.5 1.494-2.088.636-.6 1.386-1.062 2.25-1.386.876-.324 1.824-.486 2.844-.486 1.032 0 1.98.162 2.844.486s1.614.786 2.25 1.386c.636.588 1.128 1.284 1.476 2.088.36.792.54 1.668.54 2.628 0 .948-.18 1.824-.54 2.628-.348.804-.84 1.506-1.476 2.106-.636.588-1.386 1.044-2.25 1.368s-1.812.486-2.844.486zm0-3.438c.396 0 .762-.072 1.098-.216.348-.144.648-.348.9-.612.264-.276.468-.606.612-.99.144-.396.216-.84.216-1.332s-.072-.93-.216-1.314c-.144-.396-.348-.726-.612-.99-.252-.276-.552-.486-.9-.63-.336-.144-.702-.216-1.098-.216s-.768.072-1.116.216c-.336.144-.636.354-.9.63-.252.264-.45.594-.594.99-.144.384-.216.822-.216 1.314s.072.936.216 1.332c.144.384.342.714.594.99.264.264.564.468.9.612.348.144.72.216 1.116.216zm12.3778 3.33c-.84 0-1.668-.09-2.484-.27s-1.476-.414-1.98-.702l1.116-2.682c.468.276 1.008.492 1.62.648.624.156 1.23.234 1.818.234.492 0 .822-.042.99-.126.18-.084.27-.198.27-.342s-.102-.246-.306-.306c-.204-.072-.474-.126-.81-.162s-.708-.078-1.116-.126c-.396-.06-.798-.144-1.206-.252s-.78-.27-1.116-.486-.606-.504-.81-.864c-.204-.372-.306-.84-.306-1.404 0-.624.186-1.188.558-1.692.384-.504.948-.906 1.692-1.206.756-.312 1.686-.468 2.79-.468.72 0 1.44.066 2.16.198s1.338.336 1.854.612l-1.116 2.682c-.504-.276-1.002-.462-1.494-.558-.48-.108-.93-.162-1.35-.162-.516 0-.87.048-1.062.144-.18.096-.27.204-.27.324 0 .144.102.252.306.324s.474.126.81.162.702.084 1.098.144c.408.048.81.132 1.206.252.408.108.78.27 1.116.486s.606.51.81.882c.204.36.306.822.306 1.386 0 .588-.186 1.14-.558 1.656-.372.504-.936.912-1.692 1.224-.756.3-1.704.45-2.844.45zm16.5462.108c-1.008 0-1.908-.156-2.7-.468-.792-.324-1.416-.762-1.872-1.314s-.684-1.176-.684-1.872.15-1.308.45-1.836c.312-.54.786-1.02 1.422-1.44.648-.432 1.464-.834 2.448-1.206.6-.228 1.068-.438 1.404-.63.348-.192.594-.372.738-.54.144-.18.216-.354.216-.522 0-.192-.066-.348-.198-.468-.12-.12-.306-.18-.558-.18-.276 0-.492.072-.648.216-.144.132-.216.3-.216.504 0 .132.03.264.09.396.072.132.204.294.396.486.192.18.462.42.81.72l6.6245 5.634-2.1785 2.466-7.632-6.552c-.408-.336-.744-.672-1.008-1.008-.264-.348-.462-.696-.594-1.044s-.198-.696-.198-1.044c0-.672.186-1.26.558-1.764.384-.516.912-.918 1.584-1.206.684-.288 1.482-.432 2.394-.432.84 0 1.572.132 2.196.396.624.252 1.11.618 1.458 1.098s.522 1.044.522 1.692c0 .576-.15 1.098-.45 1.566-.288.468-.738.894-1.35 1.278-.6.384-1.362.75-2.286 1.098-.48.18-.87.366-1.17.558s-.516.396-.648.612c-.132.204-.198.438-.198.702 0 .192.06.372.18.54.132.168.312.3.54.396.24.096.528.144.864.144.648 0 1.254-.168 1.818-.504.576-.348 1.068-.846 1.476-1.494.42-.648.708-1.422.864-2.322l3.2585.972c-.276 1.236-.78 2.334-1.5125 3.294-.72.96-1.614 1.716-2.682 2.268-1.056.54-2.232.81-3.528.81zm14.6905-.288v-12.6h6.066c1.176 0 2.19.192 3.042.576.864.384 1.53.936 1.998 1.656.468.708.702 1.548.702 2.52s-.234 1.812-.702 2.52-1.134 1.26-1.998 1.656c-.852.384-1.866.576-3.042.576h-3.708l1.89-1.818v4.914zm4.248-4.446-1.89-1.926h3.438c.588 0 1.02-.132 1.296-.396.288-.264.432-.624.432-1.08s-.144-.816-.432-1.08c-.276-.264-.708-.396-1.296-.396h-3.438l1.89-1.926zm8.953 4.446v-12.6h6.066c1.176 0 2.19.192 3.042.576.864.384 1.53.936 1.998 1.656.468.708.702 1.548.702 2.52s-.234 1.812-.702 2.52c-.468.696-1.134 1.23-1.998 1.602-.852.372-1.866.558-3.042.558h-3.708l1.89-1.746v4.914zm7.542 0-3.096-4.59h4.5l3.132 4.59zm-3.294-4.446-1.89-1.926h3.438c.588 0 1.02-.132 1.296-.396.288-.264.432-.624.432-1.08s-.144-.816-.432-1.08c-.276-.264-.708-.396-1.296-.396h-3.438l1.89-1.926zm15.77 4.734c-1.02 0-1.968-.162-2.844-.486-.864-.324-1.614-.78-2.25-1.368-.636-.6-1.134-1.302-1.494-2.106-.348-.804-.522-1.68-.522-2.628 0-.96.174-1.836.522-2.628.36-.804.858-1.5 1.494-2.088.636-.6 1.386-1.062 2.25-1.386.876-.324 1.824-.486 2.844-.486 1.032 0 1.98.162 2.844.486s1.614.786 2.25 1.386c.636.588 1.128 1.284 1.476 2.088.36.792.54 1.668.54 2.628 0 .948-.18 1.824-.54 2.628-.348.804-.84 1.506-1.476 2.106-.636.588-1.386 1.044-2.25 1.368s-1.812.486-2.844.486zm0-3.438c.396 0 .762-.072 1.098-.216.348-.144.648-.348.9-.612.264-.276.468-.606.612-.99.144-.396.216-.84.216-1.332s-.072-.93-.216-1.314c-.144-.396-.348-.726-.612-.99-.252-.276-.552-.486-.9-.63-.336-.144-.702-.216-1.098-.216s-.768.072-1.116.216c-.336.144-.636.354-.9.63-.252.264-.45.594-.594.99-.144.384-.216.822-.216 1.314s.072.936.216 1.332c.144.384.342.714.594.99.264.264.564.468.9.612.348.144.72.216 1.116.216zm8.652 3.15v-12.6h6.21c1.404 0 2.64.258 3.708.774 1.068.504 1.902 1.224 2.502 2.16s.9 2.052.9 3.348c0 1.308-.3 2.436-.9 3.384-.6.936-1.434 1.662-2.502 2.178-1.068.504-2.304.756-3.708.756zm4.248-3.312h1.782c.6 0 1.122-.114 1.566-.342.456-.228.81-.564 1.062-1.008.252-.456.378-1.008.378-1.656 0-.636-.126-1.176-.378-1.62s-.606-.78-1.062-1.008c-.444-.228-.966-.342-1.566-.342h-1.782zm16.653 3.6c-1.932 0-3.438-.522-4.518-1.566s-1.62-2.508-1.62-4.392v-6.93h4.248v6.804c0 .96.174 1.644.522 2.052.348.396.816.594 1.404.594.6 0 1.068-.198 1.404-.594.348-.408.522-1.092.522-2.052v-6.804h4.176v6.93c0 1.884-.54 3.348-1.62 4.392s-2.586 1.566-4.518 1.566zm14.602 0c-1.008 0-1.944-.156-2.808-.468-.852-.324-1.596-.78-2.232-1.368-.624-.588-1.11-1.284-1.458-2.088s-.522-1.692-.522-2.664.174-1.86.522-2.664.834-1.5 1.458-2.088c.636-.588 1.38-1.038 2.232-1.35.864-.324 1.8-.486 2.808-.486 1.236 0 2.328.216 3.276.648.96.432 1.752 1.056 2.376 1.872l-2.682 2.394c-.372-.468-.786-.828-1.242-1.08-.444-.264-.948-.396-1.512-.396-.444 0-.846.072-1.206.216s-.672.354-.936.63c-.252.276-.45.612-.594 1.008-.144.384-.216.816-.216 1.296s.072.918.216 1.314c.144.384.342.714.594.99.264.276.576.486.936.63s.762.216 1.206.216c.564 0 1.068-.126 1.512-.378.456-.264.87-.63 1.242-1.098l2.682 2.394c-.624.804-1.416 1.428-2.376 1.872-.948.432-2.04.648-3.276.648zm9.526-.288v-9.306h-3.69v-3.294h11.628v3.294h-3.69v9.306zm21.044.288c-1.02 0-1.968-.162-2.844-.486-.864-.324-1.614-.78-2.25-1.368-.636-.6-1.134-1.302-1.494-2.106-.348-.804-.522-1.68-.522-2.628 0-.96.174-1.836.522-2.628.36-.804.858-1.5 1.494-2.088.636-.6 1.386-1.062 2.25-1.386.876-.324 1.824-.486 2.844-.486 1.032 0 1.98.162 2.844.486s1.614.786 2.25 1.386c.636.588 1.128 1.284 1.476 2.088.36.792.54 1.668.54 2.628 0 .948-.18 1.824-.54 2.628-.348.804-.84 1.506-1.476 2.106-.636.588-1.386 1.044-2.25 1.368s-1.812.486-2.844.486zm0-3.438c.396 0 .762-.072 1.098-.216.348-.144.648-.348.9-.612.264-.276.468-.606.612-.99.144-.396.216-.84.216-1.332s-.072-.93-.216-1.314c-.144-.396-.348-.726-.612-.99-.252-.276-.552-.486-.9-.63-.336-.144-.702-.216-1.098-.216s-.768.072-1.116.216c-.336.144-.636.354-.9.63-.252.264-.45.594-.594.99-.144.384-.216.822-.216 1.314s.072.936.216 1.332c.144.384.342.714.594.99.264.264.564.468.9.612.348.144.72.216 1.116.216zm11.398 3.15-4.032-12.6h4.374l3.258 10.638h-2.196l3.456-10.638h3.906l3.222 10.638h-2.106l3.402-10.638h4.032l-4.032 12.6h-4.554l-2.628-8.712h1.224l-2.772 8.712zm18.26 0v-12.6h3.492l6.408 7.668h-1.62v-7.668h4.14v12.6h-3.492l-6.408-7.668h1.62v7.668zm18.355-7.92h5.616v3.06h-5.616zm.288 4.716h6.3v3.204h-10.476v-12.6h10.242v3.204h-6.066zm7.935 3.204v-12.6h6.066c1.176 0 2.19.192 3.042.576.864.384 1.53.936 1.998 1.656.468.708.702 1.548.702 2.52s-.234 1.812-.702 2.52c-.468.696-1.134 1.23-1.998 1.602-.852.372-1.866.558-3.042.558h-3.708l1.89-1.746v4.914zm7.542 0-3.096-4.59h4.5l3.132 4.59zm-3.294-4.446-1.89-1.926h3.438c.588 0 1.02-.132 1.296-.396.288-.264.432-.624.432-1.08s-.144-.816-.432-1.08c-.276-.264-.708-.396-1.296-.396h-3.438l1.89-1.926zm13.862 4.734c-1.056 0-2.076-.12-3.06-.36s-1.794-.552-2.43-.936l1.368-3.096c.6.348 1.266.63 1.998.846.744.204 1.464.306 2.16.306.408 0 .726-.024.954-.072.24-.06.414-.138.522-.234.108-.108.162-.234.162-.378 0-.228-.126-.408-.378-.54s-.588-.24-1.008-.324c-.408-.096-.858-.192-1.35-.288-.492-.108-.99-.246-1.494-.414-.492-.168-.948-.39-1.368-.666-.408-.276-.738-.636-.99-1.08-.252-.456-.378-1.02-.378-1.692 0-.78.216-1.488.648-2.124.444-.648 1.098-1.164 1.962-1.548.876-.384 1.962-.576 3.258-.576.852 0 1.692.09 2.52.27s1.572.456 2.232.828l-1.278 3.078c-.624-.312-1.23-.546-1.818-.702-.576-.156-1.14-.234-1.692-.234-.408 0-.732.036-.972.108s-.414.168-.522.288c-.096.12-.144.252-.144.396 0 .216.126.39.378.522.252.12.582.222.99.306.42.084.876.174 1.368.27.504.096 1.002.228 1.494.396s.942.39 1.35.666c.42.276.756.636 1.008 1.08s.378.996.378 1.656c0 .768-.222 1.476-.666 2.124-.432.636-1.08 1.152-1.944 1.548-.864.384-1.95.576-3.258.576z"/><path d="m35.8883 676.04c-.52 0-.9867-.12-1.4-.36-.4134-.247-.74-.58-.98-1s-.3634-.893-.37-1.42v-4.56c0-.153.0466-.277.14-.37.1-.093.2233-.14.37-.14.1533 0 .2766.047.37.14.0933.093.14.217.14.37v2.7c.2333-.28.5133-.5.84-.66.3333-.167.6966-.25 1.09-.25.4866 0 .9233.123 1.31.37.3866.24.69.57.91.99.2266.413.34.883.34 1.41s-.1234 1-.37 1.42c-.24.42-.5667.753-.98 1-.4134.24-.8834.36-1.41.36zm0-.9c.34 0 .6433-.08.91-.24.2666-.167.4766-.393.63-.68.16-.287.24-.607.24-.96 0-.36-.08-.68-.24-.96-.1534-.28-.3634-.5-.63-.66-.2667-.167-.57-.25-.91-.25-.3334 0-.6367.083-.91.25-.2667.16-.4767.38-.63.66-.1534.28-.23.6-.23.96 0 .353.0766.673.23.96.1533.287.3633.513.63.68.2733.16.5766.24.91.24zm4.9585 3.26c-.0667 0-.1467-.02-.24-.06-.2933-.133-.3733-.343-.24-.63l3.05-6.89c.1333-.28.3433-.36.63-.24.3.127.3833.337.25.63l-3.06 6.88c-.08.207-.21.31-.39.31zm1.18-2.62c-.1267.053-.2467.06-.36.02-.1067-.047-.1933-.133-.26-.26l-2.29-4.35c-.0667-.127-.0767-.247-.03-.36.0533-.12.1433-.207.27-.26s.2467-.057.36-.01c.1133.04.2.123.26.25l2.19 4.35c.0667.127.09.25.07.37-.0133.113-.0833.197-.21.25zm8.9103.26c-.52 0-.9867-.12-1.4-.36-.4133-.247-.74-.58-.98-1s-.3633-.893-.37-1.42v-4.56c0-.153.0467-.277.14-.37.1-.093.2233-.14.37-.14.1533 0 .2767.047.37.14s.14.217.14.37v2.7c.2333-.28.5133-.5.84-.66.3333-.167.6967-.25 1.09-.25.4867 0 .9233.123 1.31.37.3867.24.69.57.91.99.2267.413.34.883.34 1.41s-.1233 1-.37 1.42c-.24.42-.5667.753-.98 1-.4133.24-.8833.36-1.41.36zm0-.9c.34 0 .6433-.08.91-.24.2667-.167.4767-.393.63-.68.16-.287.24-.607.24-.96 0-.36-.08-.68-.24-.96-.1533-.28-.3633-.5-.63-.66-.2667-.167-.57-.25-.91-.25-.3333 0-.6367.083-.91.25-.2667.16-.4767.38-.63.66s-.23.6-.23.96c0 .353.0767.673.23.96s.3633.513.63.68c.2733.16.5767.24.91.24zm4.7713-2.56c0-.4.0966-.757.29-1.07.2-.32.4666-.573.8-.76.3333-.187.7-.28 1.1-.28s.6966.067.89.2c.2.127.2766.28.23.46-.02.093-.06.167-.12.22-.0534.047-.1167.077-.19.09-.0734.013-.1534.01-.24-.01-.4267-.087-.81-.093-1.15-.02s-.61.21-.81.41c-.1934.2-.29.453-.29.76zm.01 3.42c-.16 0-.2834-.04-.37-.12-.0867-.087-.13-.213-.13-.38v-4.47c0-.16.0433-.283.13-.37.0866-.087.21-.13.37-.13.1666 0 .29.043.37.13.0866.08.13.203.13.37v4.47c0 .16-.0434.283-.13.37-.08.087-.2034.13-.37.13zm4.9732 0c-.1466 0-.27-.047-.37-.14-.0933-.1-.14-.223-.14-.37v-4.45c0-.153.0467-.277.14-.37.1-.093.2234-.14.37-.14.1534 0 .2767.047.37.14.0934.093.14.217.14.37v4.45c0 .147-.0466.27-.14.37-.0933.093-.2166.14-.37.14zm0-6.36c-.18 0-.3366-.063-.47-.19-.1266-.133-.19-.29-.19-.47s.0634-.333.19-.46c.1334-.133.29-.2.47-.2s.3334.067.46.2c.1334.127.2.28.2.46s-.0666.337-.2.47c-.1266.127-.28.19-.46.19zm4.6876 6.4c-.5 0-.9433-.117-1.33-.35-.38-.24-.68-.567-.9-.98-.22-.42-.33-.9-.33-1.44 0-.547.1167-1.027.35-1.44.24-.42.5667-.747.98-.98.4134-.24.89-.36 1.43-.36.5334 0 1.0067.12 1.42.36.4134.233.7367.56.97.98.24.413.36.893.36 1.44h-.59c0 .54-.1033 1.02-.31 1.44-.2.413-.4766.74-.83.98-.3533.233-.76.35-1.22.35zm.18 2.23c-.4733 0-.9166-.093-1.33-.28-.4133-.187-.7633-.46-1.05-.82-.0866-.113-.12-.23-.1-.35.0267-.12.0934-.217.2-.29.12-.08.2434-.107.37-.08.1334.027.24.093.32.2.18.227.4067.403.68.53.2734.127.5834.19.93.19.32 0 .6134-.077.88-.23.2734-.153.49-.38.65-.68s.24-.667.24-1.1v-1.42l.33-.88.65.21v2.16c0 .527-.1166 1.003-.35 1.43-.2333.433-.56.777-.98 1.03-.4133.253-.8933.38-1.44.38zm.02-3.13c.3467 0 .6534-.08.92-.24.2667-.16.4734-.38.62-.66.1534-.28.23-.603.23-.97s-.0766-.69-.23-.97c-.1466-.287-.3533-.51-.62-.67-.2666-.16-.5733-.24-.92-.24-.3466 0-.6533.08-.92.24-.2666.16-.4766.383-.63.67-.1533.28-.23.603-.23.97s.0767.69.23.97c.1534.28.3634.5.63.66.2667.16.5734.24.92.24zm4.7781-1.13c-.1467 0-.27-.047-.37-.14-.0934-.1-.14-.223-.14-.37v-4.8c0-.153.0466-.277.14-.37.1-.093.2233-.14.37-.14.1533 0 .2766.047.37.14.0933.093.14.217.14.37v4.8c0 .147-.0467.27-.14.37-.0934.093-.2167.14-.37.14zm4.11 2c-.1467 0-.27-.047-.37-.14-.0934-.1-.14-.223-.14-.37v-2.46c0-.38-.07-.69-.21-.93s-.33-.417-.57-.53c-.2334-.12-.5034-.18-.81-.18-.28 0-.5334.057-.76.17-.2267.113-.4067.267-.54.46-.1334.187-.2.403-.2.65h-.63c0-.42.1-.793.3-1.12.2066-.333.4866-.597.84-.79.3533-.193.75-.29 1.19-.29.46 0 .87.1 1.23.3.3666.193.6533.48.86.86.2133.38.32.847.32 1.4v2.46c0 .147-.05.27-.15.37-.0934.093-.2134.14-.36.14zm-4.11 0c-.1467 0-.27-.047-.37-.14-.0934-.1-.14-.223-.14-.37v-4.46c0-.153.0466-.277.14-.37.1-.093.2233-.14.37-.14.1533 0 .2766.047.37.14.0933.093.14.217.14.37v4.46c0 .147-.0467.27-.14.37-.0934.093-.2167.14-.37.14zm8.3061-.01c-.3333 0-.6333-.083-.9-.25-.2666-.173-.4766-.407-.63-.7-.1533-.293-.23-.623-.23-.99v-4.77c0-.147.0467-.267.14-.36.0934-.093.2134-.14.36-.14.1467 0 .2667.047.36.14.0934.093.14.213.14.36v4.77c0 .267.0734.49.22.67.1467.18.3267.27.54.27h.34c.12 0 .22.047.3.14.0867.093.13.213.13.36s-.0566.267-.17.36c-.1066.093-.2466.14-.42.14zm-2.22-4.41c-.14 0-.2533-.04-.34-.12-.0866-.08-.13-.18-.13-.3 0-.133.0434-.24.13-.32.0867-.08.2-.12.34-.12h2.31c.14 0 .2534.04.34.12.0867.08.13.187.13.32 0 .12-.0433.22-.13.3-.0866.08-.2.12-.34.12zm7.7834 4.41c-.1467 0-.27-.047-.37-.14-.0933-.1-.14-.223-.14-.37v-4.45c0-.153.0467-.277.14-.37.1-.093.2233-.14.37-.14.1533 0 .2767.047.37.14s.14.217.14.37v4.45c0 .147-.0467.27-.14.37-.0933.093-.2167.14-.37.14zm0-6.36c-.18 0-.3367-.063-.47-.19-.1267-.133-.19-.29-.19-.47s.0633-.333.19-.46c.1333-.133.29-.2.47-.2s.3333.067.46.2c.1333.127.2.28.2.46s-.0667.337-.2.47c-.1267.127-.28.19-.46.19zm7.0276 6.37c-.1467 0-.27-.047-.37-.14-.0934-.1-.14-.223-.14-.37v-2.46c0-.38-.07-.69-.21-.93s-.33-.417-.57-.53c-.2334-.12-.5034-.18-.81-.18-.28 0-.5334.057-.76.17-.2267.113-.4067.267-.54.46-.1334.187-.2.403-.2.65h-.63c0-.42.1-.793.3-1.12.2066-.333.4866-.597.84-.79.3533-.193.75-.29 1.19-.29.46 0 .87.1 1.23.3.3666.193.6533.48.86.86.2133.38.32.847.32 1.4v2.46c0 .147-.05.27-.15.37-.0934.093-.2134.14-.36.14zm-4.11 0c-.1467 0-.27-.047-.37-.14-.0934-.1-.14-.223-.14-.37v-4.46c0-.153.0466-.277.14-.37.1-.093.2233-.14.37-.14.1533 0 .2766.047.37.14.0933.093.14.217.14.37v4.46c0 .147-.0467.27-.14.37-.0934.093-.2167.14-.37.14zm7.8536-.02c-.2066 0-.3666-.11-.48-.33l-2.12-4.47c-.0533-.113-.06-.223-.02-.33.0467-.113.1334-.2.26-.26.1134-.06.2267-.07.34-.03.12.04.21.117.27.23l1.98 4.27h-.48l1.96-4.27c.06-.113.15-.19.27-.23.1267-.04.2534-.03.38.03.12.053.2.137.24.25s.0334.227-.02.34l-2.12 4.47c-.1.22-.2533.33-.46.33zm6.003.05c-.553 0-1.0464-.117-1.4797-.35-.4267-.24-.7634-.567-1.01-.98-.24-.42-.36-.9-.36-1.44 0-.547.1133-1.027.34-1.44.2333-.42.5533-.747.96-.98.4066-.24.8737-.36 1.3997-.36.52 0 .967.117 1.34.35.374.227.657.543.85.95.2.4.3.863.3 1.39 0 .127-.043.233-.13.32-.086.08-.196.12-.33.12h-4.0298v-.8h3.9998l-.41.28c-.006-.333-.073-.63-.2-.89-.126-.267-.306-.477-.54-.63-.233-.153-.516-.23-.85-.23-.38 0-.706.083-.9797.25-.2667.167-.47.397-.61.69-.14.287-.21.613-.21.98s.0833.693.25.98c.1666.287.3966.513.69.68.2937.167.6297.25 1.0097.25.207 0 .417-.037.63-.11.22-.08.397-.17.53-.27.1-.073.207-.11.32-.11.12-.007.224.027.31.1.114.1.174.21.18.33.007.12-.046.223-.16.31-.226.18-.51.327-.85.44-.333.113-.653.17-.96.17zm8.261-.03c-.146 0-.27-.047-.37-.14-.093-.1-.14-.223-.14-.37v-2.46c0-.38-.07-.69-.21-.93s-.33-.417-.57-.53c-.233-.12-.503-.18-.81-.18-.28 0-.533.057-.76.17-.226.113-.406.267-.54.46-.133.187-.2.403-.2.65h-.63c0-.42.1-.793.3-1.12.207-.333.487-.597.84-.79.354-.193.75-.29 1.19-.29.46 0 .87.1 1.23.3.367.193.654.48.86.86.214.38.32.847.32 1.4v2.46c0 .147-.05.27-.15.37-.093.093-.213.14-.36.14zm-4.11 0c-.146 0-.27-.047-.37-.14-.093-.1-.14-.223-.14-.37v-4.46c0-.153.047-.277.14-.37.1-.093.224-.14.37-.14.154 0 .277.047.37.14.094.093.14.217.14.37v4.46c0 .147-.046.27-.14.37-.093.093-.216.14-.37.14zm8.297-.01c-.334 0-.634-.083-.9-.25-.267-.173-.477-.407-.63-.7-.154-.293-.23-.623-.23-.99v-4.77c0-.147.046-.267.14-.36.093-.093.213-.14.36-.14.146 0 .266.047.36.14.093.093.14.213.14.36v4.77c0 .267.073.49.22.67.146.18.326.27.54.27h.34c.12 0 .22.047.3.14.086.093.13.213.13.36s-.057.267-.17.36c-.107.093-.247.14-.42.14zm-2.22-4.41c-.14 0-.254-.04-.34-.12-.087-.08-.13-.18-.13-.3 0-.133.043-.24.13-.32.086-.08.2-.12.34-.12h2.31c.14 0 .253.04.34.12.086.08.13.187.13.32 0 .12-.044.22-.13.3-.087.08-.2.12-.34.12zm4.853 4.41c-.146 0-.27-.047-.37-.14-.093-.1-.14-.223-.14-.37v-4.45c0-.153.047-.277.14-.37.1-.093.224-.14.37-.14.154 0 .277.047.37.14.094.093.14.217.14.37v4.45c0 .147-.046.27-.14.37-.093.093-.216.14-.37.14zm0-6.36c-.18 0-.336-.063-.47-.19-.126-.133-.19-.29-.19-.47s.064-.333.19-.46c.134-.133.29-.2.47-.2s.334.067.46.2c.134.127.2.28.2.46s-.066.337-.2.47c-.126.127-.28.19-.46.19zm4.888 6.4c-.54 0-1.017-.117-1.43-.35-.413-.24-.74-.567-.98-.98-.233-.42-.35-.9-.35-1.44 0-.547.117-1.027.35-1.44.24-.42.567-.747.98-.98.413-.24.89-.36 1.43-.36.533 0 1.007.12 1.42.36.413.233.737.56.97.98.24.413.36.893.36 1.44 0 .54-.117 1.02-.35 1.44-.233.413-.557.74-.97.98-.413.233-.89.35-1.43.35zm0-.9c.347 0 .653-.08.92-.24s.473-.38.62-.66c.153-.28.23-.603.23-.97s-.077-.69-.23-.97c-.147-.287-.353-.51-.62-.67s-.573-.24-.92-.24-.653.08-.92.24-.477.383-.63.67c-.153.28-.23.603-.23.97s.077.69.23.97.363.5.63.66.573.24.92.24zm8.888.87c-.147 0-.27-.047-.37-.14-.093-.1-.14-.223-.14-.37v-2.46c0-.38-.07-.69-.21-.93s-.33-.417-.57-.53c-.233-.12-.503-.18-.81-.18-.28 0-.533.057-.76.17s-.407.267-.54.46c-.133.187-.2.403-.2.65h-.63c0-.42.1-.793.3-1.12.207-.333.487-.597.84-.79s.75-.29 1.19-.29c.46 0 .87.1 1.23.3.367.193.653.48.86.86.213.38.32.847.32 1.4v2.46c0 .147-.05.27-.15.37-.093.093-.213.14-.36.14zm-4.11 0c-.147 0-.27-.047-.37-.14-.093-.1-.14-.223-.14-.37v-4.46c0-.153.047-.277.14-.37.1-.093.223-.14.37-.14.153 0 .277.047.37.14s.14.217.14.37v4.46c0 .147-.047.27-.14.37-.093.093-.217.14-.37.14zm8.296.03c-.466 0-.9-.07-1.3-.21-.393-.147-.7-.33-.92-.55-.1-.107-.143-.227-.13-.36.02-.14.087-.253.2-.34.134-.107.264-.15.39-.13.134.013.247.07.34.17.114.127.294.247.54.36.254.107.534.16.84.16.387 0 .68-.063.88-.19.207-.127.314-.29.32-.49.007-.2-.09-.373-.29-.52-.193-.147-.55-.267-1.07-.36-.673-.133-1.163-.333-1.47-.6-.3-.267-.45-.593-.45-.98 0-.34.1-.62.3-.84.2-.227.457-.393.77-.5.314-.113.64-.17.98-.17.44 0 .83.07 1.17.21s.61.333.81.58c.094.107.137.22.13.34-.006.113-.063.21-.17.29-.106.073-.233.097-.38.07-.146-.027-.27-.087-.37-.18-.166-.16-.346-.27-.54-.33-.193-.06-.416-.09-.67-.09-.293 0-.543.05-.75.15-.2.1-.3.247-.3.44 0 .12.03.23.09.33.067.093.194.18.38.26.187.073.46.147.82.22.5.1.894.227 1.18.38.294.153.504.333.63.54.127.2.19.433.19.7 0 .307-.083.583-.25.83-.16.247-.4.443-.72.59-.313.147-.706.22-1.18.22z"/><path d="m481.922 676c-.147 0-.27-.05-.37-.15-.094-.1-.14-.22-.14-.36 0-.147.046-.267.14-.36l2.84-3.32c.2-.233.353-.453.46-.66.113-.207.17-.403.17-.59 0-.293-.05-.547-.15-.76s-.244-.377-.43-.49c-.187-.12-.41-.18-.67-.18-.254 0-.484.067-.69.2-.2.127-.36.3-.48.52-.114.213-.17.45-.17.71 0 .133-.05.25-.15.35-.094.1-.214.15-.36.15-.14 0-.26-.05-.36-.15s-.15-.217-.15-.35c0-.453.103-.857.31-1.21.206-.36.486-.643.84-.85.36-.207.763-.31 1.21-.31.453 0 .846.097 1.18.29.333.193.59.467.77.82.186.353.28.773.28 1.26 0 .213-.047.43-.14.65-.087.22-.2.43-.34.63-.134.2-.27.38-.41.54l-2.29 2.6h2.8c.146 0 .27.053.37.16.1.1.15.217.15.35 0 .14-.05.26-.15.36s-.224.15-.37.15zm7.609 0c-.507 0-.94-.153-1.3-.46-.354-.313-.624-.76-.81-1.34-.187-.587-.28-1.29-.28-2.11s.093-1.52.28-2.1c.186-.587.456-1.033.81-1.34.36-.313.793-.47 1.3-.47.506 0 .936.16 1.29.48.36.313.633.763.82 1.35.186.58.28 1.273.28 2.08s-.094 1.503-.28 2.09c-.187.58-.46 1.03-.82 1.35-.354.313-.784.47-1.29.47zm0-1.04c.306 0 .56-.123.76-.37.2-.253.35-.597.45-1.03s.15-.923.15-1.47-.05-1.037-.15-1.47-.25-.777-.45-1.03-.454-.38-.76-.38c-.307 0-.56.127-.76.38-.2.247-.35.587-.45 1.02s-.15.927-.15 1.48.05 1.047.15 1.48.25.773.45 1.02c.206.247.46.37.76.37zm4.051 1.04c-.147 0-.27-.05-.37-.15-.093-.1-.14-.22-.14-.36 0-.147.047-.267.14-.36l2.84-3.32c.2-.233.353-.453.46-.66.113-.207.17-.403.17-.59 0-.293-.05-.547-.15-.76s-.243-.377-.43-.49c-.187-.12-.41-.18-.67-.18-.253 0-.483.067-.69.2-.2.127-.36.3-.48.52-.113.213-.17.45-.17.71 0 .133-.05.25-.15.35-.093.1-.213.15-.36.15-.14 0-.26-.05-.36-.15s-.15-.217-.15-.35c0-.453.103-.857.31-1.21.207-.36.487-.643.84-.85.36-.207.763-.31 1.21-.31.453 0 .847.097 1.18.29s.59.467.77.82c.187.353.28.773.28 1.26 0 .213-.047.43-.14.65-.087.22-.2.43-.34.63-.133.2-.27.38-.41.54l-2.29 2.6h2.8c.147 0 .27.053.37.16.1.1.15.217.15.35 0 .14-.05.26-.15.36s-.223.15-.37.15zm7.839 0c-.5 0-.944-.103-1.33-.31-.387-.213-.69-.5-.91-.86-.22-.367-.33-.777-.33-1.23 0-.153.043-.277.13-.37.093-.1.203-.15.33-.15.133 0 .243.05.33.15.086.093.13.217.13.37 0 .273.07.527.21.76.14.227.33.41.57.55.24.133.51.2.81.2.44 0 .793-.12 1.06-.36.273-.247.41-.59.41-1.03 0-.28-.06-.53-.18-.75-.12-.227-.284-.407-.49-.54-.207-.133-.44-.2-.7-.2-.147 0-.27-.05-.37-.15-.094-.1-.14-.223-.14-.37s.046-.267.14-.36c.1-.1.223-.15.37-.15.186 0 .366-.047.54-.14.173-.1.316-.23.43-.39.113-.167.17-.353.17-.56 0-.293-.107-.54-.32-.74-.214-.2-.487-.3-.82-.3-.254 0-.487.05-.7.15-.207.1-.374.233-.5.4-.12.167-.18.353-.18.56 0 .153-.044.283-.13.39-.087.1-.197.15-.33.15-.127 0-.237-.047-.33-.14-.087-.1-.13-.223-.13-.37 0-.387.1-.733.3-1.04s.473-.547.82-.72c.346-.18.733-.27 1.16-.27.393 0 .746.087 1.06.26.32.167.57.397.75.69.186.287.28.613.28.98 0 .26-.06.49-.18.69-.114.2-.26.373-.44.52-.18.14-.37.257-.57.35.353.12.64.283.86.49.22.2.38.433.48.7.106.267.16.557.16.87 0 .433-.11.823-.33 1.17-.22.34-.514.61-.88.81-.367.193-.77.29-1.21.29z"/></g></g></svg>