<svg width="134" height="89" viewBox="0 0 134 89" fill="none" xmlns="http://www.w3.org/2000/svg">
<rect width="134" height="89" fill="white"/>
<g clip-path="url(#clip0_10407_1611)">
<path d="M70.0886 77.6429C69.3273 77.6429 68.6167 77.4377 67.9562 77.0786L61.2026 73.0273C60.1871 72.463 60.6949 72.2578 60.9991 72.1552C62.3702 71.6935 62.6245 71.5909 64.0463 70.7701C64.1984 70.6675 64.4012 70.7188 64.5533 70.8214L69.7336 73.95C69.9364 74.0526 70.1907 74.0526 70.3428 73.95L90.6033 62.1026C90.8069 62 90.9083 61.7955 90.9083 61.539V37.8954C90.9083 37.6389 90.8069 37.4337 90.604 37.3311L70.3428 25.5349C70.14 25.4323 69.885 25.4323 69.7336 25.5349L49.4724 37.3311C49.2681 37.4337 49.1667 37.6902 49.1667 37.8954V61.539C49.1667 61.7435 49.2688 62 49.4717 62.1026L55.0069 65.3338C58.0026 66.8728 59.8815 65.0773 59.8815 63.2825V39.9467C59.8815 39.6389 60.135 39.3311 60.4907 39.3311H63.0808C63.385 39.3311 63.69 39.5876 63.69 39.9467V63.2825C63.69 67.3345 61.5069 69.6936 57.6977 69.6936C56.5301 69.6936 55.616 69.6936 53.0266 68.4111L47.6942 65.3338C47.0458 64.9535 46.5076 64.4075 46.1335 63.7505C45.7594 63.0935 45.5625 62.3485 45.5625 61.5903V37.9467C45.5624 37.1883 45.7594 36.4431 46.1337 35.786C46.5079 35.1289 47.0463 34.5828 47.6949 34.2025L67.9555 22.3551C69.2259 21.6369 70.9519 21.6369 72.2217 22.3551L92.4822 34.2025C93.1309 34.5827 93.6695 35.1287 94.0439 35.7859C94.4182 36.443 94.6153 37.1882 94.6153 37.9467V61.5903C94.6152 62.3487 94.4181 63.0937 94.0437 63.7507C93.6693 64.4077 93.1308 64.9536 92.4822 65.3338L72.2217 77.1812C71.6125 77.4377 70.8505 77.6429 70.0886 77.6429Z" fill="#5FA04E"/>
<path d="M76.3867 61.3848C67.4993 61.3848 65.6719 57.2815 65.6719 53.7938C65.6719 53.486 65.9254 53.1782 66.281 53.1782H68.9219C69.2268 53.1782 69.4803 53.3834 69.4803 53.6912C69.8867 56.4094 71.0543 57.7432 76.4374 57.7432C80.7029 57.7432 82.5303 56.7685 82.5303 54.4607C82.5303 53.1276 82.0233 52.1522 75.3705 51.486C69.8353 50.9217 66.3831 49.6905 66.3831 45.2288C66.3831 41.075 69.836 38.6133 75.6247 38.6133C82.1247 38.6133 85.3233 40.8698 85.7303 45.7931C85.7303 45.947 85.6789 46.1009 85.5775 46.2548C85.4761 46.3574 85.324 46.46 85.1712 46.46H82.4796C82.3494 46.4557 82.2242 46.4081 82.1233 46.3247C82.0224 46.2413 81.9514 46.1266 81.9212 45.9983C81.312 43.1768 79.7381 42.2542 75.574 42.2542C70.9022 42.2542 70.3437 43.8958 70.3437 45.1262C70.3437 46.6139 71.0036 47.0756 77.3008 47.8957C83.5465 48.7165 86.4909 49.8964 86.4909 54.3068C86.4909 58.8205 82.7846 61.3848 76.3867 61.3848Z" fill="#5FA04E"/>
</g>
<defs>
<clipPath id="clip0_10407_1611">
<rect width="50" height="57" fill="white" transform="translate(45 21)"/>
</clipPath>
</defs>
</svg>
