<svg width="134" height="89" viewBox="0 0 134 89" fill="none" xmlns="http://www.w3.org/2000/svg">
<rect width="134" height="89" fill="white"/>
<rect x="73.1992" y="11.5996" width="48.8008" height="74.8008" fill="white"/>
<path d="M46.0148 62.9997C44.7216 64.3023 44.7216 66.4168 46.0148 67.7195C47.308 69.0221 49.4072 69.0221 50.7004 67.7195C51.9936 66.4168 51.9936 64.3023 50.7004 62.9997C49.4072 61.6971 47.308 61.6971 46.0148 62.9997ZM49.5224 66.5328C48.8846 67.1752 47.8394 67.1752 47.2017 66.5328C46.5639 65.8904 46.5639 64.8376 47.2017 64.1953C47.8394 63.5529 48.8846 63.5529 49.5224 64.1953C50.1601 64.8376 50.1601 65.8904 49.5224 66.5328ZM52.6579 63.6778H54.0486V64.3826C54.3852 63.9187 54.8546 63.5796 55.5721 63.5796C56.7147 63.5796 57.8042 64.4808 57.8042 66.1313V66.1492C57.8042 67.7998 56.7324 68.7009 55.5721 68.7009C54.828 68.7009 54.3763 68.3618 54.0486 67.9604V70.0749H52.6579V63.6778ZM56.4135 66.1581V66.1403C56.4135 65.3194 55.8644 64.7752 55.2178 64.7752C54.5712 64.7752 54.0309 65.3194 54.0309 66.1403V66.1581C54.0309 66.9789 54.5712 67.5232 55.2178 67.5232C55.8644 67.5143 56.4135 66.9879 56.4135 66.1581ZM58.7874 66.167V66.1492C58.7874 64.7484 59.7794 63.5886 61.1966 63.5886C62.8264 63.5886 63.5705 64.8644 63.5705 66.2562C63.5705 66.3633 63.5616 66.4971 63.5527 66.622H60.1603C60.2932 67.2555 60.736 67.5856 61.3561 67.5856C61.8167 67.5856 62.1533 67.4429 62.543 67.086L63.3313 67.7908C62.8796 68.3618 62.2241 68.7098 61.3384 68.7098C59.868 68.7009 58.7874 67.6659 58.7874 66.167ZM62.2241 65.7477C62.1444 65.1232 61.7812 64.7038 61.1966 64.7038C60.6209 64.7038 60.2489 65.1142 60.1426 65.7477H62.2241ZM64.5625 63.6778H65.9797V64.3915C66.3075 63.9722 66.7238 63.5886 67.4412 63.5886C68.513 63.5886 69.133 64.3023 69.133 65.4533V68.7009H67.7158V65.8994C67.7158 65.2213 67.3969 64.8823 66.8566 64.8823C66.3163 64.8823 65.9709 65.2302 65.9709 65.8994V68.7009H64.5537V63.6778H64.5625ZM50.6473 46.5921L48.6189 48.6353C48.2203 49.0368 48.2203 49.6881 48.6189 50.0896L56.5464 58.0748C56.945 58.4763 57.5916 58.4763 57.9902 58.0748L60.0186 56.0316C60.4172 55.6301 60.4172 54.9788 60.0186 54.5773L52.0911 46.5921C51.6925 46.1906 51.0459 46.1906 50.6473 46.5921ZM36.4309 72.7069C36.794 72.3411 36.794 71.7522 36.4309 71.3864L35.3945 70.3425C35.0314 69.9767 34.4468 69.9767 34.0836 70.3425L31.9578 72.4838L31.3732 71.895C31.0543 71.5738 30.5229 71.5738 30.204 71.895C29.8851 72.2162 29.8851 72.7515 30.204 73.0727L33.7205 76.6147C34.0393 76.9359 34.5708 76.9359 34.8897 76.6147C35.2085 76.2935 35.2085 75.7582 34.8897 75.437L34.3051 74.8481L36.4309 72.7069Z" fill="#F5A800"/>
<path d="M47.1675 52.4524L42.659 56.9937C42.2604 57.3951 42.2604 58.0643 42.659 58.4658L45.4403 61.2673C47.4067 59.8398 50.1702 60.0182 51.9417 61.8026L54.1916 59.5364C54.5902 59.1349 54.5902 58.4658 54.1916 58.0643L48.629 52.4613C48.2216 52.0509 47.5661 52.0509 47.1675 52.4524ZM44.2711 62.4539L42.6236 60.7944C42.2427 60.4108 41.605 60.4108 41.2241 60.7944L35.4224 66.6384C35.0415 67.022 35.0415 67.6644 35.4224 68.048L38.7085 71.3581C39.0894 71.7417 39.7272 71.7417 40.108 71.3581L43.8371 67.6019C43.0576 65.9514 43.1993 63.9707 44.2711 62.4539ZM71.7561 63.3729H69.7366V62.0168H75.2372V63.3729H73.2176V68.6993H71.7561V63.3729ZM75.246 66.1566V66.1387C75.246 64.738 76.2381 63.5781 77.6553 63.5781C79.2851 63.5781 80.0291 64.854 80.0291 66.2458C80.0291 66.3528 80.0202 66.4867 80.0114 66.6116H76.6189C76.7518 67.2451 77.1947 67.5752 77.8147 67.5752C78.2753 67.5752 78.6119 67.4324 79.0016 67.0755L79.7899 67.7804C79.3382 68.3514 78.6827 68.6993 77.797 68.6993C76.3266 68.6993 75.246 67.6644 75.246 66.1566ZM78.6827 65.7462C78.603 65.1216 78.2399 64.7023 77.6553 64.7023C77.0795 64.7023 76.7075 65.1127 76.6012 65.7462H78.6827ZM81.0123 62.0168H82.3941V68.6993H81.0123V62.0168ZM83.3773 66.1655V66.1476C83.3773 64.7469 84.3693 63.587 85.7865 63.587C87.4163 63.587 88.1603 64.8629 88.1603 66.2547C88.1603 66.3618 88.1515 66.4956 88.1426 66.6205H84.7502C84.883 67.254 85.3259 67.5841 85.946 67.5841C86.4065 67.5841 86.7431 67.4413 87.1329 67.0845L87.9212 67.7893C87.4695 68.3603 86.814 68.7083 85.9282 68.7083C84.4667 68.6993 83.3773 67.6644 83.3773 66.1655ZM86.8228 65.7551C86.7431 65.1305 86.38 64.7112 85.7954 64.7112C85.2196 64.7112 84.8476 65.1216 84.7413 65.7551H86.8228ZM89.1524 63.6762H90.5696V64.39C90.8973 63.9707 91.3225 63.587 92.04 63.587C92.6866 63.587 93.1826 63.8815 93.4395 64.3811C93.8735 63.8636 94.3961 63.587 95.0781 63.587C96.1322 63.587 96.761 64.2205 96.761 65.4339V68.6993H95.3438V65.8978C95.3438 65.2198 95.0427 64.8807 94.5201 64.8807C93.9886 64.8807 93.6609 65.2287 93.6609 65.8978V68.6993H92.2437V65.8978C92.2437 65.2198 91.9425 64.8807 91.4199 64.8807C90.8885 64.8807 90.5607 65.2287 90.5607 65.8978V68.6993H89.1435V63.6762H89.1524ZM97.7442 66.1566V66.1387C97.7442 64.738 98.7363 63.5781 100.153 63.5781C101.783 63.5781 102.527 64.854 102.527 66.2458C102.527 66.3528 102.518 66.4867 102.51 66.6116H99.1172C99.25 67.2451 99.6929 67.5752 100.313 67.5752C100.774 67.5752 101.11 67.4324 101.5 67.0755L102.288 67.7804C101.836 68.3514 101.181 68.6993 100.295 68.6993C98.8249 68.6993 97.7442 67.6644 97.7442 66.1566ZM101.181 65.7462C101.101 65.1216 100.738 64.7023 100.153 64.7023C99.5778 64.7023 99.2057 65.1127 99.0994 65.7462H101.181ZM103.67 67.1826V64.7826H103.068V63.5513H103.67V62.2576H105.096V63.5513H106.283V64.7826H105.105V66.9417C105.105 67.2718 105.247 67.4324 105.565 67.4324C105.831 67.4324 106.061 67.37 106.265 67.254V68.4049C105.964 68.5834 105.619 68.6993 105.14 68.6993C104.263 68.6993 103.67 68.3514 103.67 67.1826ZM107.355 63.6406H108.79V64.6666C109.082 63.9618 109.551 63.5067 110.402 63.5424V65.0592H110.322C109.365 65.0592 108.781 65.6391 108.781 66.8614V68.7439H107.346V63.6406H107.355ZM114.963 63.587H116.487L114.503 68.9224C114.104 69.9841 113.679 70.3767 112.802 70.3767C112.271 70.3767 111.881 70.2428 111.5 70.0198L111.987 68.9492C112.182 69.0651 112.421 69.1544 112.616 69.1544C112.864 69.1544 113.006 69.0741 113.13 68.8153L111.101 63.587H112.652L113.83 67.1291L114.963 63.587Z" fill="#425CC7"/>
</svg>
