<svg viewBox="0 0 500 500" xmlns="http://www.w3.org/2000/svg"><path d="m129.28 269.42a436.15 436.15 0 0 0 -38.86 38.48c-5.02 5.63-10.42 13.1-9.64 22.1a18.52 18.52 0 0 0 7.56 13.37c3.76 2.62 8 3.4 12.17 4.14l23.94 4.3c3.92.71 8.2 1.31 11.57-1.61 4.4-3.81 5.57-12 6.33-19.23 1.11-10.69 2.23-21.52 1.37-32.25s-3.92-21.54-9.83-28.32" fill="#f9f7f8"/><rect fill="#f9f7f8" height="109.49" rx="39.45" width="109.49" x="273.39" y="249.56"/><circle cx="291.91" cy="210.11" fill="#520993" r="16.1"/><circle cx="354.7" cy="202.06" fill="#520993" r="16.1"/><circle cx="359.54" cy="212.53" fill="#520993" r="16.1"/><rect fill="#f9f7f8" height="109.49" rx="39.45" width="109.49" x="111.94" y="262.75"/><path d="m125.31 206.79-13.37 55.96h109.5l-19.26-55.96z" fill="#520993"/><path d="m164.07 177a40.45 40.45 0 0 0 -40.44 39.85h80.88a40.44 40.44 0 0 0 -40.44-39.85z" fill="#520993"/><path d="m125.23 234.9a38.84 38.84 0 0 0 38.84 38.84 38.84 38.84 0 0 0 38.85-38.84v-15.85c0-.2 0-.39 0-.58h-77.68v.58z" fill="#fff" stroke="#520993" stroke-miterlimit="10" stroke-width="4"/><path d="m164.27 261.94a11.26 11.26 0 0 0 11.27-11.27h-22.54a11.27 11.27 0 0 0 11.27 11.27z" fill="#f29021"/><path d="m325.52 167.85a40.45 40.45 0 0 0 -40.44 39.85h80.92a40.45 40.45 0 0 0 -40.48-39.85z" fill="#520993"/><path d="m286.67 224.93a38.85 38.85 0 0 0 38.85 38.85 38.85 38.85 0 0 0 38.85-38.85v-15.85c0-.19 0-.38 0-.58h-77.68v.58z" fill="#fff" stroke="#520993" stroke-miterlimit="10" stroke-width="4"/><path d="m325.72 252a11.27 11.27 0 0 0 11.28-11.29h-22.55a11.28 11.28 0 0 0 11.27 11.29z" fill="#f29021"/><g fill="#520993"><circle cx="296.74" cy="189.99" r="16.1"/><circle cx="306.4" cy="178.72" r="16.1"/><circle cx="328.14" cy="176.3" r="16.1"/><circle cx="349.87" cy="180.33" r="16.1"/><circle cx="357.92" cy="192.4" r="16.1"/><circle cx="301.85" cy="201.65" r="16.1"/><circle cx="319.57" cy="203.64" r="10.35"/></g><path d="m376.46 268.24a417.61 417.61 0 0 1 38.85 35.39c5 5.17 10.45 12 9.64 20.33a16.75 16.75 0 0 1 -7.55 12.28c-3.77 2.41-8 3.13-12.17 3.82l-23.94 3.94c-3.93.65-8.2 1.21-11.58-1.48-4.4-3.51-5.57-11-6.32-17.69-1.12-9.83-2.23-19.78-1.38-29.65s3.92-19.81 9.84-26.05" fill="#f9f7f8"/><rect fill="#fff" height="103.07" rx="6.62" stroke="#520993" stroke-miterlimit="10" stroke-width="4" width="162.34" x="71.38" y="296.95"/><path d="m56.83 373.86c-3.54-8.92-16.14-10.36-19.88-.62-2 5.17.81 9.86 3.71 14 4.76 6.77 9.65 13.46 14.48 20.19 1.32 1.84 4.4.07 3.06-1.79-4.63-6.47-9.29-12.94-13.91-19.42-2.13-3-4.92-6.36-4.35-10.25 1.09-7.45 10.84-7.81 13.47-1.17.83 2.1 4.27 1.18 3.42-.94z" fill="#520993"/><path d="m58.83 417h36.15l4.02-64.27h-44.99z" fill="#f29021"/><rect fill="#fff" height="103.07" rx="6.62" stroke="#520993" stroke-miterlimit="10" stroke-width="4" width="162.34" x="256.38" y="274.46"/><path d="m435.86 337.9c-7.23 0-1-9.32-.43-12.85a7.65 7.65 0 0 0 -1.14-6.05c-1.48-2-5-3.16-3.76-6.51.65-1.74 3.25-2.94 4.23-4.67 1.94-3.44 0-6-2.62-8.26-5.4-4.64 5-9.65 2-15.48-.91-1.74-3.54-.2-2.64 1.54 1.51 2.9-4.55 6.85-5 9.81-.35 2.41 1 4.08 2.66 5.61s3.92 2.36 3 5.24c-.31 1-1.7 1.93-2.37 2.63-1.31 1.36-2.85 2.77-3.13 4.74s.66 3.37 2.05 4.65c1.71 1.57 3.73 1.73 3.9 5 .12 2.26-1.4 4.31-2.15 6.33-1.83 4.91-1.08 11.3 5.44 11.28a1.53 1.53 0 0 0 0-3.05z" fill="#520993"/><path d="m448 368.65c1.95-4.39 8.81-6.34 11.63-1.41 2.32 4-1.35 8-3.64 11-3.91 5.06-7.85 10.11-11.77 15.17-1.19 1.53.95 3.7 2.16 2.15 4.35-5.61 8.76-11.18 13.06-16.83 2.52-3.3 5.16-7.18 3.58-11.5-3-8.1-14.36-7.53-17.65-.12-.79 1.78 1.84 3.34 2.63 1.54z" fill="#520993"/><path d="m443.37 403.13h-32.34l-3.59-53.08h40.24z" fill="#24e2bb"/></svg>