<svg viewBox="0 0 500 500" xmlns="http://www.w3.org/2000/svg"><rect fill="#f9f7f8" height="97.66" rx="35.19" width="97.66" x="273.37" y="291.29"/><circle cx="289.89" cy="256.1" fill="#520993" r="14.36"/><circle cx="345.9" cy="248.92" fill="#520993" r="14.36"/><circle cx="350.21" cy="258.26" fill="#520993" r="14.36"/><rect fill="#f9f7f8" height="97.66" rx="35.19" width="97.66" x="138.38" y="292.05"/><path d="m150.31 242.14-11.93 49.91h97.66l-17.18-49.91z" fill="#520993"/><path d="m184.88 215.57a36.08 36.08 0 0 0 -36.07 35.55h72.13a36.08 36.08 0 0 0 -36.06-35.55z" fill="#520993"/><path d="m150.23 267.2a34.65 34.65 0 0 0 34.65 34.65 34.64 34.64 0 0 0 34.64-34.65v-14.13c0-.17 0-.34 0-.52h-69.28v.52z" fill="#fff" stroke="#520993" stroke-miterlimit="10" stroke-width="4"/><path d="m185.05 291.33a10.05 10.05 0 0 0 10.06-10.05h-20.11a10.05 10.05 0 0 0 10.05 10.05z" fill="#f29021"/><path d="m319.87 218.4a36.08 36.08 0 0 0 -36.07 35.6h72.14a36.08 36.08 0 0 0 -36.07-35.6z" fill="#520993"/><path d="m285.22 269.32a34.64 34.64 0 0 0 34.65 34.68 34.65 34.65 0 0 0 34.65-34.64v-14.18c0-.17 0-.34 0-.51h-69.28v.51z" fill="#fff" stroke="#520993" stroke-miterlimit="10" stroke-width="4"/><path d="m320.05 293.44a10.05 10.05 0 0 0 10.05-10.05h-20.1a10.05 10.05 0 0 0 10.05 10.05z" fill="#f29021"/><g fill="#520993"><circle cx="294.2" cy="238.15" r="14.36"/><circle cx="302.81" cy="228.1" r="14.36"/><circle cx="322.2" cy="225.94" r="14.36"/><circle cx="341.59" cy="229.53" r="14.36"/><circle cx="348.77" cy="240.3" r="14.36"/><circle cx="298.76" cy="248.55" r="14.36"/><circle cx="314.56" cy="250.33" r="9.23"/></g><path d="m124.57 183.35h-8v-8a.92.92 0 1 0 -1.83 0v8h-8a.92.92 0 0 0 0 1.83h8v8a.92.92 0 0 0 1.83 0v-8h8a.92.92 0 0 0 0-1.83z" fill="#f29021"/><path d="m161.34 169.14h-6.65v-6.64a.76.76 0 1 0 -1.51 0v6.64h-6.65a.76.76 0 0 0 0 1.52h6.65v6.65a.76.76 0 1 0 1.51 0v-6.65h6.65a.76.76 0 1 0 0-1.52z" fill="#24e2bb"/><path d="m343.69 126.35h8v-8a.92.92 0 1 1 1.83 0v8h8a.92.92 0 1 1 0 1.83h-8v8a.92.92 0 0 1 -1.83 0v-8h-8a.92.92 0 1 1 0-1.83z" fill="#f29021"/><path d="m249.28 189.92h-14.28v-14.29a1.63 1.63 0 1 0 -3.26 0v14.29h-14.3a1.63 1.63 0 0 0 0 3.26h14.29v14.29a1.63 1.63 0 1 0 3.26 0v-14.29h14.29a1.63 1.63 0 0 0 0-3.26z" fill="#520993"/><path d="m309.28 148.92h-14.28v-14.29a1.63 1.63 0 0 0 -3.26 0v14.29h-14.3a1.63 1.63 0 1 0 0 3.26h14.29v14.29a1.63 1.63 0 1 0 3.26 0v-14.29h14.29a1.63 1.63 0 1 0 0-3.26z" fill="#f9f7f8"/><path d="m390.28 189.92h-14.28v-14.29a1.63 1.63 0 0 0 -3.26 0v14.29h-14.3a1.63 1.63 0 0 0 0 3.26h14.29v14.29a1.63 1.63 0 1 0 3.26 0v-14.29h14.29a1.63 1.63 0 1 0 0-3.26z" fill="#24e2bb"/><path d="m230.28 123.92h-14.28v-14.29a1.63 1.63 0 1 0 -3.26 0v14.29h-14.3a1.63 1.63 0 1 0 0 3.26h14.29v14.29a1.63 1.63 0 1 0 3.26 0v-14.29h14.29a1.63 1.63 0 1 0 0-3.26z" fill="#f29021"/><path d="m263.92 110.14h6.64v-6.64a.76.76 0 1 1 1.52 0v6.64h6.64a.76.76 0 0 1 0 1.52h-6.64v6.65a.76.76 0 0 1 -1.52 0v-6.65h-6.64a.76.76 0 0 1 0-1.52z" fill="#520993"/><path d="m151.92 114.14h6.64v-6.64a.76.76 0 0 1 1.52 0v6.64h6.64a.76.76 0 0 1 0 1.52h-6.64v6.65a.76.76 0 0 1 -1.52 0v-6.65h-6.64a.76.76 0 0 1 0-1.52z" fill="#f9f7f8"/></svg>