<svg width="134" height="89" viewBox="0 0 134 89" fill="none" xmlns="http://www.w3.org/2000/svg">
<rect width="134" height="89" fill="white"/>
<rect x="73.1992" y="11.5996" width="48.8008" height="74.8008" fill="white"/>
<g clip-path="url(#clip0_8901_978)">
<path d="M82.5742 65.0223L84.4808 60.1716H89.986L87.3734 52.8133L90.641 44.5L100 69.4999H93.098L91.4988 65.0223H82.5742Z" fill="#3D3D3D"/>
<path d="M76.6858 69.4999L86.7048 44.5L80.0625 44.5L73.2089 60.6556L68.3353 44.5001H63.2298L57.9968 60.6556L54.3065 53.2938L50.9668 63.6451L54.3575 69.4999H60.8944L65.6231 55.0119L70.1317 69.4999H76.6858Z" fill="#5A0FC8"/>
<path d="M40.305 60.9179H44.3963C45.6356 60.9179 46.7392 60.7787 47.707 60.5004L48.7651 57.2209L51.7222 48.0553C51.4969 47.696 51.2397 47.3562 50.9505 47.0362C49.4322 45.3454 47.2108 44.5 44.2862 44.5H34V69.4999H40.305V60.9179ZM45.7205 50.2515C46.3135 50.852 46.61 51.6556 46.61 52.6623C46.61 53.6767 46.3492 54.4813 45.8277 55.076C45.2559 55.7367 44.2032 56.0671 42.6694 56.0671H40.305V49.3507H42.6868C44.1162 49.3507 45.1275 49.651 45.7205 50.2515Z" fill="#3D3D3D"/>
</g>
<defs>
<clipPath id="clip0_8901_978">
<rect width="66" height="25" fill="white" transform="translate(34 44.5)"/>
</clipPath>
</defs>
</svg>
