<svg width="134" height="89" viewBox="0 0 134 89" fill="none" xmlns="http://www.w3.org/2000/svg">
<rect width="134" height="89" fill="white"/>
<g clip-path="url(#clip0_6206_710)">
<path d="M67.1084 46.9844C63.8287 46.9844 61.1699 49.6532 61.1699 52.9453C61.1699 56.2374 63.8287 58.9062 67.1084 58.9062C70.3881 58.9062 73.0469 56.2374 73.0469 52.9453C73.0469 49.6532 70.3881 46.9844 67.1084 46.9844Z" fill="#087EA4"/>
<path d="M97.9956 52.9994C97.9956 48.3196 93.6783 44.2152 86.8042 41.514C86.8961 40.9057 86.9792 40.304 87.0382 39.7132C87.7162 32.9889 86.1022 28.1356 82.4956 26.045C78.4604 23.7062 72.7608 25.4037 66.9978 30.033C61.2348 25.4037 55.5352 23.7062 51.5 26.045C47.8935 28.1356 46.2794 32.9889 46.9574 39.7132C47.0164 40.304 47.0974 40.9079 47.1914 41.5184C46.6184 41.738 46.0563 41.9708 45.5161 42.2145C39.3791 44.9838 36 48.8181 36 52.9994C36 57.6792 40.3173 61.7836 47.1914 64.4848C47.0974 65.0931 47.0164 65.6948 46.9574 66.2855C46.2794 73.0099 47.8935 77.8631 51.5 79.9538C52.74 80.6596 54.145 81.0204 55.5702 80.9991C58.9865 80.9991 62.9757 79.1939 66.9978 75.9657C71.0177 79.1939 75.0092 80.9991 78.4298 80.9991C79.855 81.0201 81.2599 80.6593 82.5 79.9538C86.1065 77.8631 87.7206 73.0099 87.0426 66.2855C86.9836 65.6948 86.9005 65.0931 86.8086 64.4848C93.6827 61.788 98 57.677 98 52.9994M78.4036 27.9643C79.3199 27.9421 80.2257 28.165 81.0281 28.61C83.5323 30.0616 84.6565 33.9991 84.1097 39.4124C84.0725 39.7813 84.0288 40.1546 83.9763 40.5302C81.118 39.6659 78.1911 39.0495 75.2279 38.6877C73.4315 36.2901 71.434 34.0515 69.2571 31.9963C72.6755 29.3435 75.884 27.9643 78.4014 27.9643M77.2269 58.9287C76.1207 60.8565 74.9162 62.7256 73.6182 64.5287C71.4179 64.7556 69.2075 64.8685 66.9956 64.8669C64.7845 64.8684 62.5748 64.7555 60.3753 64.5287C59.0807 62.7256 57.8798 60.8564 56.7775 58.9287C55.6714 57.0063 54.6661 55.0272 53.7658 52.9994C54.6661 50.9716 55.6714 48.9924 56.7775 47.07C57.8781 45.1501 59.0752 43.2876 60.3643 41.4899C62.5679 41.2573 64.7821 41.1415 66.9978 41.1429C69.2089 41.1415 71.4186 41.2544 73.6182 41.4811C74.9117 43.2816 76.1132 45.147 77.2181 47.07C78.3234 48.9929 79.3286 50.972 80.2298 52.9994C79.3286 55.0268 78.3234 57.0059 77.2181 58.9287M81.7345 56.7327C82.4286 58.6332 82.9985 60.5772 83.4405 62.5522C81.5226 63.1526 79.5675 63.6258 77.5878 63.9687C78.3401 62.8297 79.0692 61.6445 79.7749 60.4133C80.4726 59.1967 81.1265 57.9691 81.7433 56.7415M62.8445 67.6976C64.2049 67.781 65.5937 67.8294 67 67.8294C68.4063 67.8294 69.8039 67.781 71.1664 67.6976C69.8745 69.2513 68.4827 70.7185 67 72.0897C65.5205 70.7187 64.1323 69.2515 62.8445 67.6976ZM56.41 63.9643C54.4297 63.6229 52.4739 63.1512 50.5552 62.5522C50.9953 60.5803 51.563 58.6393 52.2546 56.7415C52.8626 57.9691 53.5143 59.1967 54.2229 60.4133C54.9316 61.6299 55.6642 62.8289 56.41 63.9687M52.2546 49.2551C51.5655 47.3643 50.9993 45.4307 50.5595 43.4663C52.4735 42.8667 54.4241 42.3921 56.3991 42.0455C55.6511 43.1808 54.9184 44.3579 54.212 45.5855C53.5056 46.8131 52.8604 48.0253 52.2436 49.2551M71.1533 38.299C69.7929 38.2155 68.4041 38.1672 66.9869 38.1672C65.5813 38.1672 64.1961 38.2111 62.8314 38.299C64.1192 36.7451 65.5073 35.2779 66.9869 33.9069C68.4702 35.2775 69.862 36.7447 71.1533 38.299ZM79.7705 45.5855C79.0619 44.3528 78.3292 43.1669 77.5725 42.0279C79.5574 42.3708 81.5176 42.8447 83.4405 43.4465C82.9993 45.4182 82.4316 47.3592 81.7411 49.2573C81.1331 48.0297 80.4791 46.8021 79.7727 45.5877M49.8947 39.4146C49.3413 34.0035 50.4721 30.0638 52.9741 28.6122C53.7768 28.1679 54.6823 27.9451 55.5986 27.9665C58.116 27.9665 61.3245 29.3457 64.7429 31.9985C62.5646 34.0551 60.5655 36.2952 58.7677 38.6943C55.8053 39.0578 52.8788 39.6719 50.0193 40.5302C49.969 40.1546 49.9231 39.7835 49.8881 39.4146M46.7277 44.9179C47.0646 44.7715 47.4079 44.6251 47.7579 44.4787C48.4458 47.393 49.3787 50.2434 50.5464 52.9994C49.3765 55.7608 48.4429 58.6172 47.7557 61.5377C42.1829 59.2428 38.9526 56.0629 38.9526 52.9994C38.9526 50.0962 41.7958 47.1513 46.7277 44.9179ZM52.9741 77.3866C50.4721 75.935 49.3413 71.9953 49.8947 66.5842C49.9297 66.2153 49.9756 65.8441 50.0259 65.4664C52.8842 66.3305 55.8111 66.9469 58.7743 67.3089C60.5712 69.7073 62.5687 71.9474 64.7451 74.0047C59.9794 77.7006 55.6249 78.9194 52.9807 77.3866M84.1075 66.5842C84.6543 71.9975 83.5301 75.935 81.0259 77.3866C78.3839 78.9238 74.0272 77.7006 69.2637 74.0047C71.4393 71.9473 73.4361 69.7073 75.2323 67.3089C78.1955 66.9471 81.1224 66.3307 83.9807 65.4664C84.0332 65.8441 84.0769 66.2153 84.1141 66.5842M86.2531 61.5333C85.564 58.6145 84.6296 55.7596 83.4601 52.9994C84.6291 50.2376 85.5627 47.3813 86.2509 44.4611C91.8127 46.756 95.0518 49.9359 95.0518 52.9994C95.0518 56.0629 91.8214 59.2428 86.2487 61.5377" fill="#087EA4"/>
</g>
<defs>
<clipPath id="clip0_6206_710">
<rect width="62" height="56" fill="white" transform="translate(36 25)"/>
</clipPath>
</defs>
</svg>
