<svg viewBox="0 0 500 500" xmlns="http://www.w3.org/2000/svg"><circle cx="243.49" cy="244.98" fill="#f9f7f8" r="51.5" stroke="#24e2bb" stroke-miterlimit="10" stroke-width="10"/><g fill="none" stroke-linecap="round"><path d="m219.33 245.87s13.5 18.18 14.72 17.79 34.6-38.3 34.6-38.3" stroke="#f29021" stroke-miterlimit="10" stroke-width="10"/><path d="m142.48 320c15.17 3.89 51 28 55 30s17 2 21 2 34-6 34-6-44-9-50-11-10-7-9-12 4-6 8-7 34 5 44 5 22-4 29-4 25 3 32 6 16 13 25 13 23-1 23-1v37s-16-3-26-2a124 124 0 0 0 -22 4c-8 2-56 13-72 12s-30-4-51-16-47-35-50-41 1.25-11 9-9z" stroke="#520993" stroke-linejoin="round" stroke-width="4"/><path d="m344.51 170c-15.17-3.89-51-28-55-30s-17-2-21-2-34 6-34 6 44 9 50 11 10 7 9 12-4 6-8 7-34-5-44-5-22 4-29 4-25-3-32-6-16-13-25-13-23 1-23 1v-37s16 3 26 2a124 124 0 0 0 22-4c8-2 56-13 72-12s30 4 51 16 47 35 50 41-1.25 10.94-9 9z" stroke="#520993" stroke-linejoin="round" stroke-width="4"/></g></svg>