<svg height="190" viewBox="0 0 190 190" width="190" xmlns="http://www.w3.org/2000/svg"><circle cx="95" cy="95" fill="#1d1d1b" r="95"/><g fill="none" stroke="#fff" stroke-miterlimit="10" stroke-width="1.4595" transform="translate(-256 -16)"><path d="m427.033 139.467s.263-1.21-1.514-1.175h-57.8v.769c-.006.767-.313.611-.313.611h-15.966-.091-15.969s-.308.155-.316-.611l.006-.769h-57.803c-1.776-.035-1.512 1.175-1.512 1.175l-.014 2.457c.022 1.437 1.451 1.148 1.451 1.148h73.984.428 73.991s1.426.288 1.451-1.148z"/><path d="m413.377 67.976c.08-1.743-2.007-1.982-2.007-1.982h-59.976-59.978s-2.083.239-2.007 1.982l-.003 66.98s-.009 1.508 1.757 1.48h60.23 60.229c1.766.027 1.757-1.48 1.757-1.48zm-61.982 66.956c-.707 0-1.282-.574-1.282-1.284 0-.707.575-1.284 1.282-1.284.71 0 1.283.577 1.283 1.284 0 .709-.574 1.284-1.283 1.284zm58.738-4.057h-93.834-23.645v-61.321h95.23 22.248v61.321z"/></g></svg>