<svg height="190" viewBox="0 0 190 190" width="190" xmlns="http://www.w3.org/2000/svg"><circle cx="95" cy="95" fill="#1d1d1b" r="95"/><g fill="none" stroke="#fff" stroke-miterlimit="10" stroke-width="1.4595" transform="translate(-31 -230)"><path d="m155.017 354.105c0 2.895-2.346 5.242-5.241 5.242h-47.174c-2.891 0-5.242-2.348-5.242-5.242v-56.084c0-2.897 2.352-5.245 5.242-5.245h47.174c2.896 0 5.241 2.348 5.241 5.245z"/><path d="m158.301 357.294c0 3.227-2.614 5.841-5.838 5.841h-52.547c-3.221 0-5.838-2.614-5.838-5.841v-62.465c0-3.226 2.617-5.84 5.838-5.84h52.547c3.224 0 5.838 2.614 5.838 5.84z"/><path d="m161.784 317.12c0 .748-.607 1.351-1.352 1.351-.749 0-1.351-.603-1.351-1.351v-10.556c0-.748.602-1.357 1.351-1.357.744 0 1.352.609 1.352 1.357z"/><path d="m147.711 285.891s-1.896-3.243-2.711-11.636c-.812-8.391-1.08-9.746-16.507-9.746-.955 0-4.19 0-5.146 0-15.43 0-15.697 1.355-16.514 9.746-.809 8.393-2.705 11.636-2.705 11.636l-2.707 1.897h16.783 5.143 27.068z"/><path d="m104.127 366.699s1.896 3.243 2.707 11.636c.812 8.391 1.084 9.746 16.511 9.746h5.146c15.43 0 15.697-1.355 16.51-9.746.815-8.393 2.708-11.636 2.708-11.636l2.708-1.898h-16.781-5.145-27.068z"/></g></svg>