<svg height="190" viewBox="0 0 190 190" width="190" xmlns="http://www.w3.org/2000/svg"><circle cx="95" cy="95" fill="#ffed00" r="95"/><g fill="none" stroke="#1d1d1b" stroke-miterlimit="10" stroke-width="1.4595" transform="translate(-253 -230)"><path d="m395.363 383.582c0 2.942-2.387 5.331-5.33 5.331h-79.698c-2.943 0-5.328-2.389-5.328-5.331v-117.38c0-2.943 2.385-5.33 5.328-5.33h79.698c2.943 0 5.33 2.387 5.33 5.33z"/><path d="m310.135 271.726h79.834v105.125h-79.834z"/><circle cx="350.084" cy="266.694" r="1.282"/><path d="m353.127 383.082c0 1.576-1.28 2.856-2.854 2.856-1.576 0-2.856-1.28-2.856-2.856 0-1.574 1.28-2.854 2.856-2.854 1.574.001 2.854 1.28 2.854 2.854z"/><path d="m351.341 383.802c0 .152-.134.272-.304.272h-1.502c-.168 0-.31-.12-.31-.272v-1.556c0-.154.142-.272.31-.272h1.502c.17 0 .304.118.304.272z"/></g></svg>