<svg height="190" viewBox="0 0 190 190" width="190" xmlns="http://www.w3.org/2000/svg"><circle cx="95" cy="95" fill="#ffed00" r="95"/><g fill="none" stroke="#1d1d1b" stroke-miterlimit="10" stroke-width="1.4595" transform="translate(-31 -16)"><path d="m163.117 71.958v-18.643c0-6.063-4.918-10.978-10.982-10.978h-46.119c-6.063 0-10.98 4.914-10.98 10.978v6.728h-.451v5.465h.451v6.672h-.451v10.12h.451v2.343h-.451v10.196h.451v76.123c0 6.066 4.917 10.983 10.98 10.983h46.119c6.064 0 10.982-4.917 10.982-10.983v-88.542h.354v-10.462zm-33.762-25.954c.429 0 .779.348.779.781s-.351.781-.779.781c-.437 0-.784-.348-.784-.781s.348-.781.784-.781zm-4.767 4.592h9.58c.309 0 .563.254.563.564 0 .309-.255.562-.563.562h-9.58c-.312 0-.563-.254-.563-.562-.001-.31.25-.564.563-.564zm-6.188-.681c.678 0 1.226.547 1.226 1.22s-.548 1.223-1.226 1.223c-.673 0-1.22-.55-1.22-1.223s.548-1.22 1.22-1.22zm10.676 127.629c-2.885 0-5.231-2.346-5.231-5.23 0-2.882 2.347-5.228 5.231-5.228s5.23 2.346 5.23 5.228c.001 2.884-2.345 5.23-5.23 5.23zm29.55-13.075h-59.099v-105.17h59.099z"/><path d="m129.076 167.673c-2.561 0-4.646 2.081-4.646 4.641 0 2.562 2.085 4.646 4.646 4.646 2.56 0 4.643-2.084 4.643-4.646 0-2.56-2.083-4.641-4.643-4.641z"/></g></svg>