<svg height="29.606" viewBox="0 0 58.529 29.606" width="58.529" xmlns="http://www.w3.org/2000/svg"><path d="m143.358 103.186h-23.746a1.425 1.425 0 1 1 0-2.85h23.745a1.425 1.425 0 0 1 0 2.85" fill="#f29021" transform="translate(-92.738 -76.33)"/><path d="m74.8 57.9h-14.807a1.425 1.425 0 0 1 0-2.85h14.807a1.425 1.425 0 0 1 0 2.85" fill="#f29021" transform="translate(-43.204 -41.834)"/><g fill="none"><path d="m80.864 53.806h-27.777a2.673 2.673 0 1 1 0-5.347h27.777a2.673 2.673 0 1 1 0 5.347z" stroke="#000" stroke-linecap="round" stroke-width="3" transform="translate(-36.595 -36.492)"/><path d="m140.484 99.091h-27.777a2.673 2.673 0 1 1 0-5.347h27.777a2.673 2.673 0 0 1 0 5.347z" stroke="#000" stroke-linecap="round" stroke-width="3" transform="translate(-86.129 -70.985)"/><path d="m33.95 8.847h-27.777a2.673 2.673 0 1 1 0-5.347h27.777a2.673 2.673 0 1 1 0 5.347z" stroke="#000" stroke-linecap="round" stroke-width="3" transform="translate(-2 -2)"/></g><path d="m40.291 12.942h-27.212a1.425 1.425 0 0 1 0-2.85h27.212a1.425 1.425 0 0 1 0 2.85" fill="#f29021" transform="translate(-8.611 -7.345)"/><path d="m3.072 5.01h54.619v23.758h-54.619z" fill="none"/></svg>