<svg width="134" height="89" viewBox="0 0 134 89" fill="none" xmlns="http://www.w3.org/2000/svg">
<rect width="134" height="89" fill="white"/>
<g clip-path="url(#clip0_9142_997)">
<path d="M41.5056 39.4098C41.175 40.2007 40.7172 40.967 40.1832 41.659C35.4531 36.8887 27.646 36.7651 22.7633 41.3624C17.8807 45.9598 17.7281 53.5478 22.4581 58.2934C22.6107 58.4665 22.7887 58.6148 22.9667 58.7631L23.4245 59.1585C28.6123 63.4098 36.394 62.7672 40.7681 57.7249C42.4465 55.797 43.4637 53.3748 43.6417 50.8537C43.9977 47.8629 43.0568 44.0071 41.5056 39.4098ZM24.7469 58.8866C24.3909 59.3315 23.7297 59.381 23.2719 59.0349C22.8142 58.6889 22.7633 58.0463 23.1193 57.6014C23.4754 57.1565 24.1365 57.107 24.5943 57.4531C25.0266 57.7991 25.1029 58.4417 24.7469 58.8866ZM41.4293 55.3027C38.403 59.2327 31.8928 57.898 27.7477 58.0957C27.7477 58.0957 27.0102 58.1451 26.2727 58.244C26.2727 58.244 26.5524 58.1204 26.9085 57.9968C29.833 57.0082 31.2062 56.8104 32.9863 55.9206C36.3177 54.2646 39.6491 50.6312 40.3103 46.8743C39.0388 50.4829 35.1734 53.5972 31.664 54.8578C29.2481 55.7229 24.8995 56.5633 24.8995 56.5633L24.7214 56.4644C21.7715 55.0555 21.6698 48.8269 27.061 46.8248C29.4261 45.935 31.664 46.4294 34.2324 45.8362C36.9535 45.2183 40.1069 43.2409 41.3784 40.6456C42.8025 44.8228 44.5318 51.2986 41.4293 55.3027Z" fill="#6DB33F"/>
<path d="M50.6357 54.7089C50.3052 54.5112 50.1017 54.1651 50.1271 53.7944C50.1271 53.2012 50.6103 52.7068 51.2206 52.7068C51.2206 52.7068 51.2206 52.7068 51.2461 52.7068C51.4495 52.7068 51.653 52.7563 51.831 52.8551C52.8482 53.5472 54.0434 53.918 55.2641 53.9674C56.4339 53.9674 57.1205 53.4731 57.1205 52.7068V52.6574C57.1205 51.7429 55.849 51.4463 54.4503 51.0261C52.6956 50.5318 50.712 49.8397 50.712 47.6152V47.5658C50.712 45.366 52.5939 44.0312 54.9589 44.0312C56.2813 44.056 57.5528 44.3773 58.7226 44.9705C59.1295 45.1682 59.3838 45.539 59.3838 45.9839C59.3838 46.5771 58.8752 47.0714 58.2649 47.0714H58.2395C58.0614 47.0714 57.8834 47.022 57.7054 46.9478C56.8408 46.4782 55.8999 46.2063 54.9081 46.1569C53.84 46.1569 53.2297 46.6512 53.2297 47.2939V47.3433C53.2297 48.2084 54.5266 48.5544 55.9253 48.9993C57.68 49.5184 59.6381 50.3093 59.6381 52.3855V52.435C59.6381 54.8819 57.68 56.093 55.2132 56.093C53.5857 56.0683 51.9836 55.5987 50.6357 54.7089Z" fill="#6DB33F"/>
<path d="M60.6551 45.39C60.6296 44.6732 61.24 44.08 61.9774 44.0553H62.0029C62.7658 44.0553 63.3761 44.6485 63.3761 45.39V46.1809C64.2662 44.9698 65.5123 44.0059 67.445 44.0059C70.2423 44.0059 72.9888 46.1562 72.9888 50.0368V50.0862C72.9888 53.942 70.2678 56.1171 67.445 56.1171C65.4614 56.1171 64.2153 55.1531 63.3761 54.0656V58.1686C63.3761 58.9101 62.7658 59.5033 62.0029 59.5033C61.2654 59.5033 60.6551 58.9101 60.6551 58.1933V58.1686V45.39ZM70.2423 50.0862V50.0368C70.2423 47.7875 68.6911 46.3292 66.8347 46.3292C64.9782 46.3292 63.3507 47.837 63.3507 50.0368V50.0862C63.3507 52.3107 64.9782 53.7937 66.8347 53.7937C68.6911 53.7937 70.2423 52.3849 70.2423 50.0862Z" fill="#6DB33F"/>
<path d="M74.0567 45.3908C74.0313 44.6741 74.6416 44.0809 75.3791 44.0561H75.4045C76.1674 44.0561 76.7777 44.6493 76.7777 45.3908V46.0335C76.9049 45.0448 78.5833 44.0561 79.7785 44.0561C80.4652 44.0067 81.0755 44.501 81.1264 45.1684C81.1264 45.2425 81.1264 45.292 81.1264 45.3661C81.1264 46.0088 80.6686 46.5525 80.0328 46.6514C78.0747 46.9727 76.7523 48.6287 76.7523 50.9274V54.7585C76.7523 55.5 76.142 56.0685 75.3791 56.0685C74.6416 56.0685 74.0312 55.5 74.0312 54.7832C74.0312 54.7832 74.0312 54.7832 74.0312 54.7585L74.0567 45.3908Z" fill="#6DB33F"/>
<path d="M82.2195 45.4148C82.1941 44.698 82.8044 44.1048 83.5419 44.0801H83.5673C84.3302 44.0801 84.9406 44.6733 84.9406 45.4148V54.7824C84.9406 55.524 84.3302 56.0924 83.5673 56.0924C82.8044 56.0924 82.2195 55.4992 82.2195 54.7824V45.4148Z" fill="#6DB33F"/>
<path d="M86.3399 45.4146C86.3144 44.6978 86.9248 44.1046 87.6623 44.0799H87.6877C88.4506 44.0799 89.0609 44.6731 89.0609 45.4146V45.9583C89.8747 44.7225 91.2988 44.0057 92.7992 44.0551C95.4948 44.0551 97.0461 45.81 97.0461 48.5042V54.7575C97.0715 55.4743 96.4866 56.0428 95.7491 56.0675C95.7237 56.0675 95.7237 56.0675 95.6983 56.0675C94.9608 56.0922 94.3505 55.499 94.325 54.7822V54.7575V49.3198C94.325 47.5155 93.4096 46.4774 91.7566 46.4774C90.1799 46.4774 89.0609 47.5649 89.0609 49.3692V54.7822C89.0609 55.5237 88.4506 56.1169 87.6877 56.1169C86.9248 56.1169 86.3145 55.5237 86.3145 54.7822L86.3399 45.4146Z" fill="#6DB33F"/>
<path d="M109.099 44.0319C108.336 44.0319 107.726 44.6251 107.726 45.3666V46.1575C106.836 44.9464 105.59 43.9824 103.657 43.9824C100.86 43.9824 98.1133 46.1328 98.1133 50.0133V50.0628C98.1133 53.9186 100.834 56.0936 103.657 56.0936C105.641 56.0936 106.887 55.1297 107.726 54.0669C107.599 56.1678 106.276 57.2553 103.962 57.2553C102.691 57.2553 101.419 56.9587 100.3 56.3408C100.148 56.2667 99.9951 56.2419 99.8171 56.2419C99.1814 56.2419 98.6728 56.7116 98.6473 57.3295C98.6473 57.7991 98.9525 58.244 99.4102 58.3923C100.86 59.0844 102.436 59.4304 104.039 59.4304C106.2 59.4304 107.879 58.9361 108.947 57.8733C109.938 56.9093 110.472 55.451 110.472 53.4984V45.3913C110.498 44.6498 109.888 44.0566 109.125 44.0319H109.099ZM104.293 53.795C102.411 53.795 100.885 52.3614 100.885 50.0628V50.0133C100.885 47.7641 102.436 46.3058 104.293 46.3058C106.149 46.3058 107.777 47.8135 107.777 50.0133V50.0628C107.802 52.2873 106.175 53.795 104.293 53.795Z" fill="#6DB33F"/>
<path d="M84.9672 40.8667C84.9672 41.6082 84.3569 42.2014 83.5939 42.2014C82.831 42.2014 82.2207 41.6082 82.2207 40.8667C82.2207 40.1252 82.831 39.532 83.5939 39.532C84.3314 39.5073 84.9418 40.1005 84.9672 40.8173C84.9672 40.842 84.9672 40.842 84.9672 40.8667Z" fill="#6DB33F"/>
<path d="M113.602 46.8243C112.839 46.8243 112.203 46.2064 112.203 45.4649C112.203 44.7234 112.839 44.1055 113.602 44.1055C114.365 44.1055 115 44.7234 115 45.4649C115 46.2064 114.365 46.8243 113.602 46.8243ZM113.602 44.3032C112.941 44.3032 112.407 44.8223 112.407 45.4649C112.407 46.1075 112.941 46.6266 113.602 46.6266C114.263 46.6266 114.797 46.1075 114.797 45.4649C114.797 44.8223 114.288 44.3032 113.627 44.3032H113.602ZM113.983 46.2311L113.576 45.6132H113.297V46.2311H113.068V44.674H113.729C114.009 44.6492 114.238 44.8717 114.263 45.1436C114.263 45.366 114.085 45.5638 113.856 45.6132L114.288 46.2311H113.983ZM113.704 44.8717H113.297V45.4155H113.729C113.882 45.4155 114.009 45.2919 114.009 45.1436C114.009 44.9953 113.882 44.8717 113.704 44.8717Z" fill="#6DB33F"/>
<path d="M40.7676 57.7248C42.446 55.7969 43.4632 53.3746 43.6412 50.8535Z" fill="#6DB33F"/>
<path d="M41.4301 55.3016C38.4039 59.2316 31.8937 57.8968 27.7485 58.0946C27.7485 58.0946 27.011 58.144 26.2735 58.2429C26.2735 58.2429 26.5533 58.1193 26.9093 57.9957C29.8338 57.007 31.2071 56.8093 32.9872 55.9195C36.3186 54.2635 39.65 50.6301 40.3112 46.8732C39.0396 50.4818 35.1742 53.5961 31.6648 54.8567C29.2489 55.7218 24.9003 56.5621 24.9003 56.5621L24.7223 56.4633C21.7724 55.0544 21.6706 48.8258 27.0619 46.8237C29.4269 45.9339 31.6648 46.4283 34.2333 45.8351C36.9543 45.2171 40.1077 43.2398 41.3792 40.6445C42.8034 44.8217 44.5326 51.2975 41.4301 55.3016Z" fill="white"/>
<path d="M24.7479 58.8853C24.3919 59.3302 23.7307 59.3796 23.2729 59.0336C22.8152 58.6875 22.7643 58.0449 23.1204 57.6C23.4764 57.1551 24.1376 57.1057 24.5953 57.4517C25.0276 57.7977 25.1039 58.4404 24.7479 58.8853Z" fill="white"/>
</g>
<defs>
<clipPath id="clip0_9142_997">
<rect width="96" height="24" fill="white" transform="translate(19 38)"/>
</clipPath>
</defs>
</svg>
