<svg width="134" height="90" viewBox="0 0 134 90" fill="none" xmlns="http://www.w3.org/2000/svg">
<rect width="134" height="89" transform="translate(0 0.5)" fill="white"/>
<g clip-path="url(#clip0_9142_997)">
<path d="M45.2241 35.7331C44.9417 36.4252 44.5507 37.0956 44.0945 37.7012C40.0543 33.5271 33.3857 33.419 29.2151 37.4416C25.0445 41.4643 24.9141 48.1038 28.9544 52.2563C29.0847 52.4077 29.2368 52.5374 29.3888 52.6672L29.7798 53.0132C34.2111 56.7331 40.858 56.1708 44.5941 51.7588C46.0278 50.0719 46.8966 47.9525 47.0487 45.7465C47.3528 43.1296 46.5491 39.7558 45.2241 35.7331ZM30.9094 52.7753C30.6053 53.1646 30.0405 53.2079 29.6495 52.9051C29.2585 52.6023 29.2151 52.04 29.5192 51.6507C29.8233 51.2614 30.388 51.2182 30.779 51.5209C31.1483 51.8237 31.2135 52.386 30.9094 52.7753ZM45.1589 49.6394C42.574 53.0781 37.0132 51.9102 33.4725 52.0832C33.4725 52.0832 32.8426 52.1265 32.2127 52.213C32.2127 52.213 32.4516 52.1049 32.7557 51.9967C35.2537 51.1317 36.4267 50.9586 37.9472 50.1801C40.7928 48.731 43.6384 45.5518 44.2031 42.2645C43.117 45.4221 39.8153 48.1471 36.8177 49.2501C34.7541 50.007 31.0397 50.7424 31.0397 50.7424L30.8876 50.6559C28.3679 49.4231 28.281 43.9731 32.886 42.2213C34.9062 41.4427 36.8177 41.8752 39.0116 41.3562C41.3359 40.8155 44.0294 39.0853 45.1155 36.8145C46.3319 40.4694 47.809 46.1358 45.1589 49.6394Z" fill="#6DB33F"/>
<path d="M53.0222 49.1203C52.7398 48.9473 52.566 48.6445 52.5878 48.3201C52.5878 47.801 53.0005 47.3685 53.5218 47.3685C53.5218 47.3685 53.5218 47.3685 53.5435 47.3685C53.7173 47.3685 53.8911 47.4117 54.0431 47.4982C54.912 48.1038 55.9329 48.4282 56.9756 48.4715C57.9748 48.4715 58.5613 48.0389 58.5613 47.3685V47.3252C58.5613 46.525 57.4752 46.2655 56.2805 45.8978C54.7817 45.4653 53.0874 44.8597 53.0874 42.9133V42.87C53.0874 40.9452 54.6948 39.7773 56.7149 39.7773C57.8444 39.799 58.9305 40.0801 59.9297 40.5992C60.2773 40.7722 60.4945 41.0966 60.4945 41.4859C60.4945 42.0049 60.0601 42.4375 59.5388 42.4375H59.517C59.365 42.4375 59.2129 42.3942 59.0609 42.3294C58.3223 41.9184 57.5186 41.6805 56.6715 41.6373C55.7592 41.6373 55.2378 42.0698 55.2378 42.6321V42.6754C55.2378 43.4323 56.3456 43.7351 57.5403 44.1244C59.0392 44.5786 60.7117 45.2707 60.7117 47.0873V47.1306C60.7117 49.2717 59.0392 50.3314 56.9321 50.3314C55.5419 50.3098 54.1735 49.8989 53.0222 49.1203Z" fill="#6DB33F"/>
<path d="M61.5807 40.967C61.559 40.3398 62.0803 39.8207 62.7103 39.7991H62.732C63.3836 39.7991 63.905 40.3182 63.905 40.967V41.6591C64.6652 40.5993 65.7296 39.7559 67.3805 39.7559C69.7699 39.7559 72.1158 41.6374 72.1158 45.0329V45.0761C72.1158 48.45 69.7916 50.3532 67.3805 50.3532C65.6862 50.3532 64.6218 49.5097 63.905 48.5581V52.1482C63.905 52.7971 63.3836 53.3161 62.732 53.3161C62.1021 53.3161 61.5807 52.7971 61.5807 52.1699V52.1482V40.967ZM69.7699 45.0761V45.0329C69.7699 43.0648 68.4448 41.7888 66.8591 41.7888C65.2734 41.7888 63.8832 43.1081 63.8832 45.0329V45.0761C63.8832 47.0226 65.2734 48.3202 66.8591 48.3202C68.4448 48.3202 69.7699 47.0875 69.7699 45.0761Z" fill="#6DB33F"/>
<path d="M73.0276 40.9658C73.0059 40.3386 73.5272 39.8195 74.1571 39.7979H74.1788C74.8305 39.7979 75.3518 40.317 75.3518 40.9658V41.5281C75.4604 40.663 76.8941 39.7979 77.915 39.7979C78.5015 39.7546 79.0228 40.1872 79.0663 40.7711C79.0663 40.836 79.0663 40.8793 79.0663 40.9441C79.0663 41.5064 78.6753 41.9822 78.1322 42.0688C76.4596 42.3499 75.3301 43.7989 75.3301 45.8103V49.1625C75.3301 49.8113 74.8088 50.3087 74.1571 50.3087C73.5272 50.3087 73.0059 49.8113 73.0059 49.1841C73.0059 49.1841 73.0059 49.1841 73.0059 49.1625L73.0276 40.9658Z" fill="#6DB33F"/>
<path d="M80.0007 40.9882C79.9789 40.361 80.5003 39.8419 81.1302 39.8203H81.1519C81.8036 39.8203 82.3249 40.3394 82.3249 40.9882V49.1849C82.3249 49.8337 81.8036 50.3311 81.1519 50.3311C80.5003 50.3311 80.0007 49.8121 80.0007 49.1849V40.9882Z" fill="#6DB33F"/>
<path d="M83.5198 40.9885C83.498 40.3613 84.0194 39.8422 84.6493 39.8206H84.671C85.3227 39.8206 85.844 40.3397 85.844 40.9885V41.4643C86.5391 40.3829 87.7555 39.7557 89.0371 39.799C91.3396 39.799 92.6647 41.3345 92.6647 43.6919V49.1635C92.6864 49.7907 92.1868 50.2882 91.5568 50.3098C91.5351 50.3098 91.5351 50.3098 91.5134 50.3098C90.8835 50.3314 90.3622 49.8124 90.3404 49.1852V49.1635V44.4056C90.3404 42.8268 89.5584 41.9184 88.1465 41.9184C86.7998 41.9184 85.844 42.87 85.844 44.4488V49.1852C85.844 49.834 85.3227 50.353 84.671 50.353C84.0194 50.353 83.498 49.834 83.498 49.1852L83.5198 40.9885Z" fill="#6DB33F"/>
<path d="M102.96 39.7776C102.308 39.7776 101.787 40.2967 101.787 40.9455V41.6376C101.027 40.5778 99.9624 39.7344 98.3115 39.7344C95.9221 39.7344 93.5762 41.6159 93.5762 45.0114V45.0547C93.5762 48.4285 95.9004 50.3317 98.3115 50.3317C100.006 50.3317 101.07 49.4882 101.787 48.5583C101.678 50.3966 100.549 51.3482 98.5722 51.3482C97.4861 51.3482 96.4 51.0886 95.4443 50.548C95.3139 50.4831 95.1836 50.4615 95.0315 50.4615C94.4885 50.4615 94.0541 50.8724 94.0323 51.4131C94.0323 51.824 94.293 52.2133 94.684 52.343C95.9221 52.9486 97.2689 53.2514 98.6374 53.2514C100.484 53.2514 101.917 52.8188 102.83 51.8889C103.677 51.0454 104.133 49.7694 104.133 48.0608V40.9671C104.155 40.3183 103.633 39.7993 102.982 39.7776H102.96ZM98.8546 48.3204C97.2472 48.3204 95.9439 47.066 95.9439 45.0547V45.0114C95.9439 43.0433 97.2689 41.7673 98.8546 41.7673C100.44 41.7673 101.83 43.0866 101.83 45.0114V45.0547C101.852 47.0011 100.462 48.3204 98.8546 48.3204Z" fill="#6DB33F"/>
<path d="M82.346 37.0084C82.346 37.6572 81.8246 38.1762 81.173 38.1762C80.5213 38.1762 80 37.6572 80 37.0084C80 36.3595 80.5213 35.8405 81.173 35.8405C81.8029 35.8189 82.3242 36.3379 82.346 36.9651C82.346 36.9867 82.346 36.9867 82.346 37.0084Z" fill="#6DB33F"/>
<path d="M106.806 42.2208C106.154 42.2208 105.611 41.6801 105.611 41.0313C105.611 40.3825 106.154 39.8418 106.806 39.8418C107.458 39.8418 108.001 40.3825 108.001 41.0313C108.001 41.6801 107.458 42.2208 106.806 42.2208ZM106.806 40.0148C106.241 40.0148 105.785 40.469 105.785 41.0313C105.785 41.5936 106.241 42.0478 106.806 42.0478C107.371 42.0478 107.827 41.5936 107.827 41.0313C107.827 40.469 107.393 40.0148 106.828 40.0148H106.806ZM107.132 41.7017L106.784 41.1611H106.545V41.7017H106.35V40.3392H106.915C107.154 40.3176 107.349 40.5122 107.371 40.7501C107.371 40.9448 107.219 41.1178 107.023 41.1611L107.393 41.7017H107.132ZM106.893 40.5122H106.545V40.988H106.915C107.045 40.988 107.154 40.8799 107.154 40.7501C107.154 40.6204 107.045 40.5122 106.893 40.5122Z" fill="#6DB33F"/>
<path d="M44.5938 51.7585C46.0274 50.0715 46.8963 47.9521 47.0483 45.7461Z" fill="#6DB33F"/>
<path d="M45.1586 49.6394C42.5737 53.0781 37.0129 51.9102 33.4723 52.0833C33.4723 52.0833 32.8423 52.1265 32.2124 52.213C32.2124 52.213 32.4514 52.1049 32.7555 51.9967C35.2535 51.1317 36.4265 50.9586 37.947 50.1801C40.7925 48.731 43.6381 45.5518 44.2029 42.2645C43.1168 45.4221 39.8151 48.1471 36.8174 49.2501C34.7539 50.007 31.0394 50.7424 31.0394 50.7424L30.8874 50.6559C28.3676 49.4231 28.2808 43.9731 32.8858 42.2213C34.9059 41.4427 36.8174 41.8752 39.0114 41.3562C41.3356 40.8155 44.0291 39.0853 45.1152 36.8145C46.3316 40.4694 47.8087 46.1358 45.1586 49.6394Z" fill="white"/>
<path d="M30.9101 52.7753C30.606 53.1646 30.0412 53.2079 29.6502 52.9051C29.2592 52.6023 29.2158 52.04 29.5199 51.6507C29.824 51.2614 30.3888 51.2182 30.7797 51.521C31.149 51.8237 31.2142 52.3861 30.9101 52.7753Z" fill="white"/>
</g>
<defs>
<clipPath id="clip0_9142_997">
<rect width="82" height="21" fill="white" transform="translate(26 34.5)"/>
</clipPath>
</defs>
</svg>
