<svg width="134" height="89" viewBox="0 0 134 89" fill="none" xmlns="http://www.w3.org/2000/svg">
<g clip-path="url(#clip0_6857_770)">
<rect width="134" height="89" fill="white"/>
<g clip-path="url(#clip1_6857_770)">
<path d="M89.4573 33.572C89.4544 33.0792 89.449 32.5866 89.4356 32.0933C89.4072 31.0201 89.3444 29.9371 89.1558 28.8754C88.9643 27.7971 88.6514 26.7945 88.1583 25.815C87.6741 24.8531 87.0413 23.9729 86.2864 23.2096C85.5316 22.4462 84.661 21.8064 83.7093 21.3167C82.7414 20.8186 81.7497 20.5023 80.6843 20.3087C79.6337 20.1174 78.5626 20.0544 77.5004 20.0253C77.0127 20.012 76.5255 20.0064 76.038 20.0033C75.4593 20 74.8802 20 74.3017 20H61.4735H56.159C55.5799 20 55.0015 20 54.423 20.0034C53.9353 20.0064 53.4475 20.012 52.9606 20.0254C52.695 20.0327 52.429 20.0421 52.1627 20.055C51.364 20.094 50.5642 20.1653 49.7766 20.3088C48.9775 20.454 48.2198 20.6682 47.4827 20.9764C47.237 21.079 46.9935 21.1922 46.7515 21.3167C46.0377 21.684 45.3694 22.1357 44.7616 22.6606C44.559 22.8356 44.3631 23.0187 44.1744 23.2095C43.4194 23.9728 42.7865 24.853 42.3024 25.815C41.8092 26.7944 41.4967 27.797 41.3051 28.8753C41.1166 29.937 41.054 31.02 41.0254 32.0932C41.012 32.5866 41.0064 33.0791 41.0032 33.5719C40.9995 34.1572 41 34.7425 41 35.3277V43.3156V53.6719C41 54.2576 40.9995 54.8424 41.0032 55.4281C41.0064 55.9209 41.012 56.4134 41.0254 56.906C41.054 57.9798 41.1166 59.063 41.3051 60.1242C41.4967 61.2021 41.8092 62.2056 42.3024 63.1849C42.7865 64.147 43.4194 65.027 44.1744 65.79C44.929 66.5537 45.7998 67.1934 46.7516 67.6835C47.7196 68.1816 48.7112 68.4976 49.7768 68.6911C50.8268 68.8822 51.8987 68.9457 52.9606 68.9744C53.4476 68.9875 53.9354 68.9934 54.4231 68.9962C55.0016 69.0004 55.58 68.9998 56.1591 68.9998H74.3017C74.8802 68.9998 75.4593 69.0004 76.0379 68.9962C76.5254 68.9934 77.0126 68.9875 77.5003 68.9744C78.5626 68.9457 79.6336 68.8821 80.6842 68.6911C81.7496 68.4976 82.7413 68.1816 83.7092 67.6835C84.661 67.1935 85.5315 66.5537 86.2863 65.79C87.0412 65.0269 87.6741 64.147 88.1582 63.1849C88.6513 62.2056 88.9643 61.2022 89.1557 60.1242C89.3443 59.063 89.4071 57.9798 89.4355 56.906C89.4489 56.4134 89.4542 55.921 89.4572 55.4281C89.4609 54.8424 89.4606 54.2576 89.4606 53.6719V35.3277C89.4607 34.7425 89.4609 34.1572 89.4573 33.572Z" fill="#F05138"/>
<path d="M79.4005 50.2459C79.3994 50.2444 79.3983 50.2433 79.3971 50.2419C79.4507 50.0574 79.506 49.8741 79.5529 49.685C81.5643 41.5824 76.6554 32.0029 68.3485 26.959C71.9887 31.9487 73.5983 37.9925 72.1682 43.2779C72.0407 43.7493 71.8874 44.2017 71.7179 44.6415C71.534 44.5193 71.3022 44.3806 70.991 44.2071C70.991 44.2071 62.7279 39.0484 53.772 29.9238C53.537 29.6843 58.5476 37.1652 64.2341 43.2399C61.555 41.7196 54.0887 36.2267 49.362 31.8525C49.9427 32.8317 50.6334 33.7746 51.3926 34.6824C55.3398 39.744 60.4875 45.9891 66.6546 50.7846C62.3215 53.4659 56.1988 53.6743 50.1027 50.7874C48.5949 50.073 47.1774 49.2109 45.8652 48.2314C48.4457 52.4048 52.42 56.0057 57.2571 58.1078C63.0255 60.6143 68.7618 60.4444 73.0342 58.1489L73.0309 58.1538C73.0504 58.1413 73.0752 58.1277 73.0954 58.1151C73.2708 58.0197 73.445 57.9226 73.6153 57.8201C75.668 56.7427 79.7225 55.6497 81.8987 59.9312C82.4317 60.979 83.5643 55.4261 79.4005 50.2459Z" fill="white"/>
<path d="M107.852 51.7981C108.23 55.1975 111.437 57.4263 115.89 57.4263C120.121 57.4263 123.171 55.1975 123.171 52.1136C123.171 49.4568 121.323 47.835 117.07 46.7548L112.951 45.6966C107.028 44.2105 104.355 41.5084 104.355 37.0509C104.355 31.5574 109.098 27.752 115.846 27.752C122.392 27.752 127.046 31.5795 127.202 37.0961H122.86C122.526 33.7188 119.809 31.6468 115.734 31.6468C111.704 31.6468 108.898 33.7409 108.898 36.8027C108.898 39.1892 110.635 40.6081 114.91 41.7115L118.34 42.6118C124.975 44.2558 127.692 46.8674 127.692 51.5731C127.692 57.5621 122.993 61.3223 115.511 61.3223C108.564 61.3223 103.821 57.5842 103.465 51.7983L107.852 51.7981Z" fill="white"/>
<path d="M155.274 60.7807H150.909L145.81 42.8138H145.721L140.644 60.7807H136.28L129.822 37.252H134.053L138.551 56.1423H138.64L143.717 37.252H147.814L152.936 56.1423H153.025L157.523 37.252H161.709L155.274 60.7807Z" fill="white"/>
</g>
</g>
<defs>
<clipPath id="clip0_6857_770">
<rect width="134" height="89" fill="white"/>
</clipPath>
<clipPath id="clip1_6857_770">
<rect width="156" height="49" fill="white" transform="translate(41 20)"/>
</clipPath>
</defs>
</svg>
