<svg viewBox="0 0 500 500" xmlns="http://www.w3.org/2000/svg"><circle cx="254.06" cy="294.13" fill="none" r="109" stroke="#24e2bb" stroke-miterlimit="10" stroke-width="4"/><rect fill="#f9f7f8" height="77.57" rx="27.95" width="77.57" x="215.75" y="158.37"/><circle cx="228.87" cy="130.42" fill="#520993" r="11.41"/><circle cx="273.36" cy="124.72" fill="#520993" r="11.41"/><rect fill="#f9f7f8" height="77.57" rx="27.95" width="77.57" x="119.06" y="319.2"/><path d="m128.54 279.55-9.48 39.65h77.58l-13.64-39.65z" fill="#520993"/><path d="m156 258.45a28.64 28.64 0 0 0 -28.65 28.23h57.3a28.66 28.66 0 0 0 -28.65-28.23z" fill="#520993" stroke="#520993" stroke-miterlimit="10" stroke-width="2"/><path d="m128.48 299.46a27.52 27.52 0 0 0 27.52 27.54 27.52 27.52 0 0 0 27.52-27.52v-11.25c0-.13 0-.27 0-.41h-55v.41z" fill="#fff" stroke="#520993" stroke-miterlimit="10" stroke-width="4"/><path d="m156.14 318.63a8 8 0 0 0 8-8h-16a8 8 0 0 0 8 8z" fill="#f29021"/><path d="m252.69 100.48a28.66 28.66 0 0 0 -28.69 28.23h57.31a28.66 28.66 0 0 0 -28.62-28.23z" fill="#520993"/><path d="m225.16 140.92a27.53 27.53 0 0 0 27.53 27.52 27.52 27.52 0 0 0 27.52-27.52v-11.23c0-.13 0-.27 0-.41h-55v.41z" fill="#fff" stroke="#520993" stroke-miterlimit="10" stroke-width="4"/><path d="m252.83 160.09a8 8 0 0 0 8-8h-16a8 8 0 0 0 8 8z" fill="#f29021"/><g fill="#520993"><circle cx="232.29" cy="116.16" r="11.41"/><circle cx="239.14" cy="108.18" r="11.41"/><circle cx="254.54" cy="106.47" r="11.41"/><circle cx="269.94" cy="109.32" r="11.41"/><circle cx="275.64" cy="117.88" r="11.41"/><circle cx="235.92" cy="124.43" r="11.41"/><circle cx="248.47" cy="125.84" r="7.33"/></g><rect fill="#f9f7f8" height="77.57" rx="27.95" width="77.57" x="305.74" y="317.87"/><path d="m342.65 258.12a28.28 28.28 0 0 0 -28.27 27.88h56.54a28.28 28.28 0 0 0 -28.27-27.88z" fill="#520993" stroke="#520993" stroke-miterlimit="10" stroke-width="2"/><path d="m315.15 298.13a27.52 27.52 0 0 0 27.52 27.52 27.52 27.52 0 0 0 27.52-27.52v-11.23c0-.13 0-.27 0-.41h-55v.41z" fill="#fff" stroke="#520993" stroke-miterlimit="10" stroke-width="4"/><path d="m342.81 317.3a8 8 0 0 0 8-8h-16a8 8 0 0 0 8 8z" fill="#f29021"/></svg>