<svg viewBox="0 0 500 500" xmlns="http://www.w3.org/2000/svg"><rect fill="#520993" height="119.32" rx="4.87" width="75.9" x="58" y="246.71"/><rect fill="none" height="58.1" rx="2.98" stroke="#520993" stroke-miterlimit="10" stroke-width="4" width="58.41" x="237.91" y="118.02"/><circle cx="398.77" cy="309.8" fill="#f9f7f8" r="41.23"/><path d="m314.85 147.76c20.49-2.92 42.17 3.19 57.79 16.89a73.37 73.37 0 0 1 24.62 52.58c.12 3.61 5.74 3.63 5.62 0-.7-22-10.54-43.35-27.44-57.56-17.19-14.46-40-20.48-62.08-17.33-3.57.51-2.05 5.93 1.49 5.42z" fill="#24e2bb"/><path d="m426.26 212.35h-51.24l26.25 38.73z" fill="#24e2bb"/><path d="m100.55 227.41c-2.93-20.49 3.18-42.17 16.88-57.78a73.34 73.34 0 0 1 52.57-24.63c3.61-.11 3.63-5.73 0-5.62-21.95.7-43.35 10.55-57.56 27.45-14.44 17.17-20.44 39.96-17.31 62.08.51 3.57 5.92 2.05 5.42-1.5z" fill="#f29021"/><path d="m165.13 116v51.24l38.74-26.24z" fill="#f29021"/><path d="m249.71 196c2.93 20.49-3.18 42.17-16.88 57.79a73.37 73.37 0 0 1 -52.58 24.62c-3.61.12-3.63 5.74 0 5.62 21.95-.7 43.35-10.55 57.56-27.44 14.46-17.19 20.48-40 17.32-62.09-.51-3.56-5.92-2-5.42 1.5z" fill="#24e2bb"/><path d="m185.13 307.45v-51.24l-38.74 26.25z" fill="#24e2bb"/><g fill="#f29021"><path d="m372.28 363.1a71.79 71.79 0 0 1 -107.41 9.18c-2.64-2.47-6.62 1.5-4 4 16.41 15.38 39.17 23.57 61.65 21.15a79.18 79.18 0 0 0 54.59-31.47c2.17-2.9-2.7-5.7-4.85-2.84z"/><path d="m247.81 396.24 36.23-36.23-45.94-8.83z"/></g></svg>