<svg height="36.367" viewBox="0 0 43.766 36.367" width="43.766" xmlns="http://www.w3.org/2000/svg"><path d="m4.97 0-1.523 3.138-3.447.524 2.513 2.417-.567 3.441 3.076-1.643 3.1 1.6-.615-3.43 2.481-2.447-3.454-.483z" fill="#f7931e"/><path d="m15.809 4.76h26.456" fill="none" stroke="#000" stroke-linecap="round" stroke-width="3"/><path d="m0 0h43.354v36.367h-43.354z" fill="none"/><path d="m3.447 46.282-3.447.524 2.513 2.418-.567 3.441 3.076-1.643 3.1 1.6-.612-3.433 2.481-2.45-3.454-.479-1.567-3.115z" fill="#f7931e" transform="translate(0 -29.721)"/><path d="m15.81 18.183h26.456" fill="none" stroke="#000" stroke-linecap="round" stroke-width="3"/><path d="m0 0h43.354v36.367h-43.354z" fill="none"/><path d="m3.447 89.428-3.447.524 2.513 2.418-.567 3.441 3.076-1.643 3.1 1.6-.612-3.433 2.481-2.45-3.454-.479-1.567-3.115z" fill="#f7931e" transform="translate(0 -59.444)"/><g fill="none"><path d="m15.81 31.607h26.456" stroke="#000" stroke-linecap="round" stroke-width="3"/><path d="m0 0h43.354v36.367h-43.354z"/></g></svg>