<svg height="27.8" viewBox="0 0 76.666 27.8" width="76.666" xmlns="http://www.w3.org/2000/svg" xmlns:xlink="http://www.w3.org/1999/xlink"><clipPath id="a"><path d="m0 0h76.666v27.8h-76.666z"/></clipPath><g clip-path="url(#a)" fill="none" stroke="#000" stroke-linecap="round" stroke-width="3"><path d="m0 0v17.007" transform="translate(35.345 8.939)"/><path d="m20.312 0h-20.312" transform="translate(25.126 26.566)"/></g><path d="m116.577 13.072h-16.342v-9.572h16.343l-4.514 4.825z" fill="#fe6b00" transform="translate(-64.89 -2.266)"/><g clip-path="url(#a)" fill="none" stroke="#000" stroke-linecap="round" stroke-width="3"><path d="m116.577 13.072h-16.342v-9.572h16.343l-4.514 4.825z" transform="translate(-64.89 -2.266)"/><path d="m0 0v11.775" transform="translate(8.31 14.361)"/><path d="m14.063 0h-14.063" transform="translate(1.234 26.566)"/></g><path d="m34.88 32.227h-11.316v-6.627h11.316l-3.125 3.34z" fill="#fff" transform="translate(-15.255 -16.572)"/><path d="m34.88 32.227h-11.316v-6.627h11.316l-3.125 3.34z" fill="none" stroke="#000" stroke-linecap="round" stroke-width="3" transform="translate(-15.255 -16.572)"/><g clip-path="url(#a)" fill="none" stroke="#000" stroke-linecap="round" stroke-width="3"><path d="m0 0v11.775" transform="translate(62.474 14.361)"/><path d="m14.063 0h-14.063" transform="translate(55.399 26.566)"/></g><path d="m188.485 32.227h-11.315v-6.627h11.315l-3.125 3.34z" fill="#fff" transform="translate(-114.696 -16.572)"/><g clip-path="url(#a)"><path d="m188.485 32.227h-11.315v-6.627h11.315l-3.125 3.34z" fill="none" stroke="#000" stroke-linecap="round" stroke-width="3" transform="translate(-114.696 -16.572)"/></g></svg>