<svg height="30" viewBox="0 0 30 30" width="30" xmlns="http://www.w3.org/2000/svg"><circle cx="15" cy="15" fill="#520993" r="15"/><path d="m31.883 21.258a4.766 4.766 0 0 1 -1.839.652 2.947 2.947 0 0 0 -5 2.695 8.165 8.165 0 0 1 -6.077-3.059 2.95 2.95 0 0 0 .894 3.9 1.9 1.9 0 0 1 -1.287-.334 2.841 2.841 0 0 0 2.274 2.881 2.334 2.334 0 0 1 -1.228.093 2.787 2.787 0 0 0 2.635 2 5.243 5.243 0 0 1 -4.255 1.221 8.858 8.858 0 0 0 4.612 1.3 8.19 8.19 0 0 0 8.251-8.607c0-.005 0-.01 0-.016s0-.024 0-.037 0-.029 0-.043a5.086 5.086 0 0 0 1.427-1.504 5.166 5.166 0 0 1 -1.635.464 3.132 3.132 0 0 0 1.228-1.6" fill="#fff" fill-rule="evenodd" transform="translate(-10 -11)"/></svg>