<svg xmlns="http://www.w3.org/2000/svg" width="30" height="30" viewBox="0 0 30 30">
  <g id="Group_114" data-name="Group 114" transform="translate(-1078 -3884)">
    <circle id="Oval-1" cx="15" cy="15" r="15" transform="translate(1078 3884)" fill="#520993"/>
    <path id="Fill-1" d="M31.883,21.258a4.766,4.766,0,0,1-1.839.652h0a2.947,2.947,0,0,0-5,2.695h0a8.165,8.165,0,0,1-6.077-3.059,2.95,2.95,0,0,0,.894,3.9,1.9,1.9,0,0,1-1.287-.334,2.841,2.841,0,0,0,2.274,2.881,2.334,2.334,0,0,1-1.228.093,2.787,2.787,0,0,0,2.635,2A5.243,5.243,0,0,1,18,31.307a8.858,8.858,0,0,0,4.612,1.3A8.19,8.19,0,0,0,30.863,24c0-.005,0-.01,0-.016s0-.024,0-.037,0-.029,0-.043A5.086,5.086,0,0,0,32.29,22.4a5.166,5.166,0,0,1-1.635.464,3.132,3.132,0,0,0,1.228-1.6" transform="translate(1068 3873)" fill="#fff" fill-rule="evenodd"/>
  </g>
</svg>
