<svg width="134" height="89" viewBox="0 0 134 89" fill="none" xmlns="http://www.w3.org/2000/svg">
<rect width="134" height="89" fill="white"/>
<path d="M62.1416 62.2199C62.1488 61.5474 61.9562 60.888 61.5881 60.3254C61.2201 59.7627 60.6932 59.3222 60.0744 59.0599C59.4557 58.7975 58.773 58.7251 58.113 58.8519C57.453 58.9786 56.8456 59.2988 56.3679 59.7717C55.8901 60.2447 55.5636 60.849 55.4298 61.5081C55.2961 62.1671 55.361 62.851 55.6165 63.473C55.872 64.095 56.3064 64.627 56.8646 65.0014C57.4229 65.3758 58.0797 65.5757 58.7517 65.5757C59.1955 65.5819 59.6361 65.4996 60.0478 65.3336C60.4595 65.1676 60.834 64.9212 61.1495 64.6088C61.4651 64.2964 61.7153 63.9243 61.8856 63.5142C62.056 63.104 62.143 62.664 62.1416 62.2199ZM64.9108 56.7296V67.7113H62.0897V66.7165C61.0847 67.5454 59.821 67.9952 58.5186 67.9876C55.1795 67.9876 52.5661 65.421 52.5661 62.2166C52.5661 59.0121 55.1795 56.4466 58.5186 56.4466C59.821 56.439 61.0847 56.8889 62.0897 57.7178V56.7229L64.9108 56.7296ZM74.2885 65.2198H72.1711C71.5249 65.2198 71.1107 64.9413 71.1107 64.3565V59.2211H74.2929V56.7296H71.1063V53.5981H68.2598V56.7252H66.1114V59.2166H68.2598V65.0628C68.2598 66.5374 69.3213 67.7069 71.2355 67.7069H74.2885V65.2198ZM80.7193 67.9909C83.98 67.9909 85.8169 66.4655 85.8169 64.3565C85.8169 62.8555 84.73 61.7368 82.4524 61.2538L80.0466 60.7708C78.6493 60.5176 78.2086 60.2634 78.2086 59.7549C78.2086 59.0917 78.8824 58.6872 80.1239 58.6872C81.4693 58.6872 82.4524 59.0431 82.7373 60.2634H85.5584C85.4027 57.9753 83.7204 56.4499 80.3051 56.4499C77.3548 56.4499 75.2848 57.6448 75.2848 59.9583C75.2848 61.5589 76.4237 62.6023 78.8824 63.1097L81.5731 63.7198C82.6346 63.9232 82.9185 64.2029 82.9185 64.6362C82.9185 65.3215 82.1166 65.7537 80.8198 65.7537C79.1906 65.7537 78.2583 65.3978 77.896 64.1775H75.0518C75.466 66.4655 77.2002 67.9909 80.7193 67.9909ZM41.1836 52.8398H51.8195V55.3822H44.0555V59.0143H51.6118V61.4804H44.0555V65.1656H51.8195V67.708H41.1836V52.8398Z" fill="black"/>
<path d="M85.5584 39.9577V37.9614H84.8018C83.5868 37.9614 82.7031 38.5141 82.163 39.3851V38.0465H80.0002V48.879H82.1851V42.72C82.1851 41.042 83.2222 39.9566 84.6505 39.9566L85.5584 39.9577ZM69.8581 42.4646C70.248 40.8066 71.61 39.7012 73.2326 39.7012C74.8552 39.7012 76.2149 40.8066 76.5838 42.4646H69.8581ZM73.2756 37.8332C72.5332 37.8271 71.7968 37.9682 71.1092 38.2485C70.4215 38.5288 69.7962 38.9427 69.2693 39.4663C68.7424 39.9898 68.3244 40.6127 68.0395 41.2988C67.7546 41.985 67.6083 42.7208 67.6092 43.4639C67.6092 46.6926 70.1608 49.1144 73.47 49.1144C75.4815 49.1144 77.1239 48.2434 78.2274 46.7987L76.649 45.6514C75.8272 46.7346 74.7458 47.2453 73.47 47.2453C72.594 47.2515 71.7446 46.9446 71.0745 46.3798C70.4045 45.8151 69.9579 45.0296 69.815 44.1647H78.7896V43.4639C78.7896 40.234 76.4546 37.8332 73.2756 37.8332ZM60.794 47.2453C60.0525 47.2396 59.3293 47.0144 58.7155 46.598C58.1017 46.1816 57.6248 45.5927 57.3449 44.9055C57.0651 44.2183 56.9948 43.4635 57.1429 42.7364C57.2911 42.0093 57.651 41.3424 58.1773 40.8196C58.7037 40.2969 59.3729 39.9418 60.1006 39.7991C60.8283 39.6564 61.5819 39.7325 62.2665 40.0178C62.9511 40.3031 63.5359 40.7847 63.9473 41.4021C64.3587 42.0195 64.5783 42.745 64.5783 43.4871C64.5767 43.9826 64.4775 44.4729 64.2864 44.93C64.0953 45.3872 63.8161 45.8021 63.4646 46.1511C63.1132 46.5002 62.6964 46.7765 62.2382 46.9642C61.7799 47.1519 61.2892 47.2475 60.794 47.2453ZM54.8471 48.8801H57.0098V47.5183C57.5277 48.0329 58.1418 48.4404 58.8171 48.7175C59.4923 48.9946 60.2155 49.1358 60.9454 49.1332C64.1895 49.1332 66.741 46.6053 66.741 43.4827C66.741 40.339 64.1895 37.81 60.9454 37.81C60.2198 37.8085 59.5011 37.9506 58.8306 38.2281C58.1601 38.5056 57.551 38.9131 57.0385 39.4271V34.0109H54.8504L54.8471 48.8801ZM47.1703 47.1381C49.269 47.1381 50.8894 45.5452 50.8894 43.1864V34.012H53.1604V48.8801H50.9148V47.4995C49.8986 48.5407 48.4925 49.1354 46.9141 49.1354C43.67 49.1354 41.1836 46.8197 41.1836 43.3146V34.0098H43.4524V43.1842C43.4524 45.5861 45.0518 47.1358 47.1714 47.1358" fill="black"/>
</svg>
