<svg enable-background="new 0 0 500 500" viewBox="0 0 500 500" xmlns="http://www.w3.org/2000/svg"><path d="m102.8 136h285.2c7.1 0 12.8 5.7 12.8 12.8v175.5c0 7.1-5.7 12.8-12.8 12.8h-285.2c-7.1 0-12.8-5.7-12.8-12.8v-175.5c0-7.1 5.8-12.8 12.8-12.8z" fill="none" stroke="#520993" stroke-miterlimit="10" stroke-width="4"/><path d="m89.8 174.2h311" fill="none" stroke="#520993" stroke-miterlimit="10" stroke-width="4"/><path d="m308.3 245.1h-7c-.7-2.3-1.6-4.5-2.8-6.7l5-5c1.6-1.6 1.6-4.2 0-5.8l-8-8c-1.6-1.6-4.2-1.6-5.8 0l-5 5c-2.1-1.2-4.4-2.1-6.7-2.8v-7c0-2.3-1.8-4.1-4.1-4.1h-11.3c-2.3 0-4.1 1.8-4.1 4.1v7c-2.3.7-4.5 1.6-6.7 2.8l-5-5c-1.6-1.6-4.2-1.6-5.8 0l-8 8c-1.6 1.6-1.6 4.2 0 5.8l5 5c-1.2 2.1-2.1 4.3-2.8 6.7h-7c-2.3 0-4.1 1.8-4.1 4.1v11.3c0 2.3 1.8 4.1 4.1 4.1h7c.7 2.3 1.6 4.6 2.8 6.7l-5 5c-1.6 1.6-1.6 4.2 0 5.8l8 8c1.6 1.6 4.2 1.6 5.8 0l5-5c2.1 1.2 4.3 2.1 6.7 2.8v7c0 2.3 1.8 4.1 4.1 4.1h11.3c2.3 0 4.1-1.8 4.1-4.1v-7c2.3-.7 4.6-1.6 6.7-2.8l5 5c1.6 1.6 4.2 1.6 5.8 0l8-8c1.6-1.6 1.6-4.2 0-5.8l-5-5c1.2-2.1 2.1-4.4 2.8-6.7h7c2.3 0 4.1-1.8 4.1-4.1v-11.3c-0-2.3-1.9-4.1-4.1-4.1zm-40 29.2c-10.8 0-19.5-8.7-19.5-19.5s8.7-19.5 19.5-19.5 19.5 8.7 19.5 19.5c-.1 10.8-8.8 19.5-19.5 19.5z" fill="#fff"/><path d="m182.4 283.9h-10.3c-1-3.4-2.4-6.7-4.1-9.8l7.3-7.3c2.4-2.3 2.4-6.1 0-8.5l-11.7-11.7c-2.3-2.4-6.1-2.4-8.5 0l-7.3 7.3c-3.1-1.7-6.4-3-9.8-4v-10.4c0-3.3-2.7-6-6-6h-16.6c-3.3 0-6 2.7-6 6v10.3c-3.4 1-6.7 2.3-9.8 4l-7.3-7.3c-2.3-2.4-6.1-2.4-8.5 0l-11.7 11.7c-2.4 2.3-2.4 6.1 0 8.5l7.3 7.3c-1.7 3.1-3 6.4-4 9.8h-10.4c-3.3 0-6 2.7-6 6v16.5c0 3.3 2.7 6 6 6h10.4c1 3.4 2.3 6.7 4 9.8l-7.3 7.3c-2.3 2.3-2.4 6.1 0 8.5l11.7 11.7c2.3 2.4 6.1 2.4 8.5 0l7.3-7.3c3.1 1.7 6.4 3 9.8 4v10.3c0 3.3 2.7 6 6 6h16.6c3.3 0 6-2.7 6-6v-10.2c3.4-1 6.7-2.3 9.8-4l7.3 7.3c2.3 2.4 6.1 2.4 8.5 0l11.7-11.7c2.3-2.3 2.4-6.1 0-8.5l-7.3-7.4c1.7-3.1 3.1-6.4 4.1-9.8h10.3c3.3 0 6-2.7 6-6v-16.6c0-3.1-2.7-5.8-6-5.8zm-58.7 42.9c-15.8 0-28.6-12.8-28.6-28.6s12.8-28.6 28.6-28.6 28.6 12.8 28.6 28.6c0 15.8-12.8 28.6-28.6 28.6z" fill="#24e2bb"/><circle cx="169.5" cy="154.8" fill="#24e2bb" r="8"/><circle cx="143.3" cy="154.8" fill="#f29021" r="8"/><circle cx="119.4" cy="154.8" fill="#520993" r="8"/><path d="m319.2 389h-4.8c-.5-1.6-1.1-3.1-1.9-4.5l3.4-3.4c1.1-1.1 1.1-2.8 0-3.9l-5.4-5.4c-1.1-1.1-2.8-1.1-3.9 0l-3.4 3.4c-1.4-.8-2.9-1.4-4.5-1.9v-4.8c0-1.5-1.2-2.8-2.8-2.8h-7.6c-1.5 0-2.8 1.2-2.8 2.8v4.8c-1.6.5-3.1 1.1-4.5 1.9l-3.4-3.4c-1.1-1.1-2.8-1.1-3.9 0l-5.4 5.4c-1.1 1.1-1.1 2.8 0 3.9l3.4 3.4c-.8 1.4-1.4 3-1.9 4.5h-4.8c-1.5 0-2.8 1.2-2.8 2.8v7.6c0 1.5 1.2 2.8 2.8 2.8h4.8c.5 1.6 1.1 3.1 1.9 4.5l-3.4 3.4c-1.1 1.1-1.1 2.8 0 3.9l5.4 5.4c1.1 1.1 2.8 1.1 3.9 0l3.4-3.4c1.4.8 2.9 1.4 4.5 1.9v4.8c0 1.5 1.2 2.8 2.8 2.8h7.6c1.5 0 2.8-1.2 2.8-2.8v-4.7c1.6-.5 3.1-1.1 4.5-1.9l3.4 3.4c1.1 1.1 2.8 1.1 3.9 0l5.4-5.4c1.1-1.1 1.1-2.8 0-3.9l-3.4-3.4c.8-1.4 1.4-3 1.9-4.5h4.8c1.5 0 2.8-1.2 2.8-2.8v-7.6c0-1.6-1.2-2.8-2.8-2.9zm-27.1 19.8c-7.3 0-13.2-5.9-13.2-13.2s5.9-13.2 13.2-13.2 13.2 5.9 13.2 13.2-5.8 13.2-13.2 13.2z" fill="#f29021"/><path d="m430.3 104.8h-6.4c-.6-2.1-1.4-4.1-2.5-6l4.5-4.5c1.4-1.4 1.5-3.8 0-5.2l-7.2-7.2c-1.5-1.4-3.8-1.4-5.2 0l-4.5 4.5c-1.9-1-3.9-1.9-6-2.5v-6.4c0-2-1.7-3.7-3.7-3.7h-10.3c-2 0-3.7 1.7-3.7 3.7v6.4c-2.1.6-4.1 1.5-6 2.5l-4.5-4.5c-1.5-1.4-3.8-1.4-5.2 0l-7.2 7.2c-1.4 1.5-1.4 3.8 0 5.2l4.5 4.5c-1 1.9-1.9 3.9-2.5 6h-6.4c-2 0-3.7 1.7-3.7 3.7v10.2c0 2 1.7 3.7 3.7 3.7h6.4c.6 2.1 1.5 4.1 2.5 6l-4.6 4.6c-1.4 1.5-1.4 3.8 0 5.2l7.2 7.2c1.5 1.4 3.8 1.4 5.2 0l4.5-4.5c1.9 1 3.9 1.9 6 2.5v6.4c0 2 1.7 3.7 3.7 3.7h10.2c2 0 3.7-1.7 3.7-3.7v-6.4c2.1-.6 4.1-1.5 6-2.5l4.5 4.5c1.5 1.4 3.8 1.4 5.2 0l7.2-7.2c1.4-1.4 1.5-3.8 0-5.2l-4.5-4.5c1-1.9 1.9-3.9 2.5-6h6.4c2 0 3.7-1.7 3.7-3.7v-10.2c.2-2.1-1.5-3.7-3.5-3.8zm-36.2 26.5c-9.7 0-17.6-7.9-17.6-17.6s7.9-17.7 17.6-17.7 17.6 7.9 17.6 17.6c-0 9.8-7.8 17.7-17.6 17.7z" fill="#f9f7f8"/></svg>