<svg height="2785.913" viewBox="0 0 1241.607 2785.913" width="1241.607" xmlns="http://www.w3.org/2000/svg"><g fill="none" stroke="#fe6b00" stroke-width="2"><g stroke-linecap="round" transform="translate(762.804 1.409)"><path d="m8.617 0-8.617 7.238h23.185" stroke-linejoin="round"/><path d="m0 7.284 8.617 7.239" stroke-miterlimit="10"/></g><g stroke-linecap="round" transform="translate(762.804 1413.776)"><path d="m14.568 0 8.617 7.238h-23.185" stroke-linejoin="round"/><path d="m23.186 7.283-8.617 7.238" stroke-miterlimit="10"/></g><g stroke-linecap="round" transform="translate(762.804 497.776)"><path d="m8.617 0-8.617 7.238h23.185" stroke-linejoin="round"/><path d="m0 7.284 8.617 7.239" stroke-miterlimit="10"/></g><g stroke-linecap="round" transform="translate(763.804 1866.776)"><path d="m8.617 0-8.617 7.238h23.185" stroke-linejoin="round"/><path d="m0 7.284 8.617 7.239" stroke-miterlimit="10"/></g><g stroke-linecap="round" transform="translate(762.804 2328.776)"><path d="m8.617 0-8.617 7.238h23.185" stroke-linejoin="round"/><path d="m0 7.284 8.617 7.239" stroke-miterlimit="10"/></g><path d="m.011-315.8s-.078 340.6 0 379.1c.064 23.1-.015-.035.053 91.254" stroke-dasharray="4 4" transform="matrix(0 -1 1 0 1083.047 1421.57)"/><path d="m.011-315.8s-.078 329.923 0 367.22c.064 22.38-.011-.034.053 88.394" stroke-dasharray="4 4" transform="matrix(0 -1 1 0 1101.793 504.57)"/><path d="m.011-315.8s-.078 329.923 0 367.22c.064 22.38-.011-.034.053 88.394" stroke-dasharray="4 4" transform="matrix(0 -1 1 0 1101.793 8.203)"/><path d="m.011-315.8s-.078 329.923 0 367.22c.064 22.38-.011-.034.053 88.394" stroke-dasharray="4 4" transform="matrix(0 -1 1 0 1101.793 1873.57)"/><path d="m.011-315.8s-.078 329.923 0 367.22c.064 22.38-.011-.034.053 88.394" stroke-dasharray="4 4" transform="matrix(0 -1 1 0 1101.793 2335.57)"/><g stroke-linecap="round" transform="translate(455.619 497.776)"><path d="m14.568 0 8.617 7.238h-23.185" stroke-linejoin="round"/><path d="m23.185 7.284-8.617 7.239" stroke-miterlimit="10"/></g><g stroke-linecap="round" transform="translate(455.618 1865.786)"><path d="m14.568 0 8.617 7.238h-23.185" stroke-linejoin="round"/><path d="m23.186 7.283-8.617 7.238" stroke-miterlimit="10"/></g><g stroke-linecap="round" transform="translate(455.618 954.445)"><path d="m8.617 0-8.617 7.238h23.186" stroke-linejoin="round"/><path d="m0 7.283 8.617 7.238" stroke-miterlimit="10"/></g><g stroke-linecap="round" transform="translate(455.619 1414.249)"><path d="m14.568 0 8.617 7.238h-23.185" stroke-linejoin="round"/><path d="m23.185 7.284-8.617 7.239" stroke-miterlimit="10"/></g><g stroke-linecap="round" transform="translate(455.619 2328.982)"><path d="m14.568 0 8.617 7.238h-23.185" stroke-linejoin="round"/><path d="m23.185 7.284-8.617 7.239" stroke-miterlimit="10"/></g><g stroke-linecap="round" transform="translate(455.619 2769.982)"><path d="m14.568 0 8.617 7.238h-23.185" stroke-linejoin="round"/><path d="m23.185 7.284-8.617 7.239" stroke-miterlimit="10"/></g><g stroke-dasharray="4 4"><path d="m.035 471.51s-.078-341.434 0-380.033c.065-23.161-.015.036.052-91.477" transform="matrix(0 -1 1 0 2.854 1873.633)"/><path d="m.035 455.618s-.078-329.926 0-367.223c.065-22.382-.015.033.052-88.395" transform="matrix(0 -1 1 0 -0 961.241)"/><path d="m.035 455.618s-.078-329.926 0-367.223c.065-22.382-.015.033.052-88.395" transform="matrix(0 -1 1 0 -0 504.594)"/><path d="m.035 455.618s-.078-329.926 0-367.223c.065-22.382-.015.033.052-88.395" transform="matrix(0 -1 1 0 -0 1421.077)"/><path d="m.035 455.618s-.078-329.926 0-367.223c.065-22.382-.015.033.052-88.395" transform="matrix(0 -1 1 0 -0 2335.8)"/><path d="m.035 455.618s-.078-329.926 0-367.223c.065-22.382-.015.033.052-88.395" transform="matrix(0 -1 1 0 -0 2776.8)"/><path d="m.035 2272.641s-.078-1648.841 0-1835.241c.065-111.849-.068 4.529 0-437.4" transform="matrix(-1 0 0 -1 2.853 2777.147)"/><path d="m.036 2328.2s-.081-1685.917 0-1876.507c.064-114.366-.015.173.055-451.693" transform="matrix(-1 0 0 -1 1239.855 2336.007)"/></g></g></svg>