<svg viewBox="0 0 500 500" xmlns="http://www.w3.org/2000/svg"><path d="m173.14 218.53h213.57v125.69h-213.57z" fill="#f9f7f8"/><circle cx="148.86" cy="181.27" fill="#f9f7f8" r="91.77"/><g fill="none" stroke="#520993" stroke-linecap="round" stroke-miterlimit="10" stroke-width="4"><path d="m148.86 91.72v14.46"/><path d="m148.86 256.35v14.46"/><path d="m238.4 181.27h-14.46"/><path d="m73.78 181.27h-14.46"/><path d="m85.54 117.95 10.23 10.23"/><path d="m201.95 234.36 10.22 10.22"/><path d="m212.17 117.95-10.22 10.23"/><path d="m95.77 234.36-10.23 10.22"/></g><path d="m150.92 175.49-.21-37.09a2.23 2.23 0 0 0 -4.45 0l.21 36.85a10.53 10.53 0 0 0 -6.64 16.83l-10.35 10.47a2.23 2.23 0 0 0 1.6 3.79 2.27 2.27 0 0 0 1.57-.66l10.57-10.68a10.56 10.56 0 1 0 7.7-19.52zm-2.68 16.32a6.3 6.3 0 0 1 -1.64-.22 6.1 6.1 0 1 1 1.64.22z" fill="#f29021"/><rect fill="none" height="151.83" rx="9.75" stroke="#520993" stroke-miterlimit="10" stroke-width="4" width="239.15" x="160.07" y="205.74"/><path d="m154.79 370.36h249.72a0 0 0 0 1 0 0v6a6.82 6.82 0 0 1 -6.82 6.82h-236.08a6.82 6.82 0 0 1 -6.82-6.82v-6a0 0 0 0 1 0 0z" fill="none" stroke="#520993" stroke-miterlimit="10" stroke-width="4"/><path d="m418.35 313.77c-8.16.43-1.78-11.31-.86-14.54.76-2.7 1.05-5.71-.2-8.32-1.42-3-7-4.7-5.79-8.51.76-2.45 4-4.25 5.33-6.45 3-5-.09-8.2-3.61-11.6-4.78-4.63 1.07-7.71 3.1-11.81a7.12 7.12 0 0 0 0-7.14c-1.12-2.12-4.34-.24-3.22 1.88 2.06 3.89-5.12 8.3-5.83 12.27-.48 2.64.73 4.84 2.49 6.69 1.15 1.2 2.83 2.13 3.72 3.55 1.67 2.7.13 4.38-1.62 6.35s-4.06 4-4.46 6.77c-.37 2.6 1 4.53 2.84 6.19 2.44 2.18 4.64 4 4 7.74-.42 2.31-1.57 4.41-2.39 6.58-2.09 5.52-1.4 14.49 6.49 14.07 2.39-.13 2.4-3.85 0-3.72z" fill="#520993"/><path d="m432.84 352.25c2.21-5.7 9.8-7 13.16-1.63 2.83 4.52-.42 9.11-3 12.79-5 7.11-10.12 14.12-15.17 21.18-1.4 2 1.82 3.81 3.21 1.88 5.06-7.06 10.19-14.07 15.18-21.18 3.09-4.41 6.07-9.47 3.8-15-4.1-9.91-17.16-8.37-20.76.92-.86 2.24 2.73 3.21 3.59 1z" fill="#520993"/><path d="m427.16 396.5h-37.91l-4.21-67.38h47.17z" fill="#24e2bb"/></svg>