<svg id="Layer_1" data-name="Layer 1" xmlns="http://www.w3.org/2000/svg" viewBox="0 0 500 500"><defs><style>.cls-1{fill:none;}.cls-1,.cls-2,.cls-4,.cls-6{stroke:#520993;stroke-linecap:round;}.cls-1,.cls-2{stroke-miterlimit:10;}.cls-1,.cls-2,.cls-4{stroke-width:4px;}.cls-2,.cls-4,.cls-6{fill:#fff;}.cls-3{fill:#f29021;}.cls-4,.cls-6{stroke-linejoin:round;}.cls-5{fill:#24e2bb;}.cls-6{stroke-width:3.89px;}</style></defs><title>design</title><path class="cls-1" d="M86.75,270.5a164.5,164.5,0,0,1,329,0"/><line class="cls-1" x1="87" y1="107" x2="416" y2="107"/><rect class="cls-2" x="231.75" y="87" width="39" height="39"/><circle class="cls-2" cx="98.5" cy="106.5" r="11.5"/><circle class="cls-2" cx="404.5" cy="106.5" r="11.5"/><rect class="cls-3" x="175.42" y="240" width="18" height="184" rx="9"/><polygon class="cls-4" points="194.66 187.74 184.42 170 174.18 187.74 163.93 205.48 174.18 223.22 178.09 230 190.74 230 194.66 223.22 204.9 205.48 194.66 187.74"/><line class="cls-4" x1="184.42" y1="172" x2="184.42" y2="203"/><rect class="cls-4" x="170.92" y="232" width="27" height="55"/><rect class="cls-5" x="316.19" y="238" width="18" height="184" rx="9" transform="translate(650.38 660) rotate(180)"/><path class="cls-4" d="M316.6,167s29.13,18.73,29.07,36.48C345.6,222,331.51,228,331.51,228H318.86s-17.26-14-10.26-25C320.43,184.42,316.6,167,316.6,167Z"/><rect class="cls-4" x="311.69" y="230" width="27" height="55" transform="translate(650.38 515) rotate(-180)"/><polygon class="cls-6" points="258.03 195 248.29 230.33 253.16 238.77 255.02 242 261.04 242 262.9 238.77 266.81 230.33 258.03 195"/><path class="cls-2" d="M257.55,421h0a9.17,9.17,0,0,1-9-9.34V231h18V411.66A9.17,9.17,0,0,1,257.55,421Z"/></svg>