<svg id="Layer_1" data-name="Layer 1" xmlns="http://www.w3.org/2000/svg" viewBox="0 0 500 500"><defs><style>.cls-1{fill:#f9f7f8;stroke:#24e2bb;}.cls-1,.cls-2,.cls-3,.cls-4,.cls-5{stroke-miterlimit:10;}.cls-1,.cls-5{stroke-width:10px;}.cls-2,.cls-3,.cls-4,.cls-5{fill:none;}.cls-2,.cls-3,.cls-4{stroke:#520993;}.cls-2,.cls-4,.cls-5{stroke-linecap:round;}.cls-2,.cls-3{stroke-width:4px;}.cls-4{stroke-width:4.54px;}.cls-5{stroke:#f29021;}</style></defs><title>client_oriented</title><circle class="cls-1" cx="254.76" cy="155.88" r="51.5"/><path class="cls-2" d="M261.21,234.56s-62.29,16.1-82.33,10.72c-13.32-3.58-43.78-33.58-43.78-33.58"/><path class="cls-2" d="M152.9,313.39s-11.49-15-13.94-17.63C128.89,285,90.22,262.7,90.22,262.7"/><path class="cls-2" d="M300.34,309.86l28.31,21c4,3.24,4.44,9.35,1,13.65L327,347.8c-3.48,4.3-9.54,5.15-13.55,1.91l-36.29-29.35"/><path class="cls-2" d="M277.11,320.36,316,351.8a10,10,0,0,1,1.49,14.07l-2.67,3.3a10,10,0,0,1-14.07,1.49l-38.87-31.44"/><path class="cls-3" d="M261.87,339.22l38.87,31.44a10,10,0,0,1,1.49,14.06L299.56,388a10,10,0,0,1-14.07,1.49l-38.87-31.44"/><path class="cls-2" d="M246.62,358.08l31.75,25.67c3.5,2.84,3.53,8.62.06,12.91L275.76,400c-3.48,4.29-8.51,4.7-12,1.86l-33.38-25.9"/><path class="cls-3" d="M151,318.05l10.33-14.37c3.24-4,9.35-4.44,13.65-1l3.3,2.67c4.3,3.48,5.15,9.54,1.91,13.55l-11.11,13.74"/><path class="cls-2" d="M169.07,332.67l13.21-16.33a10,10,0,0,1,14.06-1.49l3.3,2.67a10,10,0,0,1,1.49,14.07l-13.2,16.32"/><path class="cls-3" d="M187.93,347.91l13.2-16.32a10,10,0,0,1,14.06-1.49l3.31,2.67A10,10,0,0,1,220,346.83l-13.21,16.33"/><path class="cls-2" d="M206.78,363.16l7.44-9.2c2.84-3.5,8.62-3.53,12.91-.06l3.31,2.67c4.29,3.48,4.7,8.51,1.86,12l-5.46,7.77"/><path class="cls-2" d="M233,367.68,222.7,382c-3.24,4-9.35,4.44-13.64,1l-3.31-2.67c-4.29-3.48-5.14-9.54-1.9-13.55L215,353.06"/><path class="cls-2" d="M216.84,350.72l-13.2,16.33a10,10,0,0,1-14.07,1.49l-3.3-2.67a10,10,0,0,1-1.49-14.07L198,335.47"/><path class="cls-3" d="M198,335.47,184.78,351.8a10,10,0,0,1-14.06,1.49l-3.31-2.67a10,10,0,0,1-1.48-14.07l13.2-16.32"/><path class="cls-2" d="M176,324.11l-7.44,9.2c-2.84,3.51-8.62,3.54-13.54.84l-3.31-2.67c-3.66-4.25-4.07-9.28-1.23-12.79l4.24-5.82"/><path class="cls-2" d="M254.57,270.24l-25.52,12.33a14.51,14.51,0,0,1-19.37-6.75h0a14.51,14.51,0,0,1,6.76-19.37L255,237.73"/><path class="cls-4" d="M329.06,329.45s17.47-18.59,24.75-22.73c15-8.53,63.53-26.83,63.53-26.83"/><path class="cls-2" d="M255.45,237.18c2.05-1.13,4.84-2.65,7.3-2.28,11.85,1.78,33.34,14.27,45.75,14.27,20.51,0,76.67-26.21,76.67-26.21"/><path class="cls-2" d="M299.79,309.42c-13.1,1.38-41.61-13.19-44.4-39.55"/><path class="cls-5" d="M230.6,156.76s13.49,18.19,14.72,17.8,34.6-38.3,34.6-38.3"/></svg>