<svg id="Layer_1" data-name="Layer 1" xmlns="http://www.w3.org/2000/svg" viewBox="0 0 500 500"><defs><style>.cls-1{fill:#f9f7f8;}.cls-2{fill:#520993;}.cls-3{fill:#fff;stroke:#520993;stroke-miterlimit:10;stroke-width:4px;}.cls-4{fill:#f29021;}.cls-5{fill:#24e2bb;}</style></defs><title>positive attitude</title><rect class="cls-1" x="273.37" y="291.29" width="97.66" height="97.66" rx="35.19"/><circle class="cls-2" cx="289.89" cy="256.1" r="14.36"/><circle class="cls-2" cx="345.9" cy="248.92" r="14.36"/><circle class="cls-2" cx="350.21" cy="258.26" r="14.36"/><rect class="cls-1" x="138.38" y="292.05" width="97.66" height="97.66" rx="35.19"/><polygon class="cls-2" points="150.31 242.14 138.38 292.05 236.04 292.05 218.86 242.14 150.31 242.14"/><path class="cls-2" d="M184.88,215.57h0a36.08,36.08,0,0,0-36.07,35.55h72.13A36.08,36.08,0,0,0,184.88,215.57Z"/><path class="cls-3" d="M150.23,267.2a34.65,34.65,0,0,0,34.65,34.65h0a34.64,34.64,0,0,0,34.64-34.65V253.07c0-.17,0-.34,0-.52H150.24c0,.18,0,.35,0,.52Z"/><path class="cls-4" d="M185.05,291.33a10.05,10.05,0,0,0,10.06-10.05H175A10.05,10.05,0,0,0,185.05,291.33Z"/><path class="cls-2" d="M319.87,218.4h0A36.08,36.08,0,0,0,283.8,254h72.14A36.08,36.08,0,0,0,319.87,218.4Z"/><path class="cls-3" d="M285.22,269.32A34.64,34.64,0,0,0,319.87,304h0a34.65,34.65,0,0,0,34.65-34.64V255.18c0-.17,0-.34,0-.51H285.24c0,.17,0,.34,0,.51Z"/><path class="cls-4" d="M320.05,293.44a10.05,10.05,0,0,0,10.05-10.05H310A10.05,10.05,0,0,0,320.05,293.44Z"/><circle class="cls-2" cx="294.2" cy="238.15" r="14.36"/><circle class="cls-2" cx="302.81" cy="228.1" r="14.36"/><circle class="cls-2" cx="322.2" cy="225.94" r="14.36"/><circle class="cls-2" cx="341.59" cy="229.53" r="14.36"/><circle class="cls-2" cx="348.77" cy="240.3" r="14.36"/><circle class="cls-2" cx="298.76" cy="248.55" r="14.36"/><circle class="cls-2" cx="314.56" cy="250.33" r="9.23"/><path class="cls-4" d="M124.57,183.35h-8v-8a.92.92,0,1,0-1.83,0v8h-8a.92.92,0,0,0,0,1.83h8v8a.92.92,0,0,0,1.83,0v-8h8a.92.92,0,0,0,0-1.83Z"/><path class="cls-5" d="M161.34,169.14h-6.65V162.5a.76.76,0,1,0-1.51,0v6.64h-6.65a.76.76,0,0,0,0,1.52h6.65v6.65a.76.76,0,1,0,1.51,0v-6.65h6.65a.76.76,0,1,0,0-1.52Z"/><path class="cls-4" d="M343.69,126.35h8v-8a.92.92,0,1,1,1.83,0v8h8a.92.92,0,1,1,0,1.83h-8v8a.92.92,0,0,1-1.83,0v-8h-8a.92.92,0,1,1,0-1.83Z"/><path class="cls-2" d="M249.28,189.92H235V175.63a1.63,1.63,0,1,0-3.26,0v14.29H217.44a1.63,1.63,0,0,0,0,3.26h14.29v14.29a1.63,1.63,0,1,0,3.26,0V193.18h14.29a1.63,1.63,0,0,0,0-3.26Z"/><path class="cls-1" d="M309.28,148.92H295V134.63a1.63,1.63,0,0,0-3.26,0v14.29H277.44a1.63,1.63,0,1,0,0,3.26h14.29v14.29a1.63,1.63,0,1,0,3.26,0V152.18h14.29a1.63,1.63,0,1,0,0-3.26Z"/><path class="cls-5" d="M390.28,189.92H376V175.63a1.63,1.63,0,0,0-3.26,0v14.29H358.44a1.63,1.63,0,0,0,0,3.26h14.29v14.29a1.63,1.63,0,1,0,3.26,0V193.18h14.29a1.63,1.63,0,1,0,0-3.26Z"/><path class="cls-4" d="M230.28,123.92H216V109.63a1.63,1.63,0,1,0-3.26,0v14.29H198.44a1.63,1.63,0,1,0,0,3.26h14.29v14.29a1.63,1.63,0,1,0,3.26,0V127.18h14.29a1.63,1.63,0,1,0,0-3.26Z"/><path class="cls-2" d="M263.92,110.14h6.64V103.5a.76.76,0,1,1,1.52,0v6.64h6.64a.76.76,0,0,1,0,1.52h-6.64v6.65a.76.76,0,0,1-1.52,0v-6.65h-6.64a.76.76,0,0,1,0-1.52Z"/><path class="cls-1" d="M151.92,114.14h6.64V107.5a.76.76,0,0,1,1.52,0v6.64h6.64a.76.76,0,0,1,0,1.52h-6.64v6.65a.76.76,0,0,1-1.52,0v-6.65h-6.64a.76.76,0,0,1,0-1.52Z"/></svg>