<?xml version="1.0" encoding="utf-8"?>
<!-- Generator: Adobe Illustrator 23.0.3, SVG Export Plug-In . SVG Version: 6.00 Build 0)  -->
<svg version="1.1" id="Layer_1" xmlns="http://www.w3.org/2000/svg" xmlns:xlink="http://www.w3.org/1999/xlink" x="0px" y="0px"
	 viewBox="0 0 500 500" style="enable-background:new 0 0 500 500;" xml:space="preserve">
<style type="text/css">
	.st0{fill:none;stroke:#520993;stroke-width:4;stroke-miterlimit:10;}
	.st1{fill:#FFFFFF;}
	.st2{fill:#24E2BB;}
	.st3{fill:#F29021;}
	.st4{fill:#520993;}
	.st5{fill:#F9F7F8;}
</style>
<title>web_development2</title>
<path class="st0" d="M102.8,136H388c7.1,0,12.8,5.7,12.8,12.8v175.5c0,7.1-5.7,12.8-12.8,12.8H102.8c-7.1,0-12.8-5.7-12.8-12.8
	V148.8C90,141.7,95.8,136,102.8,136z"/>
<line class="st0" x1="89.8" y1="174.2" x2="400.8" y2="174.2"/>
<path class="st1" d="M308.3,245.1h-7c-0.7-2.3-1.6-4.5-2.8-6.7l5-5c1.6-1.6,1.6-4.2,0-5.8c0,0,0,0,0,0l-8-8c-1.6-1.6-4.2-1.6-5.8,0
	c0,0,0,0,0,0l-5,5c-2.1-1.2-4.4-2.1-6.7-2.8v-7c0-2.3-1.8-4.1-4.1-4.1l0,0h-11.3c-2.3,0-4.1,1.8-4.1,4.1v7c-2.3,0.7-4.5,1.6-6.7,2.8
	l-5-5c-1.6-1.6-4.2-1.6-5.8,0c0,0,0,0,0,0l-8,8c-1.6,1.6-1.6,4.2,0,5.8c0,0,0,0,0,0l5,5c-1.2,2.1-2.1,4.3-2.8,6.7h-7
	c-2.3,0-4.1,1.8-4.1,4.1v11.3c0,2.3,1.8,4.1,4.1,4.1h0h7c0.7,2.3,1.6,4.6,2.8,6.7l-5,5c-1.6,1.6-1.6,4.2,0,5.8c0,0,0,0,0,0l8,8
	c1.6,1.6,4.2,1.6,5.8,0c0,0,0,0,0,0l5-5c2.1,1.2,4.3,2.1,6.7,2.8v7c0,2.3,1.8,4.1,4.1,4.1l0,0h11.3c2.3,0,4.1-1.8,4.1-4.1
	c0,0,0,0,0,0v-7c2.3-0.7,4.6-1.6,6.7-2.8l5,5c1.6,1.6,4.2,1.6,5.8,0c0,0,0,0,0,0l8-8c1.6-1.6,1.6-4.2,0-5.8c0,0,0,0,0,0l-5-5
	c1.2-2.1,2.1-4.4,2.8-6.7h7c2.3,0,4.1-1.8,4.1-4.1c0,0,0,0,0,0v-11.3C312.4,246.9,310.5,245.1,308.3,245.1L308.3,245.1z
	 M268.3,274.3c-10.8,0-19.5-8.7-19.5-19.5s8.7-19.5,19.5-19.5s19.5,8.7,19.5,19.5C287.7,265.6,279,274.3,268.3,274.3L268.3,274.3z"
	/>
<path class="st2" d="M182.4,283.9h-10.3c-1-3.4-2.4-6.7-4.1-9.8l7.3-7.3c2.4-2.3,2.4-6.1,0-8.5c0,0,0,0,0,0l-11.7-11.7
	c-2.3-2.4-6.1-2.4-8.5,0c0,0,0,0,0,0l-7.3,7.3c-3.1-1.7-6.4-3-9.8-4v-10.4c0-3.3-2.7-6-6-6h-16.6c-3.3,0-6,2.7-6,6v10.3
	c-3.4,1-6.7,2.3-9.8,4l-7.3-7.3c-2.3-2.4-6.1-2.4-8.5,0c0,0,0,0,0,0l-11.7,11.7c-2.4,2.3-2.4,6.1,0,8.5c0,0,0,0,0,0l7.3,7.3
	c-1.7,3.1-3,6.4-4,9.8H65c-3.3,0-6,2.7-6,6v16.5c0,3.3,2.7,6,6,6h10.4c1,3.4,2.3,6.7,4,9.8l-7.3,7.3c-2.3,2.3-2.4,6.1,0,8.5
	c0,0,0,0,0,0l11.7,11.7c2.3,2.4,6.1,2.4,8.5,0c0,0,0,0,0,0l7.3-7.3c3.1,1.7,6.4,3,9.8,4v10.3c0,3.3,2.7,6,6,6H132c3.3,0,6-2.7,6-6
	v-10.2c3.4-1,6.7-2.3,9.8-4l7.3,7.3c2.3,2.4,6.1,2.4,8.5,0c0,0,0,0,0,0l11.7-11.7c2.3-2.3,2.4-6.1,0-8.5c0,0,0,0,0,0l-7.3-7.4
	c1.7-3.1,3.1-6.4,4.1-9.8h10.3c3.3,0,6-2.7,6-6v-16.6C188.4,286.6,185.7,283.9,182.4,283.9C182.4,283.9,182.4,283.9,182.4,283.9z
	 M123.7,326.8c-15.8,0-28.6-12.8-28.6-28.6s12.8-28.6,28.6-28.6s28.6,12.8,28.6,28.6l0,0C152.3,314,139.5,326.8,123.7,326.8
	L123.7,326.8z"/>
<circle class="st2" cx="169.5" cy="154.8" r="8"/>
<circle class="st3" cx="143.3" cy="154.8" r="8"/>
<circle class="st4" cx="119.4" cy="154.8" r="8"/>
<path class="st3" d="M319.2,389h-4.8c-0.5-1.6-1.1-3.1-1.9-4.5l3.4-3.4c1.1-1.1,1.1-2.8,0-3.9c0,0,0,0,0,0l-5.4-5.4
	c-1.1-1.1-2.8-1.1-3.9,0c0,0,0,0,0,0l-3.4,3.4c-1.4-0.8-2.9-1.4-4.5-1.9v-4.8c0-1.5-1.2-2.8-2.8-2.8h-7.6c-1.5,0-2.8,1.2-2.8,2.8
	v4.8c-1.6,0.5-3.1,1.1-4.5,1.9l-3.4-3.4c-1.1-1.1-2.8-1.1-3.9,0c0,0,0,0,0,0l-5.4,5.4c-1.1,1.1-1.1,2.8,0,3.9c0,0,0,0,0,0l3.4,3.4
	c-0.8,1.4-1.4,3-1.9,4.5H265c-1.5,0-2.8,1.2-2.8,2.8v7.6c0,1.5,1.2,2.8,2.8,2.8h4.8c0.5,1.6,1.1,3.1,1.9,4.5l-3.4,3.4
	c-1.1,1.1-1.1,2.8,0,3.9c0,0,0,0,0,0l5.4,5.4c1.1,1.1,2.8,1.1,3.9,0c0,0,0,0,0,0l3.4-3.4c1.4,0.8,2.9,1.4,4.5,1.9v4.8
	c0,1.5,1.2,2.8,2.8,2.8h7.6c1.5,0,2.8-1.2,2.8-2.8V418c1.6-0.5,3.1-1.1,4.5-1.9l3.4,3.4c1.1,1.1,2.8,1.1,3.9,0c0,0,0,0,0,0l5.4-5.4
	c1.1-1.1,1.1-2.8,0-3.9c0,0,0,0,0,0l-3.4-3.4c0.8-1.4,1.4-3,1.9-4.5h4.8c1.5,0,2.8-1.2,2.8-2.8c0,0,0,0,0,0v-7.6
	C322,390.3,320.8,389.1,319.2,389C319.3,389,319.2,389,319.2,389z M292.1,408.8c-7.3,0-13.2-5.9-13.2-13.2s5.9-13.2,13.2-13.2
	c7.3,0,13.2,5.9,13.2,13.2C305.3,402.9,299.5,408.8,292.1,408.8C292.1,408.8,292.1,408.8,292.1,408.8L292.1,408.8z"/>
<path class="st5" d="M430.3,104.8h-6.4c-0.6-2.1-1.4-4.1-2.5-6l4.5-4.5c1.4-1.4,1.5-3.8,0-5.2c0,0,0,0,0,0l-7.2-7.2
	c-1.5-1.4-3.8-1.4-5.2,0l-4.5,4.5c-1.9-1-3.9-1.9-6-2.5v-6.4c0-2-1.7-3.7-3.7-3.7H389c-2,0-3.7,1.7-3.7,3.7v6.4
	c-2.1,0.6-4.1,1.5-6,2.5l-4.5-4.5c-1.5-1.4-3.8-1.4-5.2,0l-7.2,7.2c-1.4,1.5-1.4,3.8,0,5.2l4.5,4.5c-1,1.9-1.9,3.9-2.5,6H358
	c-2,0-3.7,1.7-3.7,3.7v10.2c0,2,1.7,3.7,3.7,3.7h6.4c0.6,2.1,1.5,4.1,2.5,6l-4.6,4.6c-1.4,1.5-1.4,3.8,0,5.2l7.2,7.2
	c1.5,1.4,3.8,1.4,5.2,0l4.5-4.5c1.9,1,3.9,1.9,6,2.5v6.4c0,2,1.7,3.7,3.7,3.7h10.2c2,0,3.7-1.7,3.7-3.7v-6.4c2.1-0.6,4.1-1.5,6-2.5
	l4.5,4.5c1.5,1.4,3.8,1.4,5.2,0l7.2-7.2c1.4-1.4,1.5-3.8,0-5.2c0,0,0,0,0,0l-4.5-4.5c1-1.9,1.9-3.9,2.5-6h6.4c2,0,3.7-1.7,3.7-3.7
	v-10.2C434,106.5,432.3,104.9,430.3,104.8z M394.1,131.3c-9.7,0-17.6-7.9-17.6-17.6S384.4,96,394.1,96c9.7,0,17.6,7.9,17.6,17.6l0,0
	C411.7,123.4,403.9,131.3,394.1,131.3L394.1,131.3z"/>
</svg>
