<?xml version="1.0" encoding="utf-8"?>
<!-- Generator: Adobe Illustrator 23.0.3, SVG Export Plug-In . SVG Version: 6.00 Build 0)  -->
<svg version="1.1" id="Layer_1" xmlns="http://www.w3.org/2000/svg" xmlns:xlink="http://www.w3.org/1999/xlink" x="0px" y="0px"
	 viewBox="0 0 500 500" style="enable-background:new 0 0 500 500;" xml:space="preserve">
<style type="text/css">
	.st0{fill:none;stroke:#520993;stroke-width:3;stroke-miterlimit:10;}
	.st1{fill:#24E2BB;}
	.st2{fill:#F29021;}
	.st3{fill:#F9F7F8;}
	.st4{fill:none;stroke:#520993;stroke-width:3;stroke-linecap:round;stroke-miterlimit:10;}
	.st5{fill:none;stroke:#520993;stroke-width:4.4749;stroke-linecap:round;stroke-miterlimit:10;}
</style>
<title>Mobile_App_Development</title>
<path class="st0" d="M125.5,73.1h98.6c4.6,0,8.3,3.7,8.3,8.3v212.8c0,4.6-3.7,8.3-8.3,8.3h-98.6c-4.6,0-8.3-3.7-8.3-8.3V81.4
	C117.2,76.8,121,73.1,125.5,73.1z"/>
<path class="st0" d="M349,179.7h98.9c4.5,0,8.2,3.7,8.2,8.2v205.3c0,4.5-3.7,8.2-8.2,8.2H349c-4.5,0-8.2-3.7-8.2-8.2V187.9
	C340.8,183.4,344.5,179.7,349,179.7z"/>
<rect x="131.2" y="92.2" class="st1" width="87.3" height="171.2"/>
<rect x="354.8" y="205.2" class="st2" width="87.3" height="166.7"/>
<path class="st3" d="M382.5,168.4h-7.8c-0.8-2.6-1.8-5.1-3.1-7.5l5.6-5.6c1.8-1.8,1.8-4.7,0-6.5l0,0l-8.9-8.9
	c-1.8-1.8-4.7-1.8-6.5,0l0,0l-5.6,5.6c-2.4-1.3-4.9-2.3-7.5-3.1v-7.8c0-2.5-2.1-4.6-4.6-4.6l0,0h-12.6c-2.5,0-4.6,2.1-4.6,4.6v7.8
	c-2.6,0.8-5.1,1.8-7.5,3.1l-5.6-5.6c-1.8-1.8-4.7-1.8-6.5,0l0,0l-8.9,8.9c-1.8,1.8-1.8,4.7,0,6.5l0,0l5.6,5.6
	c-1.3,2.4-2.3,4.9-3.1,7.5H293c-2.5,0-4.6,2.1-4.6,4.6v12.6c0,2.5,2.1,4.6,4.6,4.6l0,0h7.9c0.8,2.6,1.8,5.1,3.1,7.5l-5.6,5.6
	c-1.8,1.8-1.8,4.7,0,6.5l0,0l8.9,8.9c1.8,1.8,4.7,1.8,6.5,0l0,0l5.6-5.6c2.4,1.3,4.9,2.3,7.5,3.1v7.8c0,2.5,2.1,4.6,4.6,4.6l0,0
	h12.6c2.5,0,4.6-2,4.6-4.6l0,0v-7.8c2.6-0.8,5.1-1.8,7.5-3.1l5.6,5.6c1.8,1.8,4.7,1.8,6.5,0l0,0l8.9-8.9c1.8-1.8,1.8-4.7,0-6.5l0,0
	l-5.6-5.6c1.3-2.4,2.3-4.9,3.1-7.5h7.8c2.5,0,4.6-2,4.6-4.6l0,0V173C387.1,170.4,385,168.4,382.5,168.4L382.5,168.4z M337.7,201
	c-12,0-21.8-9.8-21.8-21.8s9.8-21.8,21.8-21.8s21.8,9.8,21.8,21.8C359.5,191.3,349.8,201,337.7,201L337.7,201z"/>
<path class="st3" d="M170,145.8h-11.6c-1.1-3.8-2.6-7.5-4.5-10.9l8.2-8.2c2.6-2.6,2.6-6.9,0-9.5l0,0L149,104c-2.6-2.6-6.9-2.6-9.5,0
	l0,0l-8.2,8.2c-3.5-1.9-7.2-3.4-11-4.5V96.1c0-3.7-3-6.7-6.7-6.7H95.1c-3.7,0-6.7,3-6.7,6.7v11.6c-3.8,1.1-7.5,2.6-10.9,4.5
	l-8.2-8.2c-2.6-2.6-6.9-2.6-9.5,0l0,0l-13.1,13.1c-2.6,2.6-2.6,6.9,0,9.5l0,0l8.2,8.2c-1.9,3.5-3.4,7.1-4.5,10.9H38.7
	c-3.7,0-6.7,3-6.7,6.7v18.5c0,3.7,3,6.7,6.7,6.7h11.6c1.1,3.8,2.6,7.5,4.5,11l-8.2,8.2c-2.6,2.6-2.6,6.9,0,9.5l0,0l13.1,13.1
	c2.6,2.6,6.9,2.6,9.5,0l0,0l8.2-8.2c3.5,1.9,7.1,3.4,10.9,4.5v11.6c0,3.7,3,6.7,6.7,6.7h18.6c3.7,0,6.7-3,6.7-6.7v-11.4
	c3.8-1.1,7.5-2.6,11-4.5l8.2,8.2c2.6,2.6,6.9,2.6,9.5,0l0,0l13.1-13.1c2.6-2.6,2.6-6.9,0-9.5l0,0l-8.2-8.2c1.9-3.5,3.4-7.2,4.5-11
	H170c3.7,0,6.7-3,6.7-6.7v-18.5C176.8,148.8,173.8,145.8,170,145.8C170.1,145.8,170,145.8,170,145.8z M104.4,193.8
	c-17.7,0-32-14.3-32-32s14.3-32,32-32s32,14.3,32,32l0,0C136.4,179.4,122.1,193.7,104.4,193.8L104.4,193.8z"/>
<circle class="st0" cx="398.4" cy="385.3" r="6.7"/>
<path class="st0" d="M168.5,275.7H183c3.1,0,5.6,2.5,5.6,5.6l0,0c0,3.1-2.5,5.6-5.6,5.6h-14.5c-3.1,0-5.6-2.5-5.6-5.6l0,0
	C162.9,278.2,165.4,275.7,168.5,275.7z"/>
<line class="st4" x1="203.2" y1="281.3" x2="217.7" y2="281.3"/>
<line class="st4" x1="133.8" y1="281.3" x2="148.3" y2="281.3"/>
<line class="st4" x1="172.6" y1="84.4" x2="187.1" y2="84.4"/>
<line class="st5" x1="162.5" y1="84.4" x2="162.5" y2="84.4"/>
<line class="st4" x1="391.1" y1="197.4" x2="405.7" y2="197.4"/>
<line class="st5" x1="398.4" y1="189.5" x2="398.4" y2="189.5"/>
</svg>
