<svg id="Layer_2" data-name="Layer 2" xmlns="http://www.w3.org/2000/svg" viewBox="0 0 888 454"><defs><style>.cls-1,.cls-17,.cls-2,.cls-7,.cls-8,.cls-9{fill:none;}.cls-1,.cls-2,.cls-6,.cls-7,.cls-8,.cls-9{stroke:#520993;}.cls-1,.cls-16,.cls-17,.cls-2,.cls-6,.cls-7,.cls-8,.cls-9{stroke-miterlimit:10;}.cls-1{stroke-width:3.11px;}.cls-2{stroke-width:3.15px;}.cls-3{fill:#f9f7f8;}.cls-11,.cls-4{fill:#24e2bb;}.cls-5{fill:#f29021;}.cls-15,.cls-16,.cls-6{fill:#fff;}.cls-6{stroke-width:3px;}.cls-7,.cls-8{stroke-width:3.04px;}.cls-8,.cls-9{stroke-linecap:round;}.cls-9{stroke-width:5.29px;}.cls-10{font-size:19.06px;fill:#520993;}.cls-10,.cls-11,.cls-13{font-family:Comfortaa-Bold, Comfortaa;font-weight:700;}.cls-11,.cls-13{font-size:26.85px;}.cls-12{font-size:17.65px;}.cls-13{fill:#f7931e;}.cls-14{letter-spacing:-0.05em;}.cls-16,.cls-17{stroke:#29abe2;}</style></defs><title>motivo_illustration4</title><line class="cls-1" x1="303.5" y1="43.5" x2="781.5" y2="43.5"/><rect class="cls-2" x="304.73" y="3.5" width="480.27" height="331.09" rx="20.4"/><rect class="cls-3" x="335" y="73.25" width="380" height="23"/><rect class="cls-3" x="335" y="113.75" width="380" height="23"/><rect class="cls-4" x="726" y="114.25" width="22" height="22"/><rect class="cls-4" x="726" y="73.75" width="22" height="22"/><rect class="cls-3" x="335" y="155.25" width="380" height="23"/><rect class="cls-3" x="335" y="195.75" width="380" height="23"/><rect class="cls-5" x="726" y="196.25" width="22" height="22"/><rect class="cls-5" x="726" y="155.75" width="22" height="22"/><rect class="cls-3" x="335" y="236.25" width="380" height="23"/><rect class="cls-3" x="335" y="276.75" width="380" height="23"/><rect class="cls-3" x="726" y="277.25" width="22" height="22"/><rect class="cls-3" x="726" y="236.75" width="22" height="22"/><circle class="cls-1" cx="337" cy="25.33" r="5.5"/><circle class="cls-1" cx="363" cy="25.33" r="5.5"/><circle class="cls-1" cx="389" cy="25.33" r="5.5"/><path class="cls-3" d="M704,654a154.34,154.34,0,0,1,82.93,24A190.89,190.89,0,0,0,809,651.81V435.19A189.26,189.26,0,0,0,653.5,354C548.84,354,464,438.84,464,543.5A189.55,189.55,0,0,0,578.76,717.68,154.76,154.76,0,0,1,704,654Z" transform="translate(-451 -354)"/><rect class="cls-6" x="235.73" y="78.41" width="136.27" height="262.18" rx="9.67"/><circle class="cls-7" cx="303.86" cy="321.67" r="7.94"/><line class="cls-8" x1="295.24" y1="99.3" x2="312.44" y2="99.3"/><line class="cls-9" x1="303.84" y1="90.03" x2="303.84" y2="90.03"/><rect class="cls-3" x="245" y="113" width="56" height="113"/><rect class="cls-3" x="306" y="113" width="56" height="113"/><rect class="cls-3" x="245" y="232" width="117" height="68"/><text class="cls-10" transform="translate(260.98 272.86)">140 bpm</text><text class="cls-11" transform="translate(320.4 163.95)">12<tspan class="cls-12"><tspan x="-0.13" y="21.18">km</tspan></tspan></text><text class="cls-13" transform="translate(248.43 164.95)">3<tspan class="cls-14" x="16.08" y="0">4</tspan><tspan x="32.27" y="0">5</tspan><tspan class="cls-12"><tspan x="10.67" y="21.18">cal</tspan></tspan></text><path class="cls-3" d="M707.55,461.92l-1.5-1.5a1.5,1.5,0,1,0-2.13,2.12l1.5,1.5a1.5,1.5,0,0,0,2.13-2.12Z" transform="translate(-451 -354)"/><path class="cls-15" d="M542.22,478.47c14.14,11.95,28.13,31.07,29.83,51.21.19,2.34,1,4.18,1,6.53-.12,6.62-3.12,12.49-5.13,20-2.54,9.54-10.51,18.19-12.56,27.84s2.15,21.06,10.54,26.25c2,1.25,4.38,2.11,5.93,3.92s1.76,5.09-.34,6.22c-8.23,1.33-21.33-7.26-27.58-10.38-7.45-3.73-1.17-13.57-2.08-21.85-1.38-12.61-.39-25.41,5.37-36.71,2.15-4.23,4.82-8.37,5.43-13.08.87-6.68-2.64-13.27-7.38-18.06s-10.65-8.2-16.13-12.12c-6.29-4.5-12.16-9.83-16-16.53s-5.59-14.91-3.36-22.32c2.89-9.59,11.56-16.13,20-21.49,16-10.11,34.81-18.71,53.3-14.7,5.6,1.22,11.14,3.73,14.74,8.2,6.18,7.68,5.1,18.63,6.62,28.38,3.21,20.54,19.13,34.76,39.64,38.19.78,3.25-3.66,7.89-7,8s-2.88-.92-5.72-2.68c-5.07-3.16-11.44-5.21-16.65-8.33a48.7,48.7,0,0,1-6.24-4.16c-1.28-1.08-4-3-5.2-4.16-.61-.59-16.4-19.34-16.65-30.18-15.41,3.55-26.65,6.68-42,10.24Z" transform="translate(-451 -354)"/><path class="cls-16" d="M571.5,525.5" transform="translate(-451 -354)"/><path class="cls-15" d="M620.66,409a14.47,14.47,0,0,0-13.13,3.25c-2.76,2.51-4.42,6-5.89,9.42s-2.88,7-5.29,9.82-6.09,4.93-9.79,4.37a54.52,54.52,0,0,1,3,16.73l13.34-8.87c1.25-.83,2.85-1.68,4.16-.95,1.75,1,1.51,4,3.33,4.79,1.23.56,2.61-.25,3.71-1l4.5-3.16a4.41,4.41,0,0,1,2.81-1.11c1,.09,2.48,3.49,3,2.58,3.44-6.41,2-6.92,4.74-11.2,1.19-1.83,3.72-6.12,4-8.28.66-4.33-.2-5.57-3-8.95C630.17,416.38,625.21,410.13,620.66,409Z" transform="translate(-451 -354)"/><path class="cls-15" d="M632.5,551a43.14,43.14,0,0,0-11.26,1.49c-4.18-13.12-8-26.37-11.62-39.61l21.59-3.47-6.06,8.23c-1.91,2.6,2.43,5.09,4.32,2.53q4.75-6.46,9.5-12.92c1.45-2-.93-4-2.82-3.67l-30.54,4.91c-2.18.35-2.22,2.75-1,4a2.48,2.48,0,0,0,0,1.17q1.07,3.84,2.14,7.68c-24.9,2.35-49.89,3.73-74.89,4.48-2.36-9.93-4.77-19.84-7.35-29.72,6.21-1,11.92-2.1,16.18-1.51,1.23.17,2.42.95,2.86-.22a2.64,2.64,0,0,0-1.52-3.06,7.7,7.7,0,0,0-3.67-.49l-29.43.92a7.47,7.47,0,0,0-3.75.78,2.57,2.57,0,0,0-1.08,3.32c.57.91,1.78,1.13,2.85,1.26a52,52,0,0,0,12.58-.29c2.53,9.66,4.89,19.35,7.2,29.06A183.6,183.6,0,0,1,515,556.12a43.5,43.5,0,1,0,20.37,53.38c2.18-.07,4.36-.17,6.53-.28,5.56-.29,11.32-.3,16.77-1.49,5-1.09,9.67-3.66,12.32-8.14a11.78,11.78,0,0,0-.51-13.06c-.24-.32-.48-.63-.74-.93,16-13,29.66-28.13,43-43.78q1.85,6.12,3.8,12.23a43.47,43.47,0,1,0,16-3ZM529,535.35c3.52,14.88,7,29.77,10.88,44.57h-.42l-4,.11a43.72,43.72,0,0,0-16.3-21.31A188.63,188.63,0,0,0,529,535.35Zm1.21,44.84-24,.66a188.46,188.46,0,0,0,10.7-17.63A38.65,38.65,0,0,1,530.23,580.19ZM494.5,633a38.5,38.5,0,1,1,18.17-72.43A182.94,182.94,0,0,1,500,581l-5.4.15c-3.21.09-3.23,5.09,0,5l1.64,0q-3,3.92-6.23,7.67c-2.09,2.43,1.43,6,3.54,3.53q4.73-5.52,9-11.38l26.42-.73,2.83-.08a38.3,38.3,0,0,1-.2,19.47c-1.56,0-3.13,0-4.7,0-11,0-23.93-10.12-34.78-12.07-3.14-.57-4.49,4.25-1.32,4.82,11,2,24.12,12.21,35.32,12.25,1.25,0,2.49,0,3.73,0A38.55,38.55,0,0,1,494.5,633Zm72.78-37.27c-1.74,4.66-6.71,6.64-11.24,7.42-5,.88-10.33.89-15.45,1.14l-3.75.16a43.18,43.18,0,0,0,.1-19.45l9.51-.26c5.06-.14,10.84-.84,15.6,1.3C565.78,587.72,568.87,591.49,567.28,595.73Zm-1.47-13.37c-5.86-3.42-13.79-3.1-20.85-2.7a1.77,1.77,0,0,0-.05-.32c-4.22-16.11-8-32.32-11.82-48.52,25.06-.77,50.12-2.18,75.09-4.56q1.4,4.93,2.85,9.86C597,552.65,582.74,568.69,565.81,582.36ZM632.5,633a38.49,38.49,0,0,1-14.43-74.18c4.26,13,8.94,25.85,14.27,38.44,1.25,3,5.56.41,4.32-2.52-5.2-12.27-9.74-24.81-13.89-37.49A38.5,38.5,0,1,1,632.5,633Z" transform="translate(-451 -354)"/><path class="cls-3" d="M1205.22,648.47c14.14,11.95,28.13,31.07,29.83,51.21.19,2.34,1,4.18,1,6.53-.12,6.62-3.12,12.49-5.13,20-2.54,9.54-10.51,18.19-12.56,27.84s2.15,21.06,10.54,26.25c2,1.25,4.38,2.11,5.93,3.92s1.76,5.09-.34,6.22c-8.23,1.33-21.33-7.26-27.58-10.38-7.45-3.73-1.17-13.57-2.08-21.85-1.38-12.61-.39-25.41,5.37-36.71,2.15-4.23,4.82-8.37,5.43-13.08.87-6.68-2.64-13.27-7.38-18.06s-10.65-8.2-16.13-12.12c-6.29-4.5-12.16-9.83-16-16.53s-5.59-14.91-3.36-22.32c2.89-9.59,11.56-16.13,20-21.49,16-10.11,34.81-18.71,53.3-14.7,5.6,1.22,11.14,3.73,14.74,8.2,6.18,7.68,5.1,18.63,6.62,28.38,3.21,20.54,19.13,34.76,39.64,38.19.78,3.25-3.66,7.89-7,8s-2.88-.92-5.72-2.68c-5.07-3.16-11.44-5.21-16.65-8.33a48.7,48.7,0,0,1-6.24-4.16c-1.28-1.08-4-3-5.2-4.16-.61-.59-16.4-19.34-16.65-30.18-15.41,3.55-26.65,6.68-42,10.24Z" transform="translate(-451 -354)"/><path class="cls-17" d="M1234.5,695.5" transform="translate(-451 -354)"/><path class="cls-3" d="M1283.66,579a14.47,14.47,0,0,0-13.13,3.25c-2.76,2.51-4.42,6-5.89,9.42s-2.88,7-5.29,9.82-6.09,4.93-9.79,4.37a54.52,54.52,0,0,1,3,16.73l13.34-8.87c1.25-.83,2.85-1.68,4.16-.95,1.75,1,1.51,4,3.33,4.79,1.23.56,2.61-.25,3.71-1l4.5-3.16a4.41,4.41,0,0,1,2.81-1.11c1,.09,2.48,3.49,3,2.58,3.44-6.41,2-6.92,4.74-11.2,1.19-1.83,3.72-6.12,4.05-8.28.66-4.33-.2-5.57-3-9C1293.17,586.38,1288.21,580.13,1283.66,579Z" transform="translate(-451 -354)"/><path class="cls-3" d="M1295.5,721a43.14,43.14,0,0,0-11.26,1.49c-4.18-13.12-8-26.37-11.62-39.61l21.59-3.47-6.06,8.23c-1.91,2.6,2.43,5.09,4.32,2.53q4.76-6.46,9.5-12.92c1.45-2-.93-4-2.82-3.67l-30.54,4.91c-2.18.35-2.22,2.75-1,4a2.48,2.48,0,0,0,.05,1.17q1.06,3.84,2.14,7.68c-24.9,2.35-49.89,3.73-74.89,4.48-2.36-9.93-4.77-19.84-7.35-29.72,6.21-1,11.92-2.1,16.18-1.51,1.23.17,2.42,1,2.86-.22a2.64,2.64,0,0,0-1.52-3.06,7.7,7.7,0,0,0-3.67-.49l-29.43.92a7.47,7.47,0,0,0-3.75.78,2.57,2.57,0,0,0-1.08,3.32c.57.91,1.78,1.13,2.85,1.26a52,52,0,0,0,12.58-.29c2.53,9.66,4.89,19.35,7.2,29.06A183.6,183.6,0,0,1,1178,726.12a43.5,43.5,0,1,0,20.37,53.38c2.18-.07,4.36-.17,6.53-.28,5.56-.29,11.32-.3,16.77-1.49,5-1.09,9.67-3.66,12.32-8.14a11.78,11.78,0,0,0-.51-13.06c-.24-.32-.48-.63-.74-.93,16-13,29.66-28.13,43-43.78q1.85,6.12,3.8,12.23a43.47,43.47,0,1,0,16-3ZM1192,705.35c3.52,14.88,7,29.77,10.88,44.57h-.42l-4,.11a43.72,43.72,0,0,0-16.3-21.31A188.63,188.63,0,0,0,1192,705.35Zm1.21,44.84-24,.66a188.46,188.46,0,0,0,10.7-17.63A38.65,38.65,0,0,1,1193.23,750.19ZM1157.5,803a38.5,38.5,0,1,1,18.17-72.43A182.94,182.94,0,0,1,1163,751l-5.4.15c-3.21.09-3.23,5.09,0,5l1.64,0q-3,3.92-6.23,7.67c-2.09,2.43,1.43,6,3.54,3.53q4.73-5.52,9-11.38l26.42-.73,2.83-.08a38.3,38.3,0,0,1-.2,19.47c-1.56,0-3.13,0-4.7,0-11,0-23.93-10.12-34.78-12.07-3.14-.57-4.49,4.25-1.32,4.82,11,2,24.12,12.21,35.32,12.25,1.25,0,2.49,0,3.73,0A38.55,38.55,0,0,1,1157.5,803Zm72.78-37.27c-1.74,4.66-6.71,6.64-11.24,7.42-5,.88-10.33.89-15.45,1.14l-3.75.16a43.18,43.18,0,0,0,.1-19.45l9.51-.26c5.06-.14,10.84-.84,15.6,1.3C1228.78,757.72,1231.87,761.49,1230.28,765.73Zm-1.47-13.37c-5.86-3.42-13.79-3.1-20.85-2.7a1.77,1.77,0,0,0,0-.32c-4.22-16.11-8-32.32-11.82-48.52,25.06-.77,50.12-2.18,75.09-4.56q1.39,4.93,2.85,9.86C1260,722.65,1245.74,738.69,1228.81,752.36ZM1295.5,803a38.49,38.49,0,0,1-14.43-74.18c4.26,13,8.94,25.85,14.27,38.44,1.25,3,5.56.41,4.32-2.52-5.2-12.27-9.74-24.81-13.89-37.49A38.5,38.5,0,1,1,1295.5,803Z" transform="translate(-451 -354)"/></svg>