<?xml version="1.0" encoding="utf-8"?>
<!-- Generator: Adobe Illustrator 23.0.3, SVG Export Plug-In . SVG Version: 6.00 Build 0)  -->
<svg version="1.1" id="Layer_1" xmlns="http://www.w3.org/2000/svg" xmlns:xlink="http://www.w3.org/1999/xlink" x="0px" y="0px"
	 viewBox="0 0 500 500" style="enable-background:new 0 0 500 500;" xml:space="preserve">
<style type="text/css">
	.st0{fill:#F9F7F8;}
	.st1{fill:none;stroke:#520993;stroke-width:4;stroke-miterlimit:10;}
	.st2{fill:#24E2BB;}
	.st3{fill:none;stroke:#F29021;stroke-width:4;stroke-linecap:round;stroke-linejoin:round;}
	.st4{fill:#F29021;}
	.st5{fill:#FFFFFF;}
</style>
<title>consulting2</title>
<path class="st0" d="M357,195.5h-18.8c-1.8-6.2-4.3-12.1-7.3-17.8l13.3-13.3c4.3-4.3,4.3-11.2,0-15.4c0,0,0,0,0,0l-21.2-21.2
	c-4.3-4.3-11.2-4.3-15.4,0c0,0,0,0,0,0L294.1,141c-5.6-3.1-11.6-5.5-17.8-7.3v-18.7c0-6-4.9-10.9-10.9-10.9c0,0,0,0,0,0h-30.1
	c-6,0-10.9,4.9-10.9,10.9c0,0,0,0,0,0v18.8c-6.2,1.8-12.1,4.3-17.8,7.3l-13.3-13.3c-4.3-4.3-11.2-4.3-15.4,0c0,0,0,0,0,0L156.8,149
	c-4.3,4.3-4.3,11.2,0,15.4c0,0,0,0,0,0l13.2,13.3c-3.1,5.6-5.5,11.6-7.3,17.8h-18.7c-6,0-10.9,4.9-10.9,10.9c0,0,0,0,0,0v30.1
	c0,6,4.9,10.9,10.9,10.9c0,0,0,0,0,0h18.8c1.8,6.2,4.3,12.1,7.3,17.8l-13.3,13.3c-4.3,4.3-4.3,11.2,0,15.4c0,0,0,0,0,0l21.3,21.2
	c4.3,4.3,11.2,4.3,15.4,0c0,0,0,0,0,0l13.3-13.3c5.6,3.1,11.6,5.5,17.8,7.3V328c0,6,4.9,10.9,10.9,10.9h0h30c6,0,10.9-4.9,10.9-10.9
	c0,0,0,0,0,0v-18.8c6.2-1.8,12.1-4.3,17.8-7.3l13.3,13.3c4.3,4.3,11.2,4.3,15.4,0c0,0,0,0,0,0l21.2-21.2c4.3-4.3,4.3-11.2,0-15.4
	c0,0,0,0,0,0l-13.3-13.3c3.1-5.6,5.5-11.6,7.3-17.8H357c6,0,10.9-4.9,10.9-10.9v0v-30.1C367.9,200.4,363,195.5,357,195.5L357,195.5z
	 M250.4,273.3c-28.7,0-51.9-23.2-51.9-51.9s23.2-51.9,51.9-51.9s51.9,23.2,51.9,51.9c0,0,0,0,0,0
	C302.3,250.1,279.1,273.3,250.4,273.3z"/>
<path class="st1" d="M313.5,228c0-34.8-28.2-63-63-63s-63,28.2-63,63c0,18.9,13.1,32,21.5,47.4c7.4,13.4,9.5,60.6,9.5,60.6h64
	c0,0,2.1-47.2,9.5-60.6C300.4,260,313.5,246.9,313.5,228z"/>
<path class="st2" d="M220,348h62l0,0v20c0,15.5-12.5,28-28,28h-6c-15.5,0-28-12.5-28-28V348L220,348z"/>
<path class="st3" d="M231,238l19.4,93l18.6-93C269,238,250,250,231,238z"/>
<path class="st4" d="M143.2,340h-4.8c-0.5-1.6-1.1-3.1-1.9-4.5l3.4-3.4c1.1-1.1,1.1-2.8,0-3.9c0,0,0,0,0,0l-5.4-5.4
	c-1.1-1.1-2.8-1.1-3.9,0c0,0,0,0,0,0l-3.4,3.4c-1.4-0.8-2.9-1.4-4.5-1.9v-4.8c0-1.5-1.2-2.8-2.8-2.8h-7.6c-1.5,0-2.8,1.2-2.8,2.8
	v4.8c-1.6,0.5-3.1,1.1-4.5,1.9l-3.4-3.4c-1.1-1.1-2.8-1.1-3.9,0c0,0,0,0,0,0l-5.4,5.4c-1.1,1.1-1.1,2.8,0,3.9c0,0,0,0,0,0l3.4,3.4
	c-0.8,1.4-1.4,3-1.9,4.5H89c-1.5,0-2.8,1.2-2.8,2.8v7.6c0,1.5,1.2,2.8,2.7,2.8c0,0,0,0,0,0h4.8c0.5,1.6,1.1,3.1,1.9,4.5l-3.4,3.4
	c-1.1,1.1-1.1,2.8,0,3.9c0,0,0,0,0,0l5.4,5.4c1.1,1.1,2.8,1.1,3.9,0c0,0,0,0,0,0l3.4-3.4c1.4,0.8,2.9,1.4,4.5,1.9v4.8
	c0,1.5,1.2,2.8,2.8,2.8h7.6c1.5,0,2.8-1.2,2.8-2.8V369c1.6-0.5,3.1-1.1,4.5-1.9l3.4,3.4c1.1,1.1,2.8,1.1,3.9,0c0,0,0,0,0,0l5.4-5.4
	c1.1-1.1,1.1-2.8,0-3.9c0,0,0,0,0,0l-3.4-3.4c0.8-1.4,1.4-3,1.9-4.5h4.8c1.5,0,2.8-1.2,2.8-2.8c0,0,0,0,0,0v-7.6
	c0-1.5-1.1-2.8-2.7-2.9C143.3,340,143.3,340,143.2,340z M116.1,359.8c-7.3,0-13.2-5.9-13.2-13.2c0-7.3,5.9-13.2,13.2-13.2
	s13.2,5.9,13.2,13.2C129.3,353.9,123.5,359.8,116.1,359.8C116.1,359.8,116.1,359.8,116.1,359.8L116.1,359.8z"/>
<path class="st2" d="M464.1,81.7h-9.1c-0.9-3-2.1-5.9-3.5-8.6l6.4-6.4c2.1-2.1,2.1-5.4,0-7.5L447.6,49c-2.1-2.1-5.4-2.1-7.5,0
	l-6.4,6.4c-2.7-1.5-5.6-2.7-8.6-3.5v-9.1c0-2.9-2.3-5.3-5.3-5.3c0,0,0,0,0,0h-14.5c-2.9,0-5.3,2.4-5.3,5.3v9.1
	c-3,0.9-5.9,2.1-8.6,3.5l-6.4-6.4c-2.1-2.1-5.4-2.1-7.5,0l-10.3,10.2c-2.1,2.1-2.1,5.4,0,7.5l6.4,6.4c-1.5,2.7-2.7,5.6-3.5,8.6h-9.1
	c-2.9,0-5.3,2.4-5.3,5.3c0,0,0,0,0,0v14.5c0,2.9,2.4,5.3,5.3,5.3h9.1c0.9,3,2.1,5.9,3.5,8.6l-6.4,6.4c-2.1,2.1-2.1,5.4,0,7.5
	l10.3,10.3c2.1,2.1,5.4,2.1,7.5,0l6.4-6.4c2.7,1.5,5.6,2.7,8.6,3.6v9.1c0,2.9,2.4,5.3,5.3,5.3h14.5c2.9,0,5.3-2.3,5.3-5.3
	c0,0,0,0,0,0v-9.1c3-0.9,5.9-2.1,8.6-3.6l6.4,6.4c2.1,2.1,5.4,2.1,7.5,0l10.3-10.3c2.1-2.1,2.1-5.4,0-7.5l-6.4-6.4
	c1.5-2.7,2.7-5.6,3.5-8.6h9.1c2.9,0,5.3-2.3,5.3-5.3c0,0,0,0,0,0V87C469.4,84.1,467.1,81.7,464.1,81.7
	C464.2,81.7,464.1,81.7,464.1,81.7z M412.6,119.3c-13.9,0-25.1-11.2-25.1-25.1s11.2-25.1,25.1-25.1c13.9,0,25.1,11.2,25.1,25.1
	c0,0,0,0,0,0C437.7,108.1,426.5,119.3,412.6,119.3z"/>
<path class="st5" d="M407.2,419h-4.8c-0.5-1.6-1.1-3.1-1.9-4.5l3.4-3.4c1.1-1.1,1.1-2.8,0-3.9c0,0,0,0,0,0l-5.4-5.4
	c-1.1-1.1-2.8-1.1-3.9,0c0,0,0,0,0,0l-3.4,3.4c-1.4-0.8-2.9-1.4-4.5-1.9v-4.8c0-1.5-1.2-2.8-2.8-2.8h-7.6c-1.5,0-2.8,1.2-2.8,2.8
	v4.8c-1.6,0.5-3.1,1.1-4.5,1.9l-3.4-3.4c-1.1-1.1-2.8-1.1-3.9,0c0,0,0,0,0,0l-5.4,5.4c-1.1,1.1-1.1,2.8,0,3.9c0,0,0,0,0,0l3.4,3.4
	c-0.8,1.4-1.4,3-1.9,4.5H353c-1.5,0-2.8,1.2-2.8,2.8v7.6c0,1.5,1.2,2.8,2.8,2.8h4.8c0.5,1.6,1.1,3.1,1.9,4.5l-3.4,3.4
	c-1.1,1.1-1.1,2.8,0,3.9c0,0,0,0,0,0l5.4,5.4c1.1,1.1,2.8,1.1,3.9,0c0,0,0,0,0,0l3.4-3.4c1.4,0.8,2.9,1.4,4.5,1.9v4.8
	c0,1.5,1.2,2.8,2.8,2.8h7.6c1.5,0,2.8-1.2,2.8-2.8V448c1.6-0.5,3.1-1.1,4.5-1.9l3.4,3.4c1.1,1.1,2.8,1.1,3.9,0c0,0,0,0,0,0l5.4-5.4
	c1.1-1.1,1.1-2.8,0-3.9c0,0,0,0,0,0l-3.4-3.4c0.8-1.4,1.4-3,1.9-4.5h4.8c1.5,0,2.8-1.2,2.8-2.8c0,0,0,0,0,0v-7.6
	C410,420.3,408.8,419.1,407.2,419C407.3,419,407.2,419,407.2,419z M380.1,438.8c-7.3,0-13.2-5.9-13.2-13.2s5.9-13.2,13.2-13.2
	c7.3,0,13.2,5.9,13.2,13.2C393.3,432.9,387.5,438.8,380.1,438.8C380.1,438.8,380.1,438.8,380.1,438.8L380.1,438.8z"/>
</svg>
