<?xml version="1.0" encoding="utf-8"?>
<!-- Generator: Adobe Illustrator 23.0.3, SVG Export Plug-In . SVG Version: 6.00 Build 0)  -->
<svg version="1.1" id="Layer_1" xmlns="http://www.w3.org/2000/svg" xmlns:xlink="http://www.w3.org/1999/xlink" x="0px" y="0px"
	 viewBox="0 0 500 500" style="enable-background:new 0 0 500 500;" xml:space="preserve">
<style type="text/css">
	.st0{fill:none;stroke:#520993;stroke-width:4;stroke-linecap:round;stroke-miterlimit:10;}
	.st1{fill:none;stroke:#520993;stroke-width:3.57;stroke-linecap:round;stroke-miterlimit:10;}
	.st2{fill:#F9F7F8;stroke:#520993;stroke-width:4;stroke-linecap:round;stroke-miterlimit:10;}
	.st3{fill:#FFFFFF;stroke:#520993;stroke-width:4;stroke-linecap:round;stroke-miterlimit:10;}
	.st4{fill:#F29021;}
	.st5{fill:#FFFFFF;stroke:#520993;stroke-width:4;stroke-linecap:round;stroke-linejoin:round;}
	.st6{fill:none;stroke:#520993;stroke-width:4;stroke-linecap:round;stroke-linejoin:round;}
	.st7{fill:#24E2BB;}
	.st8{fill:#FFFFFF;stroke:#520993;stroke-width:3.47;stroke-linecap:round;stroke-linejoin:round;}
</style>
<title>design</title>
<path class="st0" d="M101.8,258.9c-0.7-81.1,64.6-147.5,145.7-148.1c81.1-0.7,147.5,64.6,148.1,145.7c0,0.8,0,1.6,0,2.4"/>
<line class="st1" x1="102" y1="112.9" x2="395.8" y2="112.9"/>
<rect x="231.3" y="95" class="st2" width="34.8" height="34.8"/>
<circle class="st3" cx="112.2" cy="112.4" r="10.3"/>
<circle class="st3" cx="385.6" cy="112.4" r="10.3"/>
<path class="st4" d="M189,231.7L189,231.7c4.4,0,8,3.6,8,8V388c0,4.4-3.6,8-8,8h0c-4.4,0-8-3.6-8-8V239.7
	C180.9,235.3,184.5,231.7,189,231.7z"/>
<polygon class="st5" points="198.1,185 189,169.1 179.8,185 170.7,200.8 179.8,216.7 183.3,222.7 194.6,222.7 198.1,216.7 
	207.3,200.8 "/>
<line class="st6" x1="189" y1="170.9" x2="189" y2="198.6"/>
<rect x="176.9" y="224.5" class="st3" width="24.1" height="49.1"/>
<path class="st7" d="M314.7,394.2L314.7,394.2c-4.4,0-8-3.6-8-8V237.9c0-4.4,3.6-8,8-8h0c4.4,0,8,3.6,8,8v148.3
	C322.8,390.6,319.2,394.2,314.7,394.2z"/>
<path class="st5" d="M307,166.4c0,0,26,16.7,26,32.6c-0.1,16.5-12.6,21.9-12.6,21.9h-11.3c0,0-15.4-12.5-9.2-22.3
	C310.5,182,307,166.4,307,166.4z"/>
<rect x="302.6" y="222.7" class="st5" width="24.1" height="49.1"/>
<polygon class="st8" points="254.7,191.5 246,223 250.4,230.6 252.1,233.4 257.4,233.4 259.1,230.6 262.6,223 "/>
<path class="st2" d="M254.3,393.3L254.3,393.3c-4.5-0.1-8.1-3.8-8-8.4V223.6h16.1V385C262.4,389.5,258.8,393.3,254.3,393.3
	C254.3,393.3,254.3,393.3,254.3,393.3z"/>
</svg>
