<?xml version="1.0" encoding="utf-8"?>
<!-- Generator: Adobe Illustrator 16.0.0, SVG Export Plug-In . SVG Version: 6.00 Build 0)  -->
<!DOCTYPE svg PUBLIC "-//W3C//DTD SVG 1.1//EN" "http://www.w3.org/Graphics/SVG/1.1/DTD/svg11.dtd">
<svg version="1.1" xmlns="http://www.w3.org/2000/svg" xmlns:xlink="http://www.w3.org/1999/xlink" x="0px" y="0px"
	 width="564.481px" height="91.185px" viewBox="0 0 564.481 91.185" enable-background="new 0 0 564.481 91.185"
	 xml:space="preserve">
<g id="Layer_1">
	<polygon fill="#FFED00" points="51.573,-723.063 -154.708,187.54 -136.507,187.679 71.76,-723.063 	"/>
	<g>
		<path fill="none" stroke="#1D1D1B" stroke-width="0.9957" stroke-miterlimit="10" d="M172.626,78.952c0,0,0.181-0.829-1.036-0.805
			h-39.604l0.001,0.526c-0.004,0.525-0.215,0.419-0.215,0.419h-10.94h-0.062h-10.941c0,0-0.21,0.106-0.215-0.419l0.003-0.526H70.01
			c-1.217-0.024-1.035,0.805-1.035,0.805l-0.011,1.684c0.016,0.984,0.994,0.787,0.994,0.787h50.694h0.293h50.696
			c0,0,0.978,0.197,0.994-0.787L172.626,78.952z"/>
		<path fill="none" stroke="#1D1D1B" stroke-width="0.9957" stroke-miterlimit="10" d="M163.27,29.968
			c0.053-1.194-1.375-1.358-1.375-1.358H120.8H79.704c0,0-1.427,0.164-1.375,1.358l-0.002,45.894c0,0-0.005,1.033,1.204,1.015H120.8
			h41.269c1.209,0.019,1.203-1.015,1.203-1.015L163.27,29.968z M120.8,75.845c-0.484,0-0.878-0.394-0.878-0.88
			c0-0.484,0.394-0.88,0.878-0.88c0.486,0,0.879,0.396,0.879,0.88C121.679,75.451,121.286,75.845,120.8,75.845z M161.046,73.065
			H96.753h-16.2V31.049h65.249h15.244V73.065z"/>
	</g>
	<g>
		<path fill="none" stroke="#1D1D1B" stroke-width="0.714" stroke-miterlimit="10" d="M44.367,39.903v-7.699
			c0-2.505-2.03-4.534-4.535-4.534H20.785c-2.504,0-4.535,2.029-4.535,4.534v2.778h-0.186v2.256h0.186v2.756h-0.186v4.18h0.186
			v0.968h-0.186v4.211h0.186v31.438c0,2.505,2.031,4.535,4.535,4.535h19.047c2.505,0,4.535-2.03,4.535-4.535V44.224h0.146v-4.32
			H44.367z M30.423,29.184c0.178,0,0.322,0.145,0.322,0.323s-0.145,0.322-0.322,0.322c-0.18,0-0.323-0.144-0.323-0.322
			S30.244,29.184,30.423,29.184z M28.455,31.081h3.957c0.127,0,0.232,0.104,0.232,0.232s-0.105,0.232-0.232,0.232h-3.957
			c-0.129,0-0.232-0.104-0.232-0.232S28.326,31.081,28.455,31.081z M25.9,30.799c0.279,0,0.506,0.227,0.506,0.504
			c0,0.278-0.227,0.506-0.506,0.506c-0.278,0-0.504-0.228-0.504-0.506C25.396,31.025,25.622,30.799,25.9,30.799z M30.308,83.509
			c-1.191,0-2.16-0.969-2.16-2.16c0-1.19,0.969-2.159,2.16-2.159s2.16,0.969,2.16,2.159C32.468,82.54,31.5,83.509,30.308,83.509z
			 M42.512,78.108H18.105V34.675h24.407V78.108z"/>
		<circle fill="none" stroke="#1D1D1B" stroke-width="0.714" stroke-miterlimit="10" cx="30.308" cy="81.35" r="1.918"/>
	</g>
	<g>
		<g>
			<g>
				<path fill="none" stroke="#1D1D1B" stroke-miterlimit="10" d="M364.778,41.719c0-8.364-6.781-15.148-15.146-15.148
					c-8.366,0-15.146,6.784-15.146,15.148c0,10.646,9.69,12.519,9.69,22.644h11.333C355.509,54.237,364.778,52.676,364.778,41.719z"
					/>
			</g>
			<g>
				<path fill="#1D1D1B" d="M355.327,67.699h-10.963c-0.379,0-0.688-0.309-0.688-0.689c0-0.38,0.31-0.688,0.688-0.688h10.963
					c0.381,0,0.688,0.309,0.688,0.688C356.015,67.391,355.708,67.699,355.327,67.699z"/>
			</g>
			<g>
				<path fill="#1D1D1B" d="M354.584,67.699h-9.478c-0.38,0-0.688-0.309-0.688-0.689c0-0.38,0.308-0.688,0.688-0.688h9.478
					c0.38,0,0.688,0.309,0.688,0.688C355.272,67.391,354.964,67.699,354.584,67.699z"/>
			</g>
			<g>
				<path fill="#1D1D1B" d="M354.584,70.086h-9.478c-0.38,0-0.688-0.309-0.688-0.688c0-0.381,0.308-0.688,0.688-0.688h9.478
					c0.38,0,0.688,0.307,0.688,0.688C355.272,69.777,354.964,70.086,354.584,70.086z"/>
			</g>
			<g>
				<path fill="#1D1D1B" d="M353.909,72.27h-8.127c-0.381,0-0.688-0.308-0.688-0.688c0-0.38,0.308-0.689,0.688-0.689h8.127
					c0.381,0,0.688,0.31,0.688,0.689C354.597,71.962,354.29,72.27,353.909,72.27z"/>
			</g>
			<g>
				<path fill="#1D1D1B" d="M347.068,72.261c0.076,1.468,1.29,2.636,2.776,2.636c1.488,0,2.703-1.168,2.777-2.636H347.068z"/>
			</g>
		</g>
		<g>
			<path fill="#1D1D1B" d="M347.049,58.921c-0.294,0-0.538-0.233-0.55-0.53l-0.306-7.826c-0.058-1.461-0.116-2.961-0.323-4.427
				c-0.691-0.111-1.396-0.293-1.936-0.798c-0.93-0.87-0.91-2.26-0.58-3.27c0.072-0.222,0.18-0.473,0.426-0.651
				c0.451-0.325,1.086-0.195,1.581,0.322c0.888,0.932,1.228,2.198,1.423,3.197c0.015,0.073,0.029,0.146,0.042,0.219
				c1.659,0.189,3.333,0.146,4.984-0.128c0.325-0.054,0.634-0.117,0.925-0.189c0.194-0.879,0.512-1.751,1.088-2.502
				c0.506-0.658,1.11-1.03,1.746-1.072c0.465-0.031,0.955,0.165,1.282,0.511c0.288,0.304,0.421,0.684,0.374,1.07
				c-0.047,0.386-0.256,0.688-0.434,0.906c-0.713,0.881-1.734,1.53-3.1,1.964c-0.051,0.321-0.09,0.644-0.123,0.953
				c-0.389,3.545-0.385,7.138,0.011,10.682c0.034,0.303-0.184,0.575-0.486,0.608c-0.304,0.033-0.575-0.184-0.608-0.486
				c-0.405-3.624-0.409-7.299-0.012-10.924c0.02-0.175,0.039-0.354,0.063-0.535c-0.178,0.037-0.359,0.07-0.546,0.102
				c-1.653,0.274-3.327,0.331-4.99,0.168c0.184,1.418,0.238,2.846,0.293,4.238l0.306,7.825c0.013,0.304-0.225,0.56-0.528,0.572
				C347.063,58.921,347.056,58.921,347.049,58.921z M344.413,42.38c-0.004,0.01-0.007,0.02-0.011,0.031
				c-0.214,0.657-0.269,1.607,0.285,2.123c0.247,0.231,0.6,0.36,0.981,0.445c-0.172-0.822-0.459-1.8-1.105-2.478
				C344.511,42.446,344.457,42.405,344.413,42.38z M355.667,42.365c-0.008,0-0.016,0-0.024,0c-0.413,0.028-0.771,0.415-0.946,0.646
				c-0.325,0.423-0.551,0.913-0.715,1.431c0.842-0.348,1.488-0.805,1.953-1.382c0.079-0.096,0.184-0.236,0.197-0.345
				c0.008-0.07-0.039-0.138-0.08-0.182C355.955,42.432,355.801,42.365,355.667,42.365z M344.452,42.288L344.452,42.288
				L344.452,42.288z"/>
		</g>
	</g>
	<g>
		<g>
			<g>
				<g>
					<g>
						<path fill="none" stroke="#1D1D1B" stroke-width="0.725" stroke-miterlimit="10" d="M538.936,11.198
							c-4.885-0.061-9.496,1.785-12.994,5.194c-3.494,3.408-5.453,7.975-5.511,12.855c-0.105,8.324,5.427,15.671,13.448,17.865
							l2.452,0.582l-0.331,10.41l4.524-0.263l0.052-10.001l2.524-0.618c3.145-0.775,6.04-2.389,8.373-4.665
							c3.495-3.409,5.453-7.974,5.516-12.853C557.111,19.628,549.015,11.326,538.936,11.198z M548.38,39.396
							c-5.466,5.334-14.256,5.226-19.591-0.242c-5.335-5.47-5.225-14.265,0.244-19.599c5.471-5.336,14.261-5.225,19.599,0.246
							C553.966,25.271,553.854,34.061,548.38,39.396z"/>
					</g>
				</g>
			</g>
			<g>
				<g>
					<path fill="#FFFFFF" stroke="#1D1D1B" stroke-width="0.725" stroke-miterlimit="10" d="M534.049,78.154
						c0,0.033-0.032,1.193,0.776,2.039c0.611,0.639,1.561,0.972,2.822,0.986c1.337,0.015,2.381-0.333,3.101-1.035
						c0.868-0.846,0.99-1.945,0.994-1.952l0.308-24.152l-7.687-0.199L534.049,78.154z"/>
				</g>
			</g>
		</g>
		<g opacity="0.52">
			<path fill="none" stroke="#1D1D1B" stroke-width="0.725" stroke-miterlimit="10" d="M540.781,15.782
				c-4.146-0.622-8.523,0.629-11.749,3.773c-5.469,5.334-5.579,14.129-0.244,19.599c0.257,0.265,0.526,0.512,0.799,0.751
				c5.38,4.711,13.59,4.568,18.792-0.509c5.474-5.336,5.585-14.126,0.251-19.595C546.44,17.555,543.665,16.214,540.781,15.782z"/>
		</g>
	</g>
	<g>
		<path fill="#FFFFFF" stroke="#1D1D1B" stroke-width="0.7647" stroke-miterlimit="10" d="M470.294,20.954
			c-15.489-0.077-28.108,12.417-28.184,27.904c-0.076,15.489,12.417,28.106,27.904,28.183c15.491,0.079,28.107-12.415,28.184-27.904
			C498.276,33.648,485.783,21.03,470.294,20.954"/>
		<path fill="#1D1D1B" d="M461.236,34.591c-3.848,2.381-6.539,6.118-7.577,10.523c-1.035,4.406-0.295,8.953,2.087,12.803
			c3.202,5.173,8.757,8.021,14.435,8.021c3.044,0,6.121-0.817,8.893-2.534c7.944-4.917,10.408-15.383,5.489-23.326
			C479.644,32.135,469.181,29.672,461.236,34.591 M478.406,62.327c-7.35,4.547-17.032,2.27-21.58-5.079
			c-2.202-3.561-2.889-7.766-1.93-11.842c0.958-4.074,3.447-7.535,7.007-9.738c2.565-1.587,5.411-2.343,8.226-2.343
			c5.254,0,10.392,2.637,13.354,7.422C488.033,48.096,485.753,57.775,478.406,62.327"/>
		<path fill="#1D1D1B" d="M463.24,37.831c-6.168,3.815-8.072,11.912-4.253,18.08s11.913,8.073,18.081,4.255
			c6.169-3.817,8.073-11.914,4.256-18.082C477.504,35.916,469.41,34.011,463.24,37.831"/>
		<path fill="#1D1D1B" d="M494.515,48.839c-0.012-0.564-0.242-1.092-0.647-1.485c-0.408-0.393-0.943-0.604-1.507-0.594l-6.139,0.107
			c-0.168,0.003-0.329,0.073-0.445,0.193c-0.118,0.121-0.183,0.285-0.179,0.453l0.066,3.811c0.005,0.229,0.128,0.426,0.31,0.534
			c0.099,0.059,0.214,0.092,0.336,0.09l6.138-0.109c0.566-0.01,1.094-0.238,1.487-0.646c0.392-0.406,0.602-0.941,0.594-1.506
			L494.515,48.839z M492.426,50.569l-5.503,0.097l-0.044-2.539l5.503-0.096c0.468-0.01,0.853,0.364,0.861,0.83l0.017,0.847
			C493.266,50.176,492.893,50.563,492.426,50.569"/>
	</g>
	<g>
		<path fill="none" stroke="#1D1D1B" stroke-miterlimit="10" d="M314.849,78.851c0,1.565-1.269,2.835-2.834,2.835h-42.382
			c-1.565,0-2.834-1.27-2.834-2.835V16.43c0-1.565,1.269-2.835,2.834-2.835h42.382c1.565,0,2.834,1.27,2.834,2.835V78.851z"/>
		<rect x="269.526" y="19.366" fill="none" stroke="#1D1D1B" stroke-miterlimit="10" width="42.455" height="55.904"/>
		<circle fill="none" stroke="#1D1D1B" stroke-width="0.25" stroke-miterlimit="10" cx="290.771" cy="16.691" r="0.682"/>
		<circle fill="none" stroke="#1D1D1B" stroke-width="0.25" stroke-miterlimit="10" cx="290.87" cy="78.585" r="1.518"/>
		<path fill="none" stroke="#1D1D1B" stroke-width="0.25" stroke-miterlimit="10" d="M291.439,78.968
			c0,0.081-0.072,0.145-0.163,0.145h-0.799c-0.09,0-0.164-0.063-0.164-0.145V78.14c0-0.081,0.073-0.145,0.164-0.145h0.799
			c0.091,0,0.163,0.063,0.163,0.145V78.968z"/>
	</g>
	<g>
		<path fill="none" stroke="#1D1D1B" stroke-width="0.75" stroke-miterlimit="10" d="M420.862,61.311
			c0,1.562-1.265,2.828-2.827,2.828h-25.447c-1.562,0-2.828-1.267-2.828-2.828V31.057c0-1.562,1.267-2.829,2.828-2.829h25.447
			c1.562,0,2.827,1.267,2.827,2.829V61.311z"/>
		<path fill="none" stroke="#1D1D1B" stroke-width="0.75" stroke-miterlimit="10" d="M422.633,63.031c0,1.74-1.41,3.15-3.149,3.15
			h-28.346c-1.739,0-3.149-1.41-3.149-3.15V29.334c0-1.739,1.41-3.149,3.149-3.149h28.346c1.739,0,3.149,1.41,3.149,3.149V63.031z"
			/>
		<path fill="none" stroke="#1D1D1B" stroke-width="0.75" stroke-miterlimit="10" d="M424.514,41.359
			c0,0.403-0.328,0.729-0.73,0.729l0,0c-0.404,0-0.73-0.325-0.73-0.729v-5.694c0-0.404,0.326-0.731,0.73-0.731l0,0
			c0.402,0,0.73,0.327,0.73,0.731V41.359z"/>
		<path fill="none" stroke="#1D1D1B" stroke-width="0.75" stroke-miterlimit="10" d="M416.921,24.513c0,0-1.023-1.75-1.462-6.277
			c-0.438-4.525-0.583-5.257-8.905-5.257c-0.516,0-2.261,0-2.775,0c-8.324,0-8.469,0.731-8.908,5.257
			c-0.438,4.527-1.46,6.277-1.46,6.277l-1.46,1.023h9.053h2.775h14.602L416.921,24.513z"/>
		<path fill="none" stroke="#1D1D1B" stroke-width="0.75" stroke-miterlimit="10" d="M393.41,68.104c0,0,1.022,1.75,1.461,6.277
			c0.438,4.525,0.583,5.257,8.906,5.257c0.515,0,2.261,0,2.775,0c8.323,0,8.468-0.731,8.907-5.257
			c0.438-4.527,1.46-6.277,1.46-6.277l1.461-1.023h-9.053h-2.775h-14.602L393.41,68.104z"/>
	</g>
	<g>
		<path fill="none" stroke="#1D1D1B" stroke-width="1.3985" stroke-miterlimit="10" d="M191.146,43.154V71.57
			c0,3.862,3.131,6.992,6.992,6.992h39.04c3.862,0,6.993-3.13,6.993-6.992V43.154H191.146z"/>
		<path fill="none" stroke="#1D1D1B" stroke-width="1.3985" stroke-miterlimit="10" d="M237.178,30.386h-39.04
			c-3.861,0-6.992,3.131-6.992,6.992v2.279h53.024v-2.279C244.17,33.517,241.04,30.386,237.178,30.386z"/>
		<circle fill="none" stroke="#1D1D1B" stroke-width="1.3985" stroke-miterlimit="10" cx="202.03" cy="34.763" r="1.923"/>
		<circle fill="none" stroke="#1D1D1B" stroke-width="1.3985" stroke-miterlimit="10" cx="232.447" cy="34.763" r="1.923"/>
		<text transform="matrix(1 0 0 1 208.3188 66.9072)" font-family="'MyriadPro-Bold'" font-size="19.2673">07</text>
		<path d="M202.904,34.588c0,0.482-0.391,0.874-0.874,0.874l0,0c-0.483,0-0.874-0.392-0.874-0.874v-8.216
			c0-0.482,0.391-0.874,0.874-0.874l0,0c0.482,0,0.874,0.392,0.874,0.874V34.588z"/>
		<path d="M233.146,34.588c0,0.482-0.391,0.874-0.874,0.874l0,0c-0.483,0-0.874-0.392-0.874-0.874v-8.216
			c0-0.482,0.391-0.874,0.874-0.874l0,0c0.483,0,0.874,0.392,0.874,0.874V34.588z"/>
	</g>
</g>
</svg>
