<svg xmlns="http://www.w3.org/2000/svg" width="30" height="30" viewBox="0 0 30 30">
  <g id="Asset_1" data-name="Asset 1" transform="translate(0.018)">
    <g id="Layer_1" data-name="Layer 1" transform="translate(-0.018 0)">
      <path id="Path_121" data-name="Path 121" d="M15.054,0A15.154,15.154,0,0,0,.178,12.917,15.41,15.41,0,0,0,10.294,29.975c.758.142,1.026-.34,1.026-.746V26.614c-4.205.935-5.092-2.068-5.092-2.068A4.108,4.108,0,0,0,4.555,22.29c-1.359-.944.111-.944.111-.944a3.169,3.169,0,0,1,2.3,1.586A3.23,3.23,0,0,0,8.9,24.5a3.156,3.156,0,0,0,2.451-.287,3.3,3.3,0,0,1,.924-2.058c-3.346-.387-6.858-1.709-6.858-7.553a6.021,6.021,0,0,1,1.543-4.126A5.72,5.72,0,0,1,7.106,6.41s1.266-.415,4.14,1.577a13.953,13.953,0,0,1,7.541,0c2.874-1.992,4.131-1.577,4.131-1.577a5.691,5.691,0,0,1,.185,4.041,6.021,6.021,0,0,1,1.543,4.126c0,5.91-3.521,7.2-6.876,7.553A3.68,3.68,0,0,1,18.8,24.962c0,2.058,0,3.72,0,4.22s.268.887,1.035.736A15.415,15.415,0,0,0,29.784,12.9,15.158,15.158,0,0,0,15.054,0Z" transform="translate(0.018 0)" fill="#520993" fill-rule="evenodd"/>
    </g>
  </g>
</svg>
