<?xml version="1.0" encoding="utf-8"?>
<!DOCTYPE svg PUBLIC "-//W3C//DTD SVG 1.1//EN" "http://www.w3.org/Graphics/SVG/1.1/DTD/svg11.dtd">
<svg version="1.1" xmlns="http://www.w3.org/2000/svg" xmlns:xlink="http://www.w3.org/1999/xlink" x="0px" y="0px"
	 width="182.371px" height="159.213px" viewBox="0 0 182.371 159.213" enable-background="new 0 0 182.371 159.213"
	 xml:space="preserve">
<g id="logo">
	<g>
		<g>
			<path fill="#1D1D1B" d="M35.919,126.288l-12.562,0l0-30.014l12.057,0c5.859,0,9.274,3.288,9.274,8.431
				c0,3.33-2.192,5.48-3.709,6.197c1.813,0.843,4.131,2.74,4.131,6.745C45.108,123.253,41.273,126.288,35.919,126.288z
				 M34.949,101.5l-5.733,0v6.913h5.733c2.488,0,3.878-1.391,3.878-3.457C38.827,102.892,37.436,101.5,34.949,101.5z
				 M35.329,113.683l-6.113,0v7.378l6.113-0.001c2.655,0,3.92-1.687,3.92-3.71S37.984,113.683,35.329,113.683z"/>
			<path fill="#1D1D1B" d="M67.031,126.287l-5.86-11.972h-4.215v11.972h-5.86l-0.001-30.014h11.762
				c6.112-0.001,9.738,4.172,9.738,9.189c0,4.215-2.571,6.829-5.479,7.882l6.703,12.942H67.031z M62.478,101.5h-5.522l0.001,7.925
				h5.522c2.571,0,4.257-1.644,4.257-3.962S65.05,101.5,62.478,101.5z"/>
			<path fill="#1D1D1B" d="M78.668,126.287l0-30.015h5.86l0,30.015H78.668z"/>
			<path fill="#1D1D1B" d="M110.032,123.125c-2.319,2.36-5.101,3.415-8.473,3.415c-3.205,0-5.902-1.096-8.095-3.288
				c-1.307-1.307-2.107-2.825-2.445-4.511c-0.337-1.687-0.506-4.174-0.506-7.462s0.168-5.775,0.505-7.461
				c0.338-1.728,1.139-3.204,2.445-4.51c2.192-2.193,4.89-3.289,8.093-3.289c6.829,0,10.497,4.384,11.298,9.611l-5.902,0
				c-0.716-2.909-2.487-4.384-5.396-4.384c-1.559,0-2.824,0.548-3.751,1.602c-1.096,1.391-1.434,2.487-1.433,8.431
				c0,5.902,0.252,7.083,1.433,8.474c0.885,1.054,2.15,1.559,3.751,1.559c1.729,0,3.12-0.548,4.173-1.686
				c0.885-1.012,1.349-2.361,1.349-4.005v-1.139h-5.522v-4.89l11.34,0v4.385C112.898,118.361,112.098,120.933,110.032,123.125z"/>
			<path fill="#1D1D1B" d="M134.4,126.286v-12.562h-10.159v12.562h-5.86l0-30.015h5.859l0.001,12.267H134.4l-0.001-12.267h5.86
				l0,30.015H134.4z"/>
			<path fill="#1D1D1B" d="M158.725,101.499l0.001,24.788h-5.86l0-24.788h-7.841v-5.227l21.542,0v5.227L158.725,101.499z"/>
		</g>
		<g>
			<g>
				<path fill="#1D1D1B" d="M94.962,88.506L94.962,88.506c-21.102,0.001-38.27-17.167-38.271-38.269
					c0-21.102,17.167-38.27,38.269-38.271c10.222,0,19.832,3.98,27.06,11.209c7.229,7.228,11.21,16.838,11.21,27.06
					C133.23,71.338,116.063,88.506,94.962,88.506z M94.96,15.518c-19.143,0-34.717,15.575-34.717,34.719
					c0,19.145,15.575,34.72,34.719,34.719c19.143,0,34.717-15.575,34.717-34.72c0-9.273-3.611-17.992-10.169-24.549
					C112.953,19.129,104.234,15.518,94.96,15.518z"/>
			</g>
			<g>
				<path fill="#1D1D1B" d="M97.549,70.722l1.266,0c0.834,0,1.629-0.062,2.385-0.178l4.71-17.464
					c-0.922-0.652-2.004-1.143-3.207-1.477L97.549,70.722z"/>
				<polygon fill="#1D1D1B" points="98.452,33.478 87.534,73.972 91.136,73.971 102.055,33.478 				"/>
				<path fill="#1D1D1B" d="M105.066,49.349c4.636-1.547,7.461-5.713,7.461-10.754c-0.001-7.865-5.916-12.501-13.846-12.501h-17.61
					l0.001,47.854l3.593,0.03l0.035-44.657h13.577c5.781,0,10.618,2.688,10.619,9.275c0,6.587-4.838,9.275-10.618,9.275h-0.103
					l-0.869,3.225h1.508c6.521,0,10.822,3.63,10.822,9.813c0,6.184-4.302,9.814-10.822,9.814h-6.802l-0.869,3.225h8.075
					c8.401,0,14.047-4.502,14.047-13.039C113.266,55.329,110.243,51.162,105.066,49.349z"/>
			</g>
		</g>
		<g>
			<g>
				<path fill="#1D1D1B" d="M27.779,129.864h1.29v1.289h-1.29V129.864z M27.902,134.568h1.043v9.859h-1.043L27.902,134.568z"/>
				<path fill="#1D1D1B" d="M44.574,138.312c0-1.903-0.941-2.946-2.72-2.946s-2.782,1.063-2.782,2.946l0,6.116h-1.043v-9.859h1.043
					v1.166c0.737-0.859,1.697-1.289,2.904-1.289c1.084,0,1.964,0.307,2.618,0.941c0.675,0.655,1.023,1.575,1.023,2.741v6.3h-1.043
					L44.574,138.312z"/>
				<path fill="#1D1D1B" d="M56.481,144.427l-3.601-9.859h1.146l2.966,8.632l2.966-8.632h1.146l-3.6,9.859H56.481z"/>
				<path fill="#1D1D1B" d="M72.172,143.609c1.166,0,1.882-0.348,2.721-1.187l0.777,0.613c-1.002,1.003-1.923,1.515-3.559,1.515
					c-2.72,0-4.193-1.76-4.193-5.053c0-3.191,1.473-5.052,3.948-5.052c2.475,0,3.948,1.78,3.948,4.806v0.471H68.96
					C68.96,142.238,70.064,143.609,72.172,143.609z M74.421,137.022c-0.43-1.043-1.412-1.657-2.557-1.657
					c-1.146,0-2.127,0.614-2.557,1.657c-0.225,0.634-0.286,0.9-0.348,1.862h5.809C74.708,137.942,74.688,137.615,74.421,137.022z"/>
				<path fill="#1D1D1B" d="M90.848,138.311c0-1.902-0.94-2.946-2.719-2.946c-1.78,0-2.783,1.064-2.783,2.946v6.116h-1.042l0-9.859
					h1.043v1.167c0.736-0.86,1.698-1.289,2.905-1.289c1.084,0,1.964,0.307,2.618,0.941c0.675,0.655,1.022,1.575,1.022,2.741l0,6.3
					h-1.043L90.848,138.311z"/>
				<path fill="#1D1D1B" d="M101.099,141.849v-6.505h-1.35v-0.777h1.35v-3.149h1.042v3.149h2.23v0.777h-2.23v6.525
					c0,1.043,0.471,1.637,1.514,1.637h0.716v0.92h-0.899C101.917,144.426,101.099,143.341,101.099,141.849z"/>
				<path fill="#1D1D1B" d="M112.493,129.862h1.289v1.288h-1.289V129.862z M112.616,134.566h1.043l0,9.86h-1.043V134.566z"/>
				<path fill="#1D1D1B" d="M128.879,143.464c-0.717,0.716-1.616,1.084-2.742,1.084c-1.104,0-2.025-0.369-2.74-1.084
					c-1.043-1.043-1.228-2.557-1.228-3.968c0-1.412,0.184-2.925,1.228-3.969c0.715-0.716,1.636-1.084,2.74-1.084
					c1.125,0,2.025,0.369,2.741,1.084c1.043,1.043,1.228,2.557,1.228,3.969C130.106,140.907,129.922,142.421,128.879,143.464z
					 M128.184,136.203c-0.553-0.552-1.249-0.838-2.046-0.838s-1.493,0.286-2.046,0.838c-0.818,0.818-0.879,2.148-0.879,3.294
					c0,1.145,0.062,2.475,0.88,3.293c0.552,0.552,1.248,0.838,2.045,0.838c0.798,0,1.493-0.287,2.046-0.838
					c0.818-0.818,0.879-2.148,0.879-3.293C129.062,138.351,129.001,137.021,128.184,136.203z"/>
				<path fill="#1D1D1B" d="M145.163,138.31c0-1.902-0.941-2.946-2.72-2.946c-1.78,0-2.782,1.064-2.782,2.946v6.116h-1.043v-9.859
					h1.043v1.167c0.736-0.859,1.698-1.289,2.904-1.289c1.085,0,1.964,0.307,2.619,0.941c0.675,0.654,1.022,1.575,1.022,2.741v6.3
					h-1.043L145.163,138.31z"/>
				<path fill="#1D1D1B" d="M158.194,144.548c-1.718,0-2.986-0.45-3.988-1.411l0.716-0.716c0.756,0.798,1.841,1.207,3.231,1.207
					c1.944,0,2.967-0.675,2.967-2.005c0-1.043-0.574-1.513-1.882-1.657l-1.636-0.143c-1.984-0.164-2.966-1.022-2.966-2.577
					c0-1.718,1.391-2.803,3.538-2.803c1.371,0,2.578,0.389,3.458,1.043l-0.696,0.695c-0.756-0.552-1.677-0.838-2.762-0.838
					c-1.636,0-2.515,0.675-2.515,1.902c0,1.043,0.614,1.514,2.004,1.657l1.596,0.143c1.636,0.164,2.883,0.655,2.883,2.577
					C162.142,143.423,160.629,144.548,158.194,144.548z"/>
			</g>
		</g>
	</g>
</g>
</svg>
