<?xml version="1.0" encoding="utf-8"?>
<!DOCTYPE svg PUBLIC "-//W3C//DTD SVG 1.1//EN" "http://www.w3.org/Graphics/SVG/1.1/DTD/svg11.dtd">
<svg version="1.1" xmlns="http://www.w3.org/2000/svg" xmlns:xlink="http://www.w3.org/1999/xlink" x="0px" y="0px" width="190px"
	 height="190px" viewBox="0 0 190 190" xml:space="preserve">
<g>
	<circle fill="#1D1D1B" cx="95" cy="95" r="95"/>
	<g transform="translate(-31,-230)">
		<path fill="none" stroke="#FFFFFF" stroke-width="1.4595" stroke-miterlimit="10" d="M155.017,354.105
			c0,2.895-2.346,5.242-5.241,5.242h-47.174c-2.891,0-5.242-2.348-5.242-5.242v-56.084c0-2.897,2.352-5.245,5.242-5.245h47.174
			c2.896,0,5.241,2.348,5.241,5.245V354.105z"/>
		<path fill="none" stroke="#FFFFFF" stroke-width="1.4595" stroke-miterlimit="10" d="M158.301,357.294
			c0,3.227-2.614,5.841-5.838,5.841H99.916c-3.221,0-5.838-2.614-5.838-5.841v-62.465c0-3.226,2.617-5.84,5.838-5.84h52.547
			c3.224,0,5.838,2.614,5.838,5.84V357.294z"/>
		<path fill="none" stroke="#FFFFFF" stroke-width="1.4595" stroke-miterlimit="10" d="M161.784,317.12
			c0,0.748-0.607,1.351-1.352,1.351l0,0c-0.749,0-1.351-0.603-1.351-1.351v-10.556c0-0.748,0.602-1.357,1.351-1.357l0,0
			c0.744,0,1.352,0.609,1.352,1.357V317.12z"/>
		<path fill="none" stroke="#FFFFFF" stroke-width="1.4595" stroke-miterlimit="10" d="M147.711,285.891
			c0,0-1.896-3.243-2.711-11.636c-0.812-8.391-1.08-9.746-16.507-9.746c-0.955,0-4.19,0-5.146,0
			c-15.43,0-15.697,1.355-16.514,9.746c-0.809,8.393-2.705,11.636-2.705,11.636l-2.707,1.897h16.783h5.143h27.068L147.711,285.891z
			"/>
		<path fill="none" stroke="#FFFFFF" stroke-width="1.4595" stroke-miterlimit="10" d="M104.127,366.699
			c0,0,1.896,3.243,2.707,11.636c0.812,8.391,1.084,9.746,16.511,9.746c0.958,0,4.193,0,5.146,0c15.43,0,15.697-1.355,16.51-9.746
			c0.815-8.393,2.708-11.636,2.708-11.636l2.708-1.898h-16.781h-5.145h-27.068L104.127,366.699z"/>
	</g>
</g>
</svg>
