<?xml version="1.0" encoding="utf-8"?>
<!DOCTYPE svg PUBLIC "-//W3C//DTD SVG 1.1//EN" "http://www.w3.org/Graphics/SVG/1.1/DTD/svg11.dtd">
<svg version="1.1" xmlns="http://www.w3.org/2000/svg" xmlns:xlink="http://www.w3.org/1999/xlink" x="0px" y="0px" width="190px"
	 height="190px" viewBox="0 0 190 190" xml:space="preserve">
<g>
	<circle fill="#1D1D1B" cx="95" cy="95" r="95"/>
	<g transform="translate(-256,-16)">
		<path fill="none" stroke="#FFFFFF" stroke-width="1.4595" stroke-miterlimit="10" d="M427.033,139.467
			c0,0,0.263-1.21-1.514-1.175h-57.8v0.769c-0.006,0.767-0.313,0.611-0.313,0.611H351.44h-0.091h-15.969
			c0,0-0.308,0.155-0.316-0.611l0.006-0.769h-57.803c-1.776-0.035-1.512,1.175-1.512,1.175l-0.014,2.457
			c0.022,1.437,1.451,1.148,1.451,1.148h73.984h0.428h73.991c0,0,1.426,0.288,1.451-1.148L427.033,139.467z"/>
		<path fill="none" stroke="#FFFFFF" stroke-width="1.4595" stroke-miterlimit="10" d="M413.377,67.976
			c0.08-1.743-2.007-1.982-2.007-1.982h-59.976h-59.978c0,0-2.083,0.239-2.007,1.982l-0.003,66.98c0,0-0.009,1.508,1.757,1.48
			h60.23h60.229c1.766,0.027,1.757-1.48,1.757-1.48L413.377,67.976z M351.395,134.932c-0.707,0-1.282-0.574-1.282-1.284
			c0-0.707,0.575-1.284,1.282-1.284c0.71,0,1.283,0.577,1.283,1.284C352.678,134.357,352.104,134.932,351.395,134.932z
			 M410.133,130.875h-93.834h-23.645V69.554h95.23h22.248V130.875z"/>
	</g>
</g>
</svg>
