<svg xmlns="http://www.w3.org/2000/svg" width="75.94" height="91.482" viewBox="0 0 75.94 91.482"><defs><style>.a{fill:none;stroke-linecap:round;stroke-linejoin:round;stroke-width:4px;}.a,.c{stroke:#fff;}.b{fill:#fff;}.c{fill:#131214;stroke-width:3px;}</style></defs><g transform="translate(-115.839 -90.503)"><path class="a" d="M251.587,140.458a14.3,14.3,0,0,0-26.678,10.3" transform="translate(-77.252 -27.695)"/><g transform="translate(118.498 123.402)"><path class="a" d="M137.258,230.458a25.135,25.135,0,1,1,25.135,25.135" transform="translate(-132.242 -205.323)"/><path class="a" d="M118.5,267.4l4.793,10.267,6.5-9.284" transform="translate(-118.498 -250.802)"/></g><path class="a" d="M316.233,144.749l-.543,7.94-6.6-4.44" transform="translate(-141.065 -38.334)"/><line class="a" x1="66.179" transform="translate(123.514 173.671)"/><path class="a" d="M348.384,383.154l9.813-5.665-9.813-5.665" transform="translate(-168.418 -203.901)"/><circle class="b" cx="9.37" cy="9.37" r="9.37" transform="translate(165.134 135.991)"/><rect class="c" width="18.717" height="18.717" transform="translate(122.91 161.017)"/><path class="c" d="M199.23,93.5,188,112.954h22.461Z" transform="translate(-50.918)"/></g></svg>