<svg height="91.482" viewBox="0 0 75.94 91.482" width="75.94" xmlns="http://www.w3.org/2000/svg"><g fill="none" stroke-linecap="round" stroke-linejoin="round" stroke-width="4"><path d="m251.587 140.458a14.3 14.3 0 0 0 -26.678 10.3" stroke="#fff" transform="translate(-193.091 -118.198)"/><path d="m137.258 230.458a25.135 25.135 0 1 1 25.135 25.135" stroke="#fff" transform="translate(-129.583 -172.424)"/><path d="m118.5 267.4 4.793 10.267 6.5-9.284" stroke="#fff" transform="translate(-115.839 -217.903)"/><path d="m316.233 144.749-.543 7.94-6.6-4.44" stroke="#fff" transform="translate(-256.904 -128.837)"/><path d="m73.854 83.168h-66.179" stroke="#fff"/><path d="m348.384 383.154 9.813-5.665-9.813-5.665" stroke="#fff" transform="translate(-284.257 -294.404)"/></g><circle cx="58.665" cy="54.858" fill="#fff" r="9.37"/><path d="m7.071 70.514h18.717v18.717h-18.717z" fill="#131214" stroke="#fff" stroke-width="3"/><path d="m199.23 93.5-11.23 19.454h22.461z" fill="#131214" stroke="#fff" stroke-width="3" transform="translate(-166.757 -90.503)"/></svg>