<svg xmlns="http://www.w3.org/2000/svg" width="108.382" height="91.555" viewBox="0 0 108.382 91.555"><defs><style>.a{fill:#fff;}.b,.d{fill:none;}.b,.c,.d,.e{stroke:#fff;stroke-miterlimit:10;}.b{stroke-width:2px;}.c,.e{fill:#131214;}.c{stroke-width:4px;}.d,.e{stroke-width:3px;}</style></defs><g transform="translate(-76.956 -99)"><path class="a" d="M185.914,142.7l-6.12,28.737H229.9l-9.18-28.737Z" transform="translate(-70.415 -30.065)"/><path class="a" d="M344.126,269.62A168.46,168.46,0,0,1,360.464,281c2.112,1.665,4.394,3.873,4.054,6.54a5.448,5.448,0,0,1-3.177,3.954,16.079,16.079,0,0,1-5.116,1.227L346.157,294c-1.65.208-3.446.388-4.867-.477-1.85-1.127-2.342-3.547-2.66-5.69a36.977,36.977,0,0,1-.578-9.54,12.453,12.453,0,0,1,4.137-8.379" transform="translate(-179.215 -117.392)"/><path class="b" d="M109,255.993c1.065.224,1.975-.96,1.983-2.048a8.8,8.8,0,0,0-.947-3.1,3.257,3.257,0,0,1,.085-3.118c.545-.705,1.582-1.032,1.846-1.883.523-1.686-2.473-2.759-2.276-4.514.155-1.378,2.176-1.917,2.378-3.289.139-.945-.654-1.732-1.293-2.442s-1.183-1.816-.581-2.558" transform="translate(-21.703 -92.225)"/><path class="a" d="M215.447,99h0a18.51,18.51,0,0,0-18.506,18.237h37.013A18.51,18.51,0,0,0,215.447,99Z" transform="translate(-82.212)"/><path class="c" d="M199.281,166.841a16.6,16.6,0,0,0,16.6,16.6h0a16.6,16.6,0,0,0,16.6-16.6v-6.772c0-.083,0-.165-.006-.248H199.287c0,.083-.006.165-.006.248Z" transform="translate(-82.314 -40.173)"/><path class="d" d="M82.4,340.19a3.036,3.036,0,0,0-5.945.963,6.132,6.132,0,0,0,1.456,3.208l5.027,7.014" transform="translate(2 -164.456)"/><rect class="e" width="79.212" height="50.29" rx="6" transform="translate(93.629 132.527)"/><path class="a" d="M95.957,343.25h12.555l1.395-22.32H94.283Z" transform="translate(-11.58 -152.695)"/></g></svg>