<svg height="91.555" viewBox="0 0 108.382 91.555" width="108.382" xmlns="http://www.w3.org/2000/svg"><path d="m185.914 142.7-6.12 28.737h50.106l-9.18-28.737z" fill="#fff" transform="translate(-147.371 -129.065)"/><path d="m344.126 269.62a168.46 168.46 0 0 1 16.338 11.38c2.112 1.665 4.394 3.873 4.054 6.54a5.448 5.448 0 0 1 -3.177 3.954 16.079 16.079 0 0 1 -5.116 1.227l-10.068 1.279c-1.65.208-3.446.388-4.867-.477-1.85-1.127-2.342-3.547-2.66-5.69a36.977 36.977 0 0 1 -.578-9.54 12.453 12.453 0 0 1 4.137-8.379" fill="#fff" transform="translate(-256.171 -216.392)"/><path d="m109 255.993c1.065.224 1.975-.96 1.983-2.048a8.8 8.8 0 0 0 -.947-3.1 3.257 3.257 0 0 1 .085-3.118c.545-.705 1.582-1.032 1.846-1.883.523-1.686-2.473-2.759-2.276-4.514.155-1.378 2.176-1.917 2.378-3.289.139-.945-.654-1.732-1.293-2.442s-1.183-1.816-.581-2.558" fill="none" stroke="#fff" stroke-miterlimit="10" stroke-width="2" transform="translate(-98.659 -191.225)"/><path d="m215.447 99a18.51 18.51 0 0 0 -18.506 18.237h37.013a18.51 18.51 0 0 0 -18.507-18.237z" fill="#fff" transform="translate(-159.168 -99)"/><g stroke="#fff" stroke-miterlimit="10"><path d="m199.281 166.841a16.6 16.6 0 0 0 16.6 16.6 16.6 16.6 0 0 0 16.6-16.6v-6.772c0-.083 0-.165-.006-.248h-33.188c0 .083-.006.165-.006.248z" fill="#131214" stroke-width="4" transform="translate(-159.27 -139.173)"/><path d="m82.4 340.19a3.036 3.036 0 0 0 -5.945.963 6.132 6.132 0 0 0 1.456 3.208l5.027 7.014" fill="none" stroke-width="3" transform="translate(-74.956 -263.456)"/><rect fill="#131214" height="50.29" rx="6" stroke-width="3" width="79.212" x="16.673" y="33.527"/></g><path d="m95.957 343.25h12.555l1.395-22.32h-15.624z" fill="#fff" transform="translate(-88.536 -251.695)"/></svg>