<svg xmlns="http://www.w3.org/2000/svg" width="97.088" height="97.088" viewBox="0 0 97.088 97.088"><defs><style>.a,.d{fill:#131214;}.a,.b,.d{stroke:#fff;stroke-width:3px;}.a,.b{stroke-miterlimit:10;}.b,.c{fill:#fff;}</style></defs><g transform="translate(-97 -89)"><circle class="a" cx="41.005" cy="41.005" r="41.005" transform="translate(104.734 97.568)"/><line class="b" x2="56.305" y2="56.305" transform="translate(117.382 110.625)"/><line class="b" y1="56.305" x2="56.305" transform="translate(118.606 109.401)"/><line class="b" x2="79.628" transform="translate(105.721 139.185)"/><line class="b" y1="79.628" transform="translate(145.535 97.739)"/><circle class="c" cx="8.559" cy="8.559" r="8.559" transform="translate(136.985 89)"/><circle class="c" cx="8.559" cy="8.559" r="8.559" transform="translate(136.985 168.97)"/><circle class="c" cx="8.559" cy="8.559" r="8.559" transform="translate(176.97 132.657)"/><circle class="c" cx="8.559" cy="8.559" r="8.559" transform="translate(97 132.657)"/><circle class="c" cx="8.559" cy="8.559" r="8.559" transform="translate(165.259 158.483)"/><circle class="c" cx="8.559" cy="8.559" r="8.559" transform="translate(165.259 101.935)"/><circle class="c" cx="8.559" cy="8.559" r="8.559" transform="translate(108.711 158.483)"/><circle class="c" cx="8.559" cy="8.559" r="8.559" transform="translate(108.711 101.935)"/><circle class="d" cx="8.559" cy="8.559" r="8.559" transform="translate(136.985 131.059)"/></g></svg>