<svg xmlns="http://www.w3.org/2000/svg" width="114.35" height="110.392" viewBox="0 0 114.35 110.392"><defs><style>.a,.c{fill:#fff;}.b,.d{fill:#131214;}.b,.c,.d{stroke:#fff;stroke-width:3px;}.b{stroke-miterlimit:10;}</style></defs><g transform="translate(-50.359 -56.411)"><rect class="a" width="32.999" height="32.086" rx="16.043" transform="translate(65.224 112.331)"/><path class="a" d="M97.723,187.017l-4.03,16.864h33l-5.8-16.864Z" transform="translate(-28.468 -91.55)"/><path class="a" d="M117.991,156.154h0A12.191,12.191,0,0,0,105.8,168.165h24.376A12.19,12.19,0,0,0,117.991,156.154Z" transform="translate(-37.056 -69.665)"/><path class="b" d="M107.455,203.746A10.957,10.957,0,0,0,118.412,214.7h0a10.957,10.957,0,0,0,10.957-10.957v-4.47c0-.055,0-.109,0-.164H107.459c0,.055,0,.109,0,.164Z" transform="translate(-37.309 -99.059)"/><path class="a" d="M139.63,235.874a3.4,3.4,0,0,0,3.4-3.4h-6.794A3.4,3.4,0,0,0,139.63,235.874Z" transform="translate(-58.634 -124.616)"/><path class="c" d="M269.922,80.889H256.068c-1.365,0-5.745,3.379-5.745,3.379s-.955-5.409-2.081-6.456a11.457,11.457,0,0,1-3.663-8.412h0a11.489,11.489,0,0,1,11.489-11.489h13.855A11.489,11.489,0,0,1,281.411,69.4h0A11.489,11.489,0,0,1,269.922,80.889Z" transform="translate(-135.463 0)"/><path class="d" d="M110.829,80.478h11.012c1.085,0,4.566,2.686,4.566,2.686s.76-4.3,1.654-5.132a9.107,9.107,0,0,0,2.912-6.686h0a9.132,9.132,0,0,0-9.132-9.132H110.829a9.132,9.132,0,0,0-9.132,9.132h0A9.132,9.132,0,0,0,110.829,80.478Z" transform="translate(-34.145 -3.051)"/><path class="b" d="M0,0H109.779a0,0,0,0,1,0,0V0a6.637,6.637,0,0,1-6.637,6.637H6.637A6.637,6.637,0,0,1,0,0V0A0,0,0,0,1,0,0Z" transform="translate(161.638 144.257) rotate(180)"/><path class="a" d="M359.334,300.694c5.2,3.181,8.292,7.082,13.076,10.853,1.936,1.527,4.03,3.552,3.718,6a5,5,0,0,1-2.914,3.626,14.755,14.755,0,0,1-4.692,1.125l-9.234,1.166c-1.513.191-3.161.356-4.463-.438-1.7-1.034-2.148-3.253-2.44-5.219a33.924,33.924,0,0,1-.53-8.75,11.422,11.422,0,0,1,3.794-7.684" transform="translate(-211.45 -172.159)"/><path class="a" d="M186.148,258.813a126.294,126.294,0,0,1,11.71,10.664c1.514,1.56,3.149,3.628,2.906,6.127a5.054,5.054,0,0,1-2.277,3.7,9.376,9.376,0,0,1-3.667,1.15l-7.216,1.191a4.238,4.238,0,0,1-3.488-.447c-1.326-1.056-1.679-3.322-1.906-5.33a45.075,45.075,0,0,1-.414-8.937c.257-2.975,1.182-5.969,2.965-7.849" transform="translate(-91.495 -139.99)"/><path class="a" d="M70.159,257.713a130.774,130.774,0,0,0-11.71,11.6c-1.514,1.7-3.149,3.945-2.906,6.663A5.571,5.571,0,0,0,57.82,280a8.845,8.845,0,0,0,3.667,1.25l7.216,1.3c1.183.212,2.47.4,3.488-.486,1.326-1.148,1.679-3.613,1.907-5.8a53.253,53.253,0,0,0,.414-9.718c-.257-3.234-1.182-6.491-2.965-8.535" transform="translate(-0.781 -139.828)"/><path class="a" d="M285.381,335.308H261.023a5.392,5.392,0,0,1-5.392-5.392l-1.352-28.983a5.392,5.392,0,0,1,5.392-5.392h27.062a5.392,5.392,0,0,1,5.392,5.392l-1.352,28.983A5.392,5.392,0,0,1,285.381,335.308Z" transform="translate(-142.342 -168.505)"/><path class="a" d="M214.811,300.952a154.566,154.566,0,0,0-14.985,10.44c-1.936,1.527-4.03,3.552-3.718,6a5,5,0,0,0,2.914,3.626,14.76,14.76,0,0,0,4.692,1.125l9.234,1.166c1.514.191,3.161.356,4.463-.438,1.7-1.034,2.149-3.253,2.44-5.219a33.919,33.919,0,0,0,.53-8.75,11.422,11.422,0,0,0-3.794-7.685" transform="translate(-101.07 -172.342)"/><path class="d" d="M286.47,188.106a7.077,7.077,0,0,0,.352-9.626,7.071,7.071,0,0,0-2.429-10.051,7.071,7.071,0,0,0-10.872-5.092,7.064,7.064,0,0,0-11.069-.455,7.066,7.066,0,0,0-11.1,4.078,7.064,7.064,0,0,0-3.688,9.731,7.069,7.069,0,0,0-2,9.1,7.062,7.062,0,0,0,4.087,8.835,7.077,7.077,0,0,0,7.9,8.791,17.077,17.077,0,0,0,16.079,1.033,7.066,7.066,0,0,0,7.431-4.3,7.066,7.066,0,0,0,4.977-11.742C286.25,188.308,286.364,188.213,286.47,188.106Z" transform="translate(-135.614 -72.694)"/></g></svg>