<svg height="110.392" viewBox="0 0 114.35 110.392" width="114.35" xmlns="http://www.w3.org/2000/svg"><rect fill="#fff" height="32.086" rx="16.043" width="32.999" x="14.865" y="55.92"/><path d="m97.723 187.017-4.03 16.864h33l-5.8-16.864z" fill="#fff" transform="translate(-78.827 -147.961)"/><path d="m117.991 156.154a12.191 12.191 0 0 0 -12.191 12.011h24.376a12.19 12.19 0 0 0 -12.185-12.011z" fill="#fff" transform="translate(-87.415 -126.076)"/><path d="m107.455 203.746a10.957 10.957 0 0 0 10.957 10.954 10.957 10.957 0 0 0 10.957-10.957v-4.47c0-.055 0-.109 0-.164h-21.91v.164z" fill="#131214" stroke="#fff" stroke-miterlimit="10" stroke-width="3" transform="translate(-87.668 -155.47)"/><path d="m139.63 235.874a3.4 3.4 0 0 0 3.4-3.4h-6.794a3.4 3.4 0 0 0 3.394 3.4z" fill="#fff" transform="translate(-108.993 -181.027)"/><path d="m269.922 80.889h-13.854c-1.365 0-5.745 3.379-5.745 3.379s-.955-5.409-2.081-6.456a11.457 11.457 0 0 1 -3.663-8.412 11.489 11.489 0 0 1 11.489-11.489h13.855a11.489 11.489 0 0 1 11.488 11.489 11.489 11.489 0 0 1 -11.489 11.489z" fill="#fff" stroke="#fff" stroke-width="3" transform="translate(-185.822 -56.411)"/><path d="m110.829 80.478h11.012c1.085 0 4.566 2.686 4.566 2.686s.76-4.3 1.654-5.132a9.107 9.107 0 0 0 2.912-6.686 9.132 9.132 0 0 0 -9.132-9.132h-11.012a9.132 9.132 0 0 0 -9.132 9.132 9.132 9.132 0 0 0 9.132 9.132z" fill="#131214" stroke="#fff" stroke-width="3" transform="translate(-84.504 -59.462)"/><path d="m0 0h109.779a0 0 0 0 1 0 0 6.637 6.637 0 0 1 -6.637 6.637h-96.505a6.637 6.637 0 0 1 -6.637-6.637 0 0 0 0 1 0 0z" fill="#131214" stroke="#fff" stroke-miterlimit="10" stroke-width="3" transform="matrix(-1 0 0 -1 111.279 87.846)"/><g fill="#fff"><path d="m359.334 300.694c5.2 3.181 8.292 7.082 13.076 10.853 1.936 1.527 4.03 3.552 3.718 6a5 5 0 0 1 -2.914 3.626 14.755 14.755 0 0 1 -4.692 1.125l-9.234 1.166c-1.513.191-3.161.356-4.463-.438-1.7-1.034-2.148-3.253-2.44-5.219a33.924 33.924 0 0 1 -.53-8.75 11.422 11.422 0 0 1 3.794-7.684" transform="translate(-261.809 -228.57)"/><path d="m186.148 258.813a126.294 126.294 0 0 1 11.71 10.664c1.514 1.56 3.149 3.628 2.906 6.127a5.054 5.054 0 0 1 -2.277 3.7 9.376 9.376 0 0 1 -3.667 1.15l-7.216 1.191a4.238 4.238 0 0 1 -3.488-.447c-1.326-1.056-1.679-3.322-1.906-5.33a45.075 45.075 0 0 1 -.414-8.937c.257-2.975 1.182-5.969 2.965-7.849" transform="translate(-141.854 -196.401)"/><path d="m70.159 257.713a130.774 130.774 0 0 0 -11.71 11.6c-1.514 1.7-3.149 3.945-2.906 6.663a5.571 5.571 0 0 0 2.277 4.024 8.845 8.845 0 0 0 3.667 1.25l7.216 1.3c1.183.212 2.47.4 3.488-.486 1.326-1.148 1.679-3.613 1.907-5.8a53.253 53.253 0 0 0 .414-9.718c-.257-3.234-1.182-6.491-2.965-8.535" transform="translate(-51.14 -196.239)"/><path d="m285.381 335.308h-24.358a5.392 5.392 0 0 1 -5.392-5.392l-1.352-28.983a5.392 5.392 0 0 1 5.392-5.392h27.062a5.392 5.392 0 0 1 5.392 5.392l-1.352 28.983a5.392 5.392 0 0 1 -5.392 5.392z" transform="translate(-192.701 -224.916)"/><path d="m214.811 300.952a154.566 154.566 0 0 0 -14.985 10.44c-1.936 1.527-4.03 3.552-3.718 6a5 5 0 0 0 2.914 3.626 14.76 14.76 0 0 0 4.692 1.125l9.234 1.166c1.514.191 3.161.356 4.463-.438 1.7-1.034 2.149-3.253 2.44-5.219a33.919 33.919 0 0 0 .53-8.75 11.422 11.422 0 0 0 -3.794-7.685" transform="translate(-151.429 -228.753)"/></g><path d="m286.47 188.106a7.077 7.077 0 0 0 .352-9.626 7.071 7.071 0 0 0 -2.429-10.051 7.071 7.071 0 0 0 -10.872-5.092 7.064 7.064 0 0 0 -11.069-.455 7.066 7.066 0 0 0 -11.1 4.078 7.064 7.064 0 0 0 -3.688 9.731 7.069 7.069 0 0 0 -2 9.1 7.062 7.062 0 0 0 4.087 8.835 7.077 7.077 0 0 0 7.9 8.791 17.077 17.077 0 0 0 16.079 1.033 7.066 7.066 0 0 0 7.431-4.3 7.066 7.066 0 0 0 4.977-11.742c.112-.1.226-.195.332-.302z" fill="#131214" stroke="#fff" stroke-width="3" transform="translate(-185.973 -129.105)"/></svg>