<svg xmlns="http://www.w3.org/2000/svg" width="149.866" height="91.096" viewBox="0 0 149.866 91.096"><defs><style>.a,.c{fill:#fff;}.b{fill:#520993;}.c{stroke:#131214;}.c,.e,.f,.g{stroke-miterlimit:10;}.c,.e,.f{stroke-width:3px;}.d,.e{fill:#131214;}.e,.f,.g{stroke:#fff;}.f,.g{fill:none;}.g{stroke-width:2px;}</style></defs><g transform="translate(-39.498 -160.198)"><path class="a" d="M97.934,269.424a154.006,154.006,0,0,0-13.783,13.648c-1.781,2-3.707,4.644-3.42,7.842a6.556,6.556,0,0,0,2.681,4.74,10.413,10.413,0,0,0,4.316,1.471l8.493,1.524c1.392.25,2.907.465,4.106-.573,1.561-1.351,1.976-4.252,2.244-6.822a62.679,62.679,0,0,0,.488-11.439c-.3-3.807-1.392-7.64-3.49-10.046" transform="translate(-26.347 -67.494)"/><path class="a" d="M19.42,0C30.146,0,43.225,8.695,43.225,19.42S30.146,38.84,19.42,38.84A19.42,19.42,0,0,1,19.42,0Z" transform="translate(122.272 191.898)"/><circle class="a" cx="5.712" cy="5.712" r="5.712" transform="translate(123.227 172.193)"/><circle class="b" cx="5.712" cy="5.712" r="5.712" transform="translate(145.412 169.337)"/><circle class="a" cx="5.712" cy="5.712" r="5.712" transform="translate(147.119 173.049)"/><rect class="a" width="38.84" height="38.84" rx="19.42" transform="translate(65.312 196.575)"/><path class="a" d="M116.686,206.794l-4.744,19.849h38.84l-6.83-19.849Z" transform="translate(-46.63 -30.067)"/><path class="a" d="M137.977,177.005h0a14.348,14.348,0,0,0-14.346,14.137h28.691A14.348,14.348,0,0,0,137.977,177.005Z" transform="translate(-54.181 -10.845)"/><path class="c" d="M125.226,223.945a12.95,12.95,0,0,0,12.95,12.95h0a12.95,12.95,0,0,0,12.95-12.95v-5.283c0-.065,0-.129-.005-.193h-25.89c0,.065,0,.128,0,.193Z" transform="translate(-53.985 -36.42)"/><path class="d" d="M157,254.67a4,4,0,0,0,4-4h-8A4,4,0,0,0,157,254.67Z" transform="translate(-73.155 -59.38)"/><path class="a" d="M299.425,167.846h0a14.349,14.349,0,0,0-14.346,14.137H313.77A14.349,14.349,0,0,0,299.425,167.846Z" transform="translate(-158.627 -4.935)"/><path class="e" d="M286.674,214.331a13.78,13.78,0,0,0,13.78,13.78h0a13.78,13.78,0,0,0,13.78-13.78V208.71c0-.069,0-.137-.005-.206H286.679c0,.069,0,.137,0,.206Z" transform="translate(-159.655 -31.171)"/><path class="a" d="M318.448,244.706a4,4,0,0,0,4-4h-8A4,4,0,0,0,318.448,244.706Z" transform="translate(-177.561 -52.951)"/><circle class="a" cx="5.712" cy="5.712" r="5.712" transform="translate(124.933 165.053)"/><circle class="a" cx="5.712" cy="5.712" r="5.712" transform="translate(128.346 161.055)"/><circle class="a" cx="5.712" cy="5.712" r="5.712" transform="translate(136.026 160.198)"/><circle class="a" cx="5.712" cy="5.712" r="5.712" transform="translate(143.705 161.626)"/><circle class="a" cx="5.712" cy="5.712" r="5.712" transform="translate(146.55 165.91)"/><circle class="a" cx="5.712" cy="5.712" r="5.712" transform="translate(126.739 169.189)"/><circle class="a" cx="3.672" cy="3.672" r="3.672" transform="translate(135.042 171.937)"/><rect class="e" width="57.587" height="36.561" rx="3" transform="translate(51.05 208.707)"/><g transform="translate(41 228.495)"><path class="f" d="M44.074,370.3a3.1,3.1,0,0,0-6.073.984,6.263,6.263,0,0,0,1.487,3.277l5.135,7.164" transform="translate(-38 -362.64)"/><path class="a" d="M55.722,375.531H68.546l1.425-22.8H54.012Z" transform="translate(-50.124 -352.733)"/></g><rect class="e" width="57.587" height="36.561" rx="3" transform="translate(116.12 200.731)"/><g transform="translate(169.702 204.415)"><path class="g" d="M430.73,304.208a1.7,1.7,0,0,1-1.812-1.728,7.025,7.025,0,0,1,.866-2.614,2.565,2.565,0,0,0-.077-2.63c-.5-.595-1.445-.871-1.687-1.589-.479-1.422,2.259-2.327,2.079-3.807-.142-1.162-1.988-1.617-2.173-2.774-.127-.8.6-1.461,1.182-2.06s1.081-1.532.531-2.157" transform="translate(-420.65 -284.848)"/><path class="f" d="M445.79,364.559a2.89,2.89,0,0,1,3.1-1.8,2.714,2.714,0,0,1,2.329,2.611,5,5,0,0,1-1.33,2.707l-4.593,5.917" transform="translate(-433.063 -335.103)"/><path class="a" d="M420.182,368.877H408.712l-1.275-18.828h14.274Z" transform="translate(-407.437 -326.921)"/></g></g></svg>