<svg height="91.096" viewBox="0 0 149.866 91.096" width="149.866" xmlns="http://www.w3.org/2000/svg"><path d="m97.934 269.424a154.006 154.006 0 0 0 -13.783 13.648c-1.781 2-3.707 4.644-3.42 7.842a6.556 6.556 0 0 0 2.681 4.74 10.413 10.413 0 0 0 4.316 1.471l8.493 1.524c1.392.25 2.907.465 4.106-.573 1.561-1.351 1.976-4.252 2.244-6.822a62.679 62.679 0 0 0 .488-11.439c-.3-3.807-1.392-7.64-3.49-10.046" fill="#fff" transform="translate(-65.845 -227.692)"/><path d="m19.42 0c10.726 0 23.805 8.695 23.805 19.42s-13.079 19.42-23.805 19.42a19.42 19.42 0 0 1 0-38.84z" fill="#fff" transform="translate(82.774 31.7)"/><circle cx="89.441" cy="17.707" fill="#fff" r="5.712"/><circle cx="111.626" cy="14.851" fill="#520993" r="5.712"/><circle cx="113.333" cy="18.563" fill="#fff" r="5.712"/><rect fill="#fff" height="38.84" rx="19.42" width="38.84" x="25.814" y="36.377"/><path d="m116.686 206.794-4.744 19.849h38.84l-6.83-19.849z" fill="#fff" transform="translate(-86.128 -190.265)"/><path d="m137.977 177.005a14.348 14.348 0 0 0 -14.346 14.137h28.691a14.348 14.348 0 0 0 -14.345-14.137z" fill="#fff" transform="translate(-93.679 -171.043)"/><path d="m125.226 223.945a12.95 12.95 0 0 0 12.95 12.95 12.95 12.95 0 0 0 12.95-12.95v-5.283c0-.065 0-.129-.005-.193h-25.89v.193z" fill="#fff" stroke="#131214" stroke-miterlimit="10" stroke-width="3" transform="translate(-93.483 -196.618)"/><path d="m157 254.67a4 4 0 0 0 4-4h-8a4 4 0 0 0 4 4z" fill="#131214" transform="translate(-112.653 -219.578)"/><path d="m299.425 167.846a14.349 14.349 0 0 0 -14.346 14.137h28.691a14.349 14.349 0 0 0 -14.345-14.137z" fill="#fff" transform="translate(-198.125 -165.133)"/><path d="m286.674 214.331a13.78 13.78 0 0 0 13.78 13.78 13.78 13.78 0 0 0 13.78-13.78v-5.621c0-.069 0-.137-.005-.206h-27.55v.206z" fill="#131214" stroke="#fff" stroke-miterlimit="10" stroke-width="3" transform="translate(-199.153 -191.369)"/><g fill="#fff"><path d="m318.448 244.706a4 4 0 0 0 4-4h-8a4 4 0 0 0 4 4z" transform="translate(-217.059 -213.149)"/><circle cx="91.147" cy="10.567" r="5.712"/><circle cx="94.56" cy="6.569" r="5.712"/><circle cx="102.24" cy="5.712" r="5.712"/><circle cx="109.919" cy="7.14" r="5.712"/><circle cx="112.764" cy="11.424" r="5.712"/><circle cx="92.953" cy="14.703" r="5.712"/><circle cx="99.216" cy="15.411" r="3.672"/></g><rect fill="#131214" height="36.561" rx="3" stroke="#fff" stroke-miterlimit="10" stroke-width="3" width="57.587" x="11.552" y="48.509"/><path d="m44.074 370.3a3.1 3.1 0 0 0 -6.073.984 6.263 6.263 0 0 0 1.487 3.277l5.135 7.164" fill="none" stroke="#fff" stroke-miterlimit="10" stroke-width="3" transform="translate(-36.498 -294.343)"/><path d="m55.722 375.531h12.824l1.425-22.8h-15.959z" fill="#fff" transform="translate(-48.622 -284.436)"/><rect fill="#131214" height="36.561" rx="3" stroke="#fff" stroke-miterlimit="10" stroke-width="3" width="57.587" x="76.622" y="40.533"/><path d="m430.73 304.208a1.7 1.7 0 0 1 -1.812-1.728 7.025 7.025 0 0 1 .866-2.614 2.565 2.565 0 0 0 -.077-2.63c-.5-.595-1.445-.871-1.687-1.589-.479-1.422 2.259-2.327 2.079-3.807-.142-1.162-1.988-1.617-2.173-2.774-.127-.8.6-1.461 1.182-2.06s1.081-1.532.531-2.157" fill="none" stroke="#fff" stroke-miterlimit="10" stroke-width="2" transform="translate(-290.446 -240.631)"/><path d="m445.79 364.559a2.89 2.89 0 0 1 3.1-1.8 2.714 2.714 0 0 1 2.329 2.611 5 5 0 0 1 -1.33 2.707l-4.593 5.917" fill="none" stroke="#fff" stroke-miterlimit="10" stroke-width="3" transform="translate(-302.859 -290.886)"/><path d="m420.182 368.877h-11.47l-1.275-18.828h14.274z" fill="#fff" transform="translate(-277.233 -282.704)"/></svg>