<svg xmlns="http://www.w3.org/2000/svg" width="90.27" height="111.302" viewBox="0 0 90.27 111.302"><defs><style>.a{fill:none;stroke-linecap:round;stroke-linejoin:round;}.a,.b{stroke:#000;stroke-width:4px;}.b{fill:#fff;}</style></defs><g transform="translate(-115.839 -89.503)"><path class="a" d="M257.144,142.3A17.173,17.173,0,1,0,225.1,154.669" transform="translate(-71.584 -25.662)"/><g transform="translate(118.498 129.413)"><path class="a" d="M137.258,235.51A30.187,30.187,0,1,1,167.445,265.7" transform="translate(-131.233 -205.323)"/><path class="a" d="M118.5,267.4l5.757,12.331,7.8-11.151" transform="translate(-118.498 -247.465)"/></g><path class="a" d="M316.038,144.749l-.528,7.724-6.425-4.319" transform="translate(-129.382 -34.789)"/><line class="a" x1="79.483" transform="translate(124.522 189.788)"/><path class="a" d="M348.384,385.432l11.785-6.8-11.785-6.8" transform="translate(-156.06 -188.94)"/><circle class="b" cx="11.254" cy="11.254" r="11.254" transform="translate(174.51 144.532)"/><rect width="22.48" height="22.48" transform="translate(122.553 178.324)"/><path class="b" d="M201.488,93.5,188,116.865h26.976Z" transform="translate(-47.182)"/></g></svg>