<svg xmlns="http://www.w3.org/2000/svg" width="27.282" height="30" viewBox="0 0 27.282 30">
  <g id="apple_podcast" data-name="apple podcast" transform="translate(70.747 -8.207)">
    <g id="XMLID_632_" transform="translate(-70.747 8.207)">
      <g id="XMLID_648_" transform="translate(0)">
        <g id="Group_2529" data-name="Group 2529">
          <path id="Path_36420" data-name="Path 36420" d="M27.7,28.2A3.885,3.885,0,0,0,24.891,27.2,3.885,3.885,0,0,0,22.079,28.2a1.783,1.783,0,0,0-.515,1.117,14.508,14.508,0,0,0,.063,2.934c.1,1.189.293,2.774.544,4.389a16.7,16.7,0,0,0,.455,2.213,2.2,2.2,0,0,0,2.264,1.349,2.2,2.2,0,0,0,2.264-1.349,16.7,16.7,0,0,0,.455-2.213c.251-1.615.443-3.2.544-4.389a14.509,14.509,0,0,0,.063-2.934A1.784,1.784,0,0,0,27.7,28.2Zm-5.983-5.469a3.175,3.175,0,1,0,3.175-3.175A3.175,3.175,0,0,0,21.719,22.736Zm3.135-12.529a13.641,13.641,0,0,0-4.475,26.513.182.182,0,0,0,.242-.2c-.07-.467-.137-.936-.2-1.4a.469.469,0,0,0-.276-.37,11.9,11.9,0,1,1,9.492,0,.469.469,0,0,0-.275.37c-.061.461-.127.93-.2,1.4a.182.182,0,0,0,.242.2,13.641,13.641,0,0,0-4.554-26.514Zm-.246,6.258a7.389,7.389,0,0,1,5.349,12.775.565.565,0,0,0-.178.444,13.07,13.07,0,0,1-.016,1.558.18.18,0,0,0,.28.16,9.138,9.138,0,1,0-10.285,0,.179.179,0,0,0,.279-.16,13.078,13.078,0,0,1-.016-1.558.565.565,0,0,0-.178-.444,7.389,7.389,0,0,1,4.764-12.776Z" transform="translate(-11.253 -10.207)" fill="#fff"/>
        </g>
      </g>
    </g>
  </g>
</svg>
