<svg xmlns="http://www.w3.org/2000/svg" width="36.529" height="22.37" viewBox="0 0 36.529 22.37">
  <g id="behance" transform="translate(0 -7)">
    <g id="XMLID_32_" transform="translate(0 7)">
      <g id="XMLID_33_">
        <path id="XMLID_34_" d="M43.979,40.391c-8.406,0-8.406,8.366-8.406,8.406,0,0-.563,8.366,8.406,8.366,0,0,6.757.4,7.441-4.947a.8.8,0,0,0-.764-.885H48.323a.807.807,0,0,0-.764.563c-.2.684-.925,1.81-3.419,1.81,0,0-3.258.2-3.781-2.9a.753.753,0,0,1,.764-.885h9.734a.764.764,0,0,0,.764-.764C51.7,46.907,51.3,40.391,43.979,40.391Zm-3.218,6.556a.459.459,0,0,1-.442-.6,3.769,3.769,0,0,1,3.7-2.775,3.126,3.126,0,0,1,3.3,2.856.446.446,0,0,1-.442.523ZM30.706,45.016a.322.322,0,0,1-.04-.6,3.914,3.914,0,0,0,2.051-3.781c0-3.9-2.735-5.832-6.194-5.832H15.663a.55.55,0,0,0-.563.563V56.117a.55.55,0,0,0,.563.563h10.82s6.958.2,6.958-6.476C33.441,50.245,33.682,45.982,30.706,45.016ZM20.087,39.1a.4.4,0,0,1,.4-.4h5.953s1.528,0,1.528,2.293-.925,2.614-1.931,2.614H20.53a.4.4,0,0,1-.4-.4V39.1Zm6.073,13.716H20.53a.4.4,0,0,1-.4-.4V47.389a.4.4,0,0,1,.4-.4h5.953s2.333-.04,2.293,3.017C28.775,52.538,27.046,52.779,26.161,52.819ZM39.233,35.685v1.89a.4.4,0,0,0,.4.4H47.84a.4.4,0,0,0,.4-.4v-1.89a.4.4,0,0,0-.4-.4H39.675A.391.391,0,0,0,39.233,35.685Z" transform="translate(-15.1 -34.8)" fill="#0a0a0a"/>
      </g>
    </g>
  </g>
</svg>
