<svg xmlns="http://www.w3.org/2000/svg" width="139.71" height="119.95" viewBox="0 0 139.71 119.95">
  <g id="blockchain" transform="translate(-59.147 -84.564)">
    <path id="Path_35446" data-name="Path 35446" d="M133.734,0" transform="translate(31.938 113.256)" fill="none" stroke="#131214" stroke-width="3"/>
    <g id="Group_40" data-name="Group 40" transform="translate(61.147 86.564)">
      <g id="Group_602" data-name="Group 602" transform="translate(0)">
        <path id="Path_35432" data-name="Path 35432" d="M125.3,218.21,64.091,181.038l61.847-37.492,24.334,14.626,37.512,22.546Z" transform="translate(-58.066 -117.287)" fill="none" stroke="#1a1a1a" stroke-miterlimit="10" stroke-width="4"/>
        <g id="Group_598" data-name="Group 598" transform="translate(100.461 40.498)">
          <path id="Path_35433" data-name="Path 35433" d="M399.625,228.738,382,237.2V217.106l17.625-9.165Z" transform="translate(-364.375 -199.482)" fill="#fff" stroke="#1a1a1a" stroke-linecap="round" stroke-linejoin="round" stroke-width="4"/>
          <path id="Path_35434" data-name="Path 35434" d="M332,228.738l17.625,8.46V217.106L332,207.941Z" transform="translate(-332 -199.482)" stroke="#1a1a1a" stroke-linecap="round" stroke-linejoin="round" stroke-width="4"/>
          <path id="Path_35435" data-name="Path 35435" d="M332,192.4l17.625-8.46,17.625,8.46-17.625,9.186Z" transform="translate(-332 -183.941)" fill="#fff" stroke="#1a1a1a" stroke-linecap="round" stroke-linejoin="round" stroke-width="4"/>
        </g>
        <g id="Group_599" data-name="Group 599" transform="translate(49.525 78.234)">
          <path id="Path_35436" data-name="Path 35436" d="M255.125,321.621l-17.625,8.46V309.989l17.625-9.165Z" transform="translate(-219.875 -292.364)" fill="#fff" stroke="#1a1a1a" stroke-linecap="round" stroke-linejoin="round" stroke-width="4"/>
          <path id="Path_35437" data-name="Path 35437" d="M187.5,321.621l17.625,8.46V309.989L187.5,300.824Z" transform="translate(-187.5 -292.364)" fill="#1a1a1a" stroke="#1a1a1a" stroke-linecap="round" stroke-linejoin="round" stroke-width="4"/>
          <path id="Path_35438" data-name="Path 35438" d="M222.749,285.284l-17.625-8.46-17.625,8.46" transform="translate(-187.5 -276.824)" fill="#fff" stroke="#1a1a1a" stroke-linecap="round" stroke-linejoin="round" stroke-width="4"/>
        </g>
        <g id="Group_600" data-name="Group 600" transform="translate(49.525)">
          <path id="Path_35439" data-name="Path 35439" d="M255.125,123.621l-17.625,8.46V111.989l17.625-9.165Z" transform="translate(-219.875 -94.364)" fill="#fff" stroke="#1a1a1a" stroke-linecap="round" stroke-linejoin="round" stroke-width="4"/>
          <path id="Path_35440" data-name="Path 35440" d="M187.5,123.621l17.625,8.46V111.989L187.5,102.824Z" transform="translate(-187.5 -94.364)" fill="#1a1a1a" stroke="#1a1a1a" stroke-linecap="round" stroke-linejoin="round" stroke-width="4"/>
          <path id="Path_35441" data-name="Path 35441" d="M222.749,87.284l-17.625-8.46L187.5,87.284" transform="translate(-187.5 -78.824)" fill="#fff" stroke="#1a1a1a" stroke-linecap="round" stroke-linejoin="round" stroke-width="4"/>
        </g>
        <g id="Group_601" data-name="Group 601" transform="translate(0 40.498)">
          <path id="Path_35442" data-name="Path 35442" d="M114.625,228.738,97,237.2V217.106l17.625-9.165Z" transform="translate(-79.375 -199.482)" fill="#fff" stroke="#1a1a1a" stroke-linecap="round" stroke-linejoin="round" stroke-width="4"/>
          <path id="Path_35443" data-name="Path 35443" d="M47,228.738l17.625,8.46V217.106L47,207.941Z" transform="translate(-47 -199.482)" stroke="#1a1a1a" stroke-linecap="round" stroke-linejoin="round" stroke-width="4"/>
          <path id="Path_35444" data-name="Path 35444" d="M47,192.4l17.625-8.46,17.625,8.46-17.625,9.186Z" transform="translate(-47 -183.941)" fill="#fff" stroke="#1a1a1a" stroke-linecap="round" stroke-linejoin="round" stroke-width="4"/>
        </g>
      </g>
    </g>
  </g>
</svg>
