<svg xmlns="http://www.w3.org/2000/svg" width="139.71" height="119.95" viewBox="0 0 139.71 119.95"><defs><style>.a,.b{fill:none;}.a{stroke:#131214;stroke-width:3px;}.b,.c,.d,.e{stroke:#1a1a1a;stroke-width:4px;}.b{stroke-miterlimit:10;}.c{fill:#fff;}.c,.d,.e{stroke-linecap:round;stroke-linejoin:round;}.e{fill:#1a1a1a;}</style></defs><g transform="translate(-59.147 -84.564)"><path class="a" d="M133.734,0" transform="translate(31.938 113.256)"/><g transform="translate(61.147 86.564)"><g transform="translate(0)"><path class="b" d="M125.3,218.21,64.091,181.038l61.847-37.492,24.334,14.626,37.512,22.546Z" transform="translate(-58.066 -117.287)"/><g transform="translate(100.461 40.498)"><path class="c" d="M399.625,228.738,382,237.2V217.106l17.625-9.165Z" transform="translate(-364.375 -199.482)"/><path class="d" d="M332,228.738l17.625,8.46V217.106L332,207.941Z" transform="translate(-332 -199.482)"/><path class="c" d="M332,192.4l17.625-8.46,17.625,8.46-17.625,9.186Z" transform="translate(-332 -183.941)"/></g><g transform="translate(49.525 78.234)"><path class="c" d="M255.125,321.621l-17.625,8.46V309.989l17.625-9.165Z" transform="translate(-219.875 -292.364)"/><path class="e" d="M187.5,321.621l17.625,8.46V309.989L187.5,300.824Z" transform="translate(-187.5 -292.364)"/><path class="c" d="M222.749,285.284l-17.625-8.46-17.625,8.46" transform="translate(-187.5 -276.824)"/></g><g transform="translate(49.525)"><path class="c" d="M255.125,123.621l-17.625,8.46V111.989l17.625-9.165Z" transform="translate(-219.875 -94.364)"/><path class="e" d="M187.5,123.621l17.625,8.46V111.989L187.5,102.824Z" transform="translate(-187.5 -94.364)"/><path class="c" d="M222.749,87.284l-17.625-8.46L187.5,87.284" transform="translate(-187.5 -78.824)"/></g><g transform="translate(0 40.498)"><path class="c" d="M114.625,228.738,97,237.2V217.106l17.625-9.165Z" transform="translate(-79.375 -199.482)"/><path class="d" d="M47,228.738l17.625,8.46V217.106L47,207.941Z" transform="translate(-47 -199.482)"/><path class="c" d="M47,192.4l17.625-8.46,17.625,8.46-17.625,9.186Z" transform="translate(-47 -183.941)"/></g></g></g></g></svg>