<svg xmlns="http://www.w3.org/2000/svg" width="127.922" height="115.858" viewBox="0 0 127.922 115.858">
  <g id="client_orientation" data-name="client orientation" transform="translate(-228.038 -796.092)">
    <circle id="Ellipse_199" data-name="Ellipse 199" cx="19.249" cy="19.249" r="19.249" transform="translate(273.021 798.092)" fill="#fff" stroke="#131214" stroke-miterlimit="10" stroke-width="4"/>
    <path id="Path_35803" data-name="Path 35803" d="M322.787,913.959s-23.279,6.019-30.771,4.006c-4.979-1.338-16.361-12.552-16.361-12.552" transform="translate(-28.108 -67.209)" fill="none" stroke="#131214" stroke-linecap="round" stroke-miterlimit="10" stroke-width="4"/>
    <path id="Path_35804" data-name="Path 35804" d="M254.2,975.363s-4.293-5.616-5.207-6.59c-3.767-4.013-18.22-12.355-18.22-12.355" transform="translate(0 -99.149)" fill="none" stroke="#131214" stroke-linecap="round" stroke-miterlimit="10" stroke-width="4"/>
    <path id="Path_35805" data-name="Path 35805" d="M426.348,1003.579l10.58,7.846a3.62,3.62,0,0,1,.362,5.1l-1,1.235a3.62,3.62,0,0,1-5.063.713L417.666,1007.5" transform="translate(-117.042 -128.684)" fill="none" stroke="#131214" stroke-linecap="round" stroke-miterlimit="10" stroke-width="4"/>
    <path id="Path_35806" data-name="Path 35806" d="M408.117,1014.081l14.531,11.751a3.738,3.738,0,0,1,.556,5.257l-1,1.235a3.738,3.738,0,0,1-5.257.557l-14.531-11.752" transform="translate(-107.493 -135.261)" fill="none" stroke="#131214" stroke-linecap="round" stroke-miterlimit="10" stroke-width="4"/>
    <path id="Path_35807" data-name="Path 35807" d="M392.868,1032.937l14.531,11.751a3.737,3.737,0,0,1,.556,5.256l-1,1.235a3.737,3.737,0,0,1-5.256.556l-14.531-11.751" transform="translate(-97.943 -147.069)" fill="none" stroke="#131214" stroke-miterlimit="10" stroke-width="4"/>
    <path id="Path_35808" data-name="Path 35808" d="M376.993,1051.793l11.867,9.6c1.311,1.06,1.321,3.221.023,4.826l-1,1.235a3.1,3.1,0,0,1-4.488.7l-12.476-9.68" transform="translate(-87.768 -158.878)" fill="none" stroke="#131214" stroke-linecap="round" stroke-miterlimit="10" stroke-width="4"/>
    <g id="Group_1233" data-name="Group 1233" transform="translate(252.594 871.345)">
      <path id="Path_35809" data-name="Path 35809" d="M291.545,1000.691l3.861-5.369a3.619,3.619,0,0,1,5.1-.362l1.235,1a3.62,3.62,0,0,1,.713,5.063l-4.152,5.135" transform="translate(-290.654 -994.082)" fill="none" stroke="#131214" stroke-miterlimit="10" stroke-width="4"/>
      <path id="Path_35810" data-name="Path 35810" d="M309.623,1013.833l4.936-6.1a3.737,3.737,0,0,1,5.256-.556l1.235,1a3.738,3.738,0,0,1,.556,5.257l-4.936,6.1" transform="translate(-301.975 -1001.76)" fill="none" stroke="#131214" stroke-linecap="round" stroke-miterlimit="10" stroke-width="4"/>
      <path id="Path_35811" data-name="Path 35811" d="M328.478,1029.081l4.935-6.1a3.738,3.738,0,0,1,5.257-.556l1.235,1a3.738,3.738,0,0,1,.556,5.256l-4.935,6.1" transform="translate(-313.783 -1011.309)" fill="none" stroke="#131214" stroke-miterlimit="10" stroke-width="4"/>
      <path id="Path_35812" data-name="Path 35812" d="M347.334,1049.46l2.781-3.439c1.06-1.311,3.221-1.321,4.826-.023l1.235,1a3.1,3.1,0,0,1,.7,4.488l-2.04,2.9" transform="translate(-325.591 -1025.988)" fill="none" stroke="#131214" stroke-linecap="round" stroke-miterlimit="10" stroke-width="4"/>
      <path id="Path_35813" data-name="Path 35813" d="M354.077,1052.236l-3.862,5.369a3.619,3.619,0,0,1-5.1.362l-1.235-1a3.619,3.619,0,0,1-.712-5.062l4.152-5.134" transform="translate(-322.522 -1027.079)" fill="none" stroke="#131214" stroke-linecap="round" stroke-miterlimit="10" stroke-width="4"/>
      <path id="Path_35814" data-name="Path 35814" d="M335.924,1034.89l-4.935,6.1a3.738,3.738,0,0,1-5.257.556l-1.235-1a3.737,3.737,0,0,1-.556-5.257l4.935-6.1" transform="translate(-310.421 -1016.069)" fill="none" stroke="#131214" stroke-linecap="round" stroke-miterlimit="10" stroke-width="4"/>
      <path id="Path_35815" data-name="Path 35815" d="M317.068,1019.641l-4.935,6.1a3.737,3.737,0,0,1-5.256.556l-1.235-1a3.737,3.737,0,0,1-.556-5.256l4.936-6.1" transform="translate(-298.613 -1006.519)" fill="none" stroke="#131214" stroke-miterlimit="10" stroke-width="4"/>
      <path id="Path_35816" data-name="Path 35816" d="M299.394,1010.79l-2.781,3.439c-1.06,1.311-3.221,1.321-5.061.313l-1.235-1c-1.37-1.589-1.521-3.469-.461-4.779l1.586-2.176" transform="translate(-289.161 -1001.915)" fill="none" stroke="#131214" stroke-linecap="round" stroke-miterlimit="10" stroke-width="4"/>
    </g>
    <path id="Path_35817" data-name="Path 35817" d="M366.108,943.6l-9.54,4.607a5.42,5.42,0,0,1-7.237-2.524h0a5.42,5.42,0,0,1,2.523-7.237l14.416-7" transform="translate(-73.909 -83.512)" fill="none" stroke="#131214" stroke-linecap="round" stroke-miterlimit="10" stroke-width="4"/>
    <path id="Path_35818" data-name="Path 35818" d="M469.615,992.131s6.529-6.95,9.249-8.5c5.612-3.188,23.745-10.028,23.745-10.028" transform="translate(-149.574 -109.915)" fill="none" stroke="#131214" stroke-linecap="round" stroke-miterlimit="10" stroke-width="4.54"/>
    <path id="Path_35819" data-name="Path 35819" d="M396,921.991a4.792,4.792,0,0,1,2.729-.852c4.428.667,12.462,5.334,17.1,5.332,7.663,0,28.656-9.8,28.656-9.8" transform="translate(-103.475 -74.261)" fill="none" stroke="#131214" stroke-linecap="round" stroke-miterlimit="10" stroke-width="4"/>
    <path id="Path_35820" data-name="Path 35820" d="M412.536,978.367c-4.9.518-15.555-4.928-16.6-14.782" transform="translate(-103.435 -103.638)" fill="none" stroke="#131214" stroke-linecap="round" stroke-miterlimit="10" stroke-width="4"/>
    <path id="Path_35821" data-name="Path 35821" d="M448.923,1008.171" transform="translate(-136.616 -131.56)" fill="none" stroke="#131214" stroke-miterlimit="10" stroke-width="4"/>
    <path id="Path_35822" data-name="Path 35822" d="M371.149,837.64s5.044,6.8,5.5,6.651,12.933-14.316,12.933-14.316" transform="translate(-87.911 -19.967)" fill="none" stroke="#131214" stroke-linecap="round" stroke-miterlimit="10" stroke-width="5"/>
  </g>
</svg>
