<svg xmlns="http://www.w3.org/2000/svg" xmlns:xlink="http://www.w3.org/1999/xlink" width="132.566" height="129.266" viewBox="0 0 132.566 129.266">
  <defs>
    <clipPath id="clip-path">
      <rect id="Rectangle_1160" data-name="Rectangle 1160" width="132.566" height="121.266" transform="translate(-2)" fill="none"/>
    </clipPath>
  </defs>
  <g id="client_orientation" data-name="client orientation" transform="translate(2)">
    <circle id="Ellipse_234" data-name="Ellipse 234" cx="49.5" cy="49.5" r="49.5" transform="translate(14.782 30.266)" fill="#f7931e"/>
    <g id="Group_2381" data-name="Group 2381" clip-path="url(#clip-path)">
      <path id="Path_36358" data-name="Path 36358" d="M95.808,117.192s-24.163,6.248-31.94,4.158c-5.168-1.388-16.983-13.028-16.983-13.028" transform="translate(-28.696 -66.298)" fill="none" stroke="#0a0a0a" stroke-linecap="round" stroke-width="3"/>
      <path id="Path_36359" data-name="Path 36359" d="M26.317,178.99s-4.456-5.829-5.405-6.841C17,167.984,2,159.325,2,159.325" transform="translate(-1.224 -97.514)" fill="none" stroke="#0a0a0a" stroke-linecap="round" stroke-width="3"/>
      <path id="Path_36360" data-name="Path 36360" d="M197.909,206.487l10.981,8.144a3.757,3.757,0,0,1,.376,5.294l-1.037,1.282a3.757,3.757,0,0,1-5.255.74L188.9,210.561" transform="translate(-115.613 -126.379)" fill="none" stroke="#0a0a0a" stroke-linecap="round" stroke-width="3"/>
      <path id="Path_36361" data-name="Path 36361" d="M179.564,216.989l15.083,12.2a3.879,3.879,0,0,1,.577,5.456l-1.037,1.282a3.88,3.88,0,0,1-5.456.577l-15.083-12.2" transform="translate(-106.28 -132.807)" fill="none" stroke="#0a0a0a" stroke-linecap="round" stroke-width="3"/>
      <path id="Path_36362" data-name="Path 36362" d="M164.315,235.845l15.083,12.2a3.88,3.88,0,0,1,.577,5.456l-1.037,1.282a3.88,3.88,0,0,1-5.456.577L158.4,243.16" transform="translate(-96.947 -144.347)" fill="none" stroke="#0a0a0a" stroke-width="3"/>
      <path id="Path_36363" data-name="Path 36363" d="M148.454,254.7l12.318,9.962c1.361,1.1,1.371,3.343.024,5.009l-1.037,1.282a3.214,3.214,0,0,1-4.659.723l-12.95-10.048" transform="translate(-87.002 -155.888)" fill="none" stroke="#0a0a0a" stroke-linecap="round" stroke-width="3"/>
      <path id="Path_36364" data-name="Path 36364" d="M62.775,203.85l4.008-5.573a3.757,3.757,0,0,1,5.293-.376l1.282,1.037a3.757,3.757,0,0,1,.739,5.255l-4.31,5.329" transform="translate(-38.421 -120.567)" fill="none" stroke="#0a0a0a" stroke-width="3"/>
      <path id="Path_36365" data-name="Path 36365" d="M80.853,217.025l5.123-6.335a3.88,3.88,0,0,1,5.456-.577l1.282,1.037a3.879,3.879,0,0,1,.577,5.456l-5.123,6.335" transform="translate(-49.486 -128.07)" fill="none" stroke="#0a0a0a" stroke-linecap="round" stroke-width="3"/>
      <path id="Path_36366" data-name="Path 36366" d="M99.709,232.274l5.123-6.335a3.88,3.88,0,0,1,5.456-.577l1.282,1.037a3.879,3.879,0,0,1,.577,5.456l-5.123,6.335" transform="translate(-61.026 -137.403)" fill="none" stroke="#0a0a0a" stroke-width="3"/>
      <path id="Path_36367" data-name="Path 36367" d="M118.564,252.537l2.887-3.57c1.1-1.361,3.343-1.371,5.009-.024l1.282,1.037a3.213,3.213,0,0,1,.723,4.659l-2.118,3.013" transform="translate(-72.566 -151.75)" fill="none" stroke="#0a0a0a" stroke-linecap="round" stroke-width="3"/>
      <path id="Path_36368" data-name="Path 36368" d="M125.749,255.352l-4.008,5.573a3.757,3.757,0,0,1-5.293.376l-1.282-1.037a3.757,3.757,0,0,1-.739-5.255l4.31-5.329" transform="translate(-69.567 -152.815)" fill="none" stroke="#0a0a0a" stroke-linecap="round" stroke-width="3"/>
      <path id="Path_36369" data-name="Path 36369" d="M107.642,238.015l-5.123,6.335a3.88,3.88,0,0,1-5.456.577l-1.282-1.037a3.879,3.879,0,0,1-.577-5.456l5.123-6.335" transform="translate(-57.74 -142.055)" fill="none" stroke="#0a0a0a" stroke-linecap="round" stroke-width="3"/>
      <path id="Path_36370" data-name="Path 36370" d="M88.786,222.766,83.663,229.1a3.88,3.88,0,0,1-5.456.577l-1.282-1.037a3.879,3.879,0,0,1-.577-5.456l5.123-6.335" transform="translate(-46.2 -132.722)" fill="none" stroke="#0a0a0a" stroke-width="3"/>
      <path id="Path_36371" data-name="Path 36371" d="M71.013,213.858l-2.887,3.57c-1.1,1.361-3.343,1.371-5.253.325l-1.282-1.037c-1.422-1.649-1.579-3.6-.479-4.961l1.646-2.259" transform="translate(-36.962 -128.221)" fill="none" stroke="#0a0a0a" stroke-linecap="round" stroke-width="3"/>
      <path id="Path_36372" data-name="Path 36372" d="M138,146.969l-9.9,4.782a5.625,5.625,0,0,1-4.893-10.131l14.963-7.264" transform="translate(-73.458 -82.231)" fill="none" stroke="#0a0a0a" stroke-linecap="round" stroke-width="3"/>
      <path id="Path_36373" data-name="Path 36373" d="M240.845,195.743s6.778-7.214,9.6-8.818c5.825-3.309,24.647-10.409,24.647-10.409" transform="translate(-147.408 -108.036)" fill="none" stroke="#0a0a0a" stroke-linecap="round" stroke-width="3"/>
      <path id="Path_36374" data-name="Path 36374" d="M167.232,125.1a4.971,4.971,0,0,1,2.832-.885c4.6.692,12.935,5.537,17.751,5.535,7.953,0,29.744-10.168,29.744-10.168" transform="translate(-102.353 -73.191)" fill="none" stroke="#0a0a0a" stroke-linecap="round" stroke-width="3"/>
      <path id="Path_36375" data-name="Path 36375" d="M184.4,181.836c-5.083.538-16.146-5.116-17.228-15.343" transform="translate(-102.315 -101.901)" fill="none" stroke="#0a0a0a" stroke-linecap="round" stroke-width="3"/>
      <path id="Path_36376" data-name="Path 36376" d="M154.021,21.98A19.98,19.98,0,1,1,134.041,2a19.98,19.98,0,0,1,19.98,19.98" transform="translate(-69.81 1.776)" fill="#fff"/>
      <circle id="Ellipse_233" data-name="Ellipse 233" cx="19.98" cy="19.98" r="19.98" transform="translate(44.251 3.776)" fill="none" stroke="#0a0a0a" stroke-width="3"/>
      <path id="Path_36377" data-name="Path 36377" d="M141.4,41.84s5.236,7.054,5.712,6.9,13.424-14.859,13.424-14.859" transform="translate(-86.541 -17.739)" fill="none" stroke="#f7931e" stroke-linecap="round" stroke-width="5"/>
    </g>
  </g>
</svg>
