<svg xmlns="http://www.w3.org/2000/svg" width="108.028" height="111.314" viewBox="0 0 108.028 111.314"><defs><style>.a{fill:none;stroke-miterlimit:10;}.a,.c{stroke:#000;}.a,.c,.d{stroke-width:4px;}.b{fill:#131214;}.c,.d{fill:#fff;}.c{stroke-linecap:round;stroke-linejoin:round;}.d{stroke:#131214;}</style></defs><g transform="translate(-100.799 -98.684)"><rect class="a" width="72.965" height="72.867" rx="10.292" transform="translate(125.936 117.796)"/><g transform="translate(100.799 100.684)"><rect class="b" width="5.826" height="59.558" rx="2.913" transform="translate(4.12 62.389) rotate(-135)"/><path class="c" d="M238.365,100.684s2.38,10.955-1.7,15a8.481,8.481,0,0,1-8.853,2.372l-2.9-2.9s-.745-7.154,3.374-8.07A16.719,16.719,0,0,0,238.365,100.684Z" transform="translate(-179.905 -100.684)"/><rect class="c" width="8.739" height="17.803" transform="translate(36.506 32.062) rotate(-135)"/></g><path class="d" d="M335.694,139.2h-2.553a12.355,12.355,0,0,0-1-2.415l1.8-1.8a1.485,1.485,0,0,0,0-2.1l-2.889-2.889a1.485,1.485,0,0,0-2.1,0l-1.8,1.8a12.363,12.363,0,0,0-2.415-1v-2.553a1.486,1.486,0,0,0-1.486-1.485h-4.085a1.485,1.485,0,0,0-1.486,1.485V130.8a12.359,12.359,0,0,0-2.415,1l-1.8-1.8a1.485,1.485,0,0,0-2.1,0l-2.889,2.889a1.485,1.485,0,0,0,0,2.1l1.8,1.8a12.375,12.375,0,0,0-1,2.415h-2.553a1.485,1.485,0,0,0-1.485,1.485v4.085a1.485,1.485,0,0,0,1.485,1.485h2.553a12.374,12.374,0,0,0,1,2.415l-1.8,1.8a1.485,1.485,0,0,0,0,2.1l2.889,2.889a1.485,1.485,0,0,0,2.1,0l1.8-1.8a12.358,12.358,0,0,0,2.415,1v2.553a1.485,1.485,0,0,0,1.486,1.485h4.085a1.486,1.486,0,0,0,1.486-1.485v-2.553a12.362,12.362,0,0,0,2.415-1l1.8,1.8a1.485,1.485,0,0,0,2.1,0l2.889-2.889a1.485,1.485,0,0,0,0-2.1l-1.8-1.8a12.355,12.355,0,0,0,1-2.415h2.553a1.485,1.485,0,0,0,1.485-1.485v-4.085A1.485,1.485,0,0,0,335.694,139.2ZM321.21,149.787a7.056,7.056,0,1,1,7.056-7.056A7.056,7.056,0,0,1,321.21,149.787Z" transform="translate(-130.353 -16.627)"/><path class="b" d="M259.626,230.2l-.045.029,4.676,7.268a3.032,3.032,0,0,1,.339,2.556c-1.684,5.311-7.37,5.428-9.594,1.972l-4.027-6.259-.045.029.406,8.43a3.023,3.023,0,0,0,1.839,2.638l8.226,3.488.045-.029,9.912,13.257-.012.008L285.187,285.1a3.023,3.023,0,0,0,4.178.907h0a3.023,3.023,0,0,0,.907-4.178l-13.841-21.514.012-.008-7.956-14.516.045-.029.235-8.932a3.023,3.023,0,0,0-1.638-2.768Z" transform="translate(-84.224 -76.491)"/><path class="b" d="M149.368,284.887h-2.546a12.336,12.336,0,0,0-1-2.408l1.8-1.8a1.482,1.482,0,0,0,0-2.095l-2.881-2.881a1.481,1.481,0,0,0-2.095,0l-1.8,1.8a12.327,12.327,0,0,0-2.408-1v-2.546a1.481,1.481,0,0,0-1.481-1.482h-4.074a1.481,1.481,0,0,0-1.481,1.482v2.546a12.333,12.333,0,0,0-2.408,1l-1.8-1.8a1.481,1.481,0,0,0-2.095,0l-2.88,2.881a1.481,1.481,0,0,0,0,2.095l1.8,1.8a12.335,12.335,0,0,0-1,2.408h-2.546A1.481,1.481,0,0,0,119,286.368v4.074a1.481,1.481,0,0,0,1.481,1.482h2.546a12.332,12.332,0,0,0,1,2.408l-1.8,1.8a1.481,1.481,0,0,0,0,2.1l2.88,2.88a1.481,1.481,0,0,0,2.095,0l1.8-1.8a12.336,12.336,0,0,0,2.408,1v2.546a1.481,1.481,0,0,0,1.481,1.481h4.074a1.481,1.481,0,0,0,1.481-1.481V300.3a12.33,12.33,0,0,0,2.408-1l1.8,1.8a1.481,1.481,0,0,0,2.095,0l2.881-2.88a1.482,1.482,0,0,0,0-2.1l-1.8-1.8a12.333,12.333,0,0,0,1-2.408h2.546a1.481,1.481,0,0,0,1.481-1.482v-4.074A1.481,1.481,0,0,0,149.368,284.887Zm-14.443,10.555a7.036,7.036,0,1,1,7.037-7.037A7.036,7.036,0,0,1,134.925,295.441Z" transform="translate(-12.958 -94.488)"/></g></svg>