<svg xmlns="http://www.w3.org/2000/svg" width="30" height="30" viewBox="0 0 30 30">
  <path id="dribble" d="M33.189,16.389a15,15,0,1,0-25.3,13.627,15.153,15.153,0,0,0,2.219,1.83,14.995,14.995,0,0,0,19-1.83A15.226,15.226,0,0,0,30.931,27.8a15.049,15.049,0,0,0,2.258-11.409ZM31.3,19.281a29.659,29.659,0,0,0-8.922-.42q-.135-.329-.276-.661c-.266-.627-.553-1.248-.852-1.858,5.06-2.064,7.114-5.034,7.137-5.07A12.745,12.745,0,0,1,31.3,19.281ZM26.955,9.795c-.032.05-1.856,2.826-6.691,4.639a65.073,65.073,0,0,0-4.788-7.473,12.794,12.794,0,0,1,11.48,2.834ZM15.425,6.971s0,0,0,0l-.038.008C15.4,6.978,15.412,6.976,15.425,6.971Zm-2.4.852A77.011,77.011,0,0,1,17.785,15.2,47.387,47.387,0,0,1,5.957,16.768,12.829,12.829,0,0,1,13.027,7.823ZM5.683,19.408c0-.137.006-.27.011-.4a46.974,46.974,0,0,0,13.152-1.825c.367.718.718,1.448,1.039,2.178-.169.047-.338.1-.5.153A20.267,20.267,0,0,0,8.96,27.964s0,0,0,.006A12.768,12.768,0,0,1,5.683,19.408ZM18.494,32.219a12.756,12.756,0,0,1-8.16-2.936c.168.137.287.224.287.224s2.456-5.355,10.053-8c.029-.011.057-.019.086-.027A53.3,53.3,0,0,1,23.5,31.2,12.746,12.746,0,0,1,18.494,32.219Zm7.159-2.185a55.4,55.4,0,0,0-2.493-9.15,18.564,18.564,0,0,1,7.983.559A12.819,12.819,0,0,1,25.652,30.034Z" transform="translate(-3.493 -4.409)" fill="#0a0a0a" fill-rule="evenodd"/>
</svg>
