<svg width="537" height="716" viewBox="0 0 537 716" fill="none" xmlns="http://www.w3.org/2000/svg">
<g clip-path="url(#clip0_4461_474)">
<rect width="537" height="716" fill="#FE6B00"/>
<rect y="-12" width="183" height="738" fill="white"/>
<rect x="46.7578" y="358" width="697.587" height="697.587" rx="324.58" transform="rotate(-45 46.7578 358)" fill="white"/>
<path d="M53.585 162.771L66.389 150.937C76.089 142.013 77.932 135.999 77.932 129.403C77.932 116.793 67.165 108.742 51.548 108.742C38.162 108.742 28.559 114.368 23.418 122.904L37.677 130.858C40.393 126.493 44.855 124.262 49.802 124.262C55.622 124.262 58.532 126.881 58.532 131.246C58.532 134.059 57.756 137.163 52.324 142.207L26.91 165.972V178H79.775V162.771H53.585ZM104.779 134.835H100.22L101.093 124.941H128.447V110.1H85.1854L81.7904 149.773H100.22C110.599 149.773 113.412 152.489 113.412 156.66C113.412 161.219 109.047 163.838 102.548 163.838C96.0494 163.838 89.2594 161.898 83.7304 158.212L76.8434 172.665C83.7304 177.03 93.7214 179.358 103.13 179.358C123.597 179.358 132.715 168.3 132.715 156.175C132.715 144.147 124.858 134.835 104.779 134.835ZM172.459 178H191.665V125.329H212.423V110.1H151.604V125.329H172.459V178ZM246.872 179.358C268.6 179.358 284.605 164.42 284.605 144.05C284.605 123.68 268.6 108.742 246.872 108.742C225.144 108.742 209.139 123.68 209.139 144.05C209.139 164.42 225.144 179.358 246.872 179.358ZM246.872 163.45C236.59 163.45 228.539 155.787 228.539 144.05C228.539 132.313 236.59 124.65 246.872 124.65C257.154 124.65 265.205 132.313 265.205 144.05C265.205 155.787 257.154 163.45 246.872 163.45ZM322.905 179.358C344.633 179.358 360.638 164.42 360.638 144.05C360.638 123.68 344.633 108.742 322.905 108.742C301.177 108.742 285.172 123.68 285.172 144.05C285.172 164.42 301.177 179.358 322.905 179.358ZM322.905 163.45C312.623 163.45 304.572 155.787 304.572 144.05C304.572 132.313 312.623 124.65 322.905 124.65C333.187 124.65 341.238 132.313 341.238 144.05C341.238 155.787 333.187 163.45 322.905 163.45ZM364.697 178H416.301V162.771H383.903V110.1H364.697V178ZM441.574 179.358C461.75 179.358 471.644 169.27 471.644 157.436C471.644 132.41 433.135 140.17 433.135 129.791C433.135 126.396 436.045 123.68 444.096 123.68C450.013 123.68 456.415 125.426 462.914 128.918L468.831 114.659C462.138 110.779 453.02 108.742 444.193 108.742C424.017 108.742 414.123 118.636 414.123 130.761C414.123 155.981 452.729 148.124 452.729 158.891C452.729 162.189 449.625 164.42 441.671 164.42C433.814 164.42 425.278 161.704 419.264 157.727L412.959 171.889C419.361 176.351 430.419 179.358 441.574 179.358ZM94.422 285.815L87.244 279.413C90.154 274.951 92.288 269.713 93.549 263.99L78.708 259.528C78.029 263.117 77.059 266.318 75.701 269.228L65.807 260.401C74.44 255.648 78.417 250.41 78.417 243.426C78.417 233.435 69.978 227.13 57.465 227.13C43.691 227.13 34.67 234.211 34.67 244.59C34.67 249.246 36.707 253.708 41.169 258.267C31.372 263.602 27.007 269.616 27.007 278.249C27.007 289.307 38.453 297.358 54.07 297.358C62.703 297.358 70.56 294.836 76.865 290.374L84.528 297.164L94.422 285.815ZM57.465 239.255C61.054 239.255 62.897 241.098 62.897 243.814C62.897 246.336 61.054 248.567 55.816 251.38C52.324 248.082 51.451 246.433 51.451 244.299C51.451 241.389 53.585 239.255 57.465 239.255ZM55.428 283.293C49.026 283.293 45.049 280.286 45.049 276.212C45.049 272.817 46.795 270.101 51.16 267.482L65.807 280.48C62.703 282.323 59.114 283.293 55.428 283.293ZM138.97 281.159V268.743H169.137V254.387H138.97V242.941H173.211V228.1H119.958V296H174.472V281.159H138.97ZM243.551 296L218.331 260.886L241.999 228.1H221.241L207.855 247.694L194.275 228.1H172.644L196.312 261.662L171.577 296H193.499L207.37 274.951L221.435 296H243.551ZM255.597 296H274.803V243.329H295.561V228.1H234.742V243.329H255.597V296ZM338.717 296H359.281L344.634 274.66C353.073 270.586 357.923 263.214 357.923 253.223C357.923 237.703 346.283 228.1 327.756 228.1H296.716V296H315.922V277.958H326.398L338.717 296ZM338.523 253.223C338.523 259.431 334.546 263.117 326.592 263.117H315.922V243.232H326.592C334.546 243.232 338.523 246.918 338.523 253.223ZM413.347 296H433.329L403.259 228.1H384.344L354.371 296H373.965L379.3 282.808H408.012L413.347 296ZM384.926 268.646L393.656 246.918L402.386 268.646H384.926ZM45.243 414H64.449V361.329H85.207V346.1H24.388V361.329H45.243V414ZM133.78 414H153.762L123.692 346.1H104.777L74.8041 414H94.3981L99.7331 400.808H128.445L133.78 414ZM105.359 386.646L114.089 364.918L122.819 386.646H105.359ZM186.113 415.358C198.626 415.358 208.714 410.799 215.31 402.554L203.088 391.496C198.82 396.637 193.582 399.45 187.083 399.45C175.928 399.45 168.168 391.69 168.168 380.05C168.168 368.41 175.928 360.65 187.083 360.65C193.582 360.65 198.82 363.463 203.088 368.604L215.31 357.546C208.714 349.301 198.626 344.742 186.113 344.742C164.579 344.742 148.768 359.389 148.768 380.05C148.768 400.711 164.579 415.358 186.113 415.358ZM231.758 414H250.964V361.329H271.722V346.1H210.903V361.329H231.758V414ZM272.877 414H292.083V346.1H272.877V414ZM333.6 415.358C346.113 415.358 356.201 410.799 362.797 402.554L350.575 391.496C346.307 396.637 341.069 399.45 334.57 399.45C323.415 399.45 315.655 391.69 315.655 380.05C315.655 368.41 323.415 360.65 334.57 360.65C341.069 360.65 346.307 363.463 350.575 368.604L362.797 357.546C356.201 349.301 346.113 344.742 333.6 344.742C312.066 344.742 296.255 359.389 296.255 380.05C296.255 400.711 312.066 415.358 333.6 415.358ZM388.465 415.358C408.641 415.358 418.535 405.27 418.535 393.436C418.535 368.41 380.026 376.17 380.026 365.791C380.026 362.396 382.936 359.68 390.987 359.68C396.904 359.68 403.306 361.426 409.805 364.918L415.722 350.659C409.028 346.779 399.911 344.742 391.084 344.742C370.908 344.742 361.013 354.636 361.013 366.761C361.013 391.981 399.62 384.124 399.62 394.891C399.62 398.189 396.516 400.42 388.562 400.42C380.705 400.42 372.169 397.704 366.155 393.727L359.85 407.889C366.252 412.351 377.31 415.358 388.465 415.358ZM84.043 478.941V464.1H30.79V532H49.996V508.72H79.969V493.879H49.996V478.941H84.043ZM120.698 533.358C142.426 533.358 158.431 518.42 158.431 498.05C158.431 477.68 142.426 462.742 120.698 462.742C98.97 462.742 82.965 477.68 82.965 498.05C82.965 518.42 98.97 533.358 120.698 533.358ZM120.698 517.45C110.416 517.45 102.365 509.787 102.365 498.05C102.365 486.313 110.416 478.65 120.698 478.65C130.98 478.65 139.031 486.313 139.031 498.05C139.031 509.787 130.98 517.45 120.698 517.45ZM204.491 532H225.055L210.408 510.66C218.847 506.586 223.697 499.214 223.697 489.223C223.697 473.703 212.057 464.1 193.53 464.1H162.49V532H181.696V513.958H192.172L204.491 532ZM204.297 489.223C204.297 495.431 200.32 499.117 192.366 499.117H181.696V479.232H192.366C200.32 479.232 204.297 482.918 204.297 489.223ZM301.349 532H321.331L291.261 464.1H272.346L242.373 532H261.967L267.302 518.808H296.014L301.349 532ZM272.928 504.646L281.658 482.918L290.388 504.646H272.928ZM351.816 464.1H320.776V532H339.982V514.249H351.816C370.343 514.249 381.983 504.646 381.983 489.223C381.983 473.703 370.343 464.1 351.816 464.1ZM350.652 499.117H339.982V479.232H350.652C358.606 479.232 362.583 482.918 362.583 489.223C362.583 495.431 358.606 499.117 350.652 499.117ZM416.388 464.1H385.348V532H404.554V514.249H416.388C434.915 514.249 446.555 504.646 446.555 489.223C446.555 473.703 434.915 464.1 416.388 464.1ZM415.224 499.117H404.554V479.232H415.224C423.178 479.232 427.155 482.918 427.155 489.223C427.155 495.431 423.178 499.117 415.224 499.117ZM54.652 651.358C74.828 651.358 84.722 641.27 84.722 629.436C84.722 604.41 46.213 612.17 46.213 601.791C46.213 598.396 49.123 595.68 57.174 595.68C63.091 595.68 69.493 597.426 75.992 600.918L81.909 586.659C75.216 582.779 66.098 580.742 57.271 580.742C37.095 580.742 27.201 590.636 27.201 602.761C27.201 627.981 65.807 620.124 65.807 630.891C65.807 634.189 62.703 636.42 54.749 636.42C46.892 636.42 38.356 633.704 32.342 629.727L26.037 643.889C32.439 648.351 43.497 651.358 54.652 651.358ZM106.606 635.159V622.743H136.773V608.387H106.606V596.941H140.847V582.1H87.5937V650H142.108V635.159H106.606ZM180.524 651.358C193.037 651.358 203.125 646.799 209.721 638.554L197.499 627.496C193.231 632.637 187.993 635.45 181.494 635.45C170.339 635.45 162.579 627.69 162.579 616.05C162.579 604.41 170.339 596.65 181.494 596.65C187.993 596.65 193.231 599.463 197.499 604.604L209.721 593.546C203.125 585.301 193.037 580.742 180.524 580.742C158.99 580.742 143.179 595.389 143.179 616.05C143.179 636.711 158.99 651.358 180.524 651.358ZM242.857 651.358C262.936 651.358 274.77 640.009 274.77 619.736V582.1H255.855V619.154C255.855 630.794 251.005 635.45 243.051 635.45C235 635.45 230.15 630.794 230.15 619.154V582.1H210.944V619.736C210.944 640.009 222.778 651.358 242.857 651.358ZM323.782 650H344.346L329.699 628.66C338.138 624.586 342.988 617.214 342.988 607.223C342.988 591.703 331.348 582.1 312.821 582.1H281.781V650H300.987V631.958H311.463L323.782 650ZM323.588 607.223C323.588 613.431 319.611 617.117 311.657 617.117H300.987V597.232H311.657C319.611 597.232 323.588 600.918 323.588 607.223ZM347.584 650H366.79V582.1H347.584V650ZM388.907 650H408.113V597.329H428.871V582.1H368.052V597.329H388.907V650ZM490.787 582.1H472.163L456.061 609.066L439.959 582.1H419.686L445.585 625.362V650H464.791V625.653L490.787 582.1Z" fill="#0A0A0A"/>
<path d="M30.732 62.73V61.3H24.913V69H26.695V66.195H30.259V64.765H26.695V62.73H30.732ZM38.7584 69L37.0314 66.525C38.0324 66.096 38.6154 65.249 38.6154 64.094C38.6154 62.367 37.3284 61.3 35.2714 61.3H31.9384V69H33.7204V66.855H35.2714H35.3594L36.8444 69H38.7584ZM36.8114 64.094C36.8114 64.93 36.2614 65.436 35.1724 65.436H33.7204V62.752H35.1724C36.2614 62.752 36.8114 63.247 36.8114 64.094ZM41.7983 67.57V65.788H45.3733V64.402H41.7983V62.73H45.8463V61.3H40.0273V69H45.9893V67.57H41.7983ZM49.1781 67.57V65.788H52.7531V64.402H49.1781V62.73H53.2261V61.3H47.4071V69H53.3691V67.57H49.1781ZM59.6733 67.57V65.788H63.2483V64.402H59.6733V62.73H63.7213V61.3H57.9023V69H63.8643V67.57H59.6733ZM70.9361 64.996C71.5631 64.666 71.9591 64.072 71.9591 63.302C71.9591 62.103 70.9691 61.3 69.0441 61.3H65.2821V69H69.2641C71.2881 69 72.3441 68.23 72.3441 66.899C72.3441 65.931 71.7941 65.271 70.9361 64.996ZM68.8241 62.642C69.6931 62.642 70.1661 62.939 70.1661 63.544C70.1661 64.149 69.6931 64.457 68.8241 64.457H67.0531V62.642H68.8241ZM69.1321 67.658H67.0531V65.755H69.1321C70.0561 65.755 70.5511 66.063 70.5511 66.712C70.5511 67.372 70.0561 67.658 69.1321 67.658ZM77.4223 69.132C79.8423 69.132 81.6353 67.449 81.6353 65.15C81.6353 62.851 79.8423 61.168 77.4223 61.168C74.9913 61.168 73.2093 62.862 73.2093 65.15C73.2093 67.438 74.9913 69.132 77.4223 69.132ZM77.4223 67.614C76.0473 67.614 75.0133 66.613 75.0133 65.15C75.0133 63.687 76.0473 62.686 77.4223 62.686C78.7973 62.686 79.8313 63.687 79.8313 65.15C79.8313 66.613 78.7973 67.614 77.4223 67.614ZM86.7035 69.132C89.1235 69.132 90.9165 67.449 90.9165 65.15C90.9165 62.851 89.1235 61.168 86.7035 61.168C84.2725 61.168 82.4905 62.862 82.4905 65.15C82.4905 67.438 84.2725 69.132 86.7035 69.132ZM86.7035 67.614C85.3285 67.614 84.2945 66.613 84.2945 65.15C84.2945 63.687 85.3285 62.686 86.7035 62.686C88.0785 62.686 89.1125 63.687 89.1125 65.15C89.1125 66.613 88.0785 67.614 86.7035 67.614ZM97.5248 69H99.6038L96.2268 64.732L99.4168 61.3H97.4368L94.0268 64.897V61.3H92.2558V69H94.0268V67.053L95.0608 65.975L97.5248 69ZM109.333 62.73V61.3H103.514V69H105.296V66.195H108.86V64.765H105.296V62.73H109.333ZM114.193 69.132C116.613 69.132 118.406 67.449 118.406 65.15C118.406 62.851 116.613 61.168 114.193 61.168C111.762 61.168 109.98 62.862 109.98 65.15C109.98 67.438 111.762 69.132 114.193 69.132ZM114.193 67.614C112.818 67.614 111.784 66.613 111.784 65.15C111.784 63.687 112.818 62.686 114.193 62.686C115.568 62.686 116.602 63.687 116.602 65.15C116.602 66.613 115.568 67.614 114.193 67.614ZM126.565 69L124.838 66.525C125.839 66.096 126.422 65.249 126.422 64.094C126.422 62.367 125.135 61.3 123.078 61.3H119.745V69H121.527V66.855H123.078H123.166L124.651 69H126.565ZM124.618 64.094C124.618 64.93 124.068 65.436 122.979 65.436H121.527V62.752H122.979C124.068 62.752 124.618 63.247 124.618 64.094ZM130.949 69H134.447C136.966 69 138.693 67.482 138.693 65.15C138.693 62.818 136.966 61.3 134.447 61.3H130.949V69ZM132.731 67.537V62.763H134.359C135.888 62.763 136.889 63.676 136.889 65.15C136.889 66.624 135.888 67.537 134.359 67.537H132.731ZM141.808 67.57V65.788H145.383V64.402H141.808V62.73H145.856V61.3H140.037V69H145.999V67.57H141.808ZM152.941 61.3L150.565 66.8L148.222 61.3H146.297L149.619 69H151.379L154.712 61.3H152.941ZM157.126 67.57V65.788H160.701V64.402H157.126V62.73H161.174V61.3H155.355V69H161.317V67.57H157.126ZM162.735 69H168.378V67.548H164.517V61.3H162.735V69ZM172.974 69.132C175.394 69.132 177.187 67.449 177.187 65.15C177.187 62.851 175.394 61.168 172.974 61.168C170.543 61.168 168.761 62.862 168.761 65.15C168.761 67.438 170.543 69.132 172.974 69.132ZM172.974 67.614C171.599 67.614 170.565 66.613 170.565 65.15C170.565 63.687 171.599 62.686 172.974 62.686C174.349 62.686 175.383 63.687 175.383 65.15C175.383 66.613 174.349 67.614 172.974 67.614ZM181.859 61.3H178.526V69H180.308V66.877H181.859C183.916 66.877 185.203 65.81 185.203 64.094C185.203 62.367 183.916 61.3 181.859 61.3ZM181.76 65.425H180.308V62.752H181.76C182.849 62.752 183.399 63.247 183.399 64.094C183.399 64.93 182.849 65.425 181.76 65.425ZM188.247 67.57V65.788H191.822V64.402H188.247V62.73H192.295V61.3H186.476V69H192.438V67.57H188.247ZM200.675 69L198.948 66.525C199.949 66.096 200.532 65.249 200.532 64.094C200.532 62.367 199.245 61.3 197.188 61.3H193.855V69H195.637V66.855H197.188H197.276L198.761 69H200.675ZM198.728 64.094C198.728 64.93 198.178 65.436 197.089 65.436H195.637V62.752H197.089C198.178 62.752 198.728 63.247 198.728 64.094ZM204.474 69.132C206.674 69.132 207.741 68.032 207.741 66.745C207.741 63.918 203.264 64.897 203.264 63.478C203.264 62.994 203.671 62.598 204.727 62.598C205.409 62.598 206.146 62.796 206.861 63.203L207.411 61.85C206.696 61.399 205.706 61.168 204.738 61.168C202.549 61.168 201.493 62.257 201.493 63.566C201.493 66.426 205.97 65.436 205.97 66.877C205.97 67.35 205.541 67.702 204.485 67.702C203.561 67.702 202.593 67.372 201.944 66.899L201.339 68.241C202.021 68.769 203.253 69.132 204.474 69.132ZM209.713 66.954C209.108 66.954 208.646 67.372 208.646 68.01C208.646 68.461 208.877 68.802 209.24 68.945L208.756 70.694H209.845L210.472 69.11C210.725 68.505 210.769 68.296 210.769 68.01C210.769 67.383 210.329 66.954 209.713 66.954ZM220.921 69H222.791L219.348 61.3H217.588L214.156 69H215.982L216.664 67.35H220.239L220.921 69ZM217.236 65.997L218.457 63.049L219.678 65.997H217.236ZM226.923 61.3H223.59V69H225.372V66.877H226.923C228.98 66.877 230.267 65.81 230.267 64.094C230.267 62.367 228.98 61.3 226.923 61.3ZM226.824 65.425H225.372V62.752H226.824C227.913 62.752 228.463 63.247 228.463 64.094C228.463 64.93 227.913 65.425 226.824 65.425ZM234.872 61.3H231.539V69H233.321V66.877H234.872C236.929 66.877 238.216 65.81 238.216 64.094C238.216 62.367 236.929 61.3 234.872 61.3ZM234.773 65.425H233.321V62.752H234.773C235.862 62.752 236.412 63.247 236.412 64.094C236.412 64.93 235.862 65.425 234.773 65.425ZM246.44 69.132C248.86 69.132 250.653 67.449 250.653 65.15C250.653 62.851 248.86 61.168 246.44 61.168C244.009 61.168 242.227 62.862 242.227 65.15C242.227 67.438 244.009 69.132 246.44 69.132ZM246.44 67.614C245.065 67.614 244.031 66.613 244.031 65.15C244.031 63.687 245.065 62.686 246.44 62.686C247.815 62.686 248.849 63.687 248.849 65.15C248.849 66.613 247.815 67.614 246.44 67.614ZM261.667 61.3L259.874 66.756L258.114 61.3H256.464L254.649 66.712L252.911 61.3H251.063L253.593 69H255.496L257.245 63.786L258.939 69H260.853L263.372 61.3H261.667ZM269.669 61.3V65.975L265.841 61.3H264.367V69H266.127V64.325L269.966 69H271.429V61.3H269.669ZM275.022 67.57V65.788H278.597V64.402H275.022V62.73H279.07V61.3H273.251V69H279.213V67.57H275.022ZM287.451 69L285.724 66.525C286.725 66.096 287.308 65.249 287.308 64.094C287.308 62.367 286.021 61.3 283.964 61.3H280.631V69H282.413V66.855H283.964H284.052L285.537 69H287.451ZM285.504 64.094C285.504 64.93 284.954 65.436 283.865 65.436H282.413V62.752H283.865C284.954 62.752 285.504 63.247 285.504 64.094ZM291.25 69.132C293.45 69.132 294.517 68.032 294.517 66.745C294.517 63.918 290.04 64.897 290.04 63.478C290.04 62.994 290.447 62.598 291.503 62.598C292.185 62.598 292.922 62.796 293.637 63.203L294.187 61.85C293.472 61.399 292.482 61.168 291.514 61.168C289.325 61.168 288.269 62.257 288.269 63.566C288.269 66.426 292.746 65.436 292.746 66.877C292.746 67.35 292.317 67.702 291.261 67.702C290.337 67.702 289.369 67.372 288.72 66.899L288.115 68.241C288.797 68.769 290.029 69.132 291.25 69.132ZM296.488 66.954C295.883 66.954 295.421 67.372 295.421 68.01C295.421 68.461 295.652 68.802 296.015 68.945L295.531 70.694H296.62L297.247 69.11C297.5 68.505 297.544 68.296 297.544 68.01C297.544 67.383 297.104 66.954 296.488 66.954ZM304.473 69.132C306.673 69.132 307.74 68.032 307.74 66.745C307.74 63.918 303.263 64.897 303.263 63.478C303.263 62.994 303.67 62.598 304.726 62.598C305.408 62.598 306.145 62.796 306.86 63.203L307.41 61.85C306.695 61.399 305.705 61.168 304.737 61.168C302.548 61.168 301.492 62.257 301.492 63.566C301.492 66.426 305.969 65.436 305.969 66.877C305.969 67.35 305.54 67.702 304.484 67.702C303.56 67.702 302.592 67.372 301.943 66.899L301.338 68.241C302.02 68.769 303.252 69.132 304.473 69.132ZM310.446 69H312.228V62.752H314.692V61.3H307.982V62.752H310.446V69ZM321.017 69H322.887L319.444 61.3H317.684L314.252 69H316.078L316.76 67.35H320.335L321.017 69ZM317.332 65.997L318.553 63.049L319.774 65.997H317.332ZM330.505 69L328.778 66.525C329.779 66.096 330.362 65.249 330.362 64.094C330.362 62.367 329.075 61.3 327.018 61.3H323.685V69H325.467V66.855H327.018H327.106L328.591 69H330.505ZM328.558 64.094C328.558 64.93 328.008 65.436 326.919 65.436H325.467V62.752H326.919C328.008 62.752 328.558 63.247 328.558 64.094ZM333.262 69H335.044V62.752H337.508V61.3H330.798V62.752H333.262V69ZM341.759 69.132C343.948 69.132 345.246 67.878 345.246 65.612V61.3H343.486V65.546C343.486 67.009 342.859 67.614 341.77 67.614C340.692 67.614 340.054 67.009 340.054 65.546V61.3H338.272V65.612C338.272 67.878 339.57 69.132 341.759 69.132ZM350.34 61.3H347.007V69H348.789V66.877H350.34C352.397 66.877 353.684 65.81 353.684 64.094C353.684 62.367 352.397 61.3 350.34 61.3ZM350.241 65.425H348.789V62.752H350.241C351.33 62.752 351.88 63.247 351.88 64.094C351.88 64.93 351.33 65.425 350.241 65.425ZM357.593 69.132C359.793 69.132 360.86 68.032 360.86 66.745C360.86 63.918 356.383 64.897 356.383 63.478C356.383 62.994 356.79 62.598 357.846 62.598C358.528 62.598 359.265 62.796 359.98 63.203L360.53 61.85C359.815 61.399 358.825 61.168 357.857 61.168C355.668 61.168 354.612 62.257 354.612 63.566C354.612 66.426 359.089 65.436 359.089 66.877C359.089 67.35 358.66 67.702 357.604 67.702C356.68 67.702 355.712 67.372 355.063 66.899L354.458 68.241C355.14 68.769 356.372 69.132 357.593 69.132ZM370.946 69H372.816L369.373 61.3H367.613L364.181 69H366.007L366.689 67.35H370.264L370.946 69ZM367.261 65.997L368.482 63.049L369.703 65.997H367.261ZM378.917 61.3V65.975L375.089 61.3H373.615V69H375.375V64.325L379.214 69H380.677V61.3H378.917ZM382.499 69H385.997C388.516 69 390.243 67.482 390.243 65.15C390.243 62.818 388.516 61.3 385.997 61.3H382.499V69ZM384.281 67.537V62.763H385.909C387.438 62.763 388.439 63.676 388.439 65.15C388.439 66.624 387.438 67.537 385.909 67.537H384.281ZM394.702 69H400.345V67.548H396.484V61.3H394.702V69ZM407.158 69H409.028L405.585 61.3H403.825L400.393 69H402.219L402.901 67.35H406.476L407.158 69ZM403.473 65.997L404.694 63.049L405.915 65.997H403.473ZM416.647 69L414.92 66.525C415.921 66.096 416.504 65.249 416.504 64.094C416.504 62.367 415.217 61.3 413.16 61.3H409.827V69H411.609V66.855H413.16H413.248L414.733 69H416.647ZM414.7 64.094C414.7 64.93 414.15 65.436 413.061 65.436H411.609V62.752H413.061C414.15 62.752 414.7 63.247 414.7 64.094ZM423.119 67.284C422.668 67.526 422.217 67.614 421.733 67.614C420.259 67.614 419.236 66.591 419.236 65.15C419.236 63.687 420.259 62.686 421.755 62.686C422.536 62.686 423.185 62.961 423.746 63.555L424.89 62.499C424.142 61.63 423.02 61.168 421.667 61.168C419.214 61.168 417.432 62.829 417.432 65.15C417.432 67.471 419.214 69.132 421.634 69.132C422.734 69.132 423.9 68.791 424.747 68.153V65.029H423.119V67.284ZM428.173 67.57V65.788H431.748V64.402H428.173V62.73H432.221V61.3H426.402V69H432.364V67.57H428.173ZM440.602 69L438.875 66.525C439.876 66.096 440.459 65.249 440.459 64.094C440.459 62.367 439.172 61.3 437.115 61.3H433.782V69H435.564V66.855H437.115H437.203L438.688 69H440.602ZM438.655 64.094C438.655 64.93 438.105 65.436 437.016 65.436H435.564V62.752H437.016C438.105 62.752 438.655 63.247 438.655 64.094ZM28.598 82.132C29.94 82.132 31.051 81.648 31.777 80.757L30.633 79.701C30.116 80.306 29.467 80.614 28.697 80.614C27.256 80.614 26.233 79.602 26.233 78.15C26.233 76.698 27.256 75.686 28.697 75.686C29.467 75.686 30.116 75.994 30.633 76.588L31.777 75.532C31.051 74.652 29.94 74.168 28.609 74.168C26.211 74.168 24.429 75.829 24.429 78.15C24.429 80.471 26.211 82.132 28.598 82.132ZM36.5483 82.132C38.9683 82.132 40.7613 80.449 40.7613 78.15C40.7613 75.851 38.9683 74.168 36.5483 74.168C34.1173 74.168 32.3353 75.862 32.3353 78.15C32.3353 80.438 34.1173 82.132 36.5483 82.132ZM36.5483 80.614C35.1733 80.614 34.1393 79.613 34.1393 78.15C34.1393 76.687 35.1733 75.686 36.5483 75.686C37.9233 75.686 38.9573 76.687 38.9573 78.15C38.9573 79.613 37.9233 80.614 36.5483 80.614ZM50.7795 82L50.7575 74.3H49.2945L46.4565 79.085L43.5745 74.3H42.1005V82H43.7725V77.479L46.0275 81.186H46.8305L49.0965 77.38L49.1075 82H50.7795ZM55.9394 74.3H52.6064V82H54.3884V79.877H55.9394C57.9964 79.877 59.2834 78.81 59.2834 77.094C59.2834 75.367 57.9964 74.3 55.9394 74.3ZM55.8404 78.425H54.3884V75.752H55.8404C56.9294 75.752 57.4794 76.247 57.4794 77.094C57.4794 77.93 56.9294 78.425 55.8404 78.425ZM65.9219 82H67.7919L64.3489 74.3H62.5889L59.1569 82H60.9829L61.6649 80.35H65.2399L65.9219 82ZM62.2369 78.997L63.4579 76.049L64.6789 78.997H62.2369ZM73.8927 74.3V78.975L70.0647 74.3H68.5907V82H70.3507V77.325L74.1897 82H75.6527V74.3H73.8927ZM77.4745 82H79.2565V74.3H77.4745V82ZM82.8549 80.57V78.788H86.4299V77.402H82.8549V75.73H86.9029V74.3H81.0839V82H87.0459V80.57H82.8549ZM90.9938 82.132C93.1938 82.132 94.2608 81.032 94.2608 79.745C94.2608 76.918 89.7838 77.897 89.7838 76.478C89.7838 75.994 90.1908 75.598 91.2468 75.598C91.9288 75.598 92.6658 75.796 93.3808 76.203L93.9308 74.85C93.2158 74.399 92.2258 74.168 91.2578 74.168C89.0688 74.168 88.0128 75.257 88.0128 76.566C88.0128 79.426 92.4898 78.436 92.4898 79.877C92.4898 80.35 92.0608 80.702 91.0048 80.702C90.0808 80.702 89.1128 80.372 88.4638 79.899L87.8588 81.241C88.5408 81.769 89.7728 82.132 90.9938 82.132Z" fill="#0A0A0A"/>
<g clip-path="url(#clip1_4461_474)">
<path d="M32.7312 29.3776C33.6138 29.8726 34.3069 30.5536 34.8106 31.4208C35.3143 32.2886 35.5658 33.2506 35.5658 34.3075C35.5658 35.3644 35.3143 36.3476 34.8106 37.2148C34.3069 38.082 33.6138 38.7636 32.7312 39.2579C31.8481 39.7528 30.8616 40 29.7724 40C28.6833 40 27.7411 39.7595 26.8653 39.2785C25.9889 38.7974 25.2958 38.1297 24.786 37.2758C24.2755 36.422 24.0135 35.4732 24 34.4296V24.6097C24 24.42 24.0584 24.2713 24.1759 24.1626C24.2927 24.0544 24.4416 24 24.6205 24C24.8137 24 24.9649 24.0544 25.0756 24.1626C25.1857 24.2713 25.2411 24.42 25.2411 24.6097V30.9531C25.6962 30.2351 26.3204 29.6689 27.1138 29.2556C27.9065 28.8422 28.7927 28.6356 29.7724 28.6356C30.8622 28.6356 31.8481 28.8827 32.7312 29.3776ZM32.0898 38.262C32.7792 37.8626 33.3241 37.3163 33.7245 36.6256C34.1242 35.9343 34.3247 35.162 34.3247 34.3075C34.3247 33.453 34.1248 32.6813 33.7245 31.99C33.3241 31.2987 32.7798 30.7573 32.0898 30.3639C31.3998 29.9711 30.6279 29.7741 29.7724 29.7741C28.917 29.7741 28.1445 29.9705 27.4551 30.3639C26.7651 30.7573 26.2239 31.2987 25.8309 31.99C25.4379 32.6813 25.2411 33.4536 25.2411 34.3075C25.2411 35.1614 25.4379 35.9343 25.8309 36.6256C26.2239 37.3169 26.7651 37.8626 27.4551 38.262C28.1445 38.6621 28.917 38.8615 29.7724 38.8615C30.6279 38.8615 31.3998 38.6615 32.0898 38.262V38.262Z" fill="black"/>
<path d="M44.002 35.1318H39.0469V40.0007H44.002V35.1318Z" fill="#FE6B00"/>
</g>
<path d="M27.65 691.04C27.13 691.04 26.6633 690.92 26.25 690.68C25.8367 690.433 25.51 690.1 25.27 689.68C25.03 689.26 24.9067 688.787 24.9 688.26V683.7C24.9 683.547 24.9467 683.423 25.04 683.33C25.14 683.237 25.2633 683.19 25.41 683.19C25.5633 683.19 25.6867 683.237 25.78 683.33C25.8733 683.423 25.92 683.547 25.92 683.7V686.4C26.1533 686.12 26.4333 685.9 26.76 685.74C27.0933 685.573 27.4567 685.49 27.85 685.49C28.3367 685.49 28.7733 685.613 29.16 685.86C29.5467 686.1 29.85 686.43 30.07 686.85C30.2967 687.263 30.41 687.733 30.41 688.26C30.41 688.787 30.2867 689.26 30.04 689.68C29.8 690.1 29.4733 690.433 29.06 690.68C28.6467 690.92 28.1767 691.04 27.65 691.04ZM27.65 690.14C27.99 690.14 28.2933 690.06 28.56 689.9C28.8267 689.733 29.0367 689.507 29.19 689.22C29.35 688.933 29.43 688.613 29.43 688.26C29.43 687.9 29.35 687.58 29.19 687.3C29.0367 687.02 28.8267 686.8 28.56 686.64C28.2933 686.473 27.99 686.39 27.65 686.39C27.3167 686.39 27.0133 686.473 26.74 686.64C26.4733 686.8 26.2633 687.02 26.11 687.3C25.9567 687.58 25.88 687.9 25.88 688.26C25.88 688.613 25.9567 688.933 26.11 689.22C26.2633 689.507 26.4733 689.733 26.74 689.9C27.0133 690.06 27.3167 690.14 27.65 690.14ZM32.6085 693.4C32.5418 693.4 32.4618 693.38 32.3685 693.34C32.0752 693.207 31.9952 692.997 32.1285 692.71L35.1785 685.82C35.3118 685.54 35.5218 685.46 35.8085 685.58C36.1085 685.707 36.1918 685.917 36.0585 686.21L32.9985 693.09C32.9185 693.297 32.7885 693.4 32.6085 693.4ZM33.7885 690.78C33.6618 690.833 33.5418 690.84 33.4285 690.8C33.3218 690.753 33.2352 690.667 33.1685 690.54L30.8785 686.19C30.8118 686.063 30.8018 685.943 30.8485 685.83C30.9018 685.71 30.9918 685.623 31.1185 685.57C31.2452 685.517 31.3652 685.513 31.4785 685.56C31.5918 685.6 31.6785 685.683 31.7385 685.81L33.9285 690.16C33.9952 690.287 34.0185 690.41 33.9985 690.53C33.9852 690.643 33.9152 690.727 33.7885 690.78ZM42.6988 691.04C42.1788 691.04 41.7122 690.92 41.2988 690.68C40.8855 690.433 40.5588 690.1 40.3188 689.68C40.0788 689.26 39.9555 688.787 39.9488 688.26V683.7C39.9488 683.547 39.9955 683.423 40.0888 683.33C40.1888 683.237 40.3122 683.19 40.4588 683.19C40.6122 683.19 40.7355 683.237 40.8288 683.33C40.9222 683.423 40.9688 683.547 40.9688 683.7V686.4C41.2022 686.12 41.4822 685.9 41.8088 685.74C42.1422 685.573 42.5055 685.49 42.8988 685.49C43.3855 685.49 43.8222 685.613 44.2088 685.86C44.5955 686.1 44.8988 686.43 45.1188 686.85C45.3455 687.263 45.4588 687.733 45.4588 688.26C45.4588 688.787 45.3355 689.26 45.0888 689.68C44.8488 690.1 44.5222 690.433 44.1088 690.68C43.6955 690.92 43.2255 691.04 42.6988 691.04ZM42.6988 690.14C43.0388 690.14 43.3422 690.06 43.6088 689.9C43.8755 689.733 44.0855 689.507 44.2388 689.22C44.3988 688.933 44.4788 688.613 44.4788 688.26C44.4788 687.9 44.3988 687.58 44.2388 687.3C44.0855 687.02 43.8755 686.8 43.6088 686.64C43.3422 686.473 43.0388 686.39 42.6988 686.39C42.3655 686.39 42.0622 686.473 41.7888 686.64C41.5222 686.8 41.3122 687.02 41.1588 687.3C41.0055 687.58 40.9288 687.9 40.9288 688.26C40.9288 688.613 41.0055 688.933 41.1588 689.22C41.3122 689.507 41.5222 689.733 41.7888 689.9C42.0622 690.06 42.3655 690.14 42.6988 690.14ZM47.4701 687.58C47.4701 687.18 47.5667 686.823 47.7601 686.51C47.9601 686.19 48.2267 685.937 48.5601 685.75C48.8934 685.563 49.2601 685.47 49.6601 685.47C50.0601 685.47 50.3567 685.537 50.5501 685.67C50.7501 685.797 50.8267 685.95 50.7801 686.13C50.7601 686.223 50.7201 686.297 50.6601 686.35C50.6067 686.397 50.5434 686.427 50.4701 686.44C50.3967 686.453 50.3167 686.45 50.2301 686.43C49.8034 686.343 49.4201 686.337 49.0801 686.41C48.7401 686.483 48.4701 686.62 48.2701 686.82C48.0767 687.02 47.9801 687.273 47.9801 687.58H47.4701ZM47.4801 691C47.3201 691 47.1967 690.96 47.1101 690.88C47.0234 690.793 46.9801 690.667 46.9801 690.5V686.03C46.9801 685.87 47.0234 685.747 47.1101 685.66C47.1967 685.573 47.3201 685.53 47.4801 685.53C47.6467 685.53 47.7701 685.573 47.8501 685.66C47.9367 685.74 47.9801 685.863 47.9801 686.03V690.5C47.9801 690.66 47.9367 690.783 47.8501 690.87C47.7701 690.957 47.6467 691 47.4801 691ZM52.4534 691C52.3067 691 52.1834 690.953 52.0834 690.86C51.99 690.76 51.9434 690.637 51.9434 690.49V686.04C51.9434 685.887 51.99 685.763 52.0834 685.67C52.1834 685.577 52.3067 685.53 52.4534 685.53C52.6067 685.53 52.73 685.577 52.8234 685.67C52.9167 685.763 52.9634 685.887 52.9634 686.04V690.49C52.9634 690.637 52.9167 690.76 52.8234 690.86C52.73 690.953 52.6067 691 52.4534 691ZM52.4534 684.64C52.2734 684.64 52.1167 684.577 51.9834 684.45C51.8567 684.317 51.7934 684.16 51.7934 683.98C51.7934 683.8 51.8567 683.647 51.9834 683.52C52.1167 683.387 52.2734 683.32 52.4534 683.32C52.6334 683.32 52.7867 683.387 52.9134 683.52C53.0467 683.647 53.1134 683.8 53.1134 683.98C53.1134 684.16 53.0467 684.317 52.9134 684.45C52.7867 684.577 52.6334 684.64 52.4534 684.64ZM57.1409 691.04C56.6409 691.04 56.1976 690.923 55.8109 690.69C55.4309 690.45 55.1309 690.123 54.9109 689.71C54.6909 689.29 54.5809 688.81 54.5809 688.27C54.5809 687.723 54.6976 687.243 54.9309 686.83C55.1709 686.41 55.4976 686.083 55.9109 685.85C56.3243 685.61 56.8009 685.49 57.3409 685.49C57.8743 685.49 58.3476 685.61 58.7609 685.85C59.1743 686.083 59.4976 686.41 59.7309 686.83C59.9709 687.243 60.0909 687.723 60.0909 688.27H59.5009C59.5009 688.81 59.3976 689.29 59.1909 689.71C58.9909 690.123 58.7143 690.45 58.3609 690.69C58.0076 690.923 57.6009 691.04 57.1409 691.04ZM57.3209 693.27C56.8476 693.27 56.4043 693.177 55.9909 692.99C55.5776 692.803 55.2276 692.53 54.9409 692.17C54.8543 692.057 54.8209 691.94 54.8409 691.82C54.8676 691.7 54.9343 691.603 55.0409 691.53C55.1609 691.45 55.2843 691.423 55.4109 691.45C55.5443 691.477 55.6509 691.543 55.7309 691.65C55.9109 691.877 56.1376 692.053 56.4109 692.18C56.6843 692.307 56.9943 692.37 57.3409 692.37C57.6609 692.37 57.9543 692.293 58.2209 692.14C58.4943 691.987 58.7109 691.76 58.8709 691.46C59.0309 691.16 59.1109 690.793 59.1109 690.36V688.94L59.4409 688.06L60.0909 688.27V690.43C60.0909 690.957 59.9743 691.433 59.7409 691.86C59.5076 692.293 59.1809 692.637 58.7609 692.89C58.3476 693.143 57.8676 693.27 57.3209 693.27ZM57.3409 690.14C57.6876 690.14 57.9943 690.06 58.2609 689.9C58.5276 689.74 58.7343 689.52 58.8809 689.24C59.0343 688.96 59.1109 688.637 59.1109 688.27C59.1109 687.903 59.0343 687.58 58.8809 687.3C58.7343 687.013 58.5276 686.79 58.2609 686.63C57.9943 686.47 57.6876 686.39 57.3409 686.39C56.9943 686.39 56.6876 686.47 56.4209 686.63C56.1543 686.79 55.9443 687.013 55.7909 687.3C55.6376 687.58 55.5609 687.903 55.5609 688.27C55.5609 688.637 55.6376 688.96 55.7909 689.24C55.9443 689.52 56.1543 689.74 56.4209 689.9C56.6876 690.06 56.9943 690.14 57.3409 690.14ZM62.119 689.01C61.9723 689.01 61.849 688.963 61.749 688.87C61.6557 688.77 61.609 688.647 61.609 688.5V683.7C61.609 683.547 61.6557 683.423 61.749 683.33C61.849 683.237 61.9723 683.19 62.119 683.19C62.2723 683.19 62.3957 683.237 62.489 683.33C62.5823 683.423 62.629 683.547 62.629 683.7V688.5C62.629 688.647 62.5823 688.77 62.489 688.87C62.3957 688.963 62.2723 689.01 62.119 689.01ZM66.229 691.01C66.0823 691.01 65.959 690.963 65.859 690.87C65.7657 690.77 65.719 690.647 65.719 690.5V688.04C65.719 687.66 65.649 687.35 65.509 687.11C65.369 686.87 65.179 686.693 64.939 686.58C64.7057 686.46 64.4357 686.4 64.129 686.4C63.849 686.4 63.5957 686.457 63.369 686.57C63.1423 686.683 62.9623 686.837 62.829 687.03C62.6957 687.217 62.629 687.433 62.629 687.68H61.999C61.999 687.26 62.099 686.887 62.299 686.56C62.5057 686.227 62.7857 685.963 63.139 685.77C63.4923 685.577 63.889 685.48 64.329 685.48C64.789 685.48 65.199 685.58 65.559 685.78C65.9257 685.973 66.2123 686.26 66.419 686.64C66.6323 687.02 66.739 687.487 66.739 688.04V690.5C66.739 690.647 66.689 690.77 66.589 690.87C66.4957 690.963 66.3757 691.01 66.229 691.01ZM62.119 691.01C61.9723 691.01 61.849 690.963 61.749 690.87C61.6557 690.77 61.609 690.647 61.609 690.5V686.04C61.609 685.887 61.6557 685.763 61.749 685.67C61.849 685.577 61.9723 685.53 62.119 685.53C62.2723 685.53 62.3957 685.577 62.489 685.67C62.5823 685.763 62.629 685.887 62.629 686.04V690.5C62.629 690.647 62.5823 690.77 62.489 690.87C62.3957 690.963 62.2723 691.01 62.119 691.01ZM70.4252 691C70.0918 691 69.7918 690.917 69.5252 690.75C69.2585 690.577 69.0485 690.343 68.8952 690.05C68.7418 689.757 68.6652 689.427 68.6652 689.06V684.29C68.6652 684.143 68.7118 684.023 68.8052 683.93C68.8985 683.837 69.0185 683.79 69.1652 683.79C69.3118 683.79 69.4318 683.837 69.5252 683.93C69.6185 684.023 69.6652 684.143 69.6652 684.29V689.06C69.6652 689.327 69.7385 689.55 69.8852 689.73C70.0318 689.91 70.2118 690 70.4252 690H70.7652C70.8852 690 70.9852 690.047 71.0652 690.14C71.1518 690.233 71.1952 690.353 71.1952 690.5C71.1952 690.647 71.1385 690.767 71.0252 690.86C70.9185 690.953 70.7785 691 70.6052 691H70.4252ZM68.2052 686.59C68.0652 686.59 67.9518 686.55 67.8652 686.47C67.7785 686.39 67.7352 686.29 67.7352 686.17C67.7352 686.037 67.7785 685.93 67.8652 685.85C67.9518 685.77 68.0652 685.73 68.2052 685.73H70.5152C70.6552 685.73 70.7685 685.77 70.8552 685.85C70.9418 685.93 70.9852 686.037 70.9852 686.17C70.9852 686.29 70.9418 686.39 70.8552 686.47C70.7685 686.55 70.6552 686.59 70.5152 686.59H68.2052ZM75.9885 691C75.8418 691 75.7185 690.953 75.6185 690.86C75.5252 690.76 75.4785 690.637 75.4785 690.49V686.04C75.4785 685.887 75.5252 685.763 75.6185 685.67C75.7185 685.577 75.8418 685.53 75.9885 685.53C76.1418 685.53 76.2652 685.577 76.3585 685.67C76.4518 685.763 76.4985 685.887 76.4985 686.04V690.49C76.4985 690.637 76.4518 690.76 76.3585 690.86C76.2652 690.953 76.1418 691 75.9885 691ZM75.9885 684.64C75.8085 684.64 75.6518 684.577 75.5185 684.45C75.3918 684.317 75.3285 684.16 75.3285 683.98C75.3285 683.8 75.3918 683.647 75.5185 683.52C75.6518 683.387 75.8085 683.32 75.9885 683.32C76.1685 683.32 76.3218 683.387 76.4485 683.52C76.5818 683.647 76.6485 683.8 76.6485 683.98C76.6485 684.16 76.5818 684.317 76.4485 684.45C76.3218 684.577 76.1685 684.64 75.9885 684.64ZM83.0161 691.01C82.8694 691.01 82.7461 690.963 82.6461 690.87C82.5528 690.77 82.5061 690.647 82.5061 690.5V688.04C82.5061 687.66 82.4361 687.35 82.2961 687.11C82.1561 686.87 81.9661 686.693 81.7261 686.58C81.4928 686.46 81.2228 686.4 80.9161 686.4C80.6361 686.4 80.3828 686.457 80.1561 686.57C79.9294 686.683 79.7494 686.837 79.6161 687.03C79.4828 687.217 79.4161 687.433 79.4161 687.68H78.7861C78.7861 687.26 78.8861 686.887 79.0861 686.56C79.2928 686.227 79.5728 685.963 79.9261 685.77C80.2794 685.577 80.6761 685.48 81.1161 685.48C81.5761 685.48 81.9861 685.58 82.3461 685.78C82.7128 685.973 82.9994 686.26 83.2061 686.64C83.4194 687.02 83.5261 687.487 83.5261 688.04V690.5C83.5261 690.647 83.4761 690.77 83.3761 690.87C83.2828 690.963 83.1628 691.01 83.0161 691.01ZM78.9061 691.01C78.7594 691.01 78.6361 690.963 78.5361 690.87C78.4428 690.77 78.3961 690.647 78.3961 690.5V686.04C78.3961 685.887 78.4428 685.763 78.5361 685.67C78.6361 685.577 78.7594 685.53 78.9061 685.53C79.0594 685.53 79.1828 685.577 79.2761 685.67C79.3694 685.763 79.4161 685.887 79.4161 686.04V690.5C79.4161 690.647 79.3694 690.77 79.2761 690.87C79.1828 690.963 79.0594 691.01 78.9061 691.01ZM86.7598 690.99C86.5531 690.99 86.3931 690.88 86.2798 690.66L84.1598 686.19C84.1064 686.077 84.0998 685.967 84.1398 685.86C84.1864 685.747 84.2731 685.66 84.3998 685.6C84.5131 685.54 84.6264 685.53 84.7398 685.57C84.8598 685.61 84.9498 685.687 85.0098 685.8L86.9898 690.07H86.5098L88.4698 685.8C88.5298 685.687 88.6198 685.61 88.7398 685.57C88.8664 685.53 88.9931 685.54 89.1198 685.6C89.2398 685.653 89.3198 685.737 89.3598 685.85C89.3998 685.963 89.3931 686.077 89.3398 686.19L87.2198 690.66C87.1198 690.88 86.9664 690.99 86.7598 690.99ZM92.763 691.04C92.2096 691.04 91.7163 690.923 91.283 690.69C90.8563 690.45 90.5196 690.123 90.273 689.71C90.033 689.29 89.913 688.81 89.913 688.27C89.913 687.723 90.0263 687.243 90.253 686.83C90.4863 686.41 90.8063 686.083 91.213 685.85C91.6196 685.61 92.0863 685.49 92.613 685.49C93.133 685.49 93.5796 685.607 93.953 685.84C94.3263 686.067 94.6096 686.383 94.803 686.79C95.003 687.19 95.103 687.653 95.103 688.18C95.103 688.307 95.0596 688.413 94.973 688.5C94.8863 688.58 94.7763 688.62 94.643 688.62H90.613V687.82H94.613L94.203 688.1C94.1963 687.767 94.1296 687.47 94.003 687.21C93.8763 686.943 93.6963 686.733 93.463 686.58C93.2296 686.427 92.9463 686.35 92.613 686.35C92.233 686.35 91.9063 686.433 91.633 686.6C91.3663 686.767 91.163 686.997 91.023 687.29C90.883 687.577 90.813 687.903 90.813 688.27C90.813 688.637 90.8963 688.963 91.063 689.25C91.2296 689.537 91.4596 689.763 91.753 689.93C92.0463 690.097 92.383 690.18 92.763 690.18C92.9696 690.18 93.1796 690.143 93.393 690.07C93.613 689.99 93.7896 689.9 93.923 689.8C94.023 689.727 94.1296 689.69 94.243 689.69C94.363 689.683 94.4663 689.717 94.553 689.79C94.6663 689.89 94.7263 690 94.733 690.12C94.7396 690.24 94.6863 690.343 94.573 690.43C94.3463 690.61 94.063 690.757 93.723 690.87C93.3896 690.983 93.0696 691.04 92.763 691.04ZM101.024 691.01C100.877 691.01 100.754 690.963 100.654 690.87C100.561 690.77 100.514 690.647 100.514 690.5V688.04C100.514 687.66 100.444 687.35 100.304 687.11C100.164 686.87 99.9739 686.693 99.7339 686.58C99.5006 686.46 99.2306 686.4 98.9239 686.4C98.6439 686.4 98.3906 686.457 98.1639 686.57C97.9372 686.683 97.7572 686.837 97.6239 687.03C97.4906 687.217 97.4239 687.433 97.4239 687.68H96.7939C96.7939 687.26 96.8939 686.887 97.0939 686.56C97.3006 686.227 97.5806 685.963 97.9339 685.77C98.2872 685.577 98.6839 685.48 99.1239 685.48C99.5839 685.48 99.9939 685.58 100.354 685.78C100.721 685.973 101.007 686.26 101.214 686.64C101.427 687.02 101.534 687.487 101.534 688.04V690.5C101.534 690.647 101.484 690.77 101.384 690.87C101.291 690.963 101.171 691.01 101.024 691.01ZM96.9139 691.01C96.7672 691.01 96.6439 690.963 96.5439 690.87C96.4506 690.77 96.4039 690.647 96.4039 690.5V686.04C96.4039 685.887 96.4506 685.763 96.5439 685.67C96.6439 685.577 96.7672 685.53 96.9139 685.53C97.0672 685.53 97.1906 685.577 97.2839 685.67C97.3772 685.763 97.4239 685.887 97.4239 686.04V690.5C97.4239 690.647 97.3772 690.77 97.2839 690.87C97.1906 690.963 97.0672 691.01 96.9139 691.01ZM105.21 691C104.877 691 104.577 690.917 104.31 690.75C104.044 690.577 103.834 690.343 103.68 690.05C103.527 689.757 103.45 689.427 103.45 689.06V684.29C103.45 684.143 103.497 684.023 103.59 683.93C103.684 683.837 103.804 683.79 103.95 683.79C104.097 683.79 104.217 683.837 104.31 683.93C104.404 684.023 104.45 684.143 104.45 684.29V689.06C104.45 689.327 104.524 689.55 104.67 689.73C104.817 689.91 104.997 690 105.21 690H105.55C105.67 690 105.77 690.047 105.85 690.14C105.937 690.233 105.98 690.353 105.98 690.5C105.98 690.647 105.924 690.767 105.81 690.86C105.704 690.953 105.564 691 105.39 691H105.21ZM102.99 686.59C102.85 686.59 102.737 686.55 102.65 686.47C102.564 686.39 102.52 686.29 102.52 686.17C102.52 686.037 102.564 685.93 102.65 685.85C102.737 685.77 102.85 685.73 102.99 685.73H105.3C105.44 685.73 105.554 685.77 105.64 685.85C105.727 685.93 105.77 686.037 105.77 686.17C105.77 686.29 105.727 686.39 105.64 686.47C105.554 686.55 105.44 686.59 105.3 686.59H102.99ZM107.844 691C107.697 691 107.574 690.953 107.474 690.86C107.381 690.76 107.334 690.637 107.334 690.49V686.04C107.334 685.887 107.381 685.763 107.474 685.67C107.574 685.577 107.697 685.53 107.844 685.53C107.997 685.53 108.121 685.577 108.214 685.67C108.307 685.763 108.354 685.887 108.354 686.04V690.49C108.354 690.637 108.307 690.76 108.214 690.86C108.121 690.953 107.997 691 107.844 691ZM107.844 684.64C107.664 684.64 107.507 684.577 107.374 684.45C107.247 684.317 107.184 684.16 107.184 683.98C107.184 683.8 107.247 683.647 107.374 683.52C107.507 683.387 107.664 683.32 107.844 683.32C108.024 683.32 108.177 683.387 108.304 683.52C108.437 683.647 108.504 683.8 108.504 683.98C108.504 684.16 108.437 684.317 108.304 684.45C108.177 684.577 108.024 684.64 107.844 684.64ZM112.732 691.04C112.192 691.04 111.715 690.923 111.302 690.69C110.888 690.45 110.562 690.123 110.322 689.71C110.088 689.29 109.972 688.81 109.972 688.27C109.972 687.723 110.088 687.243 110.322 686.83C110.562 686.41 110.888 686.083 111.302 685.85C111.715 685.61 112.192 685.49 112.732 685.49C113.265 685.49 113.738 685.61 114.152 685.85C114.565 686.083 114.888 686.41 115.122 686.83C115.362 687.243 115.482 687.723 115.482 688.27C115.482 688.81 115.365 689.29 115.132 689.71C114.898 690.123 114.575 690.45 114.162 690.69C113.748 690.923 113.272 691.04 112.732 691.04ZM112.732 690.14C113.078 690.14 113.385 690.06 113.652 689.9C113.918 689.74 114.125 689.52 114.272 689.24C114.425 688.96 114.502 688.637 114.502 688.27C114.502 687.903 114.425 687.58 114.272 687.3C114.125 687.013 113.918 686.79 113.652 686.63C113.385 686.47 113.078 686.39 112.732 686.39C112.385 686.39 112.078 686.47 111.812 686.63C111.545 686.79 111.335 687.013 111.182 687.3C111.028 687.58 110.952 687.903 110.952 688.27C110.952 688.637 111.028 688.96 111.182 689.24C111.335 689.52 111.545 689.74 111.812 689.9C112.078 690.06 112.385 690.14 112.732 690.14ZM121.62 691.01C121.473 691.01 121.35 690.963 121.25 690.87C121.156 690.77 121.11 690.647 121.11 690.5V688.04C121.11 687.66 121.04 687.35 120.9 687.11C120.76 686.87 120.57 686.693 120.33 686.58C120.096 686.46 119.826 686.4 119.52 686.4C119.24 686.4 118.986 686.457 118.76 686.57C118.533 686.683 118.353 686.837 118.22 687.03C118.086 687.217 118.02 687.433 118.02 687.68H117.39C117.39 687.26 117.49 686.887 117.69 686.56C117.896 686.227 118.176 685.963 118.53 685.77C118.883 685.577 119.28 685.48 119.72 685.48C120.18 685.48 120.59 685.58 120.95 685.78C121.316 685.973 121.603 686.26 121.81 686.64C122.023 687.02 122.13 687.487 122.13 688.04V690.5C122.13 690.647 122.08 690.77 121.98 690.87C121.886 690.963 121.766 691.01 121.62 691.01ZM117.51 691.01C117.363 691.01 117.24 690.963 117.14 690.87C117.046 690.77 117 690.647 117 690.5V686.04C117 685.887 117.046 685.763 117.14 685.67C117.24 685.577 117.363 685.53 117.51 685.53C117.663 685.53 117.786 685.577 117.88 685.67C117.973 685.763 118.02 685.887 118.02 686.04V690.5C118.02 690.647 117.973 690.77 117.88 690.87C117.786 690.963 117.663 691.01 117.51 691.01ZM125.806 691.04C125.339 691.04 124.906 690.97 124.506 690.83C124.113 690.683 123.806 690.5 123.586 690.28C123.486 690.173 123.443 690.053 123.456 689.92C123.476 689.78 123.543 689.667 123.656 689.58C123.789 689.473 123.919 689.43 124.046 689.45C124.179 689.463 124.293 689.52 124.386 689.62C124.499 689.747 124.679 689.867 124.926 689.98C125.179 690.087 125.459 690.14 125.766 690.14C126.153 690.14 126.446 690.077 126.646 689.95C126.853 689.823 126.959 689.66 126.966 689.46C126.973 689.26 126.876 689.087 126.676 688.94C126.483 688.793 126.126 688.673 125.606 688.58C124.933 688.447 124.443 688.247 124.136 687.98C123.836 687.713 123.686 687.387 123.686 687C123.686 686.66 123.786 686.38 123.986 686.16C124.186 685.933 124.443 685.767 124.756 685.66C125.069 685.547 125.396 685.49 125.736 685.49C126.176 685.49 126.566 685.56 126.906 685.7C127.246 685.84 127.516 686.033 127.716 686.28C127.809 686.387 127.853 686.5 127.846 686.62C127.839 686.733 127.783 686.83 127.676 686.91C127.569 686.983 127.443 687.007 127.296 686.98C127.149 686.953 127.026 686.893 126.926 686.8C126.759 686.64 126.579 686.53 126.386 686.47C126.193 686.41 125.969 686.38 125.716 686.38C125.423 686.38 125.173 686.43 124.966 686.53C124.766 686.63 124.666 686.777 124.666 686.97C124.666 687.09 124.696 687.2 124.756 687.3C124.823 687.393 124.949 687.48 125.136 687.56C125.323 687.633 125.596 687.707 125.956 687.78C126.456 687.88 126.849 688.007 127.136 688.16C127.429 688.313 127.639 688.493 127.766 688.7C127.893 688.9 127.956 689.133 127.956 689.4C127.956 689.707 127.873 689.983 127.706 690.23C127.546 690.477 127.306 690.673 126.986 690.82C126.673 690.967 126.279 691.04 125.806 691.04Z" fill="#0A0A0A"/>
<path d="M468.16 691C468.013 691 467.89 690.95 467.79 690.85C467.697 690.75 467.65 690.63 467.65 690.49C467.65 690.343 467.697 690.223 467.79 690.13L470.63 686.81C470.83 686.577 470.983 686.357 471.09 686.15C471.203 685.943 471.26 685.747 471.26 685.56C471.26 685.267 471.21 685.013 471.11 684.8C471.01 684.587 470.867 684.423 470.68 684.31C470.493 684.19 470.27 684.13 470.01 684.13C469.757 684.13 469.527 684.197 469.32 684.33C469.12 684.457 468.96 684.63 468.84 684.85C468.727 685.063 468.67 685.3 468.67 685.56C468.67 685.693 468.62 685.81 468.52 685.91C468.427 686.01 468.307 686.06 468.16 686.06C468.02 686.06 467.9 686.01 467.8 685.91C467.7 685.81 467.65 685.693 467.65 685.56C467.65 685.107 467.753 684.703 467.96 684.35C468.167 683.99 468.447 683.707 468.8 683.5C469.16 683.293 469.563 683.19 470.01 683.19C470.463 683.19 470.857 683.287 471.19 683.48C471.523 683.673 471.78 683.947 471.96 684.3C472.147 684.653 472.24 685.073 472.24 685.56C472.24 685.773 472.193 685.99 472.1 686.21C472.013 686.43 471.9 686.64 471.76 686.84C471.627 687.04 471.49 687.22 471.35 687.38L469.06 689.98H471.86C472.007 689.98 472.13 690.033 472.23 690.14C472.33 690.24 472.38 690.357 472.38 690.49C472.38 690.63 472.33 690.75 472.23 690.85C472.13 690.95 472.007 691 471.86 691H468.16ZM475.769 691C475.262 691 474.829 690.847 474.469 690.54C474.116 690.227 473.846 689.78 473.659 689.2C473.472 688.613 473.379 687.91 473.379 687.09C473.379 686.27 473.472 685.57 473.659 684.99C473.846 684.403 474.116 683.957 474.469 683.65C474.829 683.337 475.262 683.18 475.769 683.18C476.276 683.18 476.706 683.34 477.059 683.66C477.419 683.973 477.692 684.423 477.879 685.01C478.066 685.59 478.159 686.283 478.159 687.09C478.159 687.897 478.066 688.593 477.879 689.18C477.692 689.76 477.419 690.21 477.059 690.53C476.706 690.843 476.276 691 475.769 691ZM475.769 689.96C476.076 689.96 476.329 689.837 476.529 689.59C476.729 689.337 476.879 688.993 476.979 688.56C477.079 688.127 477.129 687.637 477.129 687.09C477.129 686.543 477.079 686.053 476.979 685.62C476.879 685.187 476.729 684.843 476.529 684.59C476.329 684.337 476.076 684.21 475.769 684.21C475.462 684.21 475.209 684.337 475.009 684.59C474.809 684.837 474.659 685.177 474.559 685.61C474.459 686.043 474.409 686.537 474.409 687.09C474.409 687.643 474.459 688.137 474.559 688.57C474.659 689.003 474.809 689.343 475.009 689.59C475.216 689.837 475.469 689.96 475.769 689.96ZM479.82 691C479.673 691 479.55 690.95 479.45 690.85C479.357 690.75 479.31 690.63 479.31 690.49C479.31 690.343 479.357 690.223 479.45 690.13L482.29 686.81C482.49 686.577 482.643 686.357 482.75 686.15C482.863 685.943 482.92 685.747 482.92 685.56C482.92 685.267 482.87 685.013 482.77 684.8C482.67 684.587 482.527 684.423 482.34 684.31C482.153 684.19 481.93 684.13 481.67 684.13C481.417 684.13 481.187 684.197 480.98 684.33C480.78 684.457 480.62 684.63 480.5 684.85C480.387 685.063 480.33 685.3 480.33 685.56C480.33 685.693 480.28 685.81 480.18 685.91C480.087 686.01 479.967 686.06 479.82 686.06C479.68 686.06 479.56 686.01 479.46 685.91C479.36 685.81 479.31 685.693 479.31 685.56C479.31 685.107 479.413 684.703 479.62 684.35C479.827 683.99 480.107 683.707 480.46 683.5C480.82 683.293 481.223 683.19 481.67 683.19C482.123 683.19 482.517 683.287 482.85 683.48C483.183 683.673 483.44 683.947 483.62 684.3C483.807 684.653 483.9 685.073 483.9 685.56C483.9 685.773 483.853 685.99 483.76 686.21C483.673 686.43 483.56 686.64 483.42 686.84C483.287 687.04 483.15 687.22 483.01 687.38L480.72 689.98H483.52C483.667 689.98 483.79 690.033 483.89 690.14C483.99 690.24 484.04 690.357 484.04 690.49C484.04 690.63 483.99 690.75 483.89 690.85C483.79 690.95 483.667 691 483.52 691H479.82ZM487.659 691C487.159 691 486.716 690.897 486.329 690.69C485.942 690.477 485.639 690.19 485.419 689.83C485.199 689.463 485.089 689.053 485.089 688.6C485.089 688.447 485.132 688.323 485.219 688.23C485.312 688.13 485.422 688.08 485.549 688.08C485.682 688.08 485.792 688.13 485.879 688.23C485.966 688.323 486.009 688.447 486.009 688.6C486.009 688.873 486.079 689.127 486.219 689.36C486.359 689.587 486.549 689.77 486.789 689.91C487.029 690.043 487.299 690.11 487.599 690.11C488.039 690.11 488.392 689.99 488.659 689.75C488.932 689.503 489.069 689.16 489.069 688.72C489.069 688.44 489.009 688.19 488.889 687.97C488.769 687.743 488.606 687.563 488.399 687.43C488.192 687.297 487.959 687.23 487.699 687.23C487.552 687.23 487.429 687.18 487.329 687.08C487.236 686.98 487.189 686.857 487.189 686.71C487.189 686.563 487.236 686.443 487.329 686.35C487.429 686.25 487.552 686.2 487.699 686.2C487.886 686.2 488.066 686.153 488.239 686.06C488.412 685.96 488.556 685.83 488.669 685.67C488.782 685.503 488.839 685.317 488.839 685.11C488.839 684.817 488.732 684.57 488.519 684.37C488.306 684.17 488.032 684.07 487.699 684.07C487.446 684.07 487.212 684.12 486.999 684.22C486.792 684.32 486.626 684.453 486.499 684.62C486.379 684.787 486.319 684.973 486.319 685.18C486.319 685.333 486.276 685.463 486.189 685.57C486.102 685.67 485.992 685.72 485.859 685.72C485.732 685.72 485.622 685.673 485.529 685.58C485.442 685.48 485.399 685.357 485.399 685.21C485.399 684.823 485.499 684.477 485.699 684.17C485.899 683.863 486.172 683.623 486.519 683.45C486.866 683.27 487.252 683.18 487.679 683.18C488.072 683.18 488.426 683.267 488.739 683.44C489.059 683.607 489.309 683.837 489.489 684.13C489.676 684.417 489.769 684.743 489.769 685.11C489.769 685.37 489.709 685.6 489.589 685.8C489.476 686 489.329 686.173 489.149 686.32C488.969 686.46 488.779 686.577 488.579 686.67C488.932 686.79 489.219 686.953 489.439 687.16C489.659 687.36 489.819 687.593 489.919 687.86C490.026 688.127 490.079 688.417 490.079 688.73C490.079 689.163 489.969 689.553 489.749 689.9C489.529 690.24 489.236 690.51 488.869 690.71C488.502 690.903 488.099 691 487.659 691Z" fill="#0A0A0A"/>
</g>
<rect x="0.5" y="0.5" width="536" height="715" stroke="#F5F5F5"/>
<defs>
<clipPath id="clip0_4461_474">
<rect width="537" height="716" fill="white"/>
</clipPath>
<clipPath id="clip1_4461_474">
<rect width="20" height="16" fill="white" transform="translate(24 24)"/>
</clipPath>
</defs>
</svg>
