<svg width="537" height="716" viewBox="0 0 537 716" fill="none" xmlns="http://www.w3.org/2000/svg">
<g clip-path="url(#clip0_4198_504)">
<rect width="537" height="716" fill="#fe6b00"/>
<rect width="183" height="716" fill="white"/>
<rect x="46.7578" y="358" width="697.587" height="697.587" rx="324.58" transform="rotate(-45 46.7578 358)" fill="white"/>
<path d="M26.91 157V144.972L52.324 121.207C54.1347 119.526 55.4603 118.038 56.301 116.745C57.2063 115.452 57.7883 114.288 58.047 113.253C58.3703 112.154 58.532 111.151 58.532 110.246C58.532 108.047 57.7883 106.334 56.301 105.105C54.8783 103.876 52.712 103.262 49.802 103.262C47.3447 103.262 45.049 103.812 42.915 104.911C40.781 106.01 39.035 107.659 37.677 109.858L23.418 101.904C25.94 97.636 29.5937 94.2087 34.379 91.622C39.1643 89.0353 44.8873 87.742 51.548 87.742C56.786 87.742 61.3773 88.5827 65.322 90.264C69.2667 91.9453 72.3383 94.338 74.537 97.442C76.8003 100.546 77.932 104.2 77.932 108.403C77.932 110.602 77.641 112.8 77.059 114.999C76.477 117.133 75.3453 119.429 73.664 121.886C72.0473 124.279 69.6223 126.962 66.389 129.937L46.213 148.561L43.012 141.771H79.775V157H26.91ZM103.13 158.358C98.4744 158.358 93.7861 157.776 89.0654 156.612C84.3447 155.448 80.2707 153.799 76.8434 151.665L83.7304 137.212C86.5111 139.023 89.5181 140.413 92.7514 141.383C96.0494 142.353 99.315 142.838 102.548 142.838C105.782 142.838 108.401 142.224 110.405 140.995C112.41 139.702 113.412 137.923 113.412 135.66C113.412 134.302 113.024 133.106 112.248 132.071C111.472 130.972 110.147 130.163 108.271 129.646C106.396 129.064 103.712 128.773 100.22 128.773H81.7904L85.1854 89.1H128.447V103.941H91.9754L101.772 95.502L99.5414 122.274L89.7444 113.835H104.779C111.505 113.835 116.904 114.805 120.978 116.745C125.052 118.62 128.027 121.175 129.902 124.408C131.778 127.577 132.715 131.166 132.715 135.175C132.715 139.184 131.648 142.967 129.514 146.524C127.445 150.016 124.244 152.861 119.911 155.06C115.579 157.259 109.985 158.358 103.13 158.358ZM172.459 157V104.329H151.604V89.1H212.423V104.329H191.665V157H172.459ZM246.872 158.358C241.44 158.358 236.428 157.485 231.837 155.739C227.245 153.993 223.236 151.536 219.809 148.367C216.446 145.134 213.827 141.383 211.952 137.115C210.076 132.847 209.139 128.159 209.139 123.05C209.139 117.941 210.076 113.253 211.952 108.985C213.827 104.717 216.446 100.999 219.809 97.83C223.236 94.5967 227.245 92.107 231.837 90.361C236.428 88.615 241.44 87.742 246.872 87.742C252.368 87.742 257.38 88.615 261.907 90.361C266.498 92.107 270.475 94.5967 273.838 97.83C277.2 100.999 279.819 104.717 281.695 108.985C283.635 113.253 284.605 117.941 284.605 123.05C284.605 128.159 283.635 132.879 281.695 137.212C279.819 141.48 277.2 145.198 273.838 148.367C270.475 151.536 266.498 153.993 261.907 155.739C257.38 157.485 252.368 158.358 246.872 158.358ZM246.872 142.45C249.458 142.45 251.851 141.997 254.05 141.092C256.313 140.187 258.253 138.893 259.87 137.212C261.551 135.466 262.844 133.397 263.75 131.004C264.72 128.611 265.205 125.96 265.205 123.05C265.205 120.075 264.72 117.424 263.75 115.096C262.844 112.703 261.551 110.666 259.87 108.985C258.253 107.239 256.313 105.913 254.05 105.008C251.851 104.103 249.458 103.65 246.872 103.65C244.285 103.65 241.86 104.103 239.597 105.008C237.398 105.913 235.458 107.239 233.777 108.985C232.16 110.666 230.867 112.703 229.897 115.096C228.991 117.424 228.539 120.075 228.539 123.05C228.539 125.96 228.991 128.611 229.897 131.004C230.867 133.397 232.16 135.466 233.777 137.212C235.458 138.893 237.398 140.187 239.597 141.092C241.86 141.997 244.285 142.45 246.872 142.45ZM322.905 158.358C317.473 158.358 312.461 157.485 307.87 155.739C303.279 153.993 299.269 151.536 295.842 148.367C292.479 145.134 289.86 141.383 287.985 137.115C286.11 132.847 285.172 128.159 285.172 123.05C285.172 117.941 286.11 113.253 287.985 108.985C289.86 104.717 292.479 100.999 295.842 97.83C299.269 94.5967 303.279 92.107 307.87 90.361C312.461 88.615 317.473 87.742 322.905 87.742C328.402 87.742 333.413 88.615 337.94 90.361C342.531 92.107 346.508 94.5967 349.871 97.83C353.234 100.999 355.853 104.717 357.728 108.985C359.668 113.253 360.638 117.941 360.638 123.05C360.638 128.159 359.668 132.879 357.728 137.212C355.853 141.48 353.234 145.198 349.871 148.367C346.508 151.536 342.531 153.993 337.94 155.739C333.413 157.485 328.402 158.358 322.905 158.358ZM322.905 142.45C325.492 142.45 327.884 141.997 330.083 141.092C332.346 140.187 334.286 138.893 335.903 137.212C337.584 135.466 338.878 133.397 339.783 131.004C340.753 128.611 341.238 125.96 341.238 123.05C341.238 120.075 340.753 117.424 339.783 115.096C338.878 112.703 337.584 110.666 335.903 108.985C334.286 107.239 332.346 105.913 330.083 105.008C327.884 104.103 325.492 103.65 322.905 103.65C320.318 103.65 317.893 104.103 315.63 105.008C313.431 105.913 311.491 107.239 309.81 108.985C308.193 110.666 306.9 112.703 305.93 115.096C305.025 117.424 304.572 120.075 304.572 123.05C304.572 125.96 305.025 128.611 305.93 131.004C306.9 133.397 308.193 135.466 309.81 137.212C311.491 138.893 313.431 140.187 315.63 141.092C317.893 141.997 320.318 142.45 322.905 142.45ZM364.697 157V89.1H383.903V141.771H416.301V157H364.697ZM441.574 158.358C436.013 158.358 430.645 157.679 425.472 156.321C420.363 154.898 416.192 153.088 412.959 150.889L419.264 136.727C422.303 138.667 425.795 140.284 429.74 141.577C433.749 142.806 437.726 143.42 441.671 143.42C444.322 143.42 446.456 143.194 448.073 142.741C449.69 142.224 450.854 141.577 451.565 140.801C452.341 139.96 452.729 138.99 452.729 137.891C452.729 136.339 452.018 135.11 450.595 134.205C449.172 133.3 447.329 132.556 445.066 131.974C442.803 131.392 440.281 130.81 437.5 130.228C434.784 129.646 432.036 128.902 429.255 127.997C426.539 127.092 424.049 125.928 421.786 124.505C419.523 123.018 417.68 121.11 416.257 118.782C414.834 116.389 414.123 113.382 414.123 109.761C414.123 105.687 415.222 102.001 417.421 98.703C419.684 95.405 423.047 92.7537 427.509 90.749C431.971 88.7443 437.532 87.742 444.193 87.742C448.655 87.742 453.02 88.2593 457.288 89.294C461.621 90.264 465.468 91.719 468.831 93.659L462.914 107.918C459.681 106.172 456.48 104.879 453.311 104.038C450.142 103.133 447.071 102.68 444.096 102.68C441.445 102.68 439.311 102.971 437.694 103.553C436.077 104.07 434.913 104.782 434.202 105.687C433.491 106.592 433.135 107.627 433.135 108.791C433.135 110.278 433.814 111.475 435.172 112.38C436.595 113.221 438.438 113.932 440.701 114.514C443.029 115.031 445.551 115.581 448.267 116.163C451.048 116.745 453.796 117.489 456.512 118.394C459.293 119.235 461.815 120.399 464.078 121.886C466.341 123.309 468.152 125.216 469.51 127.609C470.933 129.937 471.644 132.879 471.644 136.436C471.644 140.381 470.512 144.034 468.249 147.397C466.05 150.695 462.72 153.346 458.258 155.351C453.861 157.356 448.299 158.358 441.574 158.358ZM22.642 275L52.615 207.1H71.53L101.6 275H81.618L58.144 216.509H65.71L42.236 275H22.642ZM39.035 261.808L43.982 247.646H77.156L82.103 261.808H39.035ZM101.045 275V207.1H116.856L154.298 252.302H146.829V207.1H165.647V275H149.836L112.394 229.798H119.863V275H101.045ZM173.194 275V207.1H205.301C212.803 207.1 219.399 208.49 225.089 211.271C230.78 214.052 235.21 217.964 238.378 223.008C241.612 228.052 243.228 234.066 243.228 241.05C243.228 247.969 241.612 253.983 238.378 259.092C235.21 264.136 230.78 268.048 225.089 270.829C219.399 273.61 212.803 275 205.301 275H173.194ZM192.4 259.674H204.525C208.405 259.674 211.768 258.963 214.613 257.54C217.523 256.053 219.787 253.919 221.403 251.138C223.02 248.293 223.828 244.93 223.828 241.05C223.828 237.105 223.02 233.743 221.403 230.962C219.787 228.181 217.523 226.08 214.613 224.657C211.768 223.17 208.405 222.426 204.525 222.426H192.4V259.674ZM45.243 393V340.329H24.388V325.1H85.207V340.329H64.449V393H45.243ZM74.8041 393L104.777 325.1H123.692L153.762 393H133.78L110.306 334.509H117.872L94.3981 393H74.8041ZM91.1971 379.808L96.1441 365.646H129.318L134.265 379.808H91.1971ZM186.113 394.358C180.745 394.358 175.766 393.517 171.175 391.836C166.648 390.09 162.703 387.633 159.341 384.464C156.043 381.295 153.456 377.577 151.581 373.309C149.705 368.976 148.768 364.223 148.768 359.05C148.768 353.877 149.705 349.156 151.581 344.888C153.456 340.555 156.043 336.805 159.341 333.636C162.703 330.467 166.648 328.042 171.175 326.361C175.766 324.615 180.745 323.742 186.113 323.742C192.385 323.742 197.979 324.841 202.894 327.04C207.873 329.239 212.012 332.407 215.31 336.546L203.088 347.604C200.889 345.017 198.464 343.045 195.813 341.687C193.226 340.329 190.316 339.65 187.083 339.65C184.302 339.65 181.748 340.103 179.42 341.008C177.092 341.913 175.087 343.239 173.406 344.985C171.789 346.666 170.496 348.703 169.526 351.096C168.62 353.489 168.168 356.14 168.168 359.05C168.168 361.96 168.62 364.611 169.526 367.004C170.496 369.397 171.789 371.466 173.406 373.212C175.087 374.893 177.092 376.187 179.42 377.092C181.748 377.997 184.302 378.45 187.083 378.45C190.316 378.45 193.226 377.771 195.813 376.413C198.464 375.055 200.889 373.083 203.088 370.496L215.31 381.554C212.012 385.628 207.873 388.797 202.894 391.06C197.979 393.259 192.385 394.358 186.113 394.358ZM231.758 393V340.329H210.903V325.1H271.722V340.329H250.964V393H231.758ZM272.877 393V325.1H292.083V393H272.877ZM333.6 394.358C328.233 394.358 323.253 393.517 318.662 391.836C314.135 390.09 310.191 387.633 306.828 384.464C303.53 381.295 300.943 377.577 299.068 373.309C297.193 368.976 296.255 364.223 296.255 359.05C296.255 353.877 297.193 349.156 299.068 344.888C300.943 340.555 303.53 336.805 306.828 333.636C310.191 330.467 314.135 328.042 318.662 326.361C323.253 324.615 328.233 323.742 333.6 323.742C339.873 323.742 345.466 324.841 350.381 327.04C355.36 329.239 359.499 332.407 362.797 336.546L350.575 347.604C348.376 345.017 345.951 343.045 343.3 341.687C340.713 340.329 337.803 339.65 334.57 339.65C331.789 339.65 329.235 340.103 326.907 341.008C324.579 341.913 322.574 343.239 320.893 344.985C319.276 346.666 317.983 348.703 317.013 351.096C316.108 353.489 315.655 356.14 315.655 359.05C315.655 361.96 316.108 364.611 317.013 367.004C317.983 369.397 319.276 371.466 320.893 373.212C322.574 374.893 324.579 376.187 326.907 377.092C329.235 377.997 331.789 378.45 334.57 378.45C337.803 378.45 340.713 377.771 343.3 376.413C345.951 375.055 348.376 373.083 350.575 370.496L362.797 381.554C359.499 385.628 355.36 388.797 350.381 391.06C345.466 393.259 339.873 394.358 333.6 394.358ZM388.559 394.358C382.998 394.358 377.631 393.679 372.457 392.321C367.349 390.898 363.178 389.088 359.944 386.889L366.249 372.727C369.289 374.667 372.781 376.284 376.725 377.577C380.735 378.806 384.712 379.42 388.656 379.42C391.308 379.42 393.442 379.194 395.058 378.741C396.675 378.224 397.839 377.577 398.55 376.801C399.326 375.96 399.714 374.99 399.714 373.891C399.714 372.339 399.003 371.11 397.58 370.205C396.158 369.3 394.315 368.556 392.051 367.974C389.788 367.392 387.266 366.81 384.485 366.228C381.769 365.646 379.021 364.902 376.24 363.997C373.524 363.092 371.035 361.928 368.771 360.505C366.508 359.018 364.665 357.11 363.242 354.782C361.82 352.389 361.108 349.382 361.108 345.761C361.108 341.687 362.208 338.001 364.406 334.703C366.67 331.405 370.032 328.754 374.494 326.749C378.956 324.744 384.518 323.742 391.178 323.742C395.64 323.742 400.005 324.259 404.273 325.294C408.606 326.264 412.454 327.719 415.816 329.659L409.899 343.918C406.666 342.172 403.465 340.879 400.296 340.038C397.128 339.133 394.056 338.68 391.081 338.68C388.43 338.68 386.296 338.971 384.679 339.553C383.063 340.07 381.899 340.782 381.187 341.687C380.476 342.592 380.12 343.627 380.12 344.791C380.12 346.278 380.799 347.475 382.157 348.38C383.58 349.221 385.423 349.932 387.686 350.514C390.014 351.031 392.536 351.581 395.252 352.163C398.033 352.745 400.781 353.489 403.497 354.394C406.278 355.235 408.8 356.399 411.063 357.886C413.327 359.309 415.137 361.216 416.495 363.609C417.918 365.937 418.629 368.879 418.629 372.436C418.629 376.381 417.498 380.034 415.234 383.397C413.036 386.695 409.705 389.346 405.243 391.351C400.846 393.356 395.285 394.358 388.559 394.358ZM48.638 472.879H79.969V487.72H48.638V472.879ZM49.996 511H30.79V443.1H84.043V457.941H49.996V511ZM120.698 512.358C115.266 512.358 110.254 511.485 105.663 509.739C101.072 507.993 97.0623 505.536 93.635 502.367C90.2723 499.134 87.6533 495.383 85.778 491.115C83.9027 486.847 82.965 482.159 82.965 477.05C82.965 471.941 83.9027 467.253 85.778 462.985C87.6533 458.717 90.2723 454.999 93.635 451.83C97.0623 448.597 101.072 446.107 105.663 444.361C110.254 442.615 115.266 441.742 120.698 441.742C126.195 441.742 131.206 442.615 135.733 444.361C140.324 446.107 144.301 448.597 147.664 451.83C151.027 454.999 153.646 458.717 155.521 462.985C157.461 467.253 158.431 471.941 158.431 477.05C158.431 482.159 157.461 486.879 155.521 491.212C153.646 495.48 151.027 499.198 147.664 502.367C144.301 505.536 140.324 507.993 135.733 509.739C131.206 511.485 126.195 512.358 120.698 512.358ZM120.698 496.45C123.285 496.45 125.677 495.997 127.876 495.092C130.139 494.187 132.079 492.893 133.696 491.212C135.377 489.466 136.671 487.397 137.576 485.004C138.546 482.611 139.031 479.96 139.031 477.05C139.031 474.075 138.546 471.424 137.576 469.096C136.671 466.703 135.377 464.666 133.696 462.985C132.079 461.239 130.139 459.913 127.876 459.008C125.677 458.103 123.285 457.65 120.698 457.65C118.111 457.65 115.686 458.103 113.423 459.008C111.224 459.913 109.284 461.239 107.603 462.985C105.986 464.666 104.693 466.703 103.723 469.096C102.818 471.424 102.365 474.075 102.365 477.05C102.365 479.96 102.818 482.611 103.723 485.004C104.693 487.397 105.986 489.466 107.603 491.212C109.284 492.893 111.224 494.187 113.423 495.092C115.686 495.997 118.111 496.45 120.698 496.45ZM162.49 511V443.1H193.53C199.738 443.1 205.073 444.102 209.535 446.107C214.062 448.112 217.554 451.022 220.011 454.837C222.469 458.588 223.697 463.05 223.697 468.223C223.697 473.332 222.469 477.761 220.011 481.512C217.554 485.198 214.062 488.043 209.535 490.048C205.073 491.988 199.738 492.958 193.53 492.958H173.16L181.696 484.907V511H162.49ZM204.491 511L187.613 486.265H208.08L225.055 511H204.491ZM181.696 486.944L173.16 478.117H192.366C196.376 478.117 199.35 477.244 201.29 475.498C203.295 473.752 204.297 471.327 204.297 468.223C204.297 465.054 203.295 462.597 201.29 460.851C199.35 459.105 196.376 458.232 192.366 458.232H173.16L181.696 449.405V486.944ZM242.373 511L272.346 443.1H291.261L321.331 511H301.349L277.875 452.509H285.441L261.967 511H242.373ZM258.766 497.808L263.713 483.646H296.887L301.834 497.808H258.766ZM320.776 511V443.1H351.816C358.024 443.1 363.359 444.102 367.821 446.107C372.348 448.112 375.84 451.022 378.297 454.837C380.755 458.588 381.983 463.05 381.983 468.223C381.983 473.332 380.755 477.761 378.297 481.512C375.84 485.263 372.348 488.173 367.821 490.242C363.359 492.247 358.024 493.249 351.816 493.249H331.446L339.982 484.907V511H320.776ZM339.982 486.944L331.446 478.117H350.652C354.662 478.117 357.636 477.244 359.576 475.498C361.581 473.752 362.583 471.327 362.583 468.223C362.583 465.054 361.581 462.597 359.576 460.851C357.636 459.105 354.662 458.232 350.652 458.232H331.446L339.982 449.405V486.944ZM385.348 511V443.1H416.388C422.596 443.1 427.931 444.102 432.393 446.107C436.919 448.112 440.411 451.022 442.869 454.837C445.326 458.588 446.555 463.05 446.555 468.223C446.555 473.332 445.326 477.761 442.869 481.512C440.411 485.263 436.919 488.173 432.393 490.242C427.931 492.247 422.596 493.249 416.388 493.249H396.018L404.554 484.907V511H385.348ZM404.554 486.944L396.018 478.117H415.224C419.233 478.117 422.208 477.244 424.148 475.498C426.152 473.752 427.155 471.327 427.155 468.223C427.155 465.054 426.152 462.597 424.148 460.851C422.208 459.105 419.233 458.232 415.224 458.232H396.018L404.554 449.405V486.944ZM54.652 630.358C49.0907 630.358 43.7233 629.679 38.55 628.321C33.4413 626.898 29.2703 625.088 26.037 622.889L32.342 608.727C35.3813 610.667 38.8733 612.284 42.818 613.577C46.8273 614.806 50.8043 615.42 54.749 615.42C57.4003 615.42 59.5343 615.194 61.151 614.741C62.7677 614.224 63.9317 613.577 64.643 612.801C65.419 611.96 65.807 610.99 65.807 609.891C65.807 608.339 65.0957 607.11 63.673 606.205C62.2503 605.3 60.4073 604.556 58.144 603.974C55.8807 603.392 53.3587 602.81 50.578 602.228C47.862 601.646 45.1137 600.902 42.333 599.997C39.617 599.092 37.1273 597.928 34.864 596.505C32.6007 595.018 30.7577 593.11 29.335 590.782C27.9123 588.389 27.201 585.382 27.201 581.761C27.201 577.687 28.3003 574.001 30.499 570.703C32.7623 567.405 36.125 564.754 40.587 562.749C45.049 560.744 50.6103 559.742 57.271 559.742C61.733 559.742 66.098 560.259 70.366 561.294C74.6987 562.264 78.5463 563.719 81.909 565.659L75.992 579.918C72.7587 578.172 69.5577 576.879 66.389 576.038C63.2203 575.133 60.1487 574.68 57.174 574.68C54.5227 574.68 52.3887 574.971 50.772 575.553C49.1553 576.07 47.9913 576.782 47.28 577.687C46.5687 578.592 46.213 579.627 46.213 580.791C46.213 582.278 46.892 583.475 48.25 584.38C49.6727 585.221 51.5157 585.932 53.779 586.514C56.107 587.031 58.629 587.581 61.345 588.163C64.1257 588.745 66.874 589.489 69.59 590.394C72.3707 591.235 74.8927 592.399 77.156 593.886C79.4193 595.309 81.23 597.216 82.588 599.609C84.0107 601.937 84.722 604.879 84.722 608.436C84.722 612.381 83.5903 616.034 81.327 619.397C79.1283 622.695 75.798 625.346 71.336 627.351C66.9387 629.356 61.3773 630.358 54.652 630.358ZM105.248 587.387H136.773V601.743H105.248V587.387ZM106.606 614.159H142.108V629H87.5937V561.1H140.847V575.941H106.606V614.159ZM180.619 630.358C175.251 630.358 170.272 629.517 165.681 627.836C161.154 626.09 157.209 623.633 153.847 620.464C150.549 617.295 147.962 613.577 146.087 609.309C144.211 604.976 143.274 600.223 143.274 595.05C143.274 589.877 144.211 585.156 146.087 580.888C147.962 576.555 150.549 572.805 153.847 569.636C157.209 566.467 161.154 564.042 165.681 562.361C170.272 560.615 175.251 559.742 180.619 559.742C186.891 559.742 192.485 560.841 197.4 563.04C202.379 565.239 206.518 568.407 209.816 572.546L197.594 583.604C195.395 581.017 192.97 579.045 190.319 577.687C187.732 576.329 184.822 575.65 181.589 575.65C178.808 575.65 176.254 576.103 173.926 577.008C171.598 577.913 169.593 579.239 167.912 580.985C166.295 582.666 165.002 584.703 164.032 587.096C163.126 589.489 162.674 592.14 162.674 595.05C162.674 597.96 163.126 600.611 164.032 603.004C165.002 605.397 166.295 607.466 167.912 609.212C169.593 610.893 171.598 612.187 173.926 613.092C176.254 613.997 178.808 614.45 181.589 614.45C184.822 614.45 187.732 613.771 190.319 612.413C192.97 611.055 195.395 609.083 197.594 606.496L209.816 617.554C206.518 621.628 202.379 624.797 197.4 627.06C192.485 629.259 186.891 630.358 180.619 630.358ZM243.047 630.358C233.023 630.358 225.199 627.61 219.573 622.113C213.947 616.616 211.134 608.824 211.134 598.736V561.1H230.34V598.154C230.34 603.974 231.471 608.145 233.735 610.667C236.063 613.189 239.231 614.45 243.241 614.45C247.25 614.45 250.386 613.189 252.65 610.667C254.913 608.145 256.045 603.974 256.045 598.154V561.1H274.96V598.736C274.96 608.824 272.147 616.616 266.521 622.113C260.895 627.61 253.07 630.358 243.047 630.358ZM281.971 629V561.1H313.011C319.219 561.1 324.554 562.102 329.016 564.107C333.542 566.112 337.034 569.022 339.492 572.837C341.949 576.588 343.178 581.05 343.178 586.223C343.178 591.332 341.949 595.761 339.492 599.512C337.034 603.198 333.542 606.043 329.016 608.048C324.554 609.988 319.219 610.958 313.011 610.958H292.641L301.177 602.907V629H281.971ZM323.972 629L307.094 604.265H327.561L344.536 629H323.972ZM301.177 604.944L292.641 596.117H311.847C315.856 596.117 318.831 595.244 320.771 593.498C322.775 591.752 323.778 589.327 323.778 586.223C323.778 583.054 322.775 580.597 320.771 578.851C318.831 577.105 315.856 576.232 311.847 576.232H292.641L301.177 567.405V604.944ZM347.773 629V561.1H366.979V629H347.773ZM389.097 629V576.329H368.242V561.1H429.061V576.329H408.303V629H389.097ZM445.774 629V600.288L450.236 611.831L419.875 561.1H440.148L462.07 597.863H450.333L472.352 561.1H490.976L460.712 611.831L464.98 600.288V629H445.774Z" fill="#0A0A0A"/>
<path d="M275.732 208.73V207.3H269.913V215H271.695V212.195H275.259V210.765H271.695V208.73H275.732ZM283.758 215L282.031 212.525C283.032 212.096 283.615 211.249 283.615 210.094C283.615 208.367 282.328 207.3 280.271 207.3H276.938V215H278.72V212.855H280.271H280.359L281.844 215H283.758ZM281.811 210.094C281.811 210.93 281.261 211.436 280.172 211.436H278.72V208.752H280.172C281.261 208.752 281.811 209.247 281.811 210.094ZM286.798 213.57V211.788H290.373V210.402H286.798V208.73H290.846V207.3H285.027V215H290.989V213.57H286.798ZM294.178 213.57V211.788H297.753V210.402H294.178V208.73H298.226V207.3H292.407V215H298.369V213.57H294.178ZM304.673 213.57V211.788H308.248V210.402H304.673V208.73H308.721V207.3H302.902V215H308.864V213.57H304.673ZM315.936 210.996C316.563 210.666 316.959 210.072 316.959 209.302C316.959 208.103 315.969 207.3 314.044 207.3H310.282V215H314.264C316.288 215 317.344 214.23 317.344 212.899C317.344 211.931 316.794 211.271 315.936 210.996ZM313.824 208.642C314.693 208.642 315.166 208.939 315.166 209.544C315.166 210.149 314.693 210.457 313.824 210.457H312.053V208.642H313.824ZM314.132 213.658H312.053V211.755H314.132C315.056 211.755 315.551 212.063 315.551 212.712C315.551 213.372 315.056 213.658 314.132 213.658ZM322.422 215.132C324.842 215.132 326.635 213.449 326.635 211.15C326.635 208.851 324.842 207.168 322.422 207.168C319.991 207.168 318.209 208.862 318.209 211.15C318.209 213.438 319.991 215.132 322.422 215.132ZM322.422 213.614C321.047 213.614 320.013 212.613 320.013 211.15C320.013 209.687 321.047 208.686 322.422 208.686C323.797 208.686 324.831 209.687 324.831 211.15C324.831 212.613 323.797 213.614 322.422 213.614ZM331.704 215.132C334.124 215.132 335.917 213.449 335.917 211.15C335.917 208.851 334.124 207.168 331.704 207.168C329.273 207.168 327.491 208.862 327.491 211.15C327.491 213.438 329.273 215.132 331.704 215.132ZM331.704 213.614C330.329 213.614 329.295 212.613 329.295 211.15C329.295 209.687 330.329 208.686 331.704 208.686C333.079 208.686 334.113 209.687 334.113 211.15C334.113 212.613 333.079 213.614 331.704 213.614ZM342.525 215H344.604L341.227 210.732L344.417 207.3H342.437L339.027 210.897V207.3H337.256V215H339.027V213.053L340.061 211.975L342.525 215ZM354.333 208.73V207.3H348.514V215H350.296V212.195H353.86V210.765H350.296V208.73H354.333ZM359.193 215.132C361.613 215.132 363.406 213.449 363.406 211.15C363.406 208.851 361.613 207.168 359.193 207.168C356.762 207.168 354.98 208.862 354.98 211.15C354.98 213.438 356.762 215.132 359.193 215.132ZM359.193 213.614C357.818 213.614 356.784 212.613 356.784 211.15C356.784 209.687 357.818 208.686 359.193 208.686C360.568 208.686 361.602 209.687 361.602 211.15C361.602 212.613 360.568 213.614 359.193 213.614ZM371.565 215L369.838 212.525C370.839 212.096 371.422 211.249 371.422 210.094C371.422 208.367 370.135 207.3 368.078 207.3H364.745V215H366.527V212.855H368.078H368.166L369.651 215H371.565ZM369.618 210.094C369.618 210.93 369.068 211.436 367.979 211.436H366.527V208.752H367.979C369.068 208.752 369.618 209.247 369.618 210.094ZM375.949 215H379.447C381.966 215 383.693 213.482 383.693 211.15C383.693 208.818 381.966 207.3 379.447 207.3H375.949V215ZM377.731 213.537V208.763H379.359C380.888 208.763 381.889 209.676 381.889 211.15C381.889 212.624 380.888 213.537 379.359 213.537H377.731ZM386.808 213.57V211.788H390.383V210.402H386.808V208.73H390.856V207.3H385.037V215H390.999V213.57H386.808ZM397.941 207.3L395.565 212.8L393.222 207.3H391.297L394.619 215H396.379L399.712 207.3H397.941ZM402.126 213.57V211.788H405.701V210.402H402.126V208.73H406.174V207.3H400.355V215H406.317V213.57H402.126ZM407.735 215H413.378V213.548H409.517V207.3H407.735V215ZM417.974 215.132C420.394 215.132 422.187 213.449 422.187 211.15C422.187 208.851 420.394 207.168 417.974 207.168C415.543 207.168 413.761 208.862 413.761 211.15C413.761 213.438 415.543 215.132 417.974 215.132ZM417.974 213.614C416.599 213.614 415.565 212.613 415.565 211.15C415.565 209.687 416.599 208.686 417.974 208.686C419.349 208.686 420.383 209.687 420.383 211.15C420.383 212.613 419.349 213.614 417.974 213.614ZM426.859 207.3H423.526V215H425.308V212.877H426.859C428.916 212.877 430.203 211.81 430.203 210.094C430.203 208.367 428.916 207.3 426.859 207.3ZM426.76 211.425H425.308V208.752H426.76C427.849 208.752 428.399 209.247 428.399 210.094C428.399 210.93 427.849 211.425 426.76 211.425ZM433.247 213.57V211.788H436.822V210.402H433.247V208.73H437.295V207.3H431.476V215H437.438V213.57H433.247ZM445.675 215L443.948 212.525C444.949 212.096 445.532 211.249 445.532 210.094C445.532 208.367 444.245 207.3 442.188 207.3H438.855V215H440.637V212.855H442.188H442.276L443.761 215H445.675ZM443.728 210.094C443.728 210.93 443.178 211.436 442.089 211.436H440.637V208.752H442.089C443.178 208.752 443.728 209.247 443.728 210.094ZM449.474 215.132C451.674 215.132 452.741 214.032 452.741 212.745C452.741 209.918 448.264 210.897 448.264 209.478C448.264 208.994 448.671 208.598 449.727 208.598C450.409 208.598 451.146 208.796 451.861 209.203L452.411 207.85C451.696 207.399 450.706 207.168 449.738 207.168C447.549 207.168 446.493 208.257 446.493 209.566C446.493 212.426 450.97 211.436 450.97 212.877C450.97 213.35 450.541 213.702 449.485 213.702C448.561 213.702 447.593 213.372 446.944 212.899L446.339 214.241C447.021 214.769 448.253 215.132 449.474 215.132ZM454.713 212.954C454.108 212.954 453.646 213.372 453.646 214.01C453.646 214.461 453.877 214.802 454.24 214.945L453.756 216.694H454.845L455.472 215.11C455.725 214.505 455.769 214.296 455.769 214.01C455.769 213.383 455.329 212.954 454.713 212.954ZM275.666 228H277.536L274.093 220.3H272.333L268.901 228H270.727L271.409 226.35H274.984L275.666 228ZM271.981 224.997L273.202 222.049L274.423 224.997H271.981ZM281.668 220.3H278.335V228H280.117V225.877H281.668C283.725 225.877 285.012 224.81 285.012 223.094C285.012 221.367 283.725 220.3 281.668 220.3ZM281.569 224.425H280.117V221.752H281.569C282.658 221.752 283.208 222.247 283.208 223.094C283.208 223.93 282.658 224.425 281.569 224.425ZM289.617 220.3H286.284V228H288.066V225.877H289.617C291.674 225.877 292.961 224.81 292.961 223.094C292.961 221.367 291.674 220.3 289.617 220.3ZM289.518 224.425H288.066V221.752H289.518C290.607 221.752 291.157 222.247 291.157 223.094C291.157 223.93 290.607 224.425 289.518 224.425ZM301.185 228.132C303.605 228.132 305.398 226.449 305.398 224.15C305.398 221.851 303.605 220.168 301.185 220.168C298.754 220.168 296.972 221.862 296.972 224.15C296.972 226.438 298.754 228.132 301.185 228.132ZM301.185 226.614C299.81 226.614 298.776 225.613 298.776 224.15C298.776 222.687 299.81 221.686 301.185 221.686C302.56 221.686 303.594 222.687 303.594 224.15C303.594 225.613 302.56 226.614 301.185 226.614ZM316.412 220.3L314.619 225.756L312.859 220.3H311.209L309.394 225.712L307.656 220.3H305.808L308.338 228H310.241L311.99 222.786L313.684 228H315.598L318.117 220.3H316.412ZM324.414 220.3V224.975L320.586 220.3H319.112V228H320.872V223.325L324.711 228H326.174V220.3H324.414ZM329.767 226.57V224.788H333.342V223.402H329.767V221.73H333.815V220.3H327.996V228H333.958V226.57H329.767ZM342.196 228L340.469 225.525C341.47 225.096 342.053 224.249 342.053 223.094C342.053 221.367 340.766 220.3 338.709 220.3H335.376V228H337.158V225.855H338.709H338.797L340.282 228H342.196ZM340.249 223.094C340.249 223.93 339.699 224.436 338.61 224.436H337.158V221.752H338.61C339.699 221.752 340.249 222.247 340.249 223.094ZM345.995 228.132C348.195 228.132 349.262 227.032 349.262 225.745C349.262 222.918 344.785 223.897 344.785 222.478C344.785 221.994 345.192 221.598 346.248 221.598C346.93 221.598 347.667 221.796 348.382 222.203L348.932 220.85C348.217 220.399 347.227 220.168 346.259 220.168C344.07 220.168 343.014 221.257 343.014 222.566C343.014 225.426 347.491 224.436 347.491 225.877C347.491 226.35 347.062 226.702 346.006 226.702C345.082 226.702 344.114 226.372 343.465 225.899L342.86 227.241C343.542 227.769 344.774 228.132 345.995 228.132ZM351.233 225.954C350.628 225.954 350.166 226.372 350.166 227.01C350.166 227.461 350.397 227.802 350.76 227.945L350.276 229.694H351.365L351.992 228.11C352.245 227.505 352.289 227.296 352.289 227.01C352.289 226.383 351.849 225.954 351.233 225.954ZM359.218 228.132C361.418 228.132 362.485 227.032 362.485 225.745C362.485 222.918 358.008 223.897 358.008 222.478C358.008 221.994 358.415 221.598 359.471 221.598C360.153 221.598 360.89 221.796 361.605 222.203L362.155 220.85C361.44 220.399 360.45 220.168 359.482 220.168C357.293 220.168 356.237 221.257 356.237 222.566C356.237 225.426 360.714 224.436 360.714 225.877C360.714 226.35 360.285 226.702 359.229 226.702C358.305 226.702 357.337 226.372 356.688 225.899L356.083 227.241C356.765 227.769 357.997 228.132 359.218 228.132ZM365.191 228H366.973V221.752H369.437V220.3H362.727V221.752H365.191V228ZM375.762 228H377.632L374.189 220.3H372.429L368.997 228H370.823L371.505 226.35H375.08L375.762 228ZM372.077 224.997L373.298 222.049L374.519 224.997H372.077ZM385.251 228L383.524 225.525C384.525 225.096 385.108 224.249 385.108 223.094C385.108 221.367 383.821 220.3 381.764 220.3H378.431V228H380.213V225.855H381.764H381.852L383.337 228H385.251ZM383.304 223.094C383.304 223.93 382.754 224.436 381.665 224.436H380.213V221.752H381.665C382.754 221.752 383.304 222.247 383.304 223.094ZM388.007 228H389.789V221.752H392.253V220.3H385.543V221.752H388.007V228ZM396.504 228.132C398.693 228.132 399.991 226.878 399.991 224.612V220.3H398.231V224.546C398.231 226.009 397.604 226.614 396.515 226.614C395.437 226.614 394.799 226.009 394.799 224.546V220.3H393.017V224.612C393.017 226.878 394.315 228.132 396.504 228.132ZM405.085 220.3H401.752V228H403.534V225.877H405.085C407.142 225.877 408.429 224.81 408.429 223.094C408.429 221.367 407.142 220.3 405.085 220.3ZM404.986 224.425H403.534V221.752H404.986C406.075 221.752 406.625 222.247 406.625 223.094C406.625 223.93 406.075 224.425 404.986 224.425ZM412.339 228.132C414.539 228.132 415.606 227.032 415.606 225.745C415.606 222.918 411.129 223.897 411.129 222.478C411.129 221.994 411.536 221.598 412.592 221.598C413.274 221.598 414.011 221.796 414.726 222.203L415.276 220.85C414.561 220.399 413.571 220.168 412.603 220.168C410.414 220.168 409.358 221.257 409.358 222.566C409.358 225.426 413.835 224.436 413.835 225.877C413.835 226.35 413.406 226.702 412.35 226.702C411.426 226.702 410.458 226.372 409.809 225.899L409.204 227.241C409.886 227.769 411.118 228.132 412.339 228.132ZM425.691 228H427.561L424.118 220.3H422.358L418.926 228H420.752L421.434 226.35H425.009L425.691 228ZM422.006 224.997L423.227 222.049L424.448 224.997H422.006ZM433.662 220.3V224.975L429.834 220.3H428.36V228H430.12V223.325L433.959 228H435.422V220.3H433.662ZM437.244 228H440.742C443.261 228 444.988 226.482 444.988 224.15C444.988 221.818 443.261 220.3 440.742 220.3H437.244V228ZM439.026 226.537V221.763H440.654C442.183 221.763 443.184 222.676 443.184 224.15C443.184 225.624 442.183 226.537 440.654 226.537H439.026ZM269.913 241H275.556V239.548H271.695V233.3H269.913V241ZM282.369 241H284.239L280.796 233.3H279.036L275.604 241H277.43L278.112 239.35H281.687L282.369 241ZM278.684 237.997L279.905 235.049L281.126 237.997H278.684ZM291.858 241L290.131 238.525C291.132 238.096 291.715 237.249 291.715 236.094C291.715 234.367 290.428 233.3 288.371 233.3H285.038V241H286.82V238.855H288.371H288.459L289.944 241H291.858ZM289.911 236.094C289.911 236.93 289.361 237.436 288.272 237.436H286.82V234.752H288.272C289.361 234.752 289.911 235.247 289.911 236.094ZM298.33 239.284C297.879 239.526 297.428 239.614 296.944 239.614C295.47 239.614 294.447 238.591 294.447 237.15C294.447 235.687 295.47 234.686 296.966 234.686C297.747 234.686 298.396 234.961 298.957 235.555L300.101 234.499C299.353 233.63 298.231 233.168 296.878 233.168C294.425 233.168 292.643 234.829 292.643 237.15C292.643 239.471 294.425 241.132 296.845 241.132C297.945 241.132 299.111 240.791 299.958 240.153V237.029H298.33V239.284ZM303.384 239.57V237.788H306.959V236.402H303.384V234.73H307.432V233.3H301.613V241H307.575V239.57H303.384ZM315.813 241L314.086 238.525C315.087 238.096 315.67 237.249 315.67 236.094C315.67 234.367 314.383 233.3 312.326 233.3H308.993V241H310.775V238.855H312.326H312.414L313.899 241H315.813ZM313.866 236.094C313.866 236.93 313.316 237.436 312.227 237.436H310.775V234.752H312.227C313.316 234.752 313.866 235.247 313.866 236.094ZM323.882 241.132C325.224 241.132 326.335 240.648 327.061 239.757L325.917 238.701C325.4 239.306 324.751 239.614 323.981 239.614C322.54 239.614 321.517 238.602 321.517 237.15C321.517 235.698 322.54 234.686 323.981 234.686C324.751 234.686 325.4 234.994 325.917 235.588L327.061 234.532C326.335 233.652 325.224 233.168 323.893 233.168C321.495 233.168 319.713 234.829 319.713 237.15C319.713 239.471 321.495 241.132 323.882 241.132ZM331.832 241.132C334.252 241.132 336.045 239.449 336.045 237.15C336.045 234.851 334.252 233.168 331.832 233.168C329.401 233.168 327.619 234.862 327.619 237.15C327.619 239.438 329.401 241.132 331.832 241.132ZM331.832 239.614C330.457 239.614 329.423 238.613 329.423 237.15C329.423 235.687 330.457 234.686 331.832 234.686C333.207 234.686 334.241 235.687 334.241 237.15C334.241 238.613 333.207 239.614 331.832 239.614ZM346.064 241L346.042 233.3H344.579L341.741 238.085L338.859 233.3H337.385V241H339.057V236.479L341.312 240.186H342.115L344.381 236.38L344.392 241H346.064ZM351.224 233.3H347.891V241H349.673V238.877H351.224C353.281 238.877 354.568 237.81 354.568 236.094C354.568 234.367 353.281 233.3 351.224 233.3ZM351.125 237.425H349.673V234.752H351.125C352.214 234.752 352.764 235.247 352.764 236.094C352.764 236.93 352.214 237.425 351.125 237.425ZM361.206 241H363.076L359.633 233.3H357.873L354.441 241H356.267L356.949 239.35H360.524L361.206 241ZM357.521 237.997L358.742 235.049L359.963 237.997H357.521ZM369.177 233.3V237.975L365.349 233.3H363.875V241H365.635V236.325L369.474 241H370.937V233.3H369.177ZM372.759 241H374.541V233.3H372.759V241ZM378.139 239.57V237.788H381.714V236.402H378.139V234.73H382.187V233.3H376.368V241H382.33V239.57H378.139ZM386.278 241.132C388.478 241.132 389.545 240.032 389.545 238.745C389.545 235.918 385.068 236.897 385.068 235.478C385.068 234.994 385.475 234.598 386.531 234.598C387.213 234.598 387.95 234.796 388.665 235.203L389.215 233.85C388.5 233.399 387.51 233.168 386.542 233.168C384.353 233.168 383.297 234.257 383.297 235.566C383.297 238.426 387.774 237.436 387.774 238.877C387.774 239.35 387.345 239.702 386.289 239.702C385.365 239.702 384.397 239.372 383.748 238.899L383.143 240.241C383.825 240.769 385.057 241.132 386.278 241.132Z" fill="#0A0A0A"/>
<g clip-path="url(#clip1_4198_504)">
<path d="M32.7312 29.3776C33.6138 29.8726 34.3069 30.5536 34.8106 31.4208C35.3143 32.2886 35.5658 33.2506 35.5658 34.3075C35.5658 35.3644 35.3143 36.3476 34.8106 37.2148C34.3069 38.082 33.6138 38.7636 32.7312 39.2579C31.8481 39.7528 30.8616 40 29.7724 40C28.6833 40 27.7411 39.7595 26.8653 39.2785C25.9889 38.7974 25.2958 38.1297 24.786 37.2758C24.2755 36.422 24.0135 35.4732 24 34.4296V24.6097C24 24.42 24.0584 24.2713 24.1759 24.1626C24.2927 24.0544 24.4416 24 24.6205 24C24.8137 24 24.9649 24.0544 25.0756 24.1626C25.1857 24.2713 25.2411 24.42 25.2411 24.6097V30.9531C25.6962 30.2351 26.3204 29.6689 27.1138 29.2556C27.9065 28.8422 28.7927 28.6356 29.7724 28.6356C30.8622 28.6356 31.8481 28.8827 32.7312 29.3776ZM32.0898 38.262C32.7792 37.8626 33.3241 37.3163 33.7245 36.6256C34.1242 35.9343 34.3247 35.162 34.3247 34.3075C34.3247 33.453 34.1248 32.6813 33.7245 31.99C33.3241 31.2987 32.7798 30.7573 32.0898 30.3639C31.3998 29.9711 30.6279 29.7741 29.7724 29.7741C28.917 29.7741 28.1445 29.9705 27.4551 30.3639C26.7651 30.7573 26.2239 31.2987 25.8309 31.99C25.4379 32.6813 25.2411 33.4536 25.2411 34.3075C25.2411 35.1614 25.4379 35.9343 25.8309 36.6256C26.2239 37.3169 26.7651 37.8626 27.4551 38.262C28.1445 38.6621 28.917 38.8615 29.7724 38.8615C30.6279 38.8615 31.3998 38.6615 32.0898 38.262Z" fill="black"/>
<path d="M44.002 35.1318H39.0469V40.0007H44.002V35.1318Z" fill="#fe6b00"/>
</g>
<path d="M27.65 691.04C27.13 691.04 26.6633 690.92 26.25 690.68C25.8367 690.433 25.51 690.1 25.27 689.68C25.03 689.26 24.9067 688.787 24.9 688.26V683.7C24.9 683.547 24.9467 683.423 25.04 683.33C25.14 683.237 25.2633 683.19 25.41 683.19C25.5633 683.19 25.6867 683.237 25.78 683.33C25.8733 683.423 25.92 683.547 25.92 683.7V686.4C26.1533 686.12 26.4333 685.9 26.76 685.74C27.0933 685.573 27.4567 685.49 27.85 685.49C28.3367 685.49 28.7733 685.613 29.16 685.86C29.5467 686.1 29.85 686.43 30.07 686.85C30.2967 687.263 30.41 687.733 30.41 688.26C30.41 688.787 30.2867 689.26 30.04 689.68C29.8 690.1 29.4733 690.433 29.06 690.68C28.6467 690.92 28.1767 691.04 27.65 691.04ZM27.65 690.14C27.99 690.14 28.2933 690.06 28.56 689.9C28.8267 689.733 29.0367 689.507 29.19 689.22C29.35 688.933 29.43 688.613 29.43 688.26C29.43 687.9 29.35 687.58 29.19 687.3C29.0367 687.02 28.8267 686.8 28.56 686.64C28.2933 686.473 27.99 686.39 27.65 686.39C27.3167 686.39 27.0133 686.473 26.74 686.64C26.4733 686.8 26.2633 687.02 26.11 687.3C25.9567 687.58 25.88 687.9 25.88 688.26C25.88 688.613 25.9567 688.933 26.11 689.22C26.2633 689.507 26.4733 689.733 26.74 689.9C27.0133 690.06 27.3167 690.14 27.65 690.14ZM32.6085 693.4C32.5418 693.4 32.4618 693.38 32.3685 693.34C32.0752 693.207 31.9952 692.997 32.1285 692.71L35.1785 685.82C35.3118 685.54 35.5218 685.46 35.8085 685.58C36.1085 685.707 36.1918 685.917 36.0585 686.21L32.9985 693.09C32.9185 693.297 32.7885 693.4 32.6085 693.4ZM33.7885 690.78C33.6618 690.833 33.5418 690.84 33.4285 690.8C33.3218 690.753 33.2352 690.667 33.1685 690.54L30.8785 686.19C30.8118 686.063 30.8018 685.943 30.8485 685.83C30.9018 685.71 30.9918 685.623 31.1185 685.57C31.2452 685.517 31.3652 685.513 31.4785 685.56C31.5918 685.6 31.6785 685.683 31.7385 685.81L33.9285 690.16C33.9952 690.287 34.0185 690.41 33.9985 690.53C33.9852 690.643 33.9152 690.727 33.7885 690.78ZM42.6988 691.04C42.1788 691.04 41.7122 690.92 41.2988 690.68C40.8855 690.433 40.5588 690.1 40.3188 689.68C40.0788 689.26 39.9555 688.787 39.9488 688.26V683.7C39.9488 683.547 39.9955 683.423 40.0888 683.33C40.1888 683.237 40.3122 683.19 40.4588 683.19C40.6122 683.19 40.7355 683.237 40.8288 683.33C40.9222 683.423 40.9688 683.547 40.9688 683.7V686.4C41.2022 686.12 41.4822 685.9 41.8088 685.74C42.1422 685.573 42.5055 685.49 42.8988 685.49C43.3855 685.49 43.8222 685.613 44.2088 685.86C44.5955 686.1 44.8988 686.43 45.1188 686.85C45.3455 687.263 45.4588 687.733 45.4588 688.26C45.4588 688.787 45.3355 689.26 45.0888 689.68C44.8488 690.1 44.5222 690.433 44.1088 690.68C43.6955 690.92 43.2255 691.04 42.6988 691.04ZM42.6988 690.14C43.0388 690.14 43.3422 690.06 43.6088 689.9C43.8755 689.733 44.0855 689.507 44.2388 689.22C44.3988 688.933 44.4788 688.613 44.4788 688.26C44.4788 687.9 44.3988 687.58 44.2388 687.3C44.0855 687.02 43.8755 686.8 43.6088 686.64C43.3422 686.473 43.0388 686.39 42.6988 686.39C42.3655 686.39 42.0622 686.473 41.7888 686.64C41.5222 686.8 41.3122 687.02 41.1588 687.3C41.0055 687.58 40.9288 687.9 40.9288 688.26C40.9288 688.613 41.0055 688.933 41.1588 689.22C41.3122 689.507 41.5222 689.733 41.7888 689.9C42.0622 690.06 42.3655 690.14 42.6988 690.14ZM47.4701 687.58C47.4701 687.18 47.5667 686.823 47.7601 686.51C47.9601 686.19 48.2267 685.937 48.5601 685.75C48.8934 685.563 49.2601 685.47 49.6601 685.47C50.0601 685.47 50.3567 685.537 50.5501 685.67C50.7501 685.797 50.8267 685.95 50.7801 686.13C50.7601 686.223 50.7201 686.297 50.6601 686.35C50.6067 686.397 50.5434 686.427 50.4701 686.44C50.3967 686.453 50.3167 686.45 50.2301 686.43C49.8034 686.343 49.4201 686.337 49.0801 686.41C48.7401 686.483 48.4701 686.62 48.2701 686.82C48.0767 687.02 47.9801 687.273 47.9801 687.58H47.4701ZM47.4801 691C47.3201 691 47.1967 690.96 47.1101 690.88C47.0234 690.793 46.9801 690.667 46.9801 690.5V686.03C46.9801 685.87 47.0234 685.747 47.1101 685.66C47.1967 685.573 47.3201 685.53 47.4801 685.53C47.6467 685.53 47.7701 685.573 47.8501 685.66C47.9367 685.74 47.9801 685.863 47.9801 686.03V690.5C47.9801 690.66 47.9367 690.783 47.8501 690.87C47.7701 690.957 47.6467 691 47.4801 691ZM52.4534 691C52.3067 691 52.1834 690.953 52.0834 690.86C51.99 690.76 51.9434 690.637 51.9434 690.49V686.04C51.9434 685.887 51.99 685.763 52.0834 685.67C52.1834 685.577 52.3067 685.53 52.4534 685.53C52.6067 685.53 52.73 685.577 52.8234 685.67C52.9167 685.763 52.9634 685.887 52.9634 686.04V690.49C52.9634 690.637 52.9167 690.76 52.8234 690.86C52.73 690.953 52.6067 691 52.4534 691ZM52.4534 684.64C52.2734 684.64 52.1167 684.577 51.9834 684.45C51.8567 684.317 51.7934 684.16 51.7934 683.98C51.7934 683.8 51.8567 683.647 51.9834 683.52C52.1167 683.387 52.2734 683.32 52.4534 683.32C52.6334 683.32 52.7867 683.387 52.9134 683.52C53.0467 683.647 53.1134 683.8 53.1134 683.98C53.1134 684.16 53.0467 684.317 52.9134 684.45C52.7867 684.577 52.6334 684.64 52.4534 684.64ZM57.1409 691.04C56.6409 691.04 56.1976 690.923 55.8109 690.69C55.4309 690.45 55.1309 690.123 54.9109 689.71C54.6909 689.29 54.5809 688.81 54.5809 688.27C54.5809 687.723 54.6976 687.243 54.9309 686.83C55.1709 686.41 55.4976 686.083 55.9109 685.85C56.3243 685.61 56.8009 685.49 57.3409 685.49C57.8743 685.49 58.3476 685.61 58.7609 685.85C59.1743 686.083 59.4976 686.41 59.7309 686.83C59.9709 687.243 60.0909 687.723 60.0909 688.27H59.5009C59.5009 688.81 59.3976 689.29 59.1909 689.71C58.9909 690.123 58.7143 690.45 58.3609 690.69C58.0076 690.923 57.6009 691.04 57.1409 691.04ZM57.3209 693.27C56.8476 693.27 56.4043 693.177 55.9909 692.99C55.5776 692.803 55.2276 692.53 54.9409 692.17C54.8543 692.057 54.8209 691.94 54.8409 691.82C54.8676 691.7 54.9343 691.603 55.0409 691.53C55.1609 691.45 55.2843 691.423 55.4109 691.45C55.5443 691.477 55.6509 691.543 55.7309 691.65C55.9109 691.877 56.1376 692.053 56.4109 692.18C56.6843 692.307 56.9943 692.37 57.3409 692.37C57.6609 692.37 57.9543 692.293 58.2209 692.14C58.4943 691.987 58.7109 691.76 58.8709 691.46C59.0309 691.16 59.1109 690.793 59.1109 690.36V688.94L59.4409 688.06L60.0909 688.27V690.43C60.0909 690.957 59.9743 691.433 59.7409 691.86C59.5076 692.293 59.1809 692.637 58.7609 692.89C58.3476 693.143 57.8676 693.27 57.3209 693.27ZM57.3409 690.14C57.6876 690.14 57.9943 690.06 58.2609 689.9C58.5276 689.74 58.7343 689.52 58.8809 689.24C59.0343 688.96 59.1109 688.637 59.1109 688.27C59.1109 687.903 59.0343 687.58 58.8809 687.3C58.7343 687.013 58.5276 686.79 58.2609 686.63C57.9943 686.47 57.6876 686.39 57.3409 686.39C56.9943 686.39 56.6876 686.47 56.4209 686.63C56.1543 686.79 55.9443 687.013 55.7909 687.3C55.6376 687.58 55.5609 687.903 55.5609 688.27C55.5609 688.637 55.6376 688.96 55.7909 689.24C55.9443 689.52 56.1543 689.74 56.4209 689.9C56.6876 690.06 56.9943 690.14 57.3409 690.14ZM62.119 689.01C61.9723 689.01 61.849 688.963 61.749 688.87C61.6557 688.77 61.609 688.647 61.609 688.5V683.7C61.609 683.547 61.6557 683.423 61.749 683.33C61.849 683.237 61.9723 683.19 62.119 683.19C62.2723 683.19 62.3957 683.237 62.489 683.33C62.5823 683.423 62.629 683.547 62.629 683.7V688.5C62.629 688.647 62.5823 688.77 62.489 688.87C62.3957 688.963 62.2723 689.01 62.119 689.01ZM66.229 691.01C66.0823 691.01 65.959 690.963 65.859 690.87C65.7657 690.77 65.719 690.647 65.719 690.5V688.04C65.719 687.66 65.649 687.35 65.509 687.11C65.369 686.87 65.179 686.693 64.939 686.58C64.7057 686.46 64.4357 686.4 64.129 686.4C63.849 686.4 63.5957 686.457 63.369 686.57C63.1423 686.683 62.9623 686.837 62.829 687.03C62.6957 687.217 62.629 687.433 62.629 687.68H61.999C61.999 687.26 62.099 686.887 62.299 686.56C62.5057 686.227 62.7857 685.963 63.139 685.77C63.4923 685.577 63.889 685.48 64.329 685.48C64.789 685.48 65.199 685.58 65.559 685.78C65.9257 685.973 66.2123 686.26 66.419 686.64C66.6323 687.02 66.739 687.487 66.739 688.04V690.5C66.739 690.647 66.689 690.77 66.589 690.87C66.4957 690.963 66.3757 691.01 66.229 691.01ZM62.119 691.01C61.9723 691.01 61.849 690.963 61.749 690.87C61.6557 690.77 61.609 690.647 61.609 690.5V686.04C61.609 685.887 61.6557 685.763 61.749 685.67C61.849 685.577 61.9723 685.53 62.119 685.53C62.2723 685.53 62.3957 685.577 62.489 685.67C62.5823 685.763 62.629 685.887 62.629 686.04V690.5C62.629 690.647 62.5823 690.77 62.489 690.87C62.3957 690.963 62.2723 691.01 62.119 691.01ZM70.4252 691C70.0918 691 69.7918 690.917 69.5252 690.75C69.2585 690.577 69.0485 690.343 68.8952 690.05C68.7418 689.757 68.6652 689.427 68.6652 689.06V684.29C68.6652 684.143 68.7118 684.023 68.8052 683.93C68.8985 683.837 69.0185 683.79 69.1652 683.79C69.3118 683.79 69.4318 683.837 69.5252 683.93C69.6185 684.023 69.6652 684.143 69.6652 684.29V689.06C69.6652 689.327 69.7385 689.55 69.8852 689.73C70.0318 689.91 70.2118 690 70.4252 690H70.7652C70.8852 690 70.9852 690.047 71.0652 690.14C71.1518 690.233 71.1952 690.353 71.1952 690.5C71.1952 690.647 71.1385 690.767 71.0252 690.86C70.9185 690.953 70.7785 691 70.6052 691H70.4252ZM68.2052 686.59C68.0652 686.59 67.9518 686.55 67.8652 686.47C67.7785 686.39 67.7352 686.29 67.7352 686.17C67.7352 686.037 67.7785 685.93 67.8652 685.85C67.9518 685.77 68.0652 685.73 68.2052 685.73H70.5152C70.6552 685.73 70.7685 685.77 70.8552 685.85C70.9418 685.93 70.9852 686.037 70.9852 686.17C70.9852 686.29 70.9418 686.39 70.8552 686.47C70.7685 686.55 70.6552 686.59 70.5152 686.59H68.2052ZM75.9885 691C75.8418 691 75.7185 690.953 75.6185 690.86C75.5252 690.76 75.4785 690.637 75.4785 690.49V686.04C75.4785 685.887 75.5252 685.763 75.6185 685.67C75.7185 685.577 75.8418 685.53 75.9885 685.53C76.1418 685.53 76.2652 685.577 76.3585 685.67C76.4518 685.763 76.4985 685.887 76.4985 686.04V690.49C76.4985 690.637 76.4518 690.76 76.3585 690.86C76.2652 690.953 76.1418 691 75.9885 691ZM75.9885 684.64C75.8085 684.64 75.6518 684.577 75.5185 684.45C75.3918 684.317 75.3285 684.16 75.3285 683.98C75.3285 683.8 75.3918 683.647 75.5185 683.52C75.6518 683.387 75.8085 683.32 75.9885 683.32C76.1685 683.32 76.3218 683.387 76.4485 683.52C76.5818 683.647 76.6485 683.8 76.6485 683.98C76.6485 684.16 76.5818 684.317 76.4485 684.45C76.3218 684.577 76.1685 684.64 75.9885 684.64ZM83.0161 691.01C82.8694 691.01 82.7461 690.963 82.6461 690.87C82.5528 690.77 82.5061 690.647 82.5061 690.5V688.04C82.5061 687.66 82.4361 687.35 82.2961 687.11C82.1561 686.87 81.9661 686.693 81.7261 686.58C81.4928 686.46 81.2228 686.4 80.9161 686.4C80.6361 686.4 80.3828 686.457 80.1561 686.57C79.9294 686.683 79.7494 686.837 79.6161 687.03C79.4828 687.217 79.4161 687.433 79.4161 687.68H78.7861C78.7861 687.26 78.8861 686.887 79.0861 686.56C79.2928 686.227 79.5728 685.963 79.9261 685.77C80.2794 685.577 80.6761 685.48 81.1161 685.48C81.5761 685.48 81.9861 685.58 82.3461 685.78C82.7128 685.973 82.9994 686.26 83.2061 686.64C83.4194 687.02 83.5261 687.487 83.5261 688.04V690.5C83.5261 690.647 83.4761 690.77 83.3761 690.87C83.2828 690.963 83.1628 691.01 83.0161 691.01ZM78.9061 691.01C78.7594 691.01 78.6361 690.963 78.5361 690.87C78.4428 690.77 78.3961 690.647 78.3961 690.5V686.04C78.3961 685.887 78.4428 685.763 78.5361 685.67C78.6361 685.577 78.7594 685.53 78.9061 685.53C79.0594 685.53 79.1828 685.577 79.2761 685.67C79.3694 685.763 79.4161 685.887 79.4161 686.04V690.5C79.4161 690.647 79.3694 690.77 79.2761 690.87C79.1828 690.963 79.0594 691.01 78.9061 691.01ZM86.7598 690.99C86.5531 690.99 86.3931 690.88 86.2798 690.66L84.1598 686.19C84.1064 686.077 84.0998 685.967 84.1398 685.86C84.1864 685.747 84.2731 685.66 84.3998 685.6C84.5131 685.54 84.6264 685.53 84.7398 685.57C84.8598 685.61 84.9498 685.687 85.0098 685.8L86.9898 690.07H86.5098L88.4698 685.8C88.5298 685.687 88.6198 685.61 88.7398 685.57C88.8664 685.53 88.9931 685.54 89.1198 685.6C89.2398 685.653 89.3198 685.737 89.3598 685.85C89.3998 685.963 89.3931 686.077 89.3398 686.19L87.2198 690.66C87.1198 690.88 86.9664 690.99 86.7598 690.99ZM92.763 691.04C92.2096 691.04 91.7163 690.923 91.283 690.69C90.8563 690.45 90.5196 690.123 90.273 689.71C90.033 689.29 89.913 688.81 89.913 688.27C89.913 687.723 90.0263 687.243 90.253 686.83C90.4863 686.41 90.8063 686.083 91.213 685.85C91.6196 685.61 92.0863 685.49 92.613 685.49C93.133 685.49 93.5796 685.607 93.953 685.84C94.3263 686.067 94.6096 686.383 94.803 686.79C95.003 687.19 95.103 687.653 95.103 688.18C95.103 688.307 95.0596 688.413 94.973 688.5C94.8863 688.58 94.7763 688.62 94.643 688.62H90.613V687.82H94.613L94.203 688.1C94.1963 687.767 94.1296 687.47 94.003 687.21C93.8763 686.943 93.6963 686.733 93.463 686.58C93.2296 686.427 92.9463 686.35 92.613 686.35C92.233 686.35 91.9063 686.433 91.633 686.6C91.3663 686.767 91.163 686.997 91.023 687.29C90.883 687.577 90.813 687.903 90.813 688.27C90.813 688.637 90.8963 688.963 91.063 689.25C91.2296 689.537 91.4596 689.763 91.753 689.93C92.0463 690.097 92.383 690.18 92.763 690.18C92.9696 690.18 93.1796 690.143 93.393 690.07C93.613 689.99 93.7896 689.9 93.923 689.8C94.023 689.727 94.1296 689.69 94.243 689.69C94.363 689.683 94.4663 689.717 94.553 689.79C94.6663 689.89 94.7263 690 94.733 690.12C94.7396 690.24 94.6863 690.343 94.573 690.43C94.3463 690.61 94.063 690.757 93.723 690.87C93.3896 690.983 93.0696 691.04 92.763 691.04ZM101.024 691.01C100.877 691.01 100.754 690.963 100.654 690.87C100.561 690.77 100.514 690.647 100.514 690.5V688.04C100.514 687.66 100.444 687.35 100.304 687.11C100.164 686.87 99.9739 686.693 99.7339 686.58C99.5006 686.46 99.2306 686.4 98.9239 686.4C98.6439 686.4 98.3906 686.457 98.1639 686.57C97.9372 686.683 97.7572 686.837 97.6239 687.03C97.4906 687.217 97.4239 687.433 97.4239 687.68H96.7939C96.7939 687.26 96.8939 686.887 97.0939 686.56C97.3006 686.227 97.5806 685.963 97.9339 685.77C98.2872 685.577 98.6839 685.48 99.1239 685.48C99.5839 685.48 99.9939 685.58 100.354 685.78C100.721 685.973 101.007 686.26 101.214 686.64C101.427 687.02 101.534 687.487 101.534 688.04V690.5C101.534 690.647 101.484 690.77 101.384 690.87C101.291 690.963 101.171 691.01 101.024 691.01ZM96.9139 691.01C96.7672 691.01 96.6439 690.963 96.5439 690.87C96.4506 690.77 96.4039 690.647 96.4039 690.5V686.04C96.4039 685.887 96.4506 685.763 96.5439 685.67C96.6439 685.577 96.7672 685.53 96.9139 685.53C97.0672 685.53 97.1906 685.577 97.2839 685.67C97.3772 685.763 97.4239 685.887 97.4239 686.04V690.5C97.4239 690.647 97.3772 690.77 97.2839 690.87C97.1906 690.963 97.0672 691.01 96.9139 691.01ZM105.21 691C104.877 691 104.577 690.917 104.31 690.75C104.044 690.577 103.834 690.343 103.68 690.05C103.527 689.757 103.45 689.427 103.45 689.06V684.29C103.45 684.143 103.497 684.023 103.59 683.93C103.684 683.837 103.804 683.79 103.95 683.79C104.097 683.79 104.217 683.837 104.31 683.93C104.404 684.023 104.45 684.143 104.45 684.29V689.06C104.45 689.327 104.524 689.55 104.67 689.73C104.817 689.91 104.997 690 105.21 690H105.55C105.67 690 105.77 690.047 105.85 690.14C105.937 690.233 105.98 690.353 105.98 690.5C105.98 690.647 105.924 690.767 105.81 690.86C105.704 690.953 105.564 691 105.39 691H105.21ZM102.99 686.59C102.85 686.59 102.737 686.55 102.65 686.47C102.564 686.39 102.52 686.29 102.52 686.17C102.52 686.037 102.564 685.93 102.65 685.85C102.737 685.77 102.85 685.73 102.99 685.73H105.3C105.44 685.73 105.554 685.77 105.64 685.85C105.727 685.93 105.77 686.037 105.77 686.17C105.77 686.29 105.727 686.39 105.64 686.47C105.554 686.55 105.44 686.59 105.3 686.59H102.99ZM107.844 691C107.697 691 107.574 690.953 107.474 690.86C107.381 690.76 107.334 690.637 107.334 690.49V686.04C107.334 685.887 107.381 685.763 107.474 685.67C107.574 685.577 107.697 685.53 107.844 685.53C107.997 685.53 108.121 685.577 108.214 685.67C108.307 685.763 108.354 685.887 108.354 686.04V690.49C108.354 690.637 108.307 690.76 108.214 690.86C108.121 690.953 107.997 691 107.844 691ZM107.844 684.64C107.664 684.64 107.507 684.577 107.374 684.45C107.247 684.317 107.184 684.16 107.184 683.98C107.184 683.8 107.247 683.647 107.374 683.52C107.507 683.387 107.664 683.32 107.844 683.32C108.024 683.32 108.177 683.387 108.304 683.52C108.437 683.647 108.504 683.8 108.504 683.98C108.504 684.16 108.437 684.317 108.304 684.45C108.177 684.577 108.024 684.64 107.844 684.64ZM112.732 691.04C112.192 691.04 111.715 690.923 111.302 690.69C110.888 690.45 110.562 690.123 110.322 689.71C110.088 689.29 109.972 688.81 109.972 688.27C109.972 687.723 110.088 687.243 110.322 686.83C110.562 686.41 110.888 686.083 111.302 685.85C111.715 685.61 112.192 685.49 112.732 685.49C113.265 685.49 113.738 685.61 114.152 685.85C114.565 686.083 114.888 686.41 115.122 686.83C115.362 687.243 115.482 687.723 115.482 688.27C115.482 688.81 115.365 689.29 115.132 689.71C114.898 690.123 114.575 690.45 114.162 690.69C113.748 690.923 113.272 691.04 112.732 691.04ZM112.732 690.14C113.078 690.14 113.385 690.06 113.652 689.9C113.918 689.74 114.125 689.52 114.272 689.24C114.425 688.96 114.502 688.637 114.502 688.27C114.502 687.903 114.425 687.58 114.272 687.3C114.125 687.013 113.918 686.79 113.652 686.63C113.385 686.47 113.078 686.39 112.732 686.39C112.385 686.39 112.078 686.47 111.812 686.63C111.545 686.79 111.335 687.013 111.182 687.3C111.028 687.58 110.952 687.903 110.952 688.27C110.952 688.637 111.028 688.96 111.182 689.24C111.335 689.52 111.545 689.74 111.812 689.9C112.078 690.06 112.385 690.14 112.732 690.14ZM121.62 691.01C121.473 691.01 121.35 690.963 121.25 690.87C121.156 690.77 121.11 690.647 121.11 690.5V688.04C121.11 687.66 121.04 687.35 120.9 687.11C120.76 686.87 120.57 686.693 120.33 686.58C120.096 686.46 119.826 686.4 119.52 686.4C119.24 686.4 118.986 686.457 118.76 686.57C118.533 686.683 118.353 686.837 118.22 687.03C118.086 687.217 118.02 687.433 118.02 687.68H117.39C117.39 687.26 117.49 686.887 117.69 686.56C117.896 686.227 118.176 685.963 118.53 685.77C118.883 685.577 119.28 685.48 119.72 685.48C120.18 685.48 120.59 685.58 120.95 685.78C121.316 685.973 121.603 686.26 121.81 686.64C122.023 687.02 122.13 687.487 122.13 688.04V690.5C122.13 690.647 122.08 690.77 121.98 690.87C121.886 690.963 121.766 691.01 121.62 691.01ZM117.51 691.01C117.363 691.01 117.24 690.963 117.14 690.87C117.046 690.77 117 690.647 117 690.5V686.04C117 685.887 117.046 685.763 117.14 685.67C117.24 685.577 117.363 685.53 117.51 685.53C117.663 685.53 117.786 685.577 117.88 685.67C117.973 685.763 118.02 685.887 118.02 686.04V690.5C118.02 690.647 117.973 690.77 117.88 690.87C117.786 690.963 117.663 691.01 117.51 691.01ZM125.806 691.04C125.339 691.04 124.906 690.97 124.506 690.83C124.113 690.683 123.806 690.5 123.586 690.28C123.486 690.173 123.443 690.053 123.456 689.92C123.476 689.78 123.543 689.667 123.656 689.58C123.789 689.473 123.919 689.43 124.046 689.45C124.179 689.463 124.293 689.52 124.386 689.62C124.499 689.747 124.679 689.867 124.926 689.98C125.179 690.087 125.459 690.14 125.766 690.14C126.153 690.14 126.446 690.077 126.646 689.95C126.853 689.823 126.959 689.66 126.966 689.46C126.973 689.26 126.876 689.087 126.676 688.94C126.483 688.793 126.126 688.673 125.606 688.58C124.933 688.447 124.443 688.247 124.136 687.98C123.836 687.713 123.686 687.387 123.686 687C123.686 686.66 123.786 686.38 123.986 686.16C124.186 685.933 124.443 685.767 124.756 685.66C125.069 685.547 125.396 685.49 125.736 685.49C126.176 685.49 126.566 685.56 126.906 685.7C127.246 685.84 127.516 686.033 127.716 686.28C127.809 686.387 127.853 686.5 127.846 686.62C127.839 686.733 127.783 686.83 127.676 686.91C127.569 686.983 127.443 687.007 127.296 686.98C127.149 686.953 127.026 686.893 126.926 686.8C126.759 686.64 126.579 686.53 126.386 686.47C126.193 686.41 125.969 686.38 125.716 686.38C125.423 686.38 125.173 686.43 124.966 686.53C124.766 686.63 124.666 686.777 124.666 686.97C124.666 687.09 124.696 687.2 124.756 687.3C124.823 687.393 124.949 687.48 125.136 687.56C125.323 687.633 125.596 687.707 125.956 687.78C126.456 687.88 126.849 688.007 127.136 688.16C127.429 688.313 127.639 688.493 127.766 688.7C127.893 688.9 127.956 689.133 127.956 689.4C127.956 689.707 127.873 689.983 127.706 690.23C127.546 690.477 127.306 690.673 126.986 690.82C126.673 690.967 126.279 691.04 125.806 691.04Z" fill="#0A0A0A"/>
<path d="M468.16 691C468.013 691 467.89 690.95 467.79 690.85C467.697 690.75 467.65 690.63 467.65 690.49C467.65 690.343 467.697 690.223 467.79 690.13L470.63 686.81C470.83 686.577 470.983 686.357 471.09 686.15C471.203 685.943 471.26 685.747 471.26 685.56C471.26 685.267 471.21 685.013 471.11 684.8C471.01 684.587 470.867 684.423 470.68 684.31C470.493 684.19 470.27 684.13 470.01 684.13C469.757 684.13 469.527 684.197 469.32 684.33C469.12 684.457 468.96 684.63 468.84 684.85C468.727 685.063 468.67 685.3 468.67 685.56C468.67 685.693 468.62 685.81 468.52 685.91C468.427 686.01 468.307 686.06 468.16 686.06C468.02 686.06 467.9 686.01 467.8 685.91C467.7 685.81 467.65 685.693 467.65 685.56C467.65 685.107 467.753 684.703 467.96 684.35C468.167 683.99 468.447 683.707 468.8 683.5C469.16 683.293 469.563 683.19 470.01 683.19C470.463 683.19 470.857 683.287 471.19 683.48C471.523 683.673 471.78 683.947 471.96 684.3C472.147 684.653 472.24 685.073 472.24 685.56C472.24 685.773 472.193 685.99 472.1 686.21C472.013 686.43 471.9 686.64 471.76 686.84C471.627 687.04 471.49 687.22 471.35 687.38L469.06 689.98H471.86C472.007 689.98 472.13 690.033 472.23 690.14C472.33 690.24 472.38 690.357 472.38 690.49C472.38 690.63 472.33 690.75 472.23 690.85C472.13 690.95 472.007 691 471.86 691H468.16ZM475.769 691C475.262 691 474.829 690.847 474.469 690.54C474.116 690.227 473.846 689.78 473.659 689.2C473.472 688.613 473.379 687.91 473.379 687.09C473.379 686.27 473.472 685.57 473.659 684.99C473.846 684.403 474.116 683.957 474.469 683.65C474.829 683.337 475.262 683.18 475.769 683.18C476.276 683.18 476.706 683.34 477.059 683.66C477.419 683.973 477.692 684.423 477.879 685.01C478.066 685.59 478.159 686.283 478.159 687.09C478.159 687.897 478.066 688.593 477.879 689.18C477.692 689.76 477.419 690.21 477.059 690.53C476.706 690.843 476.276 691 475.769 691ZM475.769 689.96C476.076 689.96 476.329 689.837 476.529 689.59C476.729 689.337 476.879 688.993 476.979 688.56C477.079 688.127 477.129 687.637 477.129 687.09C477.129 686.543 477.079 686.053 476.979 685.62C476.879 685.187 476.729 684.843 476.529 684.59C476.329 684.337 476.076 684.21 475.769 684.21C475.462 684.21 475.209 684.337 475.009 684.59C474.809 684.837 474.659 685.177 474.559 685.61C474.459 686.043 474.409 686.537 474.409 687.09C474.409 687.643 474.459 688.137 474.559 688.57C474.659 689.003 474.809 689.343 475.009 689.59C475.216 689.837 475.469 689.96 475.769 689.96ZM479.82 691C479.673 691 479.55 690.95 479.45 690.85C479.357 690.75 479.31 690.63 479.31 690.49C479.31 690.343 479.357 690.223 479.45 690.13L482.29 686.81C482.49 686.577 482.643 686.357 482.75 686.15C482.863 685.943 482.92 685.747 482.92 685.56C482.92 685.267 482.87 685.013 482.77 684.8C482.67 684.587 482.527 684.423 482.34 684.31C482.153 684.19 481.93 684.13 481.67 684.13C481.417 684.13 481.187 684.197 480.98 684.33C480.78 684.457 480.62 684.63 480.5 684.85C480.387 685.063 480.33 685.3 480.33 685.56C480.33 685.693 480.28 685.81 480.18 685.91C480.087 686.01 479.967 686.06 479.82 686.06C479.68 686.06 479.56 686.01 479.46 685.91C479.36 685.81 479.31 685.693 479.31 685.56C479.31 685.107 479.413 684.703 479.62 684.35C479.827 683.99 480.107 683.707 480.46 683.5C480.82 683.293 481.223 683.19 481.67 683.19C482.123 683.19 482.517 683.287 482.85 683.48C483.183 683.673 483.44 683.947 483.62 684.3C483.807 684.653 483.9 685.073 483.9 685.56C483.9 685.773 483.853 685.99 483.76 686.21C483.673 686.43 483.56 686.64 483.42 686.84C483.287 687.04 483.15 687.22 483.01 687.38L480.72 689.98H483.52C483.667 689.98 483.79 690.033 483.89 690.14C483.99 690.24 484.04 690.357 484.04 690.49C484.04 690.63 483.99 690.75 483.89 690.85C483.79 690.95 483.667 691 483.52 691H479.82ZM487.659 691C487.159 691 486.716 690.897 486.329 690.69C485.942 690.477 485.639 690.19 485.419 689.83C485.199 689.463 485.089 689.053 485.089 688.6C485.089 688.447 485.132 688.323 485.219 688.23C485.312 688.13 485.422 688.08 485.549 688.08C485.682 688.08 485.792 688.13 485.879 688.23C485.966 688.323 486.009 688.447 486.009 688.6C486.009 688.873 486.079 689.127 486.219 689.36C486.359 689.587 486.549 689.77 486.789 689.91C487.029 690.043 487.299 690.11 487.599 690.11C488.039 690.11 488.392 689.99 488.659 689.75C488.932 689.503 489.069 689.16 489.069 688.72C489.069 688.44 489.009 688.19 488.889 687.97C488.769 687.743 488.606 687.563 488.399 687.43C488.192 687.297 487.959 687.23 487.699 687.23C487.552 687.23 487.429 687.18 487.329 687.08C487.236 686.98 487.189 686.857 487.189 686.71C487.189 686.563 487.236 686.443 487.329 686.35C487.429 686.25 487.552 686.2 487.699 686.2C487.886 686.2 488.066 686.153 488.239 686.06C488.412 685.96 488.556 685.83 488.669 685.67C488.782 685.503 488.839 685.317 488.839 685.11C488.839 684.817 488.732 684.57 488.519 684.37C488.306 684.17 488.032 684.07 487.699 684.07C487.446 684.07 487.212 684.12 486.999 684.22C486.792 684.32 486.626 684.453 486.499 684.62C486.379 684.787 486.319 684.973 486.319 685.18C486.319 685.333 486.276 685.463 486.189 685.57C486.102 685.67 485.992 685.72 485.859 685.72C485.732 685.72 485.622 685.673 485.529 685.58C485.442 685.48 485.399 685.357 485.399 685.21C485.399 684.823 485.499 684.477 485.699 684.17C485.899 683.863 486.172 683.623 486.519 683.45C486.866 683.27 487.252 683.18 487.679 683.18C488.072 683.18 488.426 683.267 488.739 683.44C489.059 683.607 489.309 683.837 489.489 684.13C489.676 684.417 489.769 684.743 489.769 685.11C489.769 685.37 489.709 685.6 489.589 685.8C489.476 686 489.329 686.173 489.149 686.32C488.969 686.46 488.779 686.577 488.579 686.67C488.932 686.79 489.219 686.953 489.439 687.16C489.659 687.36 489.819 687.593 489.919 687.86C490.026 688.127 490.079 688.417 490.079 688.73C490.079 689.163 489.969 689.553 489.749 689.9C489.529 690.24 489.236 690.51 488.869 690.71C488.502 690.903 488.099 691 487.659 691Z" fill="#0A0A0A"/>
</g>
<defs>
<clipPath id="clip0_4198_504">
<rect width="537" height="716" fill="white"/>
</clipPath>
<clipPath id="clip1_4198_504">
<rect width="20" height="16" fill="white" transform="translate(24 24)"/>
</clipPath>
</defs>
</svg>
