<svg xmlns="http://www.w3.org/2000/svg" width="30.001" height="30.001" viewBox="0 0 30.001 30.001">
  <g id="facebook" transform="translate(-1030 -3884)">
    <path id="Subtraction_1" data-name="Subtraction 1" d="M910-1065a14.9,14.9,0,0,1-10.607-4.393A14.9,14.9,0,0,1,895-1080a14.9,14.9,0,0,1,4.393-10.607A14.9,14.9,0,0,1,910-1095a14.9,14.9,0,0,1,10.607,4.393A14.9,14.9,0,0,1,925-1080a14.9,14.9,0,0,1-4.393,10.607A14.9,14.9,0,0,1,910-1065Zm-1.66-15.633v7.357h2.678v-7.358h2.011l.4-2.3h-2.41v-1.666c0-.531.339-1.1.844-1.1h1.368v-2.3h-1.676v.01a3.232,3.232,0,0,0-2.572,1.045,3.513,3.513,0,0,0-.638,2.167v1.846H907v2.3Z" transform="translate(135 4979)" fill="#fff"/>
  </g>
</svg>
