<svg xmlns="http://www.w3.org/2000/svg" width="157.579" height="156.097" viewBox="0 0 157.579 156.097">
  <g id="flexibility" transform="translate(-309.626 -25.679)">
    <path id="Path_35760" data-name="Path 35760" d="M442.2,103.809c-4.719-1.719-6.655-7.78-5.341-12.628s5-8.657,8.763-11.985,7.824-6.512,10.337-10.86c4.08-7.059,3.251-16.273-.808-23.345S444.22,32.808,436.809,29.41l4.383,14.268" transform="translate(-54.254 -0.053)" fill="none" stroke="#231f20" stroke-linecap="round" stroke-miterlimit="10" stroke-width="4"/>
    <path id="Path_35761" data-name="Path 35761" d="M437.311,29.289l16.286.435" transform="translate(-54.631)" fill="none" stroke="#231f20" stroke-linecap="round" stroke-miterlimit="10" stroke-width="3"/>
    <path id="Path_35762" data-name="Path 35762" d="M447.574,118.57c-2.121-4.553.8-10.207,5.153-12.706s9.658-2.585,14.671-2.279,10.137.928,14.989-.37c7.877-2.107,13.806-9.208,15.937-17.078s.886-16.344-1.952-23.988l-6.989,13.189" transform="translate(-58.838 -14.468)" fill="none" stroke="#231f20" stroke-miterlimit="10" stroke-width="4"/>
    <path id="Path_35763" data-name="Path 35763" d="M535.56,62.224l11.208,11.822" transform="translate(-97.89 -14.501)" fill="none" stroke="#231f20" stroke-miterlimit="10" stroke-width="4"/>
    <path id="Path_35764" data-name="Path 35764" d="M448.83,158.283c1.719-4.719,7.78-6.655,12.628-5.341s8.657,5,11.985,8.763,6.512,7.824,10.86,10.337c7.06,4.08,16.274,3.251,23.345-.807s12.184-10.931,15.582-18.342l-14.268,4.384" transform="translate(-59.702 -54.267)" fill="none" stroke="#231f20" stroke-miterlimit="10" stroke-width="4"/>
    <path id="Path_35765" data-name="Path 35765" d="M581.537,153.394,581.1,169.68" transform="translate(-117.943 -54.644)" fill="none" stroke="#231f20" stroke-miterlimit="10" stroke-width="4"/>
    <g id="Group_1227" data-name="Group 1227" transform="translate(326.946 102.676)">
      <path id="Path_35766" data-name="Path 35766" d="M447.007,161.116c4.552-2.122,10.207.8,12.706,5.152s2.585,9.658,2.279,14.671-.928,10.137.37,14.988c2.107,7.877,9.209,13.806,17.079,15.937s16.344.886,23.988-1.952l-13.188-6.989" transform="translate(-385.846 -160.408)" fill="none" stroke="#231f20" stroke-linecap="round" stroke-miterlimit="10" stroke-width="4"/>
      <path id="Path_35767" data-name="Path 35767" d="M538.437,249.1,526.614,260.31" transform="translate(-420.897 -199.46)" fill="none" stroke="#231f20" stroke-linecap="round" stroke-miterlimit="10" stroke-width="4"/>
      <path id="Path_35768" data-name="Path 35768" d="M432.64,162.236c4.719,1.719,6.655,7.78,5.341,12.628s-5,8.657-8.763,11.985-7.824,6.512-10.337,10.86c-4.08,7.059-3.251,16.274.808,23.346s10.93,12.183,18.342,15.581l-4.384-14.268" transform="translate(-372.283 -161.213)" fill="none" stroke="#231f20" stroke-miterlimit="10" stroke-width="4"/>
      <path id="Path_35769" data-name="Path 35769" d="M442.166,294.943l-16.286-.434" transform="translate(-376.544 -219.453)" fill="none" stroke="#231f20" stroke-miterlimit="10" stroke-width="4"/>
      <path id="Path_35770" data-name="Path 35770" d="M404.419,162.839c2.122,4.553-.8,10.207-5.153,12.706s-9.658,2.585-14.671,2.278-10.137-.927-14.989.371c-7.876,2.107-13.806,9.208-15.937,17.078s-.885,16.344,1.952,23.988l6.99-13.189" transform="translate(-344.277 -161.478)" fill="none" stroke="#231f20" stroke-miterlimit="10" stroke-width="4"/>
      <path id="Path_35771" data-name="Path 35771" d="M348.94,254.269l-11.208-11.823" transform="translate(-337.732 -196.529)" fill="none" stroke="#231f20" stroke-miterlimit="10" stroke-width="4"/>
    </g>
    <g id="Group_1228" data-name="Group 1228" transform="translate(313.236 44.222)">
      <path id="Path_35772" data-name="Path 35772" d="M387.756,151.906c-1.719,4.719-7.78,6.655-12.627,5.341s-8.657-5-11.985-8.763-6.512-7.824-10.86-10.337c-7.059-4.08-16.273-3.251-23.345.807s-12.183,10.931-15.581,18.342l14.268-4.384" transform="translate(-313.289 -90.973)" fill="none" stroke="#231f20" stroke-linecap="round" stroke-miterlimit="10" stroke-width="4"/>
      <path id="Path_35773" data-name="Path 35773" d="M313.236,161.432l.435-16.286" transform="translate(-313.236 -95.234)" fill="none" stroke="#231f20" stroke-linecap="round" stroke-miterlimit="10" stroke-width="4"/>
      <path id="Path_35774" data-name="Path 35774" d="M402.517,122.656c-4.553,2.121-10.207-.8-12.706-5.153s-2.585-9.658-2.279-14.671.928-10.137-.37-14.989c-2.107-7.876-9.208-13.805-17.078-15.937s-16.344-.885-23.988,1.952l13.189,6.99" transform="translate(-327.704 -62.514)" fill="none" stroke="#231f20" stroke-miterlimit="10" stroke-width="4"/>
      <path id="Path_35775" data-name="Path 35775" d="M346.171,67.178l11.823-11.209" transform="translate(-327.737 -55.969)" fill="none" stroke="#231f20" stroke-miterlimit="10" stroke-width="4"/>
    </g>
    <circle id="Ellipse_178" data-name="Ellipse 178" cx="11.649" cy="11.649" r="11.649" transform="translate(375.295 94.186)" fill="#fff" stroke="#231f20" stroke-miterlimit="10" stroke-width="4"/>
  </g>
</svg>
