<svg id="flexibility" xmlns="http://www.w3.org/2000/svg" xmlns:xlink="http://www.w3.org/1999/xlink" width="142.811" height="141.438" viewBox="0 0 142.811 141.438">
  <defs>
    <clipPath id="clip-path">
      <rect id="Rectangle_1158" data-name="Rectangle 1158" width="142.811" height="141.437" fill="none"/>
    </clipPath>
  </defs>
  <g id="Group_2375" data-name="Group 2375">
    <path id="Path_36329" data-name="Path 36329" d="M98.668,33.193a49.5,49.5,0,1,1-49.5,49.5,49.5,49.5,0,0,1,49.5-49.5" transform="translate(-26.19 -13.32)" fill="#f7931e"/>
    <path id="Path_36330" data-name="Path 36330" d="M82.735,69.117c-4.452-1.721-4.769-7.853-3.051-11.564,2.53-5.469,7.877-8.881,12.075-12.946a25.07,25.07,0,0,0,5.464-7.226,21.68,21.68,0,0,0,2-8.772,26.52,26.52,0,0,0-5.684-16.533A40.711,40.711,0,0,0,78.147.319a1.734,1.734,0,0,0-2.514,1.932L79.7,15.479c.645,2.1,3.95,1.2,3.3-.91Q80.965,7.955,78.933,1.343L76.419,3.275C86.736,8.046,96.4,17.012,95.778,29.292a17.242,17.242,0,0,1-2.5,8.187,31.356,31.356,0,0,1-6.2,6.775c-4.473,3.95-9.421,7.936-11.263,13.863-1.7,5.457.417,12.141,6,14.3a1.725,1.725,0,0,0,2.106-1.2,1.751,1.751,0,0,0-1.2-2.106" transform="translate(-11.311 -0.022)" fill="#0a0a0a"/>
    <path id="Path_36331" data-name="Path 36331" d="M77.488,3.424l15.1.4c2.2.059,2.2-3.364,0-3.423L77.488,0c-2.2-.059-2.2,3.364,0,3.423" transform="translate(-11.399 0)" fill="#0a0a0a"/>
    <path id="Path_36332" data-name="Path 36332" d="M85.458,73.22c-.919-2.089-.257-4.486.911-6.324A10.429,10.429,0,0,1,92.3,62.635c5.99-1.824,12.337-.2,18.453-.351a21.865,21.865,0,0,0,15.124-6.131,26.146,26.146,0,0,0,7.3-13.921c1.289-7.03.125-14.253-2.316-20.906-.475-1.291-2.388-1.8-3.129-.409q-3.239,6.114-6.479,12.226c-1.03,1.946,1.923,3.677,2.957,1.727q3.239-6.113,6.479-12.225l-3.129-.41c3.926,10.7,4.378,23.925-4.784,32.13a17.211,17.211,0,0,1-6.388,3.663,27.519,27.519,0,0,1-9.635.743c-6.021-.336-12.276-1.128-17.919,1.56C83.5,62.876,80,69.263,82.5,74.948a1.723,1.723,0,0,0,2.341.614,1.756,1.756,0,0,0,.615-2.342" transform="translate(-12.277 -3.019)" fill="#0a0a0a"/>
    <path id="Path_36333" data-name="Path 36333" d="M136.263,23.036,146.654,34a1.711,1.711,0,1,0,2.42-2.42l-10.39-10.961a1.712,1.712,0,0,0-2.421,2.421" transform="translate(-20.408 -3.025)" fill="#0a0a0a"/>
    <path id="Path_36334" data-name="Path 36334" d="M86.157,82.754C87.879,78.3,94.01,77.985,97.721,79.7c5.469,2.53,8.881,7.877,12.946,12.075a25.07,25.07,0,0,0,7.226,5.463,21.68,21.68,0,0,0,8.772,2A26.52,26.52,0,0,0,143.2,93.56a40.711,40.711,0,0,0,11.756-15.394,1.734,1.734,0,0,0-1.932-2.514L139.8,79.715c-2.1.645-1.2,3.95.91,3.3l13.226-4.064L152,76.438c-4.771,10.318-13.738,19.98-26.017,19.359a17.242,17.242,0,0,1-8.187-2.5,31.356,31.356,0,0,1-6.775-6.2c-3.95-4.473-7.936-9.421-13.863-11.263-5.457-1.7-12.141.417-14.3,6a1.725,1.725,0,0,0,1.2,2.106,1.751,1.751,0,0,0,2.106-1.2" transform="translate(-12.441 -11.314)" fill="#0a0a0a"/>
    <path id="Path_36335" data-name="Path 36335" d="M163.974,77.507l-.4,15.1c-.059,2.2,3.364,2.2,3.423,0l.4-15.1c.059-2.2-3.364-2.2-3.423,0" transform="translate(-24.586 -11.402)" fill="#0a0a0a"/>
    <path id="Path_36336" data-name="Path 36336" d="M84.264,83.924c2.089-.919,4.486-.257,6.324.911a10.432,10.432,0,0,1,4.261,5.933c1.824,5.991.2,12.338.351,18.454a21.863,21.863,0,0,0,6.131,15.124,26.147,26.147,0,0,0,13.921,7.3c7.03,1.289,14.253.125,20.906-2.317,1.291-.474,1.8-2.388.409-3.129l-12.226-6.479c-1.946-1.031-3.677,1.923-1.727,2.956l12.225,6.479.41-3.129c-10.7,3.926-23.925,4.378-32.13-4.784a17.215,17.215,0,0,1-3.663-6.389,27.518,27.518,0,0,1-.743-9.635c.336-6.02,1.128-12.275-1.56-17.918-2.544-5.341-8.931-8.841-14.616-6.337a1.723,1.723,0,0,0-.614,2.341,1.755,1.755,0,0,0,2.342.614" transform="translate(-12.281 -12.046)" fill="#0a0a0a"/>
    <path id="Path_36337" data-name="Path 36337" d="M141.761,134.73,130.8,145.121a1.711,1.711,0,0,0,2.42,2.42l10.961-10.39a1.712,1.712,0,1,0-2.421-2.421" transform="translate(-19.587 -20.178)" fill="#0a0a0a"/>
    <path id="Path_36338" data-name="Path 36338" d="M79.37,84.541c4.452,1.721,4.769,7.853,3.051,11.564-2.53,5.469-7.877,8.881-12.075,12.946a25.07,25.07,0,0,0-5.463,7.226,21.68,21.68,0,0,0-2,8.772,26.52,26.52,0,0,0,5.684,16.533,40.711,40.711,0,0,0,15.394,11.756,1.734,1.734,0,0,0,2.514-1.932L82.41,138.179c-.645-2.1-3.95-1.2-3.3.91q2.032,6.614,4.064,13.226l2.514-1.932c-10.318-4.771-19.98-13.738-19.359-26.017a17.242,17.242,0,0,1,2.5-8.187,31.356,31.356,0,0,1,6.2-6.775c4.473-3.95,9.421-7.936,11.263-13.863,1.7-5.457-.417-12.141-6-14.3a1.725,1.725,0,0,0-2.106,1.2,1.751,1.751,0,0,0,1.2,2.106" transform="translate(-9.451 -12.199)" fill="#0a0a0a"/>
    <path id="Path_36339" data-name="Path 36339" d="M85.605,162.358l-15.1-.4c-2.2-.059-2.2,3.364,0,3.423l15.1.4c2.2.059,2.2-3.364,0-3.423" transform="translate(-10.35 -24.344)" fill="#0a0a0a"/>
    <path id="Path_36340" data-name="Path 36340" d="M72.313,84.13c.919,2.089.257,4.486-.911,6.324a10.432,10.432,0,0,1-5.933,4.261c-5.991,1.824-12.338.2-18.454.351A21.863,21.863,0,0,0,31.892,101.2a26.147,26.147,0,0,0-7.3,13.921c-1.289,7.03-.125,14.253,2.317,20.906.474,1.291,2.388,1.8,3.129.409q3.239-6.114,6.479-12.226c1.031-1.946-1.923-3.677-2.956-1.727q-3.239,6.113-6.479,12.225l3.129.41c-3.926-10.7-4.378-23.925,4.784-32.13a17.215,17.215,0,0,1,6.389-3.663,27.518,27.518,0,0,1,9.635-.743c6.02.336,12.275,1.128,17.918-1.56,5.341-2.544,8.841-8.931,6.337-14.615a1.723,1.723,0,0,0-2.341-.614,1.755,1.755,0,0,0-.614,2.342" transform="translate(-3.616 -12.261)" fill="#0a0a0a"/>
    <path id="Path_36341" data-name="Path 36341" d="M28.273,141.626l-10.391-10.96a1.711,1.711,0,1,0-2.42,2.42l10.39,10.961a1.712,1.712,0,0,0,2.421-2.421" transform="translate(-2.25 -19.567)" fill="#0a0a0a"/>
    <path id="Path_36342" data-name="Path 36342" d="M69.117,81.333C67.4,85.786,61.264,86.1,57.553,84.384c-5.469-2.53-8.881-7.877-12.946-12.075a25.07,25.07,0,0,0-7.226-5.464,21.68,21.68,0,0,0-8.772-2,26.52,26.52,0,0,0-16.533,5.684A40.711,40.711,0,0,0,.319,85.921a1.734,1.734,0,0,0,1.932,2.514l13.227-4.063c2.1-.645,1.2-3.95-.91-3.3L1.343,85.136,3.275,87.65C8.046,77.332,17.012,67.67,29.292,68.29a17.242,17.242,0,0,1,8.187,2.5,31.356,31.356,0,0,1,6.775,6.2C48.2,81.456,52.19,86.4,58.117,88.246c5.457,1.7,12.141-.417,14.3-6a1.725,1.725,0,0,0-1.2-2.106,1.751,1.751,0,0,0-2.106,1.2" transform="translate(-0.022 -9.746)" fill="#0a0a0a"/>
    <path id="Path_36343" data-name="Path 36343" d="M3.423,87.567l.4-15.1c.059-2.2-3.364-2.2-3.423,0L0,87.567c-.059,2.2,3.364,2.2,3.423,0" transform="translate(0 -10.645)" fill="#0a0a0a"/>
    <path id="Path_36344" data-name="Path 36344" d="M73.22,73.646c-2.089.919-4.486.257-6.324-.911A10.429,10.429,0,0,1,62.635,66.8c-1.824-5.991-.2-12.338-.351-18.454a21.863,21.863,0,0,0-6.131-15.124,26.146,26.146,0,0,0-13.921-7.3c-7.03-1.289-14.253-.126-20.906,2.316-1.291.475-1.8,2.388-.409,3.129l12.226,6.479c1.946,1.031,3.677-1.923,1.727-2.956q-6.113-3.239-12.225-6.479-.205,1.565-.41,3.129c10.7-3.926,23.925-4.377,32.13,4.784a17.2,17.2,0,0,1,3.663,6.388,27.517,27.517,0,0,1,.743,9.635c-.336,6.021-1.128,12.276,1.56,17.918,2.544,5.342,8.931,8.841,14.615,6.337a1.722,1.722,0,0,0,.614-2.34,1.755,1.755,0,0,0-2.342-.615" transform="translate(-3.019 -3.816)" fill="#0a0a0a"/>
    <path id="Path_36345" data-name="Path 36345" d="M23.035,29.607l10.96-10.391a1.711,1.711,0,0,0-2.42-2.42L20.614,27.186a1.712,1.712,0,1,0,2.421,2.421" transform="translate(-3.025 -2.451)" fill="#0a0a0a"/>
    <path id="Path_36346" data-name="Path 36346" d="M91.321,83.618a10.8,10.8,0,1,1-10.8-10.8,10.8,10.8,0,0,1,10.8,10.8" transform="translate(-10.48 -10.945)" fill="#fff"/>
    <path id="Path_36347" data-name="Path 36347" d="M91.321,83.618a10.8,10.8,0,1,1-10.8-10.8A10.8,10.8,0,0,1,91.321,83.618Z" transform="translate(-10.48 -10.945)" fill="none" stroke="#0a0a0a" stroke-width="3"/>
  </g>
</svg>
