<svg xmlns="http://www.w3.org/2000/svg" width="30.924" height="30.9" viewBox="0 0 30.924 30.9"><defs><style>.a{fill-rule:evenodd;}</style></defs><g transform="translate(0 0)"><path class="a" d="M15.506,0A15.608,15.608,0,0,0,.184,13.3,15.872,15.872,0,0,0,10.6,30.874c.781.146,1.057-.35,1.057-.768V27.412c-4.331.963-5.245-2.13-5.245-2.13a4.231,4.231,0,0,0-1.723-2.324c-1.4-.972.114-.972.114-.972A3.264,3.264,0,0,1,7.176,23.62a3.327,3.327,0,0,0,1.992,1.615,3.251,3.251,0,0,0,2.524-.3,3.4,3.4,0,0,1,.952-2.12c-3.446-.4-7.064-1.76-7.064-7.779A6.2,6.2,0,0,1,7.17,10.79,5.892,5.892,0,0,1,7.32,6.6s1.3-.427,4.264,1.624a14.371,14.371,0,0,1,7.767,0C22.311,6.175,23.606,6.6,23.606,6.6a5.862,5.862,0,0,1,.191,4.162,6.2,6.2,0,0,1,1.589,4.25c0,6.087-3.627,7.416-7.082,7.779a3.79,3.79,0,0,1,1.061,2.917v4.347c0,.515.276.914,1.066.758A15.877,15.877,0,0,0,30.678,13.287,15.613,15.613,0,0,0,15.506,0Z" transform="translate(0.03 0)"/></g></svg>