<svg xmlns="http://www.w3.org/2000/svg" width="131.5" height="133.836" viewBox="0 0 131.5 133.836">
  <g id="Ideation" transform="translate(-64.333 -5816.164)">
    <circle id="Ellipse_226" data-name="Ellipse 226" cx="49.5" cy="49.5" r="49.5" transform="translate(96.833 5851)" fill="#f7931e"/>
    <g id="Group_748" data-name="Group 748" transform="translate(479.489 5816.164)">
      <g id="ideation_icon" transform="translate(-415.156)">
        <path id="Path_35260" data-name="Path 35260" d="M407.49,545.192H401.44a29.262,29.262,0,0,0-2.366-5.721l4.274-4.275a3.52,3.52,0,0,0,0-4.978h0l-6.844-6.845a3.519,3.519,0,0,0-4.977,0h0l-4.274,4.274a29.294,29.294,0,0,0-5.721-2.365v-6.049a3.52,3.52,0,0,0-3.52-3.52H368.33a3.52,3.52,0,0,0-3.52,3.52h0v6.049a29.312,29.312,0,0,0-5.721,2.365l-4.275-4.274a3.52,3.52,0,0,0-4.978,0h0l-6.845,6.845a3.52,3.52,0,0,0,0,4.978h0l4.275,4.275a29.318,29.318,0,0,0-2.366,5.721h-6.049a3.52,3.52,0,0,0-3.52,3.52h0v9.68a3.519,3.519,0,0,0,3.52,3.52H344.9a29.3,29.3,0,0,0,2.366,5.721l-4.275,4.274a3.52,3.52,0,0,0,0,4.978l6.845,6.844a3.519,3.519,0,0,0,4.978,0h0l4.275-4.274c1.8.981,2.327,1.774,4.33,2.365l1.391,6.049a3.52,3.52,0,0,0,3.52,3.52h9.679a3.52,3.52,0,0,0,3.52-3.52h0l1.391-6.049c2-.591,2.529-1.384,4.33-2.365l4.278,4.278a3.519,3.519,0,0,0,4.978,0h0l6.844-6.844a3.519,3.519,0,0,0,0-4.978h0l-4.274-4.274a29.262,29.262,0,0,0,2.366-5.721h6.049a3.52,3.52,0,0,0,3.52-3.52h0v-9.684a3.52,3.52,0,0,0-3.52-3.52Zm-34.32,25.075a16.719,16.719,0,1,1,16.719-16.719,16.719,16.719,0,0,1-16.719,16.719Z" transform="translate(-320.278 -496.37)" fill="none" stroke="#131214" stroke-width="3"/>
        <path id="Path_35261" data-name="Path 35261" d="M395.612,560.392a20.3,20.3,0,0,0-40.593,0c0,6.092,4.212,10.325,6.938,15.273,2.383,4.327,3.05,19.522,3.05,19.522h20.618s.668-15.194,3.051-19.522C391.4,570.718,395.612,566.485,395.612,560.392Z" transform="translate(-322.409 -499.012)" fill="#fff" stroke="#131214" stroke-width="3"/>
        <path id="Rectangle_396" data-name="Rectangle 396" d="M366.764,606.209h19.975v5.477a9.987,9.987,0,0,1-9.987,9.987h0a9.987,9.987,0,0,1-9.987-9.987v-5.477Z" transform="translate(-323.681 -506.168)" fill="#131214"/>
        <path id="Path_35262" data-name="Path 35262" d="M370.738,564.907,377,594.869l5.975-29.962S376.859,568.773,370.738,564.907Z" transform="translate(-324.111 -501.696)" fill="none" stroke="#131214" stroke-linecap="round" stroke-linejoin="round" stroke-width="3"/>
        <path id="Path_35263" data-name="Path 35263" d="M336.8,602.422h-1.539a7.429,7.429,0,0,0-.6-1.455l1.087-1.088a.891.891,0,0,0,.005-1.261l-.005-.005L334,596.871a.892.892,0,0,0-1.261-.005l-.005.005-1.088,1.087a7.439,7.439,0,0,0-1.455-.6v-1.539a.891.891,0,0,0-.892-.892h-2.463a.892.892,0,0,0-.892.892v1.539a7.485,7.485,0,0,0-1.455.6l-1.088-1.087a.892.892,0,0,0-1.261-.005l-.005.005-1.741,1.742a.892.892,0,0,0,0,1.261l0,.005,1.087,1.088a7.485,7.485,0,0,0-.6,1.455h-1.539a.892.892,0,0,0-.892.892v2.463a.892.892,0,0,0,.892.892h1.539a7.471,7.471,0,0,0,.6,1.456l-1.087,1.087a.892.892,0,0,0,0,1.261l0,.005,1.741,1.741a.893.893,0,0,0,1.262.005l0-.005,1.088-1.087a7.485,7.485,0,0,0,1.455.6v1.539a.892.892,0,0,0,.892.892H329.3a.891.891,0,0,0,.892-.892v-1.539a7.437,7.437,0,0,0,1.455-.6l1.088,1.087a.893.893,0,0,0,1.262.005l0-.005,1.742-1.741a.892.892,0,0,0,.005-1.261l-.005-.005-1.087-1.087a7.416,7.416,0,0,0,.6-1.456H336.8a.892.892,0,0,0,.892-.892v-2.458a.891.891,0,0,0-.886-.9Zm-8.731,6.38a4.254,4.254,0,1,1,4.254-4.254,4.253,4.253,0,0,1-4.254,4.254Z" transform="translate(-318.45 -504.946)" fill="#131214"/>
        <path id="Path_35264" data-name="Path 35264" d="M450.732,508.268h-2.924a14.093,14.093,0,0,0-1.143-2.764l2.066-2.066a1.7,1.7,0,0,0,0-2.406l0,0-3.307-3.307a1.7,1.7,0,0,0-2.406,0h0l-2.066,2.066a14.2,14.2,0,0,0-2.764-1.143v-2.923a1.7,1.7,0,0,0-1.7-1.7h-4.678a1.7,1.7,0,0,0-1.7,1.7v2.923a14.2,14.2,0,0,0-2.764,1.143l-2.066-2.066a1.7,1.7,0,0,0-2.407,0h0l-3.307,3.307a1.7,1.7,0,0,0,0,2.406l0,0,2.066,2.066a14.091,14.091,0,0,0-1.143,2.764h-2.924a1.7,1.7,0,0,0-1.7,1.7v4.678a1.7,1.7,0,0,0,1.7,1.7h2.924a14.091,14.091,0,0,0,1.143,2.764l-2.066,2.066a1.7,1.7,0,0,0,0,2.406l0,0,3.307,3.307a1.7,1.7,0,0,0,2.406,0l0,0,2.066-2.066a14.091,14.091,0,0,0,2.764,1.143V528.9a1.7,1.7,0,0,0,1.7,1.7h4.678a1.7,1.7,0,0,0,1.7-1.7v-2.924a14.093,14.093,0,0,0,2.764-1.143l2.066,2.066a1.7,1.7,0,0,0,2.407,0v0l3.307-3.307a1.7,1.7,0,0,0,0-2.406l0,0-2.066-2.066a14.093,14.093,0,0,0,1.143-2.764h2.924a1.7,1.7,0,0,0,1.7-1.7V509.97A1.7,1.7,0,0,0,450.732,508.268Zm-16.586,12.12a8.08,8.08,0,1,1,8.08-8.08,8.08,8.08,0,0,1-8.08,8.08Z" transform="translate(-328.997 -494.021)" fill="#131214"/>
      </g>
    </g>
  </g>
</svg>
