<svg xmlns="http://www.w3.org/2000/svg" width="30.001" height="30.001" viewBox="0 0 30.001 30.001"><defs><style>.a{fill:#fff;}</style></defs><g transform="translate(0 0)"><path class="a" d="M-372-4950a14.9,14.9,0,0,1-10.607-4.394A14.9,14.9,0,0,1-387-4965a14.9,14.9,0,0,1,4.394-10.606A14.9,14.9,0,0,1-372-4980a14.9,14.9,0,0,1,10.607,4.394A14.9,14.9,0,0,1-357-4965a14.9,14.9,0,0,1-4.394,10.606A14.9,14.9,0,0,1-372-4950Zm-3.638-24.559a5.506,5.506,0,0,0-5.5,5.5v7.46a5.506,5.506,0,0,0,5.5,5.5h7.46a5.507,5.507,0,0,0,5.5-5.5v-7.46a5.508,5.508,0,0,0-5.5-5.5Zm7.458,16.6h-7.458a3.646,3.646,0,0,1-3.642-3.642v-7.458a3.647,3.647,0,0,1,3.642-3.643h7.46a3.647,3.647,0,0,1,3.641,3.643v7.458A3.647,3.647,0,0,1-368.181-4957.958Zm-3.736-12.526a5.184,5.184,0,0,0-5.178,5.178,5.184,5.184,0,0,0,5.178,5.178,5.184,5.184,0,0,0,5.178-5.178A5.192,5.192,0,0,0-371.916-4970.484Zm4.912-.932a1.243,1.243,0,0,0-1.241,1.242,1.242,1.242,0,0,0,1.241,1.24,1.242,1.242,0,0,0,1.241-1.24A1.243,1.243,0,0,0-367-4971.417Zm-4.912,9.275a3.167,3.167,0,0,1-3.163-3.165,3.167,3.167,0,0,1,3.163-3.164,3.167,3.167,0,0,1,3.165,3.164A3.168,3.168,0,0,1-371.916-4962.142Z" transform="translate(387 4980)"/></g></svg>