<svg xmlns="http://www.w3.org/2000/svg" width="31" height="31" viewBox="0 0 31 31"><g transform="translate(-0.443 0.1)"><path d="M15.5,31A15.5,15.5,0,0,1,4.54,4.54,15.5,15.5,0,1,1,26.46,26.46,15.4,15.4,0,0,1,15.5,31ZM11.741,5.623a5.689,5.689,0,0,0-5.683,5.683v7.709A5.689,5.689,0,0,0,11.741,24.7h7.709a5.69,5.69,0,0,0,5.684-5.683V11.307a5.69,5.69,0,0,0-5.684-5.683Zm7.707,17.153H11.741a3.767,3.767,0,0,1-3.763-3.763V11.307a3.763,3.763,0,0,1,3.763-3.765h7.709a3.77,3.77,0,0,1,3.762,3.765v7.707A3.768,3.768,0,0,1,19.447,22.776ZM15.587,9.833a5.351,5.351,0,1,0,5.351,5.351A5.357,5.357,0,0,0,15.587,9.833Zm5.074-.963a1.283,1.283,0,1,0,1.282,1.283A1.284,1.284,0,0,0,20.661,8.87Zm-5.074,9.583a3.27,3.27,0,1,1,3.269-3.27A3.273,3.273,0,0,1,15.587,18.454Z" transform="translate(0.443 -0.1)"/></g></svg>