<svg xmlns="http://www.w3.org/2000/svg" width="31" height="31" viewBox="0 0 31 31"><g transform="translate(0.038 0.1)"><path d="M15.5,31A15.5,15.5,0,0,1,4.54,4.54,15.5,15.5,0,1,1,26.46,26.46,15.4,15.4,0,0,1,15.5,31ZM7.991,12.961v9.806h3.4V12.961Zm10.174,2.122c1.052,0,1.586.739,1.586,2.2v5.355h3.384V17.06a4.715,4.715,0,0,0-1.32-3.723,3.591,3.591,0,0,0-2.377-.818q-.074,0-.147,0a3.464,3.464,0,0,0-2.929,1.633V12.83H12.967v9.8h3.395V17.306C16.362,16.281,16.834,15.083,18.166,15.083Zm-8.877-7.1H9.233A1.73,1.73,0,0,0,7.549,9.722a1.817,1.817,0,0,0,1.815,1.731l.081,0a1.737,1.737,0,0,0-.157-3.467Z" transform="translate(-0.038 -0.1)"/></g></svg>