<svg xmlns="http://www.w3.org/2000/svg" width="229.702" height="73.638" viewBox="0 0 229.702 73.638"><defs><style>.a{fill:#fff;}.b{fill:none;}.c{fill:#FE6B00;}</style></defs><g transform="translate(0 0)"><path class="a" d="M16.978,10.653a10.811,10.811,0,0,1,4.061,4.061A11.114,11.114,0,0,1,22.5,20.44a10.947,10.947,0,0,1-1.465,5.726,10.811,10.811,0,0,1-4.061,4.061,11.285,11.285,0,0,1-5.726,1.465,11.686,11.686,0,0,1-5.659-1.4,10.47,10.47,0,0,1-4.061-3.928A11.523,11.523,0,0,1,0,20.64V1.265A1.15,1.15,0,0,1,.333.4,1.172,1.172,0,0,1,1.2,0a1.15,1.15,0,0,1,.866.333A1.266,1.266,0,0,1,2.4,1.2V13.716a8.894,8.894,0,0,1,3.662-3.329,11.058,11.058,0,0,1,5.193-1.2A11.285,11.285,0,0,1,16.978,10.653ZM15.713,28.163a9.06,9.06,0,0,0,4.394-7.856,9.1,9.1,0,0,0-1.2-4.594,8.192,8.192,0,0,0-3.2-3.2,8.684,8.684,0,0,0-4.527-1.2,8.856,8.856,0,0,0-4.527,1.2,8.477,8.477,0,0,0-3.129,3.2A9.58,9.58,0,0,0,2.4,20.307,9.774,9.774,0,0,0,3.529,24.9a8.2,8.2,0,0,0,3.129,3.262,8.684,8.684,0,0,0,4.527,1.2A8.684,8.684,0,0,0,15.713,28.163Z" transform="translate(0 0)"/><path class="a" d="M55.151,15.1a.5.5,0,0,1-.067.333c-.067.266-.2.533-.4.6a1.2,1.2,0,0,1-.732.2,5.062,5.062,0,0,1-.932-.067,5.75,5.75,0,0,0-1-.067,7.185,7.185,0,0,0-3.6.866,5.941,5.941,0,0,0-2.463,2.33,6.376,6.376,0,0,0-.866,3.329V34.806a1.2,1.2,0,1,1-2.4,0V15.165a1.15,1.15,0,0,1,.333-.866,1.266,1.266,0,0,1,.866-.333,1.15,1.15,0,0,1,.866.333,1.266,1.266,0,0,1,.333.866v2.463a8.2,8.2,0,0,1,3-2.863A8.077,8.077,0,0,1,52.021,13.7C54.152,13.767,55.151,14.166,55.151,15.1Z" transform="translate(-14.27 -4.579)"/><path class="a" d="M70.833,35.739a1.266,1.266,0,0,1-.333-.866V15.3a1.15,1.15,0,0,1,.333-.866A1.266,1.266,0,0,1,71.7,14.1a1.15,1.15,0,0,1,.866.333,1.266,1.266,0,0,1,.333.866V34.873a1.142,1.142,0,0,1-1.2,1.2A.951.951,0,0,1,70.833,35.739Z" transform="translate(-23.561 -4.712)"/><path class="a" d="M101.278,15.165a10.466,10.466,0,0,1,3.995,3.995,12.02,12.02,0,0,1,1.4,5.792v7.856a11.779,11.779,0,0,1-1.465,5.859,10.355,10.355,0,0,1-3.995,4.128,10.922,10.922,0,0,1-5.659,1.531,12.356,12.356,0,0,1-5.593-1.2,11.22,11.22,0,0,1-3.995-3.262,1.383,1.383,0,0,1-.333-.8.765.765,0,0,1,.4-.732,1.252,1.252,0,0,1,1.8.266,9.382,9.382,0,0,0,3.262,2.53,10.686,10.686,0,0,0,4.461.932,8.053,8.053,0,0,0,4.394-1.2,8.214,8.214,0,0,0,3.063-3.329,10.115,10.115,0,0,0,1.132-4.727v-1.8a8.9,8.9,0,0,1-3.462,3.728,10.094,10.094,0,0,1-5.326,1.4,11.657,11.657,0,0,1-5.792-1.4,9.628,9.628,0,0,1-3.995-3.995A12.063,12.063,0,0,1,84.1,24.952a11.358,11.358,0,0,1,1.465-5.792,10.19,10.19,0,0,1,4.061-3.995A11.8,11.8,0,0,1,95.352,13.7,12.572,12.572,0,0,1,101.278,15.165Zm-1.265,17.644a7.627,7.627,0,0,0,3.129-3.2,9.654,9.654,0,0,0,1.132-4.661,9.846,9.846,0,0,0-1.132-4.661,7.627,7.627,0,0,0-3.129-3.2,9.754,9.754,0,0,0-9.121,0,7.627,7.627,0,0,0-3.129,3.2,10.161,10.161,0,0,0,0,9.321,8.477,8.477,0,0,0,3.129,3.2,9.391,9.391,0,0,0,4.594,1.132A9.133,9.133,0,0,0,100.013,32.809Z" transform="translate(-28.106 -4.578)"/><path class="a" d="M142.48,10.32a8.738,8.738,0,0,1,3.6,3.529,11.127,11.127,0,0,1,1.332,5.526V30.161a1.2,1.2,0,1,1-2.4,0V19.375a7.9,7.9,0,0,0-2.131-5.859,8,8,0,0,0-5.593-2,9.107,9.107,0,0,0-3.862.8,6.589,6.589,0,0,0-2.73,2.264,5.713,5.713,0,0,0-1,3.262V30.161a1.2,1.2,0,1,1-2.4,0V1.2a1.15,1.15,0,0,1,.333-.866A1.266,1.266,0,0,1,128.5,0a1.15,1.15,0,0,1,.866.333,1.266,1.266,0,0,1,.333.866V12.717a9.99,9.99,0,0,1,3.329-2.663,10.293,10.293,0,0,1,4.328-.932A11.174,11.174,0,0,1,142.48,10.32Z" transform="translate(-42.543 0)"/><path class="a" d="M177.149,30.5a1.317,1.317,0,0,1,.333.932,1.266,1.266,0,0,1-.333.866,1.317,1.317,0,0,1-.932.333h-.932a7.66,7.66,0,0,1-3.928-1,6.992,6.992,0,0,1-2.663-2.73,7.79,7.79,0,0,1-.932-3.928V13.654h-3.129a1.132,1.132,0,0,1,0-2.264h3.129V4.865a1.443,1.443,0,0,1,.333-.932,1.266,1.266,0,0,1,.866-.333,1.443,1.443,0,0,1,.932.333,1.317,1.317,0,0,1,.333.932V11.39h5.326a1.132,1.132,0,0,1,0,2.264h-5.326V24.972a5.117,5.117,0,0,0,1.465,3.8,4.867,4.867,0,0,0,3.728,1.465h.866A.832.832,0,0,1,177.149,30.5Z" transform="translate(-54.641 -1.203)"/></g><g transform="translate(0 44.542)"><path class="b" d="M224.986,83.432a6.826,6.826,0,0,0-3.662-.932,7.481,7.481,0,0,0-3.662.932,6.95,6.95,0,0,0-2.53,2.663,8.348,8.348,0,0,0-.932,3.928,8.078,8.078,0,0,0,.932,3.862,6.95,6.95,0,0,0,2.53,2.663,6.826,6.826,0,0,0,3.662.932,7.481,7.481,0,0,0,3.662-.932,6.95,6.95,0,0,0,2.53-2.663,8.273,8.273,0,0,0,.932-3.862,8.547,8.547,0,0,0-.932-3.928A6.95,6.95,0,0,0,224.986,83.432Z" transform="translate(-71.585 -72.113)"/><path class="b" d="M99.924,82.2a7.186,7.186,0,0,0-4.794,1.6,7.459,7.459,0,0,0-2.33,4.328h13.383a7.715,7.715,0,0,0-2-4.328A5.829,5.829,0,0,0,99.924,82.2Z" transform="translate(-31.013 -72.013)"/><path class="a" d="M2.064,77.3A2.194,2.194,0,0,0,.6,77.833,2.006,2.006,0,0,0,0,79.364v17.91a1.958,1.958,0,0,0,.6,1.465,1.958,1.958,0,0,0,1.465.6,1.859,1.859,0,0,0,1.465-.6,1.907,1.907,0,0,0,.533-1.465V79.364A2.073,2.073,0,0,0,3.529,77.9,1.958,1.958,0,0,0,2.064,77.3Z" transform="translate(0 -70.376)"/><path class="a" d="M33.513,78.2A10.257,10.257,0,0,0,28.519,77a10.4,10.4,0,0,0-3.8.732,8.725,8.725,0,0,0-3.063,2v-.466a2.073,2.073,0,0,0-.533-1.465,1.907,1.907,0,0,0-1.465-.533A2.194,2.194,0,0,0,18.2,77.8a1.958,1.958,0,0,0-.6,1.465v17.91a2.046,2.046,0,0,0,2.064,2.064,1.859,1.859,0,0,0,1.465-.6,1.907,1.907,0,0,0,.533-1.465V85.855a4.439,4.439,0,0,1,.8-2.6,5.5,5.5,0,0,1,2.2-1.864,6.667,6.667,0,0,1,3.063-.666,6.455,6.455,0,0,1,4.661,1.665,6.362,6.362,0,0,1,1.731,4.927v9.854a2.064,2.064,0,1,0,4.128,0v-9.92a11.379,11.379,0,0,0-1.265-5.593A8.663,8.663,0,0,0,33.513,78.2Z" transform="translate(-5.882 -70.275)"/><path class="a" d="M72.307,77.6a2.127,2.127,0,0,0-.932-.2,1.879,1.879,0,0,0-1,.266,1.934,1.934,0,0,0-.732.732L62.72,93.446,55.8,78.4a1.443,1.443,0,0,0-.666-.732A1.529,1.529,0,0,0,54.2,77.4a2.011,2.011,0,0,0-2,1.864,2.393,2.393,0,0,0,.133.732l8.522,17.977a3.261,3.261,0,0,0,.8,1,1.9,1.9,0,0,0,1.132.333,2.038,2.038,0,0,0,1.864-1.332L73.173,80a1.736,1.736,0,0,0,.2-.732,1.529,1.529,0,0,0-.266-.932A2.117,2.117,0,0,0,72.307,77.6Z" transform="translate(-17.445 -70.409)"/><path class="a" d="M103.379,78.4A9.931,9.931,0,0,0,98.053,77a11.248,11.248,0,0,0-5.593,1.4A9.714,9.714,0,0,0,88.6,82.393a11.836,11.836,0,0,0-1.4,5.792,10.947,10.947,0,0,0,1.465,5.726,10.47,10.47,0,0,0,4.061,3.928,12.362,12.362,0,0,0,5.926,1.4,11.5,11.5,0,0,0,3.862-.666,11.709,11.709,0,0,0,3.4-1.8,1.589,1.589,0,0,0,.666-1.2,1.945,1.945,0,0,0-.732-1.4,1.628,1.628,0,0,0-1.2-.4,1.919,1.919,0,0,0-1.332.466,7.069,7.069,0,0,1-2.131,1.065,8.867,8.867,0,0,1-2.53.466,8.138,8.138,0,0,1-5.193-1.731,6.916,6.916,0,0,1-2.53-4.527h15.247a1.859,1.859,0,0,0,1.332-.533,1.7,1.7,0,0,0,.533-1.265,12.849,12.849,0,0,0-1.2-5.659A10.121,10.121,0,0,0,103.379,78.4Zm-12.451,7.99a7.3,7.3,0,0,1,2.33-4.328,6.95,6.95,0,0,1,4.794-1.6,5.989,5.989,0,0,1,4.328,1.6,7.12,7.12,0,0,1,2,4.328Z" transform="translate(-29.142 -70.275)"/><path class="a" d="M142.213,78.2a10.257,10.257,0,0,0-4.994-1.2,10.4,10.4,0,0,0-3.8.732,8.725,8.725,0,0,0-3.063,2v-.466a2.073,2.073,0,0,0-.533-1.465,1.907,1.907,0,0,0-1.465-.533,2.194,2.194,0,0,0-1.465.533,1.958,1.958,0,0,0-.6,1.465v17.91a2.046,2.046,0,0,0,2.064,2.064,1.859,1.859,0,0,0,1.465-.6,1.907,1.907,0,0,0,.533-1.465V85.855a4.439,4.439,0,0,1,.8-2.6,5.5,5.5,0,0,1,2.2-1.864,6.667,6.667,0,0,1,3.063-.666,6.455,6.455,0,0,1,4.661,1.665,6.362,6.362,0,0,1,1.731,4.927v9.854a2.064,2.064,0,1,0,4.128,0v-9.92a11.379,11.379,0,0,0-1.265-5.593A8.663,8.663,0,0,0,142.213,78.2Z" transform="translate(-42.209 -70.275)"/><path class="a" d="M175.451,91.8h-1.4a2.708,2.708,0,0,1-2.2-1.065,4.007,4.007,0,0,1-.866-2.663V78.085h3.4a2.09,2.09,0,0,0,1.4-.466,1.667,1.667,0,0,0,.533-1.2,1.7,1.7,0,0,0-.533-1.265,1.876,1.876,0,0,0-1.4-.466h-3.4V68.9a2.194,2.194,0,0,0-.533-1.465,1.907,1.907,0,0,0-1.465-.533,2.194,2.194,0,0,0-1.465.533A1.907,1.907,0,0,0,167,68.9V74.69h-1.864a2.09,2.09,0,0,0-1.4.466,1.7,1.7,0,0,0-.533,1.265,1.667,1.667,0,0,0,.533,1.2,1.876,1.876,0,0,0,1.4.466H167v9.92A8.826,8.826,0,0,0,167.927,92a6.873,6.873,0,0,0,2.53,2.8,6.643,6.643,0,0,0,3.6,1h.732a2.968,2.968,0,0,0,1.731-.533,1.8,1.8,0,0,0,.666-1.465,2.194,2.194,0,0,0-.533-1.465A1.667,1.667,0,0,0,175.451,91.8Z" transform="translate(-54.541 -66.9)"/><path class="a" d="M194.364,77.3a2.194,2.194,0,0,0-1.465.533,1.958,1.958,0,0,0-.6,1.465v17.91a2.046,2.046,0,0,0,2.064,2.064,1.859,1.859,0,0,0,1.465-.6,1.907,1.907,0,0,0,.533-1.465V79.364a2.073,2.073,0,0,0-.533-1.465A1.958,1.958,0,0,0,194.364,77.3Z" transform="translate(-64.266 -70.376)"/><path class="a" d="M225.012,78.5a12.287,12.287,0,0,0-11.385,0,10.126,10.126,0,0,0-3.928,3.928,12.56,12.56,0,0,0,0,11.518,10.126,10.126,0,0,0,3.928,3.928,12.424,12.424,0,0,0,11.452,0,10.127,10.127,0,0,0,3.928-3.928,12.56,12.56,0,0,0,0-11.518A10.765,10.765,0,0,0,225.012,78.5Zm.533,13.649a6.95,6.95,0,0,1-2.53,2.663,6.826,6.826,0,0,1-3.662.932,7.481,7.481,0,0,1-3.662-.932,6.95,6.95,0,0,1-2.53-2.663,8.273,8.273,0,0,1-.932-3.862,8.546,8.546,0,0,1,.932-3.928,6.513,6.513,0,0,1,2.53-2.663,6.826,6.826,0,0,1,3.662-.932,7.481,7.481,0,0,1,3.662.932,6.95,6.95,0,0,1,2.53,2.663,8.348,8.348,0,0,1,.932,3.928A8.475,8.475,0,0,1,225.544,92.147Z" transform="translate(-69.613 -70.309)"/><path class="a" d="M266.613,78.2a10.257,10.257,0,0,0-4.994-1.2,10.4,10.4,0,0,0-3.8.732,8.725,8.725,0,0,0-3.063,2v-.466a2.073,2.073,0,0,0-.533-1.465,1.907,1.907,0,0,0-1.465-.533,2.194,2.194,0,0,0-1.465.533,1.958,1.958,0,0,0-.6,1.465v17.91a2.046,2.046,0,0,0,2.064,2.064,1.859,1.859,0,0,0,1.465-.6,1.907,1.907,0,0,0,.533-1.465V85.855a4.439,4.439,0,0,1,.8-2.6,5.5,5.5,0,0,1,2.2-1.864,6.667,6.667,0,0,1,3.063-.666,6.455,6.455,0,0,1,4.661,1.665,6.362,6.362,0,0,1,1.731,4.927v9.854a2.064,2.064,0,1,0,4.128,0v-9.92a11.379,11.379,0,0,0-1.265-5.593A9.1,9.1,0,0,0,266.613,78.2Z" transform="translate(-83.783 -70.275)"/><path class="a" d="M305.979,88.752c-1.2-1.065-3.262-1.864-6.192-2.463a15.294,15.294,0,0,1-3.262-.932,4.314,4.314,0,0,1-1.531-1,2.113,2.113,0,0,1-.4-1.332,1.9,1.9,0,0,1,1.2-1.731,6.777,6.777,0,0,1,3.063-.6,8.147,8.147,0,0,1,2.73.4,5.684,5.684,0,0,1,2.131,1.332,2.557,2.557,0,0,0,1.864.732,2.063,2.063,0,0,0,1.132-.333,1.61,1.61,0,0,0,.666-1.265,2.1,2.1,0,0,0-.533-1.265,7.489,7.489,0,0,0-3.262-2.33,12.908,12.908,0,0,0-4.661-.866,11.441,11.441,0,0,0-3.995.666,7.145,7.145,0,0,0-3.063,2.064,4.868,4.868,0,0,0-1.2,3.329c0,3.262,2.6,5.326,7.723,6.325a12.553,12.553,0,0,1,4.195,1.4,2.528,2.528,0,0,1,1.265,2.064,2.308,2.308,0,0,1-1.265,2.064,6.633,6.633,0,0,1-3.529.732,8.873,8.873,0,0,1-3.262-.6,6.052,6.052,0,0,1-2.264-1.465A2.215,2.215,0,0,0,292,92.946a2.839,2.839,0,0,0-1.4.533,1.9,1.9,0,0,0-.8,1.6,1.948,1.948,0,0,0,.533,1.265,9.526,9.526,0,0,0,3.8,2.2,16.235,16.235,0,0,0,5.127.866,11,11,0,0,0,4.661-.866,6.655,6.655,0,0,0,2.93-2.4,5.923,5.923,0,0,0,1-3.329A5.338,5.338,0,0,0,305.979,88.752Z" transform="translate(-96.85 -70.309)"/></g><rect class="c" width="9.654" height="9.654" transform="translate(220.048 63.984)"/></svg>
