<svg xmlns="http://www.w3.org/2000/svg" viewBox="0 0 735.54 235.7"><defs><style>.cls-1{fill:#fff;}.cls-2{fill:#fe6b00;}</style></defs><g id="inventions"><path class="cls-1" d="M342.75,783.2a6.37,6.37,0,0,1-1.86-4.69V721.24a6.33,6.33,0,0,1,1.86-4.76,6.51,6.51,0,0,1,4.7-1.8,6.19,6.19,0,0,1,6.56,6.56v57.27a6.48,6.48,0,0,1-1.8,4.69,6.28,6.28,0,0,1-4.76,1.87A6.36,6.36,0,0,1,342.75,783.2Z" transform="translate(-340.89 -549.89)"/><path class="cls-1" d="M429.42,717.9a27.13,27.13,0,0,1,11.07,11.26q4,7.4,4,17.82v31.65a6.57,6.57,0,1,1-13.13,0V747q0-10.43-5.59-15.77t-14.87-5.34a21.94,21.94,0,0,0-9.84,2.19A17.44,17.44,0,0,0,394.1,734a14.7,14.7,0,0,0-2.51,8.37v36.28a6.49,6.49,0,0,1-1.8,4.7,6.6,6.6,0,0,1-11.33-4.7V721.24a6.3,6.3,0,0,1,1.87-4.76,6.53,6.53,0,0,1,11.26,4.76v1.42a28.42,28.42,0,0,1,9.78-6.37,34.25,34.25,0,0,1,28.05,1.61Z" transform="translate(-340.89 -549.89)"/><path class="cls-1" d="M519.12,717.7a5.34,5.34,0,0,1,.9,3,5.47,5.47,0,0,1-.65,2.44l-27.28,57.52c-1.28,2.84-3.26,4.25-5.92,4.25a6.26,6.26,0,0,1-3.6-1,8.39,8.39,0,0,1-2.57-3.29l-27.28-57.52a5,5,0,0,1-.52-2.31q0-3.48,3.6-5.28a5.52,5.52,0,0,1,2.71-.65,5.73,5.73,0,0,1,3,.84,5.59,5.59,0,0,1,2.18,2.38l22.4,48.26,22.13-48.26a5.45,5.45,0,0,1,2.25-2.38,6.3,6.3,0,0,1,3.15-.84,6.51,6.51,0,0,1,3,.65A6,6,0,0,1,519.12,717.7Z" transform="translate(-340.89 -549.89)"/><path class="cls-1" d="M591.83,752.83a5.87,5.87,0,0,1-4.25,1.61h-48.9A22.63,22.63,0,0,0,546.85,769a25.23,25.23,0,0,0,16.54,5.54,24.9,24.9,0,0,0,8-1.42,23.9,23.9,0,0,0,6.88-3.47,6.64,6.64,0,0,1,4.25-1.42,5.51,5.51,0,0,1,3.86,1.29,5.62,5.62,0,0,1,2.32,4.37,4.65,4.65,0,0,1-2.06,3.86,35.53,35.53,0,0,1-10.88,5.67A39.38,39.38,0,0,1,544.47,781a33.12,33.12,0,0,1-13.06-12.68,35.94,35.94,0,0,1-4.7-18.4,38.08,38.08,0,0,1,4.44-18.47,32.15,32.15,0,0,1,12.35-12.74,35.33,35.33,0,0,1,18-4.57,32.3,32.3,0,0,1,17.11,4.38,29,29,0,0,1,11.07,12.22,40.4,40.4,0,0,1,3.86,18A5.39,5.39,0,0,1,591.83,752.83Zm-45.62-22.45a23.07,23.07,0,0,0-7.4,13.77h42.85q-1.15-8.62-6.43-13.77t-13.77-5.15Q552.06,725.23,546.21,730.38Z" transform="translate(-340.89 -549.89)"/><path class="cls-1" d="M661.19,717.9a27.17,27.17,0,0,1,11.06,11.26q4,7.4,4,17.82v31.65a6.56,6.56,0,1,1-13.12,0V747q0-10.43-5.6-15.77t-14.86-5.34a22,22,0,0,0-9.85,2.19,17.44,17.44,0,0,0-6.95,5.92,14.7,14.7,0,0,0-2.51,8.37v36.28a6.49,6.49,0,0,1-1.8,4.7,6.3,6.3,0,0,1-4.76,1.87,6.38,6.38,0,0,1-6.56-6.57V721.24a6.33,6.33,0,0,1,1.86-4.76,6.51,6.51,0,0,1,4.7-1.8,6.19,6.19,0,0,1,6.56,6.56v1.42a28.61,28.61,0,0,1,9.78-6.37,34.27,34.27,0,0,1,28.06,1.61Z" transform="translate(-340.89 -549.89)"/><path class="cls-1" d="M731.9,774a6.71,6.71,0,0,1,1.61,4.63,5.8,5.8,0,0,1-2.13,4.64,8.16,8.16,0,0,1-5.47,1.8H723.6a21.14,21.14,0,0,1-11.52-3.28,22.86,22.86,0,0,1-8.17-8.95,27,27,0,0,1-3-12.74V728.32H695a6.22,6.22,0,0,1-4.38-1.55,5,5,0,0,1-1.67-3.86,5.34,5.34,0,0,1,1.67-4.11,6.22,6.22,0,0,1,4.38-1.55H701V698.72a6.44,6.44,0,1,1,12.87,0v18.53h10.94a6.18,6.18,0,0,1,4.37,1.55,5.31,5.31,0,0,1,1.67,4.11,5,5,0,0,1-1.67,3.86,6.18,6.18,0,0,1-4.37,1.55H713.82V760.1a13.2,13.2,0,0,0,2.83,8.63,8.65,8.65,0,0,0,7,3.47H728A5.08,5.08,0,0,1,731.9,774Z" transform="translate(-340.89 -549.89)"/><path class="cls-1" d="M752.74,783.2a6.37,6.37,0,0,1-1.86-4.69V721.24a6.33,6.33,0,0,1,1.86-4.76,6.51,6.51,0,0,1,4.7-1.8,6.19,6.19,0,0,1,6.56,6.56v57.27a6.48,6.48,0,0,1-1.8,4.69,6.3,6.3,0,0,1-4.76,1.87A6.36,6.36,0,0,1,752.74,783.2Z" transform="translate(-340.89 -549.89)"/><path class="cls-1" d="M802,781a32.33,32.33,0,0,1-12.62-12.68,40.13,40.13,0,0,1,0-36.93A32.33,32.33,0,0,1,802,718.73a36.85,36.85,0,0,1,18.4-4.57,36.29,36.29,0,0,1,18.21,4.57,32.9,32.9,0,0,1,12.61,12.68,39.82,39.82,0,0,1,.06,36.93A32.35,32.35,0,0,1,838.7,781,39.26,39.26,0,0,1,802,781Zm30.17-10.11a21.41,21.41,0,0,0,8.11-8.55,26.16,26.16,0,0,0,2.89-12.42,26.46,26.46,0,0,0-2.89-12.48,21.3,21.3,0,0,0-8.11-8.63,24,24,0,0,0-23.55,0,21.71,21.71,0,0,0-8.17,8.63,26,26,0,0,0-3,12.48,25.73,25.73,0,0,0,3,12.42,21.83,21.83,0,0,0,8.17,8.55,24,24,0,0,0,23.55,0Z" transform="translate(-340.89 -549.89)"/><path class="cls-1" d="M926.28,717.9a27.17,27.17,0,0,1,11.06,11.26q4,7.4,4,17.82v31.65a6.56,6.56,0,1,1-13.12,0V747q0-10.43-5.6-15.77t-14.86-5.34a22,22,0,0,0-9.85,2.19A17.44,17.44,0,0,0,891,734a14.7,14.7,0,0,0-2.51,8.37v36.28a6.49,6.49,0,0,1-1.8,4.7,6.92,6.92,0,0,1-9.46,0,6.38,6.38,0,0,1-1.86-4.7V721.24a6.33,6.33,0,0,1,1.86-4.76,6.53,6.53,0,0,1,11.26,4.76v1.42a28.61,28.61,0,0,1,9.78-6.37,34.27,34.27,0,0,1,28.06,1.61Z" transform="translate(-340.89 -549.89)"/><path class="cls-1" d="M972.21,782.88a31.49,31.49,0,0,1-12.09-7.08,5.42,5.42,0,0,1-1.68-4,6,6,0,0,1,2.58-5,7.82,7.82,0,0,1,4.5-1.81,6.9,6.9,0,0,1,4.89,2.32,19.92,19.92,0,0,0,7.34,4.7,27.3,27.3,0,0,0,10.42,2q7.33,0,11.39-2.44t4.05-6.57q0-4-4-6.62t-13.52-4.44q-24.71-4.77-24.71-20.34a15.9,15.9,0,0,1,3.74-10.68,22.67,22.67,0,0,1,9.78-6.56,37.48,37.48,0,0,1,12.86-2.19,39.28,39.28,0,0,1,15,2.71,25.67,25.67,0,0,1,10.49,7.46,6.57,6.57,0,0,1,1.67,4.12,5.15,5.15,0,0,1-2.19,4,6,6,0,0,1-3.6,1,8.8,8.8,0,0,1-6-2.45,19.38,19.38,0,0,0-6.82-4.18,27.28,27.28,0,0,0-8.75-1.22,20.82,20.82,0,0,0-9.72,2q-3.79,2-3.79,5.6a7,7,0,0,0,1.28,4.31,11.48,11.48,0,0,0,4.89,3.22,62.55,62.55,0,0,0,10.43,2.89q14,2.83,19.88,7.85a16.34,16.34,0,0,1,5.85,13,18.94,18.94,0,0,1-3.21,10.74,21.49,21.49,0,0,1-9.46,7.6,36.91,36.91,0,0,1-15,2.76A49.58,49.58,0,0,1,972.21,782.88Z" transform="translate(-340.89 -549.89)"/></g><g id="bright"><path class="cls-1" d="M395.2,583.93a34,34,0,0,1,12.93,12.93,38.11,38.11,0,0,1,0,36.67,34,34,0,0,1-12.93,12.94,38.23,38.23,0,0,1-36.49.13,33.93,33.93,0,0,1-12.93-12.68,35.74,35.74,0,0,1-4.89-18V553.75a3.7,3.7,0,0,1,1.09-2.83,3.86,3.86,0,0,1,2.77-1,3.56,3.56,0,0,1,3.86,3.86V593.9a29.93,29.93,0,0,1,11.65-10.75,34.78,34.78,0,0,1,16.53-3.92A36.55,36.55,0,0,1,395.2,583.93Zm-4,56.23a27.68,27.68,0,0,0,10.16-10.36,30.64,30.64,0,0,0,0-29.34,27.28,27.28,0,0,0-10.16-10.29,29.72,29.72,0,0,0-28.83,0,26.77,26.77,0,0,0-10.1,10.29,31.16,31.16,0,0,0,0,29.34,27.16,27.16,0,0,0,10.1,10.36,29.24,29.24,0,0,0,28.83,0Z" transform="translate(-340.89 -549.89)"/><path class="cls-1" d="M471.77,583.48a3.54,3.54,0,0,1-.13,1,3.42,3.42,0,0,1-1.23,2,3.85,3.85,0,0,1-2.25.58,23.42,23.42,0,0,1-3-.26,24.19,24.19,0,0,0-3.16-.26,23.79,23.79,0,0,0-11.45,2.71,20,20,0,0,0-7.85,7.46,20.48,20.48,0,0,0-2.83,10.68v39.12a3.86,3.86,0,0,1-1,2.77,3.7,3.7,0,0,1-2.83,1.09,3.73,3.73,0,0,1-3.86-3.86V583.86a3.7,3.7,0,0,1,1.09-2.83,3.91,3.91,0,0,1,2.77-1,3.86,3.86,0,0,1,2.83,1,3.82,3.82,0,0,1,1,2.83v8a27.39,27.39,0,0,1,9.52-9.27A24.88,24.88,0,0,1,462,579.23Q471.76,579.23,471.77,583.48Z" transform="translate(-340.89 -549.89)"/><path class="cls-1" d="M492.16,649.3a3.75,3.75,0,0,1-1.09-2.77V583.86a3.7,3.7,0,0,1,1.09-2.83,3.91,3.91,0,0,1,2.77-1,3.56,3.56,0,0,1,3.86,3.86v62.67a3.91,3.91,0,0,1-1,2.77,3.7,3.7,0,0,1-2.83,1.09A3.75,3.75,0,0,1,492.16,649.3Z" transform="translate(-340.89 -549.89)"/><path class="cls-1" d="M575.29,583.86A32.89,32.89,0,0,1,588,596.67a37.39,37.39,0,0,1,4.57,18.59v25.22A38.21,38.21,0,0,1,588,659.21a34.52,34.52,0,0,1-30.76,18.08,39.63,39.63,0,0,1-17.82-3.8,36.73,36.73,0,0,1-12.81-10.36,4.15,4.15,0,0,1-1-2.57,2.84,2.84,0,0,1,1.29-2.45,3.81,3.81,0,0,1,2.32-.77A4,4,0,0,1,532.5,659a30.11,30.11,0,0,0,10.49,8.1,32.84,32.84,0,0,0,14.22,3,26.64,26.64,0,0,0,14.16-3.86,27.25,27.25,0,0,0,9.91-10.61,31.69,31.69,0,0,0,3.6-15.13v-5.66a28.06,28.06,0,0,1-11.13,12,32.86,32.86,0,0,1-17,4.38,37.53,37.53,0,0,1-18.6-4.57,32.93,32.93,0,0,1-12.8-12.74,37,37,0,0,1-4.64-18.6,36.3,36.3,0,0,1,4.77-18.53,34,34,0,0,1,13-12.87,36.61,36.61,0,0,1,18.28-4.63A37,37,0,0,1,575.29,583.86Zm-4,56.43a26,26,0,0,0,10-10.17,30.13,30.13,0,0,0,3.6-14.86,30.56,30.56,0,0,0-3.6-14.93,26,26,0,0,0-10-10.23,31,31,0,0,0-29.21,0,25.93,25.93,0,0,0-10,10.23,30.56,30.56,0,0,0-3.6,14.93,30.13,30.13,0,0,0,3.6,14.86,25.91,25.91,0,0,0,10,10.17,30.9,30.9,0,0,0,29.21,0Z" transform="translate(-340.89 -549.89)"/><path class="cls-1" d="M660.87,583a27.91,27.91,0,0,1,11.58,11.26q4.18,7.39,4.18,17.7v34.61a3.73,3.73,0,0,1-3.86,3.86,3.73,3.73,0,0,1-3.86-3.86V611.92q0-12.23-6.89-18.66t-17.95-6.44a28.77,28.77,0,0,0-12.42,2.64,21.53,21.53,0,0,0-8.81,7.33,17.93,17.93,0,0,0-3.22,10.36v39.38a3.86,3.86,0,0,1-1,2.77,3.7,3.7,0,0,1-2.83,1.09,3.73,3.73,0,0,1-3.86-3.86V553.75a3.7,3.7,0,0,1,1.09-2.83,3.88,3.88,0,0,1,2.77-1,3.56,3.56,0,0,1,3.86,3.86v36.8a30.73,30.73,0,0,1,10.68-8.43,31.55,31.55,0,0,1,13.77-3A35.86,35.86,0,0,1,660.87,583Z" transform="translate(-340.89 -549.89)"/><path class="cls-1" d="M733.19,643.64a3.94,3.94,0,0,1,1.09,2.89,3.78,3.78,0,0,1-1.09,2.77,3.92,3.92,0,0,1-2.9,1.09h-3a24.66,24.66,0,0,1-12.61-3.21,22.76,22.76,0,0,1-8.62-8.82A25.78,25.78,0,0,1,703,625.69V589.52H693a3.48,3.48,0,1,1,0-6.95h10v-21a3.92,3.92,0,0,1,1.09-2.9,3.78,3.78,0,0,1,2.77-1.09,3.75,3.75,0,0,1,4,4v21h17a3.48,3.48,0,1,1,0,6.95h-17v36.17a16.58,16.58,0,0,0,4.63,12.16,16.08,16.08,0,0,0,12,4.69h2.83A3.93,3.93,0,0,1,733.19,643.64Z" transform="translate(-340.89 -549.89)"/></g><g id="square"><rect class="cls-2" x="704.73" y="204.88" width="30.82" height="30.82"/></g></svg>