<svg xmlns="http://www.w3.org/2000/svg" width="113.527" height="198.064" viewBox="0 0 113.527 198.064">
  <g id="maintenance_strzalka" transform="translate(-903.5 -6078.5)">
    <g id="Group_524" data-name="Group 524" transform="translate(905 6182.385)">
      <rect id="Rectangle_413" data-name="Rectangle 413" width="87.022" height="15.4" rx="4.333" transform="translate(0 77.279)" fill="#fff" stroke="#131214" stroke-width="3"/>
      <rect id="Rectangle_414" data-name="Rectangle 414" width="66.133" height="15.4" rx="3.778" transform="translate(20.89 62.121)" fill="#fff" stroke="#131214" stroke-width="3"/>
      <rect id="Rectangle_415" data-name="Rectangle 415" width="41.976" height="15.4" rx="3.01" transform="translate(45.046 46.53)" fill="#fff" stroke="#131214" stroke-width="3"/>
      <path id="Path_35279" data-name="Path 35279" d="M1977.1,535.924h37.8l-14.446-11.653L2014.9,513.55h-37.648c-.375,3.94-.178,7.987-.178,12.12C1977.073,529.154,1976.831,532.573,1977.1,535.924Z" transform="translate(-1907.411 -512.55)" fill="#131214" stroke="#000" stroke-miterlimit="10" stroke-width="3"/>
      <line id="Line_27" data-name="Line 27" y1="46.728" transform="translate(69.598)" fill="none" stroke="#000" stroke-miterlimit="10" stroke-width="3"/>
    </g>
    <g id="Group_1382" data-name="Group 1382" transform="translate(986.35 6122.18) rotate(90)">
      <g id="Group_755" data-name="Group 755" transform="translate(16.497 20.828)">
        <path id="Path_35449" data-name="Path 35449" d="M578.818,570.5l8.617-7.238H564.25" transform="translate(-564.25 -555.979)" fill="none" stroke="#f7931e" stroke-linecap="round" stroke-linejoin="round" stroke-width="2"/>
        <line id="Line_39" data-name="Line 39" x1="8.617" y1="7.239" transform="translate(14.568)" fill="none" stroke="#f7931e" stroke-linecap="round" stroke-miterlimit="10" stroke-width="2"/>
      </g>
    </g>
    <line id="Line_103" data-name="Line 103" y2="56" transform="translate(958.5 6078.5)" fill="none" stroke="#f7931e" stroke-width="2" stroke-dasharray="4 6"/>
  </g>
</svg>
