<svg xmlns="http://www.w3.org/2000/svg" width="155.459" height="122.331" viewBox="0 0 155.459 122.331"><defs><style>.a,.b,.d{fill:none;stroke:#131214;stroke-width:3px;}.a,.d{stroke-miterlimit:10;}.c{fill:#131214;}.d{stroke-linecap:round;}</style></defs><g transform="translate(-80 -130.245)"><rect class="a" width="48.231" height="96.073" rx="7.432" transform="translate(112.25 139.747)"/><rect class="b" width="36.54" height="69.856" transform="translate(118.095 149.567)"/><path class="c" d="M112.7,185.387h-2.238a10.845,10.845,0,0,0-.875-2.117l1.582-1.581a1.3,1.3,0,0,0,0-1.842l-2.532-2.532a1.3,1.3,0,0,0-1.842,0l-1.582,1.582a10.839,10.839,0,0,0-2.117-.875v-2.238a1.3,1.3,0,0,0-1.3-1.3H98.209a1.3,1.3,0,0,0-1.3,1.3v2.238a10.844,10.844,0,0,0-2.117.875l-1.582-1.582a1.3,1.3,0,0,0-1.842,0l-2.532,2.532a1.3,1.3,0,0,0,0,1.842l1.581,1.581a10.844,10.844,0,0,0-.875,2.117H87.3a1.3,1.3,0,0,0-1.3,1.3v3.581a1.3,1.3,0,0,0,1.3,1.3H89.54a10.841,10.841,0,0,0,.875,2.117l-1.581,1.581a1.3,1.3,0,0,0,0,1.842l2.532,2.532a1.3,1.3,0,0,0,1.842,0l1.582-1.581a10.84,10.84,0,0,0,2.117.875v2.238a1.3,1.3,0,0,0,1.3,1.3h3.581a1.3,1.3,0,0,0,1.3-1.3v-2.238a10.834,10.834,0,0,0,2.117-.875l1.582,1.581a1.3,1.3,0,0,0,1.842,0l2.532-2.532a1.3,1.3,0,0,0,0-1.842l-1.582-1.581a10.842,10.842,0,0,0,.875-2.117H112.7a1.3,1.3,0,0,0,1.3-1.3v-3.581A1.3,1.3,0,0,0,112.7,185.387ZM100,194.665a6.186,6.186,0,1,1,6.186-6.186A6.186,6.186,0,0,1,100,194.665Z" transform="translate(-6 50.097)"/><g transform="translate(119.187 224.577)"><rect class="a" width="10.775" height="4.685" rx="2.342" transform="translate(12.18 0)"/><line class="d" x2="6.09" transform="translate(29.045 2.342)"/><line class="d" x2="6.09" transform="translate(0 2.342)"/></g><g transform="translate(131.212 144.469)"><line class="d" x2="6.09" transform="translate(4.216)"/><line class="d"/></g><g transform="translate(171.478 130.245)"><rect class="a" width="48.231" height="92.794" rx="7.304" transform="translate(14.25 22.29)"/><rect class="b" width="36.54" height="64.345" transform="translate(20.095 35.691)"/><path class="c" d="M279.98,138.685h-2.242a10.847,10.847,0,0,0-.877-2.12l1.584-1.584a1.3,1.3,0,0,0,0-1.845L275.91,130.6a1.3,1.3,0,0,0-1.845,0l-1.584,1.584a10.856,10.856,0,0,0-2.12-.877v-2.242a1.3,1.3,0,0,0-1.3-1.3h-3.587a1.3,1.3,0,0,0-1.3,1.3v2.242a10.851,10.851,0,0,0-2.121.877l-1.584-1.584a1.3,1.3,0,0,0-1.845,0l-2.536,2.536a1.3,1.3,0,0,0,0,1.845l1.584,1.584a10.867,10.867,0,0,0-.876,2.12h-2.242a1.3,1.3,0,0,0-1.3,1.3v3.587a1.3,1.3,0,0,0,1.3,1.3h2.242a10.868,10.868,0,0,0,.876,2.12l-1.584,1.584a1.3,1.3,0,0,0,0,1.845l2.536,2.536a1.3,1.3,0,0,0,1.845,0l1.584-1.584a10.85,10.85,0,0,0,2.121.877V154.5a1.3,1.3,0,0,0,1.3,1.3h3.587a1.3,1.3,0,0,0,1.3-1.3v-2.242a10.855,10.855,0,0,0,2.12-.877l1.584,1.584a1.3,1.3,0,0,0,1.845,0l2.536-2.536a1.3,1.3,0,0,0,0-1.845L276.862,147a10.848,10.848,0,0,0,.877-2.12h2.242a1.3,1.3,0,0,0,1.3-1.3v-3.587A1.3,1.3,0,0,0,279.98,138.685Zm-12.718,9.294a6.2,6.2,0,1,1,6.2-6.2A6.2,6.2,0,0,1,267.263,147.979Z" transform="translate(-253.241 -127.761)"/><circle class="a" cx="2.811" cy="2.811" r="2.811" transform="translate(35.554 105.575)"/><g transform="translate(35.312 26.404)"><line class="d" x2="6.09" transform="translate(0 3.279)"/><line class="d" transform="translate(3.045)"/></g></g></g></svg>