<svg width="537" height="716" viewBox="0 0 537 716" fill="none" xmlns="http://www.w3.org/2000/svg">
<g clip-path="url(#clip0_5197_1441)">
<rect width="537" height="716" fill="#0A0A0A"/>
<g clip-path="url(#clip1_5197_1441)">
<path d="M-1094 -203.116L-713.182 -920.298L-147.188 -374.269L518.859 179.916L916.1 -472.059L1023.63 -651.355L1132.65 -235.713" stroke="white" stroke-opacity="0.7" stroke-width="0.75" stroke-miterlimit="10"/>
<path d="M-1094.23 -193.305L-713.344 -889.303L-148.088 -359.426L512.139 185.106L906.764 -448.664L1016.89 -630.885L1130.3 -212.622" stroke="white" stroke-opacity="0.7" stroke-width="0.75" stroke-miterlimit="10"/>
<path d="M-1094.46 -183.494L-713.518 -858.321L-148.979 -344.585L505.408 190.283L897.415 -425.269L1010.15 -610.403L1127.97 -189.531" stroke="white" stroke-opacity="0.7" stroke-width="0.75" stroke-miterlimit="10"/>
<path d="M-1094.69 -173.684L-713.677 -827.327L-149.876 -329.743L498.69 195.459L888.071 -401.888L1003.42 -589.935L1125.62 -166.442" stroke="white" stroke-opacity="0.7" stroke-width="0.75" stroke-miterlimit="10"/>
<path d="M-1094.93 -163.873L-713.841 -796.346L-150.778 -314.901L491.959 200.649L878.732 -378.493L996.68 -569.453L1123.29 -143.351" stroke="white" stroke-opacity="0.7" stroke-width="0.75" stroke-miterlimit="10"/>
<path d="M-1095.16 -154.075L-714.001 -765.351L-151.665 -300.059L485.231 205.827L869.388 -355.097L989.953 -548.983L1120.94 -120.26" stroke="white" stroke-opacity="0.7" stroke-width="0.75" stroke-miterlimit="10"/>
<path d="M-1095.38 -144.264L-714.173 -734.355L-152.564 -285.216L478.512 211.004L860.041 -331.702L983.213 -528.501L1118.61 -97.1694" stroke="white" stroke-opacity="0.7" stroke-width="0.75" stroke-miterlimit="10"/>
<path d="M-1095.61 -134.453L-714.337 -703.374L-153.456 -270.374L471.78 216.194L850.703 -308.307L976.471 -508.032L1116.26 -74.0789" stroke="white" stroke-opacity="0.7" stroke-width="0.75" stroke-miterlimit="10"/>
<path d="M-1095.84 -124.643L-714.496 -672.38L-154.353 -255.533L465.063 221.37L841.358 -284.913L969.743 -487.55L1113.93 -50.9891" stroke="white" stroke-opacity="0.7" stroke-width="0.75" stroke-miterlimit="10"/>
<path d="M-1096.08 -114.832L-714.66 -641.398L-155.254 -240.704L458.331 226.56L832.009 -261.531L963.002 -467.081L1111.59 -27.8986" stroke="white" stroke-opacity="0.7" stroke-width="0.75" stroke-miterlimit="10"/>
<path d="M-1096.31 -105.021L-714.83 -610.403L-156.141 -225.862L451.604 231.737L822.675 -238.135L956.264 -446.612L1109.25 -4.80775" stroke="white" stroke-opacity="0.7" stroke-width="0.75" stroke-miterlimit="10"/>
<path d="M-1096.53 -95.2102L-714.992 -579.422L-157.041 -211.02L444.884 236.914L813.328 -214.741L949.534 -426.13L1106.91 18.2827" stroke="white" stroke-opacity="0.7" stroke-width="0.75" stroke-miterlimit="10"/>
<path d="M-1096.77 -85.399L-715.155 -548.427L-157.932 -196.178L438.153 242.104L803.98 -191.345L942.793 -405.66L1104.57 41.3736" stroke="white" stroke-opacity="0.7" stroke-width="0.75" stroke-miterlimit="10"/>
<path d="M-1097 -75.5888L-715.315 -517.433L-158.83 -181.336L431.435 247.281L794.645 -167.951L936.055 -385.179L1102.23 64.4634" stroke="white" stroke-opacity="0.7" stroke-width="0.75" stroke-miterlimit="10"/>
<path d="M-1097.23 -65.778L-715.489 -486.451L-159.731 -166.494L424.703 252.457L785.297 -144.556L929.324 -364.71L1099.88 87.5539" stroke="white" stroke-opacity="0.7" stroke-width="0.75" stroke-miterlimit="10"/>
<path d="M-1097.46 -55.9669L-715.649 -455.456L-160.618 -151.652L417.976 257.648L775.952 -121.174L922.586 -344.227L1097.55 110.645" stroke="white" stroke-opacity="0.7" stroke-width="0.75" stroke-miterlimit="10"/>
<path d="M-1097.68 -46.1561L-715.811 -424.475L-161.518 -136.81L411.256 262.825L766.605 -97.7787L915.846 -323.758L1095.21 133.735" stroke="white" stroke-opacity="0.7" stroke-width="0.75" stroke-miterlimit="10"/>
<path d="M-1097.91 -36.3459L-715.97 -393.48L-162.405 -121.969L404.529 268.001L757.271 -74.3843L909.118 -303.277L1092.88 156.825" stroke="white" stroke-opacity="0.7" stroke-width="0.75" stroke-miterlimit="10"/>
<path d="M-1098.15 -26.5347L-716.144 -362.485L-163.306 -107.126L397.807 273.191L747.922 -50.9889L902.377 -282.807L1090.53 179.916" stroke="white" stroke-opacity="0.7" stroke-width="0.75" stroke-miterlimit="10"/>
<path d="M-1098.38 -16.7372L-716.304 -331.504L-164.204 -92.2976L391.08 278.368L738.577 -27.5939L895.639 -262.325L1088.2 203.006" stroke="white" stroke-opacity="0.7" stroke-width="0.75" stroke-miterlimit="10"/>
<path d="M-1098.61 -6.92598L-716.468 -300.509L-165.095 -77.4553L384.348 283.559L729.239 -4.19855L888.908 -241.856L1085.85 226.097" stroke="white" stroke-opacity="0.7" stroke-width="0.75" stroke-miterlimit="10"/>
<path d="M-1098.84 2.88475L-716.63 -269.527L-165.994 -62.6133L377.629 288.735L719.892 19.1831L882.168 -221.374L1083.52 249.188" stroke="white" stroke-opacity="0.7" stroke-width="0.75" stroke-miterlimit="10"/>
<path d="M-1099.07 12.695L-716.8 -238.533L-166.882 -47.772L370.901 293.912L710.548 42.5776L875.43 -200.905L1081.17 272.278" stroke="white" stroke-opacity="0.7" stroke-width="0.75" stroke-miterlimit="10"/>
<path d="M-1099.3 22.5057L-716.963 -207.552L-167.783 -32.93L364.18 299.102L701.209 65.9725L868.699 -180.436L1078.84 295.368" stroke="white" stroke-opacity="0.7" stroke-width="0.75" stroke-miterlimit="10"/>
<path d="M-1099.53 32.3169L-717.123 -176.557L-168.68 -18.0876L357.452 304.279L691.865 89.3678L861.961 -159.954L1076.5 318.472" stroke="white" stroke-opacity="0.7" stroke-width="0.75" stroke-miterlimit="10"/>
<path d="M-1099.77 42.1281L-717.287 -145.562L-169.571 -3.24525L350.721 309.456L682.516 112.763L855.22 -139.484L1074.16 341.563" stroke="white" stroke-opacity="0.7" stroke-width="0.75" stroke-miterlimit="10"/>
<path d="M-1099.99 51.9381L-717.459 -114.581L-170.471 11.596L344.001 314.645L673.18 136.158L848.49 -119.003L1071.82 364.653" stroke="white" stroke-opacity="0.7" stroke-width="0.75" stroke-miterlimit="10"/>
<path d="M-1100.22 61.7497L-717.618 -83.5853L-171.358 26.4388L337.273 319.823L663.835 159.54L841.752 -98.5332L1069.47 387.744" stroke="white" stroke-opacity="0.7" stroke-width="0.75" stroke-miterlimit="10"/>
<path d="M-1100.45 71.5597L-717.782 -52.6045L-172.259 41.2667L330.552 324.999L654.487 182.934L835.011 -78.0518L1067.14 410.834" stroke="white" stroke-opacity="0.7" stroke-width="0.75" stroke-miterlimit="10"/>
<path d="M-1100.68 81.3713L-717.942 -21.6091L-173.157 56.1095L323.825 330.19L645.152 206.33L828.283 -57.582L1064.8 433.925" stroke="white" stroke-opacity="0.7" stroke-width="0.75" stroke-miterlimit="10"/>
<path d="M-1100.92 91.1814L-718.116 9.37171L-174.048 70.9508L317.093 335.366L635.804 229.724L821.541 -37.1006L1062.46 457.015" stroke="white" stroke-opacity="0.7" stroke-width="0.75" stroke-miterlimit="10"/>
<path d="M-1101.14 100.993L-718.278 40.3671L-174.948 85.7934L310.373 340.557L626.457 253.12L814.802 -16.6309L1060.11 480.106" stroke="white" stroke-opacity="0.7" stroke-width="0.75" stroke-miterlimit="10"/>
<path d="M-1101.37 110.804L-718.437 71.3621L-175.835 100.636L303.646 345.734L617.122 276.515L808.074 3.85156L1057.78 503.197" stroke="white" stroke-opacity="0.7" stroke-width="0.75" stroke-miterlimit="10"/>
<path d="M-1101.61 120.614L-718.601 102.343L-176.736 115.477L296.924 350.91L607.774 299.897L801.332 24.3203L1055.44 526.287" stroke="white" stroke-opacity="0.7" stroke-width="0.75" stroke-miterlimit="10"/>
<path d="M-1101.84 130.412L-718.771 133.338L-177.634 130.319L290.197 356.1L598.429 323.292L794.605 44.7891L1053.1 549.377" stroke="white" stroke-opacity="0.7" stroke-width="0.75" stroke-miterlimit="10"/>
<path d="M-1102.07 140.223L-718.934 164.32L-178.525 145.161L283.465 361.277L589.081 346.687L787.863 65.2715L1050.76 572.468" stroke="white" stroke-opacity="0.7" stroke-width="0.75" stroke-miterlimit="10"/>
<path d="M-1102.29 150.033L-719.093 195.314L-179.42 160.003L276.75 366.454L579.748 370.082L781.127 85.7402L1048.43 595.558" stroke="white" stroke-opacity="0.7" stroke-width="0.75" stroke-miterlimit="10"/>
<path d="M-1102.52 159.844L-719.256 226.309L-180.312 174.845L270.018 371.644L570.4 393.477L774.396 106.223L1046.08 618.649" stroke="white" stroke-opacity="0.7" stroke-width="0.75" stroke-miterlimit="10"/>
<path d="M-1102.75 169.655L-719.426 257.29L-181.209 189.674L263.301 376.821L561.055 416.872L767.658 126.691L1043.75 641.739" stroke="white" stroke-opacity="0.7" stroke-width="0.75" stroke-miterlimit="10"/>
<path d="M-1102.99 179.466L-719.59 288.285L-182.11 204.516L256.569 381.998L551.717 440.253L760.916 147.174L1041.4 664.83" stroke="white" stroke-opacity="0.7" stroke-width="0.75" stroke-miterlimit="10"/>
<path d="M-1103.22 189.277L-719.749 319.267L-182.997 219.358L249.842 387.188L542.372 463.648L754.189 167.643L1039.07 687.92" stroke="white" stroke-opacity="0.7" stroke-width="0.75" stroke-miterlimit="10"/>
<path d="M-1103.44 199.088L-719.911 350.261L-183.897 234.2L243.122 392.364L533.025 487.043L747.449 188.125L1036.73 711.011" stroke="white" stroke-opacity="0.7" stroke-width="0.75" stroke-miterlimit="10"/>
<path d="M-1103.68 208.898L-720.085 381.243L-184.788 249.042L236.39 397.554L523.687 510.438L740.707 208.594L1034.38 734.101" stroke="white" stroke-opacity="0.7" stroke-width="0.75" stroke-miterlimit="10"/>
<path d="M-1103.91 218.709L-720.245 412.237L-185.686 263.884L229.673 402.731L514.342 533.833L733.98 229.076L1032.05 757.191" stroke="white" stroke-opacity="0.7" stroke-width="0.75" stroke-miterlimit="10"/>
<path d="M-1104.14 228.52L-720.409 443.232L-186.587 278.726L222.942 407.908L504.994 557.228L727.238 249.545L1029.7 780.281" stroke="white" stroke-opacity="0.7" stroke-width="0.75" stroke-miterlimit="10"/>
<path d="M-1104.37 238.33L-720.568 474.213L-187.474 293.567L216.214 413.097L495.659 580.609L720.5 270.013L1027.37 803.372" stroke="white" stroke-opacity="0.7" stroke-width="0.75" stroke-miterlimit="10"/>
<path d="M-1104.59 248.141L-720.74 505.208L-188.374 308.409L209.494 418.274L486.312 604.004L713.771 290.495L1025.02 826.462" stroke="white" stroke-opacity="0.7" stroke-width="0.75" stroke-miterlimit="10"/>
<path d="M-1104.83 257.953L-720.904 536.191L-189.275 323.239L202.763 423.453L476.964 627.401L707.029 310.966L1022.69 849.554" stroke="white" stroke-opacity="0.7" stroke-width="0.75" stroke-miterlimit="10"/>
<path d="M-1105.06 267.75L-721.064 567.185L-190.162 338.081L196.045 428.642L467.629 650.795L700.292 331.447L1020.35 872.644" stroke="white" stroke-opacity="0.7" stroke-width="0.75" stroke-miterlimit="10"/>
<path d="M-1105.29 277.561L-721.227 598.179L-191.064 352.922L189.314 433.819L458.281 674.19L693.56 351.916L1018.01 895.734" stroke="white" stroke-opacity="0.7" stroke-width="0.75" stroke-miterlimit="10"/>
<path d="M-1105.52 287.371L-721.397 629.161L-191.951 367.764L182.586 438.995L448.936 697.585L686.823 372.398L1015.67 918.824" stroke="white" stroke-opacity="0.7" stroke-width="0.75" stroke-miterlimit="10"/>
<path d="M-1105.75 297.182L-721.559 660.155L-192.85 382.606L175.867 444.185L439.599 720.966L680.082 392.867L1013.33 941.928" stroke="white" stroke-opacity="0.7" stroke-width="0.75" stroke-miterlimit="10"/>
<path d="M-1105.98 306.992L-721.723 691.136L-193.752 397.448L169.135 449.361L430.251 744.361L673.351 413.349L1010.99 965.018" stroke="white" stroke-opacity="0.7" stroke-width="0.75" stroke-miterlimit="10"/>
<path d="M-1106.21 316.805L-721.883 722.133L-194.639 412.291L162.418 454.553L420.907 767.758L666.614 433.819L1008.66 988.11" stroke="white" stroke-opacity="0.7" stroke-width="0.75" stroke-miterlimit="10"/>
<path d="M-1106.45 326.615L-722.056 753.114L-195.54 427.133L155.686 459.73L411.558 791.152L659.872 454.301L1006.31 1011.2" stroke="white" stroke-opacity="0.7" stroke-width="0.75" stroke-miterlimit="10"/>
<path d="M-1106.68 336.426L-722.216 784.108L-196.428 441.975L148.959 464.906L402.223 814.547L653.144 474.77L1003.97 1034.29" stroke="white" stroke-opacity="0.7" stroke-width="0.75" stroke-miterlimit="10"/>
<path d="M-1106.9 346.236L-722.378 815.103L-197.327 456.816L142.239 470.096L392.877 837.942L646.404 495.239L1001.63 1057.38" stroke="white" stroke-opacity="0.7" stroke-width="0.75" stroke-miterlimit="10"/>
<path d="M-1107.13 356.047L-722.538 846.084L-198.224 471.645L135.511 475.273L383.532 861.323L639.667 515.721L999.29 1080.47" stroke="white" stroke-opacity="0.7" stroke-width="0.75" stroke-miterlimit="10"/>
<path d="M-1107.36 365.857L-722.702 877.079L-199.116 486.487L128.79 480.449L374.194 884.718L632.935 536.189L996.954 1103.56" stroke="white" stroke-opacity="0.7" stroke-width="0.75" stroke-miterlimit="10"/>
<path d="M-1107.59 375.668L-722.871 908.06L-200.013 501.328L122.063 485.639L364.849 908.113L626.198 556.671L994.612 1126.65" stroke="white" stroke-opacity="0.7" stroke-width="0.75" stroke-miterlimit="10"/>
<path d="M-1107.83 385.48L-723.035 939.056L-200.904 516.172L115.331 490.817L355.501 931.51L619.456 577.142L992.275 1149.74" stroke="white" stroke-opacity="0.7" stroke-width="0.75" stroke-miterlimit="10"/>
<path d="M-1108.05 395.291L-723.197 970.051L-201.804 531.014L108.611 495.994L346.164 954.904L612.726 597.624L989.931 1172.83" stroke="white" stroke-opacity="0.7" stroke-width="0.75" stroke-miterlimit="10"/>
<path d="M-1108.28 405.088L-723.357 1001.03L-202.701 545.855L101.884 501.184L336.819 978.299L605.989 618.092L987.599 1195.92" stroke="white" stroke-opacity="0.7" stroke-width="0.75" stroke-miterlimit="10"/>
<path d="M-1108.52 414.898L-723.531 1032.03L-203.592 560.697L95.1624 506.36L327.471 1001.68L599.247 638.574L985.253 1219.01" stroke="white" stroke-opacity="0.7" stroke-width="0.75" stroke-miterlimit="10"/>
<path d="M-1108.75 424.709L-723.69 1063.01L-204.49 575.538L88.435 511.55L318.137 1025.07L592.52 659.043L982.921 1242.1" stroke="white" stroke-opacity="0.7" stroke-width="0.75" stroke-miterlimit="10"/>
<path d="M-1108.98 434.52L-723.854 1094L-205.381 590.38L81.7034 516.726L308.788 1048.47L585.778 679.525L980.574 1265.19" stroke="white" stroke-opacity="0.7" stroke-width="0.75" stroke-miterlimit="10"/>
<path d="M-1109.21 444.332L-724.014 1124.99L-206.278 605.211L74.9859 521.905L299.443 1071.87L579.05 699.996L978.242 1288.29" stroke="white" stroke-opacity="0.7" stroke-width="0.75" stroke-miterlimit="10"/>
<path d="M-1109.43 454.143L-724.186 1155.98L-207.178 620.052L68.2561 527.095L290.107 1095.26L572.31 720.464L975.898 1311.38" stroke="white" stroke-opacity="0.7" stroke-width="0.75" stroke-miterlimit="10"/>
<path d="M-1109.67 463.953L-724.35 1186.97L-208.069 634.894L61.5347 532.271L280.758 1118.66L565.569 740.946L973.551 1334.47" stroke="white" stroke-opacity="0.7" stroke-width="0.75" stroke-miterlimit="10"/>
<path d="M-1109.9 473.764L-724.509 1217.96L-208.966 649.736L54.8072 537.448L271.414 1142.05L558.841 761.415L971.219 1357.56" stroke="white" stroke-opacity="0.7" stroke-width="0.75" stroke-miterlimit="10"/>
<path d="M-1110.13 483.574L-724.673 1248.95L-209.858 664.578L48.0756 542.638L262.075 1165.43L552.1 781.897L968.872 1380.65" stroke="white" stroke-opacity="0.7" stroke-width="0.75" stroke-miterlimit="10"/>
<path d="M-1110.36 493.385L-724.843 1279.93L-210.755 679.419L41.3581 547.814L252.731 1188.83L545.362 802.366L966.54 1403.74" stroke="white" stroke-opacity="0.7" stroke-width="0.75" stroke-miterlimit="10"/>
<path d="M-1110.59 503.195L-725.005 1310.93L-211.655 694.261L34.6284 552.991L243.384 1212.22L538.632 822.847L964.196 1426.83" stroke="white" stroke-opacity="0.7" stroke-width="0.75" stroke-miterlimit="10"/>
<path d="M-1110.82 513.006L-725.168 1341.92L-212.546 709.103L27.907 558.181L234.035 1235.62L531.891 843.316L961.86 1449.92" stroke="white" stroke-opacity="0.7" stroke-width="0.75" stroke-miterlimit="10"/>
<path d="M-1111.05 522.818L-725.328 1372.9L-213.443 723.947L21.1794 563.359L224.701 1259.01L525.153 863.8L959.518 1473.01" stroke="white" stroke-opacity="0.7" stroke-width="0.75" stroke-miterlimit="10"/>
<path d="M-1111.29 532.629L-725.502 1403.9L-214.334 738.788L14.4482 568.549L215.352 1282.41L518.422 884.269L957.182 1496.1" stroke="white" stroke-opacity="0.7" stroke-width="0.75" stroke-miterlimit="10"/>
<path d="M-1111.52 542.439L-725.662 1434.88L-215.231 753.617L7.73066 573.725L206.008 1305.79L511.684 904.751L954.84 1519.19" stroke="white" stroke-opacity="0.7" stroke-width="0.75" stroke-miterlimit="10"/>
<path d="M-1111.74 552.236L-725.824 1465.87L-216.131 768.458L1.00075 578.902L196.671 1329.18L504.944 925.219L952.505 1542.28" stroke="white" stroke-opacity="0.7" stroke-width="0.75" stroke-miterlimit="10"/>
<path d="M-1111.97 562.047L-725.987 1496.85L-217.022 783.3L-5.72065 584.091L187.323 1352.58L498.212 945.688L950.159 1565.38" stroke="white" stroke-opacity="0.7" stroke-width="0.75" stroke-miterlimit="10"/>
<path d="M-1112.2 571.859L-726.157 1527.85L-217.92 798.143L-12.4483 589.27L177.978 1375.97L491.475 966.172L947.827 1588.48" stroke="white" stroke-opacity="0.7" stroke-width="0.75" stroke-miterlimit="10"/>
<path d="M-1112.44 581.67L-726.321 1558.84L-218.811 812.985L-19.1796 594.447L168.64 1399.37L484.733 986.64L945.48 1611.57" stroke="white" stroke-opacity="0.7" stroke-width="0.75" stroke-miterlimit="10"/>
<path d="M-1112.67 591.48L-726.481 1589.83L-219.708 827.827L-25.8971 599.636L159.295 1422.76L478.006 1007.12L943.138 1634.66" stroke="white" stroke-opacity="0.7" stroke-width="0.75" stroke-miterlimit="10"/>
</g>
<g clip-path="url(#clip2_5197_1441)">
<path d="M40.9695 45.3776C41.8521 45.8726 42.5452 46.5536 43.0489 47.4208C43.5525 48.2886 43.8041 49.2506 43.8041 50.3075C43.8041 51.3644 43.5525 52.3476 43.0489 53.2148C42.5452 54.082 41.8521 54.7636 40.9695 55.2579C40.0864 55.7528 39.0999 56 38.0107 56C36.9216 56 35.9794 55.7595 35.1036 55.2785C34.2272 54.7974 33.5341 54.1297 33.0243 53.2758C32.5138 52.422 32.2518 51.4732 32.2383 50.4296V40.6097C32.2383 40.42 32.2967 40.2713 32.4142 40.1626C32.531 40.0544 32.6799 40 32.8588 40C33.0519 40 33.2032 40.0544 33.3139 40.1626C33.424 40.2713 33.4794 40.42 33.4794 40.6097V46.9531C33.9345 46.2351 34.5587 45.6689 35.3521 45.2556C36.1448 44.8422 37.031 44.6356 38.0107 44.6356C39.1005 44.6356 40.0864 44.8827 40.9695 45.3776ZM40.3281 54.262C41.0175 53.8626 41.5624 53.3163 41.9628 52.6256C42.3625 51.9343 42.563 51.162 42.563 50.3075C42.563 49.453 42.3631 48.6813 41.9628 47.99C41.5624 47.2987 41.0181 46.7573 40.3281 46.3639C39.638 45.9711 38.8662 45.7741 38.0107 45.7741C37.1553 45.7741 36.3828 45.9705 35.6934 46.3639C35.0033 46.7573 34.4621 47.2987 34.0692 47.99C33.6762 48.6813 33.4794 49.4536 33.4794 50.3075C33.4794 51.1614 33.6762 51.9343 34.0692 52.6256C34.4621 53.3169 35.0033 53.8626 35.6934 54.262C36.3828 54.6621 37.1553 54.8615 38.0107 54.8615C38.8662 54.8615 39.638 54.6615 40.3281 54.262Z" fill="white"/>
<path d="M52.2403 51.1309H47.2852V55.9997H52.2403V51.1309Z" fill="#fe6b00"/>
</g>
<path d="M54.2133 131.85V140.85H76.1133V154.2H54.2133V171H36.5133V118.5H79.1883V131.85H54.2133ZM107.28 157.8H102.48V171H84.7799V118.5H110.055C114.905 118.5 119.13 119.3 122.73 120.9C126.33 122.5 129.105 124.8 131.055 127.8C133.005 130.8 133.98 134.3 133.98 138.3C133.98 142.05 133.13 145.325 131.43 148.125C129.73 150.925 127.28 153.15 124.08 154.8L135.105 171H116.205L107.28 157.8ZM116.13 138.3C116.13 136.35 115.53 134.85 114.33 133.8C113.13 132.7 111.33 132.15 108.93 132.15H102.48V144.45H108.93C111.33 144.45 113.13 143.925 114.33 142.875C115.53 141.775 116.13 140.25 116.13 138.3ZM168.189 172.2C162.539 172.2 157.464 171.025 152.964 168.675C148.464 166.325 144.939 163.075 142.389 158.925C139.839 154.725 138.564 150 138.564 144.75C138.564 139.5 139.839 134.8 142.389 130.65C144.939 126.45 148.464 123.175 152.964 120.825C157.464 118.475 162.539 117.3 168.189 117.3C173.839 117.3 178.914 118.475 183.414 120.825C187.914 123.175 191.439 126.45 193.989 130.65C196.539 134.8 197.814 139.5 197.814 144.75C197.814 150 196.539 154.725 193.989 158.925C191.439 163.075 187.914 166.325 183.414 168.675C178.914 171.025 173.839 172.2 168.189 172.2ZM168.189 157.875C170.389 157.875 172.364 157.35 174.114 156.3C175.914 155.2 177.339 153.675 178.389 151.725C179.439 149.725 179.964 147.4 179.964 144.75C179.964 142.1 179.439 139.8 178.389 137.85C177.339 135.85 175.914 134.325 174.114 133.275C172.364 132.175 170.389 131.625 168.189 131.625C165.989 131.625 163.989 132.175 162.189 133.275C160.439 134.325 159.039 135.85 157.989 137.85C156.939 139.8 156.414 142.1 156.414 144.75C156.414 147.4 156.939 149.725 157.989 151.725C159.039 153.675 160.439 155.2 162.189 156.3C163.989 157.35 165.989 157.875 168.189 157.875ZM251.113 171L250.963 147.075L239.563 166.275H231.763L220.363 147.9V171H204.238V118.5H218.788L235.888 146.475L252.538 118.5H267.088L267.238 171H251.113ZM47.9133 260.225H32.5383V246.5H80.9883V260.225H65.6133V299H47.9133V260.225ZM112.378 300.2C106.728 300.2 101.653 299.025 97.1531 296.675C92.6531 294.325 89.1281 291.075 86.5781 286.925C84.0281 282.725 82.7531 278 82.7531 272.75C82.7531 267.5 84.0281 262.8 86.5781 258.65C89.1281 254.45 92.6531 251.175 97.1531 248.825C101.653 246.475 106.728 245.3 112.378 245.3C118.028 245.3 123.103 246.475 127.603 248.825C132.103 251.175 135.628 254.45 138.178 258.65C140.728 262.8 142.003 267.5 142.003 272.75C142.003 278 140.728 282.725 138.178 286.925C135.628 291.075 132.103 294.325 127.603 296.675C123.103 299.025 118.028 300.2 112.378 300.2ZM112.378 285.875C114.578 285.875 116.553 285.35 118.303 284.3C120.103 283.2 121.528 281.675 122.578 279.725C123.628 277.725 124.153 275.4 124.153 272.75C124.153 270.1 123.628 267.8 122.578 265.85C121.528 263.85 120.103 262.325 118.303 261.275C116.553 260.175 114.578 259.625 112.378 259.625C110.178 259.625 108.178 260.175 106.378 261.275C104.628 262.325 103.228 263.85 102.178 265.85C101.128 267.8 100.603 270.1 100.603 272.75C100.603 275.4 101.128 277.725 102.178 279.725C103.228 281.675 104.628 283.2 106.378 284.3C108.178 285.35 110.178 285.875 112.378 285.875ZM206.688 289.85H186.738L183.213 299H165.213L188.163 246.5H205.563L228.513 299H210.213L206.688 289.85ZM201.813 277.1L196.713 263.9L191.613 277.1H201.813ZM271.523 259.85V268.85H293.423V282.2H271.523V299H253.823V246.5H296.498V259.85H271.523ZM302.089 246.5H319.789V299H302.089V246.5ZM380.06 246.5V299H365.51L345.56 275.15V299H328.31V246.5H342.86L362.81 270.35V246.5H380.06ZM424.363 289.85H404.413L400.888 299H382.888L405.838 246.5H423.238L446.188 299H427.888L424.363 289.85ZM419.488 277.1L414.388 263.9L409.288 277.1H419.488ZM449.013 246.5H466.713V285.275H490.413V299H449.013V246.5ZM61.7883 310.5C66.6383 310.5 70.8633 311.3 74.4633 312.9C78.0633 314.5 80.8383 316.8 82.7883 319.8C84.7383 322.8 85.7133 326.3 85.7133 330.3C85.7133 334.3 84.7383 337.8 82.7883 340.8C80.8383 343.8 78.0633 346.1 74.4633 347.7C70.8633 349.3 66.6383 350.1 61.7883 350.1H54.2133V363H36.5133V310.5H61.7883ZM60.6633 336.45C63.0633 336.45 64.8633 335.925 66.0633 334.875C67.2633 333.775 67.8633 332.25 67.8633 330.3C67.8633 328.35 67.2633 326.85 66.0633 325.8C64.8633 324.7 63.0633 324.15 60.6633 324.15H54.2133V336.45H60.6633ZM114.018 349.8H109.218V363H91.5182V310.5H116.793C121.643 310.5 125.868 311.3 129.468 312.9C133.068 314.5 135.843 316.8 137.793 319.8C139.743 322.8 140.718 326.3 140.718 330.3C140.718 334.05 139.868 337.325 138.168 340.125C136.468 342.925 134.018 345.15 130.818 346.8L141.843 363H122.943L114.018 349.8ZM122.868 330.3C122.868 328.35 122.268 326.85 121.068 325.8C119.868 324.7 118.068 324.15 115.668 324.15H109.218V336.45H115.668C118.068 336.45 119.868 335.925 121.068 334.875C122.268 333.775 122.868 332.25 122.868 330.3ZM174.927 364.2C169.277 364.2 164.202 363.025 159.702 360.675C155.202 358.325 151.677 355.075 149.127 350.925C146.577 346.725 145.302 342 145.302 336.75C145.302 331.5 146.577 326.8 149.127 322.65C151.677 318.45 155.202 315.175 159.702 312.825C164.202 310.475 169.277 309.3 174.927 309.3C180.577 309.3 185.652 310.475 190.152 312.825C194.652 315.175 198.177 318.45 200.727 322.65C203.277 326.8 204.552 331.5 204.552 336.75C204.552 342 203.277 346.725 200.727 350.925C198.177 355.075 194.652 358.325 190.152 360.675C185.652 363.025 180.577 364.2 174.927 364.2ZM174.927 349.875C177.127 349.875 179.102 349.35 180.852 348.3C182.652 347.2 184.077 345.675 185.127 343.725C186.177 341.725 186.702 339.4 186.702 336.75C186.702 334.1 186.177 331.8 185.127 329.85C184.077 327.85 182.652 326.325 180.852 325.275C179.102 324.175 177.127 323.625 174.927 323.625C172.727 323.625 170.727 324.175 168.927 325.275C167.177 326.325 165.777 327.85 164.727 329.85C163.677 331.8 163.152 334.1 163.152 336.75C163.152 339.4 163.677 341.725 164.727 343.725C165.777 345.675 167.177 347.2 168.927 348.3C170.727 349.35 172.727 349.875 174.927 349.875ZM210.976 310.5H236.851C242.701 310.5 247.851 311.575 252.301 313.725C256.801 315.825 260.276 318.85 262.726 322.8C265.226 326.75 266.476 331.4 266.476 336.75C266.476 342.1 265.226 346.75 262.726 350.7C260.276 354.65 256.801 357.7 252.301 359.85C247.851 361.95 242.701 363 236.851 363H210.976V310.5ZM236.101 349.2C239.901 349.2 242.926 348.125 245.176 345.975C247.476 343.775 248.626 340.7 248.626 336.75C248.626 332.8 247.476 329.75 245.176 327.6C242.926 325.4 239.901 324.3 236.101 324.3H228.676V349.2H236.101ZM298.064 364.2C290.014 364.2 283.739 362.025 279.239 357.675C274.739 353.325 272.489 347.225 272.489 339.375V310.5H290.189V338.85C290.189 342.7 290.864 345.5 292.214 347.25C293.614 349 295.614 349.875 298.214 349.875C300.814 349.875 302.789 349 304.139 347.25C305.539 345.5 306.239 342.7 306.239 338.85V310.5H323.639V339.375C323.639 347.225 321.389 353.325 316.889 357.675C312.389 362.025 306.114 364.2 298.064 364.2ZM358.903 364.2C353.353 364.2 348.353 363.05 343.903 360.75C339.453 358.4 335.953 355.15 333.403 351C330.903 346.8 329.653 342.05 329.653 336.75C329.653 331.45 330.903 326.725 333.403 322.575C335.953 318.375 339.453 315.125 343.903 312.825C348.353 310.475 353.353 309.3 358.903 309.3C364.003 309.3 368.553 310.2 372.553 312C376.553 313.8 379.853 316.4 382.453 319.8L371.278 329.775C368.028 325.675 364.203 323.625 359.803 323.625C356.103 323.625 353.128 324.825 350.878 327.225C348.628 329.575 347.503 332.75 347.503 336.75C347.503 340.75 348.628 343.95 350.878 346.35C353.128 348.7 356.103 349.875 359.803 349.875C364.203 349.875 368.028 347.825 371.278 343.725L382.453 353.7C379.853 357.1 376.553 359.7 372.553 361.5C368.553 363.3 364.003 364.2 358.903 364.2ZM398.597 324.225H383.222V310.5H431.672V324.225H416.297V363H398.597V324.225Z" fill="white"/>
<path d="M83.3883 235L83.2383 211.075L71.8383 230.275H64.0383L52.6383 211.9V235H36.5133V182.5H51.0633L68.1633 210.475L84.8133 182.5H99.3633L99.5133 235H83.3883ZM164.171 182.5L141.971 235H124.571L102.371 182.5H121.421L133.946 213.175L146.771 182.5H164.171ZM191.207 182.5C196.057 182.5 200.282 183.3 203.882 184.9C207.482 186.5 210.257 188.8 212.207 191.8C214.157 194.8 215.132 198.3 215.132 202.3C215.132 206.3 214.157 209.8 212.207 212.8C210.257 215.8 207.482 218.1 203.882 219.7C200.282 221.3 196.057 222.1 191.207 222.1H183.632V235H165.932V182.5H191.207ZM190.082 208.45C192.482 208.45 194.282 207.925 195.482 206.875C196.682 205.775 197.282 204.25 197.282 202.3C197.282 200.35 196.682 198.85 195.482 197.8C194.282 196.7 192.482 196.15 190.082 196.15H183.632V208.45H190.082Z" fill="#fe6b00"/>
<path d="M37.2243 508.764H42.7683V511.968H37.2243V508.764ZM37.5123 516H33.2643V503.4H43.5063V506.604H37.5123V516ZM44.8483 516V503.4H50.9143C52.0903 503.4 53.1043 503.592 53.9563 503.976C54.8203 504.36 55.4863 504.912 55.9543 505.632C56.4223 506.34 56.6563 507.18 56.6563 508.152C56.6563 509.124 56.4223 509.964 55.9543 510.672C55.4863 511.368 54.8203 511.902 53.9563 512.274C53.1043 512.646 52.0903 512.832 50.9143 512.832H47.2063L49.0963 511.086V516H44.8483ZM52.3903 516L49.2943 511.41H53.7943L56.9263 516H52.3903ZM49.0963 511.554L47.2063 509.628H50.6443C51.2323 509.628 51.6643 509.496 51.9403 509.232C52.2283 508.968 52.3723 508.608 52.3723 508.152C52.3723 507.696 52.2283 507.336 51.9403 507.072C51.6643 506.808 51.2323 506.676 50.6443 506.676H47.2063L49.0963 504.75V511.554ZM62.1484 508.08H67.7644V511.14H62.1484V508.08ZM62.4364 512.796H68.7364V516H58.2604V503.4H68.5024V506.604H62.4364V512.796ZM74.2597 508.08H79.8757V511.14H74.2597V508.08ZM74.5477 512.796H80.8477V516H70.3717V503.4H80.6137V506.604H74.5477V512.796ZM91.7675 508.08H97.3835V511.14H91.7675V508.08ZM92.0555 512.796H98.3555V516H87.8795V503.4H98.1215V506.604H92.0555V512.796ZM99.9908 516V503.4H106.723C108.463 503.4 109.747 503.712 110.575 504.336C111.403 504.948 111.817 505.734 111.817 506.694C111.817 507.33 111.637 507.9 111.277 508.404C110.929 508.896 110.419 509.286 109.747 509.574C109.075 509.862 108.247 510.006 107.263 510.006L107.623 509.034C108.607 509.034 109.453 509.172 110.161 509.448C110.881 509.724 111.433 510.126 111.817 510.654C112.213 511.17 112.411 511.794 112.411 512.526C112.411 513.618 111.955 514.47 111.043 515.082C110.143 515.694 108.823 516 107.083 516H99.9908ZM104.167 513.03H106.723C107.191 513.03 107.539 512.946 107.767 512.778C108.007 512.61 108.127 512.364 108.127 512.04C108.127 511.716 108.007 511.47 107.767 511.302C107.539 511.134 107.191 511.05 106.723 511.05H103.879V508.242H106.147C106.627 508.242 106.975 508.164 107.191 508.008C107.419 507.84 107.533 507.606 107.533 507.306C107.533 506.994 107.419 506.76 107.191 506.604C106.975 506.448 106.627 506.37 106.147 506.37H104.167V513.03ZM120.519 516.288C119.499 516.288 118.551 516.126 117.675 515.802C116.811 515.478 116.061 515.022 115.425 514.434C114.789 513.834 114.291 513.132 113.931 512.328C113.583 511.524 113.409 510.648 113.409 509.7C113.409 508.74 113.583 507.864 113.931 507.072C114.291 506.268 114.789 505.572 115.425 504.984C116.061 504.384 116.811 503.922 117.675 503.598C118.551 503.274 119.499 503.112 120.519 503.112C121.551 503.112 122.499 503.274 123.363 503.598C124.227 503.922 124.977 504.384 125.613 504.984C126.249 505.572 126.741 506.268 127.089 507.072C127.449 507.864 127.629 508.74 127.629 509.7C127.629 510.648 127.449 511.524 127.089 512.328C126.741 513.132 126.249 513.834 125.613 514.434C124.977 515.022 124.227 515.478 123.363 515.802C122.499 516.126 121.551 516.288 120.519 516.288ZM120.519 512.85C120.915 512.85 121.281 512.778 121.617 512.634C121.965 512.49 122.265 512.286 122.517 512.022C122.781 511.746 122.985 511.416 123.129 511.032C123.273 510.636 123.345 510.192 123.345 509.7C123.345 509.208 123.273 508.77 123.129 508.386C122.985 507.99 122.781 507.66 122.517 507.396C122.265 507.12 121.965 506.91 121.617 506.766C121.281 506.622 120.915 506.55 120.519 506.55C120.123 506.55 119.751 506.622 119.403 506.766C119.067 506.91 118.767 507.12 118.503 507.396C118.251 507.66 118.053 507.99 117.909 508.386C117.765 508.77 117.693 509.208 117.693 509.7C117.693 510.192 117.765 510.636 117.909 511.032C118.053 511.416 118.251 511.746 118.503 512.022C118.767 512.286 119.067 512.49 119.403 512.634C119.751 512.778 120.123 512.85 120.519 512.85ZM135.777 516.288C134.757 516.288 133.809 516.126 132.933 515.802C132.069 515.478 131.319 515.022 130.683 514.434C130.047 513.834 129.549 513.132 129.189 512.328C128.841 511.524 128.667 510.648 128.667 509.7C128.667 508.74 128.841 507.864 129.189 507.072C129.549 506.268 130.047 505.572 130.683 504.984C131.319 504.384 132.069 503.922 132.933 503.598C133.809 503.274 134.757 503.112 135.777 503.112C136.809 503.112 137.757 503.274 138.621 503.598C139.485 503.922 140.235 504.384 140.871 504.984C141.507 505.572 141.999 506.268 142.347 507.072C142.707 507.864 142.887 508.74 142.887 509.7C142.887 510.648 142.707 511.524 142.347 512.328C141.999 513.132 141.507 513.834 140.871 514.434C140.235 515.022 139.485 515.478 138.621 515.802C137.757 516.126 136.809 516.288 135.777 516.288ZM135.777 512.85C136.173 512.85 136.539 512.778 136.875 512.634C137.223 512.49 137.523 512.286 137.775 512.022C138.039 511.746 138.243 511.416 138.387 511.032C138.531 510.636 138.603 510.192 138.603 509.7C138.603 509.208 138.531 508.77 138.387 508.386C138.243 507.99 138.039 507.66 137.775 507.396C137.523 507.12 137.223 506.91 136.875 506.766C136.539 506.622 136.173 506.55 135.777 506.55C135.381 506.55 135.009 506.622 134.661 506.766C134.325 506.91 134.025 507.12 133.761 507.396C133.509 507.66 133.311 507.99 133.167 508.386C133.023 508.77 132.951 509.208 132.951 509.7C132.951 510.192 133.023 510.636 133.167 511.032C133.311 511.416 133.509 511.746 133.761 512.022C134.025 512.286 134.325 512.49 134.661 512.634C135.009 512.778 135.381 512.85 135.777 512.85ZM148.226 513.3L147.992 508.638L152.744 503.4H157.37L152.042 509.268L149.684 511.68L148.226 513.3ZM144.428 516V503.4H148.604V516H144.428ZM152.708 516L149 511.104L151.754 508.188L157.622 516H152.708ZM167.549 508.764H173.093V511.968H167.549V508.764ZM167.837 516H163.589V503.4H173.831V506.604H167.837V516ZM181.691 516.288C180.671 516.288 179.723 516.126 178.847 515.802C177.983 515.478 177.233 515.022 176.597 514.434C175.961 513.834 175.463 513.132 175.103 512.328C174.755 511.524 174.581 510.648 174.581 509.7C174.581 508.74 174.755 507.864 175.103 507.072C175.463 506.268 175.961 505.572 176.597 504.984C177.233 504.384 177.983 503.922 178.847 503.598C179.723 503.274 180.671 503.112 181.691 503.112C182.723 503.112 183.671 503.274 184.535 503.598C185.399 503.922 186.149 504.384 186.785 504.984C187.421 505.572 187.913 506.268 188.261 507.072C188.621 507.864 188.801 508.74 188.801 509.7C188.801 510.648 188.621 511.524 188.261 512.328C187.913 513.132 187.421 513.834 186.785 514.434C186.149 515.022 185.399 515.478 184.535 515.802C183.671 516.126 182.723 516.288 181.691 516.288ZM181.691 512.85C182.087 512.85 182.453 512.778 182.789 512.634C183.137 512.49 183.437 512.286 183.689 512.022C183.953 511.746 184.157 511.416 184.301 511.032C184.445 510.636 184.517 510.192 184.517 509.7C184.517 509.208 184.445 508.77 184.301 508.386C184.157 507.99 183.953 507.66 183.689 507.396C183.437 507.12 183.137 506.91 182.789 506.766C182.453 506.622 182.087 506.55 181.691 506.55C181.295 506.55 180.923 506.622 180.575 506.766C180.239 506.91 179.939 507.12 179.675 507.396C179.423 507.66 179.225 507.99 179.081 508.386C178.937 508.77 178.865 509.208 178.865 509.7C178.865 510.192 178.937 510.636 179.081 511.032C179.225 511.416 179.423 511.746 179.675 512.022C179.939 512.286 180.239 512.49 180.575 512.634C180.923 512.778 181.295 512.85 181.691 512.85ZM190.342 516V503.4H196.408C197.584 503.4 198.598 503.592 199.45 503.976C200.314 504.36 200.98 504.912 201.448 505.632C201.916 506.34 202.15 507.18 202.15 508.152C202.15 509.124 201.916 509.964 201.448 510.672C200.98 511.368 200.314 511.902 199.45 512.274C198.598 512.646 197.584 512.832 196.408 512.832H192.7L194.59 511.086V516H190.342ZM197.884 516L194.788 511.41H199.288L202.42 516H197.884ZM194.59 511.554L192.7 509.628H196.138C196.726 509.628 197.158 509.496 197.434 509.232C197.722 508.968 197.866 508.608 197.866 508.152C197.866 507.696 197.722 507.336 197.434 507.072C197.158 506.808 196.726 506.676 196.138 506.676H192.7L194.59 504.75V511.554ZM213.849 516.288C212.793 516.288 211.773 516.168 210.789 515.928C209.805 515.688 208.995 515.376 208.359 514.992L209.727 511.896C210.327 512.244 210.993 512.526 211.725 512.742C212.469 512.946 213.189 513.048 213.885 513.048C214.293 513.048 214.611 513.024 214.839 512.976C215.079 512.916 215.253 512.838 215.361 512.742C215.469 512.634 215.523 512.508 215.523 512.364C215.523 512.136 215.397 511.956 215.145 511.824C214.893 511.692 214.557 511.584 214.137 511.5C213.729 511.404 213.279 511.308 212.787 511.212C212.295 511.104 211.797 510.966 211.293 510.798C210.801 510.63 210.345 510.408 209.925 510.132C209.517 509.856 209.187 509.496 208.935 509.052C208.683 508.596 208.557 508.032 208.557 507.36C208.557 506.58 208.773 505.872 209.205 505.236C209.649 504.588 210.303 504.072 211.167 503.688C212.043 503.304 213.129 503.112 214.425 503.112C215.277 503.112 216.117 503.202 216.945 503.382C217.773 503.562 218.517 503.838 219.177 504.21L217.899 507.288C217.275 506.976 216.669 506.742 216.081 506.586C215.505 506.43 214.941 506.352 214.389 506.352C213.981 506.352 213.657 506.388 213.417 506.46C213.177 506.532 213.003 506.628 212.895 506.748C212.799 506.868 212.751 507 212.751 507.144C212.751 507.36 212.877 507.534 213.129 507.666C213.381 507.786 213.711 507.888 214.119 507.972C214.539 508.056 214.995 508.146 215.487 508.242C215.991 508.338 216.489 508.47 216.981 508.638C217.473 508.806 217.923 509.028 218.331 509.304C218.751 509.58 219.087 509.94 219.339 510.384C219.591 510.828 219.717 511.38 219.717 512.04C219.717 512.808 219.495 513.516 219.051 514.164C218.619 514.8 217.971 515.316 217.107 515.712C216.243 516.096 215.157 516.288 213.849 516.288ZM223.541 516V506.694H219.851V503.4H231.479V506.694H227.789V516H223.541ZM230.582 516L236.09 503.4H240.266L245.774 516H241.382L237.314 505.416H238.97L234.902 516H230.582ZM233.858 513.804L234.938 510.744H240.734L241.814 513.804H233.858ZM246.452 516V503.4H252.518C253.694 503.4 254.708 503.592 255.56 503.976C256.424 504.36 257.09 504.912 257.558 505.632C258.026 506.34 258.26 507.18 258.26 508.152C258.26 509.124 258.026 509.964 257.558 510.672C257.09 511.368 256.424 511.902 255.56 512.274C254.708 512.646 253.694 512.832 252.518 512.832H248.81L250.7 511.086V516H246.452ZM253.994 516L250.898 511.41H255.398L258.53 516H253.994ZM250.7 511.554L248.81 509.628H252.248C252.836 509.628 253.268 509.496 253.544 509.232C253.832 508.968 253.976 508.608 253.976 508.152C253.976 507.696 253.832 507.336 253.544 507.072C253.268 506.808 252.836 506.676 252.248 506.676H248.81L250.7 504.75V511.554ZM262.424 516V506.694H258.734V503.4H270.362V506.694H266.672V516H262.424ZM277.32 516.288C275.388 516.288 273.882 515.766 272.802 514.722C271.722 513.678 271.182 512.214 271.182 510.33V503.4H275.43V510.204C275.43 511.164 275.604 511.848 275.952 512.256C276.3 512.652 276.768 512.85 277.356 512.85C277.956 512.85 278.424 512.652 278.76 512.256C279.108 511.848 279.282 511.164 279.282 510.204V503.4H283.458V510.33C283.458 512.214 282.918 513.678 281.838 514.722C280.758 515.766 279.252 516.288 277.32 516.288ZM285.405 516V503.4H291.471C292.647 503.4 293.661 503.592 294.513 503.976C295.377 504.36 296.043 504.912 296.511 505.632C296.979 506.34 297.213 507.18 297.213 508.152C297.213 509.124 296.979 509.964 296.511 510.672C296.043 511.38 295.377 511.932 294.513 512.328C293.661 512.712 292.647 512.904 291.471 512.904H287.763L289.653 511.086V516H285.405ZM289.653 511.554L287.763 509.628H291.201C291.789 509.628 292.221 509.496 292.497 509.232C292.785 508.968 292.929 508.608 292.929 508.152C292.929 507.696 292.785 507.336 292.497 507.072C292.221 506.808 291.789 506.676 291.201 506.676H287.763L289.653 504.75V511.554ZM308.138 508.764H313.682V511.968H308.138V508.764ZM308.426 516H304.178V503.4H314.42V506.604H308.426V516ZM322.28 516.288C321.26 516.288 320.312 516.126 319.436 515.802C318.572 515.478 317.822 515.022 317.186 514.434C316.55 513.834 316.052 513.132 315.692 512.328C315.344 511.524 315.17 510.648 315.17 509.7C315.17 508.74 315.344 507.864 315.692 507.072C316.052 506.268 316.55 505.572 317.186 504.984C317.822 504.384 318.572 503.922 319.436 503.598C320.312 503.274 321.26 503.112 322.28 503.112C323.312 503.112 324.26 503.274 325.124 503.598C325.988 503.922 326.738 504.384 327.374 504.984C328.01 505.572 328.502 506.268 328.85 507.072C329.21 507.864 329.39 508.74 329.39 509.7C329.39 510.648 329.21 511.524 328.85 512.328C328.502 513.132 328.01 513.834 327.374 514.434C326.738 515.022 325.988 515.478 325.124 515.802C324.26 516.126 323.312 516.288 322.28 516.288ZM322.28 512.85C322.676 512.85 323.042 512.778 323.378 512.634C323.726 512.49 324.026 512.286 324.278 512.022C324.542 511.746 324.746 511.416 324.89 511.032C325.034 510.636 325.106 510.192 325.106 509.7C325.106 509.208 325.034 508.77 324.89 508.386C324.746 507.99 324.542 507.66 324.278 507.396C324.026 507.12 323.726 506.91 323.378 506.766C323.042 506.622 322.676 506.55 322.28 506.55C321.884 506.55 321.512 506.622 321.164 506.766C320.828 506.91 320.528 507.12 320.264 507.396C320.012 507.66 319.814 507.99 319.67 508.386C319.526 508.77 319.454 509.208 319.454 509.7C319.454 510.192 319.526 510.636 319.67 511.032C319.814 511.416 320.012 511.746 320.264 512.022C320.528 512.286 320.828 512.49 321.164 512.634C321.512 512.778 321.884 512.85 322.28 512.85ZM336.962 516.288C335.03 516.288 333.524 515.766 332.444 514.722C331.364 513.678 330.824 512.214 330.824 510.33V503.4H335.072V510.204C335.072 511.164 335.246 511.848 335.594 512.256C335.942 512.652 336.41 512.85 336.998 512.85C337.598 512.85 338.066 512.652 338.402 512.256C338.75 511.848 338.924 511.164 338.924 510.204V503.4H343.1V510.33C343.1 512.214 342.56 513.678 341.48 514.722C340.4 515.766 338.894 516.288 336.962 516.288ZM345.047 516V503.4H348.539L354.947 511.068H353.327V503.4H357.467V516H353.975L347.567 508.332H349.187V516H345.047ZM359.514 516V503.4H365.724C367.128 503.4 368.364 503.658 369.432 504.174C370.5 504.678 371.334 505.398 371.934 506.334C372.534 507.27 372.834 508.386 372.834 509.682C372.834 510.99 372.534 512.118 371.934 513.066C371.334 514.002 370.5 514.728 369.432 515.244C368.364 515.748 367.128 516 365.724 516H359.514ZM363.762 512.688H365.544C366.144 512.688 366.666 512.574 367.11 512.346C367.566 512.118 367.92 511.782 368.172 511.338C368.424 510.882 368.55 510.33 368.55 509.682C368.55 509.046 368.424 508.506 368.172 508.062C367.92 507.618 367.566 507.282 367.11 507.054C366.666 506.826 366.144 506.712 365.544 506.712H363.762V512.688ZM378.273 508.08H383.889V511.14H378.273V508.08ZM378.561 512.796H384.861V516H374.385V503.4H384.627V506.604H378.561V512.796ZM386.497 516V503.4H392.563C393.739 503.4 394.753 503.592 395.605 503.976C396.469 504.36 397.135 504.912 397.603 505.632C398.071 506.34 398.305 507.18 398.305 508.152C398.305 509.124 398.071 509.964 397.603 510.672C397.135 511.368 396.469 511.902 395.605 512.274C394.753 512.646 393.739 512.832 392.563 512.832H388.855L390.745 511.086V516H386.497ZM394.039 516L390.943 511.41H395.443L398.575 516H394.039ZM390.745 511.554L388.855 509.628H392.293C392.881 509.628 393.313 509.496 393.589 509.232C393.877 508.968 394.021 508.608 394.021 508.152C394.021 507.696 393.877 507.336 393.589 507.072C393.313 506.808 392.881 506.676 392.293 506.676H388.855L390.745 504.75V511.554ZM404.607 516.288C403.551 516.288 402.531 516.168 401.547 515.928C400.563 515.688 399.753 515.376 399.117 514.992L400.485 511.896C401.085 512.244 401.751 512.526 402.483 512.742C403.227 512.946 403.947 513.048 404.643 513.048C405.051 513.048 405.369 513.024 405.597 512.976C405.837 512.916 406.011 512.838 406.119 512.742C406.227 512.634 406.281 512.508 406.281 512.364C406.281 512.136 406.155 511.956 405.903 511.824C405.651 511.692 405.315 511.584 404.895 511.5C404.487 511.404 404.037 511.308 403.545 511.212C403.053 511.104 402.555 510.966 402.051 510.798C401.559 510.63 401.103 510.408 400.683 510.132C400.275 509.856 399.945 509.496 399.693 509.052C399.441 508.596 399.315 508.032 399.315 507.36C399.315 506.58 399.531 505.872 399.963 505.236C400.407 504.588 401.061 504.072 401.925 503.688C402.801 503.304 403.887 503.112 405.183 503.112C406.035 503.112 406.875 503.202 407.703 503.382C408.531 503.562 409.275 503.838 409.935 504.21L408.657 507.288C408.033 506.976 407.427 506.742 406.839 506.586C406.263 506.43 405.699 506.352 405.147 506.352C404.739 506.352 404.415 506.388 404.175 506.46C403.935 506.532 403.761 506.628 403.653 506.748C403.557 506.868 403.509 507 403.509 507.144C403.509 507.36 403.635 507.534 403.887 507.666C404.139 507.786 404.469 507.888 404.877 507.972C405.297 508.056 405.753 508.146 406.245 508.242C406.749 508.338 407.247 508.47 407.739 508.638C408.231 508.806 408.681 509.028 409.089 509.304C409.509 509.58 409.845 509.94 410.097 510.384C410.349 510.828 410.475 511.38 410.475 512.04C410.475 512.808 410.253 513.516 409.809 514.164C409.377 514.8 408.729 515.316 407.865 515.712C407.001 516.096 405.915 516.288 404.607 516.288ZM411.694 518.88L413.206 513.822L413.8 516.09C413.104 516.09 412.534 515.892 412.09 515.496C411.646 515.088 411.424 514.536 411.424 513.84C411.424 513.132 411.646 512.574 412.09 512.166C412.546 511.746 413.116 511.536 413.8 511.536C414.484 511.536 415.048 511.746 415.492 512.166C415.948 512.574 416.176 513.132 416.176 513.84C416.176 514.032 416.158 514.224 416.122 514.416C416.098 514.608 416.038 514.842 415.942 515.118C415.846 515.382 415.69 515.742 415.474 516.198L414.214 518.88H411.694ZM39.7803 532.288C38.7723 532.288 37.8363 532.132 36.9723 531.82C36.1203 531.496 35.3763 531.04 34.7403 530.452C34.1163 529.864 33.6303 529.168 33.2823 528.364C32.9343 527.56 32.7603 526.672 32.7603 525.7C32.7603 524.728 32.9343 523.84 33.2823 523.036C33.6303 522.232 34.1163 521.536 34.7403 520.948C35.3763 520.36 36.1203 519.91 36.9723 519.598C37.8363 519.274 38.7723 519.112 39.7803 519.112C41.0163 519.112 42.1083 519.328 43.0563 519.76C44.0163 520.192 44.8083 520.816 45.4323 521.632L42.7503 524.026C42.3783 523.558 41.9643 523.198 41.5083 522.946C41.0643 522.682 40.5603 522.55 39.9963 522.55C39.5523 522.55 39.1503 522.622 38.7903 522.766C38.4303 522.91 38.1183 523.12 37.8543 523.396C37.6023 523.672 37.4043 524.008 37.2603 524.404C37.1163 524.788 37.0443 525.22 37.0443 525.7C37.0443 526.18 37.1163 526.618 37.2603 527.014C37.4043 527.398 37.6023 527.728 37.8543 528.004C38.1183 528.28 38.4303 528.49 38.7903 528.634C39.1503 528.778 39.5523 528.85 39.9963 528.85C40.5603 528.85 41.0643 528.724 41.5083 528.472C41.9643 528.208 42.3783 527.842 42.7503 527.374L45.4323 529.768C44.8083 530.572 44.0163 531.196 43.0563 531.64C42.1083 532.072 41.0163 532.288 39.7803 532.288ZM49.3069 532V522.694H45.6169V519.4H57.2449V522.694H53.5549V532H49.3069ZM64.7785 532.288C63.7585 532.288 62.8105 532.126 61.9345 531.802C61.0705 531.478 60.3205 531.022 59.6845 530.434C59.0485 529.834 58.5505 529.132 58.1905 528.328C57.8425 527.524 57.6685 526.648 57.6685 525.7C57.6685 524.74 57.8425 523.864 58.1905 523.072C58.5505 522.268 59.0485 521.572 59.6845 520.984C60.3205 520.384 61.0705 519.922 61.9345 519.598C62.8105 519.274 63.7585 519.112 64.7785 519.112C65.8105 519.112 66.7585 519.274 67.6225 519.598C68.4865 519.922 69.2365 520.384 69.8725 520.984C70.5085 521.572 71.0005 522.268 71.3485 523.072C71.7085 523.864 71.8885 524.74 71.8885 525.7C71.8885 526.648 71.7085 527.524 71.3485 528.328C71.0005 529.132 70.5085 529.834 69.8725 530.434C69.2365 531.022 68.4865 531.478 67.6225 531.802C66.7585 532.126 65.8105 532.288 64.7785 532.288ZM64.7785 528.85C65.1745 528.85 65.5405 528.778 65.8765 528.634C66.2245 528.49 66.5245 528.286 66.7765 528.022C67.0405 527.746 67.2445 527.416 67.3885 527.032C67.5325 526.636 67.6045 526.192 67.6045 525.7C67.6045 525.208 67.5325 524.77 67.3885 524.386C67.2445 523.99 67.0405 523.66 66.7765 523.396C66.5245 523.12 66.2245 522.91 65.8765 522.766C65.5405 522.622 65.1745 522.55 64.7785 522.55C64.3825 522.55 64.0105 522.622 63.6625 522.766C63.3265 522.91 63.0265 523.12 62.7625 523.396C62.5105 523.66 62.3125 523.99 62.1685 524.386C62.0245 524.77 61.9525 525.208 61.9525 525.7C61.9525 526.192 62.0245 526.636 62.1685 527.032C62.3125 527.416 62.5105 527.746 62.7625 528.022C63.0265 528.286 63.3265 528.49 63.6625 528.634C64.0105 528.778 64.3825 528.85 64.7785 528.85ZM77.1563 532.18C76.3163 532.18 75.4883 532.09 74.6723 531.91C73.8563 531.73 73.1963 531.496 72.6923 531.208L73.8083 528.526C74.2763 528.802 74.8163 529.018 75.4283 529.174C76.0523 529.33 76.6583 529.408 77.2463 529.408C77.7383 529.408 78.0683 529.366 78.2363 529.282C78.4163 529.198 78.5063 529.084 78.5063 528.94C78.5063 528.796 78.4043 528.694 78.2003 528.634C77.9963 528.562 77.7263 528.508 77.3903 528.472C77.0543 528.436 76.6823 528.394 76.2743 528.346C75.8783 528.286 75.4763 528.202 75.0683 528.094C74.6603 527.986 74.2883 527.824 73.9523 527.608C73.6163 527.392 73.3463 527.104 73.1423 526.744C72.9383 526.372 72.8363 525.904 72.8363 525.34C72.8363 524.716 73.0223 524.152 73.3943 523.648C73.7783 523.144 74.3423 522.742 75.0863 522.442C75.8423 522.13 76.7723 521.974 77.8763 521.974C78.5963 521.974 79.3163 522.04 80.0363 522.172C80.7563 522.304 81.3743 522.508 81.8903 522.784L80.7743 525.466C80.2703 525.19 79.7723 525.004 79.2803 524.908C78.8003 524.8 78.3503 524.746 77.9303 524.746C77.4143 524.746 77.0603 524.794 76.8683 524.89C76.6883 524.986 76.5983 525.094 76.5983 525.214C76.5983 525.358 76.7003 525.466 76.9043 525.538C77.1083 525.61 77.3783 525.664 77.7143 525.7C78.0503 525.736 78.4163 525.784 78.8123 525.844C79.2203 525.892 79.6223 525.976 80.0183 526.096C80.4263 526.204 80.7983 526.366 81.1343 526.582C81.4703 526.798 81.7403 527.092 81.9443 527.464C82.1483 527.824 82.2503 528.286 82.2503 528.85C82.2503 529.438 82.0643 529.99 81.6923 530.506C81.3203 531.01 80.7563 531.418 80.0003 531.73C79.2443 532.03 78.2963 532.18 77.1563 532.18ZM93.7025 532.288C92.6945 532.288 91.7945 532.132 91.0025 531.82C90.2105 531.496 89.5865 531.058 89.1305 530.506C88.6745 529.954 88.4465 529.33 88.4465 528.634C88.4465 527.938 88.5965 527.326 88.8965 526.798C89.2085 526.258 89.6825 525.778 90.3185 525.358C90.9665 524.926 91.7825 524.524 92.7665 524.152C93.3665 523.924 93.8345 523.714 94.1705 523.522C94.5185 523.33 94.7645 523.15 94.9085 522.982C95.0525 522.802 95.1245 522.628 95.1245 522.46C95.1245 522.268 95.0585 522.112 94.9265 521.992C94.8065 521.872 94.6205 521.812 94.3685 521.812C94.0925 521.812 93.8765 521.884 93.7205 522.028C93.5765 522.16 93.5045 522.328 93.5045 522.532C93.5045 522.664 93.5345 522.796 93.5945 522.928C93.6665 523.06 93.7985 523.222 93.9905 523.414C94.1825 523.594 94.4525 523.834 94.8005 524.134L101.425 529.768L99.2465 532.234L91.6145 525.682C91.2065 525.346 90.8705 525.01 90.6065 524.674C90.3425 524.326 90.1445 523.978 90.0125 523.63C89.8805 523.282 89.8145 522.934 89.8145 522.586C89.8145 521.914 90.0005 521.326 90.3725 520.822C90.7565 520.306 91.2845 519.904 91.9565 519.616C92.6405 519.328 93.4385 519.184 94.3505 519.184C95.1905 519.184 95.9225 519.316 96.5465 519.58C97.1705 519.832 97.6565 520.198 98.0045 520.678C98.3525 521.158 98.5265 521.722 98.5265 522.37C98.5265 522.946 98.3765 523.468 98.0765 523.936C97.7885 524.404 97.3385 524.83 96.7265 525.214C96.1265 525.598 95.3645 525.964 94.4405 526.312C93.9605 526.492 93.5705 526.678 93.2705 526.87C92.9705 527.062 92.7545 527.266 92.6225 527.482C92.4905 527.686 92.4245 527.92 92.4245 528.184C92.4245 528.376 92.4845 528.556 92.6045 528.724C92.7365 528.892 92.9165 529.024 93.1445 529.12C93.3845 529.216 93.6725 529.264 94.0085 529.264C94.6565 529.264 95.2625 529.096 95.8265 528.76C96.4025 528.412 96.8945 527.914 97.3025 527.266C97.7225 526.618 98.0105 525.844 98.1665 524.944L101.425 525.916C101.149 527.152 100.645 528.25 99.9125 529.21C99.1925 530.17 98.2985 530.926 97.2305 531.478C96.1745 532.018 94.9985 532.288 93.7025 532.288ZM108.393 532V519.4H114.459C115.635 519.4 116.649 519.592 117.501 519.976C118.365 520.36 119.031 520.912 119.499 521.632C119.967 522.34 120.201 523.18 120.201 524.152C120.201 525.124 119.967 525.964 119.499 526.672C119.031 527.38 118.365 527.932 117.501 528.328C116.649 528.712 115.635 528.904 114.459 528.904H110.751L112.641 527.086V532H108.393ZM112.641 527.554L110.751 525.628H114.189C114.777 525.628 115.209 525.496 115.485 525.232C115.773 524.968 115.917 524.608 115.917 524.152C115.917 523.696 115.773 523.336 115.485 523.072C115.209 522.808 114.777 522.676 114.189 522.676H110.751L112.641 520.75V527.554ZM121.594 532V519.4H127.66C128.836 519.4 129.85 519.592 130.702 519.976C131.566 520.36 132.232 520.912 132.7 521.632C133.168 522.34 133.402 523.18 133.402 524.152C133.402 525.124 133.168 525.964 132.7 526.672C132.232 527.368 131.566 527.902 130.702 528.274C129.85 528.646 128.836 528.832 127.66 528.832H123.952L125.842 527.086V532H121.594ZM129.136 532L126.04 527.41H130.54L133.672 532H129.136ZM125.842 527.554L123.952 525.628H127.39C127.978 525.628 128.41 525.496 128.686 525.232C128.974 524.968 129.118 524.608 129.118 524.152C129.118 523.696 128.974 523.336 128.686 523.072C128.41 522.808 127.978 522.676 127.39 522.676H123.952L125.842 520.75V527.554ZM141.612 532.288C140.592 532.288 139.644 532.126 138.768 531.802C137.904 531.478 137.154 531.022 136.518 530.434C135.882 529.834 135.384 529.132 135.024 528.328C134.676 527.524 134.502 526.648 134.502 525.7C134.502 524.74 134.676 523.864 135.024 523.072C135.384 522.268 135.882 521.572 136.518 520.984C137.154 520.384 137.904 519.922 138.768 519.598C139.644 519.274 140.592 519.112 141.612 519.112C142.644 519.112 143.592 519.274 144.456 519.598C145.32 519.922 146.07 520.384 146.706 520.984C147.342 521.572 147.834 522.268 148.182 523.072C148.542 523.864 148.722 524.74 148.722 525.7C148.722 526.648 148.542 527.524 148.182 528.328C147.834 529.132 147.342 529.834 146.706 530.434C146.07 531.022 145.32 531.478 144.456 531.802C143.592 532.126 142.644 532.288 141.612 532.288ZM141.612 528.85C142.008 528.85 142.374 528.778 142.71 528.634C143.058 528.49 143.358 528.286 143.61 528.022C143.874 527.746 144.078 527.416 144.222 527.032C144.366 526.636 144.438 526.192 144.438 525.7C144.438 525.208 144.366 524.77 144.222 524.386C144.078 523.99 143.874 523.66 143.61 523.396C143.358 523.12 143.058 522.91 142.71 522.766C142.374 522.622 142.008 522.55 141.612 522.55C141.216 522.55 140.844 522.622 140.496 522.766C140.16 522.91 139.86 523.12 139.596 523.396C139.344 523.66 139.146 523.99 139.002 524.386C138.858 524.77 138.786 525.208 138.786 525.7C138.786 526.192 138.858 526.636 139.002 527.032C139.146 527.416 139.344 527.746 139.596 528.022C139.86 528.286 140.16 528.49 140.496 528.634C140.844 528.778 141.216 528.85 141.612 528.85ZM150.264 532V519.4H156.474C157.878 519.4 159.114 519.658 160.182 520.174C161.25 520.678 162.084 521.398 162.684 522.334C163.284 523.27 163.584 524.386 163.584 525.682C163.584 526.99 163.284 528.118 162.684 529.066C162.084 530.002 161.25 530.728 160.182 531.244C159.114 531.748 157.878 532 156.474 532H150.264ZM154.512 528.688H156.294C156.894 528.688 157.416 528.574 157.86 528.346C158.316 528.118 158.67 527.782 158.922 527.338C159.174 526.882 159.3 526.33 159.3 525.682C159.3 525.046 159.174 524.506 158.922 524.062C158.67 523.618 158.316 523.282 157.86 523.054C157.416 522.826 156.894 522.712 156.294 522.712H154.512V528.688ZM171.165 532.288C169.233 532.288 167.727 531.766 166.647 530.722C165.567 529.678 165.027 528.214 165.027 526.33V519.4H169.275V526.204C169.275 527.164 169.449 527.848 169.797 528.256C170.145 528.652 170.613 528.85 171.201 528.85C171.801 528.85 172.269 528.652 172.605 528.256C172.953 527.848 173.127 527.164 173.127 526.204V519.4H177.303V526.33C177.303 528.214 176.763 529.678 175.683 530.722C174.603 531.766 173.097 532.288 171.165 532.288ZM185.767 532.288C184.759 532.288 183.823 532.132 182.959 531.82C182.107 531.496 181.363 531.04 180.727 530.452C180.103 529.864 179.617 529.168 179.269 528.364C178.921 527.56 178.747 526.672 178.747 525.7C178.747 524.728 178.921 523.84 179.269 523.036C179.617 522.232 180.103 521.536 180.727 520.948C181.363 520.36 182.107 519.91 182.959 519.598C183.823 519.274 184.759 519.112 185.767 519.112C187.003 519.112 188.095 519.328 189.043 519.76C190.003 520.192 190.795 520.816 191.419 521.632L188.737 524.026C188.365 523.558 187.951 523.198 187.495 522.946C187.051 522.682 186.547 522.55 185.983 522.55C185.539 522.55 185.137 522.622 184.777 522.766C184.417 522.91 184.105 523.12 183.841 523.396C183.589 523.672 183.391 524.008 183.247 524.404C183.103 524.788 183.031 525.22 183.031 525.7C183.031 526.18 183.103 526.618 183.247 527.014C183.391 527.398 183.589 527.728 183.841 528.004C184.105 528.28 184.417 528.49 184.777 528.634C185.137 528.778 185.539 528.85 185.983 528.85C186.547 528.85 187.051 528.724 187.495 528.472C187.951 528.208 188.365 527.842 188.737 527.374L191.419 529.768C190.795 530.572 190.003 531.196 189.043 531.64C188.095 532.072 187.003 532.288 185.767 532.288ZM195.293 532V522.694H191.603V519.4H203.231V522.694H199.541V532H195.293ZM216.337 532.288C215.317 532.288 214.369 532.126 213.493 531.802C212.629 531.478 211.879 531.022 211.243 530.434C210.607 529.834 210.109 529.132 209.749 528.328C209.401 527.524 209.227 526.648 209.227 525.7C209.227 524.74 209.401 523.864 209.749 523.072C210.109 522.268 210.607 521.572 211.243 520.984C211.879 520.384 212.629 519.922 213.493 519.598C214.369 519.274 215.317 519.112 216.337 519.112C217.369 519.112 218.317 519.274 219.181 519.598C220.045 519.922 220.795 520.384 221.431 520.984C222.067 521.572 222.559 522.268 222.907 523.072C223.267 523.864 223.447 524.74 223.447 525.7C223.447 526.648 223.267 527.524 222.907 528.328C222.559 529.132 222.067 529.834 221.431 530.434C220.795 531.022 220.045 531.478 219.181 531.802C218.317 532.126 217.369 532.288 216.337 532.288ZM216.337 528.85C216.733 528.85 217.099 528.778 217.435 528.634C217.783 528.49 218.083 528.286 218.335 528.022C218.599 527.746 218.803 527.416 218.947 527.032C219.091 526.636 219.163 526.192 219.163 525.7C219.163 525.208 219.091 524.77 218.947 524.386C218.803 523.99 218.599 523.66 218.335 523.396C218.083 523.12 217.783 522.91 217.435 522.766C217.099 522.622 216.733 522.55 216.337 522.55C215.941 522.55 215.569 522.622 215.221 522.766C214.885 522.91 214.585 523.12 214.321 523.396C214.069 523.66 213.871 523.99 213.727 524.386C213.583 524.77 213.511 525.208 213.511 525.7C213.511 526.192 213.583 526.636 213.727 527.032C213.871 527.416 214.069 527.746 214.321 528.022C214.585 528.286 214.885 528.49 215.221 528.634C215.569 528.778 215.941 528.85 216.337 528.85ZM227.735 532L223.703 519.4H228.077L231.335 530.038H229.139L232.595 519.4H236.501L239.723 530.038H237.617L241.019 519.4H245.051L241.019 532H236.465L233.837 523.288H235.061L232.289 532H227.735ZM245.995 532V519.4H249.487L255.895 527.068H254.275V519.4H258.415V532H254.923L248.515 524.332H250.135V532H245.995ZM264.35 524.08H269.966V527.14H264.35V524.08ZM264.638 528.796H270.938V532H260.462V519.4H270.704V522.604H264.638V528.796ZM272.573 532V519.4H278.639C279.815 519.4 280.829 519.592 281.681 519.976C282.545 520.36 283.211 520.912 283.679 521.632C284.147 522.34 284.381 523.18 284.381 524.152C284.381 525.124 284.147 525.964 283.679 526.672C283.211 527.368 282.545 527.902 281.681 528.274C280.829 528.646 279.815 528.832 278.639 528.832H274.931L276.821 527.086V532H272.573ZM280.115 532L277.019 527.41H281.519L284.651 532H280.115ZM276.821 527.554L274.931 525.628H278.369C278.957 525.628 279.389 525.496 279.665 525.232C279.953 524.968 280.097 524.608 280.097 524.152C280.097 523.696 279.953 523.336 279.665 523.072C279.389 522.808 278.957 522.676 278.369 522.676H274.931L276.821 520.75V527.554ZM290.683 532.288C289.627 532.288 288.607 532.168 287.623 531.928C286.639 531.688 285.829 531.376 285.193 530.992L286.561 527.896C287.161 528.244 287.827 528.526 288.559 528.742C289.303 528.946 290.023 529.048 290.719 529.048C291.127 529.048 291.445 529.024 291.673 528.976C291.913 528.916 292.087 528.838 292.195 528.742C292.303 528.634 292.357 528.508 292.357 528.364C292.357 528.136 292.231 527.956 291.979 527.824C291.727 527.692 291.391 527.584 290.971 527.5C290.563 527.404 290.113 527.308 289.621 527.212C289.129 527.104 288.631 526.966 288.127 526.798C287.635 526.63 287.179 526.408 286.759 526.132C286.351 525.856 286.021 525.496 285.769 525.052C285.517 524.596 285.391 524.032 285.391 523.36C285.391 522.58 285.607 521.872 286.039 521.236C286.483 520.588 287.137 520.072 288.001 519.688C288.877 519.304 289.963 519.112 291.259 519.112C292.111 519.112 292.951 519.202 293.779 519.382C294.607 519.562 295.351 519.838 296.011 520.21L294.733 523.288C294.109 522.976 293.503 522.742 292.915 522.586C292.339 522.43 291.775 522.352 291.223 522.352C290.815 522.352 290.491 522.388 290.251 522.46C290.011 522.532 289.837 522.628 289.729 522.748C289.633 522.868 289.585 523 289.585 523.144C289.585 523.36 289.711 523.534 289.963 523.666C290.215 523.786 290.545 523.888 290.953 523.972C291.373 524.056 291.829 524.146 292.321 524.242C292.825 524.338 293.323 524.47 293.815 524.638C294.307 524.806 294.757 525.028 295.165 525.304C295.585 525.58 295.921 525.94 296.173 526.384C296.425 526.828 296.551 527.38 296.551 528.04C296.551 528.808 296.329 529.516 295.885 530.164C295.453 530.8 294.805 531.316 293.941 531.712C293.077 532.096 291.991 532.288 290.683 532.288Z" fill="white"/>
<path d="M35.8883 676.04C35.3683 676.04 34.9016 675.92 34.4883 675.68C34.0749 675.433 33.7483 675.1 33.5083 674.68C33.2683 674.26 33.1449 673.787 33.1383 673.26V668.7C33.1383 668.547 33.1849 668.423 33.2783 668.33C33.3783 668.237 33.5016 668.19 33.6483 668.19C33.8016 668.19 33.9249 668.237 34.0183 668.33C34.1116 668.423 34.1583 668.547 34.1583 668.7V671.4C34.3916 671.12 34.6716 670.9 34.9983 670.74C35.3316 670.573 35.6949 670.49 36.0883 670.49C36.5749 670.49 37.0116 670.613 37.3983 670.86C37.7849 671.1 38.0883 671.43 38.3083 671.85C38.5349 672.263 38.6483 672.733 38.6483 673.26C38.6483 673.787 38.5249 674.26 38.2783 674.68C38.0383 675.1 37.7116 675.433 37.2983 675.68C36.8849 675.92 36.4149 676.04 35.8883 676.04ZM35.8883 675.14C36.2283 675.14 36.5316 675.06 36.7983 674.9C37.0649 674.733 37.2749 674.507 37.4283 674.22C37.5883 673.933 37.6683 673.613 37.6683 673.26C37.6683 672.9 37.5883 672.58 37.4283 672.3C37.2749 672.02 37.0649 671.8 36.7983 671.64C36.5316 671.473 36.2283 671.39 35.8883 671.39C35.5549 671.39 35.2516 671.473 34.9783 671.64C34.7116 671.8 34.5016 672.02 34.3483 672.3C34.1949 672.58 34.1183 672.9 34.1183 673.26C34.1183 673.613 34.1949 673.933 34.3483 674.22C34.5016 674.507 34.7116 674.733 34.9783 674.9C35.2516 675.06 35.5549 675.14 35.8883 675.14ZM40.8468 678.4C40.7801 678.4 40.7001 678.38 40.6068 678.34C40.3135 678.207 40.2335 677.997 40.3668 677.71L43.4168 670.82C43.5501 670.54 43.7601 670.46 44.0468 670.58C44.3468 670.707 44.4301 670.917 44.2968 671.21L41.2368 678.09C41.1568 678.297 41.0268 678.4 40.8468 678.4ZM42.0268 675.78C41.9001 675.833 41.7801 675.84 41.6668 675.8C41.5601 675.753 41.4735 675.667 41.4068 675.54L39.1168 671.19C39.0501 671.063 39.0401 670.943 39.0868 670.83C39.1401 670.71 39.2301 670.623 39.3568 670.57C39.4835 670.517 39.6035 670.513 39.7168 670.56C39.8301 670.6 39.9168 670.683 39.9768 670.81L42.1668 675.16C42.2335 675.287 42.2568 675.41 42.2368 675.53C42.2235 675.643 42.1535 675.727 42.0268 675.78ZM50.9371 676.04C50.4171 676.04 49.9504 675.92 49.5371 675.68C49.1238 675.433 48.7971 675.1 48.5571 674.68C48.3171 674.26 48.1938 673.787 48.1871 673.26V668.7C48.1871 668.547 48.2338 668.423 48.3271 668.33C48.4271 668.237 48.5504 668.19 48.6971 668.19C48.8504 668.19 48.9738 668.237 49.0671 668.33C49.1604 668.423 49.2071 668.547 49.2071 668.7V671.4C49.4404 671.12 49.7204 670.9 50.0471 670.74C50.3804 670.573 50.7438 670.49 51.1371 670.49C51.6238 670.49 52.0604 670.613 52.4471 670.86C52.8338 671.1 53.1371 671.43 53.3571 671.85C53.5838 672.263 53.6971 672.733 53.6971 673.26C53.6971 673.787 53.5738 674.26 53.3271 674.68C53.0871 675.1 52.7604 675.433 52.3471 675.68C51.9338 675.92 51.4638 676.04 50.9371 676.04ZM50.9371 675.14C51.2771 675.14 51.5804 675.06 51.8471 674.9C52.1138 674.733 52.3238 674.507 52.4771 674.22C52.6371 673.933 52.7171 673.613 52.7171 673.26C52.7171 672.9 52.6371 672.58 52.4771 672.3C52.3238 672.02 52.1138 671.8 51.8471 671.64C51.5804 671.473 51.2771 671.39 50.9371 671.39C50.6038 671.39 50.3004 671.473 50.0271 671.64C49.7604 671.8 49.5504 672.02 49.3971 672.3C49.2438 672.58 49.1671 672.9 49.1671 673.26C49.1671 673.613 49.2438 673.933 49.3971 674.22C49.5504 674.507 49.7604 674.733 50.0271 674.9C50.3004 675.06 50.6038 675.14 50.9371 675.14ZM55.7084 672.58C55.7084 672.18 55.805 671.823 55.9984 671.51C56.1984 671.19 56.465 670.937 56.7984 670.75C57.1317 670.563 57.4984 670.47 57.8984 670.47C58.2984 670.47 58.595 670.537 58.7884 670.67C58.9884 670.797 59.065 670.95 59.0184 671.13C58.9984 671.223 58.9584 671.297 58.8984 671.35C58.845 671.397 58.7817 671.427 58.7084 671.44C58.635 671.453 58.555 671.45 58.4684 671.43C58.0417 671.343 57.6584 671.337 57.3184 671.41C56.9784 671.483 56.7084 671.62 56.5084 671.82C56.315 672.02 56.2184 672.273 56.2184 672.58H55.7084ZM55.7184 676C55.5584 676 55.435 675.96 55.3484 675.88C55.2617 675.793 55.2184 675.667 55.2184 675.5V671.03C55.2184 670.87 55.2617 670.747 55.3484 670.66C55.435 670.573 55.5584 670.53 55.7184 670.53C55.885 670.53 56.0084 670.573 56.0884 670.66C56.175 670.74 56.2184 670.863 56.2184 671.03V675.5C56.2184 675.66 56.175 675.783 56.0884 675.87C56.0084 675.957 55.885 676 55.7184 676ZM60.6916 676C60.545 676 60.4216 675.953 60.3216 675.86C60.2283 675.76 60.1816 675.637 60.1816 675.49V671.04C60.1816 670.887 60.2283 670.763 60.3216 670.67C60.4216 670.577 60.545 670.53 60.6916 670.53C60.845 670.53 60.9683 670.577 61.0616 670.67C61.155 670.763 61.2016 670.887 61.2016 671.04V675.49C61.2016 675.637 61.155 675.76 61.0616 675.86C60.9683 675.953 60.845 676 60.6916 676ZM60.6916 669.64C60.5116 669.64 60.355 669.577 60.2216 669.45C60.095 669.317 60.0316 669.16 60.0316 668.98C60.0316 668.8 60.095 668.647 60.2216 668.52C60.355 668.387 60.5116 668.32 60.6916 668.32C60.8716 668.32 61.025 668.387 61.1516 668.52C61.285 668.647 61.3516 668.8 61.3516 668.98C61.3516 669.16 61.285 669.317 61.1516 669.45C61.025 669.577 60.8716 669.64 60.6916 669.64ZM65.3792 676.04C64.8792 676.04 64.4359 675.923 64.0492 675.69C63.6692 675.45 63.3692 675.123 63.1492 674.71C62.9292 674.29 62.8192 673.81 62.8192 673.27C62.8192 672.723 62.9359 672.243 63.1692 671.83C63.4092 671.41 63.7359 671.083 64.1492 670.85C64.5626 670.61 65.0392 670.49 65.5792 670.49C66.1126 670.49 66.5859 670.61 66.9992 670.85C67.4126 671.083 67.7359 671.41 67.9692 671.83C68.2092 672.243 68.3292 672.723 68.3292 673.27H67.7392C67.7392 673.81 67.6359 674.29 67.4292 674.71C67.2292 675.123 66.9526 675.45 66.5992 675.69C66.2459 675.923 65.8392 676.04 65.3792 676.04ZM65.5592 678.27C65.0859 678.27 64.6426 678.177 64.2292 677.99C63.8159 677.803 63.4659 677.53 63.1792 677.17C63.0926 677.057 63.0592 676.94 63.0792 676.82C63.1059 676.7 63.1726 676.603 63.2792 676.53C63.3992 676.45 63.5226 676.423 63.6492 676.45C63.7826 676.477 63.8892 676.543 63.9692 676.65C64.1492 676.877 64.3759 677.053 64.6492 677.18C64.9226 677.307 65.2326 677.37 65.5792 677.37C65.8992 677.37 66.1926 677.293 66.4592 677.14C66.7326 676.987 66.9492 676.76 67.1092 676.46C67.2692 676.16 67.3492 675.793 67.3492 675.36V673.94L67.6792 673.06L68.3292 673.27V675.43C68.3292 675.957 68.2126 676.433 67.9792 676.86C67.7459 677.293 67.4192 677.637 66.9992 677.89C66.5859 678.143 66.1059 678.27 65.5592 678.27ZM65.5792 675.14C65.9259 675.14 66.2326 675.06 66.4992 674.9C66.7659 674.74 66.9726 674.52 67.1192 674.24C67.2726 673.96 67.3492 673.637 67.3492 673.27C67.3492 672.903 67.2726 672.58 67.1192 672.3C66.9726 672.013 66.7659 671.79 66.4992 671.63C66.2326 671.47 65.9259 671.39 65.5792 671.39C65.2326 671.39 64.9259 671.47 64.6592 671.63C64.3926 671.79 64.1826 672.013 64.0292 672.3C63.8759 672.58 63.7992 672.903 63.7992 673.27C63.7992 673.637 63.8759 673.96 64.0292 674.24C64.1826 674.52 64.3926 674.74 64.6592 674.9C64.9259 675.06 65.2326 675.14 65.5792 675.14ZM70.3573 674.01C70.2106 674.01 70.0873 673.963 69.9873 673.87C69.8939 673.77 69.8473 673.647 69.8473 673.5V668.7C69.8473 668.547 69.8939 668.423 69.9873 668.33C70.0873 668.237 70.2106 668.19 70.3573 668.19C70.5106 668.19 70.6339 668.237 70.7273 668.33C70.8206 668.423 70.8673 668.547 70.8673 668.7V673.5C70.8673 673.647 70.8206 673.77 70.7273 673.87C70.6339 673.963 70.5106 674.01 70.3573 674.01ZM74.4673 676.01C74.3206 676.01 74.1973 675.963 74.0973 675.87C74.0039 675.77 73.9573 675.647 73.9573 675.5V673.04C73.9573 672.66 73.8873 672.35 73.7473 672.11C73.6073 671.87 73.4173 671.693 73.1773 671.58C72.9439 671.46 72.6739 671.4 72.3673 671.4C72.0873 671.4 71.8339 671.457 71.6073 671.57C71.3806 671.683 71.2006 671.837 71.0673 672.03C70.9339 672.217 70.8673 672.433 70.8673 672.68H70.2373C70.2373 672.26 70.3373 671.887 70.5373 671.56C70.7439 671.227 71.0239 670.963 71.3773 670.77C71.7306 670.577 72.1273 670.48 72.5673 670.48C73.0273 670.48 73.4373 670.58 73.7973 670.78C74.1639 670.973 74.4506 671.26 74.6573 671.64C74.8706 672.02 74.9773 672.487 74.9773 673.04V675.5C74.9773 675.647 74.9273 675.77 74.8273 675.87C74.7339 675.963 74.6139 676.01 74.4673 676.01ZM70.3573 676.01C70.2106 676.01 70.0873 675.963 69.9873 675.87C69.8939 675.77 69.8473 675.647 69.8473 675.5V671.04C69.8473 670.887 69.8939 670.763 69.9873 670.67C70.0873 670.577 70.2106 670.53 70.3573 670.53C70.5106 670.53 70.6339 670.577 70.7273 670.67C70.8206 670.763 70.8673 670.887 70.8673 671.04V675.5C70.8673 675.647 70.8206 675.77 70.7273 675.87C70.6339 675.963 70.5106 676.01 70.3573 676.01ZM78.6634 676C78.3301 676 78.0301 675.917 77.7634 675.75C77.4968 675.577 77.2868 675.343 77.1334 675.05C76.9801 674.757 76.9034 674.427 76.9034 674.06V669.29C76.9034 669.143 76.9501 669.023 77.0434 668.93C77.1368 668.837 77.2568 668.79 77.4034 668.79C77.5501 668.79 77.6701 668.837 77.7634 668.93C77.8568 669.023 77.9034 669.143 77.9034 669.29V674.06C77.9034 674.327 77.9768 674.55 78.1234 674.73C78.2701 674.91 78.4501 675 78.6634 675H79.0034C79.1234 675 79.2234 675.047 79.3034 675.14C79.3901 675.233 79.4334 675.353 79.4334 675.5C79.4334 675.647 79.3768 675.767 79.2634 675.86C79.1568 675.953 79.0168 676 78.8434 676H78.6634ZM76.4434 671.59C76.3034 671.59 76.1901 671.55 76.1034 671.47C76.0168 671.39 75.9734 671.29 75.9734 671.17C75.9734 671.037 76.0168 670.93 76.1034 670.85C76.1901 670.77 76.3034 670.73 76.4434 670.73H78.7534C78.8934 670.73 79.0068 670.77 79.0934 670.85C79.1801 670.93 79.2234 671.037 79.2234 671.17C79.2234 671.29 79.1801 671.39 79.0934 671.47C79.0068 671.55 78.8934 671.59 78.7534 671.59H76.4434ZM84.2268 676C84.0801 676 83.9568 675.953 83.8568 675.86C83.7635 675.76 83.7168 675.637 83.7168 675.49V671.04C83.7168 670.887 83.7635 670.763 83.8568 670.67C83.9568 670.577 84.0801 670.53 84.2268 670.53C84.3801 670.53 84.5035 670.577 84.5968 670.67C84.6901 670.763 84.7368 670.887 84.7368 671.04V675.49C84.7368 675.637 84.6901 675.76 84.5968 675.86C84.5035 675.953 84.3801 676 84.2268 676ZM84.2268 669.64C84.0468 669.64 83.8901 669.577 83.7568 669.45C83.6301 669.317 83.5668 669.16 83.5668 668.98C83.5668 668.8 83.6301 668.647 83.7568 668.52C83.8901 668.387 84.0468 668.32 84.2268 668.32C84.4068 668.32 84.5601 668.387 84.6868 668.52C84.8201 668.647 84.8868 668.8 84.8868 668.98C84.8868 669.16 84.8201 669.317 84.6868 669.45C84.5601 669.577 84.4068 669.64 84.2268 669.64ZM91.2544 676.01C91.1077 676.01 90.9844 675.963 90.8844 675.87C90.791 675.77 90.7444 675.647 90.7444 675.5V673.04C90.7444 672.66 90.6744 672.35 90.5344 672.11C90.3944 671.87 90.2044 671.693 89.9644 671.58C89.731 671.46 89.461 671.4 89.1544 671.4C88.8744 671.4 88.621 671.457 88.3944 671.57C88.1677 671.683 87.9877 671.837 87.8544 672.03C87.721 672.217 87.6544 672.433 87.6544 672.68H87.0244C87.0244 672.26 87.1244 671.887 87.3244 671.56C87.531 671.227 87.811 670.963 88.1644 670.77C88.5177 670.577 88.9144 670.48 89.3544 670.48C89.8144 670.48 90.2244 670.58 90.5844 670.78C90.951 670.973 91.2377 671.26 91.4444 671.64C91.6577 672.02 91.7644 672.487 91.7644 673.04V675.5C91.7644 675.647 91.7144 675.77 91.6144 675.87C91.521 675.963 91.401 676.01 91.2544 676.01ZM87.1444 676.01C86.9977 676.01 86.8744 675.963 86.7744 675.87C86.681 675.77 86.6344 675.647 86.6344 675.5V671.04C86.6344 670.887 86.681 670.763 86.7744 670.67C86.8744 670.577 86.9977 670.53 87.1444 670.53C87.2977 670.53 87.421 670.577 87.5144 670.67C87.6077 670.763 87.6544 670.887 87.6544 671.04V675.5C87.6544 675.647 87.6077 675.77 87.5144 675.87C87.421 675.963 87.2977 676.01 87.1444 676.01ZM94.998 675.99C94.7914 675.99 94.6314 675.88 94.518 675.66L92.398 671.19C92.3447 671.077 92.338 670.967 92.378 670.86C92.4247 670.747 92.5114 670.66 92.638 670.6C92.7514 670.54 92.8647 670.53 92.978 670.57C93.098 670.61 93.188 670.687 93.248 670.8L95.228 675.07H94.748L96.708 670.8C96.768 670.687 96.858 670.61 96.978 670.57C97.1047 670.53 97.2314 670.54 97.358 670.6C97.478 670.653 97.558 670.737 97.598 670.85C97.638 670.963 97.6314 671.077 97.578 671.19L95.458 675.66C95.358 675.88 95.2047 675.99 94.998 675.99ZM101.001 676.04C100.448 676.04 99.9546 675.923 99.5213 675.69C99.0946 675.45 98.7579 675.123 98.5113 674.71C98.2713 674.29 98.1513 673.81 98.1513 673.27C98.1513 672.723 98.2646 672.243 98.4913 671.83C98.7246 671.41 99.0446 671.083 99.4513 670.85C99.8579 670.61 100.325 670.49 100.851 670.49C101.371 670.49 101.818 670.607 102.191 670.84C102.565 671.067 102.848 671.383 103.041 671.79C103.241 672.19 103.341 672.653 103.341 673.18C103.341 673.307 103.298 673.413 103.211 673.5C103.125 673.58 103.015 673.62 102.881 673.62H98.8512V672.82H102.851L102.441 673.1C102.435 672.767 102.368 672.47 102.241 672.21C102.115 671.943 101.935 671.733 101.701 671.58C101.468 671.427 101.185 671.35 100.851 671.35C100.471 671.35 100.145 671.433 99.8713 671.6C99.6046 671.767 99.4013 671.997 99.2613 672.29C99.1213 672.577 99.0513 672.903 99.0513 673.27C99.0513 673.637 99.1346 673.963 99.3013 674.25C99.4679 674.537 99.6979 674.763 99.9913 674.93C100.285 675.097 100.621 675.18 101.001 675.18C101.208 675.18 101.418 675.143 101.631 675.07C101.851 674.99 102.028 674.9 102.161 674.8C102.261 674.727 102.368 674.69 102.481 674.69C102.601 674.683 102.705 674.717 102.791 674.79C102.905 674.89 102.965 675 102.971 675.12C102.978 675.24 102.925 675.343 102.811 675.43C102.585 675.61 102.301 675.757 101.961 675.87C101.628 675.983 101.308 676.04 101.001 676.04ZM109.262 676.01C109.116 676.01 108.992 675.963 108.892 675.87C108.799 675.77 108.752 675.647 108.752 675.5V673.04C108.752 672.66 108.682 672.35 108.542 672.11C108.402 671.87 108.212 671.693 107.972 671.58C107.739 671.46 107.469 671.4 107.162 671.4C106.882 671.4 106.629 671.457 106.402 671.57C106.176 671.683 105.996 671.837 105.862 672.03C105.729 672.217 105.662 672.433 105.662 672.68H105.032C105.032 672.26 105.132 671.887 105.332 671.56C105.539 671.227 105.819 670.963 106.172 670.77C106.526 670.577 106.922 670.48 107.362 670.48C107.822 670.48 108.232 670.58 108.592 670.78C108.959 670.973 109.246 671.26 109.452 671.64C109.666 672.02 109.772 672.487 109.772 673.04V675.5C109.772 675.647 109.722 675.77 109.622 675.87C109.529 675.963 109.409 676.01 109.262 676.01ZM105.152 676.01C105.006 676.01 104.882 675.963 104.782 675.87C104.689 675.77 104.642 675.647 104.642 675.5V671.04C104.642 670.887 104.689 670.763 104.782 670.67C104.882 670.577 105.006 670.53 105.152 670.53C105.306 670.53 105.429 670.577 105.522 670.67C105.616 670.763 105.662 670.887 105.662 671.04V675.5C105.662 675.647 105.616 675.77 105.522 675.87C105.429 675.963 105.306 676.01 105.152 676.01ZM113.449 676C113.115 676 112.815 675.917 112.549 675.75C112.282 675.577 112.072 675.343 111.919 675.05C111.765 674.757 111.689 674.427 111.689 674.06V669.29C111.689 669.143 111.735 669.023 111.829 668.93C111.922 668.837 112.042 668.79 112.189 668.79C112.335 668.79 112.455 668.837 112.549 668.93C112.642 669.023 112.689 669.143 112.689 669.29V674.06C112.689 674.327 112.762 674.55 112.909 674.73C113.055 674.91 113.235 675 113.449 675H113.789C113.909 675 114.009 675.047 114.089 675.14C114.175 675.233 114.219 675.353 114.219 675.5C114.219 675.647 114.162 675.767 114.049 675.86C113.942 675.953 113.802 676 113.629 676H113.449ZM111.229 671.59C111.089 671.59 110.975 671.55 110.889 671.47C110.802 671.39 110.759 671.29 110.759 671.17C110.759 671.037 110.802 670.93 110.889 670.85C110.975 670.77 111.089 670.73 111.229 670.73H113.539C113.679 670.73 113.792 670.77 113.879 670.85C113.965 670.93 114.009 671.037 114.009 671.17C114.009 671.29 113.965 671.39 113.879 671.47C113.792 671.55 113.679 671.59 113.539 671.59H111.229ZM116.082 676C115.936 676 115.812 675.953 115.712 675.86C115.619 675.76 115.572 675.637 115.572 675.49V671.04C115.572 670.887 115.619 670.763 115.712 670.67C115.812 670.577 115.936 670.53 116.082 670.53C116.236 670.53 116.359 670.577 116.452 670.67C116.546 670.763 116.592 670.887 116.592 671.04V675.49C116.592 675.637 116.546 675.76 116.452 675.86C116.359 675.953 116.236 676 116.082 676ZM116.082 669.64C115.902 669.64 115.746 669.577 115.612 669.45C115.486 669.317 115.422 669.16 115.422 668.98C115.422 668.8 115.486 668.647 115.612 668.52C115.746 668.387 115.902 668.32 116.082 668.32C116.262 668.32 116.416 668.387 116.542 668.52C116.676 668.647 116.742 668.8 116.742 668.98C116.742 669.16 116.676 669.317 116.542 669.45C116.416 669.577 116.262 669.64 116.082 669.64ZM120.97 676.04C120.43 676.04 119.953 675.923 119.54 675.69C119.127 675.45 118.8 675.123 118.56 674.71C118.327 674.29 118.21 673.81 118.21 673.27C118.21 672.723 118.327 672.243 118.56 671.83C118.8 671.41 119.127 671.083 119.54 670.85C119.953 670.61 120.43 670.49 120.97 670.49C121.503 670.49 121.977 670.61 122.39 670.85C122.803 671.083 123.127 671.41 123.36 671.83C123.6 672.243 123.72 672.723 123.72 673.27C123.72 673.81 123.603 674.29 123.37 674.71C123.137 675.123 122.813 675.45 122.4 675.69C121.987 675.923 121.51 676.04 120.97 676.04ZM120.97 675.14C121.317 675.14 121.623 675.06 121.89 674.9C122.157 674.74 122.363 674.52 122.51 674.24C122.663 673.96 122.74 673.637 122.74 673.27C122.74 672.903 122.663 672.58 122.51 672.3C122.363 672.013 122.157 671.79 121.89 671.63C121.623 671.47 121.317 671.39 120.97 671.39C120.623 671.39 120.317 671.47 120.05 671.63C119.783 671.79 119.573 672.013 119.42 672.3C119.267 672.58 119.19 672.903 119.19 673.27C119.19 673.637 119.267 673.96 119.42 674.24C119.573 674.52 119.783 674.74 120.05 674.9C120.317 675.06 120.623 675.14 120.97 675.14ZM129.858 676.01C129.711 676.01 129.588 675.963 129.488 675.87C129.395 675.77 129.348 675.647 129.348 675.5V673.04C129.348 672.66 129.278 672.35 129.138 672.11C128.998 671.87 128.808 671.693 128.568 671.58C128.335 671.46 128.065 671.4 127.758 671.4C127.478 671.4 127.225 671.457 126.998 671.57C126.771 671.683 126.591 671.837 126.458 672.03C126.325 672.217 126.258 672.433 126.258 672.68H125.628C125.628 672.26 125.728 671.887 125.928 671.56C126.135 671.227 126.415 670.963 126.768 670.77C127.121 670.577 127.518 670.48 127.958 670.48C128.418 670.48 128.828 670.58 129.188 670.78C129.555 670.973 129.841 671.26 130.048 671.64C130.261 672.02 130.368 672.487 130.368 673.04V675.5C130.368 675.647 130.318 675.77 130.218 675.87C130.125 675.963 130.005 676.01 129.858 676.01ZM125.748 676.01C125.601 676.01 125.478 675.963 125.378 675.87C125.285 675.77 125.238 675.647 125.238 675.5V671.04C125.238 670.887 125.285 670.763 125.378 670.67C125.478 670.577 125.601 670.53 125.748 670.53C125.901 670.53 126.025 670.577 126.118 670.67C126.211 670.763 126.258 670.887 126.258 671.04V675.5C126.258 675.647 126.211 675.77 126.118 675.87C126.025 675.963 125.901 676.01 125.748 676.01ZM134.044 676.04C133.578 676.04 133.144 675.97 132.744 675.83C132.351 675.683 132.044 675.5 131.824 675.28C131.724 675.173 131.681 675.053 131.694 674.92C131.714 674.78 131.781 674.667 131.894 674.58C132.028 674.473 132.158 674.43 132.284 674.45C132.418 674.463 132.531 674.52 132.624 674.62C132.738 674.747 132.918 674.867 133.164 674.98C133.418 675.087 133.698 675.14 134.004 675.14C134.391 675.14 134.684 675.077 134.884 674.95C135.091 674.823 135.198 674.66 135.204 674.46C135.211 674.26 135.114 674.087 134.914 673.94C134.721 673.793 134.364 673.673 133.844 673.58C133.171 673.447 132.681 673.247 132.374 672.98C132.074 672.713 131.924 672.387 131.924 672C131.924 671.66 132.024 671.38 132.224 671.16C132.424 670.933 132.681 670.767 132.994 670.66C133.308 670.547 133.634 670.49 133.974 670.49C134.414 670.49 134.804 670.56 135.144 670.7C135.484 670.84 135.754 671.033 135.954 671.28C136.048 671.387 136.091 671.5 136.084 671.62C136.078 671.733 136.021 671.83 135.914 671.91C135.808 671.983 135.681 672.007 135.534 671.98C135.388 671.953 135.264 671.893 135.164 671.8C134.998 671.64 134.818 671.53 134.624 671.47C134.431 671.41 134.208 671.38 133.954 671.38C133.661 671.38 133.411 671.43 133.204 671.53C133.004 671.63 132.904 671.777 132.904 671.97C132.904 672.09 132.934 672.2 132.994 672.3C133.061 672.393 133.188 672.48 133.374 672.56C133.561 672.633 133.834 672.707 134.194 672.78C134.694 672.88 135.088 673.007 135.374 673.16C135.668 673.313 135.878 673.493 136.004 673.7C136.131 673.9 136.194 674.133 136.194 674.4C136.194 674.707 136.111 674.983 135.944 675.23C135.784 675.477 135.544 675.673 135.224 675.82C134.911 675.967 134.518 676.04 134.044 676.04Z" fill="white"/>
<path d="M481.922 676C481.775 676 481.652 675.95 481.552 675.85C481.458 675.75 481.412 675.63 481.412 675.49C481.412 675.343 481.458 675.223 481.552 675.13L484.392 671.81C484.592 671.577 484.745 671.357 484.852 671.15C484.965 670.943 485.022 670.747 485.022 670.56C485.022 670.267 484.972 670.013 484.872 669.8C484.772 669.587 484.628 669.423 484.442 669.31C484.255 669.19 484.032 669.13 483.772 669.13C483.518 669.13 483.288 669.197 483.082 669.33C482.882 669.457 482.722 669.63 482.602 669.85C482.488 670.063 482.432 670.3 482.432 670.56C482.432 670.693 482.382 670.81 482.282 670.91C482.188 671.01 482.068 671.06 481.922 671.06C481.782 671.06 481.662 671.01 481.562 670.91C481.462 670.81 481.412 670.693 481.412 670.56C481.412 670.107 481.515 669.703 481.722 669.35C481.928 668.99 482.208 668.707 482.562 668.5C482.922 668.293 483.325 668.19 483.772 668.19C484.225 668.19 484.618 668.287 484.952 668.48C485.285 668.673 485.542 668.947 485.722 669.3C485.908 669.653 486.002 670.073 486.002 670.56C486.002 670.773 485.955 670.99 485.862 671.21C485.775 671.43 485.662 671.64 485.522 671.84C485.388 672.04 485.252 672.22 485.112 672.38L482.822 674.98H485.622C485.768 674.98 485.892 675.033 485.992 675.14C486.092 675.24 486.142 675.357 486.142 675.49C486.142 675.63 486.092 675.75 485.992 675.85C485.892 675.95 485.768 676 485.622 676H481.922ZM489.531 676C489.024 676 488.591 675.847 488.231 675.54C487.877 675.227 487.607 674.78 487.421 674.2C487.234 673.613 487.141 672.91 487.141 672.09C487.141 671.27 487.234 670.57 487.421 669.99C487.607 669.403 487.877 668.957 488.231 668.65C488.591 668.337 489.024 668.18 489.531 668.18C490.037 668.18 490.467 668.34 490.821 668.66C491.181 668.973 491.454 669.423 491.641 670.01C491.827 670.59 491.921 671.283 491.921 672.09C491.921 672.897 491.827 673.593 491.641 674.18C491.454 674.76 491.181 675.21 490.821 675.53C490.467 675.843 490.037 676 489.531 676ZM489.531 674.96C489.837 674.96 490.091 674.837 490.291 674.59C490.491 674.337 490.641 673.993 490.741 673.56C490.841 673.127 490.891 672.637 490.891 672.09C490.891 671.543 490.841 671.053 490.741 670.62C490.641 670.187 490.491 669.843 490.291 669.59C490.091 669.337 489.837 669.21 489.531 669.21C489.224 669.21 488.971 669.337 488.771 669.59C488.571 669.837 488.421 670.177 488.321 670.61C488.221 671.043 488.171 671.537 488.171 672.09C488.171 672.643 488.221 673.137 488.321 673.57C488.421 674.003 488.571 674.343 488.771 674.59C488.977 674.837 489.231 674.96 489.531 674.96ZM493.582 676C493.435 676 493.312 675.95 493.212 675.85C493.119 675.75 493.072 675.63 493.072 675.49C493.072 675.343 493.119 675.223 493.212 675.13L496.052 671.81C496.252 671.577 496.405 671.357 496.512 671.15C496.625 670.943 496.682 670.747 496.682 670.56C496.682 670.267 496.632 670.013 496.532 669.8C496.432 669.587 496.289 669.423 496.102 669.31C495.915 669.19 495.692 669.13 495.432 669.13C495.179 669.13 494.949 669.197 494.742 669.33C494.542 669.457 494.382 669.63 494.262 669.85C494.149 670.063 494.092 670.3 494.092 670.56C494.092 670.693 494.042 670.81 493.942 670.91C493.849 671.01 493.729 671.06 493.582 671.06C493.442 671.06 493.322 671.01 493.222 670.91C493.122 670.81 493.072 670.693 493.072 670.56C493.072 670.107 493.175 669.703 493.382 669.35C493.589 668.99 493.869 668.707 494.222 668.5C494.582 668.293 494.985 668.19 495.432 668.19C495.885 668.19 496.279 668.287 496.612 668.48C496.945 668.673 497.202 668.947 497.382 669.3C497.569 669.653 497.662 670.073 497.662 670.56C497.662 670.773 497.615 670.99 497.522 671.21C497.435 671.43 497.322 671.64 497.182 671.84C497.049 672.04 496.912 672.22 496.772 672.38L494.482 674.98H497.282C497.429 674.98 497.552 675.033 497.652 675.14C497.752 675.24 497.802 675.357 497.802 675.49C497.802 675.63 497.752 675.75 497.652 675.85C497.552 675.95 497.429 676 497.282 676H493.582ZM501.421 676C500.921 676 500.477 675.897 500.091 675.69C499.704 675.477 499.401 675.19 499.181 674.83C498.961 674.463 498.851 674.053 498.851 673.6C498.851 673.447 498.894 673.323 498.981 673.23C499.074 673.13 499.184 673.08 499.311 673.08C499.444 673.08 499.554 673.13 499.641 673.23C499.727 673.323 499.771 673.447 499.771 673.6C499.771 673.873 499.841 674.127 499.981 674.36C500.121 674.587 500.311 674.77 500.551 674.91C500.791 675.043 501.061 675.11 501.361 675.11C501.801 675.11 502.154 674.99 502.421 674.75C502.694 674.503 502.831 674.16 502.831 673.72C502.831 673.44 502.771 673.19 502.651 672.97C502.531 672.743 502.367 672.563 502.161 672.43C501.954 672.297 501.721 672.23 501.461 672.23C501.314 672.23 501.191 672.18 501.091 672.08C500.997 671.98 500.951 671.857 500.951 671.71C500.951 671.563 500.997 671.443 501.091 671.35C501.191 671.25 501.314 671.2 501.461 671.2C501.647 671.2 501.827 671.153 502.001 671.06C502.174 670.96 502.317 670.83 502.431 670.67C502.544 670.503 502.601 670.317 502.601 670.11C502.601 669.817 502.494 669.57 502.281 669.37C502.067 669.17 501.794 669.07 501.461 669.07C501.207 669.07 500.974 669.12 500.761 669.22C500.554 669.32 500.387 669.453 500.261 669.62C500.141 669.787 500.081 669.973 500.081 670.18C500.081 670.333 500.037 670.463 499.951 670.57C499.864 670.67 499.754 670.72 499.621 670.72C499.494 670.72 499.384 670.673 499.291 670.58C499.204 670.48 499.161 670.357 499.161 670.21C499.161 669.823 499.261 669.477 499.461 669.17C499.661 668.863 499.934 668.623 500.281 668.45C500.627 668.27 501.014 668.18 501.441 668.18C501.834 668.18 502.187 668.267 502.501 668.44C502.821 668.607 503.071 668.837 503.251 669.13C503.437 669.417 503.531 669.743 503.531 670.11C503.531 670.37 503.471 670.6 503.351 670.8C503.237 671 503.091 671.173 502.911 671.32C502.731 671.46 502.541 671.577 502.341 671.67C502.694 671.79 502.981 671.953 503.201 672.16C503.421 672.36 503.581 672.593 503.681 672.86C503.787 673.127 503.841 673.417 503.841 673.73C503.841 674.163 503.731 674.553 503.511 674.9C503.291 675.24 502.997 675.51 502.631 675.71C502.264 675.903 501.861 676 501.421 676Z" fill="white"/>
</g>
<defs>
<clipPath id="clip0_5197_1441">
<rect width="537" height="716" fill="white"/>
</clipPath>
<clipPath id="clip1_5197_1441">
<rect width="2246" height="2556" fill="white" transform="translate(-1113 -921)"/>
</clipPath>
<clipPath id="clip2_5197_1441">
<rect width="20" height="16" fill="white" transform="translate(32.2383 40)"/>
</clipPath>
</defs>
</svg>
