<svg xmlns="http://www.w3.org/2000/svg" width="148.87" height="155.755" viewBox="0 0 148.87 155.755">
  <g id="positive_Attitude" transform="translate(-690.173 -95.838)">
    <rect id="Rectangle_896" data-name="Rectangle 896" width="49.598" height="49.598" rx="19" transform="translate(776.841 199.61)" fill="#fff" stroke="#231f20" stroke-miterlimit="10" stroke-width="4"/>
    <circle id="Ellipse_189" data-name="Ellipse 189" cx="7.294" cy="7.294" r="7.294" transform="translate(777.936 174.446)" fill="#231f20"/>
    <circle id="Ellipse_190" data-name="Ellipse 190" cx="7.294" cy="7.294" r="7.294" transform="translate(806.382 170.799)" fill="#231f20"/>
    <circle id="Ellipse_191" data-name="Ellipse 191" cx="7.294" cy="7.294" r="7.294" transform="translate(808.57 175.54)" fill="#231f20"/>
    <rect id="Rectangle_897" data-name="Rectangle 897" width="49.598" height="49.598" rx="19" transform="translate(708.28 199.995)" fill="#fff" stroke="#231f20" stroke-miterlimit="10" stroke-width="4"/>
    <path id="Path_35787" data-name="Path 35787" d="M729.945,245.241l-6.058,25.346h49.6l-8.722-25.346Z" transform="translate(-15.607 -70.592)" fill="#231f20"/>
    <path id="Path_35788" data-name="Path 35788" d="M752.838,218.673h0a18.528,18.528,0,0,0-18.525,18.256h37.05A18.529,18.529,0,0,0,752.838,218.673Z" transform="translate(-21.15 -57.721)" fill="#231f20"/>
    <path id="Path_35789" data-name="Path 35789" d="M735.735,262.884a17.1,17.1,0,0,0,17.1,17.1h0a17.1,17.1,0,0,0,17.1-17.1v-6.975c0-.085-.005-.17-.006-.255H735.741c0,.085-.006.17-.006.255Z" transform="translate(-20.437 -75.008)" fill="#fff" stroke="#231f20" stroke-miterlimit="10" stroke-width="3"/>
    <path id="Path_35790" data-name="Path 35790" d="M765.614,289.481a5.106,5.106,0,0,0,5.106-5.106H760.508A5.106,5.106,0,0,0,765.614,289.481Z" transform="translate(-33.629 -89.85)" fill="#131214"/>
    <path id="Path_35791" data-name="Path 35791" d="M887.625,221.5h0a18.322,18.322,0,0,0-18.318,18.052h36.637A18.322,18.322,0,0,0,887.625,221.5Z" transform="translate(-87.17 -58.911)" fill="#231f20"/>
    <path id="Path_35792" data-name="Path 35792" d="M870.729,265.207a17.6,17.6,0,0,0,17.6,17.6h0a17.6,17.6,0,0,0,17.6-17.6v-7.178c0-.088-.005-.175-.007-.263h-35.18c0,.088-.007.174-.007.263Z" transform="translate(-87.87 -76.756)" fill="#fff" stroke="#231f20" stroke-miterlimit="10" stroke-width="3"/>
    <path id="Path_35793" data-name="Path 35793" d="M900.608,291.594a5.106,5.106,0,0,0,5.106-5.106H895.5A5.106,5.106,0,0,0,900.608,291.594Z" transform="translate(-100.061 -90.89)" fill="#131214"/>
    <circle id="Ellipse_192" data-name="Ellipse 192" cx="7.294" cy="7.294" r="7.294" transform="translate(780.124 165.328)" fill="#231f20"/>
    <circle id="Ellipse_193" data-name="Ellipse 193" cx="7.294" cy="7.294" r="7.294" transform="translate(784.5 160.223)" fill="#231f20"/>
    <circle id="Ellipse_194" data-name="Ellipse 194" cx="7.294" cy="7.294" r="7.294" transform="translate(794.347 159.129)" fill="#231f20"/>
    <circle id="Ellipse_195" data-name="Ellipse 195" cx="7.294" cy="7.294" r="7.294" transform="translate(804.193 160.952)" fill="#231f20"/>
    <circle id="Ellipse_196" data-name="Ellipse 196" cx="7.294" cy="7.294" r="7.294" transform="translate(807.84 166.423)" fill="#231f20"/>
    <circle id="Ellipse_197" data-name="Ellipse 197" cx="7.294" cy="7.294" r="7.294" transform="translate(782.44 170.611)" fill="#231f20"/>
    <circle id="Ellipse_198" data-name="Ellipse 198" cx="4.689" cy="4.689" r="4.689" transform="translate(793.071 174.119)" fill="#231f20"/>
    <path id="Path_35794" data-name="Path 35794" d="M701.7,207.392h-4.067v-4.067a.465.465,0,1,0-.929,0v4.067h-4.067a.465.465,0,1,0,0,.929H696.7v4.067a.465.465,0,1,0,.929,0v-4.067H701.7a.465.465,0,0,0,0-.929Z" transform="translate(0 -49.736)" fill="#f29021" stroke="#131214" stroke-width="4"/>
    <path id="Path_35795" data-name="Path 35795" d="M750.779,174.908H747.4v-3.375a.386.386,0,0,0-.771,0v3.375h-3.375a.386.386,0,0,0,0,.771h3.375v3.375a.386.386,0,1,0,.771,0V175.68h3.375a.386.386,0,0,0,0-.771Z" transform="translate(10.361 -53.663)" fill="#f7941d" stroke="#131214" stroke-width="4"/>
    <path id="Path_35796" data-name="Path 35796" d="M928.743,125.056h4.067v-4.067a.465.465,0,0,1,.93,0v4.067h4.067a.465.465,0,1,1,0,.929h-4.067v4.067a.465.465,0,0,1-.93,0v-4.067h-4.067a.465.465,0,0,1,0-.929Z" transform="translate(-116.191 -9.217)" fill="#f29021" stroke="#131214" stroke-width="4"/>
    <path id="Path_35797" data-name="Path 35797" d="M818.312,185.185h-7.255v-7.255a.829.829,0,1,0-1.658,0v7.255h-7.255a.829.829,0,1,0,0,1.658H809.4V194.1a.829.829,0,0,0,1.658,0v-7.255h7.255a.829.829,0,0,0,0-1.658Z" transform="translate(-47.7 -31.8)" fill="#f7941d" stroke="#131214" stroke-width="4"/>
    <path id="Path_35798" data-name="Path 35798" d="M878.312,144.185h-7.255v-7.255a.829.829,0,1,0-1.658,0v7.255h-7.255a.829.829,0,1,0,0,1.658H869.4V153.1a.829.829,0,0,0,1.658,0v-7.255h7.255a.829.829,0,0,0,0-1.658Z" transform="translate(-83.237 -16.882)" fill="#f7941d" stroke="#131214" stroke-width="4"/>
    <path id="Path_35799" data-name="Path 35799" d="M959.312,185.185h-7.255v-7.255a.829.829,0,1,0-1.658,0v7.255h-7.255a.829.829,0,1,0,0,1.658H950.4V194.1a.829.829,0,0,0,1.658,0v-7.255h7.255a.829.829,0,0,0,0-1.658Z" transform="translate(-123.098 -37.059)" fill="#f7941d" stroke="#131214" stroke-width="4"/>
    <path id="Path_35800" data-name="Path 35800" d="M799.312,119.184h-7.255v-7.255a.829.829,0,1,0-1.658,0v7.255h-7.255a.829.829,0,1,0,0,1.658H790.4V128.1a.829.829,0,0,0,1.658,0v-7.255h7.255a.829.829,0,0,0,0-1.658Z" transform="translate(-63.142 17.209)" fill="#f29021" stroke="#131214" stroke-width="4"/>
    <path id="Path_35801" data-name="Path 35801" d="M849.049,109.6h3.375v-3.375a.386.386,0,0,1,.772,0V109.6h3.374a.386.386,0,1,1,0,.771H853.2v3.375a.386.386,0,0,1-.772,0V110.37h-3.375a.386.386,0,1,1,0-.771Z" transform="translate(-72.503 -8)" fill="#f7941d" stroke="#131214" stroke-width="4"/>
    <path id="Path_35802" data-name="Path 35802" d="M737.049,113.6h3.375v-3.375a.386.386,0,0,1,.772,0V113.6h3.374a.386.386,0,1,1,0,.771H741.2v3.375a.386.386,0,0,1-.772,0V114.37h-3.375a.386.386,0,1,1,0-.771Z" transform="translate(-31.661 1.301)" fill="#f7941d" stroke="#131214" stroke-width="4"/>
  </g>
</svg>
