<svg xmlns="http://www.w3.org/2000/svg" width="108.208" height="108.5" viewBox="0 0 108.208 108.5">
  <g id="product_design" data-name="product design" transform="translate(-451.5 -7086.5)">
    <circle id="Ellipse_227" data-name="Ellipse 227" cx="49.5" cy="49.5" r="49.5" transform="translate(456 7096)" fill="#f7931e"/>
    <g id="Group_608" data-name="Group 608" transform="translate(453 7088)">
      <path id="Path_29" data-name="Path 29" d="M940.888,344.387a51.784,51.784,0,1,1,103.568-.428q0,.214,0,.428" transform="translate(-940.147 -286.622)" fill="none" stroke="#131214" stroke-linecap="round" stroke-width="3"/>
      <line id="Line_17" data-name="Line 17" x2="103.568" transform="translate(0.82 6.296)" fill="none" stroke="#131214" stroke-linecap="round" stroke-width="3.573"/>
      <rect id="Rectangle_61" data-name="Rectangle 61" width="12.277" height="12.277" transform="translate(46.387)" fill="#fff" stroke="#131214" stroke-linecap="round" stroke-width="3"/>
      <circle id="Ellipse_10" data-name="Ellipse 10" cx="3.62" cy="3.62" r="3.62" transform="translate(0 2.518)" fill="#fff" stroke="#131214" stroke-linecap="round" stroke-width="3"/>
      <circle id="Ellipse_11" data-name="Ellipse 11" cx="3.62" cy="3.62" r="3.62" transform="translate(97.967 2.518)" fill="#fff" stroke="#131214" stroke-linecap="round" stroke-width="3"/>
      <g id="Group_42" data-name="Group 42" transform="translate(25.034 26.132)">
        <path id="Rectangle_62" data-name="Rectangle 62" d="M975.022,339.934h0a2.833,2.833,0,0,1,2.833,2.833v52.256a2.833,2.833,0,0,1-2.833,2.833h0a2.834,2.834,0,0,1-2.833-2.833V342.767A2.833,2.833,0,0,1,975.022,339.934Z" transform="translate(-968.57 -317.902)" fill="#131214"/>
        <path id="Path_30" data-name="Path 30" d="M977.806,320.811l-3.225-5.584-3.227,5.584-3.224,5.584,3.224,5.584,1.232,2.135h3.982l1.232-2.135,3.224-5.584Z" transform="translate(-968.131 -315.227)" fill="#fff" stroke="#131214" stroke-linecap="round" stroke-linejoin="round" stroke-width="3"/>
        <line id="Line_18" data-name="Line 18" y2="9.759" transform="translate(6.452 0.626)" fill="none" stroke="#131214" stroke-linecap="round" stroke-linejoin="round" stroke-width="3"/>
        <rect id="Rectangle_63" data-name="Rectangle 63" width="8.5" height="17.314" transform="translate(2.202 19.513)" fill="#fff" stroke="#131214" stroke-linecap="round" stroke-linejoin="round" stroke-width="3"/>
      </g>
      <g id="Group_43" data-name="Group 43" transform="translate(70.051 25.184)">
        <path id="Rectangle_64" data-name="Rectangle 64" d="M1024.717,397.151h0a2.834,2.834,0,0,1-2.833-2.833V342.062a2.833,2.833,0,0,1,2.833-2.833h0a2.833,2.833,0,0,1,2.833,2.833v52.256A2.833,2.833,0,0,1,1024.717,397.151Z" transform="translate(-1018.968 -316.878)" fill="#131214"/>
        <path id="Path_31" data-name="Path 31" d="M1021.66,314.164s9.169,5.9,9.15,11.483a8.248,8.248,0,0,1-4.459,7.72h-3.982s-5.432-4.407-3.229-7.87A16.258,16.258,0,0,0,1021.66,314.164Z" transform="translate(-1018.614 -314.164)" fill="#fff" stroke="#131214" stroke-linecap="round" stroke-linejoin="round" stroke-width="3"/>
        <rect id="Rectangle_65" data-name="Rectangle 65" width="8.5" height="17.314" transform="translate(1.499 19.832)" fill="#fff" stroke="#131214" stroke-linecap="round" stroke-linejoin="round" stroke-width="3"/>
      </g>
      <g id="Group_44" data-name="Group 44" transform="translate(51.592 33.179)">
        <path id="Path_32" data-name="Path 32" d="M1000.982,323.129l-3.068,11.122,1.534,2.656.587,1.016h1.895l.587-1.016,1.228-2.656Z" transform="translate(-997.914 -323.129)" fill="#fff" stroke="#131214" stroke-linecap="round" stroke-linejoin="round" stroke-width="3"/>
        <path id="Path_33" data-name="Path 33" d="M1000.839,396.568h0a2.889,2.889,0,0,1-2.833-2.943h0V336.757h5.666v56.87A2.889,2.889,0,0,1,1000.839,396.568Z" transform="translate(-997.924 -324.605)" fill="#fff" stroke="#131214" stroke-width="3"/>
      </g>
    </g>
  </g>
</svg>
