<svg xmlns="http://www.w3.org/2000/svg" width="82" height="95" viewBox="0 0 82.192 82.143">
  <g id="product_design" data-name="product design" transform="translate(1.5 1.5)">
    <path id="Path_29" data-name="Path 29" d="M101.75,150.949a38.979,38.979,0,1,1,77.958,0" transform="translate(-101.192 -107.468)" fill="none" stroke="#131214" stroke-linecap="round" stroke-width="3"/>
    <line id="Line_17" data-name="Line 17" x2="77.958" transform="translate(0.617 4.739)" fill="none" stroke="#131214" stroke-linecap="round" stroke-width="3.573"/>
    <rect id="Rectangle_61" data-name="Rectangle 61" width="9.241" height="9.241" transform="translate(34.916)" fill="#fff" stroke="#131214" stroke-linecap="round" stroke-width="3"/>
    <circle id="Ellipse_10" data-name="Ellipse 10" cx="2.725" cy="2.725" r="2.725" transform="translate(0 1.896)" fill="#fff" stroke="#131214" stroke-linecap="round" stroke-width="3"/>
    <circle id="Ellipse_11" data-name="Ellipse 11" cx="2.725" cy="2.725" r="2.725" transform="translate(73.742 1.896)" fill="#fff" stroke="#131214" stroke-linecap="round" stroke-width="3"/>
    <g id="Group_42" data-name="Group 42" transform="translate(18.847 19.667)">
      <rect id="Rectangle_62" data-name="Rectangle 62" width="4.265" height="43.6" rx="2.133" transform="translate(2.721 16.587)" fill="#131214"/>
      <path id="Path_30" data-name="Path 30" d="M177.969,173.337l-2.427-4.2-2.427,4.2-2.427,4.2,2.427,4.2.928,1.607h3l.928-1.607,2.427-4.2Z" transform="translate(-170.689 -169.134)" fill="#fff" stroke="#131214" stroke-linecap="round" stroke-linejoin="round" stroke-width="3"/>
      <line id="Line_18" data-name="Line 18" y2="7.346" transform="translate(4.854 0.474)" fill="#fff" stroke="#131214" stroke-linecap="round" stroke-linejoin="round" stroke-width="3"/>
      <rect id="Rectangle_63" data-name="Rectangle 63" width="6.398" height="13.033" transform="translate(1.655 14.691)" fill="#fff" stroke="#131214" stroke-linecap="round" stroke-linejoin="round" stroke-width="3"/>
    </g>
    <g id="Group_43" data-name="Group 43" transform="translate(52.732 18.956)">
      <rect id="Rectangle_64" data-name="Rectangle 64" width="4.265" height="43.6" rx="2.133" transform="translate(6.458 60.424) rotate(-180)" fill="#131214"/>
      <path id="Path_31" data-name="Path 31" d="M300.7,166.454s6.9,4.439,6.888,8.644a6.209,6.209,0,0,1-3.355,5.811h-3s-4.089-3.318-2.43-5.924A12.239,12.239,0,0,0,300.7,166.454Z" transform="translate(-298.413 -166.454)" fill="#fff" stroke="#131214" stroke-linecap="round" stroke-linejoin="round" stroke-width="3"/>
      <rect id="Rectangle_65" data-name="Rectangle 65" width="6.398" height="13.033" transform="translate(7.524 27.961) rotate(-180)" fill="#fff" stroke="#131214" stroke-linecap="round" stroke-linejoin="round" stroke-width="3"/>
    </g>
    <g id="Group_44" data-name="Group 44" transform="translate(38.835 24.974)">
      <path id="Path_32" data-name="Path 32" d="M248.34,191.463l-2.309,8.372,1.155,2,.441.765h1.426l.441-.765.924-2Z" transform="translate(-246.031 -191.463)" fill="#fff" stroke="#131214" stroke-linecap="round" stroke-linejoin="round" stroke-width="3"/>
      <path id="Path_33" data-name="Path 33" d="M248.4,268.638h0a2.174,2.174,0,0,1-2.132-2.214V223.617h4.265v42.807A2.174,2.174,0,0,1,248.4,268.638Z" transform="translate(-246.201 -214.47)" fill="#131214" stroke="#131214" stroke-width="3"/>
    </g>
  </g>
</svg>
