<svg xmlns="http://www.w3.org/2000/svg" width="118.756" height="118.684" viewBox="0 0 118.756 118.684"><defs><style>.a,.b{fill:none;}.a,.b,.c,.e,.f{stroke:#131214;}.a,.b,.c,.e{stroke-linecap:round;}.a,.b,.c,.f{stroke-miterlimit:10;}.a,.c,.e,.f{stroke-width:3px;}.b{stroke-width:3.573px;}.c,.e{fill:#fff;}.d,.f{fill:#131214;}.e{stroke-linejoin:round;}</style></defs><g transform="translate(-99.346 -93.5)"><path class="a" d="M101.75,168.947a56.976,56.976,0,1,1,113.953,0" transform="translate(-0.089 -10.389)"/><line class="b" x2="113.953" transform="translate(101.748 101.927)"/><rect class="c" width="13.508" height="13.508" transform="translate(151.884 95)"/><circle class="c" cx="3.983" cy="3.983" r="3.983" transform="translate(100.846 97.771)"/><circle class="c" cx="3.983" cy="3.983" r="3.983" transform="translate(208.636 97.771)"/><g transform="translate(128.395 123.748)"><rect class="d" width="6.234" height="63.73" rx="3.117" transform="translate(3.977 24.245)"/><path class="e" d="M181.331,175.278l-3.547-6.144-3.547,6.144-3.547,6.144,3.547,6.144,1.356,2.349h4.382l1.356-2.349,3.547-6.144Z" transform="translate(-170.689 -169.134)"/><line class="e" y2="10.737" transform="translate(7.095 0.693)"/><rect class="e" width="9.352" height="19.05" transform="translate(2.419 21.474)"/></g><g transform="translate(177.924 122.709)"><rect class="d" width="6.234" height="63.73" rx="3.117" transform="translate(9.44 88.322) rotate(-180)"/><path class="e" d="M301.762,166.454s10.089,6.488,10.068,12.634a9.076,9.076,0,0,1-4.9,8.494h-4.382s-5.977-4.849-3.552-8.659A17.89,17.89,0,0,0,301.762,166.454Z" transform="translate(-298.413 -166.454)"/><rect class="e" width="9.352" height="19.05" transform="translate(10.998 40.871) rotate(-180)"/></g><g transform="translate(157.611 131.505)"><path class="e" d="M249.406,191.463,246.031,203.7l1.688,2.923.645,1.118h2.085l.645-1.118,1.351-2.923Z" transform="translate(-246.031 -191.463)"/><path class="f" d="M249.38,289.425h0a3.178,3.178,0,0,1-3.117-3.236V223.617H252.5v62.572A3.178,3.178,0,0,1,249.38,289.425Z" transform="translate(-246.173 -210.246)"/></g></g></svg>