<svg xmlns="http://www.w3.org/2000/svg" width="107.327" height="125.873" viewBox="0 0 107.327 125.873">
  <g id="project_development" data-name="project development" transform="translate(-452.5 -6488.127)">
    <circle id="Ellipse_224" data-name="Ellipse 224" cx="49.5" cy="49.5" r="49.5" transform="translate(457 6515)" fill="#f7931e"/>
    <g id="Group_609" data-name="Group 609" transform="translate(454 6488.127)">
      <g id="Group_520" data-name="Group 520">
        <rect id="Rectangle_410" data-name="Rectangle 410" width="104.327" height="66.236" rx="11.988" transform="translate(0 24.694)" fill="none" stroke="#131214" stroke-width="3"/>
        <path id="Rectangle_411" data-name="Rectangle 411" d="M1410.7,819.07h0a17.386,17.386,0,0,1,17.318,17.453h0c0,9.639,5.92,17.453-3.644,17.453h-28.088c-9.565,0-2.9-7.814-2.9-17.453h0A17.386,17.386,0,0,1,1410.7,819.07Z" transform="translate(-1332.903 -740.009)" fill="#fff" stroke="#131214" stroke-width="2"/>
        <circle id="Ellipse_60" data-name="Ellipse 60" cx="5.094" cy="5.094" r="5.094" transform="translate(61.24 61.488)" fill="#131214"/>
        <circle id="Ellipse_61" data-name="Ellipse 61" cx="5.094" cy="5.094" r="5.094" transform="translate(81.105 58.941)" fill="#520993"/>
        <circle id="Ellipse_62" data-name="Ellipse 62" cx="5.094" cy="5.094" r="5.094" transform="translate(82.633 62.252)" fill="#131214"/>
        <path id="Rectangle_412" data-name="Rectangle 412" d="M1357.005,819.372h0a17.319,17.319,0,0,1,17.318,17.318h0c0,9.565,7.252,17.318-4.032,17.318h-26.845c-9.565,0-3.76-7.754-3.76-17.318h0A17.318,17.318,0,0,1,1357.005,819.372Z" transform="translate(-1327.089 -740.041)" fill="#fff" stroke="#131214" stroke-width="2"/>
        <path id="Path_35266" data-name="Path 35266" d="M1343.917,799.523l-4.23,17.7h34.636l-6.09-17.7Z" transform="translate(-1327.089 -737.892)" fill="#131214"/>
        <path id="Path_35267" data-name="Path 35267" d="M1356.627,788.955h0a12.794,12.794,0,0,0-12.793,12.606h25.587A12.8,12.8,0,0,0,1356.627,788.955Z" transform="translate(-1327.538 -736.748)" fill="#131214"/>
        <path id="Path_35268" data-name="Path 35268" d="M1344.4,808.713a11.94,11.94,0,0,0,11.94,11.94h0a11.941,11.941,0,0,0,11.94-11.94v-4.871c0-.06,0-.119-.005-.178H1344.4c0,.06,0,.118,0,.178Z" transform="translate(-1326.904 -737.845)" fill="#fff" stroke="#131214" stroke-width="2"/>
        <path id="Path_35269" data-name="Path 35269" d="M1357.818,818.653a3.567,3.567,0,0,0,3.567-3.567h-7.134A3.567,3.567,0,0,0,1357.818,818.653Z" transform="translate(-1328.666 -739.577)" fill="#131214"/>
        <path id="Path_35270" data-name="Path 35270" d="M1410.319,790.077h0a12.8,12.8,0,0,0-12.793,12.61h25.585A12.8,12.8,0,0,0,1410.319,790.077Z" transform="translate(-1333.352 -736.87)" fill="#131214"/>
        <path id="Path_35271" data-name="Path 35271" d="M1398.091,809.7a12.287,12.287,0,0,0,12.286,12.289h0a12.289,12.289,0,0,0,12.288-12.288v-5.013c0-.062,0-.122,0-.184h-24.567c0,.061-.005.121-.005.184Z" transform="translate(-1333.413 -738.432)" fill="#fff" stroke="#131214" stroke-width="2"/>
        <path id="Path_35272" data-name="Path 35272" d="M1411.51,819.493a3.567,3.567,0,0,0,3.567-3.567h-7.134A3.567,3.567,0,0,0,1411.51,819.493Z" transform="translate(-1334.48 -739.668)" fill="#131214"/>
        <circle id="Ellipse_63" data-name="Ellipse 63" cx="5.094" cy="5.094" r="5.094" transform="translate(62.769 55.121)" fill="#131214"/>
        <circle id="Ellipse_64" data-name="Ellipse 64" cx="5.094" cy="5.094" r="5.094" transform="translate(65.825 51.556)" fill="#131214"/>
        <circle id="Ellipse_65" data-name="Ellipse 65" cx="5.094" cy="5.094" r="5.094" transform="translate(72.701 50.792)" fill="#131214"/>
        <circle id="Ellipse_66" data-name="Ellipse 66" cx="5.094" cy="5.094" r="5.094" transform="translate(79.577 52.065)" fill="#131214"/>
        <circle id="Ellipse_67" data-name="Ellipse 67" cx="5.094" cy="5.094" r="5.094" transform="translate(82.123 55.885)" fill="#131214"/>
        <circle id="Ellipse_68" data-name="Ellipse 68" cx="5.094" cy="5.094" r="5.094" transform="translate(64.385 58.81)" fill="#131214"/>
        <circle id="Ellipse_69" data-name="Ellipse 69" cx="3.274" cy="3.274" r="3.274" transform="translate(71.81 61.26)" fill="#131214"/>
        <path id="Path_35273" data-name="Path 35273" d="M1351.536,737.143h-1.382a6.717,6.717,0,0,0-.54-1.307l.981-.981a.8.8,0,0,0,0-1.135l0,0-1.564-1.564a.8.8,0,0,0-1.135,0l0,0-.981.981a6.636,6.636,0,0,0-1.307-.54v-1.382a.8.8,0,0,0-.8-.8h-2.212a.8.8,0,0,0-.8.8v1.382a6.639,6.639,0,0,0-1.307.54l-.981-.981a.8.8,0,0,0-1.135,0l0,0-1.564,1.564a.8.8,0,0,0,0,1.135l0,0,.981.981a6.605,6.605,0,0,0-.54,1.307h-1.382a.8.8,0,0,0-.8.8v2.21a.8.8,0,0,0,.8.8h1.382a6.624,6.624,0,0,0,.54,1.307l-.981.981a.8.8,0,0,0,0,1.135l0,0,1.564,1.564a.8.8,0,0,0,1.134,0l0,0,.981-.981a6.72,6.72,0,0,0,1.307.54v1.382a.8.8,0,0,0,.8.8h2.212a.8.8,0,0,0,.8-.8v-1.382a6.749,6.749,0,0,0,1.307-.54l.981.981a.8.8,0,0,0,1.134,0l0,0,1.564-1.564a.8.8,0,0,0,0-1.135l0,0-.981-.981a6.737,6.737,0,0,0,.54-1.307h1.382a.8.8,0,0,0,.8-.8v-2.211A.8.8,0,0,0,1351.536,737.143Zm-7.847,5.73a3.82,3.82,0,1,1,3.82-3.82h0A3.822,3.822,0,0,1,1343.689,742.874Z" transform="translate(-1326.587 -730.409)" fill="#131214"/>
        <path id="Path_35274" data-name="Path 35274" d="M1392.48,774.314h-1.928a9.365,9.365,0,0,0-.755-1.824l1.363-1.363a1.122,1.122,0,0,0,0-1.586l-2.181-2.181a1.122,1.122,0,0,0-1.586,0l-1.363,1.363a9.261,9.261,0,0,0-1.823-.754v-1.926a1.122,1.122,0,0,0-1.122-1.122H1380a1.121,1.121,0,0,0-1.122,1.122v1.928a9.223,9.223,0,0,0-1.824.753l-1.363-1.362a1.122,1.122,0,0,0-1.586,0l-2.181,2.181a1.121,1.121,0,0,0,0,1.586l1.363,1.363a9.3,9.3,0,0,0-.754,1.824H1370.6a1.122,1.122,0,0,0-1.122,1.122v3.085a1.121,1.121,0,0,0,1.122,1.122h1.928a9.325,9.325,0,0,0,.754,1.824l-1.363,1.363a1.121,1.121,0,0,0,0,1.586l2.181,2.181a1.122,1.122,0,0,0,1.586,0l1.363-1.362a9.334,9.334,0,0,0,1.824.753v1.928a1.121,1.121,0,0,0,1.122,1.122h3.084a1.122,1.122,0,0,0,1.122-1.122v-1.928a9.377,9.377,0,0,0,1.823-.753l1.363,1.362a1.122,1.122,0,0,0,1.586,0l2.181-2.186a1.122,1.122,0,0,0,0-1.586l-1.363-1.363a9.388,9.388,0,0,0,.755-1.824h1.928a1.123,1.123,0,0,0,1.122-1.122v-3.085A1.122,1.122,0,0,0,1392.48,774.314Zm-10.937,7.992a5.328,5.328,0,1,1,5.328-5.328,5.328,5.328,0,0,1-5.328,5.328Z" transform="translate(-1330.315 -734.146)" fill="#131214"/>
        <path id="Path_35275" data-name="Path 35275" d="M1434,744.592h-2.318a11.317,11.317,0,0,0-.907-2.192l1.639-1.643a1.35,1.35,0,0,0,0-1.907l-2.623-2.623a1.349,1.349,0,0,0-1.907,0h0l-1.638,1.637a11.232,11.232,0,0,0-2.193-.906V734.64a1.348,1.348,0,0,0-1.348-1.349h-3.71a1.349,1.349,0,0,0-1.349,1.349h0v2.318a11.2,11.2,0,0,0-2.192.906l-1.638-1.637a1.349,1.349,0,0,0-1.907,0h0l-2.622,2.623a1.348,1.348,0,0,0,0,1.907h0l1.638,1.638a11.155,11.155,0,0,0-.9,2.2H1407.7a1.348,1.348,0,0,0-1.348,1.348h0v3.71A1.348,1.348,0,0,0,1407.7,751h2.318a11.232,11.232,0,0,0,.907,2.193l-1.638,1.638a1.348,1.348,0,0,0,0,1.907h0l2.623,2.623a1.35,1.35,0,0,0,1.907,0l1.638-1.638a11.262,11.262,0,0,0,2.192.907v2.318A1.348,1.348,0,0,0,1419,762.3h3.711a1.348,1.348,0,0,0,1.348-1.348v-2.318a11.242,11.242,0,0,0,2.193-.907l1.638,1.638a1.35,1.35,0,0,0,1.907,0l2.622-2.623a1.35,1.35,0,0,0,0-1.907l-1.638-1.638a11.292,11.292,0,0,0,.907-2.193H1434a1.348,1.348,0,0,0,1.348-1.348v-3.71a1.348,1.348,0,0,0-1.347-1.349Zm-13.15,9.61a6.406,6.406,0,1,1,6.406-6.406h0a6.406,6.406,0,0,1-6.406,6.405Z" transform="translate(-1334.307 -730.721)" fill="#131214"/>
      </g>
    </g>
  </g>
</svg>
