<svg xmlns="http://www.w3.org/2000/svg" width="99" height="121.533" viewBox="0 0 99 121.533">
  <g id="quality_assurance" data-name="quality assurance" transform="translate(-481 -8113.986)">
    <circle id="Ellipse_230" data-name="Ellipse 230" cx="49.5" cy="49.5" r="49.5" transform="translate(481 8125)" fill="#f7931e"/>
    <g id="Group_522" data-name="Group 522" transform="translate(484 8116)">
      <g id="Group_522-2" data-name="Group 522-2" transform="translate(24.775 37.304)">
        <circle id="Ellipse_70" data-name="Ellipse 70" cx="21.446" cy="21.446" r="21.446" fill="#131214"/>
        <path id="Path_35276" data-name="Path 35276" d="M1595.4,557.67s3.963,5.34,4.323,5.226,10.161-11.247,10.161-11.247" transform="translate(-1580.909 -536)" fill="none" stroke="#fff" stroke-linecap="round" stroke-width="4"/>
      </g>
      <path id="Path_35277" data-name="Path 35277" d="M1555.521,592.98c6.318,1.62,21.238,11.66,22.9,12.493s7.079.833,8.745.833,14.159-2.5,14.159-2.5-18.323-3.745-20.822-4.581-4.164-2.915-3.745-4.994,1.666-2.5,3.331-2.915,14.159,2.082,18.323,2.082,9.161-1.666,12.077-1.666,10.411,1.248,13.326,2.5,6.663,5.414,10.411,5.414,9.578-.416,9.578-.416v15.408s-6.663-1.248-10.827-.833a51.63,51.63,0,0,0-9.162,1.666c-3.331.833-23.32,5.414-29.983,4.994s-12.493-1.666-21.238-6.663-19.572-14.575-20.822-17.074S1552.294,592.152,1555.521,592.98Z" transform="translate(-1551.367 -502.986)" fill="none" stroke="#131214" stroke-linecap="round" stroke-linejoin="round" stroke-width="4"/>
      <path id="Path_35278" data-name="Path 35278" d="M1639.653,519.775c-6.318-1.62-21.238-11.66-22.9-12.493s-7.079-.833-8.745-.833-14.159,2.5-14.159,2.5,18.323,3.745,20.822,4.581,4.164,2.915,3.745,4.994-1.666,2.5-3.331,2.915-14.159-2.082-18.323-2.082-9.162,1.666-12.077,1.666-10.411-1.248-13.326-2.5-6.663-5.414-10.411-5.414-9.578.416-9.578.416v-15.4s6.663,1.248,10.827.833a51.614,51.614,0,0,0,9.162-1.666c3.331-.833,23.32-5.414,29.983-4.994s12.493,1.666,21.238,6.663,19.572,14.575,20.822,17.074S1642.88,520.6,1639.653,519.775Z" transform="translate(-1551.366 -492.267)" fill="none" stroke="#131214" stroke-linecap="round" stroke-linejoin="round" stroke-width="4"/>
    </g>
  </g>
</svg>
