<svg width="112" height="21" viewBox="0 0 112 21" fill="none" xmlns="http://www.w3.org/2000/svg">
<path d="M10 2.5L11.7961 8.02786H17.6085L12.9062 11.4443L14.7023 16.9721L10 13.5557L5.29772 16.9721L7.09383 11.4443L2.39155 8.02786H8.20389L10 2.5Z" fill="#0A0A0A"/>
<path d="M30 2.5L31.7961 8.02786H37.6085L32.9062 11.4443L34.7023 16.9721L30 13.5557L25.2977 16.9721L27.0938 11.4443L22.3915 8.02786H28.2039L30 2.5Z" fill="#0A0A0A"/>
<path d="M50 2.5L51.7961 8.02786H57.6085L52.9062 11.4443L54.7023 16.9721L50 13.5557L45.2977 16.9721L47.0938 11.4443L42.3915 8.02786H48.2039L50 2.5Z" fill="#0A0A0A"/>
<path d="M70 2.5L71.7961 8.02786H77.6085L72.9062 11.4443L74.7023 16.9721L70 13.5557L65.2977 16.9721L67.0938 11.4443L62.3915 8.02786H68.2039L70 2.5Z" fill="#0A0A0A"/>
<path d="M90 2.5L91.7961 8.02786H97.6085L92.9062 11.4443L94.7023 16.9721L90 13.5557L85.2977 16.9721L87.0938 11.4443L82.3915 8.02786H88.2039L90 2.5Z" fill="#0A0A0A"/>
</svg>
