<svg width="112" height="17" viewBox="0 0 112 17" fill="none" xmlns="http://www.w3.org/2000/svg">
<rect y="0.214355" width="16" height="16" rx="8" fill="#0A0A0A"/>
<path d="M8 2.21436L9.34708 6.36025H13.7063L10.1796 8.92256L11.5267 13.0685L8 10.5062L4.47329 13.0685L5.82037 8.92256L2.29366 6.36025H6.65292L8 2.21436Z" fill="white"/>
<rect x="24" y="0.214355" width="16" height="16" rx="8" fill="#0A0A0A"/>
<path d="M32 2.21436L33.3471 6.36025H37.7063L34.1796 8.92256L35.5267 13.0685L32 10.5062L28.4733 13.0685L29.8204 8.92256L26.2937 6.36025H30.6529L32 2.21436Z" fill="white"/>
<rect x="48" y="0.214355" width="16" height="16" rx="8" fill="#0A0A0A"/>
<path d="M56 2.21436L57.3471 6.36025H61.7063L58.1796 8.92256L59.5267 13.0685L56 10.5062L52.4733 13.0685L53.8204 8.92256L50.2937 6.36025H54.6529L56 2.21436Z" fill="white"/>
<rect x="72" y="0.214355" width="16" height="16" rx="8" fill="#0A0A0A"/>
<path d="M80 2.21436L81.3471 6.36025H85.7063L82.1796 8.92256L83.5267 13.0685L80 10.5062L76.4733 13.0685L77.8204 8.92256L74.2937 6.36025H78.6529L80 2.21436Z" fill="white"/>
<rect x="96" y="0.214355" width="16" height="16" rx="8" fill="#0A0A0A"/>
<path d="M104 2.21436L105.347 6.36025H109.706L106.18 8.92256L107.527 13.0685L104 10.5062L100.473 13.0685L101.82 8.92256L98.2937 6.36025H102.653L104 2.21436Z" fill="white"/>
</svg>
