<svg xmlns="http://www.w3.org/2000/svg" width="30" height="30" viewBox="0 0 30 30">
  <path id="iconmonstr-reddit-4" d="M17.8,19.185a.269.269,0,0,1,0,.382,3.806,3.806,0,0,1-2.789.859l-.01,0-.01,0a3.8,3.8,0,0,1-2.789-.86.268.268,0,0,1,0-.381.273.273,0,0,1,.384,0,3.316,3.316,0,0,0,2.4.7l.01,0,.01,0a3.32,3.32,0,0,0,2.4-.7A.273.273,0,0,1,17.8,19.185Zm-4.3-3.023a1.153,1.153,0,1,0-1.153,1.148A1.152,1.152,0,0,0,13.5,16.162ZM30,15A15,15,0,1,1,15,0,15,15,0,0,1,30,15Zm-6.25-.161a1.935,1.935,0,0,0-3.28-1.385,9.991,9.991,0,0,0-5.082-1.493l1.081-3.4,2.929.686,0,.043a1.589,1.589,0,1,0,.111-.573l-3.156-.74a.27.27,0,0,0-.321.181l-1.206,3.8A10.11,10.11,0,0,0,9.5,13.427,1.926,1.926,0,1,0,7.21,16.495a3.474,3.474,0,0,0-.063.625c0,2.851,3.506,5.171,7.816,5.171s7.816-2.32,7.816-5.171a3.43,3.43,0,0,0-.055-.59,1.921,1.921,0,0,0,1.025-1.691Zm-6.09.176a1.148,1.148,0,1,0,1.153,1.149A1.151,1.151,0,0,0,17.66,15.015Z" fill="#0a0a0a"/>
</svg>
