<svg xmlns="http://www.w3.org/2000/svg" width="97.934" height="122.592" viewBox="0 0 97.934 122.592">
  <g id="responsibility" transform="translate(-48.426 -11.896)">
    <g id="Group_1225" data-name="Group 1225" transform="translate(75.754 51.553)">
      <circle id="Ellipse_177" data-name="Ellipse 177" cx="21.639" cy="21.639" r="21.639" fill="#fff" stroke="#231f20" stroke-miterlimit="10" stroke-width="4"/>
      <path id="Path_35757" data-name="Path 35757" d="M137.579,146s5.671,7.64,6.186,7.477S158.3,137.382,158.3,137.382" transform="translate(-126.093 -123.145)" fill="none" stroke="#131214" stroke-linecap="round" stroke-miterlimit="10" stroke-width="4"/>
    </g>
    <path id="Path_35758" data-name="Path 35758" d="M144.025,249.487s-6.723-1.26-10.925-.84a52.114,52.114,0,0,0-9.244,1.681c-3.361.84-23.53,5.462-30.253,5.042S81,253.688,72.175,248.646,52.427,233.94,51.166,231.419s.526-4.616,3.782-3.782c6.375,1.635,21.429,11.765,23.11,12.605s7.143.84,8.824.84,14.286-2.521,14.286-2.521-18.488-3.782-21.009-4.622-4.2-2.941-3.782-5.042,1.681-2.521,3.361-2.941,14.286,2.1,18.488,2.1,9.244-1.681,12.185-1.681,10.5,1.261,13.446,2.521,6.723,5.462,10.5,5.462,9.664-.42,9.664-.42" transform="translate(0 -122.922)" fill="none" stroke="#131214" stroke-linecap="round" stroke-linejoin="round" stroke-width="4"/>
    <path id="Path_35759" data-name="Path 35759" d="M50.76,19.819s6.723,1.261,10.925.84a52.115,52.115,0,0,0,9.244-1.681c3.361-.84,23.53-5.462,30.253-5.042s12.605,1.681,21.429,6.723,19.748,14.706,21.009,17.227-.526,4.616-3.782,3.782c-6.375-1.635-21.429-11.765-23.11-12.605s-7.143-.84-8.824-.84-14.286,2.521-14.286,2.521,18.488,3.782,21.009,4.622,4.2,2.941,3.782,5.042-1.681,2.521-3.361,2.941-14.286-2.1-18.488-2.1-9.244,1.681-12.185,1.681-10.5-1.261-13.446-2.521-6.723-5.462-10.5-5.462-9.664.42-9.664.42" transform="translate(0 0)" fill="none" stroke="#131214" stroke-linecap="round" stroke-linejoin="round" stroke-width="4"/>
  </g>
</svg>
