<svg id="responsibility" xmlns="http://www.w3.org/2000/svg" xmlns:xlink="http://www.w3.org/1999/xlink" width="119.529" height="136.759" viewBox="0 0 119.529 136.759">
  <defs>
    <clipPath id="clip-path">
      <rect id="Rectangle_1157" data-name="Rectangle 1157" width="119.529" height="136.759" fill="none"/>
    </clipPath>
  </defs>
  <g id="Group_2373" data-name="Group 2373" clip-path="url(#clip-path)">
    <path id="Path_36324" data-name="Path 36324" d="M49.5,27.658A49.5,49.5,0,1,1,0,77.158a49.5,49.5,0,0,1,49.5-49.5" transform="translate(16.264 -8.778)" fill="#f7931e"/>
    <path id="Path_36328" data-name="Path 36328" d="M24.595,0A24.595,24.595,0,1,1,0,24.595,24.595,24.595,0,0,1,24.595,0Z" transform="translate(40.931 43.784)" fill="#fff" stroke="#0a0a0a" stroke-width="3"/>
    <path id="Path_36325" data-name="Path 36325" d="M53.986,68.8s6.445,8.684,7.031,8.5S77.542,59.011,77.542,59.011" fill="none" stroke="#f7931e" stroke-linecap="round" stroke-width="5"/>
    <path id="Path_36326" data-name="Path 36326" d="M17.284,104.209c7.245,1.858,24.356,13.372,26.266,14.327s8.119.955,10.029.955,16.238-2.865,16.238-2.865-21.013-4.3-23.879-5.253-4.775-3.343-4.3-5.731,1.91-2.866,3.821-3.343,16.237,2.388,21.013,2.388,10.506-1.911,13.849-1.911,11.94,1.433,15.283,2.866,7.641,6.208,11.939,6.208,10.984-.477,10.984-.477v17.67s-7.641-1.433-12.417-.955A59.176,59.176,0,0,0,95.606,130c-3.821.955-26.744,6.208-34.385,5.731s-14.328-1.911-24.357-7.641-22.445-16.715-23.878-19.581S13.583,103.26,17.284,104.209Z" transform="translate(0 -4)" fill="none" stroke="#0a0a0a" stroke-linecap="round" stroke-linejoin="round" stroke-width="3"/>
    <path id="Path_36327" data-name="Path 36327" d="M113.769,32.55C106.524,30.692,89.413,19.178,87.5,18.223s-8.119-.955-10.029-.955-16.238,2.865-16.238,2.865,21.013,4.3,23.879,5.253,4.775,3.343,4.3,5.731-1.91,2.866-3.821,3.343-16.237-2.388-21.013-2.388S54.073,33.983,50.73,33.983,38.79,32.55,35.447,31.117s-7.641-6.208-11.939-6.208-10.984.477-10.984.477V7.716s7.641,1.433,12.417.955a59.175,59.175,0,0,0,10.506-1.91C39.268,5.806,62.191.553,69.833,1.03S84.16,2.941,94.189,8.671s22.445,16.715,23.878,19.581S117.47,33.5,113.769,32.55Z" transform="translate(0 4)" fill="none" stroke="#0a0a0a" stroke-linecap="round" stroke-linejoin="round" stroke-width="3"/>
  </g>
</svg>
