<svg xmlns="http://www.w3.org/2000/svg" width="29.835" height="30" viewBox="0 0 29.835 30">
  <g id="spotify-podcast-badge-blk-wht-165x40" transform="translate(13.314 -7.25)">
    <g id="Group-2-Copy-2" transform="translate(-13.314 7.25)">
      <path id="Combined-Shape" d="M94.491,21.548a1.39,1.39,0,0,0,1.912-.491,1.407,1.407,0,0,0-.488-1.922c-5.536-3.3-14.3-3.615-19.564-2.006a1.4,1.4,0,0,0,.81,2.685C81.751,18.412,89.683,18.676,94.491,21.548ZM94.334,25.8a1.173,1.173,0,0,0-.383-1.608A21.657,21.657,0,0,0,77.194,22.2a1.169,1.169,0,0,0,.676,2.238,19.485,19.485,0,0,1,14.865,1.748A1.16,1.16,0,0,0,94.334,25.8Zm-1.825,4.084A.938.938,0,0,0,92.2,28.6c-3.932-2.416-8.806-2.978-14.489-1.672a.934.934,0,0,0,.414,1.822c5.193-1.193,9.6-.706,13.1,1.446A.926.926,0,0,0,92.509,29.885ZM85.668,8.25a15,15,0,1,1-14.918,15A14.959,14.959,0,0,1,85.668,8.25Z" transform="translate(-70.75 -8.25)" fill="#fff" fill-rule="evenodd"/>
    </g>
  </g>
</svg>
