<svg xmlns="http://www.w3.org/2000/svg" width="30" height="30" viewBox="0 0 30 30">
  <path id="Subtraction_5" data-name="Subtraction 5" d="M2412,7383a15,15,0,1,1,10.606-4.394A14.9,14.9,0,0,1,2412,7383Zm-4.183-17.746h0l0,0-3.039,1.616a4.386,4.386,0,0,0,2.062,8.258,4.4,4.4,0,0,0,2.057-.515l3.871-2.059a4.385,4.385,0,0,0,.908-7.105l-1.071.57a1.488,1.488,0,0,0-.3.211,2.926,2.926,0,0,1-.22,5.034l-3.873,2.059a2.924,2.924,0,1,1-2.744-5.164l1.981-1.052a5.865,5.865,0,0,1,.372-1.855Zm9.341-2.925a2.925,2.925,0,0,1,1.376,5.506l-1.982,1.053a5.861,5.861,0,0,1-.371,1.853l3.039-1.616a4.385,4.385,0,1,0-4.117-7.744l-3.873,2.059a4.384,4.384,0,0,0-.908,7.1l1.417-.752a2.926,2.926,0,0,1,.178-5.062l3.871-2.059A2.93,2.93,0,0,1,2417.159,7362.33Z" transform="translate(-2397 -7353)" fill="#0a0a0a"/>
</svg>
