<svg xmlns="http://www.w3.org/2000/svg" width="143.1" height="162.002" viewBox="0 0 143.1 162.002">
  <g id="teamwork" transform="translate(-52.032 -389.741)">
    <circle id="Ellipse_179" data-name="Ellipse 179" cx="56.522" cy="56.522" r="56.522" transform="translate(66.027 436.699)" fill="none" stroke="#231f20" stroke-linecap="round" stroke-linejoin="round" stroke-width="4"/>
    <g id="Group_1230" data-name="Group 1230" transform="translate(54.032 389.741)">
      <rect id="Rectangle_893" data-name="Rectangle 893" width="40.226" height="40.226" rx="16" transform="translate(50.138 32.832)" fill="#fff" stroke="#231f20" stroke-miterlimit="10" stroke-width="4"/>
      <circle id="Ellipse_180" data-name="Ellipse 180" cx="5.916" cy="5.916" r="5.916" transform="translate(51.026 12.423)" fill="#231f20"/>
      <circle id="Ellipse_181" data-name="Ellipse 181" cx="5.916" cy="5.916" r="5.916" transform="translate(74.097 9.465)" fill="#231f20"/>
      <rect id="Rectangle_894" data-name="Rectangle 894" width="40.226" height="40.226" rx="16" transform="translate(0 116.226)" fill="#fff" stroke="#231f20" stroke-miterlimit="10" stroke-width="4"/>
      <path id="Path_35776" data-name="Path 35776" d="M58.945,574.235l-4.913,20.557H94.259l-7.074-20.557Z" transform="translate(-54.032 -478.566)" fill="#231f20"/>
      <path id="Path_35777" data-name="Path 35777" d="M77.172,553.13h0a14.86,14.86,0,0,0-14.858,14.641H92.029A14.861,14.861,0,0,0,77.172,553.13Z" transform="translate(-58.02 -468.405)" fill="#231f20" stroke="#231f20" stroke-miterlimit="10" stroke-width="3"/>
      <path id="Path_35778" data-name="Path 35778" d="M63.444,588.541a14.272,14.272,0,0,0,14.272,14.271h0a14.272,14.272,0,0,0,14.272-14.271v-5.822c0-.072,0-.142-.006-.213H63.449c0,.071-.005.142-.005.213Z" transform="translate(-58.564 -482.548)" fill="#fff" stroke="#231f20" stroke-miterlimit="10" stroke-width="4"/>
      <path id="Path_35779" data-name="Path 35779" d="M87.264,609.463a4.141,4.141,0,0,0,4.141-4.141H83.123A4.141,4.141,0,0,0,87.264,609.463Z" transform="translate(-68.038 -493.532)" fill="#131214"/>
      <path id="Path_35780" data-name="Path 35780" d="M173.861,395.16h0A14.861,14.861,0,0,0,159,409.8h29.715A14.86,14.86,0,0,0,173.861,395.16Z" transform="translate(-104.57 -392.35)" fill="#231f20"/>
      <path id="Path_35781" data-name="Path 35781" d="M160.133,430A14.272,14.272,0,0,0,174.4,444.272h0A14.272,14.272,0,0,0,188.676,430v-5.822c0-.072,0-.142-.005-.213H160.139c0,.072-.006.142-.006.213Z" transform="translate(-105.114 -406.218)" fill="#fff" stroke="#231f20" stroke-miterlimit="10" stroke-width="4"/>
      <path id="Path_35782" data-name="Path 35782" d="M183.953,450.923a4.141,4.141,0,0,0,4.141-4.141h-8.282A4.141,4.141,0,0,0,183.953,450.923Z" transform="translate(-114.589 -417.204)" fill="#131214"/>
      <circle id="Ellipse_182" data-name="Ellipse 182" cx="5.916" cy="5.916" r="5.916" transform="translate(52.8 5.028)" fill="#231f20"/>
      <circle id="Ellipse_183" data-name="Ellipse 183" cx="5.916" cy="5.916" r="5.916" transform="translate(56.35 0.887)" fill="#231f20"/>
      <circle id="Ellipse_184" data-name="Ellipse 184" cx="5.916" cy="5.916" r="5.916" transform="translate(64.336)" fill="#231f20"/>
      <circle id="Ellipse_185" data-name="Ellipse 185" cx="5.916" cy="5.916" r="5.916" transform="translate(72.322 1.479)" fill="#231f20"/>
      <circle id="Ellipse_186" data-name="Ellipse 186" cx="5.916" cy="5.916" r="5.916" transform="translate(75.28 5.916)" fill="#231f20"/>
      <circle id="Ellipse_187" data-name="Ellipse 187" cx="5.916" cy="5.916" r="5.916" transform="translate(54.679 9.312)" fill="#231f20"/>
      <circle id="Ellipse_188" data-name="Ellipse 188" cx="3.803" cy="3.803" r="3.803" transform="translate(63.301 12.158)" fill="#231f20"/>
      <rect id="Rectangle_895" data-name="Rectangle 895" width="40.226" height="40.226" rx="16" transform="translate(98.873 115.537)" fill="#fff" stroke="#231f20" stroke-miterlimit="10" stroke-width="4"/>
      <path id="Path_35783" data-name="Path 35783" d="M268.009,552.807h0a14.661,14.661,0,0,0-14.658,14.445h29.316A14.661,14.661,0,0,0,268.009,552.807Z" transform="translate(-149.994 -468.249)" fill="#231f20" stroke="#231f20" stroke-miterlimit="10" stroke-width="3"/>
      <path id="Path_35784" data-name="Path 35784" d="M254.116,587.211a14.272,14.272,0,0,0,14.272,14.272h0a14.271,14.271,0,0,0,14.271-14.272v-5.822c0-.072,0-.142-.005-.213H254.121c0,.071-.005.142-.005.213Z" transform="translate(-150.362 -481.907)" fill="#fff" stroke="#231f20" stroke-miterlimit="10" stroke-width="4"/>
      <path id="Path_35785" data-name="Path 35785" d="M277.936,608.133a4.141,4.141,0,0,0,4.141-4.141H273.8A4.141,4.141,0,0,0,277.936,608.133Z" transform="translate(-159.837 -492.892)" fill="#131214"/>
    </g>
    <path id="Path_35786" data-name="Path 35786" d="M137.579,147.685s6.781,9.136,7.4,8.941,17.385-19.244,17.385-19.244" transform="translate(-26.082 349.176)" fill="none" stroke="#131214" stroke-linecap="round" stroke-miterlimit="10" stroke-width="8"/>
  </g>
</svg>
