<svg xmlns="http://www.w3.org/2000/svg" width="123.934" height="99" viewBox="0 0 123.934 99">
  <g id="teamwork" transform="translate(8364.924 15462.886)">
    <g id="project_development" data-name="project development" transform="translate(-8809 -21984.127)">
      <circle id="Ellipse_224" data-name="Ellipse 224" cx="49.5" cy="49.5" r="49.5" transform="translate(457 6521.241)" fill="#f7931e"/>
      <g id="Group_609" data-name="Group 609" transform="translate(454 6488.127)">
        <g id="Group_520" data-name="Group 520">
          <circle id="Ellipse_61" data-name="Ellipse 61" cx="5.094" cy="5.094" r="5.094" transform="translate(81.105 58.941)" fill="#520993"/>
          <path id="Rectangle_412" data-name="Rectangle 412" d="M1357.005,819.372h0a17.319,17.319,0,0,1,17.318,17.318h0c0,9.565,7.252,17.318-4.032,17.318h-26.845c-9.565,0-3.76-7.754-3.76-17.318h0A17.318,17.318,0,0,1,1357.005,819.372Z" transform="translate(-1346.427 -739.571)" fill="#fff" stroke="#0a0a0a" stroke-width="3"/>
          <path id="Path_35266" data-name="Path 35266" d="M1343.917,799.523l-4.23,17.7h34.636l-6.09-17.7Z" transform="translate(-1346.427 -737.422)" fill="#0a0a0a"/>
          <path id="Path_35267" data-name="Path 35267" d="M1357.207,788.955h0a13.374,13.374,0,0,0-13.373,13.178h26.747A13.375,13.375,0,0,0,1357.207,788.955Z" transform="translate(-1347.12 -736.849)" fill="#0a0a0a"/>
          <path id="Path_35268" data-name="Path 35268" d="M1344.4,808.713a11.94,11.94,0,0,0,11.94,11.94h0a11.941,11.941,0,0,0,11.94-11.94v-4.871c0-.06,0-.119-.005-.178H1344.4c0,.06,0,.118,0,.178Z" transform="translate(-1346.241 -737.375)" fill="#fff" stroke="#0a0a0a" stroke-width="3"/>
          <path id="Path_35269" data-name="Path 35269" d="M1357.818,818.653a3.567,3.567,0,0,0,3.567-3.567h-7.134A3.567,3.567,0,0,0,1357.818,818.653Z" transform="translate(-1348.004 -740.107)" fill="#0a0a0a"/>
          <g id="Group_2377" data-name="Group 2377" transform="translate(15.647)">
            <path id="Rectangle_411" data-name="Rectangle 411" d="M1410.7,819.07h0a17.386,17.386,0,0,1,17.318,17.453h0c0,9.639,5.92,17.453-3.644,17.453h-28.088c-9.565,0-2.9-7.814-2.9-17.453h0A17.386,17.386,0,0,1,1410.7,819.07Z" transform="translate(-1332.903 -740.008)" fill="#fff" stroke="#0a0a0a" stroke-width="3"/>
            <circle id="Ellipse_60" data-name="Ellipse 60" cx="5.094" cy="5.094" r="5.094" transform="translate(61.24 61.488)" fill="#0a0a0a"/>
            <circle id="Ellipse_62" data-name="Ellipse 62" cx="5.094" cy="5.094" r="5.094" transform="translate(82.633 62.252)" fill="#0a0a0a"/>
            <path id="Path_35270" data-name="Path 35270" d="M1410.319,790.077h0a12.8,12.8,0,0,0-12.793,12.61h25.585A12.8,12.8,0,0,0,1410.319,790.077Z" transform="translate(-1333.352 -736.869)" fill="#0a0a0a"/>
            <path id="Path_35271" data-name="Path 35271" d="M1398.091,809.7a12.287,12.287,0,0,0,12.286,12.289h0a12.289,12.289,0,0,0,12.288-12.288v-5.013c0-.062,0-.122,0-.184h-24.567c0,.061-.005.121-.005.184Z" transform="translate(-1333.412 -738.432)" fill="#fff" stroke="#0a0a0a" stroke-width="3"/>
            <path id="Path_35272" data-name="Path 35272" d="M1411.51,819.493a3.567,3.567,0,0,0,3.567-3.567h-7.134A3.567,3.567,0,0,0,1411.51,819.493Z" transform="translate(-1334.479 -740.668)" fill="#0a0a0a"/>
            <circle id="Ellipse_63" data-name="Ellipse 63" cx="5.094" cy="5.094" r="5.094" transform="translate(62.769 55.121)" fill="#0a0a0a"/>
            <circle id="Ellipse_64" data-name="Ellipse 64" cx="5.094" cy="5.094" r="5.094" transform="translate(65.824 51.556)" fill="#0a0a0a"/>
            <circle id="Ellipse_65" data-name="Ellipse 65" cx="5.094" cy="5.094" r="5.094" transform="translate(72.7 50.791)" fill="#0a0a0a"/>
            <circle id="Ellipse_66" data-name="Ellipse 66" cx="5.094" cy="5.094" r="5.094" transform="translate(79.577 52.064)" fill="#0a0a0a"/>
            <circle id="Ellipse_67" data-name="Ellipse 67" cx="5.094" cy="5.094" r="5.094" transform="translate(82.123 55.885)" fill="#0a0a0a"/>
            <circle id="Ellipse_68" data-name="Ellipse 68" cx="5.094" cy="5.094" r="5.094" transform="translate(64.386 58.811)" fill="#0a0a0a"/>
            <circle id="Ellipse_69" data-name="Ellipse 69" cx="3.274" cy="3.274" r="3.274" transform="translate(71.81 61.26)" fill="#0a0a0a"/>
          </g>
        </g>
      </g>
      <path id="Path_36378" data-name="Path 36378" d="M53.986,68.8s6.445,8.684,7.031,8.5S77.542,59.011,77.542,59.011" transform="translate(441.221 6502.582)" fill="none" stroke="#fff" stroke-linecap="round" stroke-width="5"/>
    </g>
  </g>
</svg>
