<svg xmlns="http://www.w3.org/2000/svg" width="30.999" height="31" viewBox="0 0 30.999 31"><g transform="translate(-0.486 0.1)"><path d="M15.5,31A15.5,15.5,0,0,1,4.542,4.54a15.5,15.5,0,0,1,21.92,21.92A15.4,15.4,0,0,1,15.5,31ZM8.27,20.984h0a9.156,9.156,0,0,0,4.765,1.342h.076a8.463,8.463,0,0,0,8.45-8.894v-.1a5.225,5.225,0,0,0,1.474-1.554,5.334,5.334,0,0,1-1.689.48,3.254,3.254,0,0,0,1.269-1.653V10.6a4.9,4.9,0,0,1-1.9.673,3.046,3.046,0,0,0-5.167,2.786A8.431,8.431,0,0,1,9.268,10.9a3.049,3.049,0,0,0,.923,4.03,2,2,0,0,1-.2.01,1.956,1.956,0,0,1-1.127-.355,2.927,2.927,0,0,0,2.35,2.976,2.4,2.4,0,0,1-1.269.1,2.867,2.867,0,0,0,2.722,2.067,5.417,5.417,0,0,1-4.4,1.261Z" transform="translate(0.483 -0.1)"/></g></svg>