<svg xmlns="http://www.w3.org/2000/svg" width="30" height="30" viewBox="0 0 30 30">
  <g id="twitter" transform="matrix(1,0,0,1,-1078,-3884)">
    <circle id="Oval-1" cx="15.4" cy="15" r="15" transform="translate(1078,3884)" fill="#ffffff"/>
    <path id="Fill-1" d="M 32.3 21.3 C 31.7 21.6 31.1 21.8 30.4 21.9 h 0 C 29.5 21 28.1 20.7 26.9 21.4 C 25.7 22 25.1 23.3 25.4 24.6 h 0 C 23.1 24.5 20.8 23.4 19.4 21.6 C 18.6 22.9 19 24.6 20.2 25.5 C 19.8 25.5 19.3 25.4 19 25.1 C 18.9 26.5 19.9 27.7 21.2 28 C 20.8 28.1 20.4 28.2 20 28.1 C 20.3 29.3 21.4 30.1 22.6 30.1 C 21.5 31.1 19.9 31.5 18.4 31.3 C 19.8 32.2 21.4 32.6 23 32.6 C 25.3 32.6 27.4 31.7 29 30.1 C 30.5 28.5 31.4 26.3 31.2 24 s 0 0 0 0 V 23.9 C 31.8 23.5 32.3 23 32.7 22.4 C 32.2 22.6 31.6 22.8 31 22.9 C 31.6 22.5 32 21.9 32.3 21.3" transform="translate(1068,3873)" fill="#000" fill-rule="evenodd"/>
  </g>
</svg>
