<svg xmlns="http://www.w3.org/2000/svg" width="130.452" height="122.406" viewBox="0 0 130.452 122.406"><defs><style>.a{fill:none;stroke:#131214;stroke-miterlimit:10;stroke-width:3px;}.b{fill:#131214;}</style></defs><g transform="translate(-59 -73.8)"><path class="a" d="M94.455,136h99.262a4.441,4.441,0,0,1,4.455,4.455v61.081a4.441,4.441,0,0,1-4.455,4.455H94.455A4.441,4.441,0,0,1,90,201.536V140.455A4.464,4.464,0,0,1,94.455,136Z" transform="translate(-20.211 -40.552)"/><line class="a" x2="108.241" transform="translate(69.72 108.743)"/><path class="b" d="M101.948,251.041H98.364a17.24,17.24,0,0,0-1.427-3.411l2.541-2.541a2.059,2.059,0,0,0,0-2.958h0l-4.072-4.072a2.059,2.059,0,0,0-2.958,0h0L89.906,240.6a17.12,17.12,0,0,0-3.411-1.392v-3.62a2.094,2.094,0,0,0-2.088-2.088H78.63a2.094,2.094,0,0,0-2.088,2.088v3.585a17.12,17.12,0,0,0-3.411,1.392l-2.541-2.541a2.059,2.059,0,0,0-2.958,0h0L63.559,242.1a2.059,2.059,0,0,0,0,2.958h0L66.1,247.6a17.119,17.119,0,0,0-1.392,3.411h-3.62A2.094,2.094,0,0,0,59,253.095v5.743a2.094,2.094,0,0,0,2.088,2.088h3.62a17.12,17.12,0,0,0,1.392,3.411l-2.541,2.541a2.09,2.09,0,0,0,0,2.958h0l4.072,4.072a2.059,2.059,0,0,0,2.958,0h0l2.541-2.541a17.119,17.119,0,0,0,3.411,1.392v3.585a2.094,2.094,0,0,0,2.088,2.088h5.777a2.094,2.094,0,0,0,2.088-2.088v-3.55a17.119,17.119,0,0,0,3.411-1.392l2.541,2.541a2.059,2.059,0,0,0,2.958,0h0l4.072-4.072a2.09,2.09,0,0,0,0-2.958h0l-2.541-2.576a17.241,17.241,0,0,0,1.427-3.411h3.585a2.094,2.094,0,0,0,2.088-2.088V253.06a2.081,2.081,0,0,0-2.088-2.019Zm-20.43,14.931a9.954,9.954,0,1,1,9.954-9.954h0a9.952,9.952,0,0,1-9.954,9.954Z" transform="translate(0 -104.118)"/><circle class="b" cx="2.784" cy="2.784" r="2.784" transform="translate(94.674 99.207)"/><circle class="b" cx="2.784" cy="2.784" r="2.784" transform="translate(85.556 99.207)"/><circle class="b" cx="2.784" cy="2.784" r="2.784" transform="translate(77.237 99.207)"/><path class="b" d="M282.038,373.809h-1.671a7.84,7.84,0,0,0-.661-1.566l1.183-1.183a.946.946,0,0,0,0-1.357h0l-1.879-1.879a.946.946,0,0,0-1.357,0h0l-1.183,1.183a7.839,7.839,0,0,0-1.566-.661v-1.671a.973.973,0,0,0-.975-.975h-2.645a.973.973,0,0,0-.974.975v1.671a7.839,7.839,0,0,0-1.566.661l-1.183-1.183a.946.946,0,0,0-1.357,0h0l-1.879,1.879a.946.946,0,0,0,0,1.357h0l1.183,1.183a8.8,8.8,0,0,0-.661,1.566h-1.671a.973.973,0,0,0-.975.975v2.645a.973.973,0,0,0,.975.975h1.671a7.839,7.839,0,0,0,.661,1.566l-1.183,1.183a.946.946,0,0,0,0,1.357h0l1.879,1.879a.946.946,0,0,0,1.357,0h0l1.183-1.183a7.84,7.84,0,0,0,1.566.661v1.671a.973.973,0,0,0,.975.975h2.645a.973.973,0,0,0,.975-.975V383.9a7.84,7.84,0,0,0,1.566-.661l1.183,1.183a.946.946,0,0,0,1.357,0h0l1.879-1.879a.946.946,0,0,0,0-1.357h0L279.707,380a8.8,8.8,0,0,0,.661-1.566h1.671a.973.973,0,0,0,.974-.975h0v-2.645a1,1,0,0,0-.974-1.009Zm-9.432,6.891a4.594,4.594,0,1,1,4.594-4.594,4.59,4.59,0,0,1-4.594,4.594Z" transform="translate(-132.478 -190.306)"/><path class="b" d="M380.751,84.589h-2.227a9.139,9.139,0,0,0-.87-2.088l1.566-1.566a1.271,1.271,0,0,0,0-1.81h0l-2.506-2.506a1.3,1.3,0,0,0-1.81,0l-1.566,1.566a11.015,11.015,0,0,0-2.088-.87V75.088a1.308,1.308,0,0,0-1.288-1.288h-3.585a1.308,1.308,0,0,0-1.288,1.288v2.227a11.016,11.016,0,0,0-2.088.87l-1.566-1.566a1.3,1.3,0,0,0-1.81,0l-2.506,2.506a1.3,1.3,0,0,0,0,1.81l1.566,1.566a11.015,11.015,0,0,0-.87,2.088h-2.227a1.308,1.308,0,0,0-1.288,1.288v3.55a1.308,1.308,0,0,0,1.288,1.288h2.227a11.013,11.013,0,0,0,.87,2.088l-1.6,1.6a1.3,1.3,0,0,0,0,1.81l2.506,2.506a1.3,1.3,0,0,0,1.81,0l1.566-1.566a11.016,11.016,0,0,0,2.088.87v2.227a1.308,1.308,0,0,0,1.288,1.288h3.55a1.308,1.308,0,0,0,1.288-1.288V98.024a11.016,11.016,0,0,0,2.088-.87l1.566,1.566a1.3,1.3,0,0,0,1.81,0l2.506-2.506a1.271,1.271,0,0,0,0-1.81h0l-1.566-1.566a11.017,11.017,0,0,0,.87-2.088h2.227a1.308,1.308,0,0,0,1.288-1.288v-3.55A1.236,1.236,0,0,0,380.751,84.589Zm-12.6,9.223a6.143,6.143,0,1,1,6.126-6.16h0a6.12,6.12,0,0,1-6.126,6.16Z" transform="translate(-192.523)"/></g></svg>