<svg xmlns="http://www.w3.org/2000/svg" width="1241.607" height="2785.913" viewBox="0 0 1241.607 2785.913">
  <g id="strzalki_versja2" transform="translate(-339.196 -3470.591)">
    <g id="Group_1321" data-name="Group 1321" transform="translate(1400 3469.367)">
      <g id="Group_755" data-name="Group 755" transform="translate(-298 2.633)">
        <path id="Path_35449" data-name="Path 35449" d="M8.617,0,0,7.238H23.185" transform="translate(0 0)" fill="none" stroke="#FE6B00" stroke-linecap="round" stroke-linejoin="round" stroke-width="2" />
        <line id="Line_39" data-name="Line 39" x2="8.617" y2="7.239" transform="translate(0 7.284)" fill="none" stroke="#FE6B00" stroke-linecap="round" stroke-miterlimit="10" stroke-width="2" />
      </g>
      <g id="Group_755-2" data-name="Group 755" transform="translate(-298 1415)">
        <path id="Path_35449-2" data-name="Path 35449" d="M14.568,0l8.617,7.238H0" transform="translate(0 0)" fill="none" stroke="#FE6B00" stroke-linecap="round" stroke-linejoin="round" stroke-width="2" />
        <line id="Line_39-2" data-name="Line 39" x1="8.617" y2="7.238" transform="translate(14.569 7.283)" fill="none" stroke="#FE6B00" stroke-linecap="round" stroke-miterlimit="10" stroke-width="2" />
      </g>
      <g id="Group_755-3" data-name="Group 755" transform="translate(-298 499)">
        <path id="Path_35449-3" data-name="Path 35449" d="M8.617,0,0,7.238H23.185" transform="translate(0 0)" fill="none" stroke="#FE6B00" stroke-linecap="round" stroke-linejoin="round" stroke-width="2" />
        <line id="Line_39-3" data-name="Line 39" x2="8.617" y2="7.239" transform="translate(0 7.284)" fill="none" stroke="#FE6B00" stroke-linecap="round" stroke-miterlimit="10" stroke-width="2" />
      </g>
      <g id="Group_755-4" data-name="Group 755" transform="translate(-297 1868)">
        <path id="Path_35449-4" data-name="Path 35449" d="M8.617,0,0,7.238H23.185" transform="translate(0 0)" fill="none" stroke="#FE6B00" stroke-linecap="round" stroke-linejoin="round" stroke-width="2" />
        <line id="Line_39-4" data-name="Line 39" x2="8.617" y2="7.239" transform="translate(0 7.284)" fill="none" stroke="#FE6B00" stroke-linecap="round" stroke-miterlimit="10" stroke-width="2" />
      </g>
      <g id="Group_755-5" data-name="Group 755" transform="translate(-298 2330)">
        <path id="Path_35449-5" data-name="Path 35449" d="M8.617,0,0,7.238H23.185" transform="translate(0 0)" fill="none" stroke="#FE6B00" stroke-linecap="round" stroke-linejoin="round" stroke-width="2" />
        <line id="Line_39-5" data-name="Line 39" x2="8.617" y2="7.239" transform="translate(0 7.284)" fill="none" stroke="#FE6B00" stroke-linecap="round" stroke-miterlimit="10" stroke-width="2" />
      </g>
      <path id="Path_35962" data-name="Path 35962" d="M.011-315.8S-.067,24.8.011,63.3c.064,23.1-.015-.035.053,91.254" transform="translate(22.243 1422.794) rotate(-90)" fill="none" stroke="#FE6B00" stroke-width="2" stroke-dasharray="4 4" />
      <path id="Path_35981" data-name="Path 35981" d="M.011-315.8S-.067,14.123.011,51.42C.075,73.8,0,51.386.064,139.814" transform="translate(40.989 505.794) rotate(-90)" fill="none" stroke="#FE6B00" stroke-width="2" stroke-dasharray="4 4" />
      <path id="Path_35992" data-name="Path 35992" d="M.011-315.8S-.067,14.123.011,51.42C.075,73.8,0,51.386.064,139.814" transform="translate(40.989 9.427) rotate(-90)" fill="none" stroke="#FE6B00" stroke-width="2" stroke-dasharray="4 4" />
      <path id="Path_35983" data-name="Path 35983" d="M.011-315.8S-.067,14.123.011,51.42C.075,73.8,0,51.386.064,139.814" transform="translate(40.989 1874.794) rotate(-90)" fill="none" stroke="#FE6B00" stroke-width="2" stroke-dasharray="4 4" />
      <path id="Path_35987" data-name="Path 35987" d="M.011-315.8S-.067,14.123.011,51.42C.075,73.8,0,51.386.064,139.814" transform="translate(40.989 2336.794) rotate(-90)" fill="none" stroke="#FE6B00" stroke-width="2" stroke-dasharray="4 4" />
    </g>
    <g id="Group_1377" data-name="Group 1377" transform="translate(338.33 3974.367)">
      <g id="Group_755-6" data-name="Group 755" transform="translate(456.485 -6)">
        <path id="Path_35449-6" data-name="Path 35449" d="M14.568,0l8.617,7.238H0" transform="translate(0 0)" fill="none" stroke="#FE6B00" stroke-linecap="round" stroke-linejoin="round" stroke-width="2" />
        <line id="Line_39-6" data-name="Line 39" x1="8.617" y2="7.239" transform="translate(14.568 7.284)" fill="none" stroke="#FE6B00" stroke-linecap="round" stroke-miterlimit="10" stroke-width="2" />
      </g>
      <g id="Group_755-7" data-name="Group 755" transform="translate(456.484 1362.01)">
        <path id="Path_35449-7" data-name="Path 35449" d="M14.568,0l8.617,7.238H0" transform="translate(0 0)" fill="none" stroke="#FE6B00" stroke-linecap="round" stroke-linejoin="round" stroke-width="2" />
        <line id="Line_39-7" data-name="Line 39" x1="8.617" y2="7.238" transform="translate(14.569 7.283)" fill="none" stroke="#FE6B00" stroke-linecap="round" stroke-miterlimit="10" stroke-width="2" />
      </g>
      <g id="Group_755-8" data-name="Group 755" transform="translate(456.484 450.669)">
        <path id="Path_35449-8" data-name="Path 35449" d="M8.617,0,0,7.238H23.186" transform="translate(0 0)" fill="none" stroke="#FE6B00" stroke-linecap="round" stroke-linejoin="round" stroke-width="2" />
        <line id="Line_39-8" data-name="Line 39" x2="8.617" y2="7.238" transform="translate(0 7.283)" fill="none" stroke="#FE6B00" stroke-linecap="round" stroke-miterlimit="10" stroke-width="2" />
      </g>
      <g id="Group_755-9" data-name="Group 755" transform="translate(456.485 910.473)">
        <path id="Path_35449-9" data-name="Path 35449" d="M14.568,0l8.617,7.238H0" transform="translate(0 0)" fill="none" stroke="#FE6B00" stroke-linecap="round" stroke-linejoin="round" stroke-width="2" />
        <line id="Line_39-9" data-name="Line 39" x1="8.617" y2="7.239" transform="translate(14.568 7.284)" fill="none" stroke="#FE6B00" stroke-linecap="round" stroke-miterlimit="10" stroke-width="2" />
      </g>
      <g id="Group_755-10" data-name="Group 755" transform="translate(456.485 1825.206)">
        <path id="Path_35449-10" data-name="Path 35449" d="M14.568,0l8.617,7.238H0" transform="translate(0 0)" fill="none" stroke="#FE6B00" stroke-linecap="round" stroke-linejoin="round" stroke-width="2" />
        <line id="Line_39-10" data-name="Line 39" x1="8.617" y2="7.239" transform="translate(14.568 7.284)" fill="none" stroke="#FE6B00" stroke-linecap="round" stroke-miterlimit="10" stroke-width="2" />
      </g>
      <g id="Group_755-11" data-name="Group 755" transform="translate(456.485 2266.206)">
        <path id="Path_35449-11" data-name="Path 35449" d="M14.568,0l8.617,7.238H0" transform="translate(0 0)" fill="none" stroke="#FE6B00" stroke-linecap="round" stroke-linejoin="round" stroke-width="2" />
        <line id="Line_39-11" data-name="Line 39" x1="8.617" y2="7.239" transform="translate(14.568 7.284)" fill="none" stroke="#FE6B00" stroke-linecap="round" stroke-miterlimit="10" stroke-width="2" />
      </g>
      <path id="Path_35962-2" data-name="Path 35962" d="M.035,471.51s-.078-341.434,0-380.033C.1,68.316.02,91.513.087,0" transform="translate(3.72 1369.857) rotate(-90)" fill="none" stroke="#FE6B00" stroke-width="2" stroke-dasharray="4 4" />
      <path id="Path_35981-2" data-name="Path 35981" d="M.035,455.618s-.078-329.926,0-367.223C.1,66.013.02,88.428.087,0" transform="translate(0.866 457.465) rotate(-90)" fill="none" stroke="#FE6B00" stroke-width="2" stroke-dasharray="4 4" />
      <path id="Path_35989" data-name="Path 35989" d="M.035,455.618s-.078-329.926,0-367.223C.1,66.013.02,88.428.087,0" transform="translate(0.866 0.818) rotate(-90)" fill="none" stroke="#FE6B00" stroke-width="2" stroke-dasharray="4 4" />
      <path id="Path_35988" data-name="Path 35988" d="M.035,455.618s-.078-329.926,0-367.223C.1,66.013.02,88.428.087,0" transform="translate(0.866 917.301) rotate(-90)" fill="none" stroke="#FE6B00" stroke-width="2" stroke-dasharray="4 4" />
      <path id="Path_35983-2" data-name="Path 35983" d="M.035,455.618s-.078-329.926,0-367.223C.1,66.013.02,88.428.087,0" transform="translate(0.866 1832.024) rotate(-90)" fill="none" stroke="#FE6B00" stroke-width="2" stroke-dasharray="4 4" />
      <path id="Path_35987-2" data-name="Path 35987" d="M.035,455.618s-.078-329.926,0-367.223C.1,66.013.02,88.428.087,0" transform="translate(0.866 2273.024) rotate(-90)" fill="none" stroke="#FE6B00" stroke-width="2" stroke-dasharray="4 4" />
      <path id="Path_35990" data-name="Path 35990" d="M.035,2272.641S-.043,623.8.035,437.4C.1,325.551-.033,441.929.035,0" transform="translate(3.719 2273.371) rotate(180)" fill="none" stroke="#FE6B00" stroke-width="2" stroke-dasharray="4 4" />
      <path id="Path_35991" data-name="Path 35991" d="M.036,2328.2S-.045,642.283.036,451.693C.1,337.327.021,451.866.091,0" transform="translate(1240.721 1832.231) rotate(180)" fill="none" stroke="#FE6B00" stroke-width="2" stroke-dasharray="4 4" />
    </g>
  </g>
</svg>
