<svg xmlns="http://www.w3.org/2000/svg" width="707.73" height="1423.316" viewBox="0 0 707.73 1423.316">
  <g id="strzalki" transform="translate(-619.723 659.041)">
    <path id="Path_35999" data-name="Path 35999" d="M1714.169,578.865" transform="translate(1562 -1186.078) rotate(90)" fill="none" stroke="#fff" stroke-miterlimit="10" stroke-width="1"/>
    <g id="Group_1387" data-name="Group 1387" transform="translate(1025.16 -505.82) rotate(90)">
      <g id="Group_755" data-name="Group 755" transform="translate(16.497 20.828)">
        <path id="Path_35449" data-name="Path 35449" d="M578.818,570.5l8.617-7.238H564.25" transform="translate(-564.25 -555.979)" fill="none" stroke="#f7931e" stroke-linecap="round" stroke-linejoin="round" stroke-width="2"/>
        <line id="Line_39" data-name="Line 39" x1="8.617" y1="7.239" transform="translate(14.568)" fill="none" stroke="#f7931e" stroke-linecap="round" stroke-miterlimit="10" stroke-width="2"/>
      </g>
    </g>
    <g id="Group_1388" data-name="Group 1388" transform="translate(1025.16 -166.82) rotate(90)">
      <g id="Group_755-2" data-name="Group 755" transform="translate(16.497 20.828)">
        <path id="Path_35449-2" data-name="Path 35449" d="M578.818,570.5l8.617-7.238H564.25" transform="translate(-564.25 -555.979)" fill="none" stroke="#f7931e" stroke-linecap="round" stroke-linejoin="round" stroke-width="2"/>
        <line id="Line_39-2" data-name="Line 39" x1="8.617" y1="7.239" transform="translate(14.568)" fill="none" stroke="#f7931e" stroke-linecap="round" stroke-miterlimit="10" stroke-width="2"/>
      </g>
    </g>
    <path id="Path_36000" data-name="Path 36000" d="M10052.008-10992.883l167,.835" transform="translate(-9995.495 -10611.344) rotate(90)" fill="none" stroke="#f7931e" stroke-width="2" stroke-dasharray="4 6"/>
    <path id="Path_36001" data-name="Path 36001" d="M10052.008-10992.883l167,.835" transform="translate(-9995.495 -10272.344) rotate(90)" fill="none" stroke="#f7931e" stroke-width="2" stroke-dasharray="4 6"/>
    <g id="Group_1389" data-name="Group 1389" transform="translate(4 -2201)">
      <g id="Group_1313" data-name="Group 1313" transform="translate(1021.16 2382.18) rotate(90)">
        <g id="Group_755-3" data-name="Group 755" transform="translate(16.497 20.828)">
          <path id="Path_35449-3" data-name="Path 35449" d="M578.818,570.5l8.617-7.238H564.25" transform="translate(-564.25 -555.979)" fill="none" stroke="#f7931e" stroke-linecap="round" stroke-linejoin="round" stroke-width="2"/>
          <line id="Line_39-3" data-name="Line 39" x1="8.617" y1="7.239" transform="translate(14.568)" fill="none" stroke="#f7931e" stroke-linecap="round" stroke-miterlimit="10" stroke-width="2"/>
        </g>
      </g>
      <path id="Path_35966" data-name="Path 35966" d="M10052.008-10992.883l167,.835" transform="translate(-9999.495 -7723.344) rotate(90)" fill="none" stroke="#f7931e" stroke-width="2" stroke-dasharray="4 6"/>
    </g>
    <g id="Group_1390" data-name="Group 1390" transform="translate(4 -1838)">
      <g id="Group_1313-2" data-name="Group 1313" transform="translate(1021.16 2382.18) rotate(90)">
        <g id="Group_755-4" data-name="Group 755" transform="translate(16.497 20.828)">
          <path id="Path_35449-4" data-name="Path 35449" d="M578.818,570.5l8.617-7.238H564.25" transform="translate(-564.25 -555.979)" fill="none" stroke="#f7931e" stroke-linecap="round" stroke-linejoin="round" stroke-width="2"/>
          <line id="Line_39-4" data-name="Line 39" x1="8.617" y1="7.239" transform="translate(14.568)" fill="none" stroke="#f7931e" stroke-linecap="round" stroke-miterlimit="10" stroke-width="2"/>
        </g>
      </g>
      <path id="Path_35966-2" data-name="Path 35966" d="M10052.008-10992.883l167,.835" transform="translate(-9999.495 -7723.344) rotate(90)" fill="none" stroke="#f7931e" stroke-width="2" stroke-dasharray="4 6"/>
    </g>
    <g id="Group_1391" data-name="Group 1391" transform="translate(4 -2201)">
      <g id="Group_755-5" data-name="Group 755" transform="translate(774.342 1867.367)">
        <path id="Path_35449-5" data-name="Path 35449" d="M14.568,0l8.617,7.238H0" transform="translate(0 0)" fill="none" stroke="#f7931e" stroke-linecap="round" stroke-linejoin="round" stroke-width="2"/>
        <line id="Line_39-5" data-name="Line 39" x1="8.617" y2="7.239" transform="translate(14.568 7.284)" fill="none" stroke="#f7931e" stroke-linecap="round" stroke-miterlimit="10" stroke-width="2"/>
      </g>
      <g id="Group_755-6" data-name="Group 755" transform="translate(774.342 2191.367)">
        <path id="Path_35449-6" data-name="Path 35449" d="M14.568,0l8.617,7.238H0" transform="translate(0 0)" fill="none" stroke="#f7931e" stroke-linecap="round" stroke-linejoin="round" stroke-width="2"/>
        <line id="Line_39-6" data-name="Line 39" x1="8.617" y2="7.239" transform="translate(14.568 7.284)" fill="none" stroke="#f7931e" stroke-linecap="round" stroke-miterlimit="10" stroke-width="2"/>
      </g>
      <path id="Path_35961" data-name="Path 35961" d="M441.1,158.53c-109.363,0-299.887.066-384.23,0C3.4,158.729-1.135,130.862.182,92.03c1.081-23.3-.25.035.883-92.031" transform="translate(775.281 1873.762) rotate(90)" fill="none" stroke="#f7931e" stroke-width="2" stroke-dasharray="4 4"/>
      <path id="Path_35962" data-name="Path 35962" d="M29.51,158.53s-21.08.066-26.115,0C.2,158.729-.068,130.862.01,92.03.074,68.729,0,92.065.063,0" transform="translate(775.281 2198.648) rotate(90)" fill="none" stroke="#f7931e" stroke-width="2" stroke-dasharray="4 4"/>
    </g>
    <g id="Group_1392" data-name="Group 1392" transform="translate(1145.648 -657.633)">
      <g id="Group_755-7" data-name="Group 755" transform="translate(0 0)">
        <path id="Path_35449-7" data-name="Path 35449" d="M8.617,0,0,7.238H23.185" transform="translate(0 0)" fill="none" stroke="#f7931e" stroke-linecap="round" stroke-linejoin="round" stroke-width="2"/>
        <line id="Line_39-7" data-name="Line 39" x2="8.617" y2="7.239" transform="translate(0 7.284)" fill="none" stroke="#f7931e" stroke-linecap="round" stroke-miterlimit="10" stroke-width="2"/>
      </g>
      <g id="Group_755-8" data-name="Group 755" transform="translate(0 324)">
        <path id="Path_35449-8" data-name="Path 35449" d="M8.617,0,0,7.238H23.185" transform="translate(0 0)" fill="none" stroke="#f7931e" stroke-linecap="round" stroke-linejoin="round" stroke-width="2"/>
        <line id="Line_39-8" data-name="Line 39" x2="8.617" y2="7.239" transform="translate(0 7.284)" fill="none" stroke="#f7931e" stroke-linecap="round" stroke-miterlimit="10" stroke-width="2"/>
      </g>
      <path id="Path_35961-2" data-name="Path 35961" d="M441.1.03c-109.363,0-299.887-.066-384.23,0C3.4-.17-1.134,27.7.182,66.53c1.081,23.3-.25-.035.883,92.031" transform="translate(180.806 6.394) rotate(90)" fill="none" stroke="#f7931e" stroke-width="2" stroke-dasharray="4 4"/>
      <path id="Path_35962-2" data-name="Path 35962" d="M29.511.03S8.431-.037,3.4.03C.2-.17-.067,27.7.011,66.53c.064,23.3-.015-.035.053,92.031" transform="translate(180.806 331.28) rotate(90)" fill="none" stroke="#f7931e" stroke-width="2" stroke-dasharray="4 4"/>
    </g>
    <g id="Group_1393" data-name="Group 1393" transform="translate(620.721 315.367)">
      <g id="Group_755-9" data-name="Group 755" transform="translate(157.621 432.976)">
        <path id="Path_35449-9" data-name="Path 35449" d="M14.568,7.238,23.185,0H0" transform="translate(0 7.284)" fill="none" stroke="#f7931e" stroke-linecap="round" stroke-linejoin="round" stroke-width="2"/>
        <line id="Line_39-9" data-name="Line 39" x1="8.617" y1="7.239" transform="translate(14.568)" fill="none" stroke="#f7931e" stroke-linecap="round" stroke-miterlimit="10" stroke-width="2"/>
      </g>
      <g id="Group_755-10" data-name="Group 755" transform="translate(157.621 108.976)">
        <path id="Path_35449-10" data-name="Path 35449" d="M14.568,7.238,23.185,0H0" transform="translate(0 7.284)" fill="none" stroke="#f7931e" stroke-linecap="round" stroke-linejoin="round" stroke-width="2"/>
        <line id="Line_39-10" data-name="Line 39" x1="8.617" y1="7.239" transform="translate(14.568)" fill="none" stroke="#f7931e" stroke-linecap="round" stroke-miterlimit="10" stroke-width="2"/>
      </g>
      <path id="Path_35961-3" data-name="Path 35961" d="M441.1.03c-109.363,0-299.887-.066-384.23,0C3.4-.17-1.134,27.7.182,66.53c1.081,23.3-.25-.035.883,92.031" transform="translate(0 441.104) rotate(-90)" fill="none" stroke="#f7931e" stroke-width="2" stroke-dasharray="4 4"/>
      <path id="Path_35962-3" data-name="Path 35962" d="M29.511.03S8.431-.037,3.4.03C.2-.17-.067,27.7.011,66.53c.064,23.3-.015-.035.053,92.031" transform="translate(0 116.218) rotate(-90)" fill="none" stroke="#f7931e" stroke-width="2" stroke-dasharray="4 4"/>
    </g>
    <g id="Group_1394" data-name="Group 1394" transform="translate(1145.648 -8.633)">
      <g id="Group_755-11" data-name="Group 755" transform="translate(-0.001 432.976)">
        <path id="Path_35449-11" data-name="Path 35449" d="M8.617,7.238,0,0H23.185" transform="translate(0 7.284)" fill="none" stroke="#f7931e" stroke-linecap="round" stroke-linejoin="round" stroke-width="2"/>
        <line id="Line_39-11" data-name="Line 39" y1="7.239" x2="8.617" transform="translate(0)" fill="none" stroke="#f7931e" stroke-linecap="round" stroke-miterlimit="10" stroke-width="2"/>
      </g>
      <g id="Group_755-12" data-name="Group 755" transform="translate(-0.001 108.976)">
        <path id="Path_35449-12" data-name="Path 35449" d="M8.617,7.238,0,0H23.185" transform="translate(0 7.284)" fill="none" stroke="#f7931e" stroke-linecap="round" stroke-linejoin="round" stroke-width="2"/>
        <line id="Line_39-12" data-name="Line 39" y1="7.239" x2="8.617" transform="translate(0)" fill="none" stroke="#f7931e" stroke-linecap="round" stroke-miterlimit="10" stroke-width="2"/>
      </g>
      <path id="Path_35961-4" data-name="Path 35961" d="M441.1,158.532c-109.363,0-299.887.066-384.23,0-53.477.2-58.008-27.668-56.691-66.5,1.081-23.3-.25.035.883-92.032" transform="translate(22.244 441.104) rotate(-90)" fill="none" stroke="#f7931e" stroke-width="2" stroke-dasharray="4 4"/>
      <path id="Path_35962-4" data-name="Path 35962" d="M29.511,158.532s-21.08.066-26.115,0c-3.192.2-3.463-27.668-3.385-66.5C.075,68.73,0,92.067.064,0" transform="translate(22.244 116.218) rotate(-90)" fill="none" stroke="#f7931e" stroke-width="2" stroke-dasharray="4 4"/>
    </g>
  </g>
</svg>
