<svg id="youtube" xmlns="http://www.w3.org/2000/svg" xmlns:xlink="http://www.w3.org/1999/xlink" width="42.581" height="30" viewBox="0 0 42.581 30">
  <defs>
    <clipPath id="clip-path">
      <rect id="Rectangle_1182" data-name="Rectangle 1182" width="42.581" height="30" fill="none"/>
    </clipPath>
  </defs>
  <g id="Group_2632" data-name="Group 2632" clip-path="url(#clip-path)">
    <path id="Path_36454" data-name="Path 36454" d="M41.691,4.685A5.35,5.35,0,0,0,37.926.9C34.606,0,21.29,0,21.29,0S7.975,0,4.654.9A5.35,5.35,0,0,0,.89,4.685C0,8.027,0,15,0,15s0,6.973.89,10.315A5.351,5.351,0,0,0,4.654,29.1c3.321.9,16.636.9,16.636.9s13.315,0,16.636-.9a5.351,5.351,0,0,0,3.765-3.789c.89-3.342.89-10.315.89-10.315s0-6.973-.89-10.315M16.935,21.331V8.669L28.065,15Z" fill="#fff"/>
  </g>
</svg>
