<svg height="24.309" viewBox="0 0 39.695 24.309" width="39.695" xmlns="http://www.w3.org/2000/svg"><path d="m46.482 40.875c-9.135 0-9.135 9.091-9.135 9.135 0 0-.612 9.091 9.135 9.091 0 0 7.343.437 8.086-5.376a.866.866 0 0 0 -.83-.962h-2.538a.877.877 0 0 0 -.83.612c-.219.743-1.005 1.967-3.715 1.967 0 0-3.54.219-4.108-3.147a.819.819 0 0 1 .83-.962h10.579a.83.83 0 0 0 .83-.83c.088-2.447-.349-9.528-8.304-9.528zm-3.497 7.125a.5.5 0 0 1 -.481-.656 4.1 4.1 0 0 1 4.021-3.016 3.4 3.4 0 0 1 3.584 3.1.485.485 0 0 1 -.481.568zm-10.927-2.1a.35.35 0 0 1 -.044-.656 4.254 4.254 0 0 0 2.229-4.108c0-4.24-2.972-6.338-6.731-6.338h-11.8a.6.6 0 0 0 -.612.612v22.555a.6.6 0 0 0 .612.612h11.757s7.561.219 7.561-7.037c0 .044.263-4.589-2.972-5.64zm-11.538-6.423a.438.438 0 0 1 .437-.437h6.469s1.661 0 1.661 2.491-1.005 2.841-2.1 2.841h-5.987a.438.438 0 0 1 -.437-.437v-4.458zm6.6 14.9h-6.12a.438.438 0 0 1 -.437-.437v-5.46a.438.438 0 0 1 .437-.437h6.469s2.531-.043 2.491 3.278c0 2.754-1.879 3.016-2.841 3.06zm14.2-18.619v2.054a.438.438 0 0 0 .437.437h8.916a.438.438 0 0 0 .437-.437v-2.05a.438.438 0 0 0 -.437-.437h-8.868a.425.425 0 0 0 -.481.437z" fill="#131214" transform="translate(-15.1 -34.8)"/></svg>