<svg height="27" viewBox="0 0 26.998 27" width="26.998" xmlns="http://www.w3.org/2000/svg"><path d="m30.218 15.191a13.5 13.5 0 1 0 -22.772 12.264 13.638 13.638 0 0 0 2 1.647 13.494 13.494 0 0 0 17.095-1.647 13.7 13.7 0 0 0 1.648-2 13.545 13.545 0 0 0 2.032-10.268zm-1.7 2.6a26.69 26.69 0 0 0 -8.029-.378q-.121-.3-.248-.6c-.24-.564-.5-1.123-.767-1.672a14.811 14.811 0 0 0 6.426-4.555 11.471 11.471 0 0 1 2.617 7.208zm-3.91-8.538c-.029.045-1.671 2.544-6.022 4.175a58.566 58.566 0 0 0 -4.309-6.726 11.513 11.513 0 0 1 10.33 2.554zm-10.377-2.538s0 0 0 0l-.034.008c.01-.002.023-.004.034-.008zm-2.158.767a69.31 69.31 0 0 1 4.281 6.643 42.644 42.644 0 0 1 -10.644 1.407 11.546 11.546 0 0 1 6.363-8.051zm-6.609 10.426c0-.123.005-.243.01-.364a42.272 42.272 0 0 0 11.835-1.644c.33.647.647 1.3.935 1.96-.152.043-.3.088-.454.138a18.239 18.239 0 0 0 -9.378 7.609s0 0 0 .005a11.491 11.491 0 0 1 -2.948-7.704zm11.529 11.53a11.48 11.48 0 0 1 -7.344-2.638c.151.123.258.2.258.2s2.21-4.82 9.047-7.2c.026-.01.051-.017.077-.025a47.975 47.975 0 0 1 2.463 8.754 11.47 11.47 0 0 1 -4.501.909zm6.442-1.967a49.863 49.863 0 0 0 -2.244-8.235 16.706 16.706 0 0 1 7.185.5 11.537 11.537 0 0 1 -4.941 7.736z" fill-rule="evenodd" transform="translate(-3.493 -4.409)"/></svg>